<svg xmlns="http://www.w3.org/2000/svg" width="67" height="67" viewBox="0 0 67 67"><g fill="#fff" stroke="#184c98" stroke-width="2"><circle cx="33.5" cy="33.5" r="33.5" stroke="none"/><circle cx="33.5" cy="33.5" r="32.5" fill="none"/></g><g transform="translate(8 4)"><g transform="translate(6 12)"><path d="M42.6,24.459a3.574,3.574,0,0,0-3.366-3.743A3.047,3.047,0,0,0,37.952,21a.87.87,0,0,1-1.231-.716,6.813,6.813,0,0,0-6.536-6.542c-3.622,0-6.568,3.244-6.568,7.231S26.563,28.2,30.184,28.2h9.051A3.574,3.574,0,0,0,42.6,24.459Zm-9.785,5.484H30.184a8.332,8.332,0,0,1-7.631-5.431H14.42a.375.375,0,0,0-.3.143c-.007.015-.016.03-.024.045L9.348,32.956h25.2Zm3.341,6.027A1.275,1.275,0,0,0,34.884,34.7H9.014A1.275,1.275,0,0,0,7.74,35.969v4.575a1.275,1.275,0,0,0,1.274,1.273h25.87a1.274,1.274,0,0,0,1.273-1.273Zm8.185-11.51a5.311,5.311,0,0,1-5.106,5.484H34.825L37.161,34a3,3,0,0,1,.736,1.967v4.575a3.017,3.017,0,0,1-3.013,3.013H9.014A3.017,3.017,0,0,1,6,40.544V35.969A3,3,0,0,1,6.739,34l5.8-10.081a.87.87,0,0,1,.047-.094,2.129,2.129,0,0,1,1.831-1.052h7.625a9.678,9.678,0,0,1-.168-1.8C21.876,16.025,25.6,12,30.184,12A8.437,8.437,0,0,1,38.3,19.067a4.783,4.783,0,0,1,.932-.091A5.311,5.311,0,0,1,44.342,24.459Zm-10.363,13.8a.87.87,0,0,1-.87.87H27.322a.87.87,0,1,1,0-1.74h5.787A.87.87,0,0,1,33.979,38.257Z" transform="translate(-6 -12)" fill="#184c98" fill-rule="evenodd"/></g></g></svg>