<svg xmlns="http://www.w3.org/2000/svg" width="67" height="67" viewBox="0 0 67 67"><g fill="#fff" stroke="#184c98" stroke-width="2"><circle cx="33.5" cy="33.5" r="33.5" stroke="none"/><circle cx="33.5" cy="33.5" r="32.5" fill="none"/></g><g transform="translate(18.061 17.541)"><rect width="6.558" height="1.513" transform="translate(9.421 15.134)" fill="#184c98"/><ellipse cx="1.009" cy="0.757" rx="1.009" ry="0.757" transform="translate(2.863 15.134)" fill="#184c98"/><ellipse cx="0.757" cy="0.757" rx="0.757" ry="0.757" transform="translate(6.394 15.134)" fill="#184c98"/><rect width="10.594" height="1.513" transform="translate(9.421 4.036)" fill="#184c98"/><ellipse cx="1.009" cy="0.757" rx="1.009" ry="0.757" transform="translate(2.863 4.036)" fill="#184c98"/><ellipse cx="0.757" cy="0.757" rx="0.757" ry="0.757" transform="translate(6.394 4.036)" fill="#184c98"/><rect width="6.558" height="1.513" transform="translate(9.421 26.232)" fill="#184c98"/><ellipse cx="1.009" cy="0.757" rx="1.009" ry="0.757" transform="translate(2.863 26.232)" fill="#184c98"/><ellipse cx="0.757" cy="0.757" rx="0.757" ry="0.757" transform="translate(6.394 26.232)" fill="#184c98"/><path d="M39.115,24.363V20.772a6.783,6.783,0,0,0-5.985-6.731V12.793A2.793,2.793,0,0,0,30.338,10H8.793A2.793,2.793,0,0,0,6,12.793v3.99a2.793,2.793,0,0,0,2.793,2.793H25.662a6.955,6.955,0,0,0-.112,1.2v.4H8.793A2.793,2.793,0,0,0,6,23.964v3.99a2.793,2.793,0,0,0,2.793,2.793H23.555v1.6H8.793A2.793,2.793,0,0,0,6,35.136v3.99a2.793,2.793,0,0,0,2.793,2.793H30.338a2.793,2.793,0,0,0,2.793-2.793v-1.2h5.985a2,2,0,0,0,1.995-1.995V26.358a2,2,0,0,0-1.995-1.995Zm-6.783-8.778a5.187,5.187,0,0,1,5.187,5.187v3.591h-1.6V20.772a3.591,3.591,0,0,0-7.182,0v3.591h-1.6V20.772A5.187,5.187,0,0,1,32.333,15.586Zm1.995,5.187v3.591h-3.99V20.772a1.995,1.995,0,0,1,3.99,0ZM8.793,17.98a1.2,1.2,0,0,1-1.2-1.2v-3.99a1.2,1.2,0,0,1,1.2-1.2H30.338a1.2,1.2,0,0,1,1.2,1.2v1.249a6.783,6.783,0,0,0-5.374,3.938Zm0,11.171a1.2,1.2,0,0,1-1.2-1.2v-3.99a1.2,1.2,0,0,1,1.2-1.2H25.55v1.6a2,2,0,0,0-1.995,1.995v2.793Zm22.742,9.975a1.2,1.2,0,0,1-1.2,1.2H8.793a1.2,1.2,0,0,1-1.2-1.2v-3.99a1.2,1.2,0,0,1,1.2-1.2H23.555v1.995a2,2,0,0,0,1.995,1.995h5.985Zm7.98-3.192a.4.4,0,0,1-.4.4H25.55a.4.4,0,0,1-.4-.4V26.358a.4.4,0,0,1,.4-.4H39.115a.4.4,0,0,1,.4.4Z" transform="translate(-6 -10)" fill="#184c98"/><path d="M68.405,54a2.394,2.394,0,0,0-.8,4.648v2.534h1.6V58.648a2.394,2.394,0,0,0-.8-4.648Zm0,3.192a.8.8,0,1,1,.8-.8A.8.8,0,0,1,68.405,57.192Z" transform="translate(-42.072 -36.445)" fill="#184c98"/></g></svg>