<svg xmlns="http://www.w3.org/2000/svg" width="67" height="67" viewBox="0 0 67 67"><g fill="#fff" stroke="#184c98" stroke-width="2"><circle cx="33.5" cy="33.5" r="33.5" stroke="none"/><circle cx="33.5" cy="33.5" r="32.5" fill="none"/></g><g transform="translate(19.987 17.322)"><ellipse cx="0.8" cy="0.8" rx="0.8" ry="0.8" transform="translate(3.201 15.206)" fill="#184c98"/><ellipse cx="0.8" cy="0.8" rx="0.8" ry="0.8" transform="translate(6.403 15.206)" fill="#184c98"/><rect width="10.804" height="1.601" transform="translate(9.604 4.002)" fill="#184c98"/><ellipse cx="0.8" cy="0.8" rx="0.8" ry="0.8" transform="translate(3.201 4.002)" fill="#184c98"/><ellipse cx="0.8" cy="0.8" rx="0.8" ry="0.8" transform="translate(6.403 4.002)" fill="#184c98"/><rect width="6.403" height="1.601" transform="translate(9.604 26.41)" fill="#184c98"/><ellipse cx="0.8" cy="0.8" rx="0.8" ry="0.8" transform="translate(3.201 26.41)" fill="#184c98"/><ellipse cx="0.8" cy="0.8" rx="0.8" ry="0.8" transform="translate(6.403 26.41)" fill="#184c98"/><path d="M33.211,15.574V12.8a2.8,2.8,0,0,0-2.8-2.8H8.8A2.8,2.8,0,0,0,6,12.8v4a2.8,2.8,0,0,0,2.8,2.8H21.714a10.512,10.512,0,0,0-.98,1.6H8.8a2.8,2.8,0,0,0-2.8,2.8v4a2.8,2.8,0,0,0,2.8,2.8H20.734a10.513,10.513,0,0,0,.98,1.6H8.8A2.8,2.8,0,0,0,6,35.21v4a2.8,2.8,0,0,0,2.8,2.8H30.41a2.8,2.8,0,0,0,2.8-2.8V36.438a10.8,10.8,0,0,0,0-20.864ZM19.637,26.807a10.612,10.612,0,0,0,.452,2.4H8.8a1.2,1.2,0,0,1-1.2-1.2v-4a1.2,1.2,0,0,1,1.2-1.2H20.09a10.612,10.612,0,0,0-.452,2.4H15.6v1.6ZM8.8,18a1.2,1.2,0,0,1-1.2-1.2v-4a1.2,1.2,0,0,1,1.2-1.2H30.41a1.2,1.2,0,0,1,1.2,1.2V15.27A10.764,10.764,0,0,0,23.159,18ZM31.61,39.211a1.2,1.2,0,0,1-1.2,1.2H8.8a1.2,1.2,0,0,1-1.2-1.2v-4a1.2,1.2,0,0,1,1.2-1.2H23.159a10.764,10.764,0,0,0,8.451,2.733Zm-1.2-4a9.2,9.2,0,1,1,9.2-9.2A9.2,9.2,0,0,1,30.41,35.21Z" transform="translate(-6 -10)" fill="#184c98"/><path d="M56.6,50.327a1.2,1.2,0,0,1-1.681-1.681L57.167,46.4a1.2,1.2,0,0,1,1.681,0l1.132-1.132a2.8,2.8,0,0,0-3.942,0L53.77,47.514a2.8,2.8,0,1,0,3.962,3.962l1.124-1.124-1.132-1.132Z" transform="translate(-34.162 -30.667)" fill="#184c98"/><path d="M65.729,36.77,64.6,37.895l1.132,1.132L66.861,37.9a1.2,1.2,0,1,1,1.681,1.681l-2.249,2.249a1.2,1.2,0,0,1-1.681,0L63.48,42.965a2.8,2.8,0,0,0,3.942,0l2.269-2.233a2.8,2.8,0,0,0-3.962-3.962Z" transform="translate(-40.479 -25.566)" fill="#184c98"/></g></svg>