<svg xmlns="http://www.w3.org/2000/svg" width="67" height="67" viewBox="0 0 67 67"><g fill="#fff" stroke="#184c98" stroke-width="2"><circle cx="33.5" cy="33.5" r="33.5" stroke="none"/><circle cx="33.5" cy="33.5" r="32.5" fill="none"/></g><g transform="translate(16 18.577)"><path d="M37.285,41.137H38.87V15H25.4V41.137h1.584v1.584H19.861V41.137h1.584V15H7.98V41.137H9.564v1.584H6v1.584H40.85V42.721H37.285ZM9.564,16.584h10.3V39.553H9.564Zm8.712,26.137H11.148V41.137h7.128Zm8.712-26.137h10.3V39.553h-10.3ZM35.7,42.721H28.573V41.137H35.7Z" transform="translate(-6 -15)" fill="#184c98"/><rect width="5.308" height="2.335" transform="translate(23.383 5.836)" fill="#184c98"/><rect width="5.308" height="2.335" transform="translate(6.235 5.836)" fill="#184c98"/><rect width="5.308" height="2.335" transform="translate(23.383 10.808)" fill="#184c98"/><rect width="5.308" height="2.335" transform="translate(6.235 10.808)" fill="#184c98"/><rect width="5.308" height="2.335" transform="translate(23.383 15.444)" fill="#184c98"/><rect width="5.308" height="2.335" transform="translate(6.235 15.444)" fill="#184c98"/><circle cx="1.168" cy="1.168" r="1.168" transform="translate(23.383 19.114)" fill="#184c98"/><circle cx="1.168" cy="1.168" r="1.168" transform="translate(6.235 19.114)" fill="#184c98"/><circle cx="1.168" cy="1.168" r="1.168" transform="translate(26.356 19.114)" fill="#184c98"/><circle cx="1.168" cy="1.168" r="1.168" transform="translate(9.208 19.114)" fill="#184c98"/></g></svg>