<svg xmlns="http://www.w3.org/2000/svg" width="67" height="67" viewBox="0 0 67 67"><g fill="#fff" stroke="#184c98" stroke-width="2"><circle cx="33.5" cy="33.5" r="33.5" stroke="none"/><circle cx="33.5" cy="33.5" r="32.5" fill="none"/></g><g transform="translate(18.53 17)"><circle cx="0.825" cy="0.825" r="0.825" transform="translate(3.3 15.675)" fill="#184c98"/><circle cx="0.825" cy="0.825" r="0.825" transform="translate(6.6 15.675)" fill="#184c98"/><rect width="11.137" height="1.65" transform="translate(9.9 4.125)" fill="#184c98"/><circle cx="0.825" cy="0.825" r="0.825" transform="translate(3.3 4.125)" fill="#184c98"/><circle cx="0.825" cy="0.825" r="0.825" transform="translate(6.6 4.125)" fill="#184c98"/><rect width="6.6" height="1.65" transform="translate(9.9 27.225)" fill="#184c98"/><circle cx="0.825" cy="0.825" r="0.825" transform="translate(3.3 27.225)" fill="#184c98"/><circle cx="0.825" cy="0.825" r="0.825" transform="translate(6.6 27.225)" fill="#184c98"/><path d="M34.05,15.746V12.887A2.887,2.887,0,0,0,31.162,10H8.887A2.888,2.888,0,0,0,6,12.888v4.125A2.888,2.888,0,0,0,8.887,19.9H22.2a10.836,10.836,0,0,0-1.011,1.65H8.887A2.887,2.887,0,0,0,6,24.437v4.125A2.887,2.887,0,0,0,8.887,31.45h12.3A10.836,10.836,0,0,0,22.2,33.1H8.887A2.887,2.887,0,0,0,6,35.987v4.125A2.887,2.887,0,0,0,8.887,43H31.162a2.888,2.888,0,0,0,2.888-2.887V37.254a11.137,11.137,0,0,0,0-21.508ZM20.058,27.325a10.939,10.939,0,0,0,.466,2.475H8.887A1.237,1.237,0,0,1,7.65,28.562V24.437A1.237,1.237,0,0,1,8.887,23.2H20.524a10.939,10.939,0,0,0-.466,2.475H15.9v1.65ZM8.887,18.25A1.238,1.238,0,0,1,7.65,17.013V12.887A1.238,1.238,0,0,1,8.887,11.65H31.162A1.238,1.238,0,0,1,32.4,12.887v2.545a11.1,11.1,0,0,0-8.712,2.817ZM32.4,40.112a1.238,1.238,0,0,1-1.238,1.237H8.887A1.238,1.238,0,0,1,7.65,40.112V35.987A1.237,1.237,0,0,1,8.887,34.75h14.8A11.1,11.1,0,0,0,32.4,37.567Zm-1.238-4.125A9.487,9.487,0,1,1,40.65,26.5,9.488,9.488,0,0,1,31.162,35.987Z" transform="translate(-6 -10)" fill="#184c98"/><path d="M59.67,33.517l.71-.714L59.212,31.64l-2.623,2.624,2.623,2.624,1.167-1.163-.47-.474a4.125,4.125,0,1,1-5.259,3.964H53a5.775,5.775,0,1,0,6.67-5.7Z" transform="translate(-33.612 -22.714)" fill="#184c98"/></g></svg>