<svg xmlns="http://www.w3.org/2000/svg" width="67" height="67" viewBox="0 0 67 67"><g fill="#fff" stroke="#184c98" stroke-width="2"><circle cx="33.5" cy="33.5" r="33.5" stroke="none"/><circle cx="33.5" cy="33.5" r="32.5" fill="none"/></g><g transform="translate(17.498 17.312)"><ellipse cx="0.701" cy="0.701" rx="0.701" ry="0.701" transform="translate(2.472 2.524)" fill="#184c98"/><ellipse cx="0.841" cy="0.701" rx="0.841" ry="0.701" transform="translate(4.995 2.524)" fill="#184c98"/><path d="M35.821,6H8.182A2.182,2.182,0,0,0,6,8.182V35.821A2.182,2.182,0,0,0,8.182,38H35.821A2.182,2.182,0,0,0,38,35.821V8.182A2.182,2.182,0,0,0,35.821,6ZM22.365,36.549h-.727V30.894a11.725,11.725,0,0,0-2.295-6.957,4.419,4.419,0,0,1,5.317,0,11.725,11.725,0,0,0-2.295,6.957Zm2.909-5.015v5.015H23.82V30.894a10.263,10.263,0,0,1,3.4-7.637l-.975-1.091c-.225.2-.436.418-.644.636a5.873,5.873,0,0,0-7.194,0c-.207-.218-.418-.433-.644-.636l-.975,1.091a10.263,10.263,0,0,1,3.4,7.637v5.655H18.729V31.534l-.407-.2a8.365,8.365,0,1,1,7.361,0Zm11.274,4.288a.727.727,0,0,1-.727.727H26.729v-4.12a9.819,9.819,0,1,0-9.456,0v4.12H8.182a.727.727,0,0,1-.727-.727V12.546H36.549Zm0-24.73H7.455V8.182a.727.727,0,0,1,.727-.727H35.821a.727.727,0,0,1,.727.727Z" transform="translate(-6 -6)" fill="#184c98"/><ellipse cx="0.841" cy="0.701" rx="0.841" ry="0.701" transform="translate(7.519 2.524)" fill="#184c98"/></g></svg>