<svg xmlns="http://www.w3.org/2000/svg" width="67" height="67" viewBox="0 0 67 67"><g fill="#fff" stroke="#184c98" stroke-width="2"><circle cx="33.5" cy="33.5" r="33.5" stroke="none"/><circle cx="33.5" cy="33.5" r="32.5" fill="none"/></g><g transform="translate(17.385 17)"><g transform="translate(2 2)"><path d="M30.758,31.229H2.471A.472.472,0,0,1,2,30.758V2.471A.472.472,0,0,1,2.471,2H30.758a.472.472,0,0,1,.471.471V30.758A.472.472,0,0,1,30.758,31.229ZM2.943,30.287H30.287V2.943H2.943Z" transform="translate(-2 -2)" fill="#184c98" stroke="#184c98" stroke-width="0.5"/><path d="M31.045,30.5H2.846a.471.471,0,1,1,0-.943h28.2a.471.471,0,0,1,0,.943Z" transform="translate(-2.287 -23.063)" fill="#184c98" stroke="#184c98" stroke-width="0.5"/><g transform="translate(1.53 2.373)"><path d="M22.54,17.008H8.962a.471.471,0,0,1,0-.943H22.54a.471.471,0,0,1,0,.943Z" transform="translate(-8.491 -15.122)" fill="#184c98" stroke="#184c98" stroke-width="0.5"/><path d="M77.566,14.894a1.414,1.414,0,1,1,1.414-1.414A1.416,1.416,0,0,1,77.566,14.894Zm0-1.886a.471.471,0,1,0,.471.471A.472.472,0,0,0,77.566,13.008Z" transform="translate(-60.203 -12.065)" fill="#184c98" stroke="#184c98" stroke-width="0.5"/><path d="M91.5,14.894a1.414,1.414,0,1,1,1.414-1.414A1.416,1.416,0,0,1,91.5,14.894Zm0-1.886a.471.471,0,1,0,.471.471A.472.472,0,0,0,91.5,13.008Z" transform="translate(-70.855 -12.065)" fill="#184c98" stroke="#184c98" stroke-width="0.5"/><path d="M105.44,14.894a1.414,1.414,0,1,1,1.414-1.414A1.416,1.416,0,0,1,105.44,14.894Zm0-1.886a.471.471,0,1,0,.471.471A.472.472,0,0,0,105.44,13.008Z" transform="translate(-81.506 -12.065)" fill="#184c98" stroke="#184c98" stroke-width="0.5"/></g><g transform="translate(8.477 10.747)"><path d="M44.042,63.227a.472.472,0,0,1-.27-.085,13.512,13.512,0,0,1-3.71-3.842,13.861,13.861,0,0,1-2.091-7.876.471.471,0,0,1,.433-.451,7.949,7.949,0,0,0,5.31-3.191.471.471,0,0,1,.769.018,7.506,7.506,0,0,0,2.537,2.311l0,0a6.386,6.386,0,0,0,2.81.871.471.471,0,0,1,.454.462A14.1,14.1,0,0,1,48.2,59.21a13.346,13.346,0,0,1-3.787,3.933.471.471,0,0,1-.32.082ZM38.9,51.864a12.874,12.874,0,0,0,1.954,6.931,12.519,12.519,0,0,0,3.234,3.417,12.329,12.329,0,0,0,3.307-3.5,13.091,13.091,0,0,0,1.948-6.821,7.552,7.552,0,0,1-2.789-.956,8.541,8.541,0,0,1-2.483-2.1A8.97,8.97,0,0,1,38.9,51.864Z" transform="translate(-37.961 -47.592)" fill="#184c98" stroke="#184c98" stroke-width="0.5"/><path d="M54.681,76.349a.469.469,0,0,1-.3-.107L52.81,74.956a.471.471,0,1,1,.6-.73l1.25,1.023,2.534-2.418a.472.472,0,1,1,.651.682l-2.835,2.705A.47.47,0,0,1,54.681,76.349Z" transform="translate(-49.178 -66.782)" fill="#184c98" stroke="#184c98" stroke-width="0.5"/></g></g></g></svg>