<svg xmlns="http://www.w3.org/2000/svg" width="67" height="67" viewBox="0 0 67 67"><g fill="#fff" stroke="#184c98" stroke-width="2"><circle cx="33.5" cy="33.5" r="33.5" stroke="none"/><circle cx="33.5" cy="33.5" r="32.5" fill="none"/></g><g transform="translate(18 17.249)"><g transform="translate(0)"><ellipse cx="0.704" cy="0.704" rx="0.704" ry="0.704" transform="translate(2.534 2.534)" fill="#184c98"/><ellipse cx="0.704" cy="0.704" rx="0.704" ry="0.704" transform="translate(5.068 2.534)" fill="#184c98"/><path d="M35.941,6H8.191A2.191,2.191,0,0,0,6,8.191v27.75a2.191,2.191,0,0,0,2.191,2.191h27.75a2.191,2.191,0,0,0,2.191-2.191V8.191A2.191,2.191,0,0,0,35.941,6Zm.73,29.941a.73.73,0,0,1-.73.73H32.289v-7.3H30.829v7.3H27.543V27.543H26.082v9.128H22.8V26.082H21.336V36.671H18.049v-8.4H16.589v8.4H13.3V32.655H11.842v4.016H8.191a.73.73,0,0,1-.73-.73V12.572h29.21Zm0-24.829H7.461V8.191a.73.73,0,0,1,.73-.73h27.75a.73.73,0,0,1,.73.73Z" transform="translate(-6 -6)" fill="#184c98"/><ellipse cx="0.704" cy="0.704" rx="0.704" ry="0.704" transform="translate(7.602 2.534)" fill="#184c98"/><path d="M17.529,52.78a2.554,2.554,0,0,0,2.333-3.6l6.616-4.414a2.556,2.556,0,0,0,3.25-.592L35.5,47.062a2.556,2.556,0,1,0,.73-1.263l-5.919-2.972a2.192,2.192,0,0,0,0-.27,2.556,2.556,0,0,0-5.112,0,2.527,2.527,0,0,0,.27,1.136l-6.572,4.382a2.556,2.556,0,1,0-1.366,4.707Zm20.447-6.207a1.1,1.1,0,1,1-1.1,1.1A1.1,1.1,0,0,1,37.976,46.572ZM27.752,41.461a1.1,1.1,0,1,1-1.1,1.1,1.1,1.1,0,0,1,1.1-1.1ZM17.529,49.128a1.1,1.1,0,1,1-1.1,1.1A1.1,1.1,0,0,1,17.529,49.128Z" transform="translate(-11.687 -27.586)" fill="#184c98"/></g></g></svg>