<svg xmlns="http://www.w3.org/2000/svg" width="67" height="67" viewBox="0 0 67 67"><g fill="#fff" stroke="#184c98" stroke-width="2"><circle cx="33.5" cy="33.5" r="33.5" stroke="none"/><circle cx="33.5" cy="33.5" r="32.5" fill="none"/></g><g transform="translate(17.537 18)"><g transform="translate(1 1)"><path d="M27.793,1H3.67A2.672,2.672,0,0,0,1,3.67V27.793a2.672,2.672,0,0,0,2.67,2.67H27.793a2.672,2.672,0,0,0,2.67-2.67V3.67A2.672,2.672,0,0,0,27.793,1ZM1.875,3.67a1.8,1.8,0,0,1,1.8-1.8H27.793a1.8,1.8,0,0,1,1.8,1.8V7.4H1.875ZM27.793,29.588H3.67a1.8,1.8,0,0,1-1.8-1.8V8.32H29.542V27.793A1.759,1.759,0,0,1,27.793,29.588Z" transform="translate(-1 -1)" fill="#184c98" stroke="#184c98" stroke-width="0.5"/><path d="M30.7,29.121h-.276V26.405a4.005,4.005,0,0,0-8.01,0v2.716h-.276A1.336,1.336,0,0,0,20.8,30.456v6.767a1.336,1.336,0,0,0,1.335,1.335h8.517a1.336,1.336,0,0,0,1.335-1.335V30.456A1.27,1.27,0,0,0,30.7,29.121Zm-7.366-2.716a3.107,3.107,0,0,1,6.215,0v2.716H23.332Zm7.78,10.818a.461.461,0,0,1-.46.46H22.135a.461.461,0,0,1-.46-.46V30.456a.461.461,0,0,1,.46-.46h8.517a.461.461,0,0,1,.46.46Z" transform="translate(-11.685 -12.548)" fill="#184c98" stroke="#184c98" stroke-width="0.5"/><path d="M9.765,5.5A1.565,1.565,0,1,0,11.33,7.065,1.552,1.552,0,0,0,9.765,5.5Zm0,2.256a.691.691,0,1,1,.691-.691A.708.708,0,0,1,9.765,7.756Z" transform="translate(-4.885 -3.428)" fill="#184c98" stroke="#184c98" stroke-width="0.5"/><path d="M37.274,8H21.76a.461.461,0,0,0-.46.46.435.435,0,0,0,.46.46H37.274a.461.461,0,0,0,.46-.46A.435.435,0,0,0,37.274,8Z" transform="translate(-11.955 -4.777)" fill="#184c98" stroke="#184c98" stroke-width="0.5"/><path d="M32.46,44.1a.461.461,0,0,0-.46.46v1.98a.46.46,0,1,0,.921,0V44.56A.5.5,0,0,0,32.46,44.1Z" transform="translate(-17.729 -24.259)" fill="#184c98" stroke="#184c98" stroke-width="0.5"/></g></g></svg>