<svg xmlns="http://www.w3.org/2000/svg" width="67" height="67" viewBox="0 0 67 67"><g fill="#fff" stroke="#184c98" stroke-width="2"><circle cx="33.5" cy="33.5" r="33.5" stroke="none"/><circle cx="33.5" cy="33.5" r="32.5" fill="none"/></g><g transform="translate(17 16)"><g transform="translate(1 1)"><path d="M2.179,6.9H29.308V19.282h1.179V1.59A.59.59,0,0,0,29.9,1H1.59A.59.59,0,0,0,1,1.59V29.9a.589.589,0,0,0,.59.59H22.231V29.308H2.179ZM29.308,2.179V5.718H2.179V2.179Z" transform="translate(-1 -1)" fill="#184c98" stroke="#184c98" stroke-width="0.25"/><rect width="1" height="1" transform="translate(2 2)" fill="#184c98" stroke="#184c98" stroke-width="0.25"/><rect width="2" height="1" transform="translate(4 2)" fill="#184c98" stroke="#184c98" stroke-width="0.25"/><rect width="1" height="1" transform="translate(8 2)" fill="#184c98" stroke="#184c98" stroke-width="0.25"/><path d="M5,23.026A10.026,10.026,0,1,0,15.026,13,10.037,10.037,0,0,0,5,23.026Zm9.436-8.7v4.553a19.877,19.877,0,0,1-2.465-.216C12.521,16.366,13.471,14.8,14.436,14.329Zm0,5.732v2.375H11.5a19.426,19.426,0,0,1,.244-2.616A21.051,21.051,0,0,0,14.436,20.061Zm-4.115,2.375H6.21a8.77,8.77,0,0,1,1.239-3.951A12.6,12.6,0,0,0,10.586,19.6,20.583,20.583,0,0,0,10.321,22.436Zm0,1.179a20.6,20.6,0,0,0,.265,2.835,12.568,12.568,0,0,0-3.137,1.117A8.765,8.765,0,0,1,6.21,23.615Zm1.179,0h2.936V25.99a20.839,20.839,0,0,0-2.692.241A19.523,19.523,0,0,1,11.5,23.615Zm2.936,3.554v4.553c-.965-.468-1.915-2.038-2.465-4.336A19.989,19.989,0,0,1,14.436,27.169Zm1.179,4.553V27.169a19.877,19.877,0,0,1,2.465.216C17.53,29.685,16.581,31.255,15.615,31.722Zm0-5.732V23.615h2.936a19.427,19.427,0,0,1-.244,2.616A21.05,21.05,0,0,0,15.615,25.99Zm4.115-2.375h4.112A8.772,8.772,0,0,1,22.6,27.567a12.577,12.577,0,0,0-3.137-1.117A20.6,20.6,0,0,0,19.73,23.615Zm0-1.179a20.6,20.6,0,0,0-.265-2.835A12.568,12.568,0,0,0,22.6,18.484a8.77,8.77,0,0,1,1.239,3.951H19.73Zm-1.179,0H15.615V20.061a20.84,20.84,0,0,0,2.692-.241A19.524,19.524,0,0,1,18.551,22.436Zm-2.936-3.554V14.329c.965.468,1.915,2.038,2.465,4.336A19.991,19.991,0,0,1,15.615,18.882Zm-3.143-4.323a10.747,10.747,0,0,0-1.658,3.892,11.491,11.491,0,0,1-2.695-.94A8.867,8.867,0,0,1,12.473,14.559ZM8.121,28.541a11.5,11.5,0,0,1,2.695-.941,10.75,10.75,0,0,0,1.658,3.892A8.864,8.864,0,0,1,8.121,28.541Zm9.457,2.952A10.745,10.745,0,0,0,19.236,27.6a11.49,11.49,0,0,1,2.695.941A8.864,8.864,0,0,1,17.578,31.493ZM21.931,17.51a11.482,11.482,0,0,1-2.695.94,10.742,10.742,0,0,0-1.658-3.892A8.862,8.862,0,0,1,21.931,17.51Z" transform="translate(-2.641 -5.923)" fill="#184c98" stroke="#184c98" stroke-width="0.25"/><path d="M52.564,35.359a9.535,9.535,0,0,1-5.933-2.081l-.185-.149a.589.589,0,0,0-.737,0l-.185.148a9.532,9.532,0,0,1-5.933,2.081.589.589,0,0,0-.59.59v5.714a8.841,8.841,0,0,0,4.61,7.766l2.184,1.192a.591.591,0,0,0,.565,0l2.184-1.192a8.84,8.84,0,0,0,4.61-7.766V35.949A.589.589,0,0,0,52.564,35.359Zm-.59,6.3a7.663,7.663,0,0,1-3.995,6.73l-1.9,1.038-1.9-1.038a7.663,7.663,0,0,1-3.995-6.73V36.521a10.728,10.728,0,0,0,5.9-2.18,10.725,10.725,0,0,0,5.9,2.18Z" transform="translate(-16.59 -14.128)" fill="#184c98" stroke="#184c98" stroke-width="0.25"/><path d="M42,44.308a5.308,5.308,0,1,0,10.229-1.991l-1.093.443a4.092,4.092,0,0,1,.3,1.548,4.128,4.128,0,1,1-4.128-4.128,4.092,4.092,0,0,1,1.548.3l.443-1.093A5.31,5.31,0,0,0,42,44.308Z" transform="translate(-17.82 -16.59)" fill="#184c98" stroke="#184c98" stroke-width="0.25"/><path d="M48.144,43.554l-.944.708,1.769,2.359a.589.589,0,0,0,.472.236h.022a.593.593,0,0,0,.475-.272L54.067,40.1l-1-.633L49.4,45.231Z" transform="translate(-19.954 -16.779)" fill="#184c98" stroke="#184c98" stroke-width="0.25"/></g></g></svg>