<svg xmlns="http://www.w3.org/2000/svg" width="47.778" height="47.778" viewBox="0 0 47.778 47.778"><path d="M-32.7,352.986a23.877,23.877,0,0,0-23.865,23.889A23.877,23.877,0,0,0-32.7,400.764,23.9,23.9,0,0,0-8.79,376.875,23.9,23.9,0,0,0-32.7,352.986Zm.024,43A19.106,19.106,0,0,1-51.79,376.875a19.106,19.106,0,0,1,19.111-19.111,19.106,19.106,0,0,1,19.111,19.111A19.106,19.106,0,0,1-32.679,395.986Zm8.361-21.5a3.579,3.579,0,0,0,3.583-3.583,3.578,3.578,0,0,0-3.583-3.583A3.578,3.578,0,0,0-27.9,370.9,3.578,3.578,0,0,0-24.318,374.486Zm-16.722,0a3.578,3.578,0,0,0,3.583-3.583,3.578,3.578,0,0,0-3.583-3.583,3.578,3.578,0,0,0-3.583,3.583A3.578,3.578,0,0,0-41.04,374.486Z" transform="translate(56.568 -352.986)" fill="#8f9aa0"/><g transform="translate(11.244 27.954)"><path d="M53.445,580.025a12.024,12.024,0,0,0-9.71-4.962h-.022A12.024,12.024,0,0,0,34,580.025l-2.481-1.8A15.1,15.1,0,0,1,43.713,572h.022a15.1,15.1,0,0,1,12.191,6.228Z" transform="translate(-31.522 -572)" fill="#8f9aa0"/></g></svg>