<svg xmlns="http://www.w3.org/2000/svg" width="47.778" height="47.778" viewBox="0 0 47.778 47.778"><path d="M510.3,352.986a23.889,23.889,0,1,0,23.913,23.889A23.877,23.877,0,0,0,510.3,352.986Zm.024,43a19.111,19.111,0,1,1,19.111-19.111A19.106,19.106,0,0,1,510.321,395.986Zm8.361-21.5A3.583,3.583,0,1,0,515.1,370.9,3.578,3.578,0,0,0,518.682,374.486Zm-16.722,0a3.583,3.583,0,1,0-3.583-3.583A3.579,3.579,0,0,0,501.96,374.486Z" transform="translate(-486.432 -352.986)" fill="#8f9aa0"/><g transform="translate(14.496 30.635)"><rect width="18.125" height="3.063" fill="#8f9aa0"/></g></svg>