<svg xmlns="http://www.w3.org/2000/svg" width="47.778" height="47.778" viewBox="0 0 47.778 47.778"><path d="M1053.3,353.054a23.889,23.889,0,1,0,23.913,23.889A23.877,23.877,0,0,0,1053.3,353.054Zm.024,43a19.111,19.111,0,1,1,19.111-19.111A19.106,19.106,0,0,1,1053.321,396.054Zm8.361-21.5a3.583,3.583,0,1,0-3.583-3.583A3.579,3.579,0,0,0,1061.682,374.554Zm-16.722,0a3.583,3.583,0,1,0-3.583-3.583A3.579,3.579,0,0,0,1044.96,374.554Z" transform="translate(-1029.432 -353.054)" fill="#8f9aa0"/><g transform="translate(11.882 29.885)"><path d="M1134.735,595.22h-.022a15.1,15.1,0,0,1-12.191-6.228l2.481-1.8a12.024,12.024,0,0,0,9.71,4.962h.022a12.024,12.024,0,0,0,9.71-4.962l2.481,1.8A15.1,15.1,0,0,1,1134.735,595.22Z" transform="translate(-1122.522 -587.195)" fill="#8f9aa0"/></g></svg>