<svg xmlns="http://www.w3.org/2000/svg" width="47.778" height="47.778" viewBox="0 0 47.778 47.778"><g transform="translate(-220.661 -352.995)"><path d="M1596.3,353.054a23.889,23.889,0,1,0,23.913,23.889A23.877,23.877,0,0,0,1596.3,353.054Zm.024,43a19.111,19.111,0,1,1,19.111-19.111A19.106,19.106,0,0,1,1596.321,396.054Zm8.361-21.5a3.583,3.583,0,1,0-3.583-3.583A3.579,3.579,0,0,0,1604.682,374.554Zm-16.722,0a3.583,3.583,0,1,0-3.583-3.583A3.578,3.578,0,0,0,1587.96,374.554Zm8.361,15.528a13.13,13.13,0,0,0,12.207-8.361h-24.415A13.13,13.13,0,0,0,1596.321,390.082Z" transform="translate(-1351.771 -0.059)" fill="#8f9aa0"/></g></svg>