<svg xmlns="http://www.w3.org/2000/svg" width="24.719" height="24.719" viewBox="0 0 24.719 24.719">
  <g id="noun_profile_1222484" transform="translate(-2 -2)">
    <g id="Group_3510" data-name="Group 3510" transform="translate(2 2)">
      <path id="Path_4142" data-name="Path 4142" d="M14.359,2A12.359,12.359,0,1,0,26.719,14.359,12.369,12.369,0,0,0,14.359,2Zm0,1.236A11.121,11.121,0,0,1,22.144,22.3a8.043,8.043,0,0,0-5.888-5.854,4.943,4.943,0,1,0-3.8,0A8.044,8.044,0,0,0,6.574,22.3,11.121,11.121,0,0,1,14.359,3.236Zm0,4.859a3.794,3.794,0,1,1-3.795,3.792A3.784,3.784,0,0,1,14.359,8.1Zm0,9.354a6.781,6.781,0,0,1,6.7,5.774,11.072,11.072,0,0,1-13.4,0A6.778,6.778,0,0,1,14.359,17.449Z" transform="translate(-2 -2)" fill="#fff"/>
    </g>
  </g>
</svg>
