<svg id="noun_PDF_3506954" xmlns="http://www.w3.org/2000/svg" width="21.829" height="22.845" viewBox="0 0 21.829 22.845">
  <path id="Path_4139" data-name="Path 4139" d="M14.615,10.584a.509.509,0,0,1,.508-.508h5.584a.508.508,0,0,1,0,1.015H15.123A.509.509,0,0,1,14.615,10.584Zm14.215,4.823v7.107a1.527,1.527,0,0,1-1.523,1.523H23.753v2.284a1.527,1.527,0,0,1-1.523,1.523H8.523A1.527,1.527,0,0,1,7,26.322V10.584a.5.5,0,0,1,.152-.355l5.077-5.077A.5.5,0,0,1,12.584,5H22.23a1.527,1.527,0,0,1,1.523,1.523v7.361h3.554A1.527,1.527,0,0,1,28.829,15.407Zm-20.1-5.33h2.843a.509.509,0,0,0,.508-.508V6.726ZM22.738,24.037H11.061a1.527,1.527,0,0,1-1.523-1.523V15.407a1.527,1.527,0,0,1,1.523-1.523H22.738V6.523a.509.509,0,0,0-.508-.508H13.092V9.569a1.527,1.527,0,0,1-1.523,1.523H8.015v15.23a.509.509,0,0,0,.508.508H22.23a.509.509,0,0,0,.508-.508Zm5.077-8.63a.509.509,0,0,0-.508-.508H11.061a.509.509,0,0,0-.508.508v7.107a.509.509,0,0,0,.508.508H27.307a.509.509,0,0,0,.508-.508ZM16.138,18.2a1.766,1.766,0,0,1-1.777,1.777H13.6v1.015a.508.508,0,0,1-1.015,0V16.93a.509.509,0,0,1,.508-.508h1.269A1.766,1.766,0,0,1,16.138,18.2Zm-1.015,0a.748.748,0,0,0-.761-.761H13.6v1.523h.761A.764.764,0,0,0,15.123,18.2Zm6.092.254v1.015A2.037,2.037,0,0,1,19.184,21.5H18.169a.509.509,0,0,1-.508-.508V16.93a.509.509,0,0,1,.508-.508h1.015A2.037,2.037,0,0,1,21.215,18.453Zm-1.015,0a1.018,1.018,0,0,0-1.015-1.015h-.508v3.046h.508A1.018,1.018,0,0,0,20.2,19.468Zm5.584-2.031H23.245a.509.509,0,0,0-.508.508v4.061a.508.508,0,0,0,1.015,0V19.976h1.015a.508.508,0,1,0,0-1.015H23.753V17.438h2.031a.508.508,0,0,0,0-1.015Z" transform="translate(-7 -5)" fill="#fff"/>
</svg>
