<svg xmlns="http://www.w3.org/2000/svg" width="101" height="100" viewBox="0 0 101 100"><g transform="translate(-384 -1421)"><ellipse cx="50.5" cy="50" rx="50.5" ry="50" transform="translate(384 1421)" fill="#184c98"/><g transform="translate(414 1447)"><ellipse cx="1.201" cy="1.201" rx="1.201" ry="1.201" transform="translate(4.805 22.824)" fill="#fff"/><ellipse cx="1.201" cy="1.201" rx="1.201" ry="1.201" transform="translate(9.61 22.824)" fill="#fff"/><rect width="16.217" height="2.402" transform="translate(14.415 6.006)" fill="#fff"/><ellipse cx="1.201" cy="1.201" rx="1.201" ry="1.201" transform="translate(4.805 6.006)" fill="#fff"/><ellipse cx="1.201" cy="1.201" rx="1.201" ry="1.201" transform="translate(9.61 6.006)" fill="#fff"/><rect width="9.61" height="2.402" transform="translate(14.415 39.641)" fill="#fff"/><ellipse cx="1.201" cy="1.201" rx="1.201" ry="1.201" transform="translate(4.805 39.641)" fill="#fff"/><ellipse cx="1.201" cy="1.201" rx="1.201" ry="1.201" transform="translate(9.61 39.641)" fill="#fff"/><path d="M46.842,18.367V14.2a4.2,4.2,0,0,0-4.2-4.2H10.2A4.2,4.2,0,0,0,6,14.2v6.006a4.2,4.2,0,0,0,4.2,4.2H29.587a15.778,15.778,0,0,0-1.472,2.4H10.2a4.2,4.2,0,0,0-4.2,4.2v6.006a4.2,4.2,0,0,0,4.2,4.2H28.115a15.779,15.779,0,0,0,1.472,2.4H10.2a4.2,4.2,0,0,0-4.2,4.2v6.006a4.2,4.2,0,0,0,4.2,4.2H42.638a4.2,4.2,0,0,0,4.2-4.2V49.683a16.217,16.217,0,0,0,0-31.317ZM26.469,35.226a15.928,15.928,0,0,0,.679,3.6H10.2a1.8,1.8,0,0,1-1.8-1.8V31.022a1.8,1.8,0,0,1,1.8-1.8H27.148a15.928,15.928,0,0,0-.679,3.6H20.415v2.4ZM10.2,22.012a1.8,1.8,0,0,1-1.8-1.8V14.2a1.8,1.8,0,0,1,1.8-1.8H42.638a1.8,1.8,0,0,1,1.8,1.8V17.91a16.157,16.157,0,0,0-12.685,4.1ZM44.44,53.846a1.8,1.8,0,0,1-1.8,1.8H10.2a1.8,1.8,0,0,1-1.8-1.8V47.839a1.8,1.8,0,0,1,1.8-1.8h21.55a16.157,16.157,0,0,0,12.685,4.1Zm-1.8-6.006A13.814,13.814,0,1,1,56.452,34.025,13.814,13.814,0,0,1,42.638,47.839Z" transform="translate(-6 -10)" fill="#fff"/><path d="M58.428,53.269A1.8,1.8,0,0,1,55.9,50.746l3.376-3.376a1.8,1.8,0,0,1,2.523,0l1.7-1.7a4.2,4.2,0,0,0-5.916,0l-3.406,3.376a4.2,4.2,0,1,0,5.946,5.946L61.815,53.3l-1.7-1.7Z" transform="translate(-24.751 -23.76)" fill="#fff"/><path d="M66.856,37.181l-1.688,1.688,1.7,1.7,1.688-1.688A1.8,1.8,0,1,1,71.078,41.4L67.7,44.779a1.8,1.8,0,0,1-2.523,0l-1.7,1.7a4.2,4.2,0,0,0,5.916,0L72.8,43.127a4.2,4.2,0,0,0-5.946-5.946Z" transform="translate(-28.956 -20.364)" fill="#fff"/></g></g></svg>