<svg xmlns="http://www.w3.org/2000/svg" width="115.193" height="104.751" viewBox="0 0 115.193 104.751"><ellipse cx="2.619" cy="2.619" rx="2.619" ry="2.619" transform="translate(10.475 49.757)" fill="#fff"/><ellipse cx="2.619" cy="2.619" rx="2.619" ry="2.619" transform="translate(20.95 49.757)" fill="#fff"/><rect width="35.353" height="5.238" transform="translate(31.425 13.094)" fill="#fff"/><ellipse cx="2.619" cy="2.619" rx="2.619" ry="2.619" transform="translate(10.475 13.094)" fill="#fff"/><ellipse cx="2.619" cy="2.619" rx="2.619" ry="2.619" transform="translate(20.95 13.094)" fill="#fff"/><rect width="20.95" height="5.238" transform="translate(31.425 86.419)" fill="#fff"/><ellipse cx="2.619" cy="2.619" rx="2.619" ry="2.619" transform="translate(10.475 86.419)" fill="#fff"/><ellipse cx="2.619" cy="2.619" rx="2.619" ry="2.619" transform="translate(20.95 86.419)" fill="#fff"/><path d="M95.038,28.24V19.166A9.166,9.166,0,0,0,85.873,10H15.166A9.166,9.166,0,0,0,6,19.166V32.26a9.166,9.166,0,0,0,9.166,9.166H57.42a34.4,34.4,0,0,0-3.208,5.238H15.166A9.166,9.166,0,0,0,6,55.828V68.922a9.166,9.166,0,0,0,9.166,9.166H54.212a34.4,34.4,0,0,0,3.208,5.238H15.166A9.166,9.166,0,0,0,6,92.491v13.094a9.166,9.166,0,0,0,9.166,9.166H85.873a9.166,9.166,0,0,0,9.166-9.166V96.511a35.353,35.353,0,0,0,0-68.271ZM50.624,64.994A34.725,34.725,0,0,0,52.1,72.85H15.166a3.928,3.928,0,0,1-3.928-3.928V55.828A3.928,3.928,0,0,1,15.166,51.9H52.1a34.724,34.724,0,0,0-1.48,7.856h-13.2v5.238ZM15.166,36.188a3.928,3.928,0,0,1-3.928-3.928V19.166a3.928,3.928,0,0,1,3.928-3.928H85.873A3.928,3.928,0,0,1,89.8,19.166v8.079a35.223,35.223,0,0,0-27.654,8.943Zm74.635,69.4a3.928,3.928,0,0,1-3.928,3.928H15.166a3.928,3.928,0,0,1-3.928-3.928V92.491a3.928,3.928,0,0,1,3.928-3.928H62.147A35.222,35.222,0,0,0,89.8,97.506ZM85.873,92.491a30.116,30.116,0,1,1,30.116-30.116A30.116,30.116,0,0,1,85.873,92.491Z" transform="translate(-6 -10)" fill="#fff"/><path d="M64.892,63.67a3.928,3.928,0,0,1-5.5-5.5l7.359-7.359a3.928,3.928,0,0,1,5.5,0l3.706-3.706a9.166,9.166,0,0,0-12.9,0l-7.424,7.359A9.166,9.166,0,0,0,68.6,67.428l3.679-3.679-3.706-3.706Z" transform="translate(8.526 0.66)" fill="#fff"/><path d="M70.839,38.634l-3.679,3.679,3.706,3.706,3.679-3.679a3.928,3.928,0,1,1,5.5,5.5L72.685,55.2a3.928,3.928,0,0,1-5.5,0L63.48,58.9a9.166,9.166,0,0,0,12.9,0L83.8,51.6A9.166,9.166,0,0,0,70.839,38.634Z" transform="translate(11.784 -1.972)" fill="#fff"/></svg>