<svg xmlns="http://www.w3.org/2000/svg" width="127.271" height="104.751" viewBox="0 0 127.271 104.751"><path d="M127.495,53.356c0-6.851-5.012-12.425-11.173-12.425a10.113,10.113,0,0,0-4.263.939,2.887,2.887,0,0,1-4.087-2.377c-1.063-12.38-10.39-21.717-21.7-21.717-12.022,0-21.8,10.767-21.8,24s9.781,24,21.8,24h30.045C122.482,65.782,127.495,60.208,127.495,53.356Zm-32.481,18.2H86.277c-11.342,0-21.1-7.437-25.331-18.029h-27a1.244,1.244,0,0,0-.983.474c-.025.049-.052.1-.081.15L17.112,81.56h83.659Zm11.089,20a4.231,4.231,0,0,0-4.227-4.227H16a4.233,4.233,0,0,0-4.228,4.227V106.75A4.231,4.231,0,0,0,16,110.975h85.872a4.23,4.23,0,0,0,4.227-4.225Zm27.168-38.207c0,10.036-7.6,18.2-16.949,18.2H101.679l7.756,13.474a9.946,9.946,0,0,1,2.443,6.53V106.75a10.014,10.014,0,0,1-10,10H16a10.014,10.014,0,0,1-10-10V91.563a9.952,9.952,0,0,1,2.453-6.542L27.713,51.558a2.889,2.889,0,0,1,.157-.313,7.068,7.068,0,0,1,6.078-3.492h25.31a32.125,32.125,0,0,1-.559-5.975C58.7,25.359,71.072,12,86.277,12c13.206,0,24.264,9.86,26.952,23.457a15.877,15.877,0,0,1,3.093-.3C125.668,35.155,133.271,43.321,133.271,53.356Zm-34.4,45.8a2.889,2.889,0,0,1-2.888,2.888H76.777a2.888,2.888,0,0,1,0-5.776H95.986A2.888,2.888,0,0,1,98.874,99.157Z" transform="translate(-6 -12)" fill="#fff" fill-rule="evenodd"/></svg>