<svg xmlns="http://www.w3.org/2000/svg" width="101" height="100" viewBox="0 0 101 100"><g transform="translate(-1260 -1421)"><ellipse cx="50.5" cy="50" rx="50.5" ry="50" transform="translate(1260 1421)" fill="#184c98"/><g transform="translate(1288 1447.475)"><rect width="9.872" height="2.278" transform="translate(14.182 22.782)" fill="#fff"/><ellipse cx="1.519" cy="1.139" rx="1.519" ry="1.139" transform="translate(4.309 22.782)" fill="#fff"/><ellipse cx="1.139" cy="1.139" rx="1.139" ry="1.139" transform="translate(9.625 22.782)" fill="#fff"/><rect width="15.948" height="2.278" transform="translate(14.182 6.075)" fill="#fff"/><ellipse cx="1.519" cy="1.139" rx="1.519" ry="1.139" transform="translate(4.309 6.075)" fill="#fff"/><ellipse cx="1.139" cy="1.139" rx="1.139" ry="1.139" transform="translate(9.625 6.075)" fill="#fff"/><rect width="9.872" height="2.278" transform="translate(14.182 39.489)" fill="#fff"/><ellipse cx="1.519" cy="1.139" rx="1.519" ry="1.139" transform="translate(4.309 39.489)" fill="#fff"/><ellipse cx="1.139" cy="1.139" rx="1.139" ry="1.139" transform="translate(9.625 39.489)" fill="#fff"/><path d="M55.852,31.622V26.217a10.211,10.211,0,0,0-9.009-10.133V14.2a4.2,4.2,0,0,0-4.2-4.2H10.2A4.2,4.2,0,0,0,6,14.2v6.006a4.2,4.2,0,0,0,4.2,4.2H35.6a10.47,10.47,0,0,0-.168,1.8v.6H10.2a4.2,4.2,0,0,0-4.2,4.2v6.006a4.2,4.2,0,0,0,4.2,4.2H32.427v2.4H10.2a4.2,4.2,0,0,0-4.2,4.2v6.006a4.2,4.2,0,0,0,4.2,4.2H42.638a4.2,4.2,0,0,0,4.2-4.2v-1.8h9.009a3,3,0,0,0,3-3V34.626a3,3,0,0,0-3-3ZM45.641,18.409a7.808,7.808,0,0,1,7.808,7.808v5.406h-2.4V26.217a5.406,5.406,0,0,0-10.811,0v5.406h-2.4V26.217A7.808,7.808,0,0,1,45.641,18.409Zm3,7.808v5.406H42.638V26.217a3,3,0,0,1,6.006,0Zm-38.44-4.2a1.8,1.8,0,0,1-1.8-1.8V14.2a1.8,1.8,0,0,1,1.8-1.8H42.638a1.8,1.8,0,0,1,1.8,1.8v1.88a10.211,10.211,0,0,0-8.09,5.928Zm0,16.817a1.8,1.8,0,0,1-1.8-1.8V31.022a1.8,1.8,0,0,1,1.8-1.8H35.431v2.4a3,3,0,0,0-3,3v4.2ZM44.44,53.846a1.8,1.8,0,0,1-1.8,1.8H10.2a1.8,1.8,0,0,1-1.8-1.8V47.839a1.8,1.8,0,0,1,1.8-1.8H32.427v3a3,3,0,0,0,3,3H44.44Zm12.012-4.805a.6.6,0,0,1-.6.6H35.431a.6.6,0,0,1-.6-.6V34.626a.6.6,0,0,1,.6-.6H55.852a.6.6,0,0,1,.6.6Z" transform="translate(-6 -10)" fill="#fff"/><path d="M69.611,54a3.6,3.6,0,0,0-1.2,7v3.814h2.4V61a3.6,3.6,0,0,0-1.2-7Zm0,4.8a1.2,1.2,0,1,1,1.2-1.2A1.2,1.2,0,0,1,69.611,58.8Z" transform="translate(-29.97 -27.573)" fill="#fff"/></g></g></svg>