<svg xmlns="http://www.w3.org/2000/svg" width="101" height="100" viewBox="0 0 101 100"><g transform="translate(-822 -1783)"><ellipse cx="50.5" cy="50" rx="50.5" ry="50" transform="translate(822 1783)" fill="#184c98"/><g transform="translate(846 1811)"><path d="M53.436,54.63h2.4V15H35.422V54.63h2.4v2.4H27.016v-2.4h2.4V15H9V54.63h2.4v2.4H6v2.4H58.84v-2.4h-5.4ZM11.4,17.4H27.016V52.228H11.4Zm13.21,39.63H13.806v-2.4H24.614ZM37.824,17.4H53.436V52.228H37.824Zm13.21,39.63H40.226v-2.4H51.034Z" transform="translate(-6 -15)" fill="#fff"/><rect width="8.049" height="3.541" transform="translate(35.454 8.849)" fill="#fff"/><rect width="8.049" height="3.541" transform="translate(9.454 8.849)" fill="#fff"/><rect width="8.049" height="3.541" transform="translate(35.454 16.388)" fill="#fff"/><rect width="8.049" height="3.541" transform="translate(9.454 16.388)" fill="#fff"/><rect width="8.049" height="3.541" transform="translate(35.454 23.416)" fill="#fff"/><rect width="8.049" height="3.541" transform="translate(9.454 23.416)" fill="#fff"/><circle cx="1.77" cy="1.77" r="1.77" transform="translate(35.454 28.981)" fill="#fff"/><circle cx="1.77" cy="1.77" r="1.77" transform="translate(9.454 28.981)" fill="#fff"/><circle cx="1.77" cy="1.77" r="1.77" transform="translate(39.962 28.981)" fill="#fff"/><circle cx="1.77" cy="1.77" r="1.77" transform="translate(13.962 28.981)" fill="#fff"/></g></g></svg>