<svg xmlns="http://www.w3.org/2000/svg" width="101" height="100" viewBox="0 0 101 100"><g transform="translate(-822 -1783)"><ellipse cx="50.5" cy="50" rx="50.5" ry="50" transform="translate(822 1783)" fill="#184c98"/><path d="M50.479,27.14a4.343,4.343,0,0,0-4.09-4.549,3.7,3.7,0,0,0-1.561.344,1.057,1.057,0,0,1-1.5-.87c-.389-4.532-3.8-7.951-7.943-7.951-4.4,0-7.982,3.942-7.982,8.787s3.581,8.788,7.982,8.788h11A4.343,4.343,0,0,0,50.479,27.14ZM38.588,33.8h-3.2a10.126,10.126,0,0,1-9.274-6.6H16.232a.455.455,0,0,0-.36.173c-.009.018-.019.037-.03.055L10.068,37.466H40.7Zm4.06,7.324A1.549,1.549,0,0,0,41.1,39.581H9.663a1.55,1.55,0,0,0-1.548,1.547v5.56a1.549,1.549,0,0,0,1.548,1.547H41.1a1.549,1.549,0,0,0,1.547-1.547ZM52.594,27.14a6.454,6.454,0,0,1-6.2,6.664H41.028l2.839,4.933a3.641,3.641,0,0,1,.895,2.391v5.56A3.666,3.666,0,0,1,41.1,50.349H9.663A3.666,3.666,0,0,1,6,46.688v-5.56a3.643,3.643,0,0,1,.9-2.395l7.051-12.251a1.057,1.057,0,0,1,.058-.115,2.588,2.588,0,0,1,2.225-1.278H25.5a11.761,11.761,0,0,1-.2-2.188c0-6.011,4.53-10.9,10.1-10.9a10.253,10.253,0,0,1,9.867,8.588,5.812,5.812,0,0,1,1.132-.11A6.454,6.454,0,0,1,52.594,27.14ZM40,43.908a1.058,1.058,0,0,1-1.057,1.057H31.912a1.057,1.057,0,1,1,0-2.115h7.032A1.057,1.057,0,0,1,40,43.908Z" transform="translate(843.465 1799)" fill="#fff" fill-rule="evenodd"/></g></svg>