<svg xmlns="http://www.w3.org/2000/svg" width="101" height="100" viewBox="0 0 101 100"><g transform="translate(-822 -2130)"><ellipse cx="50.5" cy="50" rx="50.5" ry="50" transform="translate(822 2130)" fill="#184c98"/><g transform="translate(849 2156)"><ellipse cx="1.038" cy="1.038" rx="1.038" ry="1.038" transform="translate(3.659 3.736)" fill="#fff"/><ellipse cx="1.245" cy="1.038" rx="1.245" ry="1.038" transform="translate(7.396 3.736)" fill="#fff"/><path d="M50.15,6H9.23A3.23,3.23,0,0,0,6,9.23V50.15a3.23,3.23,0,0,0,3.23,3.23H50.15a3.23,3.23,0,0,0,3.23-3.23V9.23A3.23,3.23,0,0,0,50.15,6ZM30.229,51.227H29.152V42.854a17.358,17.358,0,0,0-3.4-10.3,6.542,6.542,0,0,1,7.872,0,17.358,17.358,0,0,0-3.4,10.3ZM34.536,43.8v7.425H32.382V42.854a15.194,15.194,0,0,1,5.029-11.307l-1.443-1.615c-.334.3-.646.619-.953.942a8.7,8.7,0,0,0-10.65,0c-.307-.323-.619-.641-.953-.942l-1.443,1.615A15.194,15.194,0,0,1,27,42.854v8.372H24.845V43.8l-.6-.3a12.384,12.384,0,1,1,10.9,0ZM51.227,50.15a1.077,1.077,0,0,1-1.077,1.077H36.69v-6.1a14.537,14.537,0,1,0-14,0v6.1H9.23A1.077,1.077,0,0,1,8.154,50.15V15.691H51.227Zm0-36.612H8.154V9.23A1.077,1.077,0,0,1,9.23,8.154H50.15A1.077,1.077,0,0,1,51.227,9.23Z" transform="translate(-6 -6)" fill="#fff"/><ellipse cx="1.245" cy="1.038" rx="1.245" ry="1.038" transform="translate(11.132 3.736)" fill="#fff"/></g></g></svg>