<svg xmlns="http://www.w3.org/2000/svg" width="101" height="100" viewBox="0 0 101 100"><g transform="translate(-384 -2130)"><ellipse cx="50.5" cy="50" rx="50.5" ry="50" transform="translate(384 2130)" fill="#184c98"/><g transform="translate(411 2156)"><g transform="translate(0)"><ellipse cx="1.038" cy="1.038" rx="1.038" ry="1.038" transform="translate(3.736 3.736)" fill="#fff"/><ellipse cx="1.038" cy="1.038" rx="1.038" ry="1.038" transform="translate(7.473 3.736)" fill="#fff"/><path d="M50.15,6H9.23A3.23,3.23,0,0,0,6,9.23V50.15a3.23,3.23,0,0,0,3.23,3.23H50.15a3.23,3.23,0,0,0,3.23-3.23V9.23A3.23,3.23,0,0,0,50.15,6Zm1.077,44.15a1.077,1.077,0,0,1-1.077,1.077H44.766V40.459H42.612V51.227H37.767V37.766H35.613v13.46H30.767V35.613H28.613V51.227H23.768V38.843H21.614V51.227H16.768V45.3H14.615v5.923H9.23A1.077,1.077,0,0,1,8.154,50.15V15.691H51.227Zm0-36.612H8.154V9.23A1.077,1.077,0,0,1,9.23,8.154H50.15A1.077,1.077,0,0,1,51.227,9.23Z" transform="translate(-6 -6)" fill="#fff"/><ellipse cx="1.038" cy="1.038" rx="1.038" ry="1.038" transform="translate(11.209 3.736)" fill="#fff"/><path d="M18.749,58.845a3.765,3.765,0,0,0,3.44-5.3l9.756-6.509a3.769,3.769,0,0,0,4.792-.872l8.507,4.253a3.769,3.769,0,1,0,1.077-1.863l-8.728-4.383a3.232,3.232,0,0,0,0-.4,3.769,3.769,0,0,0-7.538,0,3.726,3.726,0,0,0,.4,1.674L20.763,51.9a3.769,3.769,0,1,0-2.014,6.94ZM48.9,49.691a1.615,1.615,0,1,1-1.615,1.615A1.615,1.615,0,0,1,48.9,49.691ZM33.825,42.154a1.615,1.615,0,1,1-1.615,1.615,1.615,1.615,0,0,1,1.615-1.615ZM18.749,53.46a1.615,1.615,0,1,1-1.615,1.615A1.615,1.615,0,0,1,18.749,53.46Z" transform="translate(-10.135 -21.694)" fill="#fff"/></g></g></g></svg>