<svg id="eye" xmlns="http://www.w3.org/2000/svg" width="30.805" height="17.97" viewBox="0 0 30.805 17.97">
  <g id="Group_103" data-name="Group 103" transform="translate(0 0)">
    <g id="Group_102" data-name="Group 102" transform="translate(0 0)">
      <path id="Path_265" data-name="Path 265" d="M30.692,115.283c-.243-.353-6.073-8.621-15.289-8.621-7.908,0-14.955,8.22-15.252,8.57a.644.644,0,0,0,0,.829c.3.35,7.343,8.57,15.252,8.57s14.955-8.22,15.251-8.57A.642.642,0,0,0,30.692,115.283ZM15.4,123.349c-6.34,0-12.367-6.046-13.9-7.7,1.529-1.657,7.55-7.7,13.9-7.7,7.418,0,12.654,6.037,13.932,7.667C27.859,117.216,21.8,123.349,15.4,123.349Z" transform="translate(0 -106.662)" fill="#6e6e6e"/>
    </g>
  </g>
  <g id="Group_105" data-name="Group 105" transform="translate(10.268 3.851)">
    <g id="Group_104" data-name="Group 104">
      <path id="Path_266" data-name="Path 266" d="M175.8,170.662a5.134,5.134,0,1,0,5.134,5.134A5.139,5.139,0,0,0,175.8,170.662Zm0,8.985a3.851,3.851,0,1,1,3.851-3.851A3.855,3.855,0,0,1,175.8,179.647Z" transform="translate(-170.662 -170.662)" fill="#6e6e6e"/>
    </g>
  </g>
</svg>
