<svg id="noun_banking_1905645" xmlns="http://www.w3.org/2000/svg" width="61.002" height="43.391" viewBox="0 0 61.002 43.391">
  <path id="Path_4019" data-name="Path 4019" d="M60.812,16.7H11.983a4.194,4.194,0,0,0-4.19,4.19v.126A4.2,4.2,0,0,0,4,25.189V55.9a4.194,4.194,0,0,0,4.19,4.19H57.019a4.2,4.2,0,0,0,4.19-4.19v-.126A4.2,4.2,0,0,0,65,51.608V20.893A4.194,4.194,0,0,0,60.812,16.7ZM59.13,44.315V55.9a2.113,2.113,0,0,1-2.111,2.11H8.19A2.112,2.112,0,0,1,6.08,55.9V25.189a2.112,2.112,0,0,1,1.713-2.07,2.086,2.086,0,0,1,.4-.04H57.019a2.113,2.113,0,0,1,2.111,2.11Zm3.793,7.293a2.112,2.112,0,0,1-1.713,2.07V25.189A4.2,4.2,0,0,0,57.019,21H9.872v-.106a2.112,2.112,0,0,1,2.11-2.11H60.812a2.112,2.112,0,0,1,2.11,2.11V51.608Z" transform="translate(-4 -16.703)" fill="#fff"/>
  <path id="Path_4020" data-name="Path 4020" d="M71.209,61.489A5.2,5.2,0,0,0,67.5,57.824a5.373,5.373,0,0,0-.564-.116,5.167,5.167,0,0,0-.773-.064c-.1,0-.2.01-.3.015a5.174,5.174,0,0,0-2.455.776,5.385,5.385,0,0,0-2.756-.792c-.1,0-.2.01-.3.015a5.236,5.236,0,1,0,3.058,9.672,5.193,5.193,0,0,0,5.537-.015,5.289,5.289,0,0,0,1.2-1.04A5.356,5.356,0,0,0,71.4,62.884c0-.119-.01-.234-.018-.351A5.222,5.222,0,0,0,71.209,61.489Zm-9.388,4.327a3.132,3.132,0,0,1-1.17.231,3.152,3.152,0,0,1-.243-6.3c.081-.006.159-.024.242-.024a3.118,3.118,0,0,1,.911.15c.087.026.176.047.26.08-.041.06-.076.125-.114.187a5.116,5.116,0,0,0-.763,2.337c-.01.134-.021.269-.021.406A5.216,5.216,0,0,0,61.821,65.816Zm7.363-2.048a3.128,3.128,0,0,1-4.19,2.048,3.124,3.124,0,0,1-.884-.548,3.159,3.159,0,0,1-.7-.867,3.1,3.1,0,0,1-.3-.749,3.131,3.131,0,0,1-.1-.765,3.083,3.083,0,0,1,.035-.342,3.127,3.127,0,0,1,.281-1.01c.027-.056.058-.11.089-.164a3.272,3.272,0,0,1,1.5-1.384c.027-.012.055-.02.082-.031a3.134,3.134,0,0,1,.929-.206c.081-.006.159-.024.242-.024a3.126,3.126,0,0,1,.912.15c.071.021.144.04.214.067A3.213,3.213,0,0,1,68.9,61.333a2.923,2.923,0,0,1,.146.268,3.134,3.134,0,0,1,.264,1.135c0,.051.015.1.015.15A3.122,3.122,0,0,1,69.183,63.767Z" transform="translate(-19.772 -29.263)" fill="#fff"/>
  <path id="Path_4021" data-name="Path 4021" d="M17.826,43.067h4.992V35.534H12.994v7.533h4.832Zm-2.753-5.453h5.665v3.374H15.074Z" transform="translate(-6.759 -22.48)" fill="#fff"/>
  <path id="Path_4022" data-name="Path 4022" d="M47.679,53.89h5.2V48.463H12.994V53.89H47.679ZM15.074,50.542H50.8V51.81H15.074Z" transform="translate(-6.759 -26.447)" fill="#fff"/>
  <path id="Path_4023" data-name="Path 4023" d="M14.494,65.881v1.04h6.695v-2.08H14.494Z" transform="translate(-7.219 -31.471)" fill="#fff"/>
  <path id="Path_4024" data-name="Path 4024" d="M30.779,65.881v1.04h6.694v-2.08H30.779Z" transform="translate(-12.216 -31.471)" fill="#fff"/>
</svg>
