<svg xmlns="http://www.w3.org/2000/svg" width="46.544" height="46.625" viewBox="0 0 46.544 46.625">
  <g id="Group_4029" data-name="Group 4029" transform="translate(-851 -1809)">
    <g id="Group_2971" data-name="Group 2971" transform="translate(851 1809)">
      <ellipse id="Ellipse_276" data-name="Ellipse 276" cx="1.247" cy="1.559" rx="1.247" ry="1.559" transform="translate(7.906 32.806)" fill="#fff"/>
      <ellipse id="Ellipse_277" data-name="Ellipse 277" cx="1.247" cy="1.559" rx="1.247" ry="1.559" transform="translate(13.753 32.806)" fill="#fff"/>
      <ellipse id="Ellipse_278" data-name="Ellipse 278" cx="1.247" cy="1.559" rx="1.247" ry="1.559" transform="translate(20.126 32.806)" fill="#fff"/>
      <path id="Path_3820" data-name="Path 3820" d="M54.284,39.642V37A5.284,5.284,0,0,0,49,42.284h2.642A2.642,2.642,0,0,1,54.284,39.642Z" transform="translate(-26.78 -20.98)" fill="#fff"/>
      <path id="Path_3821" data-name="Path 3821" d="M12.888,51.565a3.179,3.179,0,0,1,3.179-3.179h8.477a3.179,3.179,0,0,1,3.179,3.179v1.06h6.888V39.279a12.62,12.62,0,0,0,4.768-1.627L46.749,45a3.449,3.449,0,0,0,4.874-4.874l-7.418-7.418a12.716,12.716,0,0,0-9.6-18.661V6H6V52.625h6.888Zm19.6-1.06H29.736a5.3,5.3,0,0,0-.954-2.119h3.709Zm17.633-8.88A1.326,1.326,0,0,1,48.249,43.5L41.17,36.418a13.044,13.044,0,0,0,1.844-1.9ZM43.618,26.663a10.6,10.6,0,1,1-10.6-10.6A10.6,10.6,0,0,1,43.618,26.663ZM8.119,8.119H32.491v5.828A12.647,12.647,0,0,0,25.265,16.6H12.358v2.119H23.1a12.658,12.658,0,0,0-1.865,3.179h-8.88v2.119h8.228a12.488,12.488,0,0,0-.281,2.649v.53H12.358v2.119h8.228a12.557,12.557,0,0,0,1.139,3.179H12.358v2.119H23.1a12.716,12.716,0,0,0,9.389,4.768v6.888H8.119Zm2.755,42.386H8.119V48.386h3.709A5.3,5.3,0,0,0,10.874,50.506Z" transform="translate(-6 -6)" fill="#fff"/>
    </g>
  </g>
</svg>
