<svg id="Group_4027" data-name="Group 4027" xmlns="http://www.w3.org/2000/svg" width="50.813" height="46.206" viewBox="0 0 50.813 46.206">
  <circle id="Ellipse_270" data-name="Ellipse 270" cx="1.155" cy="1.155" r="1.155" transform="translate(4.621 21.948)" fill="#fff"/>
  <circle id="Ellipse_271" data-name="Ellipse 271" cx="1.155" cy="1.155" r="1.155" transform="translate(9.241 21.948)" fill="#fff"/>
  <rect id="Rectangle_1116" data-name="Rectangle 1116" width="15.595" height="2.31" transform="translate(13.862 5.776)" fill="#fff"/>
  <circle id="Ellipse_272" data-name="Ellipse 272" cx="1.155" cy="1.155" r="1.155" transform="translate(4.621 5.776)" fill="#fff"/>
  <circle id="Ellipse_273" data-name="Ellipse 273" cx="1.155" cy="1.155" r="1.155" transform="translate(9.241 5.776)" fill="#fff"/>
  <rect id="Rectangle_1117" data-name="Rectangle 1117" width="9.241" height="2.31" transform="translate(13.862 38.12)" fill="#fff"/>
  <circle id="Ellipse_274" data-name="Ellipse 274" cx="1.155" cy="1.155" r="1.155" transform="translate(4.621 38.12)" fill="#fff"/>
  <circle id="Ellipse_275" data-name="Ellipse 275" cx="1.155" cy="1.155" r="1.155" transform="translate(9.241 38.12)" fill="#fff"/>
  <path id="Path_3817" data-name="Path 3817" d="M45.276,18.046v-4A4.043,4.043,0,0,0,41.232,10H10.043A4.043,4.043,0,0,0,6,14.043v5.776a4.043,4.043,0,0,0,4.043,4.043H28.682a15.173,15.173,0,0,0-1.415,2.31H10.043A4.043,4.043,0,0,0,6,30.215v5.776a4.043,4.043,0,0,0,4.043,4.043H27.267a15.173,15.173,0,0,0,1.415,2.31H10.043A4.043,4.043,0,0,0,6,46.388v5.776a4.043,4.043,0,0,0,4.043,4.043H41.232a4.043,4.043,0,0,0,4.043-4.043v-4a15.595,15.595,0,0,0,0-30.115ZM25.684,34.258a15.317,15.317,0,0,0,.653,3.465H10.043A1.733,1.733,0,0,1,8.31,35.991V30.215a1.733,1.733,0,0,1,1.733-1.733H26.337a15.317,15.317,0,0,0-.653,3.465H19.862v2.31ZM10.043,21.552A1.733,1.733,0,0,1,8.31,19.819V14.043a1.733,1.733,0,0,1,1.733-1.733H41.232a1.733,1.733,0,0,1,1.733,1.733v3.564a15.537,15.537,0,0,0-12.2,3.945ZM42.965,52.163A1.733,1.733,0,0,1,41.232,53.9H10.043A1.733,1.733,0,0,1,8.31,52.163V46.388a1.733,1.733,0,0,1,1.733-1.733H30.767a15.537,15.537,0,0,0,12.2,3.945Zm-1.733-5.776A13.284,13.284,0,1,1,54.517,33.1,13.284,13.284,0,0,1,41.232,46.388Z" transform="translate(-6 -10)" fill="#fff"/>
  <path id="Path_3818" data-name="Path 3818" d="M62.339,34.268l.993-1L61.7,31.64l-3.673,3.673L61.7,38.987l1.635-1.629-.658-.664a5.776,5.776,0,1,1-7.364,5.551H53a8.086,8.086,0,1,0,9.339-7.976Z" transform="translate(-25.854 -19.141)" fill="#fff"/>
</svg>
