<svg id="Group_4030" data-name="Group 4030" xmlns="http://www.w3.org/2000/svg" width="55.282" height="46.487" viewBox="0 0 55.282 46.487">
  <path id="Path_3845" data-name="Path 3845" d="M55.628,56.462h2.513V15H36.782V56.462h2.513v2.513H27.987V56.462H30.5V15H9.141V56.462h2.513v2.513H6v2.513H61.282V58.975H55.628ZM11.654,17.513H27.987V53.949H11.654ZM25.474,58.975H14.167V56.462H25.474ZM39.295,17.513H55.628V53.949H39.295ZM53.116,58.975H41.808V56.462H53.116Z" transform="translate(-6 -15)" fill="#fff"/>
  <rect id="Rectangle_1128" data-name="Rectangle 1128" width="8.421" height="3.704" transform="translate(37.093 9.258)" fill="#fff"/>
  <rect id="Rectangle_1186" data-name="Rectangle 1186" width="8.421" height="3.704" transform="translate(9.891 9.258)" fill="#fff"/>
  <rect id="Rectangle_1130" data-name="Rectangle 1130" width="8.421" height="3.704" transform="translate(37.093 17.145)" fill="#fff"/>
  <rect id="Rectangle_1185" data-name="Rectangle 1185" width="8.421" height="3.704" transform="translate(9.891 17.145)" fill="#fff"/>
  <rect id="Rectangle_1131" data-name="Rectangle 1131" width="8.421" height="3.704" transform="translate(37.093 24.498)" fill="#fff"/>
  <rect id="Rectangle_1187" data-name="Rectangle 1187" width="8.421" height="3.704" transform="translate(9.891 24.498)" fill="#fff"/>
  <circle id="Ellipse_297" data-name="Ellipse 297" cx="1.852" cy="1.852" r="1.852" transform="translate(37.092 30.32)" fill="#fff"/>
  <circle id="Ellipse_316" data-name="Ellipse 316" cx="1.852" cy="1.852" r="1.852" transform="translate(9.891 30.32)" fill="#fff"/>
  <circle id="Ellipse_299" data-name="Ellipse 299" cx="1.852" cy="1.852" r="1.852" transform="translate(41.809 30.32)" fill="#fff"/>
  <circle id="Ellipse_315" data-name="Ellipse 315" cx="1.852" cy="1.852" r="1.852" transform="translate(14.607 30.32)" fill="#fff"/>
</svg>
