<svg id="Group_3290" data-name="Group 3290" xmlns="http://www.w3.org/2000/svg" width="50.868" height="46.257" viewBox="0 0 50.868 46.257">
  <ellipse id="Ellipse_258" data-name="Ellipse 258" cx="1.156" cy="1.156" rx="1.156" ry="1.156" transform="translate(4.626 21.972)" fill="#fff"/>
  <ellipse id="Ellipse_259" data-name="Ellipse 259" cx="1.156" cy="1.156" rx="1.156" ry="1.156" transform="translate(9.251 21.972)" fill="#fff"/>
  <rect id="Rectangle_1111" data-name="Rectangle 1111" width="15.612" height="2.313" transform="translate(13.877 5.782)" fill="#fff"/>
  <ellipse id="Ellipse_260" data-name="Ellipse 260" cx="1.156" cy="1.156" rx="1.156" ry="1.156" transform="translate(4.626 5.782)" fill="#fff"/>
  <ellipse id="Ellipse_261" data-name="Ellipse 261" cx="1.156" cy="1.156" rx="1.156" ry="1.156" transform="translate(9.251 5.782)" fill="#fff"/>
  <rect id="Rectangle_1112" data-name="Rectangle 1112" width="9.251" height="2.313" transform="translate(13.877 38.162)" fill="#fff"/>
  <ellipse id="Ellipse_262" data-name="Ellipse 262" cx="1.156" cy="1.156" rx="1.156" ry="1.156" transform="translate(4.626 38.162)" fill="#fff"/>
  <ellipse id="Ellipse_263" data-name="Ellipse 263" cx="1.156" cy="1.156" rx="1.156" ry="1.156" transform="translate(9.251 38.162)" fill="#fff"/>
  <path id="Path_3812" data-name="Path 3812" d="M45.319,18.055V14.047A4.047,4.047,0,0,0,41.271,10H10.047A4.047,4.047,0,0,0,6,14.047V19.83a4.047,4.047,0,0,0,4.047,4.047H28.706A15.19,15.19,0,0,0,27.29,26.19H10.047A4.047,4.047,0,0,0,6,30.237V36.02a4.047,4.047,0,0,0,4.047,4.047H27.29a15.19,15.19,0,0,0,1.417,2.313H10.047A4.048,4.048,0,0,0,6,46.427V52.21a4.048,4.048,0,0,0,4.047,4.047H41.271a4.048,4.048,0,0,0,4.047-4.047V48.2a15.612,15.612,0,0,0,0-30.148ZM25.706,34.285a15.334,15.334,0,0,0,.653,3.469H10.047A1.735,1.735,0,0,1,8.313,36.02V30.237A1.735,1.735,0,0,1,10.047,28.5H26.359a15.334,15.334,0,0,0-.653,3.469H19.877v2.313ZM10.047,21.564A1.735,1.735,0,0,1,8.313,19.83V14.047a1.735,1.735,0,0,1,1.735-1.735H41.271a1.735,1.735,0,0,1,1.735,1.735v3.568a15.554,15.554,0,0,0-12.212,3.949ZM43.006,52.21a1.735,1.735,0,0,1-1.735,1.735H10.047A1.735,1.735,0,0,1,8.313,52.21V46.427a1.735,1.735,0,0,1,1.735-1.735H30.794a15.554,15.554,0,0,0,12.212,3.949Zm-1.735-5.782a13.3,13.3,0,1,1,13.3-13.3A13.3,13.3,0,0,1,41.271,46.427Z" transform="translate(-6 -10)" fill="#fff"/>
  <path id="Path_3813" data-name="Path 3813" d="M58.223,52.94a1.735,1.735,0,0,1-2.428-2.428l3.25-3.25a1.735,1.735,0,0,1,2.428,0l1.636-1.636a4.047,4.047,0,0,0-5.7,0l-3.278,3.25A4.048,4.048,0,0,0,59.86,54.6l1.625-1.625-1.636-1.636Z" transform="translate(-25.803 -24.532)" fill="#fff"/>
  <path id="Path_3814" data-name="Path 3814" d="M66.73,37.135,65.1,38.76,66.741,40.4l1.625-1.625A1.735,1.735,0,1,1,70.794,41.2l-3.25,3.25a1.735,1.735,0,0,1-2.428,0L63.48,46.086a4.047,4.047,0,0,0,5.7,0l3.278-3.226a4.048,4.048,0,1,0-5.724-5.724Z" transform="translate(-30.244 -20.945)" fill="#fff"/>
</svg>
