<svg id="Group_4028" data-name="Group 4028" xmlns="http://www.w3.org/2000/svg" width="51.348" height="46.68" viewBox="0 0 51.348 46.68">
  <rect id="Rectangle_1113" data-name="Rectangle 1113" width="9.591" height="2.213" transform="translate(13.777 22.133)" fill="#fff"/>
  <ellipse id="Ellipse_264" data-name="Ellipse 264" cx="1.476" cy="1.107" rx="1.476" ry="1.107" transform="translate(4.187 22.133)" fill="#fff"/>
  <ellipse id="Ellipse_265" data-name="Ellipse 265" cx="1.107" cy="1.107" rx="1.107" ry="1.107" transform="translate(9.351 22.133)" fill="#fff"/>
  <rect id="Rectangle_1114" data-name="Rectangle 1114" width="15.493" height="2.213" transform="translate(13.777 5.902)" fill="#fff"/>
  <ellipse id="Ellipse_266" data-name="Ellipse 266" cx="1.476" cy="1.107" rx="1.476" ry="1.107" transform="translate(4.187 5.902)" fill="#fff"/>
  <ellipse id="Ellipse_267" data-name="Ellipse 267" cx="1.107" cy="1.107" rx="1.107" ry="1.107" transform="translate(9.351 5.902)" fill="#fff"/>
  <rect id="Rectangle_1115" data-name="Rectangle 1115" width="9.591" height="2.213" transform="translate(13.777 38.363)" fill="#fff"/>
  <ellipse id="Ellipse_268" data-name="Ellipse 268" cx="1.476" cy="1.107" rx="1.476" ry="1.107" transform="translate(4.187 38.363)" fill="#fff"/>
  <ellipse id="Ellipse_269" data-name="Ellipse 269" cx="1.107" cy="1.107" rx="1.107" ry="1.107" transform="translate(9.351 38.363)" fill="#fff"/>
  <path id="Path_3815" data-name="Path 3815" d="M54.43,31.006V25.754a9.919,9.919,0,0,0-8.752-9.844V14.084A4.084,4.084,0,0,0,41.593,10H10.084A4.084,4.084,0,0,0,6,14.084v5.835A4.084,4.084,0,0,0,10.084,24h24.67a10.171,10.171,0,0,0-.163,1.75v.583H10.084A4.084,4.084,0,0,0,6,30.422v5.835a4.084,4.084,0,0,0,4.084,4.084H31.674v2.334H10.084A4.084,4.084,0,0,0,6,46.76V52.6a4.084,4.084,0,0,0,4.084,4.084H41.593A4.084,4.084,0,0,0,45.678,52.6v-1.75H54.43a2.917,2.917,0,0,0,2.917-2.917v-14a2.917,2.917,0,0,0-2.917-2.917ZM44.511,18.169A7.585,7.585,0,0,1,52.1,25.754v5.251H49.762V25.754a5.251,5.251,0,0,0-10.5,0v5.251H36.925V25.754A7.585,7.585,0,0,1,44.511,18.169Zm2.917,7.585v5.251H41.593V25.754a2.917,2.917,0,0,1,5.835,0ZM10.084,21.67a1.75,1.75,0,0,1-1.75-1.75V14.084a1.75,1.75,0,0,1,1.75-1.75H41.593a1.75,1.75,0,0,1,1.75,1.75v1.826a9.919,9.919,0,0,0-7.86,5.759Zm0,16.338a1.75,1.75,0,0,1-1.75-1.75V30.422a1.75,1.75,0,0,1,1.75-1.75H34.591v2.334a2.917,2.917,0,0,0-2.917,2.917v4.084ZM43.344,52.6a1.75,1.75,0,0,1-1.75,1.75H10.084a1.75,1.75,0,0,1-1.75-1.75V46.76a1.75,1.75,0,0,1,1.75-1.75H31.674v2.917a2.917,2.917,0,0,0,2.917,2.917h8.752Zm11.67-4.668a.583.583,0,0,1-.583.583H34.591a.583.583,0,0,1-.583-.583v-14a.583.583,0,0,1,.583-.583H54.43a.583.583,0,0,1,.583.583Z" transform="translate(-6 -10)" fill="#fff"/>
  <path id="Path_3816" data-name="Path 3816" d="M69.509,54a3.5,3.5,0,0,0-1.167,6.8V64.5h2.334V60.8A3.5,3.5,0,0,0,69.509,54Zm0,4.668A1.167,1.167,0,1,1,70.676,57.5,1.167,1.167,0,0,1,69.509,58.668Z" transform="translate(-30.998 -28.326)" fill="#fff"/>
</svg>
