<svg xmlns="http://www.w3.org/2000/svg" width="59.996" height="51.594" viewBox="0 0 59.996 51.594">
  <g id="Group_4029" data-name="Group 4029" transform="translate(0.125 0.125)">
    <g id="Group_2854" data-name="Group 2854" transform="translate(0 0)">
      <path id="Path_3908" data-name="Path 3908" d="M58.812,4H.934A.933.933,0,0,0,0,4.934V54.411a.933.933,0,0,0,.934.934H58.812a.933.933,0,0,0,.934-.934V4.934A.933.933,0,0,0,58.812,4ZM1.867,5.867H57.879v5.6H1.867Zm0,47.61V13.335H57.879V53.477Z" transform="translate(0 -4)" fill="#fff" stroke="#28349d" stroke-width="0.25"/>
      <rect id="Rectangle_1222" data-name="Rectangle 1222" width="5.999" height="2.399" transform="translate(47.989 3.599)" fill="#fff" stroke="#28349d" stroke-width="0.25"/>
      <rect id="Rectangle_1223" data-name="Rectangle 1223" width="1.2" height="2.399" transform="translate(5.999 3.599)" fill="#fff" stroke="#28349d" stroke-width="0.25"/>
      <rect id="Rectangle_1224" data-name="Rectangle 1224" width="1.2" height="2.399" transform="translate(9.598 3.599)" fill="#fff" stroke="#28349d" stroke-width="0.25"/>
      <rect id="Rectangle_1225" data-name="Rectangle 1225" width="1.2" height="2.399" transform="translate(13.197 3.599)" fill="#fff" stroke="#28349d" stroke-width="0.25"/>
      <path id="Path_3909" data-name="Path 3909" d="M52.8,31A2.8,2.8,0,0,0,50,33.8v2.8a2.8,2.8,0,0,0,5.6,0V33.8A2.8,2.8,0,0,0,52.8,31Zm.934,5.6a.934.934,0,0,1-1.867,0V33.8a.934.934,0,1,1,1.867,0Z" transform="translate(-3.323 -5.795)" fill="#fff" stroke="#28349d" stroke-width="0.25"/>
      <path id="Path_3910" data-name="Path 3910" d="M39.819,31.519l.359-.124a.934.934,0,0,0,.628-.882v-.842l8.4-3.819v3.218h1.867V24.4h0c0-.01,0-.02,0-.029a.934.934,0,0,0-.6-.843l-19.6-7.468a.927.927,0,0,0-.665,0L10.6,23.53a.933.933,0,0,0-.054,1.721l9.722,4.419v.842a.933.933,0,0,0,.628.882l.007,0-.731,2.551a10.222,10.222,0,0,0,3.568,10.933l2.175,1.692a.925.925,0,0,0-.047.233v3.734a.933.933,0,0,0,.934.934h.934v.934H29.6v-.934h1.867v.934h1.867v-.934h.934a.933.933,0,0,0,.934-.934V46.807a.925.925,0,0,0-.047-.233l1.948-1.515a10.287,10.287,0,0,0,3.442-11.341ZM22.136,29.847V25.1l2.769-.831a19.585,19.585,0,0,1,4.2-.777c.128-.009.255-.008.383-.015l.119,0L29.6,30l1.867,0,0-6.533a19.631,19.631,0,0,1,4.625.781l2.84.846v4.749l-8.4,2.9Zm-8.779-5.37,17.181-6.545,17.181,6.545L40.806,27.62V24.4a.925.925,0,0,0-.049-.3c-.008-.025-.026-.046-.036-.069a.956.956,0,0,0-.1-.191c0-.007-.012-.01-.017-.017a.929.929,0,0,0-.463-.32l-3.434-1.031a21.525,21.525,0,0,0-4.683-.854c-.107-.007-.215-.006-.322-.012-.388-.021-.777-.043-1.165-.043H30.5c-.428,0-.857.021-1.285.047-.08,0-.16,0-.24.009a21.491,21.491,0,0,0-4.683.865l-3.215.973-.143.043a.937.937,0,0,0-.617.6.949.949,0,0,0-.049.3V27.62Zm19.981,25.13h-5.6V47.74h5.6Zm2.622-6.022-2.942,2.288H31.471v-5.6h2.8a.933.933,0,0,0,.934-.934v-2.8H33.338V38.4H31.471V36.538H29.6V38.4H27.737V36.538H25.87v2.8a.933.933,0,0,0,.934.934h2.8v5.6H28.057l-3.169-2.465a8.363,8.363,0,0,1-2.918-8.945l.7-2.455,7.56,2.611a.933.933,0,0,0,.611,0l7.211-2.491.723,2.177A8.418,8.418,0,0,1,35.961,43.585Z" transform="translate(-0.665 -4.798)" fill="#fff" stroke="#28349d" stroke-width="0.25"/>
    </g>
  </g>
</svg>
