<svg id="noun_banking_1783871" xmlns="http://www.w3.org/2000/svg" width="60.359" height="58.904" viewBox="0 0 60.359 58.904">
  <path id="Path_4009" data-name="Path 4009" d="M19.42,61.825A1.424,1.424,0,0,1,18,60.4V33.42a1.42,1.42,0,0,1,2.84,0V60.4A1.424,1.424,0,0,1,19.42,61.825Z" transform="translate(-10.899 -14.283)" fill="#fff"/>
  <path id="Path_4010" data-name="Path 4010" d="M29.42,61.825A1.424,1.424,0,0,1,28,60.4V33.42a1.42,1.42,0,0,1,2.84,0V60.4A1.424,1.424,0,0,1,29.42,61.825Z" transform="translate(-13.798 -14.283)" fill="#fff"/>
  <path id="Path_4011" data-name="Path 4011" d="M39.42,61.825A1.424,1.424,0,0,1,38,60.4V33.42a1.42,1.42,0,0,1,2.84,0V60.4A1.424,1.424,0,0,1,39.42,61.825Z" transform="translate(-16.697 -14.283)" fill="#fff"/>
  <path id="Path_4012" data-name="Path 4012" d="M49.42,61.825A1.424,1.424,0,0,1,48,60.4V33.42a1.42,1.42,0,0,1,2.84,0V60.4A1.424,1.424,0,0,1,49.42,61.825Z" transform="translate(-19.596 -14.283)" fill="#fff"/>
  <path id="Path_4013" data-name="Path 4013" d="M59.42,61.825A1.424,1.424,0,0,1,58,60.4V33.42a1.42,1.42,0,0,1,2.84,0V60.4A1.424,1.424,0,0,1,59.42,61.825Z" transform="translate(-22.495 -14.283)" fill="#fff"/>
  <path id="Path_4014" data-name="Path 4014" d="M69.42,61.825A1.424,1.424,0,0,1,68,60.4V33.42a1.42,1.42,0,1,1,2.84,0V60.4A1.424,1.424,0,0,1,69.42,61.825Z" transform="translate(-25.393 -14.283)" fill="#fff"/>
  <path id="Path_4015" data-name="Path 4015" d="M79.42,61.825A1.424,1.424,0,0,1,78,60.4V33.42a1.42,1.42,0,1,1,2.84,0V60.4A1.424,1.424,0,0,1,79.42,61.825Z" transform="translate(-28.292 -14.283)" fill="#fff"/>
  <path id="Path_4016" data-name="Path 4016" d="M65.389,27.608H11.42A1.424,1.424,0,0,1,10,26.187V20.933a1.4,1.4,0,0,1,.852-1.278l26.984-12.5a1.76,1.76,0,0,1,1.207,0l26.984,12.5a1.4,1.4,0,0,1,.852,1.278v5.255A1.537,1.537,0,0,1,65.389,27.608ZM12.84,24.767H63.968V21.856L38.4,10,12.84,21.856Z" transform="translate(-8.58 -7.05)" fill="#fff"/>
  <path id="Path_4017" data-name="Path 4017" d="M66.939,88.84H9.42a1.42,1.42,0,0,1,0-2.84H66.939a1.42,1.42,0,0,1,0,2.84Z" transform="translate(-8 -29.937)" fill="#fff"/>
  <path id="Path_4018" data-name="Path 4018" d="M65.258,80.84H13.42a1.42,1.42,0,1,1,0-2.84H65.258a1.42,1.42,0,1,1,0,2.84Z" transform="translate(-9.16 -27.618)" fill="#fff"/>
</svg>
