<svg xmlns="http://www.w3.org/2000/svg" width="56.137" height="54.073" viewBox="0 0 56.137 54.073">
  <g id="Group_4030" data-name="Group 4030" transform="translate(-1398 -2602)">
    <g id="Group_4030-2" data-name="Group 4030" transform="translate(1398 2602)">
      <path id="Path_3890" data-name="Path 3890" d="M78.046,35.389a3.791,3.791,0,0,0-5.189,1.12L68.729,42.7a3.428,3.428,0,0,0-2.771.767L57.7,50.662a6.786,6.786,0,0,0-2.182,4.01L54.4,62.278v7.253a1.246,1.246,0,0,0,1.238,1.238H65.722a1.246,1.246,0,0,0,1.238-1.238V63.281l6.015-4.658A11.349,11.349,0,0,0,77.043,52.2l2.771-12.737A4.047,4.047,0,0,0,78.046,35.389ZM64.424,68.352H56.759V63.871h7.666ZM77.338,38.868,74.567,51.605a8.95,8.95,0,0,1-3.184,5.071L65.25,61.453H56.936l.943-6.368a4.218,4.218,0,0,1,1.415-2.536L67.609,45.3a.95.95,0,0,1,1.415,1.238L67.55,48.893a13.541,13.541,0,0,1-2.064,2.477l-2.3,2.123a1.21,1.21,0,1,0,1.651,1.769l2.3-2.123a16.843,16.843,0,0,0,2.477-2.948l1.474-2.359a3.365,3.365,0,0,0-.236-3.892l4.01-6.074a1.348,1.348,0,0,1,1.887-.413A1.266,1.266,0,0,1,77.338,38.868Z" transform="translate(-23.726 -16.697)" fill="#fff"/>
      <path id="Path_3891" data-name="Path 3891" d="M26.746,54.749a6.62,6.62,0,0,0-2.182-4.01L16.25,43.486a3.371,3.371,0,0,0-2.771-.767L9.35,36.528a3.834,3.834,0,0,0-5.189-1.12,3.863,3.863,0,0,0-1.71,4.01L5.223,52.154a11.053,11.053,0,0,0,4.069,6.427l6.015,4.658v6.31a1.246,1.246,0,0,0,1.238,1.238H26.628a1.246,1.246,0,0,0,1.238-1.238V62.12ZM10.884,56.695A8.762,8.762,0,0,1,7.7,51.624L4.928,38.887a1.358,1.358,0,0,1,2.477-1l4.01,6.074a3.372,3.372,0,0,0-.236,3.892l1.474,2.359a14.934,14.934,0,0,0,2.477,2.948l2.3,2.123a1.21,1.21,0,0,0,1.651-1.769l-2.3-2.123a12.126,12.126,0,0,1-2.064-2.477l-1.474-2.359a.95.95,0,0,1,1.415-1.238l8.314,7.253A4.391,4.391,0,0,1,24.387,55.1l.943,6.368H17.016ZM25.448,68.37H17.783V63.889h7.666Z" transform="translate(-2.381 -16.715)" fill="#fff"/>
      <path id="Path_3892" data-name="Path 3892" d="M54.537,19.078A14.919,14.919,0,1,0,39.619,34,14.949,14.949,0,0,0,54.537,19.078ZM39.619,31.52a12.472,12.472,0,1,1,12.5-12.442A12.507,12.507,0,0,1,39.619,31.52Z" transform="translate(-11.539 -4.1)" fill="#fff"/>
    </g>
    <path id="Path_4399" data-name="Path 4399" d="M47.086,15.4H41.425a.781.781,0,0,0-.767.767v3.892H36.767a.781.781,0,0,0-.767.767v5.661a.781.781,0,0,0,.767.767h3.892v3.892a.781.781,0,0,0,.767.767h5.661a.781.781,0,0,0,.767-.767V27.252h3.892a.781.781,0,0,0,.767-.767V20.825a.781.781,0,0,0-.767-.767H47.852V16.167A.781.781,0,0,0,47.086,15.4Zm3.243,6.9v2.771H45.671v4.658H42.9V25.071H38.241V22.3H42.9V17.641h2.771V22.3Z" transform="translate(1381.824 2593.263)" fill="#fff"/>
  </g>
</svg>
