<svg xmlns="http://www.w3.org/2000/svg" width="55.503" height="55.503" viewBox="0 0 55.503 55.503">
  <g id="noun_manufacturing_3502657" transform="translate(0.25 0.25)">
    <path id="Path_4027" data-name="Path 4027" d="M56.418,52.824h-1.3V35.107a.585.585,0,0,0-.585-.585H51.865V17.752h1.857a.585.585,0,0,0,.585-.585v-3.38a.585.585,0,0,0-.585-.585H33.415a.585.585,0,0,0-.585.585v3.38a.585.585,0,0,0,.585.585h1.857v11.4L25.979,34.13V29.5a.585.585,0,0,0-.862-.516L23.9,29.64l-.374-10.391c0-.016.009-.03.009-.046a.583.583,0,0,0-.013-.066L23.4,15.952a.585.585,0,0,0-.585-.564h-4.95a.585.585,0,0,0-.585.564l-.114,3.167a.556.556,0,0,0-.017.084.522.522,0,0,0,.012.059l-.513,14.259-1.136.609V29.5a.585.585,0,0,0-.862-.516l-1.314.7-.374-10.431a.173.173,0,0,0,0-.133l-.114-3.173a.585.585,0,0,0-.584-.564H7.313a.585.585,0,0,0-.584.564L6.612,19.14A.543.543,0,0,0,6.6,19.2c0,.016.008.029.009.044l-.523,14.33L4.193,34.592a.584.584,0,0,0-.309.515V52.824h-1.3A.585.585,0,0,0,2,53.409v3.009A.585.585,0,0,0,2.585,57H56.418A.585.585,0,0,0,57,56.418V53.409a.585.585,0,0,0-.585-.585ZM53.949,35.692V52.824H51.865V35.692ZM34,16.581v-2.21H53.137v2.21Zm16.7,1.17V52.824H36.441V17.752ZM18.434,16.558h3.821l.074,2.06H18.36Zm-.116,3.23h4.054l.377,10.467-4.9,2.626Zm-10.44-3.23H11.7l.074,2.06H7.8Zm-.118,3.23h4.055L12.193,30.3,7.28,32.937ZM5.054,35.458l9.292-4.98v4.629a.585.585,0,0,0,.862.515l8.378-4.489.018-.009,1.205-.646v4.629a.585.585,0,0,0,.862.515l9.6-5.144V52.824H5.054ZM55.833,55.832H3.17V53.994H55.833Zm-32.912-16.8H17.4a.585.585,0,0,0-.585.585V43a.585.585,0,0,0,.585.585h5.517A.585.585,0,0,0,23.506,43V39.616a.585.585,0,0,0-.585-.585Zm-.585,3.386H17.99V40.2h4.346Zm9.811-3.386H26.63a.585.585,0,0,0-.585.585V43a.585.585,0,0,0,.585.585h5.517A.585.585,0,0,0,32.732,43V39.616a.585.585,0,0,0-.585-.585Zm-.585,3.386H27.215V40.2h4.347ZM40.81,26.1h5.517a.585.585,0,0,0,.585-.585V22.124a.585.585,0,0,0-.585-.585H40.81a.585.585,0,0,0-.585.585V25.51a.585.585,0,0,0,.585.585ZM41.4,22.71h4.346v2.215H41.4ZM13.7,39.031H8.179a.585.585,0,0,0-.585.585V43a.585.585,0,0,0,.585.585H13.7A.585.585,0,0,0,14.281,43V39.616a.585.585,0,0,0-.586-.585Zm-.585,3.386H8.763V40.2h4.347Zm-3.32-29.6a2.357,2.357,0,1,0-2.358-2.357A2.357,2.357,0,0,0,9.79,12.814Zm0-3.545A1.187,1.187,0,1,1,8.6,10.457,1.187,1.187,0,0,1,9.79,9.27Zm4.227-1.188a3.041,3.041,0,1,0-3.041-3.041A3.041,3.041,0,0,0,14.018,8.081Zm0-4.911a1.87,1.87,0,1,1-1.87,1.87,1.87,1.87,0,0,1,1.87-1.87Zm6.327,9.644a2.357,2.357,0,1,0-2.358-2.357,2.357,2.357,0,0,0,2.358,2.357Zm0-3.545a1.187,1.187,0,1,1-1.187,1.187A1.187,1.187,0,0,1,20.344,9.27Zm4.227-1.188a3.041,3.041,0,1,0-3.041-3.041A3.041,3.041,0,0,0,24.572,8.081Zm0-4.911A1.87,1.87,0,1,1,22.7,5.04a1.87,1.87,0,0,1,1.87-1.87ZM40.225,28.331a.585.585,0,0,1,.585-.585h5.517a.585.585,0,0,1,0,1.17H40.81a.585.585,0,0,1-.585-.585Z" transform="translate(-2 -2)" fill="#fff" stroke="#fff" stroke-width="0.5"/>
  </g>
</svg>
