<svg id="Group_4031" data-name="Group 4031" xmlns="http://www.w3.org/2000/svg" width="52.356" height="52.356" viewBox="0 0 52.356 52.356">
  <ellipse id="Ellipse_309" data-name="Ellipse 309" cx="1.147" cy="1.147" rx="1.147" ry="1.147" transform="translate(4.129 4.129)" fill="#fff"/>
  <ellipse id="Ellipse_310" data-name="Ellipse 310" cx="1.147" cy="1.147" rx="1.147" ry="1.147" transform="translate(8.258 4.129)" fill="#fff"/>
  <path id="Path_3850" data-name="Path 3850" d="M54.787,6H9.57A3.57,3.57,0,0,0,6,9.57V54.787a3.57,3.57,0,0,0,3.57,3.57H54.787a3.57,3.57,0,0,0,3.57-3.57V9.57A3.57,3.57,0,0,0,54.787,6Zm1.19,48.787a1.19,1.19,0,0,1-1.19,1.19h-5.95v-11.9h-2.38v11.9H41.1V41.1h-2.38V55.977H33.368V38.723h-2.38V55.977H25.634V42.293h-2.38V55.977H17.9V49.432h-2.38v6.545H9.57a1.19,1.19,0,0,1-1.19-1.19V16.709h47.6Zm0-40.457H8.38V9.57A1.19,1.19,0,0,1,9.57,8.38H54.787a1.19,1.19,0,0,1,1.19,1.19Z" transform="translate(-6 -6)" fill="#fff"/>
  <ellipse id="Ellipse_311" data-name="Ellipse 311" cx="1.147" cy="1.147" rx="1.147" ry="1.147" transform="translate(12.387 4.129)" fill="#fff"/>
  <path id="Path_3851" data-name="Path 3851" d="M19.147,60.824a4.161,4.161,0,0,0,3.8-5.86L33.73,47.77a4.165,4.165,0,0,0,5.3-.964l9.4,4.7a4.165,4.165,0,1,0,1.19-2.059L39.971,44.6a3.572,3.572,0,0,0,0-.44,4.165,4.165,0,1,0-8.329,0,4.117,4.117,0,0,0,.44,1.85l-10.709,7.14a4.165,4.165,0,1,0-2.225,7.669ZM52.465,50.709a1.785,1.785,0,1,1-1.785,1.785A1.785,1.785,0,0,1,52.465,50.709ZM35.806,42.38a1.785,1.785,0,1,1-1.785,1.785,1.785,1.785,0,0,1,1.785-1.785ZM19.147,54.874a1.785,1.785,0,1,1-1.785,1.785A1.785,1.785,0,0,1,19.147,54.874Z" transform="translate(-9.628 -19.771)" fill="#fff"/>
</svg>
