<svg xmlns="http://www.w3.org/2000/svg" width="54.414" height="54.401" viewBox="0 0 54.414 54.401">
  <g id="Group_4027" data-name="Group 4027" transform="translate(0.158 0.125)">
    <path id="Path_3889" data-name="Path 3889" d="M10.67,1022.4a.936.936,0,0,0-.581.211l-2.438,1.932a.966.966,0,1,0,1.2,1.513l.872-.691v41.473H4.994l.649-.8a.966.966,0,0,0-.777-1.585.929.929,0,0,0-.725.37l-1.925,2.385a.966.966,0,0,0-.008,1.2l1.925,2.438a.966.966,0,1,0,1.517-1.2l-.694-.879H9.723v4.778l-.872-.691a.966.966,0,1,0-1.2,1.513l2.438,1.932a.967.967,0,0,0,1.208,0l2.385-1.932a.966.966,0,1,0-1.219-1.5l-.808.653v-4.748H53.117l-.7.868a.966.966,0,1,0,1.506,1.211l1.959-2.438a.966.966,0,0,0,0-1.219l-1.962-2.385a.967.967,0,1,0-1.491,1.23l.66.8H11.656V1025.4l.808.653a.966.966,0,1,0,1.219-1.5l-2.385-1.932a.965.965,0,0,0-.626-.219Zm30.932,1.932a.966.966,0,0,0-.966.966v3.865a.966.966,0,0,0,.966.966h3.865a.966.966,0,0,0,.966-.966V1025.3a.966.966,0,0,0-.966-.966Zm7.646,0a.967.967,0,0,0,.1,1.932h4.819a.966.966,0,1,0,0-1.932H49.347A.877.877,0,0,0,49.249,1024.333Zm-6.68,1.932H44.5v1.932H42.569Zm6.68,1.932a.967.967,0,0,0,.1,1.932h1.932a.966.966,0,1,0,0-1.932H49.347Q49.3,1028.195,49.249,1028.2Zm-7.646,3.865a.966.966,0,0,0-.966.966v3.865a.966.966,0,0,0,.966.966h3.865a.966.966,0,0,0,.966-.966v-3.865a.966.966,0,0,0-.966-.966Zm7.646,0a.967.967,0,0,0,.1,1.932h4.819a.966.966,0,1,0,0-1.932H49.347A.94.94,0,0,0,49.249,1032.062Zm-6.68,1.932H44.5v1.932H42.569Zm6.68,1.932a.967.967,0,0,0,.1,1.932h1.932a.966.966,0,1,0,0-1.932H49.347A.94.94,0,0,0,49.249,1035.926Zm-16.168,6.691a2.913,2.913,0,0,0-2.9,2.9,2.85,2.85,0,0,0,.2,1.015l-6.159,5.789-2.2-1.381a2.838,2.838,0,0,0,.1-.717,2.9,2.9,0,1,0-2.9,2.9,2.866,2.866,0,0,0,1.717-.581l1.827,1.143-5.057,4.751a2.852,2.852,0,0,0-1.227-.287,2.9,2.9,0,1,0,2.9,2.9,2.85,2.85,0,0,0-.3-1.249l5.374-5.053,3.676,2.306a2.854,2.854,0,0,0-.075.63,2.9,2.9,0,0,0,5.8,0,2.837,2.837,0,0,0-.125-.793L41.1,1050.8l5.638,3.019a2.825,2.825,0,0,0-.042.385,2.9,2.9,0,1,0,2.9-2.9,2.878,2.878,0,0,0-1.974.8l-4.914-2.631,1.049-.864a2.855,2.855,0,0,0,1.472.419,2.9,2.9,0,1,0-2.9-2.9,2.846,2.846,0,0,0,.192,1l-1.623,1.336-4.952-2.672a2.755,2.755,0,0,0,.03-.279,2.913,2.913,0,0,0-2.9-2.9Zm0,1.932a.966.966,0,1,1-.966.966A.952.952,0,0,1,33.081,1044.55Zm12.149.615a.966.966,0,1,1-.966.966A.952.952,0,0,1,45.23,1045.165Zm-10.092,2.385,4.155,2.245-6.684,5.518a2.824,2.824,0,0,0-3.442.109l-3.257-2.042L31.628,1048a2.85,2.85,0,0,0,1.453.411,2.893,2.893,0,0,0,2.057-.864Zm-15.915,1.706a.966.966,0,1,1-.966.966A.952.952,0,0,1,19.223,1049.256Zm30.374,3.985a.966.966,0,1,1-.966.966A.952.952,0,0,1,49.6,1053.241Zm-18.64,3.472a.966.966,0,1,1-.966.966A.952.952,0,0,1,30.957,1056.714Zm-14.473,3.367a.966.966,0,1,1-.966.966A.952.952,0,0,1,16.483,1060.08Z" transform="translate(-2.002 -1022.4)" fill="#fff" stroke="#28349d" stroke-width="0.25"/>
  </g>
</svg>
