<svg id="Group_4028" data-name="Group 4028" xmlns="http://www.w3.org/2000/svg" width="77.613" height="59.067" viewBox="0 0 77.613 59.067">
  <path id="Path_4025" data-name="Path 4025" d="M78.731,36.616H75.595V21.831l.691.623a.879.879,0,0,0,1.244-.067.882.882,0,0,0-.065-1.245l-1.872-1.686v-8.44a.882.882,0,0,0-.882-.882H70.675a.882.882,0,0,0-.882.882v3.219L62.3,7.483a.883.883,0,0,0-1.18,0L45.952,21.141a.882.882,0,1,0,1.182,1.311l.691-.624V36.614H36.208a.869.869,0,0,0-.035-1.051.883.883,0,0,0-1.242-.118A12.685,12.685,0,0,0,33.7,36.616H19.089a.869.869,0,0,0-.035-1.051.883.883,0,0,0-1.242-.118,12.686,12.686,0,0,0-1.231,1.171H2.882A.882.882,0,0,0,2,37.5V65.442a.881.881,0,0,0,.882.882H78.731a.882.882,0,0,0,.882-.882V37.5A.882.882,0,0,0,78.731,36.616ZM70.414,56.247a.887.887,0,0,0-1.244-.116A12.606,12.606,0,0,0,67.8,57.466H66.449a10.913,10.913,0,0,1,2.018-4.9h9.382v4.9H70.315A.882.882,0,0,0,70.414,56.247ZM62.721,62.1a3.035,3.035,0,0,1,1.815,2.462H49.323a10.936,10.936,0,0,1,2.3-5.329H65.23a.68.68,0,0,0,.171.046c.023,0,.042,0,.063,0a.889.889,0,0,0,.258-.049H66.5a12.761,12.761,0,0,0-1.261,2.6,4.836,4.836,0,0,0-1.824-1.356.882.882,0,0,0-.693,1.621ZM32.359,38.378A12.883,12.883,0,0,0,31,41.146a4.836,4.836,0,0,0-1.824-1.356.882.882,0,0,0-.69,1.625,3.046,3.046,0,0,1,1.8,2.295H19.092a.872.872,0,0,0-.035-1.053.883.883,0,0,0-1.242-.116,12.9,12.9,0,0,0-1.231,1.171H15.09a10.931,10.931,0,0,1,2.3-5.329H32.359v0Zm17.115,0a12.9,12.9,0,0,0-1.358,2.766,4.851,4.851,0,0,0-1.824-1.355.882.882,0,0,0-.69,1.623A3.035,3.035,0,0,1,47.4,43.707H36.211a.869.869,0,0,0-.035-1.051.88.88,0,0,0-1.242-.118A12.686,12.686,0,0,0,33.7,43.709h-1.5a10.917,10.917,0,0,1,2.3-5.329h14.97v0Zm17.024,0a12.7,12.7,0,0,0-1.261,2.6,4.846,4.846,0,0,0-1.824-1.355.882.882,0,0,0-.691,1.623,3.039,3.039,0,0,1,1.815,2.461H53.329a.866.866,0,0,0-.037-1.051.878.878,0,0,0-1.24-.118,12.706,12.706,0,0,0-1.233,1.171h-1.5a10.936,10.936,0,0,1,2.3-5.329H66.5v0Zm-1.085-1.762H58V30.98a3.705,3.705,0,0,1,7.41,0v5.636Zm12.436,8.857V50.8h-7.76c.071-.062.132-.131.2-.187a.881.881,0,1,0-1.124-1.358,12.443,12.443,0,0,0-1.543,1.55h-1.2a10.936,10.936,0,0,1,2.2-5.329l9.229-.005ZM62.721,55.22a3.046,3.046,0,0,1,1.79,2.244H53.33a.869.869,0,0,0-.037-1.051.878.878,0,0,0-1.24-.118,12.9,12.9,0,0,0-1.233,1.169H49.353a10.922,10.922,0,0,1,2.115-4.9H66.375a12.661,12.661,0,0,0-1.136,2.388A4.846,4.846,0,0,0,63.415,53.6a.882.882,0,0,0-.693,1.623Zm-26.545,1.2a.882.882,0,0,0-1.242-.118A13.1,13.1,0,0,0,33.7,57.467H32.232a10.935,10.935,0,0,1,2.115-4.9h15a12.822,12.822,0,0,0-1.229,2.551,4.846,4.846,0,0,0-1.824-1.353.882.882,0,0,0-.69,1.623,3.061,3.061,0,0,1,1.767,2.08H36.211A.874.874,0,0,0,36.176,56.416Zm0-6.879a.88.88,0,0,0-1.242-.116,12.333,12.333,0,0,0-1.413,1.385H32.207a10.924,10.924,0,0,1,2.3-5.329H49.478a12.9,12.9,0,0,0-1.36,2.764,4.883,4.883,0,0,0-1.824-1.355.882.882,0,1,0-.691,1.623A3.043,3.043,0,0,1,47.4,50.8H36.035l.026-.023A.888.888,0,0,0,36.176,49.537Zm-17.119,0a.88.88,0,0,0-1.242-.116A12.478,12.478,0,0,0,16.4,50.805H15.088a10.908,10.908,0,0,1,2.3-5.329H32.359A12.9,12.9,0,0,0,31,48.24a4.869,4.869,0,0,0-1.824-1.355.882.882,0,0,0-.69,1.623,3.047,3.047,0,0,1,1.8,2.293H18.916l.026-.023A.89.89,0,0,0,19.057,49.537Zm46.181-1.464a4.832,4.832,0,0,0-1.824-1.356.882.882,0,0,0-.691,1.623A3.041,3.041,0,0,1,64.538,50.8H53.149a.157.157,0,0,0,.025-.023.881.881,0,1,0-1.124-1.358A12.477,12.477,0,0,0,50.637,50.8H49.324a10.943,10.943,0,0,1,2.3-5.329H66.5A12.415,12.415,0,0,0,65.239,48.073Zm-50-2.6a12.828,12.828,0,0,0-1.36,2.766,4.855,4.855,0,0,0-1.824-1.356.882.882,0,0,0-.69,1.623,3.052,3.052,0,0,1,1.8,2.295h-9.4V45.471l11.474,0ZM3.764,52.564H15.113a12.8,12.8,0,0,0-1.233,2.552,4.828,4.828,0,0,0-1.824-1.353.882.882,0,0,0-.69,1.623,3.051,3.051,0,0,1,1.769,2.08H3.764Zm13.464,0h15A12.8,12.8,0,0,0,31,55.116a4.838,4.838,0,0,0-1.826-1.355.882.882,0,0,0-.69,1.623,3.063,3.063,0,0,1,1.769,2.08H19.092a.869.869,0,0,0-.037-1.051.88.88,0,0,0-1.242-.118,12.649,12.649,0,0,0-1.229,1.169H15.113A10.975,10.975,0,0,1,17.228,52.564ZM30.669,59.23a.872.872,0,0,0,.489.212c.023,0,.042,0,.063,0a.875.875,0,0,0,.568-.215h.568A12.8,12.8,0,0,0,31,62a4.836,4.836,0,0,0-1.824-1.356.882.882,0,0,0-.69,1.623,3.046,3.046,0,0,1,1.8,2.295H15.088a10.915,10.915,0,0,1,2.3-5.329H30.669Zm3.835,0H47.786a.872.872,0,0,0,.49.212c.023,0,.042,0,.063,0a.875.875,0,0,0,.568-.215h.568a12.828,12.828,0,0,0-1.36,2.766,4.851,4.851,0,0,0-1.824-1.355.882.882,0,0,0-.69,1.623A3.035,3.035,0,0,1,47.4,64.557H32.207A10.916,10.916,0,0,1,34.5,59.23ZM77.849,43.709H70.315a.878.878,0,0,0-1.143-1.334A12.288,12.288,0,0,0,67.8,43.711H66.426a10.935,10.935,0,0,1,2.2-5.329h9.225ZM71.559,11.9h2.272v5.971l-2.272-2.046Zm-9.848-2.57,10.705,9.642H51.005ZM49.591,20.732H73.829V36.616H70.313a.879.879,0,0,0-1.143-1.335A12.607,12.607,0,0,0,67.8,36.616h-.619V30.98a5.469,5.469,0,0,0-10.938,0v5.636H53.327a.866.866,0,0,0-.037-1.051.881.881,0,0,0-1.24-.118,12.705,12.705,0,0,0-1.233,1.171H49.591ZM15.238,38.378a12.828,12.828,0,0,0-1.36,2.766,4.832,4.832,0,0,0-1.824-1.355.882.882,0,0,0-.69,1.623,3.046,3.046,0,0,1,1.8,2.295h-9.4V38.378ZM3.764,59.23h9.788a.872.872,0,0,0,.49.212c.021,0,.041,0,.062,0a.875.875,0,0,0,.568-.215h.568a12.828,12.828,0,0,0-1.36,2.766,4.84,4.84,0,0,0-1.822-1.355.882.882,0,0,0-.691,1.623,3.046,3.046,0,0,1,1.8,2.295h-9.4ZM66.422,64.56a10.936,10.936,0,0,1,2.2-5.329h9.229V64.56Z" transform="translate(-2 -7.257)" fill="#fff"/>
  <path id="Path_4026" data-name="Path 4026" d="M37.259,9.883a3.25,3.25,0,1,0,3.251,3.251A3.254,3.254,0,0,0,37.259,9.883Zm0,4.736a1.486,1.486,0,1,1,1.487-1.485A1.489,1.489,0,0,1,37.259,14.619Z" transform="translate(22.452 -5.25)" fill="#fff"/>
</svg>
