<svg id="Group_4028" data-name="Group 4028" xmlns="http://www.w3.org/2000/svg" width="65.99" height="65.99" viewBox="0 0 65.99 65.99">
  <g id="Group_2882" data-name="Group 2882" transform="translate(0)">
    <rect id="Rectangle_1234" data-name="Rectangle 1234" width="2.2" height="6.599" transform="translate(25.296 28.596)" fill="#fff"/>
    <rect id="Rectangle_1235" data-name="Rectangle 1235" width="2.2" height="5.499" transform="translate(28.596 29.696)" fill="#fff"/>
    <rect id="Rectangle_1236" data-name="Rectangle 1236" width="2.2" height="7.699" transform="translate(31.895 27.496)" fill="#fff"/>
    <rect id="Rectangle_1237" data-name="Rectangle 1237" width="2.2" height="3.299" transform="translate(41.793 31.896)" fill="#fff"/>
    <rect id="Rectangle_1238" data-name="Rectangle 1238" width="2.2" height="4.399" transform="translate(21.997 30.796)" fill="#fff"/>
    <rect id="Rectangle_1239" data-name="Rectangle 1239" width="2.2" height="6.599" transform="translate(35.195 28.596)" fill="#fff"/>
    <rect id="Rectangle_1240" data-name="Rectangle 1240" width="2.2" height="5.499" transform="translate(38.494 29.696)" fill="#fff"/>
    <path id="Path_3937" data-name="Path 3937" d="M69.891,59.99a9.91,9.91,0,0,1,9.9,9.9h2.2a12.112,12.112,0,0,0-12.1-12.1V53.666a2.478,2.478,0,0,0-2.475-2.475H63.292v-4.4h4.124a2.478,2.478,0,0,0,2.475-2.475V40.193a12.1,12.1,0,1,0-12.048-13.2H54.493V25.9a1.1,1.1,0,0,0-1.1-1.1h-8.8a1.1,1.1,0,0,0-1.1,1.1v1.1H40.146a12.1,12.1,0,0,0-23.139-3.739l2.016.88A9.9,9.9,0,1,1,34.716,35.448v-2.13a5.23,5.23,0,0,0-2.892-4.674,3.828,3.828,0,0,0,.692-2.2v-2.2A3.854,3.854,0,0,0,28.667,20.4h-1.1a3.854,3.854,0,0,0-3.849,3.849v2.2a3.828,3.828,0,0,0,.692,2.2,5.23,5.23,0,0,0-2.892,4.674v2.165A9.877,9.877,0,0,1,18.2,28.095a9.977,9.977,0,0,1,.2-1.981l-2.156-.437A12.109,12.109,0,0,0,27,40.143v4.174a2.477,2.477,0,0,0,2.475,2.475H34.7v4.4H29.472A2.477,2.477,0,0,0,27,53.666V57.84A12.1,12.1,0,1,0,40.146,70.988H43.5v1.1a1.1,1.1,0,0,0,1.1,1.1h8.8a1.1,1.1,0,0,0,1.1-1.1v-1.1h3.349a12.1,12.1,0,0,0,23.9,1.319l-2.156-.437a9.85,9.85,0,0,1-3.082,5.372V75.112a5.23,5.23,0,0,0-2.892-4.674,3.828,3.828,0,0,0,.692-2.2v-2.2a3.854,3.854,0,0,0-3.849-3.849h-1.1a3.854,3.854,0,0,0-3.849,3.849v2.2a3.828,3.828,0,0,0,.692,2.2,5.23,5.23,0,0,0-2.892,4.674v2.165A9.894,9.894,0,0,1,69.891,59.99Zm-2.18,6.049a1.652,1.652,0,0,1,1.65-1.65h1.1a1.652,1.652,0,0,1,1.65,1.65v2.2a1.652,1.652,0,0,1-1.65,1.65h-1.1a1.652,1.652,0,0,1-1.65-1.65Zm-2.2,9.074a3.028,3.028,0,0,1,3.025-3.025h2.75a3.028,3.028,0,0,1,3.025,3.025V78.74a9.871,9.871,0,0,1-8.8.024ZM51.25,60.742a1.1,1.1,0,0,0-.056.348v1.1h-4.4v-1.1a1.1,1.1,0,0,0-.056-.348l-.617-1.852h5.747ZM37.171,56.69a.275.275,0,0,1-.275-.275V55.59h24.2v.825a.275.275,0,0,1-.275.275Zm23.921-3.3H36.9V41.568a.275.275,0,0,1,.275-.275H60.817a.275.275,0,0,1,.275.275Zm4.419-16.42V33.319a3.028,3.028,0,0,1,3.025-3.025h2.75a3.028,3.028,0,0,1,3.025,3.025v3.632a9.889,9.889,0,0,1-8.8.02Zm6.6-10.525a1.652,1.652,0,0,1-1.65,1.65h-1.1a1.652,1.652,0,0,1-1.65-1.65v-2.2a1.652,1.652,0,0,1,1.65-1.65h1.1a1.652,1.652,0,0,1,1.65,1.65ZM69.891,18.2A9.894,9.894,0,0,1,76.51,35.449v-2.13a5.23,5.23,0,0,0-2.892-4.674,3.828,3.828,0,0,0,.692-2.2v-2.2A3.854,3.854,0,0,0,70.461,20.4h-1.1a3.854,3.854,0,0,0-3.849,3.849v2.2a3.828,3.828,0,0,0,.692,2.2,5.23,5.23,0,0,0-2.892,4.674v2.165A9.894,9.894,0,0,1,69.891,18.2Zm-24.2,8.8h6.6v2.2h-6.6Zm-19.777-2.75a1.652,1.652,0,0,1,1.65-1.65h1.1a1.652,1.652,0,0,1,1.65,1.65v2.2a1.652,1.652,0,0,1-1.65,1.65h-1.1a1.652,1.652,0,0,1-1.65-1.65Zm-2.2,9.074a3.028,3.028,0,0,1,3.025-3.025h2.75a3.028,3.028,0,0,1,3.025,3.025v3.632a9.889,9.889,0,0,1-8.8.02Zm5.754,11.273a.275.275,0,0,1-.275-.275V40.143A12.119,12.119,0,0,0,40.146,29.195H43.5v1.1a1.1,1.1,0,0,0,1.1,1.1h8.8a1.1,1.1,0,0,0,1.1-1.1v-1.1h3.349a12.124,12.124,0,0,0,9.849,10.8v4.325a.275.275,0,0,1-.275.275H63.292V41.568a2.478,2.478,0,0,0-2.475-2.475H37.171A2.478,2.478,0,0,0,34.7,41.568v3.025ZM23.718,78.764V75.112a3.028,3.028,0,0,1,3.025-3.025h2.75a3.028,3.028,0,0,1,3.025,3.025v3.632a9.889,9.889,0,0,1-8.8.02Zm6.6-10.525a1.652,1.652,0,0,1-1.65,1.65h-1.1a1.652,1.652,0,0,1-1.65-1.65v-2.2a1.652,1.652,0,0,1,1.65-1.65h1.1a1.652,1.652,0,0,1,1.65,1.65Zm4.4,9v-2.13a5.23,5.23,0,0,0-2.892-4.674,3.828,3.828,0,0,0,.692-2.2v-2.2a3.854,3.854,0,0,0-3.849-3.849h-1.1a3.854,3.854,0,0,0-3.849,3.849v2.2a3.828,3.828,0,0,0,.692,2.2,5.23,5.23,0,0,0-2.892,4.674v2.165a9.9,9.9,0,1,1,13.2-.035Zm17.578-6.254h-6.6v-2.2h6.6Zm5.549-2.2H54.493v-1.1a1.1,1.1,0,0,0-1.1-1.1h-8.8a1.1,1.1,0,0,0-1.1,1.1v1.1H40.146A12.119,12.119,0,0,0,29.2,57.84V53.666a.275.275,0,0,1,.275-.275H34.7v3.025a2.478,2.478,0,0,0,2.475,2.475H43.8l.793,2.378v.921H42.4v2.2h13.2v-2.2h-2.2v-.921l.793-2.378h6.631a2.477,2.477,0,0,0,2.475-2.475V53.391h4.124a.275.275,0,0,1,.275.275v4.325A12.124,12.124,0,0,0,57.842,68.788Z" transform="translate(-15.999 -15.996)" fill="#fff"/>
  </g>
</svg>
