<svg id="Group_4032" data-name="Group 4032" xmlns="http://www.w3.org/2000/svg" width="52.064" height="52.064" viewBox="0 0 52.064 52.064">
  <g id="Group_2721" data-name="Group 2721">
    <ellipse id="Ellipse_303" data-name="Ellipse 303" cx="1.141" cy="1.141" rx="1.141" ry="1.141" transform="translate(4.021 4.106)" fill="#fff"/>
    <ellipse id="Ellipse_304" data-name="Ellipse 304" cx="1.369" cy="1.141" rx="1.369" ry="1.141" transform="translate(8.127 4.106)" fill="#fff"/>
    <path id="Path_3846" data-name="Path 3846" d="M54.515,6H9.55A3.55,3.55,0,0,0,6,9.55V54.515a3.55,3.55,0,0,0,3.55,3.55H54.515a3.55,3.55,0,0,0,3.55-3.55V9.55A3.55,3.55,0,0,0,54.515,6ZM32.624,55.7H31.441V46.5A19.074,19.074,0,0,0,27.707,35.18a7.188,7.188,0,0,1,8.65,0A19.074,19.074,0,0,0,32.624,46.5Zm4.733-8.159V55.7H34.99V46.5a16.7,16.7,0,0,1,5.526-12.424L38.931,32.3c-.367.331-.71.68-1.047,1.035a9.555,9.555,0,0,0-11.7,0c-.337-.355-.68-.7-1.047-1.035l-1.586,1.775A16.7,16.7,0,0,1,29.074,46.5v9.2H26.707V47.539l-.663-.325a13.608,13.608,0,1,1,11.975,0ZM55.7,54.515A1.183,1.183,0,0,1,54.515,55.7H39.724v-6.7a15.974,15.974,0,1,0-15.383,0v6.7H9.55a1.183,1.183,0,0,1-1.183-1.183V16.65H55.7Zm0-40.232H8.367V9.55A1.183,1.183,0,0,1,9.55,8.367H54.515A1.183,1.183,0,0,1,55.7,9.55Z" transform="translate(-6 -6)" fill="#fff"/>
    <ellipse id="Ellipse_305" data-name="Ellipse 305" cx="1.369" cy="1.141" rx="1.369" ry="1.141" transform="translate(12.232 4.106)" fill="#fff"/>
  </g>
</svg>
