<svg xmlns="http://www.w3.org/2000/svg" width="99.724" height="126.125" viewBox="0 0 99.724 126.125">
  <g id="noun_startup_2315340" transform="translate(-13.547 63.416) rotate(-45)">
    <g id="Group_3358" data-name="Group 3358" transform="translate(0 0)">
      <path id="Path_4129" data-name="Path 4129" d="M21.021,28.008a63.606,63.606,0,0,0,2.85-9.756c.256-1.279.512-2.521.731-3.8.146-.8.256-1.644.4-2.485.073-.4.11-.84.183-1.242v-.256c0-.073.037-.183.037-.256a2.821,2.821,0,0,0-.548.073l-.329.037c-.84.11-1.644.219-2.485.365-1.644.256-3.252.548-4.787.877a68.15,68.15,0,0,0-9.428,2.741A1.758,1.758,0,0,1,6.4,11.017a68.638,68.638,0,0,1,9.9-2.887c1.571-.329,3.252-.658,4.97-.914.84-.146,1.717-.256,2.558-.365l.365-.037a5.168,5.168,0,0,1,3,.256,2.935,2.935,0,0,1,1.571,2.558,7.526,7.526,0,0,1-.073,1.352l-.037.219c-.073.438-.11.877-.183,1.315-.11.84-.256,1.717-.4,2.558q-.329,1.973-.767,3.946a72.252,72.252,0,0,1-3,10.3,1.738,1.738,0,0,1-1.644,1.133,1.771,1.771,0,0,1-1.644-2.448Z" transform="translate(60.907 -6.707)" fill="#d6d6d6"/>
      <path id="Path_4130" data-name="Path 4130" d="M166.362,189.388c.95-.95,1.169-2.667,1.425-4.385.512-3.544,2.01-10.085,6.541-14.141a12.54,12.54,0,0,1,6.833-3.143,14.42,14.42,0,0,1,15.676,14.58c-.4,7.527-7.527,11.693-13.52,13.009-1.681.365-3.4.731-4.385,1.681a1.826,1.826,0,0,1-1.279.512,1.742,1.742,0,0,1-.731-.146,2.27,2.27,0,0,1-1.06-2.412,7.275,7.275,0,0,1,2.412-4.531c.365-.4.731-.8,1.023-1.169a1.757,1.757,0,0,0,.365-1.389,1.586,1.586,0,0,0-.914-.914,3.773,3.773,0,0,0-3.581.292,9.169,9.169,0,0,0-1.608,1.717,9.631,9.631,0,0,1-3.069,2.85,6.48,6.48,0,0,1-2.156.658A2.172,2.172,0,0,1,166,191.4,1.868,1.868,0,0,1,166.362,189.388Zm6.76-5.006a7.3,7.3,0,0,1,7.126-.621,5.111,5.111,0,0,1,2.814,3.179,5.242,5.242,0,0,1-.877,4.275,8.9,8.9,0,0,1-.731.914c.4-.11.767-.183,1.133-.256,4.787-1.023,10.451-4.2,10.78-9.756a10.435,10.435,0,0,0-3.508-8.039,10.584,10.584,0,0,0-7.089-2.96c-.365,0-.767.037-1.133.073a9.2,9.2,0,0,0-4.97,2.3c-2.7,2.412-4.677,6.8-5.408,12.1-.037.256-.073.512-.11.8A8.572,8.572,0,0,1,173.122,184.382Z" transform="translate(-165.848 -108.817)" fill="#d6d6d6"/>
      <path id="Path_4131" data-name="Path 4131" d="M35.673,69.956l1.754-4.75c.731-1.937,1.535-3.873,2.412-5.737l-14.69-14.69a3.792,3.792,0,0,1-.767-4.312,3.85,3.85,0,0,1,3.764-2.229L53.03,40.065A68.624,68.624,0,0,1,72.214,25.887a5.028,5.028,0,0,1,.621-.292,1.724,1.724,0,0,1,1.973.329L94.029,45.108a1.77,1.77,0,0,1,.329,2.01l-.256.512A68.557,68.557,0,0,1,79.888,66.887l1.827,24.921a3.818,3.818,0,0,1-2.229,3.764,3.567,3.567,0,0,1-1.608.365,3.851,3.851,0,0,1-2.7-1.133L60.484,80.078c-1.864.877-3.8,1.681-5.7,2.375l-4.75,1.754a1.777,1.777,0,0,1-1.827-.4l-12.1-12.022A1.654,1.654,0,0,1,35.673,69.956Zm14.141,10.56,3.691-1.389c2.192-.8,4.385-1.754,6.5-2.777a1.791,1.791,0,0,1,2.01.329l15.566,15.6a.328.328,0,0,0,.4.073c.219-.11.219-.256.183-.329L76.307,66.265a1.846,1.846,0,0,1,.548-1.425A64.184,64.184,0,0,0,90.667,46.679l-17.43-17.43A65.065,65.065,0,0,0,55,43.025a1.726,1.726,0,0,1-1.425.548l-25.725-1.9h0a.343.343,0,0,0-.329.183.328.328,0,0,0,.073.4L43.164,57.824a1.77,1.77,0,0,1,.329,2.01c-1.023,2.119-1.973,4.312-2.814,6.577L39.327,70.1Z" transform="translate(-11.699 -18.582)" fill="#d6d6d6"/>
      <path id="Path_4132" data-name="Path 4132" d="M91.426,80.569a8.542,8.542,0,0,1,2.521,6.066A8.393,8.393,0,0,1,91.426,92.7a8.542,8.542,0,0,1-6.066,2.521h0A8.393,8.393,0,0,1,79.294,92.7,8.578,8.578,0,1,1,91.426,80.569Zm-9.647,9.647a5.062,5.062,0,0,0,3.581,1.5h0a4.915,4.915,0,0,0,3.581-1.5,5.064,5.064,0,1,0-7.162,0Z" transform="translate(-30.399 -51.996)" fill="#d6d6d6"/>
    </g>
  </g>
</svg>
