<svg xmlns="http://www.w3.org/2000/svg" width="119" height="119.001" viewBox="0 0 119 119.001">
  <g id="Group_3572" data-name="Group 3572" opacity="0.7">
    <g id="Group_3560" data-name="Group 3560">
      <g id="Group_3556" data-name="Group 3556" transform="translate(31.316)">
        <path id="Path_4197" data-name="Path 4197" d="M124.512,1.566v4.7a20.378,20.378,0,0,1-20.355,20.355h-4.7v-4.7A20.378,20.378,0,0,1,119.815,1.566h4.7M126.078,0h-6.263A21.921,21.921,0,0,0,97.894,21.921v6.263h6.263A21.921,21.921,0,0,0,126.078,6.263V0Z" transform="translate(-97.894)" fill="#fff"/>
        <path id="Path_4198" data-name="Path 4198" d="M151.638,23.279a1.1,1.1,0,1,1-1.1,1.1,1.1,1.1,0,0,1,1.1-1.1m0-1.253a2.349,2.349,0,1,0,2.349,2.349,2.348,2.348,0,0,0-2.349-2.349Z" transform="translate(-132.848 -14.98)" fill="#fff"/>
        <path id="Path_4199" data-name="Path 4199" d="M122.27,52.647a1.1,1.1,0,1,1-1.1,1.1,1.1,1.1,0,0,1,1.1-1.1m0-1.252a2.349,2.349,0,1,0,2.349,2.349A2.348,2.348,0,0,0,122.27,51.4Z" transform="translate(-112.875 -34.954)" fill="#fff"/>
      </g>
      <g id="Group_3557" data-name="Group 3557">
        <path id="Path_4200" data-name="Path 4200" d="M6.263,1.566A20.378,20.378,0,0,1,26.618,21.921v4.7h-4.7A20.378,20.378,0,0,1,1.566,6.263v-4.7h4.7M6.263,0H0V6.263A21.921,21.921,0,0,0,21.921,28.184h6.263V21.921A21.921,21.921,0,0,0,6.263,0Z" fill="#fff"/>
        <path id="Path_4201" data-name="Path 4201" d="M24.375,23.279a1.1,1.1,0,1,1-1.1,1.1,1.1,1.1,0,0,1,1.1-1.1m0-1.253a2.349,2.349,0,1,0,2.349,2.349,2.349,2.349,0,0,0-2.349-2.349Z" transform="translate(-14.98 -14.98)" fill="#fff"/>
        <path id="Path_4202" data-name="Path 4202" d="M53.744,52.647a1.1,1.1,0,1,1-1.1,1.1,1.1,1.1,0,0,1,1.1-1.1m0-1.252a2.349,2.349,0,1,0,2.349,2.349A2.348,2.348,0,0,0,53.744,51.4Z" transform="translate(-34.954 -34.954)" fill="#fff"/>
      </g>
      <g id="Group_3558" data-name="Group 3558" transform="translate(0 31.316)">
        <path id="Path_4203" data-name="Path 4203" d="M26.618,99.46v4.7A20.378,20.378,0,0,1,6.263,124.512h-4.7v-4.7A20.378,20.378,0,0,1,21.921,99.46h4.7m1.566-1.566H21.921A21.921,21.921,0,0,0,0,119.815v6.263H6.263a21.921,21.921,0,0,0,21.921-21.921V97.894Z" transform="translate(0 -97.894)" fill="#fff"/>
        <path id="Path_4204" data-name="Path 4204" d="M24.375,150.542a1.1,1.1,0,1,1-1.1,1.1,1.1,1.1,0,0,1,1.1-1.1m0-1.253a2.349,2.349,0,1,0,2.349,2.349,2.348,2.348,0,0,0-2.349-2.349Z" transform="translate(-14.98 -132.848)" fill="#fff"/>
        <path id="Path_4205" data-name="Path 4205" d="M53.744,121.173a1.1,1.1,0,1,1-1.1,1.1,1.1,1.1,0,0,1,1.1-1.1m0-1.252a2.349,2.349,0,1,0,2.349,2.349,2.348,2.348,0,0,0-2.349-2.349Z" transform="translate(-34.954 -112.875)" fill="#fff"/>
      </g>
      <g id="Group_3559" data-name="Group 3559" transform="translate(31.316 31.316)">
        <path id="Path_4206" data-name="Path 4206" d="M104.157,99.46a20.378,20.378,0,0,1,20.355,20.355v4.7h-4.7A20.378,20.378,0,0,1,99.46,104.157v-4.7h4.7m0-1.566H97.894v6.263a21.921,21.921,0,0,0,21.921,21.921h6.263v-6.263a21.921,21.921,0,0,0-21.921-21.921Z" transform="translate(-97.894 -97.894)" fill="#fff"/>
        <path id="Path_4207" data-name="Path 4207" d="M151.638,150.542a1.1,1.1,0,1,1-1.1,1.1,1.1,1.1,0,0,1,1.1-1.1m0-1.253a2.349,2.349,0,1,0,2.349,2.349,2.348,2.348,0,0,0-2.349-2.349Z" transform="translate(-132.848 -132.848)" fill="#fff"/>
        <path id="Path_4208" data-name="Path 4208" d="M122.27,121.173a1.1,1.1,0,1,1-1.1,1.1,1.1,1.1,0,0,1,1.1-1.1m0-1.252a2.349,2.349,0,1,0,2.349,2.349,2.348,2.348,0,0,0-2.349-2.349Z" transform="translate(-112.875 -112.875)" fill="#fff"/>
      </g>
    </g>
    <g id="Group_3565" data-name="Group 3565" transform="translate(59.5 0.001)">
      <g id="Group_3561" data-name="Group 3561" transform="translate(31.316)">
        <circle id="Ellipse_339" data-name="Ellipse 339" cx="1.096" cy="1.096" r="1.096" transform="translate(8.299 17.693)" fill="#fff"/>
        <path id="Path_4209" data-name="Path 4209" d="M302.683,8.3a1.1,1.1,0,1,0,1.1,1.1A1.1,1.1,0,0,0,302.683,8.3Zm0,0a1.1,1.1,0,1,0,1.1,1.1A1.1,1.1,0,0,0,302.683,8.3Zm0,0a1.1,1.1,0,1,0,1.1,1.1A1.1,1.1,0,0,0,302.683,8.3Zm0,0a1.1,1.1,0,1,0,1.1,1.1A1.1,1.1,0,0,0,302.683,8.3ZM305.814,0a21.921,21.921,0,0,0-21.921,21.921v6.263h6.263A21.919,21.919,0,0,0,312.077,6.265V0ZM293.288,21.14a2.349,2.349,0,1,1,2.349-2.349A2.349,2.349,0,0,1,293.288,21.14Zm9.395-9.395A2.349,2.349,0,1,1,305.031,9.4,2.349,2.349,0,0,1,302.683,11.745Zm0-3.445a1.1,1.1,0,1,0,1.1,1.1A1.1,1.1,0,0,0,302.683,8.3Zm0,0a1.1,1.1,0,1,0,1.1,1.1A1.1,1.1,0,0,0,302.683,8.3Zm0,0a1.1,1.1,0,1,0,1.1,1.1A1.1,1.1,0,0,0,302.683,8.3Zm0,0a1.1,1.1,0,1,0,1.1,1.1A1.1,1.1,0,0,0,302.683,8.3Zm0,0a1.1,1.1,0,1,0,1.1,1.1A1.1,1.1,0,0,0,302.683,8.3Z" transform="translate(-283.893 -0.002)" fill="#fff"/>
      </g>
      <g id="Group_3562" data-name="Group 3562">
        <circle id="Ellipse_340" data-name="Ellipse 340" cx="1.096" cy="1.096" r="1.096" transform="translate(8.299 8.299)" fill="#fff"/>
        <path id="Path_4210" data-name="Path 4210" d="M204.789,17.7a1.1,1.1,0,1,0,1.1,1.1A1.1,1.1,0,0,0,204.789,17.7Zm0,0a1.1,1.1,0,1,0,1.1,1.1A1.1,1.1,0,0,0,204.789,17.7Zm0,0a1.1,1.1,0,1,0,1.1,1.1A1.1,1.1,0,0,0,204.789,17.7Zm0,0a1.1,1.1,0,1,0,1.1,1.1A1.1,1.1,0,0,0,204.789,17.7Zm0,0a1.1,1.1,0,1,0,1.1,1.1A1.1,1.1,0,0,0,204.789,17.7Zm0,0a1.1,1.1,0,1,0,1.1,1.1A1.1,1.1,0,0,0,204.789,17.7ZM192.262,0H186V6.265A21.921,21.921,0,0,0,207.92,28.186h6.263V21.923A21.919,21.919,0,0,0,192.262,0Zm3.131,11.743A2.349,2.349,0,1,1,197.743,9.4,2.35,2.35,0,0,1,195.394,11.745Zm9.395,9.395a2.349,2.349,0,1,1,2.349-2.349A2.349,2.349,0,0,1,204.789,21.14Zm0-3.445a1.1,1.1,0,1,0,1.1,1.1A1.1,1.1,0,0,0,204.789,17.7Zm0,0a1.1,1.1,0,1,0,1.1,1.1A1.1,1.1,0,0,0,204.789,17.7Zm0,0a1.1,1.1,0,1,0,1.1,1.1A1.1,1.1,0,0,0,204.789,17.7Zm0,0a1.1,1.1,0,1,0,1.1,1.1A1.1,1.1,0,0,0,204.789,17.7Zm0,0a1.1,1.1,0,1,0,1.1,1.1A1.1,1.1,0,0,0,204.789,17.7Zm0,0a1.1,1.1,0,1,0,1.1,1.1A1.1,1.1,0,0,0,204.789,17.7Zm0,0a1.1,1.1,0,1,0,1.1,1.1A1.1,1.1,0,0,0,204.789,17.7Z" transform="translate(-185.999 -0.002)" fill="#fff"/>
      </g>
      <g id="Group_3563" data-name="Group 3563" transform="translate(0 31.316)">
        <circle id="Ellipse_341" data-name="Ellipse 341" cx="1.096" cy="1.096" r="1.096" transform="translate(17.693 8.299)" fill="#fff"/>
        <path id="Path_4211" data-name="Path 4211" d="M207.92,97.9A21.921,21.921,0,0,0,186,119.817v6.263h6.263a21.919,21.919,0,0,0,21.921-21.921V97.9Zm-12.526,21.138a2.349,2.349,0,1,1,2.349-2.349A2.35,2.35,0,0,1,195.394,119.034Zm9.395-9.395a2.349,2.349,0,1,1,2.349-2.349A2.349,2.349,0,0,1,204.789,109.639Zm-9.395,5.95a1.1,1.1,0,1,0,1.1,1.1A1.1,1.1,0,0,0,195.394,115.589Z" transform="translate(-185.999 -97.896)" fill="#fff"/>
      </g>
      <g id="Group_3564" data-name="Group 3564" transform="translate(31.316 31.316)">
        <circle id="Ellipse_342" data-name="Ellipse 342" cx="1.096" cy="1.096" r="1.096" transform="translate(8.299 8.299)" fill="#fff"/>
        <path id="Path_4212" data-name="Path 4212" d="M302.683,115.589a1.1,1.1,0,1,0,1.1,1.1A1.1,1.1,0,0,0,302.683,115.589Zm0,0a1.1,1.1,0,1,0,1.1,1.1A1.1,1.1,0,0,0,302.683,115.589ZM290.156,97.9h-6.263v6.263a21.921,21.921,0,0,0,21.921,21.921h6.263v-6.263A21.919,21.919,0,0,0,290.156,97.9Zm3.132,11.743a2.349,2.349,0,1,1,2.349-2.349A2.349,2.349,0,0,1,293.288,109.639Zm9.395,9.395a2.349,2.349,0,1,1,2.349-2.349A2.35,2.35,0,0,1,302.683,119.034Zm0-3.445a1.1,1.1,0,1,0,1.1,1.1A1.1,1.1,0,0,0,302.683,115.589Zm0,0a1.1,1.1,0,1,0,1.1,1.1A1.1,1.1,0,0,0,302.683,115.589Zm0,0a1.1,1.1,0,1,0,1.1,1.1A1.1,1.1,0,0,0,302.683,115.589Z" transform="translate(-283.893 -97.896)" fill="#fff"/>
      </g>
    </g>
    <g id="Group_3570" data-name="Group 3570" transform="translate(0 59.501)">
      <g id="Group_3566" data-name="Group 3566" transform="translate(31.316)">
        <circle id="Ellipse_343" data-name="Ellipse 343" cx="1.096" cy="1.096" r="1.096" transform="translate(8.299 17.693)" fill="#fff"/>
        <path id="Path_4213" data-name="Path 4213" d="M116.684,194.3a1.1,1.1,0,1,0,1.1,1.1A1.1,1.1,0,0,0,116.684,194.3Zm0,0a1.1,1.1,0,1,0,1.1,1.1A1.1,1.1,0,0,0,116.684,194.3Zm0,0a1.1,1.1,0,1,0,1.1,1.1A1.1,1.1,0,0,0,116.684,194.3Zm0,0a1.1,1.1,0,1,0,1.1,1.1A1.1,1.1,0,0,0,116.684,194.3Zm3.131-8.3a21.921,21.921,0,0,0-21.921,21.921v6.263h6.263a21.919,21.919,0,0,0,21.921-21.921V186Zm-12.526,21.138a2.349,2.349,0,1,1,2.349-2.349A2.349,2.349,0,0,1,107.289,207.139Zm9.395-9.395a2.349,2.349,0,1,1,2.349-2.349A2.349,2.349,0,0,1,116.684,197.744Zm0-3.445a1.1,1.1,0,1,0,1.1,1.1A1.1,1.1,0,0,0,116.684,194.3Zm0,0a1.1,1.1,0,1,0,1.1,1.1A1.1,1.1,0,0,0,116.684,194.3Zm0,0a1.1,1.1,0,1,0,1.1,1.1A1.1,1.1,0,0,0,116.684,194.3Zm0,0a1.1,1.1,0,1,0,1.1,1.1A1.1,1.1,0,0,0,116.684,194.3Zm0,0a1.1,1.1,0,1,0,1.1,1.1A1.1,1.1,0,0,0,116.684,194.3Z" transform="translate(-97.894 -186.001)" fill="#fff"/>
      </g>
      <g id="Group_3567" data-name="Group 3567">
        <circle id="Ellipse_344" data-name="Ellipse 344" cx="1.096" cy="1.096" r="1.096" transform="translate(8.299 8.299)" fill="#fff"/>
        <path id="Path_4214" data-name="Path 4214" d="M18.79,203.694a1.1,1.1,0,1,0,1.1,1.1A1.1,1.1,0,0,0,18.79,203.694Zm0,0a1.1,1.1,0,1,0,1.1,1.1A1.1,1.1,0,0,0,18.79,203.694Zm0,0a1.1,1.1,0,1,0,1.1,1.1A1.1,1.1,0,0,0,18.79,203.694Zm0,0a1.1,1.1,0,1,0,1.1,1.1A1.1,1.1,0,0,0,18.79,203.694Zm0,0a1.1,1.1,0,1,0,1.1,1.1A1.1,1.1,0,0,0,18.79,203.694Zm0,0a1.1,1.1,0,1,0,1.1,1.1A1.1,1.1,0,0,0,18.79,203.694ZM6.263,186H0v6.263a21.921,21.921,0,0,0,21.921,21.921h6.263v-6.263A21.919,21.919,0,0,0,6.263,186Zm3.131,11.743a2.349,2.349,0,1,1,2.349-2.349A2.349,2.349,0,0,1,9.395,197.744Zm9.395,9.395a2.349,2.349,0,1,1,2.349-2.349A2.349,2.349,0,0,1,18.79,207.139Zm0-3.445a1.1,1.1,0,1,0,1.1,1.1A1.1,1.1,0,0,0,18.79,203.694Zm0,0a1.1,1.1,0,1,0,1.1,1.1A1.1,1.1,0,0,0,18.79,203.694Zm0,0a1.1,1.1,0,1,0,1.1,1.1A1.1,1.1,0,0,0,18.79,203.694Zm0,0a1.1,1.1,0,1,0,1.1,1.1A1.1,1.1,0,0,0,18.79,203.694Zm0,0a1.1,1.1,0,1,0,1.1,1.1A1.1,1.1,0,0,0,18.79,203.694Zm0,0a1.1,1.1,0,1,0,1.1,1.1A1.1,1.1,0,0,0,18.79,203.694Zm0,0a1.1,1.1,0,1,0,1.1,1.1A1.1,1.1,0,0,0,18.79,203.694Z" transform="translate(0 -186.001)" fill="#fff"/>
      </g>
      <g id="Group_3568" data-name="Group 3568" transform="translate(0 31.316)">
        <circle id="Ellipse_345" data-name="Ellipse 345" cx="1.096" cy="1.096" r="1.096" transform="translate(17.693 8.299)" fill="#fff"/>
        <path id="Path_4215" data-name="Path 4215" d="M21.921,283.895A21.921,21.921,0,0,0,0,305.816v6.263H6.263a21.919,21.919,0,0,0,21.921-21.921v-6.263ZM9.395,305.033a2.349,2.349,0,1,1,2.349-2.349A2.35,2.35,0,0,1,9.395,305.033Zm9.395-9.395a2.349,2.349,0,1,1,2.349-2.349A2.349,2.349,0,0,1,18.79,295.638Zm-9.395,5.95a1.1,1.1,0,1,0,1.1,1.1A1.1,1.1,0,0,0,9.395,301.588Z" transform="translate(0 -283.895)" fill="#fff"/>
      </g>
      <g id="Group_3569" data-name="Group 3569" transform="translate(31.316 31.316)">
        <circle id="Ellipse_346" data-name="Ellipse 346" cx="1.096" cy="1.096" r="1.096" transform="translate(8.299 8.299)" fill="#fff"/>
        <path id="Path_4216" data-name="Path 4216" d="M116.684,301.588a1.1,1.1,0,1,0,1.1,1.1A1.1,1.1,0,0,0,116.684,301.588Zm0,0a1.1,1.1,0,1,0,1.1,1.1A1.1,1.1,0,0,0,116.684,301.588Zm-12.526-17.693H97.894v6.263a21.921,21.921,0,0,0,21.921,21.921h6.263v-6.263A21.919,21.919,0,0,0,104.157,283.895Zm3.132,11.743a2.349,2.349,0,1,1,2.349-2.349A2.349,2.349,0,0,1,107.289,295.638Zm9.395,9.395a2.349,2.349,0,1,1,2.349-2.349A2.35,2.35,0,0,1,116.684,305.033Zm0-3.445a1.1,1.1,0,1,0,1.1,1.1A1.1,1.1,0,0,0,116.684,301.588Zm0,0a1.1,1.1,0,1,0,1.1,1.1A1.1,1.1,0,0,0,116.684,301.588Zm0,0a1.1,1.1,0,1,0,1.1,1.1A1.1,1.1,0,0,0,116.684,301.588Z" transform="translate(-97.894 -283.895)" fill="#fff"/>
      </g>
    </g>
  </g>
</svg>
