<svg id="Group_4027" data-name="Group 4027" xmlns="http://www.w3.org/2000/svg" width="68.645" height="68.645" viewBox="0 0 68.645 68.645">
  <g id="Group_3423" data-name="Group 3423" transform="translate(34.322)">
    <g id="Group_3419" data-name="Group 3419" transform="translate(0)">
      <path id="Path_4152" data-name="Path 4152" d="M98.8.9v2.71a11.755,11.755,0,0,0,11.742,11.742h2.71v-2.71A11.755,11.755,0,0,0,101.507.9H98.8m-.9-.9h3.613a12.645,12.645,0,0,1,12.645,12.645v3.613h-3.613A12.645,12.645,0,0,1,97.894,3.613V0Z" transform="translate(-97.894)" fill="#e83830"/>
      <path id="Path_4153" data-name="Path 4153" d="M150.644,22.749a.632.632,0,1,0,.632.632.633.633,0,0,0-.632-.632m0-.723a1.355,1.355,0,1,1-1.355,1.355,1.355,1.355,0,0,1,1.355-1.355Z" transform="translate(-145.225 -17.962)" fill="#e83830"/>
      <path id="Path_4154" data-name="Path 4154" d="M121.276,52.117a.632.632,0,1,0,.632.632.633.633,0,0,0-.632-.632m0-.722a1.355,1.355,0,1,1-1.355,1.355,1.355,1.355,0,0,1,1.355-1.355Z" transform="translate(-110.437 -41.911)" fill="#e83830"/>
    </g>
    <g id="Group_3420" data-name="Group 3420" transform="translate(18.064)">
      <path id="Path_4155" data-name="Path 4155" d="M12.645.9A11.755,11.755,0,0,0,.9,12.645v2.71h2.71A11.755,11.755,0,0,0,15.355,3.613V.9h-2.71m0-.9h3.613V3.613A12.645,12.645,0,0,1,3.613,16.258H0V12.645A12.645,12.645,0,0,1,12.645,0Z" transform="translate(0)" fill="#e83830"/>
      <path id="Path_4156" data-name="Path 4156" d="M23.381,22.749a.632.632,0,1,0,.632.632.633.633,0,0,0-.632-.632m0-.723a1.355,1.355,0,1,1-1.355,1.355,1.355,1.355,0,0,1,1.355-1.355Z" transform="translate(-12.542 -17.962)" fill="#e83830"/>
      <path id="Path_4157" data-name="Path 4157" d="M52.75,52.117a.632.632,0,1,0,.632.632.633.633,0,0,0-.632-.632m0-.722a1.355,1.355,0,1,1-1.355,1.355,1.355,1.355,0,0,1,1.355-1.355Z" transform="translate(-47.331 -41.911)" fill="#e83830"/>
    </g>
    <g id="Group_3421" data-name="Group 3421" transform="translate(18.064 18.064)">
      <path id="Path_4158" data-name="Path 4158" d="M.9,98.8v2.71a11.755,11.755,0,0,0,11.742,11.742h2.71v-2.71A11.755,11.755,0,0,0,3.613,98.8H.9m-.9-.9H3.613a12.645,12.645,0,0,1,12.645,12.645v3.613H12.645A12.645,12.645,0,0,1,0,101.507V97.894Z" transform="translate(0 -97.894)" fill="#e83830"/>
      <path id="Path_4159" data-name="Path 4159" d="M23.381,150.012a.632.632,0,1,0,.632.632.633.633,0,0,0-.632-.632m0-.723a1.355,1.355,0,1,1-1.355,1.355,1.355,1.355,0,0,1,1.355-1.355Z" transform="translate(-12.542 -139.805)" fill="#e83830"/>
      <path id="Path_4160" data-name="Path 4160" d="M52.75,120.643a.632.632,0,1,0,.632.632.633.633,0,0,0-.632-.632m0-.722a1.355,1.355,0,1,1-1.355,1.355,1.355,1.355,0,0,1,1.355-1.355Z" transform="translate(-47.331 -115.856)" fill="#e83830"/>
    </g>
    <g id="Group_3422" data-name="Group 3422" transform="translate(0 18.064)">
      <path id="Path_4161" data-name="Path 4161" d="M110.539,98.8A11.755,11.755,0,0,0,98.8,110.539v2.71h2.71a11.755,11.755,0,0,0,11.742-11.742V98.8h-2.71m0-.9h3.613v3.613a12.645,12.645,0,0,1-12.645,12.645H97.894v-3.613a12.645,12.645,0,0,1,12.645-12.645Z" transform="translate(-97.894 -97.894)" fill="#e83830"/>
      <path id="Path_4162" data-name="Path 4162" d="M150.644,150.012a.632.632,0,1,0,.632.632.633.633,0,0,0-.632-.632m0-.723a1.355,1.355,0,1,1-1.355,1.355,1.355,1.355,0,0,1,1.355-1.355Z" transform="translate(-145.225 -139.805)" fill="#e83830"/>
      <path id="Path_4163" data-name="Path 4163" d="M121.276,120.643a.632.632,0,1,0,.632.632.633.633,0,0,0-.632-.632m0-.722a1.355,1.355,0,1,1-1.355,1.355,1.355,1.355,0,0,1,1.355-1.355Z" transform="translate(-110.437 -115.856)" fill="#e83830"/>
    </g>
  </g>
  <g id="Group_3428" data-name="Group 3428" transform="translate(0 0)">
    <g id="Group_3424" data-name="Group 3424" transform="translate(0)">
      <ellipse id="Ellipse_331" data-name="Ellipse 331" cx="0.632" cy="0.632" rx="0.632" ry="0.632" transform="translate(10.206 10.206)" fill="#2595d3"/>
      <path id="Path_4164" data-name="Path 4164" d="M289.312,4.789a.632.632,0,1,1-.632.632A.634.634,0,0,1,289.312,4.789Zm0,0a.632.632,0,1,1-.632.632A.634.634,0,0,1,289.312,4.789Zm0,0a.632.632,0,1,1-.632.632A.634.634,0,0,1,289.312,4.789Zm0,0a.632.632,0,1,1-.632.632A.634.634,0,0,1,289.312,4.789ZM287.506,0a12.645,12.645,0,0,1,12.645,12.645V16.26h-3.613A12.644,12.644,0,0,1,283.893,3.615V0ZM294.732,12.2a1.355,1.355,0,1,0-1.355-1.355A1.355,1.355,0,0,0,294.732,12.2Zm-5.419-5.419a1.355,1.355,0,1,0-1.355-1.355A1.355,1.355,0,0,0,289.312,6.776Zm0-1.987a.632.632,0,1,1-.632.632A.634.634,0,0,1,289.312,4.789Zm0,0a.632.632,0,1,1-.632.632A.634.634,0,0,1,289.312,4.789Zm0,0a.632.632,0,1,1-.632.632A.634.634,0,0,1,289.312,4.789Zm0,0a.632.632,0,1,1-.632.632A.634.634,0,0,1,289.312,4.789Zm0,0a.632.632,0,1,1-.632.632A.634.634,0,0,1,289.312,4.789Z" transform="translate(-283.893 -0.002)" fill="#2595d3"/>
    </g>
    <g id="Group_3425" data-name="Group 3425" transform="translate(18.064)">
      <ellipse id="Ellipse_332" data-name="Ellipse 332" cx="0.632" cy="0.632" rx="0.632" ry="0.632" transform="translate(10.206 4.787)" fill="#2595d3"/>
      <path id="Path_4165" data-name="Path 4165" d="M191.418,10.208a.632.632,0,1,1-.632.632A.634.634,0,0,1,191.418,10.208Zm0,0a.632.632,0,1,1-.632.632A.634.634,0,0,1,191.418,10.208Zm0,0a.632.632,0,1,1-.632.632A.634.634,0,0,1,191.418,10.208Zm0,0a.632.632,0,1,1-.632.632A.634.634,0,0,1,191.418,10.208Zm0,0a.632.632,0,1,1-.632.632A.634.634,0,0,1,191.418,10.208Zm0,0a.632.632,0,1,1-.632.632A.634.634,0,0,1,191.418,10.208ZM198.644,0h3.613V3.615A12.645,12.645,0,0,1,189.612,16.26H186V12.647A12.644,12.644,0,0,1,198.644,0Zm-1.806,6.774a1.355,1.355,0,1,0-1.355-1.355A1.355,1.355,0,0,0,196.838,6.776ZM191.418,12.2a1.355,1.355,0,1,0-1.355-1.355A1.355,1.355,0,0,0,191.418,12.2Zm0-1.987a.632.632,0,1,1-.632.632A.634.634,0,0,1,191.418,10.208Zm0,0a.632.632,0,1,1-.632.632A.634.634,0,0,1,191.418,10.208Zm0,0a.632.632,0,1,1-.632.632A.634.634,0,0,1,191.418,10.208Zm0,0a.632.632,0,1,1-.632.632A.634.634,0,0,1,191.418,10.208Zm0,0a.632.632,0,1,1-.632.632A.634.634,0,0,1,191.418,10.208Zm0,0a.632.632,0,1,1-.632.632A.634.634,0,0,1,191.418,10.208Zm0,0a.632.632,0,1,1-.632.632A.634.634,0,0,1,191.418,10.208Z" transform="translate(-185.999 -0.002)" fill="#2595d3"/>
    </g>
    <g id="Group_3426" data-name="Group 3426" transform="translate(18.064 18.064)">
      <ellipse id="Ellipse_333" data-name="Ellipse 333" cx="0.632" cy="0.632" rx="0.632" ry="0.632" transform="translate(4.787 4.787)" fill="#2595d3"/>
      <path id="Path_4166" data-name="Path 4166" d="M189.612,97.9a12.645,12.645,0,0,1,12.645,12.645v3.613h-3.613A12.644,12.644,0,0,1,186,101.509V97.9Zm7.226,12.194a1.355,1.355,0,1,0-1.355-1.355A1.355,1.355,0,0,0,196.838,110.09Zm-5.419-5.419a1.355,1.355,0,1,0-1.355-1.355A1.355,1.355,0,0,0,191.418,104.67Zm5.419,3.432a.632.632,0,1,1-.632.632A.634.634,0,0,1,196.838,108.1Z" transform="translate(-185.999 -97.896)" fill="#2595d3"/>
    </g>
    <g id="Group_3427" data-name="Group 3427" transform="translate(0 18.064)">
      <ellipse id="Ellipse_334" data-name="Ellipse 334" cx="0.632" cy="0.632" rx="0.632" ry="0.632" transform="translate(10.206 4.787)" fill="#2595d3"/>
      <path id="Path_4167" data-name="Path 4167" d="M289.312,108.1a.632.632,0,1,1-.632.632A.634.634,0,0,1,289.312,108.1Zm0,0a.632.632,0,1,1-.632.632A.634.634,0,0,1,289.312,108.1ZM296.538,97.9h3.613v3.613a12.645,12.645,0,0,1-12.645,12.645h-3.613v-3.613A12.644,12.644,0,0,1,296.538,97.9Zm-1.807,6.774a1.355,1.355,0,1,0-1.355-1.355A1.355,1.355,0,0,0,294.732,104.67Zm-5.419,5.419a1.355,1.355,0,1,0-1.355-1.355A1.355,1.355,0,0,0,289.312,110.09Zm0-1.987a.632.632,0,1,1-.632.632A.634.634,0,0,1,289.312,108.1Zm0,0a.632.632,0,1,1-.632.632A.634.634,0,0,1,289.312,108.1Zm0,0a.632.632,0,1,1-.632.632A.634.634,0,0,1,289.312,108.1Z" transform="translate(-283.893 -97.896)" fill="#2595d3"/>
    </g>
  </g>
  <g id="Group_3433" data-name="Group 3433" transform="translate(34.322 34.323)">
    <g id="Group_3429" data-name="Group 3429" transform="translate(0)">
      <ellipse id="Ellipse_335" data-name="Ellipse 335" cx="0.632" cy="0.632" rx="0.632" ry="0.632" transform="translate(10.206 10.206)" fill="#2595d3"/>
      <path id="Path_4168" data-name="Path 4168" d="M103.313,190.788a.632.632,0,1,1-.632.632A.634.634,0,0,1,103.313,190.788Zm0,0a.632.632,0,1,1-.632.632A.634.634,0,0,1,103.313,190.788Zm0,0a.632.632,0,1,1-.632.632A.634.634,0,0,1,103.313,190.788Zm0,0a.632.632,0,1,1-.632.632A.634.634,0,0,1,103.313,190.788ZM101.507,186a12.645,12.645,0,0,1,12.645,12.645v3.613h-3.613a12.644,12.644,0,0,1-12.645-12.645V186Zm7.226,12.193a1.355,1.355,0,1,0-1.355-1.355A1.355,1.355,0,0,0,108.732,198.194Zm-5.419-5.419a1.355,1.355,0,1,0-1.355-1.355A1.355,1.355,0,0,0,103.313,192.775Zm0-1.987a.632.632,0,1,1-.632.632A.634.634,0,0,1,103.313,190.788Zm0,0a.632.632,0,1,1-.632.632A.634.634,0,0,1,103.313,190.788Zm0,0a.632.632,0,1,1-.632.632A.634.634,0,0,1,103.313,190.788Zm0,0a.632.632,0,1,1-.632.632A.634.634,0,0,1,103.313,190.788Zm0,0a.632.632,0,1,1-.632.632A.634.634,0,0,1,103.313,190.788Z" transform="translate(-97.894 -186.001)" fill="#2595d3"/>
    </g>
    <g id="Group_3430" data-name="Group 3430" transform="translate(18.064)">
      <ellipse id="Ellipse_336" data-name="Ellipse 336" cx="0.632" cy="0.632" rx="0.632" ry="0.632" transform="translate(10.206 4.787)" fill="#2595d3"/>
      <path id="Path_4169" data-name="Path 4169" d="M5.419,196.207a.632.632,0,1,1-.632.632A.634.634,0,0,1,5.419,196.207Zm0,0a.632.632,0,1,1-.632.632A.634.634,0,0,1,5.419,196.207Zm0,0a.632.632,0,1,1-.632.632A.634.634,0,0,1,5.419,196.207Zm0,0a.632.632,0,1,1-.632.632A.634.634,0,0,1,5.419,196.207Zm0,0a.632.632,0,1,1-.632.632A.634.634,0,0,1,5.419,196.207Zm0,0a.632.632,0,1,1-.632.632A.634.634,0,0,1,5.419,196.207ZM12.645,186h3.613v3.613A12.645,12.645,0,0,1,3.613,202.259H0v-3.613A12.644,12.644,0,0,1,12.645,186Zm-1.806,6.774a1.355,1.355,0,1,0-1.355-1.355A1.355,1.355,0,0,0,10.839,192.775Zm-5.419,5.419a1.355,1.355,0,1,0-1.355-1.355A1.355,1.355,0,0,0,5.419,198.194Zm0-1.987a.632.632,0,1,1-.632.632A.634.634,0,0,1,5.419,196.207Zm0,0a.632.632,0,1,1-.632.632A.634.634,0,0,1,5.419,196.207Zm0,0a.632.632,0,1,1-.632.632A.634.634,0,0,1,5.419,196.207Zm0,0a.632.632,0,1,1-.632.632A.634.634,0,0,1,5.419,196.207Zm0,0a.632.632,0,1,1-.632.632A.634.634,0,0,1,5.419,196.207Zm0,0a.632.632,0,1,1-.632.632A.634.634,0,0,1,5.419,196.207Zm0,0a.632.632,0,1,1-.632.632A.634.634,0,0,1,5.419,196.207Z" transform="translate(0 -186.001)" fill="#2595d3"/>
    </g>
    <g id="Group_3431" data-name="Group 3431" transform="translate(18.064 18.064)">
      <ellipse id="Ellipse_337" data-name="Ellipse 337" cx="0.632" cy="0.632" rx="0.632" ry="0.632" transform="translate(4.787 4.787)" fill="#2595d3"/>
      <path id="Path_4170" data-name="Path 4170" d="M3.613,283.895A12.645,12.645,0,0,1,16.258,296.54v3.613H12.645A12.644,12.644,0,0,1,0,287.508v-3.613Zm7.226,12.194a1.355,1.355,0,1,0-1.355-1.355A1.355,1.355,0,0,0,10.839,296.089Zm-5.419-5.419a1.355,1.355,0,1,0-1.355-1.355A1.355,1.355,0,0,0,5.419,290.669Zm5.419,3.432a.632.632,0,1,1-.632.632A.634.634,0,0,1,10.839,294.1Z" transform="translate(0 -283.895)" fill="#2595d3"/>
    </g>
    <g id="Group_3432" data-name="Group 3432" transform="translate(0 18.064)">
      <ellipse id="Ellipse_338" data-name="Ellipse 338" cx="0.632" cy="0.632" rx="0.632" ry="0.632" transform="translate(10.206 4.787)" fill="#2595d3"/>
      <path id="Path_4171" data-name="Path 4171" d="M103.313,294.1a.632.632,0,1,1-.632.632A.634.634,0,0,1,103.313,294.1Zm0,0a.632.632,0,1,1-.632.632A.634.634,0,0,1,103.313,294.1Zm7.226-10.206h3.613v3.613a12.645,12.645,0,0,1-12.645,12.645H97.894V296.54A12.644,12.644,0,0,1,110.539,283.895Zm-1.807,6.774a1.355,1.355,0,1,0-1.355-1.355A1.355,1.355,0,0,0,108.732,290.669Zm-5.419,5.419a1.355,1.355,0,1,0-1.355-1.355A1.355,1.355,0,0,0,103.313,296.089Zm0-1.987a.632.632,0,1,1-.632.632A.634.634,0,0,1,103.313,294.1Zm0,0a.632.632,0,1,1-.632.632A.634.634,0,0,1,103.313,294.1Zm0,0a.632.632,0,1,1-.632.632A.634.634,0,0,1,103.313,294.1Z" transform="translate(-97.894 -283.895)" fill="#2595d3"/>
    </g>
  </g>
</svg>
