<svg xmlns="http://www.w3.org/2000/svg" width="20.954" height="20.954" viewBox="0 0 20.954 20.954">
  <path id="Icon_awesome-headset" data-name="Icon awesome-headset" d="M7.858,8.513A1.31,1.31,0,0,0,6.548,7.2H5.893A2.619,2.619,0,0,0,3.274,9.822v1.964a2.619,2.619,0,0,0,2.619,2.619h.655a1.31,1.31,0,0,0,1.31-1.31Zm7.2,5.893a2.619,2.619,0,0,0,2.619-2.619V9.822A2.619,2.619,0,0,0,15.061,7.2h-.655a1.31,1.31,0,0,0-1.31,1.31V13.1a1.31,1.31,0,0,0,1.31,1.31ZM10.477,0A10.676,10.676,0,0,0,0,10.477v.655a.655.655,0,0,0,.655.655H1.31a.655.655,0,0,0,.655-.655v-.655a8.513,8.513,0,0,1,17.025,0h0c0,.1,0,6.782,0,6.782a1.73,1.73,0,0,1-1.73,1.73H13.1a1.964,1.964,0,0,0-1.964-1.964H9.822a1.964,1.964,0,0,0,0,3.929h7.437a3.7,3.7,0,0,0,3.695-3.695V10.477A10.676,10.676,0,0,0,10.477,0Z" fill="#fff"/>
</svg>
