<svg xmlns="http://www.w3.org/2000/svg" width="29" height="29" viewBox="0 0 29 29">
  <g id="instagram" transform="translate(-186 -442)">
    <circle id="Ellipse_2" data-name="Ellipse 2" cx="14.5" cy="14.5" r="14.5" transform="translate(186 442)" fill="#fff"/>
    <path id="Icon_awesome-instagram" data-name="Icon awesome-instagram" d="M6.442,5.378a3.3,3.3,0,1,0,3.3,3.3A3.3,3.3,0,0,0,6.442,5.378Zm0,5.453A2.149,2.149,0,1,1,8.591,8.683,2.152,2.152,0,0,1,6.442,10.831Zm4.211-5.588a.771.771,0,1,1-.771-.771A.769.769,0,0,1,10.653,5.243Zm2.189.782a3.815,3.815,0,0,0-1.041-2.7A3.84,3.84,0,0,0,9.1,2.283c-1.064-.06-4.254-.06-5.318,0a3.834,3.834,0,0,0-2.7,1.038A3.827,3.827,0,0,0,.04,6.022c-.06,1.064-.06,4.254,0,5.318a3.815,3.815,0,0,0,1.041,2.7,3.845,3.845,0,0,0,2.7,1.041c1.064.06,4.254.06,5.318,0a3.815,3.815,0,0,0,2.7-1.041,3.84,3.84,0,0,0,1.041-2.7c.06-1.064.06-4.251,0-5.315Zm-1.375,6.457a2.175,2.175,0,0,1-1.225,1.225,14.205,14.205,0,0,1-3.8.259,14.316,14.316,0,0,1-3.8-.259,2.175,2.175,0,0,1-1.225-1.225,14.205,14.205,0,0,1-.259-3.8,14.316,14.316,0,0,1,.259-3.8A2.175,2.175,0,0,1,2.643,3.658a14.205,14.205,0,0,1,3.8-.259,14.316,14.316,0,0,1,3.8.259,2.175,2.175,0,0,1,1.225,1.225,14.205,14.205,0,0,1,.259,3.8A14.2,14.2,0,0,1,11.467,12.482Z" transform="translate(194.059 447.817)" fill="#184c98"/>
  </g>
</svg>
