<svg xmlns="http://www.w3.org/2000/svg" width="29" height="29" viewBox="0 0 29 29">
  <g id="linkedin" transform="translate(-186 -442)">
    <circle id="Ellipse_2" data-name="Ellipse 2" cx="14.5" cy="14.5" r="14.5" transform="translate(186 442)" fill="#fff"/>
    <path id="Icon_awesome-linkedin-in" data-name="Icon awesome-linkedin-in" d="M2.985,13.337H.22v-8.9H2.985ZM1.6,3.218A1.609,1.609,0,1,1,3.2,1.6,1.615,1.615,0,0,1,1.6,3.218ZM13.334,13.337H10.575V9c0-1.033-.021-2.358-1.438-2.358-1.438,0-1.658,1.122-1.658,2.283v4.409H4.717v-8.9H7.369V5.648h.039A2.905,2.905,0,0,1,10.024,4.21c2.8,0,3.313,1.843,3.313,4.236v4.891Z" transform="translate(193.832 449.831)" fill="#184c98"/>
  </g>
</svg>
