<svg xmlns="http://www.w3.org/2000/svg" width="29" height="29" viewBox="0 0 29 29">
  <g id="mail" transform="translate(-186 -442)">
    <circle id="Ellipse_2" data-name="Ellipse 2" cx="14.5" cy="14.5" r="14.5" transform="translate(186 442)" fill="#fff"/>
    <path id="Icon_awesome-envelope" data-name="Icon awesome-envelope" d="M15.033,8.295a.18.18,0,0,1,.29.141v6.12a1.437,1.437,0,0,1-1.437,1.437H1.437A1.437,1.437,0,0,1,0,14.556V8.439A.179.179,0,0,1,.29,8.3C.961,8.819,1.85,9.48,4.9,11.7c.631.461,1.7,1.431,2.759,1.425s2.155-.982,2.762-1.425C13.477,9.48,14.363,8.816,15.033,8.295ZM7.662,12.162c.694.012,1.694-.874,2.2-1.239,3.971-2.882,4.274-3.134,5.19-3.852a.716.716,0,0,0,.275-.566V5.937A1.437,1.437,0,0,0,13.887,4.5H1.437A1.437,1.437,0,0,0,0,5.937v.569a.721.721,0,0,0,.275.566c.916.715,1.218.97,5.19,3.852C5.968,11.288,6.967,12.174,7.662,12.162Z" transform="translate(192.838 446.254)" fill="#184c98"/>
  </g>
</svg>
