<svg xmlns="http://www.w3.org/2000/svg" width="75.787" height="75.787" viewBox="0 0 75.787 75.787"><path d="M74.307,0h-59.8a1.48,1.48,0,0,0-1.48,1.48V7.993H7.993a1.48,1.48,0,0,0-1.48,1.48v7.993H1.48A1.48,1.48,0,0,0,0,18.947V67.794a8,8,0,0,0,7.993,7.993h59.8a8,8,0,0,0,7.993-7.993V1.48A1.48,1.48,0,0,0,74.307,0Zm-1.48,67.794a5.038,5.038,0,0,1-5.033,5.033H14.2a7.955,7.955,0,0,0,1.789-5.033V47.811a1.48,1.48,0,0,0-2.96,0V67.794a5.033,5.033,0,0,1-10.065,0V20.427H6.513V66.314a1.48,1.48,0,1,0,2.96,0V10.954h3.553V34.49a1.48,1.48,0,0,0,2.96,0V2.96h56.84Z" fill="#184c98"/><path d="M137.48,79.618h45.591a1.48,1.48,0,0,0,1.48-1.48V67.48a1.48,1.48,0,0,0-1.48-1.48H137.48A1.48,1.48,0,0,0,136,67.48V78.138A1.48,1.48,0,0,0,137.48,79.618Zm1.48-10.658h42.63v7.7H138.96Z" transform="translate(-115.869 -56.231)" fill="#184c98"/><path d="M137.48,217.381h22.8a1.48,1.48,0,0,0,1.48-1.48V187.48a1.48,1.48,0,0,0-1.48-1.48h-22.8a1.48,1.48,0,0,0-1.48,1.48V215.9A1.48,1.48,0,0,0,137.48,217.381Zm1.48-28.42H158.8v25.46H138.96Z" transform="translate(-115.869 -158.468)" fill="#184c98"/><path d="M355.171,186H339.48a1.48,1.48,0,1,0,0,2.96h15.69a1.48,1.48,0,1,0,0-2.96Z" transform="translate(-287.969 -158.468)" fill="#184c98"/><path d="M355.171,234H339.48a1.48,1.48,0,1,0,0,2.96h15.69a1.48,1.48,0,1,0,0-2.96Z" transform="translate(-287.969 -199.363)" fill="#184c98"/><path d="M355.171,282H339.48a1.48,1.48,0,1,0,0,2.96h15.69a1.48,1.48,0,1,0,0-2.96Z" transform="translate(-287.969 -240.258)" fill="#184c98"/><path d="M355.171,330H339.48a1.48,1.48,0,1,0,0,2.96h15.69a1.48,1.48,0,1,0,0-2.96Z" transform="translate(-287.969 -281.153)" fill="#184c98"/><path d="M355.171,378H339.48a1.48,1.48,0,1,0,0,2.96h15.69a1.48,1.48,0,0,0,0-2.96Z" transform="translate(-287.969 -322.048)" fill="#184c98"/><path d="M137.48,428.96h45.591a1.48,1.48,0,1,0,0-2.96H137.48a1.48,1.48,0,0,0,0,2.96Z" transform="translate(-115.869 -362.943)" fill="#184c98"/><path d="M89.98,268a1.481,1.481,0,1,0,1.046.434A1.491,1.491,0,0,0,89.98,268Z" transform="translate(-75.4 -228.33)" fill="#184c98"/></svg>