<svg xmlns="http://www.w3.org/2000/svg" width="29" height="29" viewBox="0 0 29 29">
  <g id="twitter" transform="translate(-186 -442)">
    <circle id="Ellipse_2" data-name="Ellipse 2" cx="14.5" cy="14.5" r="14.5" transform="translate(186 442)" fill="#fff"/>
    <path id="Icon_awesome-twitter" data-name="Icon awesome-twitter" d="M13.161,6.35c.009.13.009.261.009.391a8.495,8.495,0,0,1-8.554,8.554A8.5,8.5,0,0,1,0,13.945a6.219,6.219,0,0,0,.726.037A6.021,6.021,0,0,0,4.458,12.7a3.012,3.012,0,0,1-2.811-2.085,3.791,3.791,0,0,0,.568.047,3.18,3.18,0,0,0,.791-.1A3.007,3.007,0,0,1,.6,7.606V7.569a3.028,3.028,0,0,0,1.359.382A3.011,3.011,0,0,1,1.024,3.93a8.545,8.545,0,0,0,6.2,3.146,3.394,3.394,0,0,1-.074-.689,3.009,3.009,0,0,1,5.2-2.057A5.919,5.919,0,0,0,14.259,3.6a3,3,0,0,1-1.322,1.657A6.027,6.027,0,0,0,14.669,4.8,6.462,6.462,0,0,1,13.161,6.35Z" transform="translate(193.166 447.162)" fill="#184c98"/>
  </g>
</svg>
