<svg xmlns="http://www.w3.org/2000/svg" width="107.34" height="76.35" viewBox="0 0 107.34 76.35"><path d="M103.968,16.7H18.047a7.38,7.38,0,0,0-7.372,7.372V24.3A7.381,7.381,0,0,0,4,31.634V85.681a7.38,7.38,0,0,0,7.372,7.372H97.293a7.381,7.381,0,0,0,7.374-7.372v-.222a7.381,7.381,0,0,0,6.673-7.337V24.075A7.38,7.38,0,0,0,103.968,16.7Zm-2.96,48.587V85.681a3.718,3.718,0,0,1-3.714,3.713H11.372a3.717,3.717,0,0,1-3.713-3.713V31.634a3.716,3.716,0,0,1,3.014-3.642,3.671,3.671,0,0,1,.7-.071H97.293a3.718,3.718,0,0,1,3.714,3.713Zm6.673,12.832a3.716,3.716,0,0,1-3.014,3.642V31.634a7.381,7.381,0,0,0-7.374-7.372H14.333v-.187a3.717,3.717,0,0,1,3.713-3.713h85.921a3.717,3.717,0,0,1,3.713,3.713V78.122Z" transform="translate(-4 -16.703)" fill="#fff"/><path d="M83.21,64.409a9.156,9.156,0,0,0-6.527-6.448,9.457,9.457,0,0,0-.992-.2,9.092,9.092,0,0,0-1.36-.112c-.178,0-.354.017-.529.027a9.1,9.1,0,0,0-4.32,1.366,9.475,9.475,0,0,0-4.85-1.394c-.178,0-.354.017-.531.027a9.214,9.214,0,1,0,5.38,17.019,9.138,9.138,0,0,0,9.744-.026,9.307,9.307,0,0,0,2.12-1.83,9.425,9.425,0,0,0,2.208-5.971c0-.209-.018-.412-.032-.617A9.19,9.19,0,0,0,83.21,64.409ZM66.69,72.023a5.511,5.511,0,0,1-2.059.406A5.546,5.546,0,0,1,64.2,61.35c.143-.011.279-.043.426-.043a5.486,5.486,0,0,1,1.6.263c.152.046.31.083.457.141-.072.106-.133.22-.2.329a9,9,0,0,0-1.343,4.112c-.018.237-.037.473-.037.715A9.178,9.178,0,0,0,66.69,72.023Zm12.955-3.6a5.5,5.5,0,0,1-7.374,3.6,5.5,5.5,0,0,1-1.555-.965,5.558,5.558,0,0,1-1.236-1.525,5.449,5.449,0,0,1-.527-1.319,5.51,5.51,0,0,1-.184-1.347,5.426,5.426,0,0,1,.061-.6,5.5,5.5,0,0,1,.494-1.777c.048-.1.1-.193.156-.288a5.758,5.758,0,0,1,2.646-2.435c.048-.021.1-.035.144-.055a5.515,5.515,0,0,1,1.634-.362c.143-.011.279-.043.426-.043a5.5,5.5,0,0,1,1.6.263c.126.038.254.071.376.117a5.653,5.653,0,0,1,2.835,2.448,5.145,5.145,0,0,1,.256.471,5.514,5.514,0,0,1,.465,2c0,.089.027.174.027.265A5.494,5.494,0,0,1,79.646,68.418Z" transform="translate(7.298 -7.705)" fill="#fff"/><path d="M21.5,48.789h8.784V35.534H12.994V48.789h8.5Zm-4.844-9.595h9.968v5.937H16.653Z" transform="translate(-2.023 -12.564)" fill="#fff"/><path d="M74.026,58.013h9.147v-9.55H12.994v9.55H74.026ZM16.653,52.121H79.514v2.231H16.653Z" transform="translate(-2.023 -9.723)" fill="#fff"/><path d="M14.494,66.671V68.5H26.275V64.841H14.494Z" transform="translate(-1.694 -6.124)" fill="#fff"/><path d="M30.779,66.671V68.5H42.558V64.841H30.779Z" transform="translate(1.885 -6.124)" fill="#fff"/></svg>