<svg xmlns="http://www.w3.org/2000/svg" width="52" height="52" viewBox="0 0 52 52"><g transform="translate(-427 -2953)"><g transform="translate(427 2953)" fill="#fff" stroke="#184c98" stroke-width="2"><circle cx="26" cy="26" r="26" stroke="none"/><circle cx="26" cy="26" r="25" fill="none"/></g><g transform="translate(437.492 2969.006)"><path d="M31.241,16.7H7.828a2.011,2.011,0,0,0-2.009,2.009v.06a2.011,2.011,0,0,0-1.819,2V35.5a2.011,2.011,0,0,0,2.009,2.009H29.422A2.011,2.011,0,0,0,31.431,35.5v-.06a2.011,2.011,0,0,0,1.818-2V18.712A2.011,2.011,0,0,0,31.241,16.7Zm-.807,13.24V35.5a1.013,1.013,0,0,1-1.012,1.012H6.009A1.013,1.013,0,0,1,5,35.5V20.772a1.012,1.012,0,0,1,.821-.993,1,1,0,0,1,.19-.019H29.422a1.013,1.013,0,0,1,1.012,1.012Zm1.818,3.5a1.012,1.012,0,0,1-.821.993V20.772a2.011,2.011,0,0,0-2.009-2.009H6.816v-.051A1.013,1.013,0,0,1,7.827,17.7H31.241a1.013,1.013,0,0,1,1.012,1.012V33.44Z" transform="translate(-4 -16.703)" fill="#184c98"/><path d="M62.985,59.487a2.495,2.495,0,0,0-1.779-1.757,2.577,2.577,0,0,0-.27-.056,2.477,2.477,0,0,0-.371-.031c-.049,0-.1,0-.144.007a2.481,2.481,0,0,0-1.177.372,2.582,2.582,0,0,0-1.322-.38c-.049,0-.1,0-.145.007a2.511,2.511,0,1,0,1.466,4.638,2.49,2.49,0,0,0,2.655-.007,2.536,2.536,0,0,0,.578-.5,2.568,2.568,0,0,0,.6-1.627c0-.057,0-.112-.009-.168A2.5,2.5,0,0,0,62.985,59.487Zm-4.5,2.075a1.5,1.5,0,0,1-.561.111,1.511,1.511,0,0,1-.116-3.019c.039,0,.076-.012.116-.012a1.5,1.5,0,0,1,.437.072c.042.013.084.023.125.039-.02.029-.036.06-.055.09a2.453,2.453,0,0,0-.366,1.12c0,.064-.01.129-.01.195A2.5,2.5,0,0,0,58.484,61.562Zm3.53-.982A1.5,1.5,0,0,1,60,61.562a1.5,1.5,0,0,1-.424-.263,1.515,1.515,0,0,1-.337-.415,1.485,1.485,0,0,1-.144-.359,1.5,1.5,0,0,1-.05-.367,1.479,1.479,0,0,1,.017-.164,1.5,1.5,0,0,1,.135-.484c.013-.027.028-.053.043-.078a1.569,1.569,0,0,1,.721-.663L60,58.752a1.5,1.5,0,0,1,.445-.1c.039,0,.076-.012.116-.012a1.5,1.5,0,0,1,.437.072c.034.01.069.019.1.032a1.54,1.54,0,0,1,.772.667,1.4,1.4,0,0,1,.07.128,1.5,1.5,0,0,1,.127.544c0,.024.007.048.007.072A1.5,1.5,0,0,1,62.014,60.58Z" transform="translate(-38.322 -44.036)" fill="#184c98"/><path d="M15.311,39.146H17.7V35.534H12.994v3.612h2.317Zm-1.32-2.615h2.716v1.618H13.991Z" transform="translate(-10.005 -29.275)" fill="#184c98"/><path d="M29.625,51.065h2.493v-2.6H12.994v2.6H29.625ZM13.991,49.46H31.121v.608H13.991Z" transform="translate(-10.005 -37.906)" fill="#184c98"/><path d="M14.494,65.34v.5H17.7v-1h-3.21Z" transform="translate(-11.006 -48.841)" fill="#184c98"/><path d="M30.779,65.34v.5h3.21v-1h-3.21Z" transform="translate(-21.878 -48.841)" fill="#184c98"/></g></g></svg>