<svg xmlns="http://www.w3.org/2000/svg" width="107.599" height="107.611" viewBox="0 0 107.599 107.611"><g transform="translate(0.134 0.147)"><g transform="translate(0 0)"><path d="M42.257,79.514A23.257,23.257,0,1,0,19,56.257,23.257,23.257,0,0,0,42.257,79.514ZM27.737,69.5A29.106,29.106,0,0,1,32.9,67.946a25.646,25.646,0,0,0,2.717,6.814A19.716,19.716,0,0,1,27.737,69.5ZM42.257,36.578c2.118,0,4.394,3.311,5.8,8.559a48.892,48.892,0,0,1-11.593,0C37.863,39.889,40.139,36.578,42.257,36.578Zm0,39.358c-2.118,0-4.394-3.311-5.8-8.559a48.887,48.887,0,0,1,11.593,0C46.651,72.624,44.375,75.936,42.257,75.936Zm7.118-17.89a45.615,45.615,0,0,1-.572,5.821,52.385,52.385,0,0,0-13.092,0,45.618,45.618,0,0,1-.572-5.821ZM35.138,54.468a45.645,45.645,0,0,1,.572-5.821,47.376,47.376,0,0,0,13.092,0,45.645,45.645,0,0,1,.572,5.821Zm17.813,3.578h8.893a19.5,19.5,0,0,1-2.862,8.53,31.283,31.283,0,0,0-6.639-2.132,49.434,49.434,0,0,0,.608-6.4Zm0-3.578a49.432,49.432,0,0,0-.608-6.4,31.284,31.284,0,0,0,6.639-2.132,19.5,19.5,0,0,1,2.862,8.53Zm-21.389,0H22.669a19.5,19.5,0,0,1,2.862-8.53,31.284,31.284,0,0,0,6.639,2.132,49.438,49.438,0,0,0-.608,6.4Zm0,3.578a49.438,49.438,0,0,0,.608,6.4,31.283,31.283,0,0,0-6.639,2.132,19.5,19.5,0,0,1-2.862-8.53ZM48.9,74.757a25.647,25.647,0,0,0,2.717-6.814,29.1,29.1,0,0,1,5.158,1.549A19.717,19.717,0,0,1,48.9,74.757Zm7.872-31.735a29.107,29.107,0,0,1-5.158,1.549A25.646,25.646,0,0,0,48.9,37.757a19.716,19.716,0,0,1,7.879,5.261ZM35.609,37.757a25.646,25.646,0,0,0-2.717,6.814,29.1,29.1,0,0,1-5.158-1.549,19.716,19.716,0,0,1,7.879-5.265Z" transform="translate(11.413 22.458)" fill="#fff" stroke="#fff" stroke-width="0.25"/><rect width="4.112" height="2.056" transform="translate(22.618 45.235)" fill="#fff" stroke="#fff" stroke-width="0.25"/><rect width="4.112" height="2.056" transform="translate(30.843 45.235)" fill="#fff" stroke="#fff" stroke-width="0.25"/><rect width="4.112" height="2.056" transform="translate(37.011 45.235)" fill="#fff" stroke="#fff" stroke-width="0.25"/><path d="M109.34,55.67a21.5,21.5,0,0,0-19.8-21.4,12.455,12.455,0,0,0-9.052-10.335,25.023,25.023,0,0,0-46.507-9.408A21.378,21.378,0,0,0,12.827,34.25,23.226,23.226,0,0,0,18.1,76v27.976a5.367,5.367,0,0,0,5.367,5.367h64.4a5.367,5.367,0,0,0,5.367-5.367V76.449A21.446,21.446,0,0,0,109.34,55.67Zm-19.679,48.3a1.789,1.789,0,0,1-1.789,1.789h-64.4a1.789,1.789,0,0,1-1.789-1.789V55.67H89.661Zm0-51.881H21.679V46.725a1.789,1.789,0,0,1,1.789-1.789h64.4a1.789,1.789,0,0,1,1.789,1.789Zm3.578,20.636v-26a5.367,5.367,0,0,0-5.367-5.367h-64.4A5.367,5.367,0,0,0,18.1,46.725V72.2a19.65,19.65,0,0,1-2.648-35.358,1.789,1.789,0,0,0,.895-1.485A17.818,17.818,0,0,1,34.2,18.1a2.189,2.189,0,0,1,.308.014,2.086,2.086,0,0,0,2.1-.943,21.445,21.445,0,0,1,40.431,8.351,1.789,1.789,0,0,0,1.5,1.642,8.906,8.906,0,0,1,7.539,8.825,1.789,1.789,0,0,0,1.789,1.789,17.89,17.89,0,0,1,5.367,34.948Z" transform="translate(-2 -2)" fill="#fff" stroke="#fff" stroke-width="0.25"/></g></g></svg>