<svg xmlns="http://www.w3.org/2000/svg" width="52" height="52" viewBox="0 0 52 52"><g transform="translate(0.099 -0.243)"><g transform="translate(-0.099 0.243)" fill="#fff" stroke="#184c98" stroke-width="2"><circle cx="26" cy="26" r="26" stroke="none"/><circle cx="26" cy="26" r="25" fill="none"/></g><g transform="translate(12.681 12.681)"><g transform="translate(0 0)"><path d="M24.773,44.546A5.773,5.773,0,1,0,19,38.773a5.773,5.773,0,0,0,5.773,5.773Zm-3.6-2.487a7.224,7.224,0,0,1,1.28-.385,6.366,6.366,0,0,0,.675,1.691A4.894,4.894,0,0,1,21.169,42.059Zm3.6-8.171c.526,0,1.091.822,1.439,2.124a12.136,12.136,0,0,1-2.878,0C23.682,34.71,24.247,33.888,24.773,33.888Zm0,9.769c-.526,0-1.091-.822-1.439-2.124a12.135,12.135,0,0,1,2.878,0C25.863,42.836,25.3,43.658,24.773,43.658Zm1.767-4.441a11.323,11.323,0,0,1-.142,1.445,13,13,0,0,0-3.25,0,11.323,11.323,0,0,1-.142-1.445Zm-3.534-.888a11.33,11.33,0,0,1,.142-1.445,11.76,11.76,0,0,0,3.25,0,11.33,11.33,0,0,1,.142,1.445Zm4.422.888h2.207a4.84,4.84,0,0,1-.711,2.117,7.765,7.765,0,0,0-1.648-.529,12.271,12.271,0,0,0,.151-1.588Zm0-.888a12.27,12.27,0,0,0-.151-1.588,7.765,7.765,0,0,0,1.648-.529,4.84,4.84,0,0,1,.711,2.117Zm-5.309,0H19.911a4.84,4.84,0,0,1,.711-2.117,7.765,7.765,0,0,0,1.648.529,12.272,12.272,0,0,0-.151,1.588Zm0,.888a12.272,12.272,0,0,0,.151,1.588,7.765,7.765,0,0,0-1.648.529,4.84,4.84,0,0,1-.711-2.117Zm4.3,4.148a6.366,6.366,0,0,0,.675-1.691,7.224,7.224,0,0,1,1.28.385A4.894,4.894,0,0,1,26.422,43.365Zm1.954-7.877a7.225,7.225,0,0,1-1.28.385,6.366,6.366,0,0,0-.675-1.691,4.894,4.894,0,0,1,1.956,1.306Zm-5.253-1.307a6.366,6.366,0,0,0-.675,1.691,7.225,7.225,0,0,1-1.28-.385,4.894,4.894,0,0,1,1.956-1.307Z" transform="translate(-11.451 -19.234)" fill="#184c98" stroke="#184c98" stroke-width="0.25"/><rect width="1.021" height="0.51" transform="translate(5.614 11.228)" fill="#184c98" stroke="#184c98" stroke-width="0.25"/><rect width="1.021" height="0.51" transform="translate(7.656 11.228)" fill="#184c98" stroke="#184c98" stroke-width="0.25"/><rect width="1.021" height="0.51" transform="translate(9.187 11.228)" fill="#184c98" stroke="#184c98" stroke-width="0.25"/><path d="M28.644,15.322a5.336,5.336,0,0,0-4.914-5.313,3.092,3.092,0,0,0-2.247-2.565A6.211,6.211,0,0,0,9.939,5.109a5.307,5.307,0,0,0-5.252,4.9A5.765,5.765,0,0,0,6,20.367v6.944a1.332,1.332,0,0,0,1.332,1.332H23.315a1.332,1.332,0,0,0,1.332-1.332V20.48A5.323,5.323,0,0,0,28.644,15.322Zm-4.885,11.99a.444.444,0,0,1-.444.444H7.329a.444.444,0,0,1-.444-.444V15.322H23.759Zm0-12.878H6.885V13.1a.444.444,0,0,1,.444-.444H23.315a.444.444,0,0,1,.444.444Zm.888,5.122V13.1a1.332,1.332,0,0,0-1.332-1.332H7.329A1.332,1.332,0,0,0,6,13.1v6.323a4.878,4.878,0,0,1-.657-8.776.444.444,0,0,0,.222-.369A4.423,4.423,0,0,1,9.993,6a.543.543,0,0,1,.076,0,.518.518,0,0,0,.522-.234A5.323,5.323,0,0,1,20.627,7.839.444.444,0,0,0,21,8.247a2.211,2.211,0,0,1,1.871,2.191.444.444,0,0,0,.444.444,4.441,4.441,0,0,1,1.332,8.675Z" transform="translate(-2 -2)" fill="#184c98" stroke="#184c98" stroke-width="0.25"/></g></g></g></svg>