<svg xmlns="http://www.w3.org/2000/svg" width="110.607" height="110.583" viewBox="0 0 110.607 110.583"><g transform="translate(0.188 0.125)"><path d="M19.664,1022.4a1.909,1.909,0,0,0-1.184.431l-4.968,3.938a1.969,1.969,0,1,0,2.445,3.083l1.776-1.407v84.506H8.1l1.323-1.638a1.969,1.969,0,0,0-1.584-3.23,1.894,1.894,0,0,0-1.476.754l-3.922,4.86a1.969,1.969,0,0,0-.015,2.453l3.922,4.968a1.969,1.969,0,1,0,3.091-2.438l-1.415-1.791h9.712v9.735l-1.776-1.407a1.968,1.968,0,1,0-2.445,3.083l4.968,3.938a1.97,1.97,0,0,0,2.461,0l4.86-3.937a1.969,1.969,0,1,0-2.484-3.053l-1.646,1.331V1116.9h84.482l-1.423,1.769a1.969,1.969,0,1,0,3.068,2.469l3.991-4.968a1.969,1.969,0,0,0-.008-2.484l-4-4.86a1.969,1.969,0,1,0-3.038,2.507l1.346,1.63H21.673v-84.443l1.646,1.331A1.969,1.969,0,1,0,25.8,1026.8l-4.86-3.937a1.966,1.966,0,0,0-1.277-.446Zm63.028,3.938a1.969,1.969,0,0,0-1.969,1.969v7.875a1.969,1.969,0,0,0,1.969,1.969h7.875a1.969,1.969,0,0,0,1.969-1.969v-7.875a1.969,1.969,0,0,0-1.969-1.969Zm15.58,0a1.971,1.971,0,0,0,.2,3.937h9.82a1.969,1.969,0,1,0,0-3.937h-9.82A1.821,1.821,0,0,0,98.272,1026.338Zm-13.611,3.937H88.6v3.937H84.661Zm13.611,3.937a1.971,1.971,0,0,0,.2,3.938h3.937a1.969,1.969,0,1,0,0-3.937H98.472Q98.372,1034.207,98.272,1034.212Zm-15.58,7.875a1.968,1.968,0,0,0-1.969,1.968v7.875a1.969,1.969,0,0,0,1.969,1.969h7.875a1.969,1.969,0,0,0,1.969-1.969v-7.875a1.968,1.968,0,0,0-1.969-1.968Zm15.58,0a1.971,1.971,0,0,0,.2,3.937h9.82a1.969,1.969,0,1,0,0-3.937h-9.82A1.821,1.821,0,0,0,98.272,1042.087Zm-13.611,3.937H88.6v3.937H84.661Zm13.611,3.937a1.971,1.971,0,0,0,.2,3.937h3.937a1.969,1.969,0,1,0,0-3.937H98.472A1.951,1.951,0,0,0,98.272,1049.961ZM65.328,1063.6a5.936,5.936,0,0,0-5.906,5.906,5.807,5.807,0,0,0,.4,2.069l-12.55,11.8-4.483-2.815a5.782,5.782,0,0,0,.208-1.461A5.906,5.906,0,1,0,37.09,1085a5.84,5.84,0,0,0,3.5-1.184l3.722,2.33-10.3,9.681a5.813,5.813,0,0,0-2.5-.584,5.906,5.906,0,1,0,5.906,5.906,5.807,5.807,0,0,0-.608-2.545l10.95-10.3,7.49,4.7a5.815,5.815,0,0,0-.154,1.285,5.906,5.906,0,1,0,11.812,0,5.782,5.782,0,0,0-.254-1.615l15.019-12.4,11.489,6.152a5.758,5.758,0,0,0-.085.784,5.906,5.906,0,1,0,5.906-5.906,5.863,5.863,0,0,0-4.022,1.623l-10.012-5.361,2.138-1.761a5.818,5.818,0,0,0,3,.854,5.906,5.906,0,1,0-5.906-5.906,5.8,5.8,0,0,0,.392,2.037l-3.307,2.722-10.089-5.444a5.608,5.608,0,0,0,.062-.569,5.936,5.936,0,0,0-5.906-5.906Zm0,3.938a1.969,1.969,0,1,1-1.969,1.969A1.94,1.94,0,0,1,65.328,1067.533Zm24.754,1.253a1.969,1.969,0,1,1-1.969,1.969A1.939,1.939,0,0,1,90.082,1068.786Zm-20.563,4.86,8.467,4.575-13.619,11.243a5.753,5.753,0,0,0-7.013.223l-6.636-4.16,11.65-10.958a5.808,5.808,0,0,0,2.961.838,5.894,5.894,0,0,0,4.191-1.761Zm-32.429,3.476a1.969,1.969,0,1,1-1.969,1.969A1.939,1.939,0,0,1,37.09,1077.122Zm61.89,8.121a1.969,1.969,0,1,1-1.969,1.968A1.939,1.939,0,0,1,98.98,1085.243ZM61,1092.317a1.969,1.969,0,1,1-1.969,1.969A1.94,1.94,0,0,1,61,1092.317Zm-29.491,6.86a1.969,1.969,0,1,1-1.969,1.969A1.94,1.94,0,0,1,31.509,1099.177Z" transform="translate(-2.002 -1022.4)" fill="#fff" stroke="#fff" stroke-width="0.25"/></g></svg>