<svg xmlns="http://www.w3.org/2000/svg" width="52" height="52" viewBox="0 0 52 52"><g transform="translate(0.099 0.405)"><g transform="translate(-0.099 -0.405)" fill="#fff" stroke="#184c98" stroke-width="2"><circle cx="26" cy="26" r="26" stroke="none"/><circle cx="26" cy="26" r="25" fill="none"/></g><g transform="translate(12.688 12.684)"><path d="M6.269,1022.4a.46.46,0,0,0-.286.1l-1.2.951a.476.476,0,1,0,.591.745l.429-.34v20.416H3.475l.32-.4a.476.476,0,0,0-.383-.78.457.457,0,0,0-.357.182l-.947,1.174a.475.475,0,0,0,0,.593l.947,1.2a.476.476,0,1,0,.747-.589l-.342-.433H5.8v2.352l-.429-.34a.475.475,0,1,0-.591.745l1.2.951a.475.475,0,0,0,.595,0l1.174-.951a.476.476,0,1,0-.6-.738l-.4.321v-2.337h20.41l-.344.427a.476.476,0,1,0,.741.6l.964-1.2a.476.476,0,0,0,0-.6l-.966-1.174a.476.476,0,1,0-.734.606l.325.394H6.755v-20.4l.4.322a.476.476,0,1,0,.6-.738l-1.174-.951a.475.475,0,0,0-.308-.108Zm15.227.951a.476.476,0,0,0-.476.476v1.9a.476.476,0,0,0,.476.476h1.9a.476.476,0,0,0,.476-.476v-1.9a.476.476,0,0,0-.476-.476Zm3.764,0a.476.476,0,0,0,.048.951h2.372a.476.476,0,1,0,0-.951H25.26Zm-3.288.951h.951v.951h-.951Zm3.288.951a.476.476,0,0,0,.048.951h.951a.476.476,0,1,0,0-.951h-1Zm-3.764,1.9a.476.476,0,0,0-.476.475v1.9a.476.476,0,0,0,.476.476h1.9a.476.476,0,0,0,.476-.476v-1.9a.476.476,0,0,0-.476-.475Zm3.764,0a.476.476,0,0,0,.048.951h2.372a.476.476,0,1,0,0-.951H25.26Zm-3.288.951h.951v.951h-.951Zm3.288.951a.476.476,0,0,0,.048.951h.951a.476.476,0,1,0,0-.951h-1Zm-7.959,3.294a1.434,1.434,0,0,0-1.427,1.427,1.4,1.4,0,0,0,.1.5l-3.032,2.85-1.083-.68a1.4,1.4,0,0,0,.05-.353,1.427,1.427,0,1,0-1.427,1.427,1.411,1.411,0,0,0,.845-.286l.9.563-2.49,2.339a1.405,1.405,0,0,0-.6-.141,1.427,1.427,0,1,0,1.427,1.427,1.4,1.4,0,0,0-.147-.615l2.646-2.488,1.809,1.135a1.4,1.4,0,0,0-.037.31,1.427,1.427,0,1,0,2.854,0,1.4,1.4,0,0,0-.061-.39l3.628-2.995,2.776,1.486a1.393,1.393,0,0,0-.02.19,1.427,1.427,0,1,0,1.427-1.427,1.417,1.417,0,0,0-.972.392l-2.419-1.3.516-.425a1.406,1.406,0,0,0,.725.206,1.427,1.427,0,1,0-1.427-1.427,1.4,1.4,0,0,0,.095.492l-.8.658-2.437-1.315a1.353,1.353,0,0,0,.015-.137,1.434,1.434,0,0,0-1.427-1.427Zm0,.951a.476.476,0,1,1-.476.475A.469.469,0,0,1,17.3,1033.3Zm5.98.3a.476.476,0,1,1-.476.476A.469.469,0,0,1,23.282,1033.607Zm-4.968,1.174,2.045,1.105-3.29,2.716a1.39,1.39,0,0,0-1.694.054l-1.6-1.005L16.586,1035a1.4,1.4,0,0,0,.715.2,1.424,1.424,0,0,0,1.013-.425Zm-7.834.84a.476.476,0,1,1-.476.476A.469.469,0,0,1,10.479,1035.62Zm14.952,1.962a.476.476,0,1,1-.476.476A.469.469,0,0,1,25.431,1037.582Zm-9.176,1.709a.476.476,0,1,1-.476.476A.469.469,0,0,1,16.256,1039.291Zm-7.125,1.657a.476.476,0,1,1-.476.476A.469.469,0,0,1,9.131,1040.949Z" transform="translate(-2.002 -1022.4)" fill="#184c98" stroke="#184c98" stroke-width="0.25"/></g></g></svg>