<svg xmlns="http://www.w3.org/2000/svg" width="107.34" height="104.751" viewBox="0 0 107.34 104.751"><path d="M20.526,85.038A2.533,2.533,0,0,1,18,82.513V34.526a2.526,2.526,0,0,1,5.051,0V82.513A2.533,2.533,0,0,1,20.526,85.038Z" transform="translate(-5.372 -0.493)" fill="#fff"/><path d="M30.526,85.038A2.533,2.533,0,0,1,28,82.513V34.526a2.526,2.526,0,0,1,5.051,0V82.513A2.533,2.533,0,0,1,30.526,85.038Z" transform="translate(-2.744 -0.493)" fill="#fff"/><path d="M40.526,85.038A2.533,2.533,0,0,1,38,82.513V34.526a2.526,2.526,0,0,1,5.051,0V82.513A2.533,2.533,0,0,1,40.526,85.038Z" transform="translate(-0.115 -0.493)" fill="#fff"/><path d="M50.526,85.038A2.533,2.533,0,0,1,48,82.513V34.526a2.526,2.526,0,0,1,5.051,0V82.513A2.533,2.533,0,0,1,50.526,85.038Z" transform="translate(2.513 -0.493)" fill="#fff"/><path d="M60.526,85.038A2.533,2.533,0,0,1,58,82.513V34.526a2.526,2.526,0,0,1,5.051,0V82.513A2.533,2.533,0,0,1,60.526,85.038Z" transform="translate(5.141 -0.493)" fill="#fff"/><path d="M70.526,85.038A2.533,2.533,0,0,1,68,82.513V34.526a2.526,2.526,0,1,1,5.051,0V82.513A2.533,2.533,0,0,1,70.526,85.038Z" transform="translate(7.769 -0.493)" fill="#fff"/><path d="M80.526,85.038A2.533,2.533,0,0,1,78,82.513V34.526a2.526,2.526,0,1,1,5.051,0V82.513A2.533,2.533,0,0,1,80.526,85.038Z" transform="translate(10.397 -0.493)" fill="#fff"/><path d="M108.5,43.609H12.526A2.533,2.533,0,0,1,10,41.083V31.738a2.5,2.5,0,0,1,1.515-2.273L59.5,7.239a3.13,3.13,0,0,1,2.147,0l47.987,22.226a2.5,2.5,0,0,1,1.515,2.273v9.345A2.734,2.734,0,0,1,108.5,43.609ZM15.051,38.557h90.923V33.38L60.513,12.291,15.051,33.38Z" transform="translate(-7.474 -7.05)" fill="#fff"/><path d="M112.814,91.051H10.526a2.526,2.526,0,1,1,0-5.051H112.814a2.526,2.526,0,1,1,0,5.051Z" transform="translate(-8 13.7)" fill="#fff"/><path d="M106.712,83.051H14.526a2.526,2.526,0,1,1,0-5.051h92.186a2.526,2.526,0,1,1,0,5.051Z" transform="translate(-6.949 11.597)" fill="#fff"/></svg>