<svg xmlns="http://www.w3.org/2000/svg" width="52" height="52" viewBox="0 0 52 52"><g transform="translate(-0.08 0.405)"><g transform="translate(0.08 -0.405)" fill="#fff" stroke="#184c98" stroke-width="2"><circle cx="26" cy="26" r="26" stroke="none"/><circle cx="26" cy="26" r="25" fill="none"/></g><g transform="translate(12.633 12.955)"><path d="M18.629,45.213A.631.631,0,0,1,18,44.584V32.629a.629.629,0,0,1,1.258,0V44.584A.631.631,0,0,1,18.629,45.213Z" transform="translate(-14.854 -24.151)" fill="#184c98"/><path d="M28.629,45.213A.631.631,0,0,1,28,44.584V32.629a.629.629,0,0,1,1.258,0V44.584A.631.631,0,0,1,28.629,45.213Z" transform="translate(-21.708 -24.151)" fill="#184c98"/><path d="M38.629,45.213A.631.631,0,0,1,38,44.584V32.629a.629.629,0,0,1,1.258,0V44.584A.631.631,0,0,1,38.629,45.213Z" transform="translate(-28.562 -24.151)" fill="#184c98"/><path d="M48.629,45.213A.631.631,0,0,1,48,44.584V32.629a.629.629,0,0,1,1.258,0V44.584A.631.631,0,0,1,48.629,45.213Z" transform="translate(-35.416 -24.151)" fill="#184c98"/><path d="M58.629,45.213A.631.631,0,0,1,58,44.584V32.629a.629.629,0,0,1,1.258,0V44.584A.631.631,0,0,1,58.629,45.213Z" transform="translate(-42.27 -24.151)" fill="#184c98"/><path d="M68.629,45.213A.631.631,0,0,1,68,44.584V32.629a.629.629,0,0,1,1.258,0V44.584A.631.631,0,0,1,68.629,45.213Z" transform="translate(-49.124 -24.151)" fill="#184c98"/><path d="M78.629,45.213A.631.631,0,0,1,78,44.584V32.629a.629.629,0,1,1,1.258,0V44.584A.631.631,0,0,1,78.629,45.213Z" transform="translate(-55.978 -24.151)" fill="#184c98"/><path d="M34.539,16.158H10.629A.631.631,0,0,1,10,15.528V13.2a.621.621,0,0,1,.378-.566L22.332,7.1a.78.78,0,0,1,.535,0l11.955,5.537a.621.621,0,0,1,.378.566v2.328A.681.681,0,0,1,34.539,16.158ZM11.258,14.9H33.91v-1.29L22.584,8.356,11.258,13.609Z" transform="translate(-9.371 -7.05)" fill="#184c98"/><path d="M34.112,87.258H8.629a.629.629,0,1,1,0-1.258H34.112a.629.629,0,1,1,0,1.258Z" transform="translate(-8 -61.162)" fill="#184c98"/><path d="M35.6,79.258H12.629a.629.629,0,1,1,0-1.258H35.6a.629.629,0,1,1,0,1.258Z" transform="translate(-10.742 -55.679)" fill="#184c98"/></g></g></svg>