<svg xmlns="http://www.w3.org/2000/svg" width="52" height="52" viewBox="0 0 52 52"><g transform="translate(-0.498 0.107)"><g transform="translate(0.498 -0.107)" fill="#fff" stroke="#184c98" stroke-width="2"><circle cx="26" cy="26" r="26" stroke="none"/><circle cx="26" cy="26" r="25" fill="none"/></g><g transform="translate(12.912 14.753)"><g transform="translate(0 0)"><path d="M25.772,4H.409A.409.409,0,0,0,0,4.409V26.09a.409.409,0,0,0,.409.409H25.772a.409.409,0,0,0,.409-.409V4.409A.409.409,0,0,0,25.772,4ZM.818,4.818H25.363V7.273H.818Zm0,20.863V8.091H25.363V25.681Z" transform="translate(0 -4)" fill="#184c98" stroke="#184c98" stroke-width="0.25"/><rect width="2.629" height="1.051" transform="translate(21.029 1.577)" fill="#184c98" stroke="#184c98" stroke-width="0.25"/><rect width="0.526" height="1.051" transform="translate(2.629 1.577)" fill="#184c98" stroke="#184c98" stroke-width="0.25"/><rect width="0.526" height="1.051" transform="translate(4.206 1.577)" fill="#184c98" stroke="#184c98" stroke-width="0.25"/><rect width="0.526" height="1.051" transform="translate(5.783 1.577)" fill="#184c98" stroke="#184c98" stroke-width="0.25"/><path d="M51.227,31A1.229,1.229,0,0,0,50,32.227v1.227a1.227,1.227,0,1,0,2.454,0V32.227A1.229,1.229,0,0,0,51.227,31Zm.409,2.454a.409.409,0,1,1-.818,0V32.227a.409.409,0,0,1,.818,0Z" transform="translate(-29.546 -19.955)" fill="#184c98" stroke="#184c98" stroke-width="0.25"/><path d="M23.067,22.8l.157-.054a.409.409,0,0,0,.275-.387v-.369l3.682-1.674v1.41H28V19.682h0s0-.009,0-.013a.409.409,0,0,0-.263-.369l-8.591-3.273a.406.406,0,0,0-.291,0L10.263,19.3a.409.409,0,0,0-.024.754l4.26,1.937v.369a.409.409,0,0,0,.275.387h0l-.32,1.118a4.48,4.48,0,0,0,1.564,4.791l.953.741a.405.405,0,0,0-.02.1v1.636a.409.409,0,0,0,.409.409h.409v.409h.818v-.409h.818v.409h.818v-.409h.409a.409.409,0,0,0,.409-.409V29.5a.405.405,0,0,0-.02-.1l.854-.664a4.508,4.508,0,0,0,1.508-4.97Zm-7.749-.733V19.986l1.213-.364a8.582,8.582,0,0,1,1.841-.34c.056,0,.112,0,.168-.007l.052,0,0,2.863h.818l0-2.863a8.6,8.6,0,0,1,2.027.342l1.244.371v2.081L19,23.34Zm-3.847-2.353L19,16.847l7.529,2.868L23.5,21.092v-1.41a.405.405,0,0,0-.021-.13c0-.011-.011-.02-.016-.03a.419.419,0,0,0-.044-.084l-.007-.007a.407.407,0,0,0-.2-.14l-1.5-.452a9.433,9.433,0,0,0-2.052-.374c-.047,0-.094,0-.141-.005-.17-.009-.34-.019-.511-.019h-.017c-.188,0-.376.009-.563.02-.035,0-.07,0-.105,0a9.417,9.417,0,0,0-2.052.379l-1.409.426-.063.019a.411.411,0,0,0-.27.262.416.416,0,0,0-.021.131v1.41Zm8.756,11.012H17.772v-.818h2.454Zm1.149-2.639-1.289,1h-.678V26.636h1.227a.409.409,0,0,0,.409-.409V25h-.818v.818h-.818V25H18.59v.818h-.818V25h-.818v1.227a.409.409,0,0,0,.409.409H18.59v2.454h-.678l-1.389-1.08a3.665,3.665,0,0,1-1.279-3.92l.308-1.076,3.313,1.144a.409.409,0,0,0,.268,0l3.16-1.091.317.954A3.689,3.689,0,0,1,21.376,28.088Z" transform="translate(-5.909 -11.091)" fill="#184c98" stroke="#184c98" stroke-width="0.25"/></g></g></g></svg>