<svg xmlns="http://www.w3.org/2000/svg" width="108.59" height="93.495" viewBox="0 0 108.59 93.495"><g transform="translate(0.625 0.625)"><g transform="translate(0 0)"><path d="M105.663,4H1.677A1.677,1.677,0,0,0,0,5.677V94.568a1.677,1.677,0,0,0,1.677,1.677H105.663a1.677,1.677,0,0,0,1.677-1.677V5.677A1.677,1.677,0,0,0,105.663,4ZM3.354,7.354H103.985V17.417H3.354Zm0,85.536V20.772H103.985V92.891Z" transform="translate(0 -4)" fill="#fff" stroke="#fff" stroke-width="1.25"/><rect width="10.777" height="4.311" transform="translate(86.217 6.466)" fill="#fff" stroke="#fff" stroke-width="1.25"/><rect width="2.155" height="4.311" transform="translate(10.777 6.466)" fill="#fff" stroke="#fff" stroke-width="1.25"/><rect width="2.155" height="4.311" transform="translate(17.243 6.466)" fill="#fff" stroke="#fff" stroke-width="1.25"/><rect width="2.155" height="4.311" transform="translate(23.71 6.466)" fill="#fff" stroke="#fff" stroke-width="1.25"/><path d="M55.032,31A5.038,5.038,0,0,0,50,36.032v5.032a5.032,5.032,0,0,0,10.063,0V36.032A5.038,5.038,0,0,0,55.032,31Zm1.677,10.063a1.677,1.677,0,1,1-3.354,0V36.032a1.677,1.677,0,1,1,3.354,0Z" transform="translate(33.859 14.284)" fill="#fff" stroke="#fff" stroke-width="1.25"/><path d="M63.573,43.882l.646-.223a1.677,1.677,0,0,0,1.129-1.585V40.561L80.442,33.7v5.781H83.8V31.095H83.79c0-.018.007-.035.007-.052a1.678,1.678,0,0,0-1.08-1.514L47.5,16.111a1.666,1.666,0,0,0-1.194,0L11.08,29.528a1.676,1.676,0,0,0-.1,3.093l17.466,7.94v1.513a1.677,1.677,0,0,0,1.129,1.585l.013.005-1.313,4.584a18.366,18.366,0,0,0,6.41,19.642L38.6,70.928a1.661,1.661,0,0,0-.084.419v6.709a1.677,1.677,0,0,0,1.677,1.677h1.677V81.41h3.354V79.733h3.354V81.41H51.93V79.733h1.677a1.677,1.677,0,0,0,1.677-1.677V71.347a1.662,1.662,0,0,0-.084-.419l3.5-2.722a18.481,18.481,0,0,0,6.184-20.374Zm-31.769-3V32.342l4.975-1.493a35.185,35.185,0,0,1,7.547-1.4c.23-.017.458-.015.688-.027l.215-.008-.007,11.737,3.354,0,.007-11.737a35.268,35.268,0,0,1,8.309,1.4l5.1,1.52v8.532L46.9,46.092ZM16.032,31.231,46.9,19.472,77.765,31.231,65.347,36.876V31.095a1.661,1.661,0,0,0-.087-.533c-.015-.045-.047-.082-.065-.124a1.717,1.717,0,0,0-.179-.344c-.008-.012-.022-.018-.03-.03a1.669,1.669,0,0,0-.832-.575l-6.169-1.852A38.672,38.672,0,0,0,49.572,26.1c-.193-.013-.386-.01-.579-.022C48.3,26.041,47.6,26,46.9,26l-.069,0c-.77,0-1.54.037-2.309.084-.144.008-.287.007-.431.017a38.61,38.61,0,0,0-8.413,1.555L29.9,29.407l-.257.077a1.684,1.684,0,0,0-1.109,1.073,1.705,1.705,0,0,0-.087.537v5.781Zm35.9,45.148H41.867V73.024H51.93Zm4.711-10.82L51.355,69.67H48.576V59.607h5.032a1.677,1.677,0,0,0,1.677-1.677V52.9H51.93v3.354H48.576V52.9H45.221v3.354H41.867V52.9H38.513V57.93a1.677,1.677,0,0,0,1.677,1.677h5.032V69.67H42.442l-5.694-4.428a15.024,15.024,0,0,1-5.243-16.071l1.263-4.411L46.35,49.451a1.677,1.677,0,0,0,1.1,0L60.4,44.977l1.3,3.911A15.124,15.124,0,0,1,56.641,65.559Z" transform="translate(6.771 4.126)" fill="#fff" stroke="#fff" stroke-width="1.25"/></g></g></svg>