<svg xmlns="http://www.w3.org/2000/svg" width="52" height="52" viewBox="0 0 52 52"><g transform="translate(0.323 0.107)"><g transform="translate(-0.323 -0.107)" fill="#fff" stroke="#184c98" stroke-width="2"><circle cx="26" cy="26" r="26" stroke="none"/><circle cx="26" cy="26" r="25" fill="none"/></g><g transform="translate(12.361 13.165)"><path d="M65.893,35.086a1.843,1.843,0,0,0-2.522.545L61.364,38.64a1.666,1.666,0,0,0-1.347.373L56,42.509a3.3,3.3,0,0,0-1.06,1.949l-.545,3.7V51.68a.605.605,0,0,0,.6.6h4.9a.605.605,0,0,0,.6-.6V48.642l2.923-2.264a5.516,5.516,0,0,0,1.978-3.124l1.347-6.191A1.967,1.967,0,0,0,65.893,35.086ZM59.272,51.107H55.546V48.929h3.726Zm6.277-14.33L64.2,42.968a4.35,4.35,0,0,1-1.548,2.465l-2.981,2.321H55.632l.459-3.1a2.05,2.05,0,0,1,.688-1.232L60.82,39.9a.462.462,0,0,1,.688.6l-.717,1.146a6.581,6.581,0,0,1-1,1.2L58.67,43.885a.588.588,0,1,0,.8.86l1.118-1.032a8.186,8.186,0,0,0,1.2-1.433l.717-1.146a1.636,1.636,0,0,0-.115-1.892l1.949-2.952a.655.655,0,0,1,.917-.2A.615.615,0,0,1,65.549,36.777Z" transform="translate(-39.491 -26.001)" fill="#184c98"/><path d="M14.223,44.518a3.218,3.218,0,0,0-1.06-1.949L9.122,39.044a1.639,1.639,0,0,0-1.347-.373L5.769,35.662a1.851,1.851,0,0,0-3.353,1.4l1.347,6.191A5.372,5.372,0,0,0,5.74,46.381l2.923,2.264v3.067a.605.605,0,0,0,.6.6h4.9a.605.605,0,0,0,.6-.6V48.1Zm-7.71.946A4.259,4.259,0,0,1,4.966,43L3.619,36.809a.66.66,0,0,1,1.2-.487l1.949,2.952a1.639,1.639,0,0,0-.115,1.892l.717,1.146a7.258,7.258,0,0,0,1.2,1.433l1.118,1.032a.588.588,0,0,0,.8-.86L9.38,42.885a5.894,5.894,0,0,1-1-1.2L7.66,40.534a.462.462,0,0,1,.688-.6l4.041,3.525a2.134,2.134,0,0,1,.688,1.232l.459,3.1H9.494Zm7.079,5.675H9.867V48.961h3.726Z" transform="translate(-2.381 -26.032)" fill="#184c98"/><path d="M39.2,11.38a7.251,7.251,0,1,0-7.251,7.251A7.266,7.266,0,0,0,39.2,11.38Zm-7.251,6.047a6.062,6.062,0,1,1,6.076-6.047A6.079,6.079,0,0,1,31.951,17.427Z" transform="translate(-18.303 -4.1)" fill="#184c98"/><path d="M41.388,15.4H38.637a.379.379,0,0,0-.373.373v1.892H36.373a.379.379,0,0,0-.373.373v2.751a.379.379,0,0,0,.373.373h1.892v1.892a.379.379,0,0,0,.373.373h2.751a.379.379,0,0,0,.373-.373V21.161h1.892a.379.379,0,0,0,.373-.373V18.037a.379.379,0,0,0-.373-.373H41.761V15.773A.379.379,0,0,0,41.388,15.4Zm1.576,3.353V20.1H40.7v2.264H39.353V20.1H37.089V18.753h2.264V16.489H40.7v2.264Z" transform="translate(-26.365 -12.161)" fill="#184c98"/></g></g></svg>