<svg xmlns="http://www.w3.org/2000/svg" width="88.043" height="84.807" viewBox="0 0 88.043 84.807"><path d="M91.486,35.725a5.946,5.946,0,0,0-8.138,1.757l-6.474,9.711a5.376,5.376,0,0,0-4.347,1.2L59.579,59.678a10.644,10.644,0,0,0-3.422,6.289L54.4,77.9V89.272a1.953,1.953,0,0,0,1.942,1.942H72.157A1.953,1.953,0,0,0,74.1,89.272v-9.8l9.433-7.306a17.8,17.8,0,0,0,6.381-10.081L94.26,42.106A6.347,6.347,0,0,0,91.486,35.725Zm-21.364,51.7H58.1V80.394H70.122ZM90.376,41.181,86.029,61.158a14.037,14.037,0,0,1-4.994,7.954L71.417,76.6H58.377l1.48-9.988a6.615,6.615,0,0,1,2.22-3.977l13.04-11.375a1.49,1.49,0,0,1,2.22,1.942l-2.312,3.7a21.237,21.237,0,0,1-3.237,3.884L68.18,64.117a1.9,1.9,0,1,0,2.59,2.774l3.607-3.329a26.416,26.416,0,0,0,3.884-4.624l2.312-3.7a5.278,5.278,0,0,0-.37-6.1l6.289-9.526a2.114,2.114,0,0,1,2.959-.647A1.985,1.985,0,0,1,90.376,41.181Z" transform="translate(-6.292 -6.408)" fill="#fff"/><path d="M40.594,66.063a10.383,10.383,0,0,0-3.422-6.289L24.132,48.4a5.287,5.287,0,0,0-4.347-1.2l-6.474-9.711a6.014,6.014,0,0,0-8.138-1.757,6.059,6.059,0,0,0-2.682,6.289L6.838,61.993a17.336,17.336,0,0,0,6.381,10.081l9.433,7.306v9.9a1.953,1.953,0,0,0,1.942,1.942H40.409a1.953,1.953,0,0,0,1.942-1.942V77.623ZM15.716,69.114a13.742,13.742,0,0,1-4.994-7.954L6.375,41.185a2.129,2.129,0,0,1,3.884-1.572l6.289,9.526a5.288,5.288,0,0,0-.37,6.1l2.312,3.7a23.422,23.422,0,0,0,3.884,4.624l3.607,3.329a1.9,1.9,0,0,0,2.59-2.774l-3.607-3.329a19.018,19.018,0,0,1-3.237-3.884l-2.312-3.7a1.49,1.49,0,0,1,2.22-1.942l13.04,11.375a6.887,6.887,0,0,1,2.22,3.977l1.48,9.988H25.334ZM38.559,87.426H26.537V80.4H38.559Z" transform="translate(-2.381 -6.411)" fill="#fff"/><path d="M71.5,27.591a23.4,23.4,0,1,0-23.4,23.4A23.445,23.445,0,0,0,71.5,27.591ZM48.1,47.1A19.56,19.56,0,1,1,67.7,27.591,19.616,19.616,0,0,1,48.1,47.1Z" transform="translate(-4.059 -4.1)" fill="#fff"/><path d="M53.387,15.4H44.508a1.224,1.224,0,0,0-1.2,1.2v6.1H37.2a1.224,1.224,0,0,0-1.2,1.2v8.878a1.224,1.224,0,0,0,1.2,1.2h6.1v6.1a1.224,1.224,0,0,0,1.2,1.2h8.878a1.224,1.224,0,0,0,1.2-1.2v-6.1h6.1a1.224,1.224,0,0,0,1.2-1.2V23.908a1.224,1.224,0,0,0-1.2-1.2h-6.1V16.6A1.224,1.224,0,0,0,53.387,15.4Zm5.087,10.821v4.347H51.167v7.306H46.82V30.567H39.514V26.221H46.82V18.914h4.347v7.306Z" transform="translate(-4.908 -4.949)" fill="#fff"/></svg>