<svg xmlns="http://www.w3.org/2000/svg" width="108.59" height="108.59" viewBox="0 0 108.59 108.59"><g transform="translate(0.625 0.625)"><path d="M108.2,101.184h-2.535V66.609a1.142,1.142,0,0,0-1.142-1.142H99.314V32.74h3.623a1.142,1.142,0,0,0,1.142-1.142V25a1.141,1.141,0,0,0-1.142-1.142H63.306A1.141,1.141,0,0,0,62.165,25v6.6a1.142,1.142,0,0,0,1.142,1.142H66.93V54.986L48.8,64.7V55.67a1.142,1.142,0,0,0-1.682-1.007L44.732,55.94,44,35.662c0-.031.018-.058.018-.089a1.138,1.138,0,0,0-.026-.129l-.224-6.216a1.142,1.142,0,0,0-1.141-1.1H32.969a1.142,1.142,0,0,0-1.141,1.1l-.222,6.181a1.085,1.085,0,0,0-.033.164,1.019,1.019,0,0,0,.023.114l-1,27.827L28.378,64.7V55.67A1.142,1.142,0,0,0,26.7,54.663l-2.564,1.374L23.4,35.679a.337.337,0,0,0-.009-.26l-.223-6.193a1.142,1.142,0,0,0-1.141-1.1H12.369a1.141,1.141,0,0,0-1.14,1.1L11,35.448a1.06,1.06,0,0,0-.025.124c0,.031.015.056.018.086L9.974,63.624,6.28,65.6a1.141,1.141,0,0,0-.6,1.006v34.574H3.142A1.141,1.141,0,0,0,2,102.326V108.2a1.141,1.141,0,0,0,1.142,1.142H108.2a1.141,1.141,0,0,0,1.142-1.142v-5.873a1.141,1.141,0,0,0-1.142-1.142Zm-4.818-33.432v33.432H99.314V67.752Zm-38.931-37.3V26.143h37.346v4.313ZM97.03,32.74v68.444H69.213V32.74ZM34.07,30.411h7.457l.145,4.02H33.926Zm-.226,6.3h7.911l.736,20.426-9.567,5.126Zm-20.374-6.3h7.457l.145,4.02H13.324Zm-.23,6.3h7.914l.737,20.524L12.3,62.375ZM7.96,67.294l18.133-9.718v9.033a1.142,1.142,0,0,0,1.682,1.006l16.351-8.761.035-.018,2.352-1.261v9.033a1.142,1.142,0,0,0,1.682,1.006L66.93,57.576v43.608H7.96Zm99.1,39.761H4.284v-3.589H6.808l.011,0h97.7l.011,0h2.524ZM42.828,74.266H32.062a1.141,1.141,0,0,0-1.142,1.142v6.608a1.141,1.141,0,0,0,1.142,1.142H42.828a1.141,1.141,0,0,0,1.142-1.142V75.408a1.141,1.141,0,0,0-1.142-1.142Zm-1.142,6.609H33.2V76.55h8.482Zm19.147-6.609H50.066a1.141,1.141,0,0,0-1.142,1.142v6.608a1.141,1.141,0,0,0,1.142,1.142H60.833a1.141,1.141,0,0,0,1.142-1.142V75.408a1.141,1.141,0,0,0-1.142-1.142Zm-1.142,6.609H51.208V76.55h8.483ZM77.739,49.023H88.5a1.141,1.141,0,0,0,1.142-1.142V41.274A1.141,1.141,0,0,0,88.5,40.131H77.739A1.141,1.141,0,0,0,76.6,41.274V47.88a1.141,1.141,0,0,0,1.142,1.142Zm1.142-6.607h8.482v4.323H78.881ZM24.824,74.266H14.058a1.141,1.141,0,0,0-1.142,1.142v6.608a1.141,1.141,0,0,0,1.142,1.142H24.825a1.141,1.141,0,0,0,1.142-1.142V75.408a1.141,1.141,0,0,0-1.143-1.142Zm-1.142,6.609H15.2V76.55h8.484ZM17.2,23.1a4.6,4.6,0,1,0-4.6-4.6A4.6,4.6,0,0,0,17.2,23.1Zm0-6.917A2.317,2.317,0,1,1,14.886,18.5,2.317,2.317,0,0,1,17.2,16.187Zm8.25-2.319a5.934,5.934,0,1,0-5.934-5.934A5.934,5.934,0,0,0,25.453,13.867Zm0-9.584a3.65,3.65,0,1,1-3.65,3.65,3.65,3.65,0,0,1,3.65-3.65ZM37.8,23.1a4.6,4.6,0,1,0-4.6-4.6,4.6,4.6,0,0,0,4.6,4.6Zm0-6.917A2.317,2.317,0,1,1,35.482,18.5,2.317,2.317,0,0,1,37.8,16.187Zm8.25-2.319a5.934,5.934,0,1,0-5.934-5.934A5.934,5.934,0,0,0,46.049,13.867Zm0-9.584a3.65,3.65,0,1,1-3.65,3.65A3.65,3.65,0,0,1,46.049,4.284ZM76.6,53.386a1.141,1.141,0,0,1,1.142-1.142H88.5a1.142,1.142,0,0,1,0,2.284H77.739A1.141,1.141,0,0,1,76.6,53.386Z" transform="translate(-2 -2)" fill="#fff" stroke="#fff" stroke-width="1.25"/></g></svg>