<svg xmlns="http://www.w3.org/2000/svg" width="52" height="52" viewBox="0 0 52 52"><g transform="translate(-0.304 -0.243)"><g transform="translate(0.304 0.243)" fill="#fff" stroke="#184c98" stroke-width="2"><circle cx="26" cy="26" r="26" stroke="none"/><circle cx="26" cy="26" r="25" fill="none"/></g><g transform="translate(14.088 11.986)"><path d="M25.577,24.02h-.563V16.344a.253.253,0,0,0-.254-.254H23.6V8.825h.8a.253.253,0,0,0,.254-.254V7.106a.253.253,0,0,0-.254-.254h-8.8a.253.253,0,0,0-.254.254V8.571a.253.253,0,0,0,.254.254h.8v4.939l-4.026,2.157V13.915a.254.254,0,0,0-.373-.224l-.529.283-.162-4.5c0-.007,0-.013,0-.02a.252.252,0,0,0-.006-.029l-.05-1.38A.253.253,0,0,0,11.02,7.8H8.875a.253.253,0,0,0-.253.244L8.573,9.417a.241.241,0,0,0-.007.036.226.226,0,0,0,.005.025l-.222,6.178-.492.264V13.915a.254.254,0,0,0-.373-.224L6.914,14l-.162-4.52a.075.075,0,0,0,0-.058L6.7,8.045A.253.253,0,0,0,6.447,7.8H4.3a.253.253,0,0,0-.253.244L4,9.426a.235.235,0,0,0-.006.028c0,.007,0,.012,0,.019L3.77,15.681l-.82.439a.253.253,0,0,0-.134.223V24.02H2.254A.253.253,0,0,0,2,24.273v1.3a.253.253,0,0,0,.254.253H25.577a.253.253,0,0,0,.254-.253v-1.3a.253.253,0,0,0-.254-.253ZM24.507,16.6V24.02h-.9V16.6Zm-8.643-8.28V7.36h8.291v.958Zm7.233.507v15.2H16.922V8.825ZM9.12,8.307h1.656l.032.893H9.088Zm-.05,1.4h1.756l.163,4.535L8.866,15.38Zm-4.523-1.4H6.2l.032.893H4.514ZM4.5,9.707H6.252l.164,4.556L4.287,15.4ZM3.323,16.5l4.026-2.157v2.005a.254.254,0,0,0,.373.223l3.63-1.945.008,0,.522-.28v2.005a.254.254,0,0,0,.373.223l4.16-2.229V24.02H3.323Zm22,8.827H2.507v-.8H25.324Zm-14.259-7.28H8.674a.253.253,0,0,0-.254.254v1.467a.253.253,0,0,0,.254.253h2.39a.253.253,0,0,0,.254-.253V18.3a.253.253,0,0,0-.254-.254Zm-.254,1.467H8.928v-.96h1.883Zm4.251-1.467h-2.39a.253.253,0,0,0-.254.254v1.467a.253.253,0,0,0,.254.253h2.39a.253.253,0,0,0,.254-.253V18.3a.253.253,0,0,0-.254-.254Zm-.253,1.467H12.925v-.96h1.883Zm4.007-7.072H21.2a.253.253,0,0,0,.254-.254V10.719a.253.253,0,0,0-.254-.254h-2.39a.253.253,0,0,0-.254.254v1.467a.253.253,0,0,0,.254.254Zm.254-1.467h1.883v.96H19.068Zm-12,7.071H4.677a.253.253,0,0,0-.254.254v1.467a.253.253,0,0,0,.254.253h2.39a.253.253,0,0,0,.254-.253V18.3a.253.253,0,0,0-.254-.254Zm-.254,1.467H4.93v-.96H6.814ZM5.375,6.685A1.021,1.021,0,1,0,4.354,5.664,1.021,1.021,0,0,0,5.375,6.685Zm0-1.536a.514.514,0,1,1-.514.514A.514.514,0,0,1,5.375,5.15Zm1.832-.515A1.317,1.317,0,1,0,5.889,3.317,1.317,1.317,0,0,0,7.207,4.635Zm0-2.128a.81.81,0,1,1-.81.81.81.81,0,0,1,.81-.81ZM9.948,6.685A1.021,1.021,0,1,0,8.926,5.664,1.021,1.021,0,0,0,9.948,6.685Zm0-1.536a.514.514,0,1,1-.514.514.514.514,0,0,1,.514-.514Zm1.832-.515a1.317,1.317,0,1,0-1.317-1.317A1.317,1.317,0,0,0,11.779,4.635Zm0-2.128a.81.81,0,1,1-.81.81.81.81,0,0,1,.81-.81Zm6.782,10.9a.253.253,0,0,1,.254-.254H21.2a.254.254,0,0,1,0,.507h-2.39a.253.253,0,0,1-.254-.253Z" transform="translate(-2 -2)" fill="#184c98" stroke="#184c98" stroke-width="0.5"/></g></g></svg>