<svg xmlns="http://www.w3.org/2000/svg" width="108.34" height="82.77" viewBox="0 0 108.34 82.77"><g transform="translate(0.5 0.579)"><g transform="translate(0 0)"><path d="M108.12,47.861h-4.338V27.413l.956.861a1.216,1.216,0,0,0,1.72-.093,1.219,1.219,0,0,0-.09-1.722l-2.588-2.332V12.454a1.22,1.22,0,0,0-1.22-1.22H96.979a1.22,1.22,0,0,0-1.22,1.22v4.452L85.393,7.57a1.221,1.221,0,0,0-1.632,0L62.786,26.459a1.22,1.22,0,1,0,1.634,1.813l.956-.864V47.859H49.31a1.2,1.2,0,0,0-.049-1.454,1.222,1.222,0,0,0-1.717-.163,17.543,17.543,0,0,0-1.7,1.62H25.634a1.2,1.2,0,0,0-.049-1.454,1.222,1.222,0,0,0-1.717-.163,17.544,17.544,0,0,0-1.7,1.62H3.22A1.22,1.22,0,0,0,2,49.083V87.728a1.219,1.219,0,0,0,1.22,1.22h104.9a1.22,1.22,0,0,0,1.22-1.22V49.081A1.22,1.22,0,0,0,108.12,47.861Zm-11.5,27.15a1.226,1.226,0,0,0-1.72-.161A17.436,17.436,0,0,0,93,76.7H91.134a15.094,15.094,0,0,1,2.791-6.777H106.9V76.7H96.481A1.22,1.22,0,0,0,96.618,75.011ZM85.979,83.105a4.2,4.2,0,0,1,2.51,3.406H67.448a15.124,15.124,0,0,1,3.179-7.37H89.448a.94.94,0,0,0,.237.063c.032,0,.059,0,.088,0a1.23,1.23,0,0,0,.356-.068H91.2a17.649,17.649,0,0,0-1.744,3.6,6.689,6.689,0,0,0-2.522-1.876,1.219,1.219,0,0,0-.959,2.242ZM43.987,50.3a17.817,17.817,0,0,0-1.881,3.828,6.689,6.689,0,0,0-2.522-1.876A1.22,1.22,0,0,0,38.63,54.5a4.213,4.213,0,0,1,2.483,3.174H25.639a1.205,1.205,0,0,0-.049-1.456,1.221,1.221,0,0,0-1.717-.161,17.843,17.843,0,0,0-1.7,1.62H20.1A15.118,15.118,0,0,1,23.28,50.3H43.987v0Zm23.671,0a17.846,17.846,0,0,0-1.878,3.825,6.708,6.708,0,0,0-2.522-1.874,1.219,1.219,0,0,0-.954,2.244,4.2,4.2,0,0,1,2.481,3.174H49.315a1.2,1.2,0,0,0-.049-1.454,1.217,1.217,0,0,0-1.717-.163,17.545,17.545,0,0,0-1.7,1.62H43.777a15.1,15.1,0,0,1,3.176-7.37h20.7Zm23.544,0a17.567,17.567,0,0,0-1.744,3.6,6.7,6.7,0,0,0-2.522-1.874,1.22,1.22,0,0,0-.956,2.244,4.2,4.2,0,0,1,2.51,3.4h-15.5a1.2,1.2,0,0,0-.051-1.454,1.214,1.214,0,0,0-1.715-.163,17.572,17.572,0,0,0-1.705,1.62H67.448a15.124,15.124,0,0,1,3.179-7.37H91.2v0Zm-1.5-2.437H79.455V40.067a5.124,5.124,0,0,1,10.249,0v7.794ZM106.9,60.11v7.37H96.169c.1-.085.183-.181.283-.259A1.219,1.219,0,1,0,94.9,65.343a17.208,17.208,0,0,0-2.135,2.144H91.1a15.124,15.124,0,0,1,3.04-7.37L106.9,60.11ZM85.979,73.591a4.213,4.213,0,0,1,2.476,3.1H72.991a1.2,1.2,0,0,0-.051-1.454,1.214,1.214,0,0,0-1.715-.163,17.833,17.833,0,0,0-1.705,1.617H67.49a15.105,15.105,0,0,1,2.925-6.777H91.031a17.51,17.51,0,0,0-1.571,3.3,6.7,6.7,0,0,0-2.522-1.874,1.22,1.22,0,0,0-.959,2.244ZM49.266,75.245a1.219,1.219,0,0,0-1.717-.163,18.114,18.114,0,0,0-1.7,1.617H43.811a15.123,15.123,0,0,1,2.925-6.775H67.482a17.733,17.733,0,0,0-1.7,3.528,6.7,6.7,0,0,0-2.522-1.871,1.219,1.219,0,0,0-.954,2.244A4.233,4.233,0,0,1,64.75,76.7H49.315A1.209,1.209,0,0,0,49.266,75.245Zm0-9.514a1.217,1.217,0,0,0-1.717-.161,17.056,17.056,0,0,0-1.954,1.915H43.777a15.108,15.108,0,0,1,3.176-7.37H67.663a17.836,17.836,0,0,0-1.881,3.823,6.753,6.753,0,0,0-2.522-1.874,1.22,1.22,0,1,0-.956,2.244,4.208,4.208,0,0,1,2.483,3.171H49.071l.037-.032A1.228,1.228,0,0,0,49.266,65.731Zm-23.676,0a1.217,1.217,0,0,0-1.717-.161,17.256,17.256,0,0,0-1.954,1.915H20.1a15.085,15.085,0,0,1,3.176-7.37H43.987a17.837,17.837,0,0,0-1.881,3.823,6.734,6.734,0,0,0-2.522-1.874,1.219,1.219,0,0,0-.954,2.244,4.213,4.213,0,0,1,2.483,3.171H25.4l.037-.032A1.23,1.23,0,0,0,25.59,65.731Zm63.87-2.025a6.682,6.682,0,0,0-2.522-1.876,1.22,1.22,0,0,0-.956,2.244,4.206,4.206,0,0,1,2.51,3.4H72.739a.218.218,0,0,0,.034-.032,1.219,1.219,0,1,0-1.554-1.878,17.256,17.256,0,0,0-1.954,1.915H67.45a15.134,15.134,0,0,1,3.179-7.37H91.207A17.17,17.17,0,0,0,89.46,63.706Zm-69.151-3.6a17.742,17.742,0,0,0-1.881,3.825,6.714,6.714,0,0,0-2.522-1.876,1.219,1.219,0,0,0-.954,2.244,4.221,4.221,0,0,1,2.486,3.174h-13v-7.37l15.869,0ZM4.44,69.917h15.7a17.7,17.7,0,0,0-1.705,3.53,6.677,6.677,0,0,0-2.522-1.871,1.219,1.219,0,0,0-.954,2.244A4.22,4.22,0,0,1,17.4,76.7H4.44Zm18.621,0H43.811a17.7,17.7,0,0,0-1.705,3.53,6.692,6.692,0,0,0-2.525-1.874,1.219,1.219,0,0,0-.954,2.244,4.236,4.236,0,0,1,2.447,2.876H25.639a1.2,1.2,0,0,0-.051-1.454,1.218,1.218,0,0,0-1.717-.163,17.493,17.493,0,0,0-1.7,1.617H20.136A15.179,15.179,0,0,1,23.061,69.917ZM41.65,79.136a1.207,1.207,0,0,0,.676.293c.032,0,.059,0,.088,0a1.211,1.211,0,0,0,.786-.3h.786A17.7,17.7,0,0,0,42.1,82.961a6.689,6.689,0,0,0-2.522-1.876,1.219,1.219,0,0,0-.954,2.244A4.213,4.213,0,0,1,41.111,86.5H20.1a15.1,15.1,0,0,1,3.176-7.37H41.65Zm5.3,0h18.37a1.207,1.207,0,0,0,.678.293c.032,0,.059,0,.088,0a1.211,1.211,0,0,0,.786-.3h.786a17.742,17.742,0,0,0-1.881,3.825,6.709,6.709,0,0,0-2.522-1.874A1.219,1.219,0,0,0,62.3,83.33,4.2,4.2,0,0,1,64.784,86.5H43.777A15.1,15.1,0,0,1,46.953,79.136ZM106.9,57.67H96.481A1.215,1.215,0,0,0,94.9,55.826,17,17,0,0,0,93,57.673H91.1a15.124,15.124,0,0,1,3.04-7.37H106.9Zm-8.7-44h3.142v8.258L98.2,19.1Zm-13.62-3.554L99.387,23.453H69.775ZM67.819,25.893h33.522V47.861H96.479A1.216,1.216,0,0,0,94.9,46.014,17.437,17.437,0,0,0,93,47.861h-.856V40.067a7.564,7.564,0,0,0-15.128,0v7.794H72.986a1.2,1.2,0,0,0-.051-1.454,1.219,1.219,0,0,0-1.715-.163,17.572,17.572,0,0,0-1.705,1.62h-1.7ZM20.309,50.3a17.742,17.742,0,0,0-1.881,3.825,6.683,6.683,0,0,0-2.522-1.874,1.219,1.219,0,0,0-.954,2.244,4.213,4.213,0,0,1,2.486,3.174h-13V50.3ZM4.44,79.136H17.977a1.207,1.207,0,0,0,.678.293c.029,0,.056,0,.085,0a1.211,1.211,0,0,0,.786-.3h.786a17.742,17.742,0,0,0-1.881,3.825,6.694,6.694,0,0,0-2.52-1.874,1.22,1.22,0,0,0-.956,2.244A4.213,4.213,0,0,1,17.44,86.5h-13ZM91.1,86.508a15.124,15.124,0,0,1,3.04-7.37H106.9v7.37Z" transform="translate(-2 -7.257)" fill="#fff" stroke="#fff" stroke-width="1"/><path d="M38.5,9.883a4.495,4.495,0,1,0,4.5,4.5A4.5,4.5,0,0,0,38.5,9.883Zm0,6.55a2.055,2.055,0,1,1,2.057-2.054A2.059,2.059,0,0,1,38.5,16.433Z" transform="translate(44.077 -3.476)" fill="#fff" stroke="#fff" stroke-width="1"/></g></g></svg>