<svg xmlns="http://www.w3.org/2000/svg" width="52" height="52" viewBox="0 0 52 52"><g transform="translate(0.144 0.088)"><g transform="translate(-0.144 -0.088)" fill="#fff" stroke="#184c98" stroke-width="2"><circle cx="26" cy="26" r="26" stroke="none"/><circle cx="26" cy="26" r="25" fill="none"/></g><g transform="translate(10.983 11.3)"><path d="M31.7,18.62H30.484V12.9l.268.241a.34.34,0,0,0,.481-.026.341.341,0,0,0-.025-.482l-.724-.653V8.711a.341.341,0,0,0-.341-.341H28.58a.341.341,0,0,0-.341.341V9.957l-2.9-2.613a.342.342,0,0,0-.457,0l-5.87,5.286a.342.342,0,1,0,.457.507l.268-.242v5.723h-4.5a.336.336,0,0,0-.014-.407.342.342,0,0,0-.481-.046,4.909,4.909,0,0,0-.477.453H8.614a.336.336,0,0,0-.014-.407.342.342,0,0,0-.481-.046,4.91,4.91,0,0,0-.477.453h-5.3A.341.341,0,0,0,2,18.962V29.777a.341.341,0,0,0,.341.341H31.7a.341.341,0,0,0,.341-.341V18.961A.341.341,0,0,0,31.7,18.62Zm-3.219,7.6A.343.343,0,0,0,28,26.173a4.879,4.879,0,0,0-.532.517h-.522a4.224,4.224,0,0,1,.781-1.9h3.631v1.9H28.441A.341.341,0,0,0,28.479,26.218ZM25.5,28.483a1.175,1.175,0,0,1,.7.953H20.316a4.233,4.233,0,0,1,.89-2.062h5.267a.263.263,0,0,0,.066.018h.025a.344.344,0,0,0,.1-.019h.3a4.939,4.939,0,0,0-.488,1.008,1.872,1.872,0,0,0-.706-.525.341.341,0,0,0-.268.627ZM13.75,19.3a4.986,4.986,0,0,0-.526,1.071,1.872,1.872,0,0,0-.706-.525.342.342,0,0,0-.267.629,1.179,1.179,0,0,1,.695.888H8.615a.337.337,0,0,0-.014-.408.342.342,0,0,0-.481-.045,4.994,4.994,0,0,0-.477.453H7.066A4.231,4.231,0,0,1,7.955,19.3H13.75Zm6.624,0a4.994,4.994,0,0,0-.526,1.07,1.877,1.877,0,0,0-.706-.524.341.341,0,0,0-.267.628,1.175,1.175,0,0,1,.694.888H15.241a.336.336,0,0,0-.014-.407.341.341,0,0,0-.481-.046,4.91,4.91,0,0,0-.477.453h-.579A4.225,4.225,0,0,1,14.58,19.3h5.794Zm6.589,0a4.916,4.916,0,0,0-.488,1.007,1.876,1.876,0,0,0-.706-.524.341.341,0,0,0-.268.628,1.176,1.176,0,0,1,.7.952H21.866a.335.335,0,0,0-.014-.407.34.34,0,0,0-.48-.046,4.918,4.918,0,0,0-.477.453h-.579a4.233,4.233,0,0,1,.89-2.062h5.759Zm-.42-.682H23.676V16.439a1.434,1.434,0,0,1,2.868,0V18.62Zm4.813,3.428V24.11h-3c.027-.024.051-.051.079-.072A.341.341,0,1,0,28,23.512a4.816,4.816,0,0,0-.6.6h-.466a4.232,4.232,0,0,1,.851-2.062l3.572,0ZM25.5,25.82a1.179,1.179,0,0,1,.693.868H21.867a.336.336,0,0,0-.014-.407.34.34,0,0,0-.48-.046,4.991,4.991,0,0,0-.477.453h-.568a4.227,4.227,0,0,1,.819-1.9h5.77a4.9,4.9,0,0,0-.44.924,1.876,1.876,0,0,0-.706-.524.342.342,0,0,0-.268.628Zm-10.274.463a.341.341,0,0,0-.481-.046,5.069,5.069,0,0,0-.477.453H13.7a4.232,4.232,0,0,1,.819-1.9h5.806a4.962,4.962,0,0,0-.476.987,1.876,1.876,0,0,0-.706-.524.341.341,0,0,0-.267.628,1.185,1.185,0,0,1,.684.8H15.241A.338.338,0,0,0,15.227,26.283Zm0-2.663a.341.341,0,0,0-.481-.045,4.773,4.773,0,0,0-.547.536h-.509a4.228,4.228,0,0,1,.889-2.062h5.8a4.992,4.992,0,0,0-.526,1.07,1.89,1.89,0,0,0-.706-.524.341.341,0,1,0-.268.628,1.178,1.178,0,0,1,.695.888h-4.4l.01-.009A.344.344,0,0,0,15.227,23.621Zm-6.626,0a.341.341,0,0,0-.481-.045,4.829,4.829,0,0,0-.547.536H7.066a4.222,4.222,0,0,1,.889-2.062h5.8a4.992,4.992,0,0,0-.526,1.07,1.885,1.885,0,0,0-.706-.524.341.341,0,0,0-.267.628,1.179,1.179,0,0,1,.695.888h-4.4l.01-.009A.344.344,0,0,0,8.6,23.621Zm17.874-.567a1.87,1.87,0,0,0-.706-.525.341.341,0,1,0-.268.628,1.177,1.177,0,0,1,.7.952H21.8a.061.061,0,0,0,.01-.009.341.341,0,1,0-.435-.526,4.829,4.829,0,0,0-.547.536h-.508a4.235,4.235,0,0,1,.89-2.062h5.759A4.8,4.8,0,0,0,26.476,23.054ZM7.124,22.048a4.965,4.965,0,0,0-.526,1.07,1.879,1.879,0,0,0-.706-.525.341.341,0,0,0-.267.628,1.181,1.181,0,0,1,.7.888H2.683V22.047ZM2.683,24.792H7.075a4.954,4.954,0,0,0-.477.988,1.869,1.869,0,0,0-.706-.524.341.341,0,0,0-.267.628,1.181,1.181,0,0,1,.685.8H2.683Zm5.211,0H13.7a4.954,4.954,0,0,0-.477.988,1.873,1.873,0,0,0-.707-.524.341.341,0,0,0-.267.628,1.185,1.185,0,0,1,.685.8H8.615a.336.336,0,0,0-.014-.407.341.341,0,0,0-.481-.046,4.9,4.9,0,0,0-.476.453H7.075A4.248,4.248,0,0,1,7.894,24.792Zm5.2,2.58a.338.338,0,0,0,.189.082h.025a.339.339,0,0,0,.22-.083h.22a4.955,4.955,0,0,0-.526,1.071,1.872,1.872,0,0,0-.706-.525.341.341,0,0,0-.267.628,1.179,1.179,0,0,1,.695.888H7.066a4.224,4.224,0,0,1,.889-2.062H13.1Zm1.484,0h5.141a.338.338,0,0,0,.19.082h.025a.339.339,0,0,0,.22-.083h.22a4.965,4.965,0,0,0-.526,1.07,1.877,1.877,0,0,0-.706-.524.341.341,0,0,0-.267.628,1.175,1.175,0,0,1,.694.888H13.691A4.225,4.225,0,0,1,14.58,27.372Zm16.776-6.007H28.441A.34.34,0,0,0,28,20.849a4.756,4.756,0,0,0-.532.517h-.531a4.232,4.232,0,0,1,.851-2.062h3.571ZM28.922,9.052H29.8v2.311l-.879-.792ZM25.11,8.058l4.143,3.732H20.967Zm-4.691,4.414H29.8V18.62H28.44A.34.34,0,0,0,28,18.1a4.879,4.879,0,0,0-.532.517h-.24V16.439a2.117,2.117,0,0,0-4.233,0V18.62H21.865a.335.335,0,0,0-.014-.407.341.341,0,0,0-.48-.046,4.918,4.918,0,0,0-.477.453h-.474ZM7.124,19.3a4.965,4.965,0,0,0-.526,1.07,1.87,1.87,0,0,0-.706-.524.341.341,0,0,0-.267.628,1.179,1.179,0,0,1,.7.888H2.683V19.3Zm-4.441,8.07H6.471a.338.338,0,0,0,.19.082h.024a.339.339,0,0,0,.22-.083h.22a4.965,4.965,0,0,0-.526,1.07,1.873,1.873,0,0,0-.705-.524.341.341,0,0,0-.268.628,1.179,1.179,0,0,1,.7.888H2.683Zm24.251,2.063a4.232,4.232,0,0,1,.851-2.062h3.572v2.062Z" transform="translate(-2 -7.257)" fill="#184c98" stroke="#184c98" stroke-width="0.25"/><path d="M35.266,9.883a1.258,1.258,0,1,0,1.258,1.258A1.259,1.259,0,0,0,35.266,9.883Zm0,1.833a.575.575,0,1,1,.576-.575A.576.576,0,0,1,35.266,11.716Z" transform="translate(-12.156 -8.09)" fill="#184c98" stroke="#184c98" stroke-width="0.25"/></g></g></svg>