<svg xmlns="http://www.w3.org/2000/svg" width="52" height="52" viewBox="0 0 52 52"><g transform="translate(-1188 -2953)"><g transform="translate(1188 2953)" fill="#fff" stroke="#184c98" stroke-width="2"><circle cx="26" cy="26" r="26" stroke="none"/><circle cx="26" cy="26" r="25" fill="none"/></g><g transform="translate(1201.431 2966.709)"><g transform="translate(0)"><rect width="0.848" height="2.543" transform="translate(9.75 11.021)" fill="#28349d"/><rect width="0.848" height="2.119" transform="translate(11.021 11.445)" fill="#28349d"/><rect width="0.848" height="2.967" transform="translate(12.293 10.597)" fill="#28349d"/><rect width="0.848" height="1.272" transform="translate(16.108 12.293)" fill="#28349d"/><rect width="0.848" height="1.696" transform="translate(8.478 11.869)" fill="#28349d"/><rect width="0.848" height="2.543" transform="translate(13.565 11.021)" fill="#28349d"/><rect width="0.848" height="2.119" transform="translate(14.836 11.445)" fill="#28349d"/><path d="M36.77,32.952a3.819,3.819,0,0,1,3.815,3.815h.848A4.668,4.668,0,0,0,36.77,32.1v-1.59a.955.955,0,0,0-.954-.954h-1.59v-1.7h1.59a.955.955,0,0,0,.954-.954v-1.59a4.663,4.663,0,1,0-4.644-5.087H30.836v-.424a.424.424,0,0,0-.424-.424H27.021a.424.424,0,0,0-.424.424v.424H25.306a4.664,4.664,0,0,0-8.918-1.441l.777.339a3.815,3.815,0,1,1,6.049,4.36v-.821a2.016,2.016,0,0,0-1.115-1.8,1.475,1.475,0,0,0,.267-.848v-.848a1.485,1.485,0,0,0-1.484-1.484h-.424a1.485,1.485,0,0,0-1.484,1.484v.848a1.475,1.475,0,0,0,.267.848,2.016,2.016,0,0,0-1.115,1.8v.834a3.807,3.807,0,0,1-1.279-2.848,3.845,3.845,0,0,1,.076-.763l-.831-.169A4.667,4.667,0,0,0,20.238,25.3v1.609a.955.955,0,0,0,.954.954h2.013v1.7H21.192a.955.955,0,0,0-.954.954v1.609a4.663,4.663,0,1,0,5.068,5.068H26.6v.424a.424.424,0,0,0,.424.424h3.391a.424.424,0,0,0,.424-.424v-.424h1.291a4.663,4.663,0,0,0,9.213.508l-.831-.169a3.8,3.8,0,0,1-1.188,2.07v-.82a2.016,2.016,0,0,0-1.115-1.8,1.475,1.475,0,0,0,.267-.848v-.848A1.485,1.485,0,0,0,36.99,33.8h-.424a1.485,1.485,0,0,0-1.484,1.484v.848a1.475,1.475,0,0,0,.267.848,2.016,2.016,0,0,0-1.115,1.8v.834a3.813,3.813,0,0,1,2.536-6.663Zm-.84,2.331a.637.637,0,0,1,.636-.636h.424a.637.637,0,0,1,.636.636v.848a.637.637,0,0,1-.636.636h-.424a.637.637,0,0,1-.636-.636Zm-.848,3.5a1.167,1.167,0,0,1,1.166-1.166h1.06a1.167,1.167,0,0,1,1.166,1.166v1.4a3.8,3.8,0,0,1-3.391.009Zm-5.5-5.539a.424.424,0,0,0-.022.134V33.8h-1.7v-.424a.424.424,0,0,0-.022-.134l-.238-.714h2.215ZM24.159,31.68a.106.106,0,0,1-.106-.106v-.318h9.326v.318a.106.106,0,0,1-.106.106Zm9.22-1.272H24.053V25.852a.106.106,0,0,1,.106-.106h9.114a.106.106,0,0,1,.106.106Zm1.7-6.329V22.673a1.167,1.167,0,0,1,1.166-1.166h1.06a1.167,1.167,0,0,1,1.166,1.166v1.4a3.811,3.811,0,0,1-3.391.008Zm2.543-4.057a.637.637,0,0,1-.636.636h-.424a.637.637,0,0,1-.636-.636v-.848a.637.637,0,0,1,.636-.636h.424a.637.637,0,0,1,.636.636Zm-.855-3.179a3.813,3.813,0,0,1,2.551,6.649v-.821a2.016,2.016,0,0,0-1.115-1.8,1.475,1.475,0,0,0,.267-.848v-.848a1.485,1.485,0,0,0-1.484-1.484h-.424a1.485,1.485,0,0,0-1.484,1.484v.848a1.475,1.475,0,0,0,.267.848,2.016,2.016,0,0,0-1.115,1.8v.834a3.813,3.813,0,0,1,2.536-6.663Zm-9.326,3.391h2.543v.848H27.444Zm-7.622-1.06a.637.637,0,0,1,.636-.636h.424a.637.637,0,0,1,.636.636v.848a.637.637,0,0,1-.636.636h-.424a.637.637,0,0,1-.636-.636Zm-.848,3.5a1.167,1.167,0,0,1,1.166-1.166H21.2a1.167,1.167,0,0,1,1.166,1.166v1.4a3.811,3.811,0,0,1-3.391.008Zm2.218,4.345a.106.106,0,0,1-.106-.106V25.3a4.671,4.671,0,0,0,4.22-4.22H26.6v.424a.424.424,0,0,0,.424.424h3.391a.424.424,0,0,0,.424-.424v-.424h1.291a4.673,4.673,0,0,0,3.8,4.162v1.667a.106.106,0,0,1-.106.106h-1.59V25.852a.955.955,0,0,0-.954-.954H24.159a.955.955,0,0,0-.954.954v1.166Zm-2.218,13.17V38.78a1.167,1.167,0,0,1,1.166-1.166H21.2a1.167,1.167,0,0,1,1.166,1.166v1.4A3.811,3.811,0,0,1,18.974,40.188Zm2.543-4.057a.637.637,0,0,1-.636.636h-.424a.637.637,0,0,1-.636-.636v-.848a.637.637,0,0,1,.636-.636h.424a.637.637,0,0,1,.636.636Zm1.7,3.47V38.78a2.016,2.016,0,0,0-1.115-1.8,1.475,1.475,0,0,0,.267-.848v-.848A1.485,1.485,0,0,0,20.882,33.8h-.424a1.485,1.485,0,0,0-1.484,1.484v.848a1.475,1.475,0,0,0,.267.848,2.016,2.016,0,0,0-1.115,1.8v.834a3.815,3.815,0,1,1,5.087-.014Zm6.775-2.411H27.444v-.848h2.543Zm2.139-.848H30.836v-.424a.424.424,0,0,0-.424-.424H27.021a.424.424,0,0,0-.424.424v.424H25.306a4.671,4.671,0,0,0-4.22-4.22V30.515a.106.106,0,0,1,.106-.106h2.013v1.166a.955.955,0,0,0,.954.954h2.556l.306.917V33.8h-.848v.848h5.087V33.8h-.848v-.355l.306-.917h2.556a.955.955,0,0,0,.954-.954V30.409h1.59a.106.106,0,0,1,.106.106v1.667A4.673,4.673,0,0,0,32.126,36.343Z" transform="translate(-15.999 -15.996)" fill="#184c98"/></g></g></g></svg>