<svg xmlns="http://www.w3.org/2000/svg" width="104.75" height="104.751" viewBox="0 0 104.75 104.751"><g transform="translate(0)"><rect width="3.492" height="10.475" transform="translate(40.154 45.392)" fill="#fff"/><rect width="3.492" height="8.729" transform="translate(45.392 47.138)" fill="#fff"/><rect width="3.492" height="12.221" transform="translate(50.629 43.647)" fill="#fff"/><rect width="3.492" height="5.237" transform="translate(66.342 50.63)" fill="#fff"/><rect width="3.492" height="6.983" transform="translate(34.917 48.884)" fill="#fff"/><rect width="3.492" height="10.475" transform="translate(55.867 45.392)" fill="#fff"/><rect width="3.492" height="8.729" transform="translate(61.104 47.138)" fill="#fff"/><path d="M101.545,85.83a15.73,15.73,0,0,1,15.712,15.712h3.492a19.226,19.226,0,0,0-19.2-19.2V75.792a3.933,3.933,0,0,0-3.928-3.928H91.07V64.88h6.547a3.933,3.933,0,0,0,3.928-3.928V54.405A19.2,19.2,0,1,0,82.42,33.455H77.1V31.709a1.746,1.746,0,0,0-1.746-1.746H61.391a1.746,1.746,0,0,0-1.746,1.746v1.746H54.329A19.208,19.208,0,0,0,17.6,27.519l3.2,1.4A15.712,15.712,0,1,1,45.71,46.874v-3.38a8.3,8.3,0,0,0-4.59-7.42,6.077,6.077,0,0,0,1.1-3.492V29.091a6.117,6.117,0,0,0-6.11-6.11H34.362a6.117,6.117,0,0,0-6.11,6.11v3.492a6.077,6.077,0,0,0,1.1,3.492,8.3,8.3,0,0,0-4.59,7.42v3.437A15.679,15.679,0,0,1,19.491,35.2a15.837,15.837,0,0,1,.314-3.144l-3.422-.694A19.222,19.222,0,0,0,33.458,54.326v6.626a3.933,3.933,0,0,0,3.928,3.928h8.293v6.983H37.386a3.933,3.933,0,0,0-3.928,3.928v6.626a19.2,19.2,0,1,0,20.871,20.871h5.316v1.746a1.746,1.746,0,0,0,1.746,1.746H75.358a1.746,1.746,0,0,0,1.746-1.746v-1.746H82.42a19.207,19.207,0,0,0,37.945,2.093l-3.422-.694a15.635,15.635,0,0,1-4.892,8.527v-3.378a8.3,8.3,0,0,0-4.59-7.42,6.077,6.077,0,0,0,1.1-3.492V95.432a6.117,6.117,0,0,0-6.11-6.11H100.7a6.117,6.117,0,0,0-6.11,6.11v3.492a6.077,6.077,0,0,0,1.1,3.492,8.3,8.3,0,0,0-4.59,7.42v3.437A15.706,15.706,0,0,1,101.545,85.83Zm-3.46,9.6a2.622,2.622,0,0,1,2.619-2.619h1.746a2.622,2.622,0,0,1,2.619,2.619v3.492a2.622,2.622,0,0,1-2.619,2.619H100.7a2.622,2.622,0,0,1-2.619-2.619Zm-3.492,14.4a4.806,4.806,0,0,1,4.8-4.8h4.365a4.806,4.806,0,0,1,4.8,4.8v5.758a15.669,15.669,0,0,1-13.967.038ZM71.956,87.024a1.745,1.745,0,0,0-.09.552v1.746H64.883V87.576a1.745,1.745,0,0,0-.09-.552l-.98-2.94h9.122ZM49.607,80.593a.436.436,0,0,1-.436-.436V78.847H87.578v1.309a.436.436,0,0,1-.436.436Zm37.972-5.237H49.17V56.588a.436.436,0,0,1,.436-.436H87.142a.436.436,0,0,1,.436.436ZM94.593,49.29v-5.8a4.806,4.806,0,0,1,4.8-4.8h4.365a4.806,4.806,0,0,1,4.8,4.8v5.765a15.7,15.7,0,0,1-13.967.031Zm10.475-16.708a2.622,2.622,0,0,1-2.619,2.619H100.7a2.622,2.622,0,0,1-2.619-2.619V29.091a2.622,2.622,0,0,1,2.619-2.619h1.746a2.622,2.622,0,0,1,2.619,2.619Zm-3.523-13.094a15.706,15.706,0,0,1,10.506,27.386V43.494a8.3,8.3,0,0,0-4.59-7.42,6.077,6.077,0,0,0,1.1-3.492V29.091a6.117,6.117,0,0,0-6.11-6.11H100.7a6.117,6.117,0,0,0-6.11,6.11v3.492a6.077,6.077,0,0,0,1.1,3.492,8.3,8.3,0,0,0-4.59,7.42v3.437a15.706,15.706,0,0,1,10.444-27.442ZM63.137,33.455H73.612v3.492H63.137ZM31.743,29.091a2.622,2.622,0,0,1,2.619-2.619h1.746a2.622,2.622,0,0,1,2.619,2.619v3.492A2.622,2.622,0,0,1,36.108,35.2H34.362a2.622,2.622,0,0,1-2.619-2.619Zm-3.492,14.4a4.806,4.806,0,0,1,4.8-4.8h4.365a4.806,4.806,0,0,1,4.8,4.8v5.765a15.7,15.7,0,0,1-13.967.031Zm9.134,17.895a.436.436,0,0,1-.436-.436V54.326a19.237,19.237,0,0,0,17.38-17.38h5.316v1.746a1.746,1.746,0,0,0,1.746,1.746H75.358A1.746,1.746,0,0,0,77.1,38.693V36.947H82.42a19.246,19.246,0,0,0,15.634,17.14v6.865a.436.436,0,0,1-.436.436H91.07v-4.8a3.933,3.933,0,0,0-3.928-3.928H49.607a3.933,3.933,0,0,0-3.928,3.928v4.8Zm-9.134,54.243v-5.8a4.806,4.806,0,0,1,4.8-4.8h4.365a4.806,4.806,0,0,1,4.8,4.8V115.6a15.7,15.7,0,0,1-13.967.031ZM38.726,98.924a2.622,2.622,0,0,1-2.619,2.619H34.362a2.622,2.622,0,0,1-2.619-2.619V95.432a2.622,2.622,0,0,1,2.619-2.619h1.746a2.622,2.622,0,0,1,2.619,2.619Zm6.983,14.292v-3.381a8.3,8.3,0,0,0-4.59-7.42,6.077,6.077,0,0,0,1.1-3.492V95.432a6.117,6.117,0,0,0-6.11-6.11H34.362a6.117,6.117,0,0,0-6.11,6.11v3.492a6.077,6.077,0,0,0,1.1,3.492,8.3,8.3,0,0,0-4.59,7.42v3.437a15.712,15.712,0,1,1,20.95-.056Zm27.9-9.928H63.137V99.8H73.612ZM82.42,99.8H77.1V98.051a1.746,1.746,0,0,0-1.746-1.746H61.391a1.746,1.746,0,0,0-1.746,1.746V99.8H54.329a19.237,19.237,0,0,0-17.38-17.38V75.792a.436.436,0,0,1,.436-.436h8.293v4.8a3.933,3.933,0,0,0,3.928,3.928H60.133l1.258,3.775v1.462H57.9v3.492h20.95V89.322H75.358V87.86l1.258-3.775H87.142a3.933,3.933,0,0,0,3.928-3.928v-4.8h6.547a.436.436,0,0,1,.436.436v6.865A19.246,19.246,0,0,0,82.42,99.8Z" transform="translate(-15.999 -15.996)" fill="#fff"/></g></svg>