<svg xmlns="http://www.w3.org/2000/svg" width="52" height="52" viewBox="0 0 52 52"><g transform="translate(-0.498 -0.243)"><g transform="translate(0.498 0.243)" fill="#fff" stroke="#184c98" stroke-width="2"><circle cx="26" cy="26" r="26" stroke="none"/><circle cx="26" cy="26" r="25" fill="none"/></g><g transform="translate(13.831 13.832)"><g transform="translate(0 0)"><rect width="1.514" height="1.009" transform="translate(2.443 7.848)" fill="#184c98" stroke="#184c98" stroke-width="0.25"/><path d="M24.165,7.282A1.179,1.179,0,0,0,25.343,6.1V2.178A1.179,1.179,0,0,0,24.165,1h-5.5a1.179,1.179,0,0,0-1.178,1.178V6.1a1.179,1.179,0,0,0,1.178,1.178h1.178v.785h-.785v.785h1.963v3.926H19.4a2.743,2.743,0,0,0-1.131-.669c0-.04,0-.078,0-.117a3.139,3.139,0,0,0-5.787-1.688,3.123,3.123,0,0,0-1.281-.275,3.159,3.159,0,0,0-2.935,2.026,2.726,2.726,0,0,0-.829.33H4.534V11.209H6.1a1.179,1.179,0,0,0,1.178-1.178V2.178A1.179,1.179,0,0,0,6.1,1H2.178A1.179,1.179,0,0,0,1,2.178v7.853a1.179,1.179,0,0,0,1.178,1.178H3.748v1.963H6.609a2.739,2.739,0,0,0-.382.785H4.534v4.319H2.963a1.179,1.179,0,0,0-1.178,1.178v3.534H1v1.178a1.179,1.179,0,0,0,1.178,1.178H8.46a1.179,1.179,0,0,0,1.178-1.178V22.988H8.853V19.454a1.179,1.179,0,0,0-1.178-1.178H5.319V14.742H6.1a2.752,2.752,0,0,0,2.748,2.748h8.638a2.751,2.751,0,0,0,2.717-2.356h1.6v3.141H19.061v7.067h6.282V18.276H22.595V14.35H20.206a2.721,2.721,0,0,0-.244-.785H21.81V8.853h1.963V8.067h-.785V7.282ZM6.5,7.282H1.785V3.356H6.5Zm-4.319-5.5H6.1a.393.393,0,0,1,.393.393v.393H1.785V2.178A.393.393,0,0,1,2.178,1.785Zm-.393,8.245V8.067H6.5v1.963a.393.393,0,0,1-.393.393H2.178A.393.393,0,0,1,1.785,10.031ZM8.853,24.165a.393.393,0,0,1-.393.393H2.178a.393.393,0,0,1-.393-.393v-.393H8.853Zm-.785-4.712v3.534h-5.5V19.454a.393.393,0,0,1,.393-.393H7.675A.393.393,0,0,1,8.067,19.454Zm11.779,5.1V22.2h4.712v2.356Zm4.712-3.141H19.846V19.061h4.712Zm-7.067-4.712H8.853a1.962,1.962,0,0,1-.236-3.911l.258-.031.073-.249a2.349,2.349,0,0,1,3.493-1.347l.375.231L13,11a2.354,2.354,0,0,1,4.488.995,2.389,2.389,0,0,1-.031.363l-.059.388.388.059a1.962,1.962,0,0,1-.3,3.9Zm1.178-14.92h5.5a.393.393,0,0,1,.393.393V4.926H18.276V2.178A.393.393,0,0,1,18.669,1.785ZM18.276,6.1V5.712h6.282V6.1a.393.393,0,0,1-.393.393h-5.5A.393.393,0,0,1,18.276,6.1ZM22.2,8.067H20.632V7.282H22.2Z" transform="translate(-1 -1)" fill="#184c98" stroke="#184c98" stroke-width="0.25"/><rect width="1.009" height="0.505" transform="translate(19.599 18.949)" fill="#184c98" stroke="#184c98" stroke-width="0.25"/><rect width="0.505" height="1.009" transform="translate(22.122 21.977)" fill="#184c98" stroke="#184c98" stroke-width="0.25"/><rect width="1.514" height="0.505" transform="translate(21.113 18.949)" fill="#184c98" stroke="#184c98" stroke-width="0.25"/><rect width="1.514" height="1.009" transform="translate(19.599 21.977)" fill="#184c98" stroke="#184c98" stroke-width="0.25"/></g></g></g></svg>