<svg xmlns="http://www.w3.org/2000/svg" width="105.001" height="105.001" viewBox="0 0 105.001 105.001"><g transform="translate(0.125 0.125)"><g transform="translate(0 0)"><rect width="6.514" height="4.343" transform="translate(10.511 33.771)" fill="#fff" stroke="#fff" stroke-width="0.25"/><path d="M100.682,28.033a5.075,5.075,0,0,0,5.069-5.069V6.069A5.075,5.075,0,0,0,100.682,1H77.029A5.075,5.075,0,0,0,71.96,6.069v16.9a5.075,5.075,0,0,0,5.069,5.069H82.1v3.379H78.718v3.379h8.448v16.9H80.193a11.8,11.8,0,0,0-4.866-2.877c.008-.171.012-.336.012-.5a13.507,13.507,0,0,0-24.9-7.263,13.44,13.44,0,0,0-5.511-1.184A13.591,13.591,0,0,0,32.3,48.577,11.729,11.729,0,0,0,28.73,50H16.206V44.928h6.758a5.075,5.075,0,0,0,5.069-5.069V6.069A5.075,5.075,0,0,0,22.964,1H6.069A5.075,5.075,0,0,0,1,6.069V39.859a5.075,5.075,0,0,0,5.069,5.069h6.758v8.448h12.31a11.787,11.787,0,0,0-1.642,3.379H16.206V75.339H9.448a5.075,5.075,0,0,0-5.069,5.069V95.614H1v5.069a5.075,5.075,0,0,0,5.069,5.069H33.1a5.075,5.075,0,0,0,5.069-5.069V95.614H34.791V80.408a5.075,5.075,0,0,0-5.069-5.069H19.585V60.134h3.379A11.842,11.842,0,0,0,34.791,71.96H71.96A11.836,11.836,0,0,0,83.652,61.823h6.893V75.339H78.718v30.412h27.033V75.339H93.924v-16.9H83.645a11.708,11.708,0,0,0-1.051-3.379h7.951V34.791h8.448V31.412H95.614V28.033Zm-76.029,0H4.379v-16.9H24.653ZM6.069,4.379h16.9a1.69,1.69,0,0,1,1.69,1.69v1.69H4.379V6.069A1.69,1.69,0,0,1,6.069,4.379Zm-1.69,35.48V31.412H24.653v8.448a1.69,1.69,0,0,1-1.69,1.69H6.069A1.69,1.69,0,0,1,4.379,39.859Zm30.412,60.823a1.69,1.69,0,0,1-1.69,1.69H6.069a1.69,1.69,0,0,1-1.69-1.69v-1.69H34.791ZM31.412,80.408V95.614H7.758V80.408a1.69,1.69,0,0,1,1.69-1.69H29.722A1.69,1.69,0,0,1,31.412,80.408ZM82.1,102.372V92.235h20.274v10.137Zm20.274-13.516H82.1V78.718h20.274ZM71.96,68.581H34.791a8.444,8.444,0,0,1-1.014-16.828l1.108-.133.313-1.073a10.109,10.109,0,0,1,15.032-5.8l1.613,1,.8-1.718a10.129,10.129,0,0,1,19.313,4.28,10.278,10.278,0,0,1-.133,1.563l-.255,1.671,1.671.253A8.442,8.442,0,0,1,71.96,68.581Zm5.069-64.2h23.653a1.69,1.69,0,0,1,1.69,1.69V17.9H75.339V6.069A1.69,1.69,0,0,1,77.029,4.379Zm-1.69,18.585v-1.69h27.033v1.69a1.69,1.69,0,0,1-1.69,1.69H77.029A1.69,1.69,0,0,1,75.339,22.964Zm16.9,8.448H85.477V28.033h6.758Z" transform="translate(-1 -1)" fill="#fff" stroke="#fff" stroke-width="0.25"/><rect width="4.343" height="2.171" transform="translate(84.335 81.539)" fill="#fff" stroke="#fff" stroke-width="0.25"/><rect width="2.171" height="4.343" transform="translate(95.192 94.567)" fill="#fff" stroke="#fff" stroke-width="0.25"/><rect width="6.514" height="2.171" transform="translate(90.849 81.539)" fill="#fff" stroke="#fff" stroke-width="0.25"/><rect width="6.514" height="4.343" transform="translate(84.335 94.567)" fill="#fff" stroke="#fff" stroke-width="0.25"/></g></g></svg>