<svg xmlns="http://www.w3.org/2000/svg" width="131.836" height="150" viewBox="0 0 131.836 150">
  <g id="_001-database" data-name="001-database" transform="translate(-31)">
    <g id="Group_4215" data-name="Group 4215" transform="translate(110.857 34.872)">
      <path id="Path_4559" data-name="Path 4559" d="M325.307,124.684h-9.931a.876.876,0,0,1-.876-.876v-9.931a.876.876,0,0,1,.876-.876h9.931a.876.876,0,0,1,.876.876v9.931A.876.876,0,0,1,325.307,124.684Z" transform="translate(-314.5 -113)" fill="#2595d3"/>
    </g>
    <g id="Group_4219" data-name="Group 4219" transform="translate(92.107 14.312)">
      <path id="Path_4563" data-name="Path 4563" d="M264.228,53.6H251.376a.876.876,0,0,1-.876-.876V39.876a.876.876,0,0,1,.876-.876h12.852a.876.876,0,0,1,.876.876V52.728A.876.876,0,0,1,264.228,53.6Z" transform="translate(-250.5 -39)" fill="#2595d3"/>
    </g>
    <g id="Group_4221" data-name="Group 4221" transform="translate(132.896 21.907)">
      <path id="Path_4565" data-name="Path 4565" d="M402.228,77.6H389.376a.876.876,0,0,1-.876-.876V63.876a.876.876,0,0,1,.876-.876h12.852a.876.876,0,0,1,.876.876V76.728A.876.876,0,0,1,402.228,77.6Z" transform="translate(-388.5 -63)" fill="#2595d3"/>
    </g>
    <g id="Group_4237" data-name="Group 4237" transform="translate(49.11 100.228)">
      <path id="Path_4575" data-name="Path 4575" d="M120.728,345.6H107.876a.876.876,0,0,1-.876-.876V331.876a.876.876,0,0,1,.876-.876h12.852a.876.876,0,0,1,.876.876v12.852A.876.876,0,0,1,120.728,345.6Z" transform="translate(-107 -331)" fill="#2595d3"/>
    </g>
    <g id="Group_4239" data-name="Group 4239" transform="translate(31 0)">
      <path id="Path_4577" data-name="Path 4577" d="M307,118.5a3.07,3.07,0,0,0,3.067,3.067H320a3.07,3.07,0,0,0,3.067-3.067v-9.931A3.07,3.07,0,0,0,320,105.5h-9.931A3.07,3.07,0,0,0,307,108.567Zm4.381-8.617h7.3v7.3h-7.3Z" transform="translate(-226.107 -74.581)" fill="#526271"/>
      <path id="Path_4578" data-name="Path 4578" d="M122.253,68.926H83a2.191,2.191,0,0,0,0,4.381h39.25a2.191,2.191,0,1,0,0-4.381Z" transform="translate(-66.262 -48.793)" fill="#526271"/>
      <path id="Path_4579" data-name="Path 4579" d="M122.253,110.629H83a2.191,2.191,0,1,0,0,4.381h39.25a2.191,2.191,0,1,0,0-4.381Z" transform="translate(-66.262 -78.215)" fill="#526271"/>
      <path id="Path_4580" data-name="Path 4580" d="M122.253,152.332H83a2.191,2.191,0,1,0,0,4.381h39.25a2.191,2.191,0,1,0,0-4.381Z" transform="translate(-66.262 -107.7)" fill="#526271"/>
      <path id="Path_4581" data-name="Path 4581" d="M100.6,240.119a2.191,2.191,0,1,0,0-4.381H83a2.191,2.191,0,1,0,0,4.381Z" transform="translate(-66.262 -166.668)" fill="#526271"/>
      <path id="Path_4582" data-name="Path 4582" d="M384.067,74.486h12.852a3.07,3.07,0,0,0,3.067-3.067V58.567a3.07,3.07,0,0,0-3.067-3.067H384.067A3.07,3.07,0,0,0,381,58.567V71.419A3.07,3.07,0,0,0,384.067,74.486Zm1.314-14.6H395.6V70.1H385.381Z" transform="translate(-278.373 -39.289)" fill="#526271"/>
      <path id="Path_4583" data-name="Path 4583" d="M233.324,217.281H217.651a2.191,2.191,0,1,0,0,4.381h15.674a2.191,2.191,0,1,0,0-4.381Z" transform="translate(-161.39 -153.619)" fill="#526271"/>
      <circle id="Ellipse_371" data-name="Ellipse 371" cx="2.191" cy="2.191" r="2.191" transform="translate(116.599 63.662)" fill="#526271"/>
      <circle id="Ellipse_372" data-name="Ellipse 372" cx="2.191" cy="2.191" r="2.191" transform="translate(110.465 63.662)" fill="#526271"/>
      <circle id="Ellipse_373" data-name="Ellipse 373" cx="2.191" cy="2.191" r="2.191" transform="translate(104.26 63.662)" fill="#526271"/>
      <path id="Path_4584" data-name="Path 4584" d="M217.65,297.2a2.191,2.191,0,1,0,0,4.381h15.674a2.191,2.191,0,1,0,0-4.381Z" transform="translate(-161.389 -210.123)" fill="#526271"/>
      <circle id="Ellipse_374" data-name="Ellipse 374" cx="2.191" cy="2.191" r="2.191" transform="translate(116.599 87.078)" fill="#526271"/>
      <circle id="Ellipse_375" data-name="Ellipse 375" cx="2.191" cy="2.191" r="2.191" transform="translate(110.465 87.078)" fill="#526271"/>
      <circle id="Ellipse_376" data-name="Ellipse 376" cx="2.191" cy="2.191" r="2.191" transform="translate(104.26 87.078)" fill="#526271"/>
      <path id="Path_4585" data-name="Path 4585" d="M217.65,381.5h15.674a2.191,2.191,0,1,0,0-4.381H217.65a2.191,2.191,0,1,0,0,4.381Z" transform="translate(-161.389 -266.627)" fill="#526271"/>
      <circle id="Ellipse_377" data-name="Ellipse 377" cx="2.191" cy="2.191" r="2.191" transform="translate(116.599 110.494)" fill="#526271"/>
      <circle id="Ellipse_378" data-name="Ellipse 378" cx="2.191" cy="2.191" r="2.191" transform="translate(110.465 110.494)" fill="#526271"/>
      <circle id="Ellipse_379" data-name="Ellipse 379" cx="2.191" cy="2.191" r="2.191" transform="translate(104.26 110.494)" fill="#526271"/>
      <path id="Path_4586" data-name="Path 4586" d="M162.836,55.612a3.666,3.666,0,0,0-3.662-3.662H103.949V44.531a2.2,2.2,0,1,0-4.395,0V51.95h-21.2a3.666,3.666,0,0,0-3.662,3.662v1.234h-26.9a2.2,2.2,0,1,0,0,4.395h26.9V76.1A3.639,3.639,0,0,0,75,77.561a3.639,3.639,0,0,0-.308,1.465v6.837h-39.3V17.022L48.022,4.395H99.555V9.229H96.185A3.08,3.08,0,0,0,93.109,12.3V25.2a3.08,3.08,0,0,0,3.076,3.076h3.369v6.006a2.2,2.2,0,1,0,4.395,0V28.271h5.127a3.08,3.08,0,0,0,3.076-3.076V12.3a3.08,3.08,0,0,0-3.076-3.076h-5.127V3.684A3.688,3.688,0,0,0,100.266,0H47.728a3.658,3.658,0,0,0-2.6,1.079L32.079,14.123A3.659,3.659,0,0,0,31,16.727V86.574a3.688,3.688,0,0,0,3.683,3.683H74.691V99.51A3.639,3.639,0,0,0,75,100.975a3.639,3.639,0,0,0-.308,1.465v20.484A3.639,3.639,0,0,0,75,124.389a3.639,3.639,0,0,0-.308,1.465v20.484A3.666,3.666,0,0,0,78.353,150h80.821a3.666,3.666,0,0,0,3.662-3.662V125.854a3.639,3.639,0,0,0-.308-1.465,3.639,3.639,0,0,0,.308-1.465V102.44a3.639,3.639,0,0,0-.308-1.465,3.639,3.639,0,0,0,.308-1.465V94.629a2.2,2.2,0,1,0-4.395,0v4.149H79.085V79.758h79.356v4.617a2.2,2.2,0,1,0,4.395,0V79.026a3.639,3.639,0,0,0-.308-1.465,3.639,3.639,0,0,0,.308-1.465ZM107.758,23.877H97.5V13.623h10.254Zm50.684,79.3v19.019H142.328a2.2,2.2,0,1,0,0,4.395h16.113v19.02H79.085v-19.02h52.989a2.2,2.2,0,1,0,0-4.395H79.085V103.172ZM79.085,75.363V56.344h79.356V75.363Z" transform="translate(-31 0)" fill="#526271"/>
      <path id="Path_4587" data-name="Path 4587" d="M233.324,457.04H217.651a2.191,2.191,0,1,0,0,4.381h15.674a2.191,2.191,0,1,0,0-4.381Z" transform="translate(-161.39 -323.094)" fill="#526271"/>
      <circle id="Ellipse_380" data-name="Ellipse 380" cx="2.191" cy="2.191" r="2.191" transform="translate(116.599 133.946)" fill="#526271"/>
      <circle id="Ellipse_381" data-name="Ellipse 381" cx="2.191" cy="2.191" r="2.191" transform="translate(110.465 133.946)" fill="#526271"/>
      <circle id="Ellipse_382" data-name="Ellipse 382" cx="2.191" cy="2.191" r="2.191" transform="translate(104.26 133.946)" fill="#526271"/>
      <path id="Path_4588" data-name="Path 4588" d="M115.419,323.5H102.567a3.07,3.07,0,0,0-3.067,3.067v12.852a3.07,3.07,0,0,0,3.067,3.067h12.852a3.07,3.07,0,0,0,3.067-3.067V326.567A3.07,3.07,0,0,0,115.419,323.5ZM114.1,338.1H103.881V327.881H114.1Z" transform="translate(-79.422 -228.684)" fill="#526271"/>
    </g>
  </g>
</svg>
