<svg id="_002-network" data-name="002-network" xmlns="http://www.w3.org/2000/svg" width="150" height="150" viewBox="0 0 150 150">
  <rect id="Rectangle_3972" data-name="Rectangle 3972" width="63" height="5" transform="translate(4 99)" fill="#2595d3"/>
  <rect id="Rectangle_3973" data-name="Rectangle 3973" width="58" height="5" transform="translate(85 99)" fill="#2595d3"/>
  <g id="Group_4733" data-name="Group 4733" transform="translate(60.589 20.932)">
    <ellipse id="Ellipse_455" data-name="Ellipse 455" cx="12.173" cy="14.411" rx="12.173" ry="14.411" fill="#2595d3"/>
  </g>
  <g id="Group_4744" data-name="Group 4744" transform="translate(70.265 77.959)">
    <circle id="Ellipse_456" data-name="Ellipse 456" cx="4.735" cy="4.735" r="4.735" fill="#2595d3"/>
  </g>
  <g id="Group_4745" data-name="Group 4745" transform="translate(0 0)">
    <path id="Path_5218" data-name="Path 5218" d="M216.087,97.162a16.625,16.625,0,0,0,16.441-16.6h0a16.625,16.625,0,0,0-16.407-16.6c-.125-.007-.245-.008-.37,0a16.52,16.52,0,0,0-9.256,2.928,2.2,2.2,0,0,0,2.5,3.618,12.244,12.244,0,0,1,1.519-.893l-.026.075a33.754,33.754,0,0,0-1.444,8.679h-5.134c.052-.287.111-.572.183-.854a2.2,2.2,0,0,0-4.258-1.086,16.761,16.761,0,0,0-.519,4.136h0a16.625,16.625,0,0,0,16.441,16.6c.056,0,.279,0,.335,0Zm-2.649-14.408H218.4c-.294,5.7-1.687,9.038-2.481,9.884C215.124,91.792,213.732,88.455,213.438,82.754Zm7.894,8.749c.008-.024.016-.046.024-.07a33.753,33.753,0,0,0,1.444-8.679h5.132A12.25,12.25,0,0,1,221.331,91.5Zm6.6-13.143H222.8a33.754,33.754,0,0,0-1.444-8.679c-.008-.023-.016-.045-.023-.068A12.25,12.25,0,0,1,227.931,78.359Zm-12.012-9.884c.795.846,2.187,4.183,2.481,9.884h-4.963C213.732,72.659,215.124,69.322,215.919,68.476ZM203.907,82.754h5.132a33.754,33.754,0,0,0,1.444,8.679l.024.07A12.25,12.25,0,0,1,203.907,82.754Z" transform="translate(-140.919 -45.214)" fill="#526270"/>
    <path id="Path_5219" data-name="Path 5219" d="M147.8,136.134h-2.242V99.86A5.163,5.163,0,0,0,140.4,94.7H115.966V82.695a2.2,2.2,0,0,0-2.2-2.2h-32.2A6.963,6.963,0,0,0,77.2,76.121V70.686h2.847A2.2,2.2,0,0,0,82.122,69.2l2.692-7.831a1.241,1.241,0,0,1,1.652-.684l7.441,3.634a2.2,2.2,0,0,0,2.518-.421l7.133-7.133a2.2,2.2,0,0,0,.421-2.518l-3.634-7.441a1.175,1.175,0,0,1-.01-.971l.007-.018a1.164,1.164,0,0,1,.687-.663l7.831-2.692a2.2,2.2,0,0,0,1.483-2.078V30.3a2.2,2.2,0,0,0-1.483-2.078l-7.831-2.692a1.149,1.149,0,0,1-.678-.641l-.022-.054a1.165,1.165,0,0,1,.016-.957l3.634-7.441a2.2,2.2,0,0,0-.421-2.518L96.425,6.785a2.2,2.2,0,0,0-2.518-.421L86.466,10a1.166,1.166,0,0,1-.957.016L85.478,10a1.165,1.165,0,0,1-.665-.687L82.122,1.483A2.2,2.2,0,0,0,80.044,0H69.956a2.2,2.2,0,0,0-2.078,1.483L65.186,9.314a1.165,1.165,0,0,1-.665.688l-.03.012A1.164,1.164,0,0,1,63.534,10L56.093,6.364a2.2,2.2,0,0,0-2.518.421l-7.133,7.133a2.2,2.2,0,0,0-.421,2.518l3.634,7.441a1.166,1.166,0,0,1,.016.957l-.013.03a1.162,1.162,0,0,1-.688.664l-7.831,2.692A2.2,2.2,0,0,0,39.656,30.3V40.388a2.2,2.2,0,0,0,1.483,2.078l7.832,2.692a1.149,1.149,0,0,1,.677.64l.022.054a1.164,1.164,0,0,1-.016.957L46.02,54.251a2.2,2.2,0,0,0,.421,2.518L53.574,63.9a2.2,2.2,0,0,0,2.518.421l7.441-3.634a1.166,1.166,0,0,1,.957-.016l.03.013a1.165,1.165,0,0,1,.664.687L67.878,69.2a2.2,2.2,0,0,0,2.078,1.483H72.8v5.435A6.963,6.963,0,0,0,68.426,80.5H36.231a2.2,2.2,0,0,0-2.2,2.2V94.7H9.595a5.162,5.162,0,0,0-5.156,5.156v36.277H2.2a2.2,2.2,0,0,0-2.2,2.2v6.511A5.162,5.162,0,0,0,5.157,150H67.305a5.163,5.163,0,0,0,5.157-5.157v-6.511a2.2,2.2,0,0,0-2.2-2.2H68.022V116.417a2.2,2.2,0,0,0-4.395,0v19.718H8.833V99.858a.762.762,0,0,1,.762-.762H62.865a.763.763,0,0,1,.762.762v6.3a2.2,2.2,0,0,0,4.395,0v-6.3A5.162,5.162,0,0,0,62.865,94.7H38.428v-9.81h30a6.93,6.93,0,0,0,13.147,0h30V94.7H87.134a5.163,5.163,0,0,0-5.157,5.157v36.274H79.734a2.2,2.2,0,0,0-2.2,2.2v6.513A5.162,5.162,0,0,0,82.693,150h62.15A5.162,5.162,0,0,0,150,144.844v-6.513A2.2,2.2,0,0,0,147.8,136.134ZM69.342,59.943a5.632,5.632,0,0,0-7.736-3.2l-6.032,2.946-4.915-4.915L53.6,48.737a5.545,5.545,0,0,0,.137-4.544l-.021-.052A5.561,5.561,0,0,0,50.4,41l-6.349-2.182V31.867L50.4,29.685a5.632,5.632,0,0,0,3.2-7.736l-2.946-6.031L55.574,11l6.032,2.946a5.631,5.631,0,0,0,7.736-3.2l2.182-6.348h6.952l2.182,6.349a5.632,5.632,0,0,0,7.736,3.2L94.427,11l4.915,4.915L96.4,21.949a5.551,5.551,0,0,0-.132,4.555l.017.041a5.561,5.561,0,0,0,3.32,3.14l6.349,2.182v6.952L99.6,41a5.561,5.561,0,0,0-3.32,3.14l-.01.025a5.561,5.561,0,0,0,.126,4.571l2.946,6.032-4.915,4.915-6.032-2.946a5.632,5.632,0,0,0-7.736,3.2l-2.182,6.348H71.525Zm-1.275,84.9a.763.763,0,0,1-.762.762H5.157a.763.763,0,0,1-.762-.762V140.53H68.067ZM75,85.233a2.538,2.538,0,1,1,2.538-2.538A2.541,2.541,0,0,1,75,85.233Zm70.605,59.611a.762.762,0,0,1-.762.762H82.693a.763.763,0,0,1-.762-.762v-4.315h46.33a2.2,2.2,0,0,0,0-4.395H86.372V99.86a.763.763,0,0,1,.762-.762H140.4a.763.763,0,0,1,.762.762v36.274h-2.651a2.2,2.2,0,0,0,0,4.395h7.09Z" transform="translate(0 0)" fill="#526270"/>
  </g>
</svg>
