<svg xmlns="http://www.w3.org/2000/svg" width="142.543" height="150" viewBox="0 0 142.543 150">
  <g id="_003-data_gathering" data-name="003-data gathering" transform="translate(-13.24)">
    <g id="Group_4262" data-name="Group 4262" transform="translate(13.24 67.23)">
      <g id="Group_4256" data-name="Group 4256" transform="translate(0 0)">
        <g id="Group_4251" data-name="Group 4251" transform="translate(108.14 0)">
          <g id="Group_4249" data-name="Group 4249" transform="translate(0)">
            <g id="Group_4248" data-name="Group 4248">
              <path id="Path_4598" data-name="Path 4598" d="M399.343,219.618l-5.227,5.227a.878.878,0,0,0-.257.621v28.445a.878.878,0,0,0,.878.878h26.53a.878.878,0,0,0,.878-.878V220.239a.878.878,0,0,0-.878-.878h-21.3A.877.877,0,0,0,399.343,219.618Z" transform="translate(-393.859 -219.361)" fill="#2595d3"/>
            </g>
          </g>
        </g>
        <g id="Group_4255" data-name="Group 4255" transform="translate(0 0.98)">
          <g id="Group_4253" data-name="Group 4253">
            <g id="Group_4252" data-name="Group 4252">
              <path id="Path_4600" data-name="Path 4600" d="M26.984,219.618l-5.227,5.227a.878.878,0,0,0-.257.621v28.445a.878.878,0,0,0,.878.878h26.53a.878.878,0,0,0,.878-.878V220.239a.878.878,0,0,0-.878-.878h-21.3A.877.877,0,0,0,26.984,219.618Z" transform="translate(-21.5 -219.361)" fill="#2595d3"/>
            </g>
          </g>
        </g>
      </g>
    </g>
    <g id="Group_4265" data-name="Group 4265" transform="translate(62.915 5.136)">
      <g id="Group_4263" data-name="Group 4263" transform="translate(0 0)">
        <path id="Path_4606" data-name="Path 4606" d="M198.466,7.757l-7.209,7.209a.878.878,0,0,0-.257.621V54.279a.878.878,0,0,0,.878.878h36.294a.878.878,0,0,0,.878-.878V8.378a.878.878,0,0,0-.878-.878H199.087a.878.878,0,0,0-.621.257Z" transform="translate(-191 -7.5)" fill="#2595d3"/>
      </g>
      <g id="Group_4264" data-name="Group 4264">
        <path id="Path_4607" data-name="Path 4607" d="M199.781,54.278V15.586a.878.878,0,0,1,.257-.621l7.209-7.209a.878.878,0,0,1,.621-.257h-8.781a.877.877,0,0,0-.621.257l-7.209,7.209a.878.878,0,0,0-.257.621V54.278a.878.878,0,0,0,.878.878h8.781A.878.878,0,0,1,199.781,54.278Z" transform="translate(-191 -7.499)" fill="#2595d3"/>
      </g>
    </g>
    <g id="Group_4266" data-name="Group 4266" transform="translate(13.986 0)">
      <path id="Path_4608" data-name="Path 4608" d="M153.6,78.369a2.2,2.2,0,0,0,2.2-2.2V65.145a3.078,3.078,0,0,0-2.853-3.065V44.44a6.546,6.546,0,0,0-6.55-6.55H123.04V24.129a2.2,2.2,0,0,0-4.395,0V37.89H106.14V31.055a2.2,2.2,0,0,0-4.395,0V47.7H68.054V10.838L74.5,4.395h27.248V20.8a2.2,2.2,0,0,0,4.395,0V3.076A3.08,3.08,0,0,0,103.064,0H73.951a3.056,3.056,0,0,0-2.175.9L64.56,8.116a3.056,3.056,0,0,0-.9,2.175v27.6H51.848V24.129a2.2,2.2,0,0,0-4.395,0V37.89H23.4a6.546,6.546,0,0,0-6.55,6.55V66.25L14.9,68.2a3.055,3.055,0,0,0-.9,2.176V98.848a3.078,3.078,0,0,0,2.853,3.065v17.823a5.133,5.133,0,0,0,5.127,5.127H65.6v11.184H53.892a6.6,6.6,0,0,0-6.592,6.592v2.234A5.133,5.133,0,0,0,52.427,150h64.946a5.133,5.133,0,0,0,5.127-5.127v-2.234a6.6,6.6,0,0,0-6.592-6.592H104.2V124.863h43.622a5.133,5.133,0,0,0,5.127-5.127V101.913a3.078,3.078,0,0,0,2.853-3.065V86.426a2.2,2.2,0,0,0-4.395,0v11.1H127.485V70.923l4.46-4.46H151.4v9.709A2.2,2.2,0,0,0,153.6,78.369Zm-68.7,15.9a2.191,2.191,0,0,0,1.554-.644l5.181-5.181a2.2,2.2,0,0,0-3.108-3.107l-1.43,1.43V73.31h20.215V99.569H62.488V73.31H82.7V86.767l-1.43-1.43a2.2,2.2,0,0,0-3.107,3.107l5.181,5.181a2.188,2.188,0,0,0,1.553.643ZM62.487,68.915V65.97H75.962L77.2,68.915ZM18.4,70.923l4.46-4.46H42.314V97.53H18.4Zm97.512,69.519a2.2,2.2,0,0,1,2.2,2.2v2.234a.733.733,0,0,1-.732.732H52.427a.733.733,0,0,1-.732-.732v-2.234a2.2,2.2,0,0,1,2.2-2.2H85.485a2.2,2.2,0,1,0,0-4.395H70V124.863H99.8v11.184H95.739a2.2,2.2,0,1,0,0,4.395Zm32.644-20.7a.733.733,0,0,1-.732.732H21.98a.733.733,0,0,1-.732-.732V113.3h127.3v6.434Zm0-57.668H131.4a3.056,3.056,0,0,0-2.175.9L123.993,68.2a3.055,3.055,0,0,0-.9,2.176V98.848a3.08,3.08,0,0,0,3.076,3.076h22.384v6.983H21.248v-6.983H43.632a3.08,3.08,0,0,0,3.076-3.076v-33.7a3.08,3.08,0,0,0-3.076-3.076H22.309a3.076,3.076,0,0,0-1.061.191V44.44A2.158,2.158,0,0,1,23.4,42.284h24.05v9.7l-1.43-1.43a2.2,2.2,0,0,0-3.107,3.107L48.1,58.841a2.2,2.2,0,0,0,3.107,0l5.181-5.181a2.2,2.2,0,1,0-3.107-3.107l-1.43,1.43v-9.7H63.659V49.02A3.08,3.08,0,0,0,66.735,52.1H82.7V68.915h-.737L79.75,63.64a3.361,3.361,0,0,0-3.106-2.065H61.462a3.373,3.373,0,0,0-3.369,3.369v35.943a3.08,3.08,0,0,0,3.076,3.076H108.63a3.08,3.08,0,0,0,3.076-3.076v-28.9a3.08,3.08,0,0,0-3.076-3.076H87.1V52.1h15.967a3.08,3.08,0,0,0,3.076-3.076V42.284h12.505v9.7l-1.43-1.43a2.2,2.2,0,0,0-3.108,3.107l5.181,5.181a2.2,2.2,0,0,0,3.108,0l5.181-5.181a2.2,2.2,0,1,0-3.108-3.107l-1.43,1.43v-9.7H146.4a2.157,2.157,0,0,1,2.155,2.155V62.069Z" transform="translate(-14.001 0)" fill="#526271"/>
      <path id="Path_4609" data-name="Path 4609" d="M428.486,239.82H416.641a2.2,2.2,0,1,0,0,4.39h11.844a2.2,2.2,0,1,0,0-4.39Z" transform="translate(-297.105 -169.558)" fill="#526271"/>
      <path id="Path_4610" data-name="Path 4610" d="M428.486,261.431H416.641a2.2,2.2,0,1,0,0,4.39h11.844a2.2,2.2,0,1,0,0-4.39Z" transform="translate(-297.105 -184.838)" fill="#526271"/>
      <path id="Path_4611" data-name="Path 4611" d="M430.681,285.43a2.2,2.2,0,0,0-2.2-2.2H416.641a2.2,2.2,0,1,0,0,4.391h11.844A2.2,2.2,0,0,0,430.681,285.43Z" transform="translate(-297.105 -200.254)" fill="#526271"/>
      <path id="Path_4612" data-name="Path 4612" d="M416.641,304.943a2.2,2.2,0,0,0,0,4.39h5.31a2.2,2.2,0,0,0,0-4.39Z" transform="translate(-297.105 -215.602)" fill="#526271"/>
      <path id="Path_4613" data-name="Path 4613" d="M56.127,239.82H44.282a2.2,2.2,0,0,0,0,4.39H56.126a2.2,2.2,0,0,0,0-4.39Z" transform="translate(-33.866 -169.558)" fill="#526271"/>
      <path id="Path_4614" data-name="Path 4614" d="M56.127,261.431H44.282a2.2,2.2,0,1,0,0,4.39H56.126a2.2,2.2,0,0,0,0-4.39Z" transform="translate(-33.866 -184.838)" fill="#526271"/>
      <path id="Path_4615" data-name="Path 4615" d="M56.127,283.235H44.282a2.2,2.2,0,0,0,0,4.391H56.126a2.2,2.2,0,0,0,0-4.391Z" transform="translate(-33.866 -200.254)" fill="#526271"/>
      <path id="Path_4616" data-name="Path 4616" d="M49.593,304.943H44.283a2.2,2.2,0,1,0,0,4.39h5.309a2.2,2.2,0,1,0,0-4.39Z" transform="translate(-33.867 -215.602)" fill="#526271"/>
      <path id="Path_4617" data-name="Path 4617" d="M234.94,36.072h-.585V25.7a2.2,2.2,0,0,0-4.39,0V36.072h-1.171v-6.6a2.2,2.2,0,1,0-4.39,0v6.6h-1.171V27.2a2.2,2.2,0,0,0-4.39,0v8.868h-1.171V31.73a2.2,2.2,0,1,0-4.39,0v4.342H212.7a2.2,2.2,0,0,0,0,4.39H234.94a2.2,2.2,0,1,0,0-4.39Z" transform="translate(-152.919 -16.622)" fill="#526271"/>
      <path id="Path_4618" data-name="Path 4618" d="M213.9,91.5H212.7a2.2,2.2,0,0,0,0,4.39H213.9a2.2,2.2,0,1,0,0-4.39Z" transform="translate(-152.929 -64.693)" fill="#526271"/>
      <path id="Path_4619" data-name="Path 4619" d="M213.9,113H212.7a2.2,2.2,0,0,0,0,4.39H213.9a2.2,2.2,0,1,0,0-4.39Z" transform="translate(-152.929 -79.894)" fill="#526271"/>
      <path id="Path_4620" data-name="Path 4620" d="M213.9,134.5H212.7a2.2,2.2,0,0,0,0,4.39H213.9a2.2,2.2,0,0,0,0-4.39Z" transform="translate(-152.929 -95.095)" fill="#526271"/>
      <path id="Path_4621" data-name="Path 4621" d="M250.716,91.5H235a2.2,2.2,0,1,0,0,4.39h15.717a2.2,2.2,0,1,0,0-4.39Z" transform="translate(-168.691 -64.693)" fill="#526271"/>
      <path id="Path_4622" data-name="Path 4622" d="M250.716,113H235a2.2,2.2,0,1,0,0,4.39h15.717a2.2,2.2,0,1,0,0-4.39Z" transform="translate(-168.691 -79.894)" fill="#526271"/>
      <path id="Path_4623" data-name="Path 4623" d="M250.716,134.5H235a2.2,2.2,0,1,0,0,4.39h15.717a2.2,2.2,0,1,0,0-4.39Z" transform="translate(-168.691 -95.095)" fill="#526271"/>
    </g>
  </g>
</svg>
