<svg xmlns="http://www.w3.org/2000/svg" width="179.829" height="149.998" viewBox="0 0 179.829 149.998">
  <g id="_005-investment" data-name="005-investment" transform="translate(0 -42.467)">
    <g id="Group_4213" data-name="Group 4213" transform="translate(54.684 96.468)">
      <g id="Group_4202" data-name="Group 4202" transform="translate(0 3.273)">
        <g id="Group_4196" data-name="Group 4196" transform="translate(45.084 45.085)">
          <path id="Path_4548" data-name="Path 4548" d="M312.721,340,299.615,326.9a28.526,28.526,0,0,1-6.56,6.56l13.106,13.106Z" transform="translate(-293.055 -326.897)" fill="#2595d3"/>
        </g>
        <g id="Group_4197" data-name="Group 4197" transform="translate(56.957 56.792)">
          <path id="Path_4549" data-name="Path 4549" d="M355.608,388.978a7.236,7.236,0,0,1-10.233,0L327.4,371a1.855,1.855,0,0,1,0-2.624l7.609-7.609a1.855,1.855,0,0,1,2.624,0l17.973,17.973A7.236,7.236,0,0,1,355.608,388.978Z" transform="translate(-326.859 -360.229)" fill="#2595d3"/>
        </g>
        <g id="Group_4199" data-name="Group 4199">
          <circle id="Ellipse_365" data-name="Ellipse 365" cx="28.643" cy="28.643" r="28.643" fill="#2595d3"/>
        </g>
        <g id="Group_4200" data-name="Group 4200" transform="translate(11.341 5.721)">
          <circle id="Ellipse_366" data-name="Ellipse 366" cx="20.463" cy="20.463" r="20.463" fill="#fff"/>
        </g>
      </g>
      <g id="Group_4209" data-name="Group 4209" transform="translate(55.86 0)">
        <g id="Group_4203" data-name="Group 4203" transform="translate(31 21.418)">
          <circle id="Ellipse_367" data-name="Ellipse 367" cx="7.116" cy="7.116" r="7.116" fill="#2595d3"/>
        </g>
        <g id="Group_4205" data-name="Group 4205">
          <circle id="Ellipse_368" data-name="Ellipse 368" cx="7.116" cy="7.116" r="7.116" fill="#2595d3"/>
        </g>
        <g id="Group_4207" data-name="Group 4207" transform="translate(52.418)">
          <circle id="Ellipse_369" data-name="Ellipse 369" cx="7.116" cy="7.116" r="7.116" fill="#2595d3"/>
        </g>
      </g>
      <g id="Group_4211" data-name="Group 4211" transform="translate(24.687 22.443)">
        <g id="Group_4210" data-name="Group 4210">
          <circle id="Ellipse_370" data-name="Ellipse 370" cx="7.116" cy="7.116" r="7.116" fill="#2595d3"/>
        </g>
      </g>
    </g>
    <g id="Group_4214" data-name="Group 4214" transform="translate(0 42.467)">
      <path id="Path_4557" data-name="Path 4557" d="M87.48,369.571h5.145a2.021,2.021,0,1,1,0,4.042H83.56a2.634,2.634,0,0,0,0,5.268h3.858v2.144a2.634,2.634,0,1,0,5.268,0v-2.147a7.288,7.288,0,0,0-.061-14.576H87.48a2.021,2.021,0,1,1,0-4.042h9.066a2.634,2.634,0,1,0,0-5.268H92.687v-2.144a2.634,2.634,0,1,0-5.268,0v2.147a7.288,7.288,0,0,0,.061,14.576Z" transform="translate(-52.026 -242.125)" fill="#526271"/>
      <path id="Path_4558" data-name="Path 4558" d="M170.078,93.834a9.746,9.746,0,0,0-8.068,15.22l-7.881,7.881a9.728,9.728,0,0,0-12.531,1.355l-15.008-10.8a9.749,9.749,0,1,0-18.67-4.326,31.25,31.25,0,0,0-24.595-8.361L77.95,90.852A7.524,7.524,0,0,0,78.4,80.53a7.537,7.537,0,0,0-3.992-12.268l9.246-17.571a4.121,4.121,0,0,0-3.646-6.04H72.065a4.088,4.088,0,0,0-3.633-2.185H54.658a4.087,4.087,0,0,0-3.633,2.185H43.084a4.121,4.121,0,0,0-3.647,6.039l9.246,17.572A7.537,7.537,0,0,0,44.692,80.53a7.524,7.524,0,0,0,.448,10.322L26.608,104.486H5.561A5.569,5.569,0,0,0,0,110.048v4.558a5.52,5.52,0,0,0,.842,2.927A5.52,5.52,0,0,0,0,120.46v4.558a5.52,5.52,0,0,0,.842,2.927A5.52,5.52,0,0,0,0,130.873v4.558a5.52,5.52,0,0,0,.842,2.927A5.52,5.52,0,0,0,0,141.285v4.558a5.52,5.52,0,0,0,.842,2.927A5.52,5.52,0,0,0,0,151.7v4.558a5.52,5.52,0,0,0,.842,2.927A5.52,5.52,0,0,0,0,162.109v4.558a5.52,5.52,0,0,0,.842,2.927A5.52,5.52,0,0,0,0,172.521v4.558a5.568,5.568,0,0,0,5.561,5.561H18.089a25.144,25.144,0,0,0,39.876,0H70.246a2.634,2.634,0,1,0,0-5.268H61.095A25.167,25.167,0,0,0,42.15,142.437v-1.152a5.52,5.52,0,0,0-.842-2.927,5.52,5.52,0,0,0,.842-2.927v-4.558a5.52,5.52,0,0,0-.842-2.927,5.52,5.52,0,0,0,.842-2.927v-4.558a5.52,5.52,0,0,0-.842-2.927,5.52,5.52,0,0,0,.842-2.927v-4.558a5.568,5.568,0,0,0-5.561-5.561H35.5L51.1,93.007H71.987l4.472,3.29a31.275,31.275,0,1,0,26.389,56.274l7.878,7.878a19.667,19.667,0,0,1-19.477,16.924h-8.71a2.634,2.634,0,1,0,0,5.268h8.71A24.894,24.894,0,0,0,114.2,167.433l17.253,17.252a9.87,9.87,0,1,0,13.958-13.958l-3.848-3.848a2.634,2.634,0,1,0-3.725,3.725l3.847,3.848a4.6,4.6,0,0,1-6.508,6.507l-17.422-17.422,6.508-6.507,4.882,4.882a2.634,2.634,0,1,0,3.725-3.725l-5.433-5.432a4.487,4.487,0,0,0-4.835-1l-9.473-9.473a31.228,31.228,0,0,0,1.808-29.339,9.715,9.715,0,0,0,8.3-1.372L139.118,123a9.751,9.751,0,1,0,18.42-2.018l8.516-8.516a9.749,9.749,0,1,0,4.025-18.628ZM5.268,130.873a.293.293,0,0,1,.293-.293H36.589a.293.293,0,0,1,.293.293v4.558a.293.293,0,0,1-.293.293H5.561a.293.293,0,0,1-.293-.293Zm0,10.412a.293.293,0,0,1,.293-.293H36.589a.293.293,0,0,1,.293.293v.838a25.018,25.018,0,0,0-12.513,4.012H5.561a.293.293,0,0,1-.293-.293Zm0,20.824a.293.293,0,0,1,.293-.293h7.884a25.148,25.148,0,0,0-.6,5.144H5.561a.293.293,0,0,1-.293-.293Zm.293,15.263a.293.293,0,0,1-.293-.293v-4.558a.293.293,0,0,1,.293-.293h7.771a24.974,24.974,0,0,0,1.627,5.144Zm9.687-20.824H5.561a.293.293,0,0,1-.293-.293V151.7a.293.293,0,0,1,.293-.293H18.494a25.247,25.247,0,0,0-3.245,5.144Zm42.7,10.732a19.917,19.917,0,1,1-19.917-19.917A19.94,19.94,0,0,1,57.944,167.279ZM36.882,110.048v4.558a.293.293,0,0,1-.293.293H30.206a2.634,2.634,0,0,0,0,5.268h6.383a.293.293,0,0,1,.293.293v4.558a.293.293,0,0,1-.293.293H5.561a.293.293,0,0,1-.293-.293V120.46a.293.293,0,0,1,.293-.293H17.913a2.634,2.634,0,1,0,0-5.268H5.561a.293.293,0,0,1-.293-.293v-4.558a.293.293,0,0,1,.293-.293H36.589a.293.293,0,0,1,.293.293ZM71.962,49.92H78.1L68.562,68.055H68.3Zm-4.933-2.185-4.1,20.32H60.161l-4.1-20.32ZM44.985,49.92h6.142l3.659,18.135h-.258Zm5.427,23.4H72.678a2.286,2.286,0,1,1,0,4.573H50.412a2.286,2.286,0,1,1,0-4.573Zm0,9.841H72.678a2.286,2.286,0,1,1,0,4.573H50.412a2.286,2.286,0,1,1,0-4.573Zm10.067,42.76a25.992,25.992,0,0,1,45.057-17.684l-2.316,1.787a23.061,23.061,0,1,0,3.175,4.2l2.325-1.793a26.006,26.006,0,1,1-48.24,13.486Zm30.491.1a4.482,4.482,0,1,1-4.482-4.482A4.487,4.487,0,0,1,90.97,126.027Zm1.49-7.7A9.742,9.742,0,1,0,95.6,122.56l6.586-5.081a17.884,17.884,0,1,1-3.16-4.216Zm26.161,36.9-2.834,2.834L107.13,149.4a31.551,31.551,0,0,0,2.834-2.834Zm-.961-47.158a4.482,4.482,0,1,1,4.482-4.482A4.487,4.487,0,0,1,117.66,108.066Zm31,21.419A4.482,4.482,0,1,1,153.142,125,4.487,4.487,0,0,1,148.66,129.485Zm21.418-21.419a4.482,4.482,0,1,1,4.482-4.482A4.487,4.487,0,0,1,170.078,108.066Z" transform="translate(0 -42.467)" fill="#526271"/>
    </g>
  </g>
</svg>
