<svg xmlns="http://www.w3.org/2000/svg" width="177.846" height="150" viewBox="0 0 177.846 150">
  <g id="_006-forecast_analytics" data-name="006-forecast analytics" transform="translate(0 -40.083)">
    <g id="Group_4398" data-name="Group 4398" transform="translate(9.36 47.095)">
      <g id="Group_4396" data-name="Group 4396" transform="translate(0 0)">
        <path id="Path_4772" data-name="Path 4772" d="M201.044,66.4H39.57V51.063a3.477,3.477,0,0,1,3.475-3.48H197.57a3.477,3.477,0,0,1,3.475,3.48Z" transform="translate(-39.57 -47.583)" fill="#2595d3"/>
      </g>
    </g>
    <g id="Group_4421" data-name="Group 4421" transform="translate(89.441 137.804)">
      <g id="Group_4420" data-name="Group 4420" transform="translate(0 0)">
        <g id="Group_4416" data-name="Group 4416" transform="translate(0 19.369)">
          <path id="Path_4785" data-name="Path 4785" d="M276.9,389.071h-9.1V370.745a1.043,1.043,0,0,1,1.043-1.043h7.016a1.043,1.043,0,0,1,1.043,1.043Z" transform="translate(-267.799 -369.702)" fill="#2595d3"/>
        </g>
        <g id="Group_4417" data-name="Group 4417" transform="translate(17.53)">
          <path id="Path_4786" data-name="Path 4786" d="M327.3,352.753h-9.1V315.058a1.043,1.043,0,0,1,1.043-1.043h7.016a1.043,1.043,0,0,1,1.043,1.043v37.694Z" transform="translate(-318.2 -314.015)" fill="#2595d3"/>
        </g>
        <g id="Group_4418" data-name="Group 4418" transform="translate(35.061 23.243)">
          <path id="Path_4787" data-name="Path 4787" d="M377.705,396.334h-9.1V381.882a1.043,1.043,0,0,1,1.043-1.043h7.016a1.043,1.043,0,0,1,1.043,1.043Z" transform="translate(-368.603 -380.839)" fill="#2595d3"/>
        </g>
        <g id="Group_4419" data-name="Group 4419" transform="translate(52.592 7.747)">
          <path id="Path_4788" data-name="Path 4788" d="M428.107,367.28H419V337.332a1.043,1.043,0,0,1,1.043-1.043h7.016a1.043,1.043,0,0,1,1.043,1.043Z" transform="translate(-419.005 -336.289)" fill="#2595d3"/>
        </g>
      </g>
    </g>
    <g id="Group_4422" data-name="Group 4422" transform="translate(0 40.083)">
      <path id="Path_4789" data-name="Path 4789" d="M175.241,144.087a2.605,2.605,0,0,0,2.605-2.605V46.163a6.087,6.087,0,0,0-6.08-6.08H139.29a2.605,2.605,0,0,0,0,5.21h32.476a.871.871,0,0,1,.87.87V58.878H16.35V46.163a.871.871,0,0,1,.87-.87H127.132a2.605,2.605,0,1,0,0-5.21H17.22a6.087,6.087,0,0,0-6.08,6.08V98.085H4.345A4.35,4.35,0,0,0,0,102.43v12.53a4.35,4.35,0,0,0,4.345,4.345H11.14v62.962a7.824,7.824,0,0,0,7.816,7.815H170.031a7.824,7.824,0,0,0,7.816-7.815V153.639a2.605,2.605,0,0,0-5.21,0v28.628a2.608,2.608,0,0,1-2.605,2.605H79.243l-8.34-43.68a10.41,10.41,0,0,0,1.83-5.905v-1.364h3.312A7.835,7.835,0,0,0,83.87,126.1v-3.036H96.085a4.351,4.351,0,0,0,4.323,3.9h24.712a4.35,4.35,0,0,0,4.345-4.345V94.773a4.35,4.35,0,0,0-4.345-4.345H100.408a4.351,4.351,0,0,0-4.323,3.9H70.513a2.605,2.605,0,1,0,0,5.21H96.062v18.313H41.935a.876.876,0,0,1-.875-.875V100.414a.876.876,0,0,1,.875-.876H58.356a2.605,2.605,0,1,0,0-5.21H41.935a6.093,6.093,0,0,0-5.62,3.757H16.35v-34H172.636v77.394a2.605,2.605,0,0,0,2.605,2.605ZM101.273,95.638h22.982v14.629H101.273Zm0,19.839h22.982v6.275H101.273ZM71.1,169.992l2.841,14.881H50.305l2.841-14.881ZM57.952,144.825a10.446,10.446,0,0,0,8.362.116l3.788,19.84H54.142ZM57,135.288v-1.364H67.522v1.364a5.26,5.26,0,1,1-10.519,0Zm-4.458-12.226H78.659V126.1a2.619,2.619,0,0,1-2.616,2.616h-23.5Zm-10.61,0h5.4v6.516a4.35,4.35,0,0,0,4.345,4.345h.112v1.364a10.4,10.4,0,0,0,1.612,5.572L45,184.873H18.955a2.608,2.608,0,0,1-2.605-2.605V123.9a9.72,9.72,0,0,0,15.142-4.593h4.822a6.094,6.094,0,0,0,5.621,3.757Zm-24.2-6.884a4.53,4.53,0,1,1,4.53,4.53A4.535,4.535,0,0,1,17.74,116.178ZM35.85,103.3v10.8H31.784a9.739,9.739,0,0,0-19.027,0H5.21V103.3Z" transform="translate(0 -40.083)" fill="#526271"/>
      <path id="Path_4790" data-name="Path 4790" d="M70.6,66.9a2.609,2.609,0,1,0,0,5.217H85.562a2.609,2.609,0,0,0,0-5.217Z" transform="translate(-44.342 -57.573)" fill="#526271"/>
      <path id="Path_4791" data-name="Path 4791" d="M458.792,69.507a2.61,2.61,0,1,0-2.61,2.61A2.61,2.61,0,0,0,458.792,69.507Z" transform="translate(-296.048 -57.571)" fill="#526271"/>
      <path id="Path_4792" data-name="Path 4792" d="M437.782,69.507a2.61,2.61,0,1,0-2.61,2.61A2.61,2.61,0,0,0,437.782,69.507Z" transform="translate(-282.346 -57.571)" fill="#526271"/>
      <path id="Path_4793" data-name="Path 4793" d="M416.772,69.507a2.61,2.61,0,1,0-2.61,2.61A2.61,2.61,0,0,0,416.772,69.507Z" transform="translate(-268.644 -57.571)" fill="#526271"/>
      <path id="Path_4794" data-name="Path 4794" d="M156.8,134.717H114.534a7.65,7.65,0,0,0-14.505,0H79.4a7.653,7.653,0,1,0-.127,5.217h20.878a7.649,7.649,0,0,0,14.252,0h42.517a7.651,7.651,0,1,0-.127-5.217Zm-84.646,4.869a2.435,2.435,0,1,1,2.435-2.435A2.437,2.437,0,0,1,72.151,139.587Zm35.13,0a2.435,2.435,0,1,1,2.435-2.435A2.437,2.437,0,0,1,107.281,139.587Zm59.2-2.435a2.435,2.435,0,1,1-2.435-2.435A2.437,2.437,0,0,1,166.485,137.152Z" transform="translate(-42.065 -98.445)" fill="#526271"/>
      <path id="Path_4795" data-name="Path 4795" d="M259.272,325.884h-7.016a3.656,3.656,0,0,0-3.652,3.652v15.717h-3.628a2.609,2.609,0,0,0,0,5.217h74.169a2.609,2.609,0,0,0,0-5.217h-3.628V317.914a3.656,3.656,0,0,0-3.652-3.652h-7.016a3.656,3.656,0,0,0-3.652,3.652v27.338h-3.211V333.41a3.656,3.656,0,0,0-3.652-3.652h-7.016a3.656,3.656,0,0,0-3.652,3.652v11.843h-3.211V310.167a3.656,3.656,0,0,0-3.652-3.652h-7.016a3.656,3.656,0,0,0-3.652,3.652v35.086h-3.211V329.536A3.657,3.657,0,0,0,259.272,325.884Zm-1.565,19.369h-3.885V331.1h3.885Zm48.707-25.773H310.3v25.773h-3.885Zm-17.53,15.495h3.885v10.278h-3.885Zm-17.531-23.243h3.885v33.521h-3.885Z" transform="translate(-158.304 -214.045)" fill="#526271"/>
      <path id="Path_4796" data-name="Path 4796" d="M418.413,163.147H397.186a2.609,2.609,0,1,0,0,5.217h21.227a2.609,2.609,0,0,0,0-5.217Z" transform="translate(-257.573 -120.402)" fill="#526271"/>
      <path id="Path_4797" data-name="Path 4797" d="M418.413,191.161H397.186a2.609,2.609,0,1,0,0,5.217h21.227a2.609,2.609,0,1,0,0-5.217Z" transform="translate(-257.573 -138.686)" fill="#526271"/>
      <path id="Path_4798" data-name="Path 4798" d="M418.413,219.174H397.186a2.609,2.609,0,1,0,0,5.217h21.227a2.609,2.609,0,0,0,0-5.217Z" transform="translate(-257.573 -156.969)" fill="#526271"/>
      <path id="Path_4799" data-name="Path 4799" d="M418.413,247.187H397.186a2.609,2.609,0,1,0,0,5.217h21.227a2.609,2.609,0,1,0,0-5.217Z" transform="translate(-257.573 -175.252)" fill="#526271"/>
      <path id="Path_4800" data-name="Path 4800" d="M418.413,275.2H397.186a2.609,2.609,0,1,0,0,5.217h21.227a2.609,2.609,0,0,0,0-5.217Z" transform="translate(-257.573 -193.535)" fill="#526271"/>
    </g>
  </g>
</svg>
