<svg xmlns="http://www.w3.org/2000/svg" width="172.569" height="150" viewBox="0 0 172.569 150">
  <g id="_007-protection" data-name="007-protection" transform="translate(0 -33.479)">
    <g id="Group_4646" data-name="Group 4646" transform="translate(159.19 97.733)">
      <circle id="Ellipse_430" data-name="Ellipse 430" cx="5.43" cy="5.43" r="5.43" fill="#2595d3"/>
    </g>
    <g id="Group_4647" data-name="Group 4647" transform="translate(155.796 75.937)">
      <circle id="Ellipse_431" data-name="Ellipse 431" cx="5.43" cy="5.43" r="5.43" fill="#2595d3"/>
    </g>
    <g id="Group_4648" data-name="Group 4648" transform="translate(155.796 119.528)">
      <circle id="Ellipse_432" data-name="Ellipse 432" cx="5.43" cy="5.43" r="5.43" fill="#2595d3"/>
    </g>
    <g id="Group_4649" data-name="Group 4649" transform="translate(2.52 97.733)">
      <circle id="Ellipse_433" data-name="Ellipse 433" cx="5.43" cy="5.43" r="5.43" fill="#2595d3"/>
    </g>
    <g id="Group_4650" data-name="Group 4650" transform="translate(5.913 75.937)">
      <circle id="Ellipse_434" data-name="Ellipse 434" cx="5.43" cy="5.43" r="5.43" fill="#2595d3"/>
    </g>
    <g id="Group_4651" data-name="Group 4651" transform="translate(5.913 119.528)">
      <circle id="Ellipse_435" data-name="Ellipse 435" cx="5.43" cy="5.43" r="5.43" fill="#2595d3"/>
    </g>
    <g id="Group_4654" data-name="Group 4654" transform="translate(55.728 101.797)">
      <path id="Path_5138" data-name="Path 5138" d="M217.173,255.391H168.149a3.007,3.007,0,0,1-3.064-2.947V222.971a3.007,3.007,0,0,1,3.064-2.947h49.024a3.007,3.007,0,0,1,3.064,2.947v29.472A3.007,3.007,0,0,1,217.173,255.391Z" transform="translate(-165.085 -220.024)" fill="#2595d3"/>
    </g>
    <g id="Group_4656" data-name="Group 4656" transform="translate(80.855 107.268)">
      <circle id="Ellipse_436" data-name="Ellipse 436" cx="5.43" cy="5.43" r="5.43" fill="#2595d3"/>
    </g>
    <g id="Group_4657" data-name="Group 4657" transform="translate(0 33.48)">
      <path id="Path_5140" data-name="Path 5140" d="M146.694,105.692h10.337a7.976,7.976,0,1,0,0-5.056H146.694V83.9h6.932a7.976,7.976,0,1,0,0-5.056h-6.932V61.8a2.528,2.528,0,0,0-1.5-2.309L87.314,33.7a2.527,2.527,0,0,0-2.058,0L27.374,59.493a2.528,2.528,0,0,0-1.5,2.309v4.112a2.528,2.528,0,0,0,5.056,0V63.443L86.285,38.775l55.353,24.668v42.415a72.928,72.928,0,0,1-31.817,60.256l-13.475,9.2a17.835,17.835,0,0,1-20.122,0l-13.475-9.2a72.927,72.927,0,0,1-31.817-60.256V77.711a2.528,2.528,0,0,0-5.056,0v1.135H18.943a7.976,7.976,0,1,0,0,5.056h6.933v16.734H15.538a7.976,7.976,0,1,0,0,5.056H25.875v.166a78.07,78.07,0,0,0,1.776,16.569H18.943a7.976,7.976,0,1,0,0,5.056h9.99A77.981,77.981,0,0,0,59.9,170.289l13.475,9.2a22.882,22.882,0,0,0,25.825,0l13.475-9.2a77.983,77.983,0,0,0,30.964-42.807h9.99a7.976,7.976,0,1,0,0-5.056h-8.709a78.073,78.073,0,0,0,1.776-16.569v-.165Zm17.9-5.447a2.92,2.92,0,1,1-2.919,2.92A2.923,2.923,0,0,1,164.593,100.244Zm-3.4-21.791a2.92,2.92,0,1,1-2.92,2.92A2.923,2.923,0,0,1,161.189,78.454ZM11.38,84.293a2.92,2.92,0,1,1,2.92-2.92A2.923,2.923,0,0,1,11.38,84.293Zm-3.4,21.791a2.92,2.92,0,1,1,2.92-2.92A2.923,2.923,0,0,1,7.976,106.084Zm3.4,21.79a2.92,2.92,0,1,1,2.92-2.92A2.923,2.923,0,0,1,11.38,127.874Zm149.808-5.839a2.92,2.92,0,1,1-2.92,2.92A2.923,2.923,0,0,1,161.189,122.034Z" transform="translate(0 -33.48)" fill="#526271"/>
      <path id="Path_5141" data-name="Path 5141" d="M205.026,100.621a2.531,2.531,0,0,0,2.534-2.529V90.029a2.529,2.529,0,0,0-1.5-2.31L158.132,66.4a2.537,2.537,0,0,0-2.062,0l-47.926,21.32a2.529,2.529,0,0,0-1.5,2.31v37.54a67.916,67.916,0,0,0,29.7,56.15l13.5,9.207a12.89,12.89,0,0,0,14.506,0l13.5-9.206a67.916,67.916,0,0,0,29.7-56.15V109.9a2.534,2.534,0,0,0-5.068,0v17.674A62.864,62.864,0,0,1,175,179.542l-13.5,9.206a7.815,7.815,0,0,1-8.792,0l-13.5-9.207a62.864,62.864,0,0,1-27.493-51.972v-35.9L157.1,71.478,202.492,91.67v6.422a2.532,2.532,0,0,0,2.534,2.529Z" transform="translate(-70.816 -55.194)" fill="#526271"/>
      <path id="Path_5142" data-name="Path 5142" d="M160.11,183.68a2.519,2.519,0,0,0-2.52,2.52v4.458a5.919,5.919,0,0,0,5.913,5.913H217.8a5.92,5.92,0,0,0,5.913-5.913V156.724a5.921,5.921,0,0,0-5.913-5.916h-2.909v-6.981a24.238,24.238,0,1,0-48.477,0v6.981H163.5a5.921,5.921,0,0,0-5.913,5.916v17.718a2.52,2.52,0,1,0,5.039,0V156.724a.876.876,0,0,1,.874-.877H217.8a.876.876,0,0,1,.874.877v33.934a.875.875,0,0,1-.874.873H163.5a.875.875,0,0,1-.874-.873V186.2a2.519,2.519,0,0,0-2.519-2.52Zm11.341-39.853a19.2,19.2,0,1,1,38.4,0v6.981h-5.82v-6.981a13.379,13.379,0,1,0-26.758,0v6.981h-5.82Zm27.539,6.981H182.31v-6.981a8.34,8.34,0,1,1,16.68,0Z" transform="translate(-104.366 -90.465)" fill="#526271"/>
      <path id="Path_5143" data-name="Path 5143" d="M240.286,268.893a2.519,2.519,0,0,0,2.52-2.52v-6.037a7.949,7.949,0,1,0-5.039,0v6.037A2.519,2.519,0,0,0,240.286,268.893Zm0-19a2.91,2.91,0,1,1-2.91,2.91A2.914,2.914,0,0,1,240.286,249.889Z" transform="translate(-154.002 -173.563)" fill="#fff"/>
    </g>
  </g>
</svg>
