<svg xmlns="http://www.w3.org/2000/svg" width="137.668" height="150" viewBox="0 0 137.668 150">
  <g id="_007-productivity" data-name="007-productivity" transform="translate(-21.046 0)">
    <path id="Path_4406" data-name="Path 4406" d="M243.868,30.172h7.676a.881.881,0,0,1,.882.882V60.3l4.277-4.277a2.316,2.316,0,0,1,3.045-.207,49.888,49.888,0,0,1,6.342,5.815V31.053a.881.881,0,0,1,.882-.882h7.4a.881.881,0,0,0,.714-1.4L259.965,7.865a.881.881,0,0,0-1.424-.006L243.158,28.768a.881.881,0,0,0,.71,1.4Z" transform="translate(-161.788 -2.429)" fill="#2595d3"/>
    <path id="Path_4412" data-name="Path 4412" d="M361.916,124.614h7.676a.881.881,0,0,1,.882.882v35.544a29.5,29.5,0,0,1,13.664,5.053V125.5a.881.881,0,0,1,.881-.882h7.4a.881.881,0,0,0,.714-1.4l-15.12-20.909a.881.881,0,0,0-1.424-.006L361.206,123.21A.882.882,0,0,0,361.916,124.614Z" transform="translate(-244.316 -69.973)" fill="#2595d3"/>
    <g id="Group_4087" data-name="Group 4087" transform="translate(92.378 88.442)">
      <g id="Group_4083" data-name="Group 4083" transform="translate(0 1.911)">
        <circle id="Ellipse_350" data-name="Ellipse 350" cx="29.677" cy="29.677" r="29.677" fill="#2595d3"/>
      </g>
      <g id="Group_4084" data-name="Group 4084" transform="translate(4.778)">
        <path id="Path_4414" data-name="Path 4414" d="M289.842,332.177A29.682,29.682,0,0,1,315.325,302.8a29.677,29.677,0,1,0,0,58.762A29.682,29.682,0,0,1,289.842,332.177Z" transform="translate(-281.454 -302.5)" fill="#2595d3"/>
      </g>
      <g id="Group_4085" data-name="Group 4085" transform="translate(12.124 7.346)">
        <circle id="Ellipse_351" data-name="Ellipse 351" cx="22.331" cy="22.331" r="22.331" fill="#fff"/>
      </g>
    </g>
    <g id="Group_4088" data-name="Group 4088" transform="translate(21.046 0)">
      <path id="Path_4416" data-name="Path 4416" d="M156.991,238.619a2.2,2.2,0,0,0,1.819-2.531,27.163,27.163,0,1,0-.488,11.187,2.2,2.2,0,1,0-4.269-1.095,22.8,22.8,0,1,1,.408-9.381,2.2,2.2,0,0,0,2.531,1.819Z" transform="translate(-80.319 -150.933)" fill="#526271"/>
      <path id="Path_4417" data-name="Path 4417" d="M155.576,246.723a17.367,17.367,0,1,0,17.367,17.367A17.387,17.387,0,0,0,155.576,246.723Zm0,30.326a12.959,12.959,0,1,1,12.96-12.959A12.974,12.974,0,0,1,155.576,277.049Z" transform="translate(-103.918 -174.505)" fill="#526271"/>
      <path id="Path_4418" data-name="Path 4418" d="M176.689,276.623a8.581,8.581,0,1,0,8.581,8.581A8.591,8.591,0,0,0,176.689,276.623Zm0,12.755a4.174,4.174,0,1,1,4.174-4.174A4.179,4.179,0,0,1,176.689,289.378Z" transform="translate(-125.042 -195.612)" fill="#526271"/>
      <path id="Path_4419" data-name="Path 4419" d="M145.885,92.713v-13.9a2.2,2.2,0,1,0-4.395,0V89.964a31.533,31.533,0,0,0-9.229-3.088V53.35a3.08,3.08,0,0,0-3.076-3.076h-5.046l12.722-17.291,12.5,17.291h-4.8a3.08,3.08,0,0,0-3.076,3.076V68.555a2.2,2.2,0,1,0,4.395,0V54.668h6.06a3.076,3.076,0,0,0,2.493-4.879L139.363,28.943a3.086,3.086,0,0,0-2.48-1.274h-.012a3.086,3.086,0,0,0-2.478,1.253L119.054,49.769a3.076,3.076,0,0,0,2.478,4.9h6.335V86.441c-.312-.009-.625-.015-.94-.015-.909,0-1.809.04-2.7.116-.071-1.236-.18-2.471-.34-3.692a4.515,4.515,0,0,0-4.471-3.911H108.555a.116.116,0,0,1-.107-.09,37.208,37.208,0,0,0-2.872-6.936.117.117,0,0,1,.012-.141l7.677-7.677a4.517,4.517,0,0,0,.4-5.928q-1.128-1.468-2.36-2.849V27h6.06a3.076,3.076,0,0,0,2.493-4.879L104.778,1.274A3.086,3.086,0,0,0,102.3,0h-.013a3.087,3.087,0,0,0-2.478,1.253L84.47,22.1A3.076,3.076,0,0,0,86.947,27h6.335V53.927L90.513,56.7a.118.118,0,0,1-.141.012,37.19,37.19,0,0,0-6.937-2.872.115.115,0,0,1-.09-.107V42.867A4.515,4.515,0,0,0,79.435,38.4a52.267,52.267,0,0,0-13.5,0,4.515,4.515,0,0,0-3.911,4.471V53.729a.115.115,0,0,1-.09.107A37.207,37.207,0,0,0,55,56.708a.117.117,0,0,1-.141-.012l-7.677-7.677a4.516,4.516,0,0,0-5.928-.4,51.942,51.942,0,0,0-9.542,9.542,4.516,4.516,0,0,0,.4,5.928l7.677,7.677a.117.117,0,0,1,.012.141,37.2,37.2,0,0,0-2.871,6.936.116.116,0,0,1-.107.09H25.957a4.515,4.515,0,0,0-4.471,3.911,52.033,52.033,0,0,0,0,13.5,4.515,4.515,0,0,0,4.471,3.911H36.818a.116.116,0,0,1,.107.09,37.208,37.208,0,0,0,2.872,6.936.116.116,0,0,1-.012.141L32.108,115.1a4.516,4.516,0,0,0-.4,5.928,51.942,51.942,0,0,0,9.542,9.542,4.516,4.516,0,0,0,5.928-.4L54.86,122.5a.117.117,0,0,1,.141-.012,37.192,37.192,0,0,0,6.936,2.871.115.115,0,0,1,.09.107v10.862a4.515,4.515,0,0,0,3.911,4.471,52.035,52.035,0,0,0,13.5,0,4.516,4.516,0,0,0,3.911-4.471V125.466a.116.116,0,0,1,.09-.107,37.187,37.187,0,0,0,6.936-2.871.117.117,0,0,1,.141.012l6.519,6.519a31.785,31.785,0,1,0,48.853-36.3ZM89.554,22.6,102.276,5.314,114.78,22.6h-4.8a3.08,3.08,0,0,0-3.076,3.076V50.928q-1.354-1.2-2.787-2.3a4.516,4.516,0,0,0-5.928.4l-.514.514V25.681A3.08,3.08,0,0,0,94.6,22.6Zm5.713,98.434-1.646-1.646a4.485,4.485,0,0,0-5.331-.774,32.81,32.81,0,0,1-6.115,2.532,4.484,4.484,0,0,0-3.222,4.317v10.862a.113.113,0,0,1-.087.114,47.866,47.866,0,0,1-12.355,0,.112.112,0,0,1-.087-.114V125.466A4.484,4.484,0,0,0,63.2,121.15a32.788,32.788,0,0,1-6.115-2.532,4.542,4.542,0,0,0-2.157-.548,4.476,4.476,0,0,0-3.174,1.322l-7.677,7.677a.114.114,0,0,1-.144.018,47.541,47.541,0,0,1-8.734-8.734.114.114,0,0,1,.018-.144l7.677-7.677a4.485,4.485,0,0,0,.774-5.331,32.8,32.8,0,0,1-2.532-6.115,4.484,4.484,0,0,0-4.317-3.222H25.957a.112.112,0,0,1-.114-.087,47.6,47.6,0,0,1,0-12.355.112.112,0,0,1,.114-.087H36.818a4.484,4.484,0,0,0,4.317-3.222A32.8,32.8,0,0,1,43.666,74a4.485,4.485,0,0,0-.774-5.331l-7.677-7.677a.113.113,0,0,1-.018-.144,47.532,47.532,0,0,1,8.734-8.734.114.114,0,0,1,.144.018L51.753,59.8a4.486,4.486,0,0,0,5.331.774A32.8,32.8,0,0,1,63.2,58.046a4.484,4.484,0,0,0,3.223-4.317V42.868a.112.112,0,0,1,.087-.114,47.838,47.838,0,0,1,12.355,0,.113.113,0,0,1,.087.114V53.73a4.483,4.483,0,0,0,3.222,4.317,32.818,32.818,0,0,1,6.115,2.532,4.485,4.485,0,0,0,5.331-.773l7.677-7.677a.114.114,0,0,1,.144-.018,47.532,47.532,0,0,1,8.734,8.734.113.113,0,0,1-.018.144l-7.677,7.677A4.485,4.485,0,0,0,101.708,74a32.794,32.794,0,0,1,2.532,6.115,4.484,4.484,0,0,0,4.317,3.222h10.862a.113.113,0,0,1,.114.087c.164,1.255.272,2.526.335,3.8a31.842,31.842,0,0,0-24.726,31c0,.952.044,1.894.127,2.825Zm31.66,24.567a27.393,27.393,0,1,1,27.393-27.393A27.424,27.424,0,0,1,126.927,145.605Z" transform="translate(-21.046 0)" fill="#526271"/>
      <path id="Path_4420" data-name="Path 4420" d="M343.34,341.224a2.2,2.2,0,0,0,4.348-.723,24.534,24.534,0,1,0-24.2,28.57,24.31,24.31,0,0,0,14.683-4.889,24.783,24.783,0,0,0,8.754-12.381,2.2,2.2,0,1,0-4.209-1.307,20.344,20.344,0,0,1-7.187,10.161,19.937,19.937,0,0,1-12.04,4.009,20.118,20.118,0,1,1,19.85-23.439Z" transform="translate(-217.702 -226.416)" fill="#526271"/>
      <path id="Path_4421" data-name="Path 4421" d="M377.158,342.5a2.2,2.2,0,0,0-2.2,2.2v15.72a2.2,2.2,0,0,0,3.4,1.848l10.017-6.5a2.2,2.2,0,1,0-2.4-3.7l-6.614,4.293V344.7a2.2,2.2,0,0,0-2.2-2.2Z" transform="translate(-271.37 -242.205)" fill="#526271"/>
    </g>
  </g>
</svg>
