<svg xmlns="http://www.w3.org/2000/svg" width="172.024" height="150" viewBox="0 0 172.024 150">
  <g id="_009-data_research" data-name="009-data research" transform="translate(1.751 -30.231)">
    <g id="Group_4444" data-name="Group 4444" transform="translate(76.557 72.298)">
      <g id="Group_4430" data-name="Group 4430" transform="translate(0 27.586)">
        <g id="Group_4429" data-name="Group 4429" transform="translate(0 0)">
          <g id="Group_4428" data-name="Group 4428">
            <path id="Path_4810" data-name="Path 4810" d="M251.057,257.971h-9.393a1,1,0,0,1-1-1V244.946a1,1,0,0,1,1-1h9.393a1,1,0,0,1,1,1v12.025A1,1,0,0,1,251.057,257.971Z" transform="translate(-240.665 -243.947)" fill="#2595d3"/>
          </g>
        </g>
      </g>
      <g id="Group_4434" data-name="Group 4434" transform="translate(20.677 15.815)">
        <g id="Group_4433" data-name="Group 4433" transform="translate(0 0)">
          <g id="Group_4432" data-name="Group 4432">
            <path id="Path_4812" data-name="Path 4812" d="M313.128,234.405h-9.393a1,1,0,0,1-1-1v-23.8a1,1,0,0,1,1-1h9.393a1,1,0,0,1,1,1v23.8A1,1,0,0,1,313.128,234.405Z" transform="translate(-302.736 -208.61)" fill="#2595d3"/>
          </g>
        </g>
      </g>
      <g id="Group_4438" data-name="Group 4438" transform="translate(41.354)">
        <g id="Group_4437" data-name="Group 4437" transform="translate(0)">
          <g id="Group_4436" data-name="Group 4436">
            <path id="Path_4814" data-name="Path 4814" d="M375.2,181.933h-9.393a.936.936,0,0,1-1-.857v-39.9a.936.936,0,0,1,1-.857H375.2a.936.936,0,0,1,1,.857v39.9A.936.936,0,0,1,375.2,181.933Z" transform="translate(-364.808 -140.323)" fill="#2595d3"/>
          </g>
        </g>
      </g>
      <g id="Group_4442" data-name="Group 4442" transform="translate(62.031 4.459)">
        <g id="Group_4441" data-name="Group 4441" transform="translate(0 0)">
          <g id="Group_4440" data-name="Group 4440">
            <path id="Path_4816" data-name="Path 4816" d="M437.271,211.671h-9.393a1,1,0,0,1-1-1V175.519a1,1,0,0,1,1-1h9.393a1,1,0,0,1,1,1v35.152A1,1,0,0,1,437.271,211.671Z" transform="translate(-426.879 -174.52)" fill="#2595d3"/>
          </g>
        </g>
      </g>
    </g>
    <g id="Group_4445" data-name="Group 4445" transform="translate(11.5 67.082)">
      <path id="Path_4818" data-name="Path 4818" d="M59.687,144.518H44.858a.913.913,0,0,1-.913-.913V128.776a.913.913,0,0,1,.913-.913H59.687a.913.913,0,0,1,.913.913v14.829A.913.913,0,0,1,59.687,144.518Z" transform="translate(-43.945 -127.863)" fill="#2595d3"/>
    </g>
    <g id="Group_4447" data-name="Group 4447" transform="translate(11.5 92.802)">
      <path id="Path_4820" data-name="Path 4820" d="M59.687,225.3H44.858a.913.913,0,0,1-.913-.913V209.56a.913.913,0,0,1,.913-.913H59.687a.913.913,0,0,1,.913.913v14.829A.913.913,0,0,1,59.687,225.3Z" transform="translate(-43.945 -208.647)" fill="#2595d3"/>
    </g>
    <g id="Group_4449" data-name="Group 4449" transform="translate(-1.751 37.172)">
      <path id="Path_4822" data-name="Path 4822" d="M168.8,37.731H11.286a3.792,3.792,0,0,0-3.786,3.8v13.29H172.583V41.528A3.792,3.792,0,0,0,168.8,37.731Z" transform="translate(-7.5 -37.731)" fill="#2595d3"/>
    </g>
    <g id="Group_4451" data-name="Group 4451" transform="translate(0.194 30.231)">
      <path id="Path_4825" data-name="Path 4825" d="M62.116,288.99H38.942a2.5,2.5,0,0,0,0,5H62.116a2.5,2.5,0,0,0,0-5Z" transform="translate(-24.304 -203.039)" fill="#526271"/>
      <path id="Path_4826" data-name="Path 4826" d="M62.116,319.768H38.942a2.5,2.5,0,1,0,0,5H62.116a2.5,2.5,0,0,0,0-5Z" transform="translate(-24.304 -223.594)" fill="#526271"/>
      <path id="Path_4827" data-name="Path 4827" d="M64.615,353.043a2.5,2.5,0,0,0-2.5-2.5H38.942a2.5,2.5,0,1,0,0,5H62.116A2.5,2.5,0,0,0,64.615,353.043Z" transform="translate(-24.304 -244.147)" fill="#526271"/>
      <path id="Path_4828" data-name="Path 4828" d="M38.942,381.323a2.5,2.5,0,1,0,0,5h13.67a2.5,2.5,0,0,0,0-5Z" transform="translate(-24.304 -264.702)" fill="#526271"/>
      <path id="Path_4829" data-name="Path 4829" d="M39.856,142.014H54.686A3.415,3.415,0,0,0,58.1,138.6V123.774a3.416,3.416,0,0,0-3.411-3.412H39.856a3.415,3.415,0,0,0-3.411,3.412V138.6A3.415,3.415,0,0,0,39.856,142.014Zm1.585-16.656H53.1v11.659H41.441Z" transform="translate(-24.305 -90.435)" fill="#526271"/>
      <path id="Path_4830" data-name="Path 4830" d="M36.444,219.387a3.415,3.415,0,0,0,3.411,3.411H54.685a3.415,3.415,0,0,0,3.411-3.411V204.558a3.415,3.415,0,0,0-3.411-3.412H39.856a3.415,3.415,0,0,0-3.411,3.412v14.829Zm5-13.244H53.1V217.8H41.441Z" transform="translate(-24.304 -144.395)" fill="#526271"/>
      <path id="Path_4831" data-name="Path 4831" d="M440.736,59.851a2.5,2.5,0,0,0,0-5h-7.662a2.5,2.5,0,0,0,0,5Z" transform="translate(-287.619 -46.652)" fill="#526271"/>
      <path id="Path_4832" data-name="Path 4832" d="M432.269,209.168a3.5,3.5,0,0,0,3.5-3.5V170.518a3.5,3.5,0,0,0-3.5-3.5h-9.393a3.5,3.5,0,0,0-3.5,3.5V205.67a3.5,3.5,0,0,0,3.5,3.5Zm-7.894-37.151h6.395v32.154h-6.395Z" transform="translate(-280.152 -121.628)" fill="#526271"/>
      <path id="Path_4833" data-name="Path 4833" d="M246.055,236.447h-9.393a3.5,3.5,0,0,0-3.5,3.5V251.97a3.5,3.5,0,0,0,3.5,3.5h9.393a3.5,3.5,0,0,0,3.5-3.5V239.945A3.5,3.5,0,0,0,246.055,236.447Zm-1.5,14.024h-6.395v-9.027h6.395Z" transform="translate(-155.733 -167.97)" fill="#526271"/>
      <path id="Path_4834" data-name="Path 4834" d="M225.71,178.748h-2.68a28.677,28.677,0,1,0,2.723,30.79,3.5,3.5,0,0,0,3.454-3.5v-23.8A3.5,3.5,0,0,0,225.71,178.748Zm-25.373,41.2a23.688,23.688,0,1,1,15.931-41.2,3.5,3.5,0,0,0-3.448,3.495v23.8a3.5,3.5,0,0,0,3.5,3.5h3.617A23.669,23.669,0,0,1,200.337,219.951Zm23.874-15.408h-6.395v-20.8h6.395Z" transform="translate(-114.712 -122.029)" fill="#526271"/>
      <path id="Path_4835" data-name="Path 4835" d="M163.8,30.231H55.807a2.491,2.491,0,0,0,0,4.983H163.8a1.3,1.3,0,0,1,1.3,1.3V47.271H32.246V35.214H44.181a2.491,2.491,0,0,0,0-4.983H6.278A6.285,6.285,0,0,0,0,36.509v120.8a6.285,6.285,0,0,0,6.278,6.278H98a2.491,2.491,0,0,0,0-4.983H6.278a1.3,1.3,0,0,1-1.3-1.3V52.254H165.1V157.306a1.3,1.3,0,0,1-1.3,1.3H156.42l-22.645-22.646a5.82,5.82,0,0,0-6.666-1.105L119,126.738a40.07,40.07,0,0,0,4.525-9.035h8.025a3.492,3.492,0,0,0,3.488-3.488v-22.6a2.491,2.491,0,1,0-4.983,0v21.109h-6.377V69.295h6.377v10.69a2.491,2.491,0,1,0,4.983,0V67.8a3.492,3.492,0,0,0-3.488-3.488h-9.367a3.492,3.492,0,0,0-3.488,3.488V81.727a40.155,40.155,0,1,0-10.785,56.117l8.181,8.181a5.82,5.82,0,0,0,1.237,6.381l6.2,6.2h-13.9a2.491,2.491,0,0,0,0,4.983H128.5l14.945,14.946a5.82,5.82,0,0,0,8.222,0L159.9,170.3a5.821,5.821,0,0,0,1.081-6.718H163.8a6.285,6.285,0,0,0,6.278-6.278V36.509a6.285,6.285,0,0,0-6.278-6.278ZM27.264,47.271H4.983V36.509a1.3,1.3,0,0,1,1.3-1.3H27.264Zm58.362,92.361a35.169,35.169,0,1,1,33.067-47.144v21.727a3.465,3.465,0,0,0,.291,1.39A35.23,35.23,0,0,1,85.626,139.632Zm26.272-4.846a40.5,40.5,0,0,0,4.051-4.049l7.411,7.411-4.05,4.05Zm44.478,31.993-8.228,8.228a.831.831,0,0,1-1.174,0l-26.124-26.125a.831.831,0,0,1,0-1.175l8.228-8.228a.832.832,0,0,1,1.175,0L156.376,165.6A.831.831,0,0,1,156.376,166.779Z" transform="translate(0 -30.231)" fill="#526271"/>
    </g>
  </g>
</svg>
