<svg xmlns="http://www.w3.org/2000/svg" width="158.11" height="150" viewBox="0 0 158.11 150">
  <g id="_010-virus" data-name="010-virus" transform="translate(0 -13.131)">
    <rect id="Rectangle_3970" data-name="Rectangle 3970" width="59.587" height="5.32" transform="translate(8.119 109.216)" fill="#2595d3"/>
    <rect id="Rectangle_3971" data-name="Rectangle 3971" width="59.587" height="5.32" transform="translate(87.367 109.216)" fill="#2595d3"/>
    <g id="Group_4729" data-name="Group 4729" transform="translate(32.413 24.983)">
      <g id="Group_4719" data-name="Group 4719" transform="translate(83.333 19.9)">
        <circle id="Ellipse_448" data-name="Ellipse 448" cx="4.975" cy="4.975" r="4.975" fill="#2595d3"/>
      </g>
      <g id="Group_4721" data-name="Group 4721" transform="translate(77.114 0)">
        <g id="Group_4720" data-name="Group 4720">
          <circle id="Ellipse_449" data-name="Ellipse 449" cx="4.975" cy="4.975" r="4.975" fill="#2595d3"/>
        </g>
      </g>
      <g id="Group_4723" data-name="Group 4723" transform="translate(77.114 39.801)">
        <g id="Group_4722" data-name="Group 4722">
          <circle id="Ellipse_450" data-name="Ellipse 450" cx="4.975" cy="4.975" r="4.975" fill="#2595d3"/>
        </g>
      </g>
      <g id="Group_4724" data-name="Group 4724" transform="translate(0 19.9)">
        <circle id="Ellipse_451" data-name="Ellipse 451" cx="4.975" cy="4.975" r="4.975" fill="#2595d3"/>
      </g>
      <g id="Group_4726" data-name="Group 4726" transform="translate(6.219 0)">
        <g id="Group_4725" data-name="Group 4725">
          <circle id="Ellipse_452" data-name="Ellipse 452" cx="4.975" cy="4.975" r="4.975" fill="#2595d3"/>
        </g>
      </g>
      <g id="Group_4728" data-name="Group 4728" transform="translate(6.219 39.801)">
        <g id="Group_4727" data-name="Group 4727">
          <circle id="Ellipse_453" data-name="Ellipse 453" cx="4.975" cy="4.975" r="4.975" fill="#2595d3"/>
        </g>
      </g>
    </g>
    <g id="Group_4730" data-name="Group 4730" transform="translate(74.08 87.212)">
      <circle id="Ellipse_454" data-name="Ellipse 454" cx="4.975" cy="4.975" r="4.975" fill="#2595d3"/>
    </g>
    <path id="Path_5207" data-name="Path 5207" d="M155.794,148.516h-2.362V110.278A5.441,5.441,0,0,0,148,104.843h-5.673a2.316,2.316,0,0,0,0,4.632H148a.8.8,0,0,1,.8.8v38.237H91.043V110.278a.8.8,0,0,1,.8-.8h39.67a2.316,2.316,0,0,0,0-4.632h-9.279V92.186a2.316,2.316,0,0,0-2.316-2.316H85.984a7.34,7.34,0,0,0-4.613-4.613v-7.1A22.317,22.317,0,0,0,98.517,66.828l5.163,4.808a2.315,2.315,0,0,0,1.578.621h2.43a7.307,7.307,0,1,0,0-4.632H106.17l-5.741-5.347A22.207,22.207,0,0,0,101.335,56V52.293h12.591a7.307,7.307,0,1,0,0-4.632H101.335v-10.9l4.825-4.43h1.528a7.307,7.307,0,1,0,0-4.632h-2.43a2.315,2.315,0,0,0-1.566.61l-2.957,2.715a8.574,8.574,0,0,0-7.061-5.366,14.795,14.795,0,0,0-29.239,0,8.574,8.574,0,0,0-7.061,5.366l-2.957-2.715a2.315,2.315,0,0,0-1.566-.61h-2.43a7.307,7.307,0,1,0,0,4.632H51.95l4.825,4.43v10.9H44.183a7.307,7.307,0,1,0,0,4.632H56.774V56a22.28,22.28,0,0,0,.908,6.278L51.94,67.625H50.422a7.307,7.307,0,1,0,0,4.632h2.43a2.315,2.315,0,0,0,1.578-.621l5.16-4.806A22.112,22.112,0,0,0,62.053,70.4a2.316,2.316,0,0,0,3.531-3A17.625,17.625,0,0,1,61.407,56V34.163a3.926,3.926,0,0,1,3.922-3.922h11.41v23.5a2.316,2.316,0,0,0,4.632,0v-23.5h11.41A3.926,3.926,0,0,1,96.7,34.163V56A17.662,17.662,0,0,1,73.41,72.725a2.316,2.316,0,0,0-1.481,4.389,22.15,22.15,0,0,0,4.811,1.042v7.1a7.34,7.34,0,0,0-4.613,4.613H38.19a2.316,2.316,0,0,0-2.316,2.316v12.657H10.115a5.442,5.442,0,0,0-5.436,5.436v38.236H2.316A2.316,2.316,0,0,0,0,150.831V157.7a5.442,5.442,0,0,0,5.435,5.435h4a2.316,2.316,0,1,0,0-4.632h-4a.8.8,0,0,1-.8-.8v-4.548H71.748V157.7a.8.8,0,0,1-.8.8h-50.7a2.316,2.316,0,1,0,0,4.632h50.7a5.442,5.442,0,0,0,5.435-5.435v-6.864a2.316,2.316,0,0,0-2.316-2.316H71.7V110.279a5.442,5.442,0,0,0-5.436-5.436H40.506V94.5h31.62a7.305,7.305,0,0,0,13.858,0H117.6v10.341H91.846a5.441,5.441,0,0,0-5.435,5.435v38.238H84.046a2.316,2.316,0,0,0-2.316,2.316V157.7a5.442,5.442,0,0,0,5.436,5.436h65.509a5.442,5.442,0,0,0,5.436-5.436v-6.863a2.316,2.316,0,0,0-2.316-2.316ZM114.617,67.267a2.675,2.675,0,1,1-2.675,2.675A2.679,2.679,0,0,1,114.617,67.267ZM120.856,47.3a2.675,2.675,0,1,1-2.675,2.675A2.679,2.679,0,0,1,120.856,47.3Zm-6.239-19.964a2.675,2.675,0,1,1-2.675,2.675A2.679,2.679,0,0,1,114.617,27.337Zm-71.124,5.35a2.675,2.675,0,1,1,2.675-2.675A2.678,2.678,0,0,1,43.493,32.688ZM37.254,52.652a2.675,2.675,0,1,1,2.675-2.675A2.678,2.678,0,0,1,37.254,52.652Zm6.239,19.965a2.675,2.675,0,1,1,2.675-2.675A2.678,2.678,0,0,1,43.493,72.617ZM79.055,17.763a10.178,10.178,0,0,1,9.892,7.846H69.163A10.178,10.178,0,0,1,79.055,17.763ZM67.069,110.279v38.236H9.311V110.279a.8.8,0,0,1,.8-.8h56.15A.8.8,0,0,1,67.069,110.279ZM79.055,94.861a2.675,2.675,0,1,1,2.675-2.675A2.679,2.679,0,0,1,79.055,94.861ZM153.478,157.7a.8.8,0,0,1-.8.8H87.166a.8.8,0,0,1-.8-.8v-4.547h67.116Z" transform="translate(0)" fill="#526271"/>
  </g>
</svg>
