<svg xmlns="http://www.w3.org/2000/svg" width="141.59" height="150" viewBox="0 0 141.59 150">
  <g id="_011-operation" data-name="011-operation" transform="translate(-9.854 0)">
    <g id="Group_4091" data-name="Group 4091" transform="translate(68.888 74.901)">
      <circle id="Ellipse_353" data-name="Ellipse 353" cx="8.741" cy="8.741" r="8.741" transform="translate(0)" fill="#fff"/>
    </g>
    <g id="Group_4092" data-name="Group 4092" transform="translate(68.89 74.901)">
      <path id="Path_4425" data-name="Path 4425" d="M222.357,269.183a8.74,8.74,0,0,1,5.126-7.958,8.741,8.741,0,1,0,0,15.916A8.741,8.741,0,0,1,222.357,269.183Z" transform="translate(-215.126 -260.442)" fill="#eef5f6"/>
    </g>
    <g id="Group_4093" data-name="Group 4093" transform="translate(15.424 16.325)">
      <path id="Path_4426" data-name="Path 4426" d="M210.063,70.607q0,1.27-.111,2.513a51.959,51.959,0,0,1,9.679-.909h43.557a.641.641,0,0,1,.641.641v4.269a.961.961,0,0,0,1.493.8l14.6-9.713a.961.961,0,0,0,0-1.6l-14.6-9.713a.961.961,0,0,0-1.493.8v4.269a.641.641,0,0,1-.641.641H220.162a61.486,61.486,0,0,0-10.985.988A28.087,28.087,0,0,1,210.063,70.607Z" transform="translate(-157.466 -56.731)" fill="#2595d3"/>
      <path id="Path_4427" data-name="Path 4427" d="M153.193,216.421l-6.539-.112a1.528,1.528,0,0,0-1.554,1.484,51.851,51.851,0,0,1-103.678-1.106q-.01-1.354.048-2.692a4.991,4.991,0,0,1,.766-6.886q.182-1.014.4-2.015a5,5,0,0,1,1.628-9.008l-1.636-5.176a12.123,12.123,0,0,0-2.755-4.7,60.2,60.2,0,0,0-8.057,30.046A61.453,61.453,0,0,0,154.7,218,1.534,1.534,0,0,0,153.193,216.421Z" transform="translate(-31.818 -144.045)" fill="#2595d3"/>
    </g>
    <g id="Group_4095" data-name="Group 4095" transform="translate(127.85 53.635)">
      <circle id="Ellipse_354" data-name="Ellipse 354" cx="6.032" cy="6.032" r="6.032" fill="#fff"/>
    </g>
    <g id="Group_4096" data-name="Group 4096" transform="translate(127.85 53.635)">
      <path id="Path_4430" data-name="Path 4430" d="M425.027,192.523a6.03,6.03,0,0,1,3.6-5.517,6.032,6.032,0,1,0,0,11.033A6.031,6.031,0,0,1,425.027,192.523Z" transform="translate(-420.158 -186.491)" fill="#eef5f6"/>
    </g>
    <g id="Group_4112" data-name="Group 4112" transform="translate(9.854 0)">
      <path id="Path_4440" data-name="Path 4440" d="M197.539,262.232a19.425,19.425,0,0,0,18.246-12.843,2.158,2.158,0,1,0-4.064-1.456,15.061,15.061,0,1,1,.414-8.812,2.158,2.158,0,0,0,4.183-1.066,19.38,19.38,0,1,0-18.779,24.176Z" transform="translate(-129.763 -159.214)" fill="#526271"/>
      <path id="Path_4441" data-name="Path 4441" d="M218.525,252.942a10.9,10.9,0,1,0,10.9,10.9A10.912,10.912,0,0,0,218.525,252.942Zm0,17.482a6.583,6.583,0,1,1,6.583-6.583A6.59,6.59,0,0,1,218.525,270.424Z" transform="translate(-150.75 -180.2)" fill="#526271"/>
      <path id="Path_4442" data-name="Path 4442" d="M137.588,81.624l-6.54-.112h-.064a3.7,3.7,0,0,0-3.684,3.58,49.758,49.758,0,0,1-49.674,48.249h-.389a49.914,49.914,0,0,1-49.282-48.1,7.144,7.144,0,0,0,1.835.239h.029l1.266,5.866a6.468,6.468,0,0,0,6.288,5.076H42.8A6.465,6.465,0,0,0,48.78,92.36h.762a29.3,29.3,0,0,0,2.06,4.977L45.844,103.1a3.957,3.957,0,0,0-.346,5.194,40.734,40.734,0,0,0,7.482,7.482,3.956,3.956,0,0,0,5.193-.346l5.759-5.759a29.333,29.333,0,0,0,4.977,2.06v8.148a3.955,3.955,0,0,0,3.427,3.916,40.761,40.761,0,0,0,10.582,0,3.956,3.956,0,0,0,3.427-3.916v-8.148a29.3,29.3,0,0,0,4.977-2.06l5.759,5.759a3.957,3.957,0,0,0,5.193.346,40.714,40.714,0,0,0,7.481-7.482,3.956,3.956,0,0,0-.345-5.193l-5.759-5.759a29.322,29.322,0,0,0,2.06-4.977h8.147a3.955,3.955,0,0,0,3.916-3.427,40.8,40.8,0,0,0,0-10.582,3.956,3.956,0,0,0-3.916-3.427h-8.147a29.3,29.3,0,0,0-2.06-4.977l5.759-5.759a3.957,3.957,0,0,0,.346-5.193,40.717,40.717,0,0,0-7.482-7.482,3.956,3.956,0,0,0-5.193.346l-5.759,5.759a29.32,29.32,0,0,0-4.977-2.06V47.408a3.955,3.955,0,0,0-3.427-3.916,40.985,40.985,0,0,0-10.582,0,3.956,3.956,0,0,0-3.427,3.916v8.148a29.293,29.293,0,0,0-4.977,2.06l-4.4-4.4A29.966,29.966,0,0,0,69.91,34.541a50.148,50.148,0,0,1,7.716-.6H119.64v2.749a3.117,3.117,0,0,0,4.844,2.6l14.591-9.707a3.118,3.118,0,0,0,0-5.191l-14.591-9.708a3.117,3.117,0,0,0-4.844,2.6v2.749H78.158a64.089,64.089,0,0,0-9.438.7A30.191,30.191,0,1,0,21.491,53.992,62.261,62.261,0,0,0,14.014,83.61,63.578,63.578,0,0,0,117.829,132.9a2.157,2.157,0,0,0-2.731-3.34,59.3,59.3,0,0,1-96.77-45.951,57.956,57.956,0,0,1,6.118-25.931,10.53,10.53,0,0,1,.481,1.23l1.052,3.33a7.15,7.15,0,0,0-1.358,11.007c-.009.049-.02.1-.029.145a7.144,7.144,0,0,0-.946,8.59c-.021.691-.033,1.384-.028,2.079a54.161,54.161,0,0,0,53.587,53.589h.423a54.075,54.075,0,0,0,53.964-51.818l5.289.091a59.323,59.323,0,0,1-14.783,36.9,2.157,2.157,0,1,0,3.235,2.854,63.635,63.635,0,0,0,15.881-40.261,3.692,3.692,0,0,0-3.626-3.791ZM26.943,68.3a2.852,2.852,0,0,1,2.848-2.848H50.283a2.848,2.848,0,0,1,0,5.7H29.792A2.852,2.852,0,0,1,26.943,68.3ZM40.037,35.11a4.925,4.925,0,1,1,4.925-4.925A4.931,4.931,0,0,1,40.037,35.11Zm13.094,43.2a2.852,2.852,0,0,1-2.848,2.848H29.791a2.848,2.848,0,0,1,0-5.7H50.283A2.852,2.852,0,0,1,53.131,78.311ZM42.8,92.1H37.375A2.131,2.131,0,0,1,35.3,90.429l-1.07-4.956H45.9l-1.026,4.94A2.128,2.128,0,0,1,42.8,92.1ZM65.744,61.54A24.978,24.978,0,0,1,70.4,59.612a3.927,3.927,0,0,0,2.822-3.781v-8.1a36.657,36.657,0,0,1,8.808,0v8.1a3.927,3.927,0,0,0,2.821,3.781,24.98,24.98,0,0,1,4.657,1.928,3.927,3.927,0,0,0,4.669-.678L99.9,55.135a36.4,36.4,0,0,1,6.229,6.229l-5.726,5.726a3.928,3.928,0,0,0-.678,4.669,24.971,24.971,0,0,1,1.928,4.657,3.927,3.927,0,0,0,3.781,2.822h8.1a36.469,36.469,0,0,1,0,8.808h-8.1a3.927,3.927,0,0,0-3.781,2.821,24.985,24.985,0,0,1-1.928,4.657,3.928,3.928,0,0,0,.678,4.669l5.726,5.727a36.428,36.428,0,0,1-6.228,6.229l-5.726-5.727a3.928,3.928,0,0,0-4.669-.678,24.979,24.979,0,0,1-4.657,1.928,3.927,3.927,0,0,0-2.821,3.781v8.1a36.627,36.627,0,0,1-8.808,0v-8.1a3.927,3.927,0,0,0-2.821-3.781,24.99,24.99,0,0,1-4.657-1.928,3.928,3.928,0,0,0-4.669.678l-5.726,5.726a36.405,36.405,0,0,1-6.228-6.228l5.726-5.727a3.928,3.928,0,0,0,.678-4.669A24.981,24.981,0,0,1,53.6,90.867a3.927,3.927,0,0,0-3.781-2.821h-.039l.535-2.573A7.157,7.157,0,0,0,55.4,73.305a7.151,7.151,0,0,0-1.3-11.064l1.074-3.4a9.618,9.618,0,0,1,1.288-2.6l4.617,4.617a3.927,3.927,0,0,0,4.669.679Zm12.414-37.2h43a2.8,2.8,0,0,0,2.8-2.8V19.512l11.233,7.474L123.954,34.46V32.427a2.8,2.8,0,0,0-2.8-2.8H77.626a54.56,54.56,0,0,0-7.405.505,30.593,30.593,0,0,0-.451-5.2,59.859,59.859,0,0,1,8.388-.594ZM14.177,29.473a25.87,25.87,0,1,1,41.79,21.092,14.369,14.369,0,0,0-4.91,6.979l-1.135,3.594H42.194V48.467A18.324,18.324,0,0,0,57.589,35.739a2.157,2.157,0,1,0-4.113-1.3,14.027,14.027,0,0,1-11.281,9.675V39.167a9.239,9.239,0,1,0-4.314,0v4.946A14.093,14.093,0,1,1,53.4,25.707a2.157,2.157,0,1,0,4.091-1.37A18.406,18.406,0,1,0,37.88,48.461V61.137H30.154L29.04,57.611a14.009,14.009,0,0,0-4.784-6.931,25.985,25.985,0,0,1-10.08-21.206Z" transform="translate(-9.854 0)" fill="#526271"/>
      <path id="Path_4443" data-name="Path 4443" d="M414.715,166.682l-6.9-11.954a3.769,3.769,0,0,0-3.256-1.88h-13.8a3.77,3.77,0,0,0-3.256,1.88l-6.9,11.954a3.769,3.769,0,0,0,0,3.76l6.9,11.954a3.77,3.77,0,0,0,3.256,1.88h13.8a3.769,3.769,0,0,0,3.256-1.88l6.9-11.954A3.769,3.769,0,0,0,414.715,166.682Zm-10.479,13.277h-13.16l-6.58-11.4,6.58-11.4h13.16l6.58,11.4Z" transform="translate(-273.628 -108.894)" fill="#526271"/>
      <path id="Path_4444" data-name="Path 4444" d="M420.849,178.991a8.191,8.191,0,1,0,8.191,8.191A8.2,8.2,0,0,0,420.849,178.991Zm0,12.065a3.874,3.874,0,1,1,3.874-3.874A3.878,3.878,0,0,1,420.849,191.056Z" transform="translate(-296.82 -127.515)" fill="#526271"/>
    </g>
  </g>
</svg>
