<svg xmlns="http://www.w3.org/2000/svg" width="171.272" height="150" viewBox="0 0 171.272 150">
  <g id="_012-analytics" data-name="012-analytics" transform="translate(0 -31.795)">
    <g id="Group_4271" data-name="Group 4271" transform="translate(66.735 110.627)">
      <path id="Path_4634" data-name="Path 4634" d="M198.972,314.006V268.361a1.091,1.091,0,0,1,1.091-1.091h79.681a1.091,1.091,0,0,1,1.091,1.091v45.645a1.091,1.091,0,0,1-1.091,1.091H200.063A1.09,1.09,0,0,1,198.972,314.006Z" transform="translate(-198.972 -267.27)" fill="#fff"/>
    </g>
    <g id="Group_4281" data-name="Group 4281" transform="translate(74.313 120.869)">
      <g id="Group_4277" data-name="Group 4277" transform="translate(0 6.513)">
        <circle id="Ellipse_383" data-name="Ellipse 383" cx="4.58" cy="4.58" r="4.58" fill="#2595d3"/>
      </g>
      <g id="Group_4278" data-name="Group 4278" transform="translate(15.471 21.526)">
        <circle id="Ellipse_384" data-name="Ellipse 384" cx="4.58" cy="4.58" r="4.58" fill="#2595d3"/>
      </g>
      <g id="Group_4279" data-name="Group 4279" transform="translate(43.41)">
        <circle id="Ellipse_385" data-name="Ellipse 385" cx="4.58" cy="4.58" r="4.58" fill="#2595d3"/>
      </g>
      <g id="Group_4280" data-name="Group 4280" transform="translate(57.379 14.427)">
        <circle id="Ellipse_386" data-name="Ellipse 386" cx="4.58" cy="4.58" r="4.58" fill="#2595d3"/>
      </g>
    </g>
    <g id="Group_4298" data-name="Group 4298" transform="translate(17.456 40.216)">
      <g id="Group_4284" data-name="Group 4284" transform="translate(0 41.314)">
        <g id="Group_4283" data-name="Group 4283" transform="translate(0 0)">
          <g id="Group_4282" data-name="Group 4282">
            <path id="Path_4640" data-name="Path 4640" d="M74.253,178.315H62.9V164.009a1,1,0,0,1,1-1h9.349a1,1,0,0,1,1,1v14.306Z" transform="translate(-62.901 -163.007)" fill="#2595d3"/>
          </g>
        </g>
      </g>
      <g id="Group_4288" data-name="Group 4288" transform="translate(20.605 28.465)">
        <g id="Group_4287" data-name="Group 4287" transform="translate(0)">
          <g id="Group_4286" data-name="Group 4286">
            <path id="Path_4642" data-name="Path 4642" d="M135.954,152.689H124.6V125.535a1,1,0,0,1,1-1h9.349a1,1,0,0,1,1,1Z" transform="translate(-124.602 -124.533)" fill="#2595d3"/>
          </g>
        </g>
      </g>
      <g id="Group_4292" data-name="Group 4292" transform="translate(41.211 0)">
        <g id="Group_4291" data-name="Group 4291" transform="translate(0 0)">
          <g id="Group_4290" data-name="Group 4290">
            <path id="Path_4644" data-name="Path 4644" d="M197.657,95.918H186.3V40.3a1,1,0,0,1,1-1h9.349a1,1,0,0,1,1,1Z" transform="translate(-186.304 -39.296)" fill="#2595d3"/>
          </g>
        </g>
      </g>
      <g id="Group_4296" data-name="Group 4296" transform="translate(61.817 23.27)">
        <g id="Group_4295" data-name="Group 4295" transform="translate(0)">
          <g id="Group_4294" data-name="Group 4294">
            <path id="Path_4646" data-name="Path 4646" d="M258.357,142.329H248.006v-32.35a1,1,0,0,1,1-1h9.349a1,1,0,0,1,1,1v31.348A1,1,0,0,1,258.357,142.329Z" transform="translate(-248.006 -108.977)" fill="#2595d3"/>
          </g>
        </g>
      </g>
    </g>
    <g id="Group_4299" data-name="Group 4299" transform="translate(0 31.795)">
      <path id="Path_4648" data-name="Path 4648" d="M274.748,259.77H195.067a3.6,3.6,0,0,0-3.6,3.6v45.645a3.6,3.6,0,0,0,3.6,3.6h79.681a3.6,3.6,0,0,0,3.6-3.6V298.92a2.5,2.5,0,0,0-5.009,0V307.6H196.481V264.779h76.853v22.452a2.5,2.5,0,1,0,5.009,0V263.365a3.6,3.6,0,0,0-3.6-3.6Z" transform="translate(-127.241 -183.385)" fill="#526271"/>
      <circle id="Ellipse_387" data-name="Ellipse 387" cx="2.505" cy="2.505" r="2.505" transform="translate(72.594 83.985)" fill="#526271"/>
      <circle id="Ellipse_388" data-name="Ellipse 388" cx="2.505" cy="2.505" r="2.505" transform="translate(79.953 83.985)" fill="#526271"/>
      <circle id="Ellipse_389" data-name="Ellipse 389" cx="2.505" cy="2.505" r="2.505" transform="translate(87.313 83.985)" fill="#526271"/>
      <path id="Path_4649" data-name="Path 4649" d="M166.942,165.069h-6.769V105.1a6.158,6.158,0,0,0-6.151-6.151H115.375V72.675a2.509,2.509,0,0,0-5.018,0V98.951H61.1a6.154,6.154,0,0,0-6.132,5.77H5.018V49.684A1.135,1.135,0,0,1,6.151,48.55H59.813V88.512H55.562V63.821a3.516,3.516,0,0,0-3.512-3.512H42.685a3.516,3.516,0,0,0-3.512,3.512V88.512H34.922V76.691a3.516,3.516,0,0,0-3.512-3.512H22.045a3.516,3.516,0,0,0-3.512,3.512V88.512H14.05a2.509,2.509,0,0,0,0,5.018H93.33a3.516,3.516,0,0,0,3.512-3.512v-31.4A3.516,3.516,0,0,0,93.33,55.1H83.966a3.516,3.516,0,0,0-3.512,3.512v29.9H76.2V48.55h33.022a1.135,1.135,0,0,1,1.133,1.133V60.966a2.509,2.509,0,1,0,5.018,0V49.684a6.158,6.158,0,0,0-6.151-6.151H76.2V35.307A3.516,3.516,0,0,0,72.69,31.8H63.325a3.516,3.516,0,0,0-3.512,3.512v8.225H6.151A6.158,6.158,0,0,0,0,49.684v67.744a6.158,6.158,0,0,0,6.151,6.151H23.082a2.509,2.509,0,1,0,0-5.018H6.151a1.135,1.135,0,0,1-1.133-1.133v-7.689H54.945v8.823H34.79a2.509,2.509,0,1,0,0,5.018h6v15.014H27.275a7.981,7.981,0,0,0-7.972,7.972v4.37a4.335,4.335,0,0,0,4.33,4.33H54.945v9.8H48.176a4.335,4.335,0,0,0-4.33,4.33v8.066a4.335,4.335,0,0,0,4.33,4.33H166.942a4.335,4.335,0,0,0,4.33-4.33V169.4A4.335,4.335,0,0,0,166.942,165.069ZM29.9,88.512H23.55V78.2H29.9V88.512Zm20.64,0H44.19V65.326h6.354ZM85.471,60.123h6.354v28.39H85.471Zm-20.64-23.31h6.354v51.7H64.831ZM59.963,105.1a1.135,1.135,0,0,1,1.133-1.133h92.926a1.135,1.135,0,0,1,1.133,1.133v59.967H59.963ZM45.81,123.578h9.135v15.014H45.81ZM24.321,150.247v-3.683a2.958,2.958,0,0,1,2.954-2.954H54.945v6.637Zm24.542,26.53v-6.691H90.638l2.427,6.691Zm67.944,0H98.4l-2.427-6.691h23.2Zm49.447,0H122.13l2.365-6.691h41.759Z" transform="translate(0 -31.795)" fill="#526271"/>
      <path id="Path_4650" data-name="Path 4650" d="M278.878,319.052a7.085,7.085,0,1,0-2.809-13.586l-4.758-4.914a7.081,7.081,0,1,0-13.18-.952l-17.449,13.444a7.009,7.009,0,0,0-6.729-.379l-5.968-5.773a7.118,7.118,0,1,0-3.5,3.579l5.986,5.79a7.085,7.085,0,1,0,13.28.745L261.2,303.562a7.033,7.033,0,0,0,6.521.479l4.758,4.914a7.068,7.068,0,0,0,6.4,10.1Zm0-9.16a2.076,2.076,0,1,1-2.076,2.076A2.078,2.078,0,0,1,278.878,309.892ZM221.5,306.129a2.076,2.076,0,1,1,2.076-2.076A2.078,2.078,0,0,1,221.5,306.129Zm15.471,15.013a2.076,2.076,0,1,1,2.076-2.076A2.078,2.078,0,0,1,236.97,321.142Zm27.939-21.526a2.076,2.076,0,1,1,2.076-2.076A2.078,2.078,0,0,1,264.909,299.616Z" transform="translate(-142.603 -203.884)" fill="#526271"/>
      <path id="Path_4651" data-name="Path 4651" d="M39,102.354H51.361a2.5,2.5,0,0,0,0-5.009H39a2.5,2.5,0,0,0,0,5.009Z" transform="translate(-24.311 -75.454)" fill="#526271"/>
      <path id="Path_4652" data-name="Path 4652" d="M39,125.354H51.361a2.5,2.5,0,0,0,0-5.009H39a2.5,2.5,0,0,0,0,5.009Z" transform="translate(-24.311 -90.722)" fill="#526271"/>
    </g>
  </g>
</svg>
