<svg xmlns="http://www.w3.org/2000/svg" width="164.764" height="150" viewBox="0 0 164.764 150">
  <g id="_015-secure" data-name="015-secure" transform="translate(0 -22.939)">
    <g id="Group_4479" data-name="Group 4479" transform="translate(2.42 97.361)">
      <g id="Group_4469" data-name="Group 4469" transform="translate(101.033 39.551)">
        <path id="Path_4847" data-name="Path 4847" d="M364.109,390.934h-40.5A1.614,1.614,0,0,1,322,389.321v-10.3a1.614,1.614,0,0,1,1.613-1.613h40.5a1.614,1.614,0,0,1,1.613,1.613v10.3A1.614,1.614,0,0,1,364.109,390.934Z" transform="translate(-322 -377.412)" fill="#fff"/>
      </g>
      <g id="Group_4470" data-name="Group 4470" transform="translate(101.121 39.551)">
        <path id="Path_4848" data-name="Path 4848" d="M339.588,389.321v-10.3a1.614,1.614,0,0,1,1.613-1.613H323.613A1.614,1.614,0,0,0,322,379.025v10.3a1.614,1.614,0,0,0,1.613,1.613H341.2A1.614,1.614,0,0,1,339.588,389.321Z" transform="translate(-322 -377.412)" fill="#eef5f6"/>
      </g>
      <g id="Group_4478" data-name="Group 4478" transform="translate(0 0)">
        <g id="Group_4471" data-name="Group 4471" transform="translate(9.525 0)">
          <path id="Path_4849" data-name="Path 4849" d="M46.7,267.189V258.57c0-5.58,5.334-10.119,11.891-10.119s11.891,4.539,11.891,10.119v8.619h9.681V258.57c0-10.139-9.658-18.358-21.571-18.358s-21.571,8.219-21.571,18.358v8.619Z" transform="translate(-37.019 -240.212)" fill="#2595d3"/>
        </g>
        <g id="Group_4474" data-name="Group 4474" transform="translate(0.005 30.253)">
          <path id="Path_4851" data-name="Path 4851" d="M62.248,380.352H10.5a2.987,2.987,0,0,1-3-2.977V340.423a2.987,2.987,0,0,1,3-2.977H62.248a2.987,2.987,0,0,1,3,2.977v36.951A2.987,2.987,0,0,1,62.248,380.352Z" transform="translate(-7.5 -337.446)" fill="#2595d3"/>
        </g>
        <g id="Group_4476" data-name="Group 4476" transform="translate(0 40.101)">
          <path id="Path_4853" data-name="Path 4853" d="M7.5,379.118H69.692v19.61H7.5Z" transform="translate(-7.5 -379.118)" fill="#fff"/>
        </g>
      </g>
    </g>
    <g id="Group_4480" data-name="Group 4480" transform="translate(0 22.939)">
      <path id="Path_4855" data-name="Path 4855" d="M162.351,112.581a2.414,2.414,0,0,0,2.414-2.414V81.962a5.638,5.638,0,0,0-5.632-5.632h-1.569V49.309a3.383,3.383,0,0,0-3.379-3.379h-3.156V26.318a3.383,3.383,0,0,0-3.379-3.379H38.482A3.383,3.383,0,0,0,35.1,26.318v8.116H29.37a3.383,3.383,0,0,0-3.379,3.379V56.652H24.422a5.638,5.638,0,0,0-5.632,5.632V95.462A23.893,23.893,0,0,0,9.5,114.37v7.365H5.632A5.638,5.638,0,0,0,0,127.367v39.941a5.638,5.638,0,0,0,5.632,5.632H61.218a5.637,5.637,0,0,0,5.583-4.927h92.332a5.638,5.638,0,0,0,5.632-5.632v-40.95a2.414,2.414,0,1,0-4.827,0v40.95a.806.806,0,0,1-.8.8H66.849V127.367a5.638,5.638,0,0,0-5.632-5.632H57.35v-7.365A23.91,23.91,0,0,0,23.618,92.556v-11.4H159.133a.806.806,0,0,1,.8.8v28.206A2.414,2.414,0,0,0,162.351,112.581ZM62.022,167.308a.806.806,0,0,1-.8.8H5.632a.806.806,0,0,1-.8-.8v-7.779h57.2Zm-.8-40.745a.806.806,0,0,1,.8.8v7.779H51.811a2.414,2.414,0,1,0,0,4.827H62.022V154.7H4.827V139.973h35.72a2.414,2.414,0,1,0,0-4.827H4.827v-7.779a.806.806,0,0,1,.8-.8ZM23.98,121.735v-7.365a9.445,9.445,0,0,1,18.889,0v7.365Zm9.444-26.463a19.12,19.12,0,0,1,19.1,19.1v7.365H47.7v-7.365a14.272,14.272,0,0,0-28.543,0v7.365H14.326v-7.365A19.12,19.12,0,0,1,33.425,95.272ZM30.819,39.261h84.066a2.414,2.414,0,1,0,0-4.827H39.93V27.766H146.2V45.93h-4.284V37.813a3.383,3.383,0,0,0-3.379-3.379h-12.39a2.414,2.414,0,1,0,0,4.827H137.09V45.93H45.017a3.383,3.383,0,0,0-3.379,3.379v7.343H30.819Zm-7.2,37.069V62.284a.806.806,0,0,1,.8-.8H74.948a.8.8,0,0,1,.717.439l7.341,14.412Zm129.118,0H88.422l-8.456-16.6a5.606,5.606,0,0,0-5.018-3.076H46.465v-5.9H152.736V76.331Z" transform="translate(0 -22.939)" fill="#526271"/>
      <path id="Path_4856" data-name="Path 4856" d="M316.434,140.922h36.06a2.42,2.42,0,0,0,0-4.84h-36.06a2.42,2.42,0,0,0,0,4.84Z" transform="translate(-213.138 -99.675)" fill="#526271"/>
      <path id="Path_4857" data-name="Path 4857" d="M318.534,369.912a4.038,4.038,0,0,0-4.034,4.034v10.3a4.038,4.038,0,0,0,4.034,4.034h40.5a4.038,4.038,0,0,0,4.034-4.034v-10.3a4.038,4.038,0,0,0-4.034-4.034Zm39.689,13.522H319.34v-8.682h38.882Z" transform="translate(-213.467 -258.36)" fill="#526271"/>
    </g>
  </g>
</svg>
