<svg xmlns="http://www.w3.org/2000/svg" width="201.68" height="151" viewBox="0 0 201.68 151">
  <g id="_015-settings" data-name="015-settings" transform="translate(0.5 -64.151)">
    <g id="Group_4665" data-name="Group 4665" transform="translate(24.334 76.844)">
      <path id="Path_5164" data-name="Path 5164" d="M146.554,169.847c-17.866,0-32.35-13.255-32.35-29.605s14.483-29.605,32.35-29.605V72.15H135.232l-6.043,16.088a7.2,7.2,0,0,1-4.27,4.116l-.063.024a8.176,8.176,0,0,1-6.2-.146l-16.7-7.465L85.936,99.42l8.158,15.286a6.368,6.368,0,0,1,.159,5.678l-.026.057a7.293,7.293,0,0,1-4.5,3.908L72.15,129.88V150.6l17.579,5.53a7.293,7.293,0,0,1,4.5,3.908l.026.057a6.368,6.368,0,0,1-.159,5.678l-8.158,15.286,16.012,14.654,16.7-7.465a8.175,8.175,0,0,1,6.2-.146l.063.024a7.2,7.2,0,0,1,4.27,4.116l6.043,16.088h11.322Z" transform="translate(-72.15 -72.15)" fill="#2595d3"/>
    </g>
    <g id="Group_4670" data-name="Group 4670" transform="translate(185.069 133.315)">
      <g id="Group_4669" data-name="Group 4669">
        <circle id="Ellipse_440" data-name="Ellipse 440" cx="6.335" cy="6.335" r="6.335" fill="#2595d3"/>
      </g>
    </g>
    <g id="Group_4672" data-name="Group 4672" transform="translate(185.069 103.224)">
      <g id="Group_4671" data-name="Group 4671">
        <circle id="Ellipse_441" data-name="Ellipse 441" cx="6.335" cy="6.335" r="6.335" fill="#2595d3"/>
      </g>
    </g>
    <g id="Group_4674" data-name="Group 4674" transform="translate(185.069 163.406)">
      <g id="Group_4673" data-name="Group 4673" transform="translate(0 0)">
        <circle id="Ellipse_442" data-name="Ellipse 442" cx="6.335" cy="6.335" r="6.335" fill="#2595d3"/>
      </g>
    </g>
    <g id="Group_4676" data-name="Group 4676" transform="translate(2.94 133.315)">
      <g id="Group_4675" data-name="Group 4675">
        <circle id="Ellipse_443" data-name="Ellipse 443" cx="6.335" cy="6.335" r="6.335" fill="#2595d3"/>
      </g>
    </g>
    <g id="Group_4678" data-name="Group 4678" transform="translate(6.899 103.224)">
      <g id="Group_4677" data-name="Group 4677">
        <circle id="Ellipse_444" data-name="Ellipse 444" cx="6.335" cy="6.335" r="6.335" fill="#2595d3"/>
      </g>
    </g>
    <g id="Group_4680" data-name="Group 4680" transform="translate(6.899 163.406)">
      <g id="Group_4679" data-name="Group 4679" transform="translate(0 0)">
        <circle id="Ellipse_445" data-name="Ellipse 445" cx="6.335" cy="6.335" r="6.335" fill="#2595d3"/>
      </g>
    </g>
    <g id="Group_4681" data-name="Group 4681" transform="translate(0 64.651)">
      <path id="Path_5167" data-name="Path 5167" d="M285.893,115.675a2.94,2.94,0,0,0-5.068,2.028v46.085a2.939,2.939,0,0,0,2.94,2.94h17.364a2.94,2.94,0,0,0,2.934-3.135c-.94-14.105-4.849-27.684-11.009-38.235a52.064,52.064,0,0,0-7.161-9.684Zm.812,45.174v-34.6q.649,1.006,1.272,2.073c5.257,9,8.75,20.453,9.958,32.526H286.7Z" transform="translate(-170.756 -95.121)" fill="#526271" stroke="#fff" stroke-width="1"/>
      <path id="Path_5168" data-name="Path 5168" d="M325.619,315.994a2.934,2.934,0,0,0,1.442-.378,62.5,62.5,0,0,0,31.485-47.7,2.94,2.94,0,0,0-2.923-3.251H339.278a2.939,2.939,0,0,0-2.935,2.772c-.88,15.378-5.134,30.3-11.977,42.022-.368.63-.772,1.294-1.236,2.032a2.94,2.94,0,0,0,2.488,4.507Zm16.4-45.452h10.234a56.566,56.566,0,0,1-18.3,32.984A103.48,103.48,0,0,0,342.021,270.543Z" transform="translate(-196.205 -186.271)" fill="#526271" stroke="#fff" stroke-width="1"/>
      <path id="Path_5169" data-name="Path 5169" d="M175.3,142.59h7.31a9.275,9.275,0,1,0,0-5.879H175.3a74.627,74.627,0,0,0-5.009-24.212h12.318a9.274,9.274,0,1,0,0-5.879h-14.9A75.283,75.283,0,0,0,101.8,64.671l-1.46-.02H89.373a2.94,2.94,0,0,0-2.78,1.984L80.741,83.661a4.361,4.361,0,0,1-2.461,2.587l-.127.054a4.365,4.365,0,0,1-3.545-.1L58.428,78.3a2.941,2.941,0,0,0-3.368.563l-2.908,2.908a2.94,2.94,0,0,0,4.157,4.157l1.425-1.425,14.294,6.978a10.248,10.248,0,0,0,8.422.23l.071-.031A10.241,10.241,0,0,0,86.3,85.573L91.47,70.531H97.4v34.977a34.27,34.27,0,0,0,0,68.287v34.977H91.471L86.3,193.729a10.243,10.243,0,0,0-5.779-6.11l-.071-.031a10.246,10.246,0,0,0-8.422.23L57.735,194.8,45.2,182.256l6.978-14.294a10.245,10.245,0,0,0,.23-8.422c-.01-.024-.02-.047-.031-.071a10.242,10.242,0,0,0-6.111-5.78L31.219,148.52V130.782l15.042-5.169a10.243,10.243,0,0,0,6.111-5.78c.011-.024.021-.047.031-.071a10.243,10.243,0,0,0-.23-8.422L45.195,97.046l1.417-1.417a2.94,2.94,0,0,0-4.157-4.157l-2.9,2.9a2.941,2.941,0,0,0-.563,3.368l4.335,8.88h-21.3a9.275,9.275,0,1,0,0,5.879H46.2l.693,1.42a4.363,4.363,0,0,1,.1,3.544c-.02.044-.037.086-.054.127a4.359,4.359,0,0,1-2.586,2.461L27.324,125.9a2.94,2.94,0,0,0-1.984,2.78v8.027H18.069a9.275,9.275,0,1,0,0,5.879H25.34v8.027a2.94,2.94,0,0,0,1.984,2.78l17.026,5.852a4.362,4.362,0,0,1,2.587,2.461c.016.041.034.083.054.127a4.363,4.363,0,0,1-.1,3.545L46.2,166.8H22.028a9.274,9.274,0,1,0,0,5.879h21.3l-4.335,8.881a2.941,2.941,0,0,0,.563,3.368L55.06,200.436a2.94,2.94,0,0,0,3.368.563l16.18-7.9a4.361,4.361,0,0,1,3.544-.1l.127.054a4.359,4.359,0,0,1,2.461,2.587l5.852,17.026a2.94,2.94,0,0,0,2.78,1.984h10.99A74.6,74.6,0,0,0,140.78,202.8a2.94,2.94,0,0,0-3.178-4.946A68.692,68.692,0,0,1,103.28,208.71V139.063a2.94,2.94,0,1,0-5.879,0v28.825a28.39,28.39,0,0,1,0-56.474v13.931a2.94,2.94,0,1,0,5.879,0V70.6a69.083,69.083,0,0,1,44.661,119.147,2.94,2.94,0,1,0,4.049,4.263,74.841,74.841,0,0,0,15.7-21.324h14.922a9.275,9.275,0,1,0,0-5.879H170.275A74.163,74.163,0,0,0,175.3,142.59Zm16.1-36.426a3.4,3.4,0,1,1-3.4,3.4A3.4,3.4,0,0,1,191.405,106.164ZM13.234,112.955a3.4,3.4,0,1,1,3.4-3.4A3.4,3.4,0,0,1,13.234,112.955Zm-3.96,30.091a3.4,3.4,0,1,1,3.4-3.4A3.4,3.4,0,0,1,9.275,143.046Zm3.96,30.091a3.4,3.4,0,1,1,3.4-3.4A3.4,3.4,0,0,1,13.234,173.137Zm178.171-36.882a3.4,3.4,0,1,1-3.4,3.4A3.4,3.4,0,0,1,191.405,136.255Zm0,30.091a3.4,3.4,0,1,1-3.4,3.4A3.4,3.4,0,0,1,191.405,166.346Z" transform="translate(0 -64.651)" fill="#526271" stroke="#fff" stroke-width="1"/>
      <path id="Path_5170" data-name="Path 5170" d="M280.825,313.688a2.94,2.94,0,0,0,5.068,2.028,52.083,52.083,0,0,0,7.161-9.684c6.159-10.551,10.069-24.129,11.009-38.235a2.94,2.94,0,0,0-2.934-3.135H283.765a2.939,2.939,0,0,0-2.94,2.94Zm5.88-43.146h11.23c-1.208,12.073-4.7,23.522-9.958,32.526q-.623,1.067-1.272,2.073Z" transform="translate(-170.756 -186.271)" fill="#526271" stroke="#fff" stroke-width="1"/>
      <path id="Path_5171" data-name="Path 5171" d="M336.343,164.94a2.94,2.94,0,0,0,2.935,2.772h16.344a2.94,2.94,0,0,0,2.923-3.251,62.5,62.5,0,0,0-31.485-47.7,2.94,2.94,0,0,0-3.93,4.128c.464.737.869,1.4,1.236,2.032,6.842,11.72,11.1,26.644,11.976,42.022Zm15.913-3.108H342.021a103.5,103.5,0,0,0-8.067-32.984A56.565,56.565,0,0,1,352.255,161.832Z" transform="translate(-196.205 -96.104)" fill="#526271" stroke="#fff" stroke-width="1"/>
    </g>
  </g>
</svg>
