<svg xmlns="http://www.w3.org/2000/svg" width="147.139" height="151" viewBox="0 0 147.139 151">
  <g id="_018-data_transfer" data-name="018-data transfer" transform="translate(-6.09 0.5)">
    <g id="Group_4705" data-name="Group 4705" transform="translate(32.169 48.285)">
      <g id="Group_4701" data-name="Group 4701" transform="translate(0 0)">
        <path id="Path_5191" data-name="Path 5191" d="M114.917,146.2,94.186,174.414h9.773v40.757h21.916V174.414h9.773Z" transform="translate(-94.186 -146.198)" fill="#2595d3"/>
      </g>
      <g id="Group_4703" data-name="Group 4703" transform="translate(47.506 27.375)">
        <path id="Path_5193" data-name="Path 5193" d="M276.721,322.36l20.721-29.511h-9.768V250.221h-21.9v42.627H256Z" transform="translate(-256 -250.221)" fill="#2595d3"/>
      </g>
    </g>
    <path id="Path_5195" data-name="Path 5195" d="M115.891,98.941a2.2,2.2,0,0,0,2.2-2.2v-4.31h1.629a33.017,33.017,0,0,0,14.417-62.718A18.5,18.5,0,0,0,115.756,9.243a18.316,18.316,0,0,0-6.747,1.272A46.212,46.212,0,0,0,49.729,11a2.2,2.2,0,1,0,2.848,3.346,41.818,41.818,0,0,1,54.61.382,2.2,2.2,0,0,0,2.408.322,14.092,14.092,0,0,1,20.25,12.675,14.142,14.142,0,0,1-.288,2.854,2.2,2.2,0,0,0,1.3,2.468A28.622,28.622,0,0,1,119.717,88.04h-1.629V73.307a2.2,2.2,0,0,0-2.2-2.2H90.833a2.2,2.2,0,0,0-2.2,2.2V88.04H70.683V75.5h8.977a2.2,2.2,0,0,0,1.734-3.546L57.69,41.483a2.2,2.2,0,0,0-3.469,0L30.52,71.958A2.2,2.2,0,0,0,32.254,75.5h8.977V88.04H39.6a28.613,28.613,0,0,1-.278-57.226A2.2,2.2,0,0,0,41.317,29.5a41.718,41.718,0,0,1,4.631-8.026,2.2,2.2,0,0,0-3.539-2.605,46.134,46.134,0,0,0-4.539,7.6A33.008,33.008,0,0,0,39.6,92.435h1.629V96.24a2.2,2.2,0,0,0,4.395,0V73.307a2.2,2.2,0,0,0-2.2-2.2H36.746l19.209-24.7,19.211,24.7H68.486a2.2,2.2,0,0,0-2.2,2.2v41.824H45.625v-8.637a2.2,2.2,0,1,0-4.395,0v10.834a2.2,2.2,0,0,0,2.2,2.2H68.486a2.2,2.2,0,0,0,2.2-2.2V92.435H88.636v22.7H79.659a2.2,2.2,0,0,0-1.734,3.546l23.7,30.475a2.2,2.2,0,0,0,3.469,0l23.7-30.475a2.2,2.2,0,0,0-1.734-3.546h-8.977V107a2.2,2.2,0,1,0-4.395,0v10.33a2.2,2.2,0,0,0,2.2,2.2h6.681l-19.209,24.7-19.211-24.7h6.681a2.2,2.2,0,0,0,2.2-2.2V75.5h20.663v21.24a2.2,2.2,0,0,0,2.2,2.2Z" fill="#526271" stroke="#526271" stroke-width="1"/>
  </g>
</svg>
