<svg xmlns="http://www.w3.org/2000/svg" width="122.661" height="150" viewBox="0 0 122.661 150">
  <g id="_018-insight" data-name="018-insight" transform="translate(-47.063 0)">
    <path id="Path_4699" data-name="Path 4699" d="M217.784,202.7a15.273,15.273,0,0,0-5.736,1.115,4.149,4.149,0,0,1-1.855.9c-.076.044-.153.087-.228.131a4.16,4.16,0,0,1-.6,8.278h-1.437l-1.3,6.267a3.556,3.556,0,0,1-3.482,2.833H203A15.359,15.359,0,1,0,217.784,202.7Z" transform="translate(-113.818 -141.714)" fill="#2595d3"/>
    <g id="Group_4346" data-name="Group 4346" transform="translate(47.063 95.233)">
      <g id="Group_4344" data-name="Group 4344" transform="translate(0)">
        <path id="Path_4710" data-name="Path 4710" d="M96.311,329.549H57.224a1.463,1.463,0,0,1-1.463-1.463V313.058a1.464,1.464,0,0,1,1.463-1.463H96.311a1.464,1.464,0,0,1,1.463,1.463v15.027A1.464,1.464,0,0,1,96.311,329.549Z" transform="translate(-55.761 -311.595)" fill="#2595d3"/>
      </g>
      <g id="Group_4345" data-name="Group 4345">
        <path id="Path_4711" data-name="Path 4711" d="M65.571,328.086V313.058a1.464,1.464,0,0,1,1.463-1.463h-9.81a1.464,1.464,0,0,0-1.463,1.463v15.027a1.463,1.463,0,0,0,1.463,1.463h9.81a1.463,1.463,0,0,1-1.463-1.463Z" transform="translate(-55.761 -311.595)" fill="#2595d3"/>
      </g>
    </g>
    <g id="Group_4349" data-name="Group 4349" transform="translate(122.387 47.284)">
      <g id="Group_4347" data-name="Group 4347">
        <path id="Path_4712" data-name="Path 4712" d="M353.1,163.25H314.015a1.463,1.463,0,0,1-1.463-1.463V146.759a1.463,1.463,0,0,1,1.463-1.463H353.1a1.463,1.463,0,0,1,1.463,1.463v15.027A1.463,1.463,0,0,1,353.1,163.25Z" transform="translate(-312.552 -145.296)" fill="#2595d3"/>
      </g>
      <g id="Group_4348" data-name="Group 4348" transform="translate(0 0)">
        <path id="Path_4713" data-name="Path 4713" d="M322.424,161.787V146.759a1.463,1.463,0,0,1,1.463-1.463h-9.871a1.463,1.463,0,0,0-1.463,1.463v15.027a1.463,1.463,0,0,0,1.463,1.463h9.871A1.463,1.463,0,0,1,322.424,161.787Z" transform="translate(-312.552 -145.296)" fill="#2595d3"/>
      </g>
    </g>
    <g id="Group_4352" data-name="Group 4352" transform="translate(48 0)">
      <path id="Path_4715" data-name="Path 4715" d="M77.526,339.183h5.48a2.193,2.193,0,0,0,0-4.386h-5.48a2.193,2.193,0,0,0,0,4.386Z" transform="translate(-67.417 -236.706)" fill="#526271"/>
      <path id="Path_4716" data-name="Path 4716" d="M120.591,339.183h13.59a2.193,2.193,0,0,0,0-4.386h-13.59a2.193,2.193,0,0,0,0,4.386Z" transform="translate(-97.842 -236.706)" fill="#526271"/>
      <path id="Path_4717" data-name="Path 4717" d="M166.32,40.369H142.182a47.825,47.825,0,0,0-25.277-12.8c.052-.667.08-1.339.08-2.015a25.554,25.554,0,0,0-51.1-.7,25.669,25.669,0,0,0,6.924,18.185A47.934,47.934,0,0,0,62.686,89.09H51.924a3.668,3.668,0,0,0-3.664,3.664v15.057a3.668,3.668,0,0,0,3.664,3.664h25.3q1.331,1.157,2.754,2.223a9.671,9.671,0,0,1,3.911,7.7V144.87a5.136,5.136,0,0,0,5.13,5.13h33.854a5.136,5.136,0,0,0,5.13-5.13V141.5a2.2,2.2,0,0,0-4.395,0v3.366a.736.736,0,0,1-.735.735H89.02a.736.736,0,0,1-.735-.735V121.394a14.044,14.044,0,0,0-4.178-9.92h6.981a3.668,3.668,0,0,0,3.664-3.664v-2.523A33.427,33.427,0,0,0,139.6,62.753h11.183a43.909,43.909,0,0,1,1.742,11.587,5.185,5.185,0,0,0,.655,2.447L163,94.252a2.593,2.593,0,0,1-2.261,3.863h-7.387a5.136,5.136,0,0,0-5.13,5.13v9.369a10.554,10.554,0,0,1-10.541,10.542h-8.937a5.136,5.136,0,0,0-5.13,5.13v2.965a2.2,2.2,0,0,0,4.395,0v-2.964a.736.736,0,0,1,.736-.735h8.937a14.953,14.953,0,0,0,14.936-14.936v-9.369a.736.736,0,0,1,.736-.735h7.387a6.988,6.988,0,0,0,6.093-10.41l-9.811-17.463a.776.776,0,0,1-.093-.366,48.367,48.367,0,0,0-1.58-11.517H166.32a3.668,3.668,0,0,0,3.664-3.664V44.033a3.668,3.668,0,0,0-3.664-3.664Zm-30.851,0h-8.312a3.668,3.668,0,0,0-3.664,3.664v.914a33.184,33.184,0,0,0-12.073-3.468,25.282,25.282,0,0,0,4.769-9.566,43.4,43.4,0,0,1,19.279,8.456Zm-65.188-15.4A21.252,21.252,0,0,1,91.115,4.4l.319,0A21.156,21.156,0,0,1,104.46,42.221a12.37,12.37,0,0,0-4.227,6.01l-.858,2.715H93.629V41.135A15.744,15.744,0,0,0,106.2,20.114a2.2,2.2,0,1,0-4.123,1.519,11.352,11.352,0,0,1-8.452,15.048V33.345a8.1,8.1,0,1,0-4.395,0v3.335a11.344,11.344,0,0,1,2.2-22.473,11.243,11.243,0,0,1,4.839,1.083,2.2,2.2,0,1,0,1.877-3.973,15.6,15.6,0,0,0-6.717-1.5,15.737,15.737,0,0,0-2.2,31.321v9.812H83.489l-.84-2.659a12.073,12.073,0,0,0-4.123-5.972A21.251,21.251,0,0,1,70.281,24.971ZM95.075,75.66a1.372,1.372,0,0,1-1.337,1.088H89.214a1.373,1.373,0,0,1-1.335-1.078l-.787-3.645H95.83ZM82.893,67.631a1.974,1.974,0,0,1,0-3.948H99.97a1.974,1.974,0,0,1,0,3.948ZM99.97,59.288H82.893a1.974,1.974,0,1,1,0-3.947H99.97a1.974,1.974,0,1,1,0,3.947ZM91.432,29.257a3.7,3.7,0,1,1,3.7-3.7A3.708,3.708,0,0,1,91.432,29.257ZM64.979,74.2A43.43,43.43,0,0,1,76.071,45.987a7.733,7.733,0,0,1,2.387,3.624l.787,2.489a6.344,6.344,0,0,0-1.388,9.1q-.391.875-.732,1.777a6.279,6.279,0,0,0-.393,1.1A33.384,33.384,0,0,0,78.2,89.09H67.3A43.679,43.679,0,0,1,64.979,74.2ZM90.356,107.08h-37.7V93.485h37.7Zm47.091-32.306a29.024,29.024,0,0,1-42.7,25.619V92.754a3.668,3.668,0,0,0-3.664-3.664H83.152A28.941,28.941,0,0,1,79.6,71.1a6.319,6.319,0,0,0,3,.918l.989,4.58a5.791,5.791,0,0,0,5.631,4.545h2.8a17.573,17.573,0,0,0,22.6,10.08,2.2,2.2,0,1,0-1.558-4.109,13.177,13.177,0,0,1-16.57-6.683,5.773,5.773,0,0,0,2.883-3.877l.943-4.539a6.358,6.358,0,0,0,4.848-10.025A13.18,13.18,0,0,1,119.8,81.411a2.2,2.2,0,0,0,3.793,2.22,17.576,17.576,0,0,0-17.254-26.321,6.364,6.364,0,0,0-2.719-5.209l.8-2.545a7.975,7.975,0,0,1,2.643-3.788c.444-.021.89-.035,1.339-.035a28.858,28.858,0,0,1,15.087,4.241V59.09a3.668,3.668,0,0,0,3.664,3.664h7.68A28.856,28.856,0,0,1,137.448,74.774ZM165.59,58.359h-37.7V44.764h37.7Z" transform="translate(-48.26 0)" fill="#526271"/>
      <path id="Path_4718" data-name="Path 4718" d="M334.317,172.884h5.48a2.193,2.193,0,0,0,0-4.386h-5.48a2.193,2.193,0,1,0,0,4.386Z" transform="translate(-248.945 -119.13)" fill="#526271"/>
      <path id="Path_4719" data-name="Path 4719" d="M377.382,172.884h13.59a2.193,2.193,0,1,0,0-4.386h-13.59a2.193,2.193,0,1,0,0,4.386Z" transform="translate(-279.356 -119.13)" fill="#526271"/>
    </g>
  </g>
</svg>
