<svg xmlns="http://www.w3.org/2000/svg" width="179.448" height="150" viewBox="0 0 179.448 150">
  <g id="_019-time_management" data-name="019-time management" transform="translate(0 -42.01)">
    <g id="Group_4556" data-name="Group 4556" transform="translate(2.62 52.44)">
      <g id="Group_4555" data-name="Group 4555" transform="translate(0 0)">
        <g id="Group_4541" data-name="Group 4541">
          <path id="Path_4960" data-name="Path 4960" d="M133.941,77.189H7.5V63.732A3.142,3.142,0,0,1,10.881,60.9H130.56a3.142,3.142,0,0,1,3.381,2.829Z" transform="translate(-7.5 -60.903)" fill="#2595d3"/>
        </g>
        <g id="Group_4543" data-name="Group 4543" transform="translate(10.369 26.833)">
          <path id="Path_4962" data-name="Path 4962" d="M147.089,184.155V150.081a1.919,1.919,0,0,0-1.919-1.919H39.1a1.919,1.919,0,0,0-1.919,1.919v60.033a1.919,1.919,0,0,0,1.919,1.919h85.264a38.36,38.36,0,0,1,22.726-27.878Z" transform="translate(-37.18 -148.162)" fill="#fff"/>
        </g>
        <g id="Group_4544" data-name="Group 4544" transform="translate(10.369 26.833)">
          <path id="Path_4963" data-name="Path 4963" d="M45.99,210.114V150.081a1.919,1.919,0,0,1,1.919-1.919H39.1a1.919,1.919,0,0,0-1.919,1.919v60.033a1.919,1.919,0,0,0,1.919,1.919h8.81A1.919,1.919,0,0,1,45.99,210.114Z" transform="translate(-37.18 -148.162)" fill="#eef5f6"/>
        </g>
        <g id="Group_4549" data-name="Group 4549" transform="translate(10.369 101.4)">
          <g id="Group_4545" data-name="Group 4545">
            <circle id="Ellipse_403" data-name="Ellipse 403" cx="5.435" cy="5.435" r="5.435" fill="#2595d3"/>
          </g>
          <g id="Group_4548" data-name="Group 4548" transform="translate(33.122)">
            <g id="Group_4546" data-name="Group 4546">
              <circle id="Ellipse_404" data-name="Ellipse 404" cx="5.435" cy="5.435" r="5.435" fill="#2595d3"/>
            </g>
            <g id="Group_4547" data-name="Group 4547" transform="translate(32.794)">
              <circle id="Ellipse_405" data-name="Ellipse 405" cx="5.435" cy="5.435" r="5.435" fill="#2595d3"/>
            </g>
          </g>
        </g>
        <g id="Group_4554" data-name="Group 4554" transform="translate(97.064 64.063)">
          <g id="Group_4550" data-name="Group 4550" transform="translate(0 0)">
            <ellipse id="Ellipse_406" data-name="Ellipse 406" cx="36.976" cy="36.444" rx="36.976" ry="36.444" fill="#2595d3"/>
          </g>
          <g id="Group_4552" data-name="Group 4552" transform="translate(10.655 6.399)">
            <circle id="Ellipse_407" data-name="Ellipse 407" cx="27.916" cy="27.916" r="27.916" fill="#fff"/>
          </g>
        </g>
      </g>
    </g>
    <g id="Group_4557" data-name="Group 4557" transform="translate(0 42.01)">
      <path id="Path_4966" data-name="Path 4966" d="M163.816,118.342V80.276h3.772a3.68,3.68,0,0,0,2.982-5.837L158.387,57.594a3.692,3.692,0,0,0-2.967-1.524h-.015a3.692,3.692,0,0,0-2.964,1.5L140.047,74.415a3.68,3.68,0,0,0,2.964,5.861h4v9.747a2.629,2.629,0,1,0,5.257,0V78.7a3.684,3.684,0,0,0-3.68-3.68h-2.457l9.265-12.593L164.5,75.019h-2.262a3.684,3.684,0,0,0-3.68,3.68v36.078a41.149,41.149,0,0,0-6.292-2.923V102.29a2.629,2.629,0,1,0-5.257,0v8.036a41.3,41.3,0,0,0-8.886-.965c-.6,0-1.2.016-1.8.042V52.137A6.141,6.141,0,0,0,130.192,46H120.041V44.639a2.629,2.629,0,0,0-5.257,0V46H105.97V44.639a2.629,2.629,0,0,0-5.257,0V46H91.9V44.639a2.629,2.629,0,1,0-5.257,0V46H77.827V44.639a2.629,2.629,0,1,0-5.257,0V46H63.756V44.639a2.629,2.629,0,0,0-5.257,0V46H49.685V44.639a2.629,2.629,0,0,0-5.257,0V46H35.613V44.639a2.629,2.629,0,0,0-5.257,0V46H21.542V44.639a2.629,2.629,0,0,0-5.257,0V46H6.133A6.141,6.141,0,0,0,0,52.137v121.74a6.141,6.141,0,0,0,6.133,6.133h102.9a41.285,41.285,0,0,0,53.415,4.079,2.628,2.628,0,1,0-3.1-4.247,36.059,36.059,0,1,1,8.063-8.113,2.629,2.629,0,1,0,4.267,3.071,41.3,41.3,0,0,0-7.867-56.459ZM5.257,173.877V71.441H27.338a2.629,2.629,0,1,0,0-5.257H5.257V52.137a.877.877,0,0,1,.876-.876H16.285v4.445a2.629,2.629,0,1,0,5.257,0V51.26h8.814v4.445a2.629,2.629,0,1,0,5.257,0V51.26h8.814v4.445a2.629,2.629,0,1,0,5.257,0V51.26H58.5v4.445a2.629,2.629,0,1,0,5.257,0V51.26h8.814v4.445a2.629,2.629,0,1,0,5.257,0V51.26H86.64v4.445a2.629,2.629,0,0,0,5.257,0V51.26h8.814v4.445a2.629,2.629,0,1,0,5.257,0V51.26h8.815v4.445a2.629,2.629,0,1,0,5.257,0V51.26h10.151a.877.877,0,0,1,.876.876V66.184H39.6a2.629,2.629,0,1,0,0,5.257h91.463v38.53a41.054,41.054,0,0,0-5.145,1.228V81.14a4.559,4.559,0,0,0-4.554-4.554H14.956A4.559,4.559,0,0,0,10.4,81.14v60.227a4.559,4.559,0,0,0,4.554,4.554H97.074a41.387,41.387,0,0,0,.18,10.9H92.317a8.081,8.081,0,0,0-15.407,0H59.417a8.081,8.081,0,0,0-15.407,0H26.188a8.082,8.082,0,1,0-.13,5.258H44.139a8.08,8.08,0,0,0,15.148,0H77.039a8.08,8.08,0,0,0,15.148,0H98.4a41.187,41.187,0,0,0,6.154,12.673H6.133a.878.878,0,0,1-.876-.877Zm101.37-65.253V97.238h14.039v11.386Zm-41.093,0H52.873V97.238H65.534Zm5.257-11.386H83.452v11.386H70.791ZM47.616,108.625H34.956V97.238H47.616Zm-17.918,0H15.66V97.238H29.7v11.386ZM15.66,113.882H29.7v11.386H15.66Zm19.3,0H47.616v11.386H34.956Zm17.918,0H65.534v11.386H52.873Zm17.918,0H83.452v11.386H70.791Zm17.918,0H101.37v11.386H88.709Zm0-5.257V97.238H101.37v11.386Zm31.957-16.643H106.627V81.843h14.039Zm-19.3,0H88.709V81.843H101.37Zm-17.918,0H70.791V81.843H83.452Zm-17.918,0H52.873V81.843H65.534Zm-17.918,0H34.956V81.843H47.616Zm-17.918,0H15.66V81.843H29.7V91.981ZM15.66,130.526H29.7v10.138H15.66Zm19.3,0H47.616v10.138H34.956Zm17.918,0H65.534v10.138H52.873Zm17.918,0H83.452v10.138H70.791Zm17.918,0H101.37v1.288a41.044,41.044,0,0,0-3.34,8.85h-9.32V130.526Zm17.918-6.556V113.882h12.724A41.581,41.581,0,0,0,106.627,123.97Zm-19.19,35.294a2.824,2.824,0,1,1-2.824-2.824A2.827,2.827,0,0,1,87.437,159.264Zm-32.9,0a2.824,2.824,0,1,1-2.824-2.824A2.827,2.827,0,0,1,54.537,159.264Zm-33.229,0a2.824,2.824,0,1,1-2.824-2.824A2.827,2.827,0,0,1,21.308,159.264Z" transform="translate(0 -42.01)" fill="#526271"/>
      <path id="Path_4967" data-name="Path 4967" d="M337.221,264.673a30.537,30.537,0,1,0,30.537,30.537A30.571,30.571,0,0,0,337.221,264.673Zm0,55.833a25.3,25.3,0,1,1,25.3-25.3A25.325,25.325,0,0,1,337.221,320.506Z" transform="translate(-198.965 -186.402)" fill="#526271"/>
      <path id="Path_4968" data-name="Path 4968" d="M404.2,309.238h-12.37V292.881a2.62,2.62,0,1,0-5.24,0v18.977a2.62,2.62,0,0,0,2.62,2.62H404.2a2.62,2.62,0,1,0,0-5.24Z" transform="translate(-250.956 -203.199)" fill="#526271"/>
    </g>
  </g>
</svg>
