<svg xmlns="http://www.w3.org/2000/svg" width="197.963" height="150" viewBox="0 0 197.963 150">
  <g id="_020-vision" data-name="020-vision" transform="translate(0 -63.632)">
    <g id="Group_4357" data-name="Group 4357" transform="translate(34.886 72.619)">
      <path id="Path_4724" data-name="Path 4724" d="M294.624,87.19a54.654,54.654,0,0,1,41.633,27.472,64.315,64.315,0,0,1,20.759,9A70.682,70.682,0,0,0,294.83,71.136a1.155,1.155,0,0,0-1.248,1.155V86.04A1.16,1.16,0,0,0,294.624,87.19Z" transform="translate(-218.286 -71.132)" fill="#2595d3"/>
      <path id="Path_4725" data-name="Path 4725" d="M106.091,282.929a1.32,1.32,0,0,1,1.736.118l4.389,4.389a1.322,1.322,0,0,0,1.564.225,19.964,19.964,0,0,1,3.731-1.545,1.322,1.322,0,0,0,.947-1.264v-2.44a54.3,54.3,0,0,1-3.906-15.148,1.16,1.16,0,0,0-1.151-1.042H99.652a1.155,1.155,0,0,0-1.155,1.248,70.288,70.288,0,0,0,4.181,18.552A28.487,28.487,0,0,1,106.091,282.929Z" transform="translate(-98.493 -190.756)" fill="#2595d3"/>
      <g id="Group_4355" data-name="Group 4355" transform="translate(0 0)">
        <path id="Path_4727" data-name="Path 4727" d="M114.551,135.54A54.656,54.656,0,0,1,162.9,87.191a1.16,1.16,0,0,0,1.042-1.15V72.292a1.155,1.155,0,0,0-1.248-1.155,70.651,70.651,0,0,0-64.2,64.2,1.155,1.155,0,0,0,1.155,1.248H113.4A1.161,1.161,0,0,0,114.551,135.54Z" transform="translate(-98.493 -71.133)" fill="#2595d3"/>
      </g>
      <path id="Path_4729" data-name="Path 4729" d="M336.257,308.694a54.653,54.653,0,0,1-41.633,27.471,1.16,1.16,0,0,0-1.042,1.15v13.749a1.155,1.155,0,0,0,1.248,1.155,70.682,70.682,0,0,0,62.187-52.527A64.308,64.308,0,0,1,336.257,308.694Z" transform="translate(-218.286 -211.21)" fill="#2595d3"/>
      <path id="Path_4730" data-name="Path 4730" d="M230.264,385.577a54.271,54.271,0,0,1-18.43-5.416h-.667a1.321,1.321,0,0,0-1.264.947,19.949,19.949,0,0,1-1.545,3.731,1.322,1.322,0,0,0,.225,1.564l4.389,4.389a1.32,1.32,0,0,1,.118,1.736,28.408,28.408,0,0,1-3.8,4.05,70.232,70.232,0,0,0,20.764,5.053,1.155,1.155,0,0,0,1.248-1.155V386.727a1.16,1.16,0,0,0-1.042-1.15Z" transform="translate(-165.857 -260.622)" fill="#2595d3"/>
    </g>
    <g id="Group_4364" data-name="Group 4364" transform="translate(124.498 120.218)">
      <g id="Group_4361" data-name="Group 4361" transform="translate(0 0)">
        <circle id="Ellipse_397" data-name="Ellipse 397" cx="16.813" cy="16.813" r="16.813" fill="#2595d3"/>
      </g>
      <g id="Group_4363" data-name="Group 4363" transform="translate(11.009 11.008)">
        <circle id="Ellipse_398" data-name="Ellipse 398" cx="5.804" cy="5.804" r="5.804" fill="#fff"/>
      </g>
    </g>
    <g id="Group_4376" data-name="Group 4376" transform="translate(0 63.632)">
      <path id="Path_4740" data-name="Path 4740" d="M153.093,308.129h0a51.446,51.446,0,0,1-9.45-1.937,4.167,4.167,0,0,0,.431-1.368,31.389,31.389,0,0,0,0-8.142,4.224,4.224,0,0,0-4.181-3.661h-5.068c-.256-.716-.547-1.421-.873-2.108l3.582-3.583a4.226,4.226,0,0,0,.367-5.545,31.332,31.332,0,0,0-5.757-5.757,4.226,4.226,0,0,0-5.546.367l-3.582,3.582q-1.031-.488-2.108-.873v-5.068a4.224,4.224,0,0,0-3.662-4.181,31.528,31.528,0,0,0-8.143,0c-.131.017-.26.04-.386.069a51.4,51.4,0,0,1-1.409-7.579,4.051,4.051,0,0,0-4.028-3.625H89.532a4.05,4.05,0,0,0-4.039,4.393,73.311,73.311,0,0,0,3.758,17.676c-.273.327-.541.657-.8.995a4.225,4.225,0,0,0,.367,5.547l3.582,3.582c-.325.687-.617,1.391-.873,2.108H86.46a4.224,4.224,0,0,0-4.181,3.662,31.339,31.339,0,0,0,0,8.142,4.224,4.224,0,0,0,4.181,3.662h5.068q.384,1.075.873,2.108l-3.582,3.582a4.225,4.225,0,0,0-.367,5.546,31.32,31.32,0,0,0,5.757,5.757,4.224,4.224,0,0,0,5.546-.367l3.582-3.582c.687.325,1.391.617,2.108.873v5.068a4.225,4.225,0,0,0,3.662,4.181,31.387,31.387,0,0,0,8.142,0,4.224,4.224,0,0,0,3.661-4.181V322.4c.716-.256,1.421-.547,2.108-.873l3.582,3.583a4.225,4.225,0,0,0,5.546.366c.061-.047.119-.1.179-.142a73.2,73.2,0,0,0,20,4.609c.115.01.23.015.345.015a4.051,4.051,0,0,0,4.048-4.054V312.157a4.05,4.05,0,0,0-3.625-4.028ZM101.743,264.51a57.156,57.156,0,0,0,3.7,13.855v.74c-.716.256-1.421.547-2.108.873l-3.582-3.582a4.225,4.225,0,0,0-5.546-.367c-.108.083-.213.169-.319.254a67.323,67.323,0,0,1-2.437-11.771Zm16.387,52.713a4.192,4.192,0,0,0-3.01,4.037v4.792a25.606,25.606,0,0,1-3.887,0V321.26a4.192,4.192,0,0,0-3.01-4.037,17.109,17.109,0,0,1-3.19-1.321,4.194,4.194,0,0,0-4.983.726l-3.388,3.388a25.521,25.521,0,0,1-2.748-2.749L97.3,313.88a4.192,4.192,0,0,0,.727-4.984,17.125,17.125,0,0,1-1.32-3.19,4.191,4.191,0,0,0-4.037-3.011H87.877c-.049-.647-.074-1.3-.074-1.943s.025-1.3.074-1.944h4.792a4.191,4.191,0,0,0,4.037-3.01,17.13,17.13,0,0,1,1.321-3.191,4.192,4.192,0,0,0-.726-4.983l-3.387-3.388a25.512,25.512,0,0,1,2.748-2.748l3.388,3.387a4.192,4.192,0,0,0,4.983.726,17.122,17.122,0,0,1,3.191-1.321,4.192,4.192,0,0,0,3.01-4.037v-4.792a25.63,25.63,0,0,1,3.887,0v4.792a4.192,4.192,0,0,0,3.01,4.037,17.1,17.1,0,0,1,3.19,1.32,4.192,4.192,0,0,0,4.983-.726l3.388-3.388a25.53,25.53,0,0,1,2.748,2.749l-3.388,3.388h0a4.193,4.193,0,0,0-.726,4.983,17.081,17.081,0,0,1,1.32,3.19,4.191,4.191,0,0,0,4.037,3.01h4.792c.049.647.074,1.3.074,1.944s-.025,1.3-.074,1.943h-4.792a4.192,4.192,0,0,0-4.037,3.01,17.105,17.105,0,0,1-1.321,3.19,4.193,4.193,0,0,0,.726,4.983l3.388,3.388a25.557,25.557,0,0,1-2.748,2.749l-3.388-3.388a4.192,4.192,0,0,0-4.983-.726,17.1,17.1,0,0,1-3.191,1.321Zm32.8,6.764a67.28,67.28,0,0,1-13.945-3.134c.313-.371.621-.746.917-1.132a4.225,4.225,0,0,0-.367-5.546l-3.582-3.582c.256-.54.484-1.093.7-1.651a57.16,57.16,0,0,0,16.28,4.754Z" transform="translate(-50.269 -183.157)" fill="#526271"/>
      <path id="Path_4741" data-name="Path 4741" d="M331.513,135.414a67.777,67.777,0,0,0-17.871-18.059,73.584,73.584,0,0,0-64.437-53.708,4.053,4.053,0,0,0-4.393,4.046V81.467a4.055,4.055,0,0,0,3.625,4.036h0a51.628,51.628,0,0,1,35.842,20.578,67.462,67.462,0,0,0-64.912,29.333,2.9,2.9,0,0,0,0,3.24,67.462,67.462,0,0,0,64.912,29.333,51.626,51.626,0,0,1-35.842,20.577,4.055,4.055,0,0,0-3.625,4.036v13.774a4.055,4.055,0,0,0,4.048,4.061c.115,0,.23-.005.345-.015a72.836,72.836,0,0,0,41.807-17.783,2.9,2.9,0,0,0-3.8-4.377A67.076,67.076,0,0,1,250.6,204.45v-10.31a57.432,57.432,0,0,0,41.641-27.695,67.36,67.36,0,0,0,13.845-5.24,67.651,67.651,0,0,1-9.948,17.638,2.9,2.9,0,1,0,4.557,3.577,73.4,73.4,0,0,0,12.959-25.72,67.776,67.776,0,0,0,17.856-18.049A2.9,2.9,0,0,0,331.513,135.414ZM283.466,96.278A57.624,57.624,0,0,0,250.6,79.926V69.617a67.793,67.793,0,0,1,55.479,43.239,67.354,67.354,0,0,0-13.838-5.236,57.576,57.576,0,0,0-8.778-11.342ZM225.3,137.034a61.83,61.83,0,0,1,25-20.382,61.794,61.794,0,0,0-12.924,19.2,2.9,2.9,0,0,0,0,2.356,61.779,61.779,0,0,0,12.924,19.2A61.83,61.83,0,0,1,225.3,137.034Zm50.144,25.738c-12.74,0-24.724-9.593-32.245-25.738C250.717,120.89,262.7,111.3,275.441,111.3s24.724,9.593,32.245,25.738C300.165,153.178,288.181,162.772,275.441,162.772Zm25.147-5.355a61.787,61.787,0,0,0,12.924-19.2,2.9,2.9,0,0,0,0-2.356,61.78,61.78,0,0,0-12.924-19.2,61.83,61.83,0,0,1,25,20.382,61.829,61.829,0,0,1-25,20.382Z" transform="translate(-134.045 -63.632)" fill="#526271"/>
      <path id="Path_4742" data-name="Path 4742" d="M347.1,217.171a2.895,2.895,0,0,0,5.412-2.056,19.708,19.708,0,1,0-18.424,26.705A19.616,19.616,0,0,0,351.7,230.951a2.894,2.894,0,1,0-5.172-2.6,13.917,13.917,0,1,1,.572-11.18Z" transform="translate(-192.771 -148.713)" fill="#526271"/>
      <path id="Path_4743" data-name="Path 4743" d="M342.9,239.628a8.7,8.7,0,1,0,8.7-8.7A8.708,8.708,0,0,0,342.9,239.628Zm11.608,0a2.909,2.909,0,1,1-2.909-2.909A2.912,2.912,0,0,1,354.508,239.628Z" transform="translate(-210.296 -166.228)" fill="#526271"/>
      <path id="Path_4744" data-name="Path 4744" d="M42.434,104.39a73.275,73.275,0,0,0-7.3,26.09,4.05,4.05,0,0,0,4.039,4.393H52.922a4.051,4.051,0,0,0,4.028-3.625,51.479,51.479,0,0,1,3.227-13.187l4.817,3.712a9.928,9.928,0,1,0,17.971-1.3l8.245-8.516a9.936,9.936,0,1,0-4.159-4.027l-8.245,8.516a9.892,9.892,0,0,0-10.274.748l-5.876-4.528a51.932,51.932,0,0,1,6.826-9.874,2.895,2.895,0,1,0-4.351-3.819,57.783,57.783,0,0,0-7.119,10.114L49.858,102.8A67.738,67.738,0,0,1,100.57,69.606V79.9a57.515,57.515,0,0,0-24.8,9.606,2.895,2.895,0,0,0,3.286,4.767,51.679,51.679,0,0,1,23.675-8.805,4.051,4.051,0,0,0,3.625-4.028V67.686a4.05,4.05,0,0,0-4.393-4.039A73.507,73.507,0,0,0,45.238,99.242l-4.57-3.521a9.929,9.929,0,1,0-18.123,1.017l-7.805,7.549a9.942,9.942,0,1,0,4.024,4.161l7.805-7.549a9.9,9.9,0,0,0,10.562-.6Zm53.3-5.408A4.139,4.139,0,1,1,91.6,103.12a4.143,4.143,0,0,1,4.139-4.139ZM74.283,121.136a4.139,4.139,0,1,1-4.139,4.139A4.143,4.143,0,0,1,74.283,121.136ZM47.122,108l8.3,6.4a57.123,57.123,0,0,0-4.04,14.685H41.094A67.5,67.5,0,0,1,47.122,108Zm-37.194,9.1a4.139,4.139,0,1,1,4.139-4.139A4.143,4.143,0,0,1,9.928,117.106ZM31.38,96.357a4.139,4.139,0,1,1,4.139-4.139A4.143,4.143,0,0,1,31.38,96.357Z" transform="translate(0 -63.632)" fill="#526271"/>
      <path id="Path_4745" data-name="Path 4745" d="M155.914,349.2a11.579,11.579,0,1,0-11.579,11.579A11.592,11.592,0,0,0,155.914,349.2Zm-11.579,5.789a5.789,5.789,0,1,1,5.789-5.789A5.8,5.8,0,0,1,144.336,354.994Z" transform="translate(-81.415 -231.609)" fill="#526271"/>
    </g>
  </g>
</svg>
