<svg xmlns="http://www.w3.org/2000/svg" width="176.802" height="150" viewBox="0 0 176.802 150">
  <g id="_021-sale_report" data-name="021-sale report" transform="translate(0 -38.809)">
    <g id="Group_4494" data-name="Group 4494" transform="translate(28.406 94.2)">
      <g id="Group_4493" data-name="Group 4493" transform="translate(0 0)">
        <g id="Group_4484" data-name="Group 4484" transform="translate(77.439 72.298)">
          <path id="Path_4862" data-name="Path 4862" d="M314.4,417.85h-7.134a1.126,1.126,0,0,1-1.126-1.126v-7.134a1.126,1.126,0,0,1,1.126-1.126H314.4a1.126,1.126,0,0,1,1.126,1.126v7.134A1.126,1.126,0,0,1,314.4,417.85Z" transform="translate(-306.14 -408.463)" fill="#2595d3"/>
        </g>
        <g id="Group_4489" data-name="Group 4489" transform="translate(0 2.076)">
          <path id="Path_4863" data-name="Path 4863" d="M146.9,216.876c0-14.916-13.409-27.189-29.7-27.189a32.008,32.008,0,0,0-5.938.553v11.982a1.138,1.138,0,0,1-1.185,1.084H91.506a25.182,25.182,0,0,0-4.011,13.569c0,14.916,13.409,27.189,29.7,27.189a32.209,32.209,0,0,0,9.44-1.41l-9.44-25.78h29.7Z" transform="translate(-87.495 -189.687)" fill="#2595d3"/>
          <g id="Group_4487" data-name="Group 4487" transform="translate(45.027 37.258)">
            <g id="Group_4486" data-name="Group 4486" transform="translate(0 0)">
              <path id="Path_4865" data-name="Path 4865" d="M209.617,300.788l7.848,25.8c9.79-3.614,16.847-13.794,16.847-25.8Z" transform="translate(-209.617 -300.788)" fill="#2595d3"/>
            </g>
          </g>
        </g>
        <g id="Group_4492" data-name="Group 4492" transform="translate(67.052)">
          <g id="Group_4490" data-name="Group 4490" transform="translate(0 0.001)">
            <path id="Path_4867" data-name="Path 4867" d="M342.716,196.739h-56c-2.592,0-4.693-1.578-4.693-3.525s2.1-3.525,4.693-3.525h56c2.592,0,4.693,1.578,4.693,3.525S345.308,196.739,342.716,196.739Z" transform="translate(-282.026 -189.688)" fill="#2595d3"/>
          </g>
          <g id="Group_4491" data-name="Group 4491" transform="translate(0)">
            <path id="Path_4868" data-name="Path 4868" d="M286.719,189.686c-2.592,0-4.693,1.578-4.693,3.525s2.1,3.525,4.693,3.525h34.937v-7.051H286.719Z" transform="translate(-282.026 -189.686)" fill="#2595d3"/>
          </g>
        </g>
      </g>
    </g>
    <g id="Group_4498" data-name="Group 4498" transform="translate(0 38.809)">
      <path id="Path_4871" data-name="Path 4871" d="M170.963,60.549H56.612V42.586a3.781,3.781,0,0,0-3.777-3.777H46.272a2.59,2.59,0,1,0,0,5.18h5.16v59.238H5.18V52.911L14.1,43.989H34.186a2.59,2.59,0,0,0,0-5.18H13.521a3.753,3.753,0,0,0-2.671,1.106L1.106,49.659A3.753,3.753,0,0,0,0,52.33v52.3a3.781,3.781,0,0,0,3.777,3.777H17.645v76.188a4.219,4.219,0,0,0,4.215,4.215H136.4a2.59,2.59,0,1,0,0-5.18H22.824V108.407h7.228a32.339,32.339,0,0,0,40.2,42.931,2.589,2.589,0,0,0,1.633-3.279l-8.313-24.8h5.147a2.59,2.59,0,1,0,0-5.18H59.971a2.59,2.59,0,0,0-2.456,3.413l8.595,25.643A27.267,27.267,0,0,1,32.8,120.668a26.785,26.785,0,0,1,2.956-12.261H52.835a3.781,3.781,0,0,0,3.777-3.777V93.715A26.879,26.879,0,0,1,79.141,101.5a27,27,0,0,1,7.875,16.579H80.8a2.59,2.59,0,1,0,0,5.18h8.925a2.59,2.59,0,0,0,2.59-2.59A32.286,32.286,0,0,0,56.612,88.5V80.251h115.01V183.629H148.486a2.59,2.59,0,1,0,0,5.18h24.1a4.22,4.22,0,0,0,4.215-4.215V66.388a5.845,5.845,0,0,0-5.839-5.839Zm.659,14.522H56.612V65.729H170.963a.66.66,0,0,1,.659.659v8.683Z" transform="translate(0 -38.809)" fill="#526271"/>
      <path id="Path_4872" data-name="Path 4872" d="M87.76,400.963a3.716,3.716,0,0,0-3.712,3.712v7.134a3.716,3.716,0,0,0,3.712,3.712h7.134a3.716,3.716,0,0,0,3.712-3.712v-7.134a3.716,3.716,0,0,0-3.712-3.712Zm5.675,9.387H89.218v-4.216h4.217Z" transform="translate(-55.02 -275.86)" fill="#526271"/>
      <path id="Path_4873" data-name="Path 4873" d="M136.741,414.58a2.585,2.585,0,0,0,0,5.17h39.8a2.585,2.585,0,1,0,0-5.17Z" transform="translate(-87.801 -284.783)" fill="#526271"/>
      <path id="Path_4874" data-name="Path 4874" d="M302.352,415.52h7.134a3.716,3.716,0,0,0,3.712-3.712v-7.134a3.716,3.716,0,0,0-3.712-3.712h-7.134a3.716,3.716,0,0,0-3.712,3.712v7.134A3.716,3.716,0,0,0,302.352,415.52Zm1.459-9.387h4.216v4.216h-4.216Z" transform="translate(-195.498 -275.86)" fill="#526271"/>
      <path id="Path_4875" data-name="Path 4875" d="M351.334,419.75h39.8a2.585,2.585,0,0,0,0-5.17h-39.8a2.585,2.585,0,1,0,0,5.17Z" transform="translate(-228.217 -284.783)" fill="#526271"/>
      <path id="Path_4876" data-name="Path 4876" d="M236.991,295.874a2.585,2.585,0,0,0-2.585-2.585H204.7a2.585,2.585,0,0,0-2.451,3.407l9.44,28.163a2.582,2.582,0,0,0,3.272,1.63A32.254,32.254,0,0,0,236.991,295.874Zm-21.258,24.774L208.3,298.459h23.4A27.082,27.082,0,0,1,215.733,320.648Z" transform="translate(-132.291 -205.367)" fill="#526271"/>
      <path id="Path_4877" data-name="Path 4877" d="M387.656,243.015H346.027a2.585,2.585,0,1,0,0,5.17h41.629a2.585,2.585,0,1,0,0-5.17Z" transform="translate(-224.74 -172.495)" fill="#526271"/>
      <path id="Path_4878" data-name="Path 4878" d="M387.656,271.336H346.027a2.585,2.585,0,1,0,0,5.17h41.629a2.585,2.585,0,1,0,0-5.17Z" transform="translate(-224.74 -191.035)" fill="#526271"/>
      <path id="Path_4879" data-name="Path 4879" d="M387.656,299.658H346.027a2.585,2.585,0,1,0,0,5.17h41.629a2.585,2.585,0,1,0,0-5.17Z" transform="translate(-224.74 -209.577)" fill="#526271"/>
      <path id="Path_4880" data-name="Path 4880" d="M387.656,327.98H346.027a2.585,2.585,0,1,0,0,5.17h41.629a2.585,2.585,0,0,0,0-5.17Z" transform="translate(-224.74 -228.118)" fill="#526271"/>
      <path id="Path_4881" data-name="Path 4881" d="M346.027,361.472h41.629a2.585,2.585,0,1,0,0-5.17H346.027a2.585,2.585,0,1,0,0,5.17Z" transform="translate(-224.74 -246.659)" fill="#526271"/>
      <path id="Path_4882" data-name="Path 4882" d="M318.109,248.185h1.255a2.585,2.585,0,1,0,0-5.17h-1.255a2.585,2.585,0,1,0,0,5.17Z" transform="translate(-206.561 -172.495)" fill="#526271"/>
      <path id="Path_4883" data-name="Path 4883" d="M318.109,276.506h1.255a2.585,2.585,0,1,0,0-5.17h-1.255a2.585,2.585,0,1,0,0,5.17Z" transform="translate(-206.561 -191.035)" fill="#526271"/>
      <path id="Path_4884" data-name="Path 4884" d="M318.109,304.828h1.255a2.585,2.585,0,1,0,0-5.17h-1.255a2.585,2.585,0,1,0,0,5.17Z" transform="translate(-206.561 -209.577)" fill="#526271"/>
      <path id="Path_4885" data-name="Path 4885" d="M318.109,333.15h1.255a2.585,2.585,0,1,0,0-5.17h-1.255a2.585,2.585,0,1,0,0,5.17Z" transform="translate(-206.561 -228.118)" fill="#526271"/>
      <path id="Path_4886" data-name="Path 4886" d="M318.109,361.472h1.255a2.585,2.585,0,1,0,0-5.17h-1.255a2.585,2.585,0,1,0,0,5.17Z" transform="translate(-206.561 -246.659)" fill="#526271"/>
      <path id="Path_4887" data-name="Path 4887" d="M345.079,189.465a7.287,7.287,0,0,0-7.278-7.278h-56a7.278,7.278,0,0,0,0,14.557h56A7.286,7.286,0,0,0,345.079,189.465Zm-30.923,2.108H281.8a2.108,2.108,0,1,1,0-4.216h32.352Zm5.17-4.216H337.8a2.108,2.108,0,0,1,0,4.216H319.326Z" transform="translate(-179.578 -132.666)" fill="#526271"/>
      <path id="Path_4888" data-name="Path 4888" d="M54.863,73.407a2.585,2.585,0,0,0-5.17,0V82.7H47.359V70.354a2.585,2.585,0,0,0-5.17,0V82.7H39.856V76.46a2.585,2.585,0,1,0-5.17,0V82.7H33.519a2.585,2.585,0,0,0,0,5.17H63.532a2.585,2.585,0,1,0,0-5.17H62.366V68.318a2.585,2.585,0,0,0-5.17,0V82.7H54.863V73.407Z" transform="translate(-20.271 -56.453)" fill="#526271"/>
      <path id="Path_4889" data-name="Path 4889" d="M35.151,143.642H33.52a2.585,2.585,0,1,0,0,5.17h1.631a2.585,2.585,0,1,0,0-5.17Z" transform="translate(-20.272 -107.439)" fill="#526271"/>
      <path id="Path_4890" data-name="Path 4890" d="M35.151,168.274H33.52a2.585,2.585,0,0,0,0,5.17h1.631a2.585,2.585,0,0,0,0-5.17Z" transform="translate(-20.272 -123.565)" fill="#526271"/>
      <path id="Path_4891" data-name="Path 4891" d="M35.151,192.907H33.52a2.585,2.585,0,1,0,0,5.17h1.631a2.585,2.585,0,1,0,0-5.17Z" transform="translate(-20.272 -139.691)" fill="#526271"/>
      <path id="Path_4892" data-name="Path 4892" d="M80.279,168.274H59.074a2.585,2.585,0,0,0,0,5.17H80.279a2.585,2.585,0,1,0,0-5.17Z" transform="translate(-37.018 -123.565)" fill="#526271"/>
      <path id="Path_4893" data-name="Path 4893" d="M80.279,143.642H59.074a2.585,2.585,0,0,0,0,5.17H80.279a2.585,2.585,0,1,0,0-5.17Z" transform="translate(-37.018 -107.439)" fill="#526271"/>
      <path id="Path_4894" data-name="Path 4894" d="M80.279,192.907H59.074a2.585,2.585,0,0,0,0,5.17H80.279a2.585,2.585,0,1,0,0-5.17Z" transform="translate(-37.018 -139.691)" fill="#526271"/>
    </g>
  </g>
</svg>
