<svg xmlns="http://www.w3.org/2000/svg" width="158.983" height="150" viewBox="0 0 158.983 150">
  <g id="_022-solution" data-name="022-solution" transform="translate(-7.5 -4.139)">
    <g id="Group_4155" data-name="Group 4155" transform="translate(89.444 106.548)">
      <g id="Group_4153" data-name="Group 4153" transform="translate(0 0)">
        <circle id="Ellipse_363" data-name="Ellipse 363" cx="18.322" cy="18.322" r="18.322" fill="#2595d3"/>
      </g>
      <g id="Group_4154" data-name="Group 4154">
        <path id="Path_4483" data-name="Path 4483" d="M282.057,352.611a18.327,18.327,0,0,1,13.082-17.557,18.322,18.322,0,1,0,0,35.114A18.327,18.327,0,0,1,282.057,352.611Z" transform="translate(-271.577 -334.289)" fill="#2595d3"/>
      </g>
    </g>
    <g id="Group_4156" data-name="Group 4156" transform="translate(7.5 4.139)">
      <path id="Path_4484" data-name="Path 4484" d="M250.834,30.566a2.334,2.334,0,0,0,2.334-2.334V16.8a2.334,2.334,0,0,0-4.668,0V28.232A2.334,2.334,0,0,0,250.834,30.566Z" transform="translate(-171.343 -14.465)" fill="#526271"/>
      <path id="Path_4485" data-name="Path 4485" d="M77.172,192.794H88.6a2.334,2.334,0,1,0,0-4.668H77.172a2.334,2.334,0,1,0,0,4.668Z" transform="translate(-51.548 -134.206)" fill="#526271"/>
      <path id="Path_4486" data-name="Path 4486" d="M387.76,192.794h11.433a2.334,2.334,0,1,0,0-4.668H387.76a2.334,2.334,0,0,0,0,4.668Z" transform="translate(-265.834 -134.206)" fill="#526271"/>
      <path id="Path_4487" data-name="Path 4487" d="M347.655,78.081a2.327,2.327,0,0,0,1.651-.684l8.084-8.084a2.334,2.334,0,0,0-3.3-3.3L346.005,74.1a2.334,2.334,0,0,0,1.65,3.984Z" transform="translate(-238.116 -49.5)" fill="#526271"/>
      <path id="Path_4488" data-name="Path 4488" d="M134.47,77.4a2.334,2.334,0,1,0,3.3-3.3l-8.084-8.084a2.334,2.334,0,0,0-3.3,3.3Z" transform="translate(-86.678 -49.5)" fill="#526271"/>
      <path id="Path_4489" data-name="Path 4489" d="M83.834,402.168h24.274a2.334,2.334,0,1,0,0-4.668H83.834a2.334,2.334,0,1,0,0,4.668Z" transform="translate(-56.206 -278.571)" fill="#526271"/>
      <path id="Path_4490" data-name="Path 4490" d="M83.834,428.178h24.274a2.334,2.334,0,1,0,0-4.668H83.834a2.334,2.334,0,1,0,0,4.668Z" transform="translate(-56.206 -296.548)" fill="#526271"/>
      <path id="Path_4491" data-name="Path 4491" d="M134.607,164.167h-4.57a35.1,35.1,0,0,0-16.729-40.9,34.547,34.547,0,0,0,.282-4.4A33.9,33.9,0,0,0,107.7,99.715a2.328,2.328,0,0,0-3.85,2.619,29.415,29.415,0,0,1-3.434,37.231,43.208,43.208,0,0,0-9.531,14.491H81.82V139.475a20.748,20.748,0,1,0-4.658,0v14.581H68.09a41.805,41.805,0,0,0-9.356-14.325,29.433,29.433,0,0,1,38.11-44.638,2.328,2.328,0,1,0,2.748-3.759,34.137,34.137,0,0,0-54.187,26.6,34.168,34.168,0,0,0,1.817,12.023A29.208,29.208,0,0,0,28.2,164.168H24.375a24.366,24.366,0,1,0,0,48.732H42.88a2.328,2.328,0,1,0,0-4.656H24.375a19.71,19.71,0,1,1,0-39.42H31.3a2.328,2.328,0,0,0,2.2-3.1,24.539,24.539,0,0,1,15.553-31.458,34.2,34.2,0,0,0,6.4,8.767,37.076,37.076,0,0,1,8.126,12.282,7.986,7.986,0,0,0-1.336,12.412,7.992,7.992,0,0,0,5,13.643l.858,3.974a11.769,11.769,0,0,0,11.443,9.233,11.651,11.651,0,0,0,6.428-1.941,20.6,20.6,0,0,0,36.491-6.593,2.329,2.329,0,0,0-4.487-1.251,15.946,15.946,0,1,1-.28-9.481,2.329,2.329,0,0,0,4.4-1.515,20.583,20.583,0,0,0-23.2-13.556,8.023,8.023,0,0,0-3.5-4.931,38.613,38.613,0,0,1,8.325-12.47,33.9,33.9,0,0,0,8.606-14.755,30.423,30.423,0,0,1,12.253,37.522,2.328,2.328,0,0,0,2.153,3.214h7.87a19.71,19.71,0,1,1,0,39.42H53.748a2.328,2.328,0,1,0,0,4.656h80.859a24.366,24.366,0,1,0,0-48.731Zm-55.116-39.6a5.7,5.7,0,1,1,5.7-5.7A5.7,5.7,0,0,1,79.491,124.565Zm-16.09-5.7A16.09,16.09,0,1,1,81.82,134.783v-5.829a10.356,10.356,0,1,0-4.658,0v5.829A16.11,16.11,0,0,1,63.4,118.869ZM79.54,189.922a7.086,7.086,0,0,1-6.89-5.559l-.64-2.964H82.022a20.449,20.449,0,0,0,1.631,7.184,7.012,7.012,0,0,1-4.113,1.339Zm2.809-13.18H67.877a3.344,3.344,0,1,1,0-6.687H84.856A20.446,20.446,0,0,0,82.349,176.743ZM88.611,165.4H67.877a3.344,3.344,0,1,1,0-6.687H91.105a3.347,3.347,0,0,1,3.311,2.89,20.672,20.672,0,0,0-5.805,3.8Z" transform="translate(0 -62.9)" fill="#526271"/>
      <path id="Path_4492" data-name="Path 4492" d="M313.586,372.644l-7.794,7.795-5.466-5.467a2.334,2.334,0,1,0-3.3,3.3l7.117,7.117a2.334,2.334,0,0,0,3.3,0l9.445-9.445a2.334,2.334,0,0,0-3.3-3.3Z" transform="translate(-204.355 -260.98)" fill="#526271"/>
    </g>
  </g>
</svg>
