<svg id="_024-speedometer" data-name="024-speedometer" xmlns="http://www.w3.org/2000/svg" width="150" height="150" viewBox="0 0 150 150">
  <g id="Group_4587" data-name="Group 4587" transform="translate(11.697 21.807)">
    <g id="Group_4584" data-name="Group 4584" transform="translate(0 0)">
      <path id="Path_5041" data-name="Path 5041" d="M113.061,67.1a59.466,59.466,0,0,0-56.479,76.906h10a49.649,49.649,0,0,1,81.559-52.776l6.7-6.735A58.763,58.763,0,0,0,113.061,67.1Z" transform="translate(-53.967 -67.1)" fill="#2595d3"/>
    </g>
    <g id="Group_4586" data-name="Group 4586" transform="translate(94.144 17.394)">
      <path id="Path_5043" data-name="Path 5043" d="M387.394,185.785h10.052a59.471,59.471,0,0,0-14.766-59.512l-6.735,6.735a49.825,49.825,0,0,1,11.449,52.776Z" transform="translate(-375.945 -126.273)" fill="#2595d3"/>
    </g>
  </g>
  <g id="Group_4593" data-name="Group 4593" transform="translate(67.874 53.347)">
    <path id="Path_5049" data-name="Path 5049" d="M238.882,182.258s7.126,17.222,7.126,25.536a7.126,7.126,0,0,1-14.253,0c0-8.314,7.126-25.536,7.126-25.536Z" transform="translate(-231.756 -182.258)" fill="#2595d3"/>
  </g>
  <g id="Group_4595" data-name="Group 4595">
    <path id="Path_5051" data-name="Path 5051" d="M138.926,0H11.074A11.105,11.105,0,0,0,0,11.111V31.005a2.2,2.2,0,1,0,4.395,0V11.111a6.7,6.7,0,0,1,6.68-6.7H138.926a6.7,6.7,0,0,1,6.68,6.7V71.817a2.2,2.2,0,1,0,4.395,0V11.111A11.105,11.105,0,0,0,138.926,0Z" transform="translate(0)" fill="#526271"/>
    <path id="Path_5052" data-name="Path 5052" d="M147.8,121.747a2.2,2.2,0,0,0-2.2,2.2v12.274H134.469a61.386,61.386,0,1,0-118.938,0H4.395V83.285a2.2,2.2,0,0,0-4.395,0v64a11.084,11.084,0,0,0,11.074,11.069h46.6l-5.888,19.863H38.895a4.57,4.57,0,0,0-4.564,4.565v4.732a4.569,4.569,0,0,0,4.564,4.562h11.08a2.2,2.2,0,1,0,0-4.393H38.895a.17.17,0,0,1-.17-.17v-4.732a.172.172,0,0,1,.17-.173h72.211a.172.172,0,0,1,.17.173v4.732a.17.17,0,0,1-.17.17H60.229a2.2,2.2,0,1,0,0,4.393h50.877a4.569,4.569,0,0,0,4.564-4.562v-4.732a4.57,4.57,0,0,0-4.564-4.565H98.212l-5.888-19.863h46.6A11.084,11.084,0,0,0,150,147.288V123.943A2.2,2.2,0,0,0,147.8,121.747ZM30,136.216a47.522,47.522,0,1,1,90,0Zm99.925,0h-5.3A51.818,51.818,0,0,0,113.212,85.87l3.589-3.588a56.96,56.96,0,0,1,13.122,53.934ZM18.008,120.959a56.965,56.965,0,0,1,95.686-41.783L110.1,82.764a51.9,51.9,0,0,0-84.729,53.453h-5.3a57.043,57.043,0,0,1-2.068-15.257Zm75.62,57.261H56.372l5.888-19.863H87.74Zm45.3-24.256H11.074a6.686,6.686,0,0,1-6.68-6.677v-6.679H145.605v6.679A6.686,6.686,0,0,1,138.926,153.965Z" transform="translate(0 -42.081)" fill="#526271"/>
    <path id="Path_5053" data-name="Path 5053" d="M233.587,174.758a2.2,2.2,0,0,0-2.037,1.362c-.3.72-7.294,17.726-7.294,26.379a9.331,9.331,0,1,0,18.662,0c0-8.653-7-25.659-7.294-26.379A2.2,2.2,0,0,0,233.587,174.758Zm0,32.663a4.927,4.927,0,0,1-4.922-4.922c0-5.02,2.869-13.773,4.922-19.4.463,1.269.968,2.7,1.471,4.208,2.257,6.771,3.45,12.023,3.45,15.189a4.927,4.927,0,0,1-4.922,4.922Z" transform="translate(-158.587 -123.615)" fill="#526271"/>
    <path id="Path_5054" data-name="Path 5054" d="M250.7,131.629a2.2,2.2,0,0,0,2.2-2.2v-2.969a2.2,2.2,0,0,0-4.409,0v2.969A2.2,2.2,0,0,0,250.7,131.629Z" transform="translate(-175.705 -87.855)" fill="#526271"/>
    <path id="Path_5055" data-name="Path 5055" d="M183.922,143.758a2.2,2.2,0,0,0-3.818,2.2l1.485,2.571a2.2,2.2,0,1,0,3.818-2.2Z" transform="translate(-127.137 -100.868)" fill="#526271"/>
    <path id="Path_5056" data-name="Path 5056" d="M135.4,194.72l-2.571-1.485a2.2,2.2,0,0,0-2.2,3.818l2.571,1.485a2.2,2.2,0,0,0,2.2-3.818Z" transform="translate(-91.582 -136.422)" fill="#526271"/>
    <path id="Path_5057" data-name="Path 5057" d="M116.292,261.632h-2.969a2.2,2.2,0,1,0,0,4.409h2.969a2.2,2.2,0,0,0,0-4.409Z" transform="translate(-78.57 -184.99)" fill="#526271"/>
    <path id="Path_5058" data-name="Path 5058" d="M316.931,142.95a2.2,2.2,0,0,0-3.011.807l-1.485,2.571a2.2,2.2,0,1,0,3.818,2.2l1.485-2.571a2.2,2.2,0,0,0-.807-3.011Z" transform="translate(-220.704 -100.868)" fill="#526271"/>
    <path id="Path_5059" data-name="Path 5059" d="M365.413,194.042a2.2,2.2,0,0,0-3.011-.807l-2.571,1.485a2.2,2.2,0,1,0,2.2,3.818l2.571-1.485a2.2,2.2,0,0,0,.807-3.011Z" transform="translate(-253.649 -136.422)" fill="#526271"/>
    <path id="Path_5060" data-name="Path 5060" d="M380.954,261.632h-2.969a2.2,2.2,0,0,0,0,4.409h2.969a2.2,2.2,0,0,0,0-4.409Z" transform="translate(-265.707 -184.99)" fill="#526271"/>
  </g>
</svg>
