<svg xmlns="http://www.w3.org/2000/svg" width="141.163" height="150" viewBox="0 0 141.163 150">
  <g id="_024-target" data-name="024-target" transform="translate(-13.835)">
    <g id="Group_4325" data-name="Group 4325" transform="translate(21.165 25.825)">
      <g id="Group_4314" data-name="Group 4314" transform="translate(65.716)">
        <g id="Group_4305" data-name="Group 4305" transform="translate(0)">
          <g id="Group_4303" data-name="Group 4303">
            <path id="Path_4658" data-name="Path 4658" d="M274.5,99.875h-9.3a.875.875,0,0,1-.875-.875V89.7a.875.875,0,0,1,.875-.875h9.3a.875.875,0,0,1,.875.875V99A.875.875,0,0,1,274.5,99.875Z" transform="translate(-264.328 -88.824)" fill="#2595d3"/>
          </g>
          <g id="Group_4304" data-name="Group 4304">
            <path id="Path_4659" data-name="Path 4659" d="M269.219,99V89.7a.875.875,0,0,1,.875-.875H265.2a.875.875,0,0,0-.875.875V99a.875.875,0,0,0,.875.875h4.891A.875.875,0,0,1,269.219,99Z" transform="translate(-264.328 -88.824)" fill="#2595d3"/>
          </g>
        </g>
        <g id="Group_4308" data-name="Group 4308" transform="translate(0 19.571)">
          <g id="Group_4306" data-name="Group 4306">
            <path id="Path_4660" data-name="Path 4660" d="M274.5,166.987h-9.3a.875.875,0,0,1-.875-.875v-9.3a.875.875,0,0,1,.875-.875h9.3a.875.875,0,0,1,.875.875v9.3A.875.875,0,0,1,274.5,166.987Z" transform="translate(-264.328 -155.936)" fill="#2595d3"/>
          </g>
          <g id="Group_4307" data-name="Group 4307">
            <path id="Path_4661" data-name="Path 4661" d="M269.219,166.113v-9.3a.875.875,0,0,1,.875-.875H265.2a.875.875,0,0,0-.875.875v9.3a.875.875,0,0,0,.875.875h4.891A.875.875,0,0,1,269.219,166.113Z" transform="translate(-264.328 -155.936)" fill="#2595d3"/>
          </g>
        </g>
        <g id="Group_4311" data-name="Group 4311" transform="translate(0 39.141)">
          <g id="Group_4309" data-name="Group 4309">
            <path id="Path_4662" data-name="Path 4662" d="M274.5,234.1h-9.3a.875.875,0,0,1-.875-.875v-9.3a.875.875,0,0,1,.875-.875h9.3a.875.875,0,0,1,.875.875v9.3A.875.875,0,0,1,274.5,234.1Z" transform="translate(-264.328 -223.048)" fill="#2595d3"/>
          </g>
          <g id="Group_4310" data-name="Group 4310">
            <path id="Path_4663" data-name="Path 4663" d="M269.219,233.225v-9.3a.875.875,0,0,1,.875-.875H265.2a.875.875,0,0,0-.875.875v9.3a.875.875,0,0,0,.875.875h4.891A.875.875,0,0,1,269.219,233.225Z" transform="translate(-264.328 -223.048)" fill="#2595d3"/>
          </g>
        </g>
        <g id="Group_4313" data-name="Group 4313" transform="translate(0 58.711)">
          <path id="Path_4664" data-name="Path 4664" d="M274.5,290.159h-9.3a.875.875,0,0,0-.875.875v2.244a35.643,35.643,0,0,1,5.408,7.932H274.5a.875.875,0,0,0,.875-.875v-9.3A.875.875,0,0,0,274.5,290.159Z" transform="translate(-264.328 -290.159)" fill="#2595d3"/>
          <g id="Group_4312" data-name="Group 4312">
            <path id="Path_4665" data-name="Path 4665" d="M269.219,300.212v-9.178a.875.875,0,0,1,.875-.875H265.2a.875.875,0,0,0-.875.875v2.244A35.7,35.7,0,0,1,269.219,300.212Z" transform="translate(-264.328 -290.159)" fill="#2595d3"/>
          </g>
        </g>
      </g>
      <g id="Group_4321" data-name="Group 4321" transform="translate(0 53.02)">
        <path id="Path_4666" data-name="Path 4666" d="M87.24,260.489a35.712,35.712,0,0,0-7.5.793A18.829,18.829,0,0,1,53.891,283.65,35.583,35.583,0,1,0,87.24,260.489Z" transform="translate(-51.662 -260.489)" fill="#2595d3"/>
        <path id="Path_4668" data-name="Path 4668" d="M115.3,300.1a23.91,23.91,0,0,0-8.09,1.405,18.863,18.863,0,0,1-13.127,11.362A24.021,24.021,0,1,0,115.3,300.1Z" transform="translate(-76.022 -291.511)" fill="#fff"/>
        <g id="Group_4316" data-name="Group 4316" transform="translate(83.839 24.294)">
          <path id="Path_4670" data-name="Path 4670" d="M349.851,353.952H332.616a.875.875,0,0,0-.723.382l-5.419,7.942,5.419,7.942a.875.875,0,0,0,.723.382h17.235a.875.875,0,0,0,.712-1.383l-4.953-6.94,4.953-6.94a.875.875,0,0,0-.712-1.383Z" transform="translate(-326.474 -353.952)" fill="#fff"/>
        </g>
        <g id="Group_4317" data-name="Group 4317" transform="translate(83.839 24.294)">
          <path id="Path_4671" data-name="Path 4671" d="M349.851,353.952H332.616a.875.875,0,0,0-.723.382l-5.419,7.942,5.419,7.942a.875.875,0,0,0,.723.382h17.235a.875.875,0,0,0,.712-1.383l-4.953-6.94,4.953-6.94a.875.875,0,0,0-.712-1.383Z" transform="translate(-326.474 -353.952)" fill="#fff"/>
        </g>
        <g id="Group_4318" data-name="Group 4318" transform="translate(83.839 24.294)">
          <path id="Path_4672" data-name="Path 4672" d="M339.288,370.216l-5.419-7.942,5.419-7.942a.875.875,0,0,1,.723-.382h-7.394a.875.875,0,0,0-.723.382l-5.419,7.942,5.419,7.942a.875.875,0,0,0,.723.382h7.394A.875.875,0,0,1,339.288,370.216Z" transform="translate(-326.475 -353.951)" fill="#eef5f6"/>
        </g>
        <g id="Group_4319" data-name="Group 4319" transform="translate(26.803 20.142)">
          <circle id="Ellipse_390" data-name="Ellipse 390" cx="12.475" cy="12.475" r="12.475" fill="#2595d3"/>
        </g>
      </g>
    </g>
    <g id="Group_4330" data-name="Group 4330" transform="translate(13.835)">
      <path id="Path_4677" data-name="Path 4677" d="M152.812,67.181A2.186,2.186,0,0,0,155,65V5.1A5.107,5.107,0,0,0,149.9,0H76.564a5.107,5.107,0,0,0-5.1,5.1V75.386a37.76,37.76,0,0,0-17.082-1.163,21,21,0,1,0-29.965,25.926,37.741,37.741,0,0,0,69.13,29.409H151.4a3.6,3.6,0,0,0,3.6-3.6V75.2a2.186,2.186,0,0,0-4.372,0v49.99H95.589A37.479,37.479,0,0,0,98.1,113.667h5.7l4.765,6.983a3.058,3.058,0,0,0,2.529,1.336h17.226a3.06,3.06,0,0,0,2.491-4.838l-2.484-3.481h.105a2.186,2.186,0,1,0,0-4.372h-.105l2.484-3.48a3.06,3.06,0,0,0-2.491-4.839H111.1a3.058,3.058,0,0,0-2.528,1.335L103.8,109.3H98.1A37.485,37.485,0,0,0,95.6,97.8h1.416a3.064,3.064,0,0,0,3.06-3.06v-9.3a3.064,3.064,0,0,0-3.06-3.06h-9.3a3.049,3.049,0,0,0-2.2.935,37.859,37.859,0,0,0-9.685-6.288V18.486h74.79V65a2.186,2.186,0,0,0,2.186,2.186Zm-41.024,50.433-2.693-3.947h13.862l2.817,3.947Zm0-12.266h13.985l-2.817,3.947H109.094ZM18.207,81.923A16.635,16.635,0,1,1,34.842,98.558,16.654,16.654,0,0,1,18.207,81.923ZM60.42,144.855a33.379,33.379,0,0,1-31.98-42.926,20.923,20.923,0,0,0,6.4,1c.275,0,.547-.01.82-.021a26.186,26.186,0,0,0,39.079,30.5,2.186,2.186,0,1,0-2.4-3.657,21.813,21.813,0,0,1-31.621-27.663A21.1,21.1,0,0,0,53.949,90.637,21.82,21.82,0,0,1,82.138,109.3H74.91a14.655,14.655,0,1,0,0,4.372h7.225a21.723,21.723,0,0,1-3.278,9.472,2.186,2.186,0,1,0,3.691,2.343,26.083,26.083,0,0,0,3.975-11.815h7.2a33.415,33.415,0,0,1-33.3,31.188Zm0-31.188H70.466a10.283,10.283,0,1,1,0-4.372H60.42a2.186,2.186,0,1,0,0,4.372Zm28.61-26.912H95.7v6.674H93.56a37.919,37.919,0,0,0-4.531-6.541v-.132Zm4.69,22.54H86.528A26.19,26.19,0,0,0,55.494,85.75a20.776,20.776,0,0,0,.066-7.285A33.359,33.359,0,0,1,93.72,109.3ZM88.953,14.114H75.836V5.1a.729.729,0,0,1,.729-.729H88.953v9.742Zm4.372,0V4.372H149.9a.729.729,0,0,1,.729.729v9.014Z" transform="translate(-13.835 0)" fill="#526271"/>
      <path id="Path_4678" data-name="Path 4678" d="M357.307,87.114H323.231a2.187,2.187,0,1,0,0,4.374h34.076a2.187,2.187,0,1,0,0-4.374Z" transform="translate(-231.532 -61.711)" fill="#526271"/>
      <path id="Path_4679" data-name="Path 4679" d="M323.231,117.806h20.181a2.187,2.187,0,1,0,0-4.374H323.231a2.187,2.187,0,0,0,0,4.374Z" transform="translate(-231.515 -80.372)" fill="#526271"/>
      <path id="Path_4680" data-name="Path 4680" d="M357.307,154.226H323.231a2.187,2.187,0,1,0,0,4.374h34.076a2.187,2.187,0,1,0,0-4.374Z" transform="translate(-231.532 -109.276)" fill="#526271"/>
      <path id="Path_4681" data-name="Path 4681" d="M323.231,184.918h20.181a2.187,2.187,0,1,0,0-4.374H323.231a2.187,2.187,0,0,0,0,4.374Z" transform="translate(-231.515 -127.924)" fill="#526271"/>
      <path id="Path_4682" data-name="Path 4682" d="M357.307,221.337H323.231a2.187,2.187,0,1,0,0,4.374h34.076a2.187,2.187,0,1,0,0-4.374Z" transform="translate(-231.532 -156.827)" fill="#526271"/>
      <path id="Path_4683" data-name="Path 4683" d="M323.231,252.03h20.181a2.187,2.187,0,0,0,0-4.374H323.231a2.187,2.187,0,0,0,0,4.374Z" transform="translate(-231.515 -175.476)" fill="#526271"/>
      <path id="Path_4684" data-name="Path 4684" d="M272.254,84.386a3.065,3.065,0,0,0-3.062-3.062h-9.3a3.065,3.065,0,0,0-3.062,3.062v9.3a3.065,3.065,0,0,0,3.062,3.062h9.3a3.065,3.065,0,0,0,3.062-3.062Zm-4.374,7.99H261.2V85.7h6.677Z" transform="translate(-186.01 -57.623)" fill="#526271"/>
      <path id="Path_4685" data-name="Path 4685" d="M272.254,151.5a3.065,3.065,0,0,0-3.062-3.062h-9.3a3.065,3.065,0,0,0-3.062,3.062v9.3a3.065,3.065,0,0,0,3.062,3.062h9.3a3.065,3.065,0,0,0,3.062-3.062Zm-4.374,7.99H261.2V152.81h6.677Z" transform="translate(-186.01 -105.176)" fill="#526271"/>
      <path id="Path_4686" data-name="Path 4686" d="M269.192,215.547h-9.3a3.065,3.065,0,0,0-3.062,3.062v9.3a3.065,3.065,0,0,0,3.062,3.062h9.3a3.065,3.065,0,0,0,3.062-3.062v-9.3a3.065,3.065,0,0,0-3.062-3.062ZM267.879,226.6H261.2v-6.677h6.677Z" transform="translate(-186.01 -152.728)" fill="#526271"/>
      <path id="Path_4687" data-name="Path 4687" d="M359.494,290.636a2.187,2.187,0,0,0-2.187-2.187H323.231a2.187,2.187,0,0,0,0,4.374h34.076A2.187,2.187,0,0,0,359.494,290.636Z" transform="translate(-231.532 -204.379)" fill="#526271"/>
      <path id="Path_4688" data-name="Path 4688" d="M323.231,314.768a2.187,2.187,0,1,0,0,4.374h20.181a2.187,2.187,0,1,0,0-4.374Z" transform="translate(-231.515 -223.028)" fill="#526271"/>
      <path id="Path_4689" data-name="Path 4689" d="M68.974,259.925v-1.58a5.846,5.846,0,0,0-.164-11.69H64.763a1.475,1.475,0,0,1,0-2.95h7.131a2.187,2.187,0,0,0,0-4.374h-2.92V237.76a2.187,2.187,0,0,0-4.374,0v1.579a5.846,5.846,0,0,0,.164,11.69H68.81a1.475,1.475,0,1,1,0,2.95H61.679a2.187,2.187,0,0,0,0,4.374H64.6v1.571a2.187,2.187,0,0,0,4.374,0Z" transform="translate(-45.769 -166.921)" fill="#526271"/>
      <path id="Path_4690" data-name="Path 4690" d="M72.71,87.137h30.9a3.214,3.214,0,0,0,3.21-3.21V69.057a2.187,2.187,0,0,0-4.374,0V82.763H73.874V51.28l5.406-5.406h23.165V58.851a2.187,2.187,0,0,0,4.374,0V44.71a3.214,3.214,0,0,0-3.21-3.21H78.8a3.191,3.191,0,0,0-2.27.94l-6.087,6.087A3.188,3.188,0,0,0,69.5,50.8V83.927A3.213,3.213,0,0,0,72.71,87.137Z" transform="translate(-53.268 -29.398)" fill="#526271"/>
      <path id="Path_4691" data-name="Path 4691" d="M118.317,74.185h-13.8a2.187,2.187,0,0,0,0,4.374h13.8a2.187,2.187,0,1,0,0-4.374Z" transform="translate(-76.543 -52.552)" fill="#526271"/>
      <path id="Path_4692" data-name="Path 4692" d="M118.317,99.448h-13.8a2.187,2.187,0,0,0,0,4.374h13.8a2.187,2.187,0,1,0,0-4.374Z" transform="translate(-76.543 -70.463)" fill="#526271"/>
      <path id="Path_4693" data-name="Path 4693" d="M120.5,127.125a2.187,2.187,0,0,0-2.187-2.187h-13.8a2.187,2.187,0,0,0,0,4.374h13.8A2.187,2.187,0,0,0,120.5,127.125Z" transform="translate(-76.543 -88.524)" fill="#526271"/>
      <path id="Path_4694" data-name="Path 4694" d="M104.522,150.315a2.187,2.187,0,0,0,0,4.374h6.184a2.187,2.187,0,1,0,0-4.374Z" transform="translate(-76.542 -106.505)" fill="#526271"/>
    </g>
  </g>
</svg>
