<svg xmlns="http://www.w3.org/2000/svg" width="141.517" height="150" viewBox="0 0 141.517 150">
  <g id="_025-report" data-name="025-report" transform="translate(-14.478)">
    <g id="Group_4508" data-name="Group 4508" transform="translate(54.807 26.59)">
      <g id="Group_4502" data-name="Group 4502" transform="translate(0 20.945)">
        <path id="Path_4903" data-name="Path 4903" d="M168.978,173.693h-6.422a.876.876,0,0,1-.876-.876V156.062a.876.876,0,0,1,.876-.876H168.1a.876.876,0,0,1,.876.876Z" transform="translate(-161.681 -155.186)" fill="#2595d3"/>
      </g>
      <g id="Group_4503" data-name="Group 4503" transform="translate(15.52 13.575)">
        <path id="Path_4904" data-name="Path 4904" d="M222.146,155.813h-7.3v-25a.876.876,0,0,1,.876-.876h5.546a.876.876,0,0,1,.876.876Z" transform="translate(-214.849 -129.936)" fill="#2595d3"/>
      </g>
      <g id="Group_4504" data-name="Group 4504" transform="translate(31.039 6.363)">
        <path id="Path_4905" data-name="Path 4905" d="M275.313,138.319h-7.3V106.106a.876.876,0,0,1,.876-.876h5.546a.876.876,0,0,1,.876.876Z" transform="translate(-268.016 -105.23)" fill="#2595d3"/>
      </g>
      <g id="Group_4505" data-name="Group 4505" transform="translate(46.558)">
        <path id="Path_4906" data-name="Path 4906" d="M328.48,122.883h-7.3V84.307a.876.876,0,0,1,.876-.876H327.6a.876.876,0,0,1,.876.876Z" transform="translate(-321.183 -83.431)" fill="#2595d3"/>
      </g>
      <g id="Group_4506" data-name="Group 4506" transform="translate(62.078 7.636)">
        <path id="Path_4907" data-name="Path 4907" d="M381.648,141.406h-7.3V110.466a.876.876,0,0,1,.876-.876h5.546a.876.876,0,0,1,.876.876Z" transform="translate(-374.351 -109.59)" fill="#2595d3"/>
      </g>
      <g id="Group_4507" data-name="Group 4507" transform="translate(77.597 16.452)">
        <path id="Path_4908" data-name="Path 4908" d="M433.94,162.794h-6.422V140.67a.876.876,0,0,1,.876-.876h5.546a.876.876,0,0,1,.876.876v21.248A.876.876,0,0,1,433.94,162.794Z" transform="translate(-427.518 -139.794)" fill="#2595d3"/>
      </g>
    </g>
    <g id="Group_4513" data-name="Group 4513" transform="translate(105.184 83.115)">
      <g id="Group_4509" data-name="Group 4509" transform="translate(3.558)">
        <path id="Path_4909" data-name="Path 4909" d="M357.36,284.6h15.417c0-.1.007-.194.007-.292a15.292,15.292,0,0,0-26.328-10.6Z" transform="translate(-346.456 -269)" fill="#2595d3"/>
      </g>
      <g id="Group_4511" data-name="Group 4511" transform="translate(0 2.282)">
        <path id="Path_4911" data-name="Path 4911" d="M337.6,288.991h16.5c0,9.449-7.451,17.225-16.5,17.225s-16.5-7.776-16.5-17.225a17.62,17.62,0,0,1,4.827-12.172Z" transform="translate(-321.097 -276.819)" fill="#2595d3"/>
      </g>
    </g>
    <g id="Group_4516" data-name="Group 4516" transform="translate(84.692 124.639)">
      <path id="Path_4913" data-name="Path 4913" d="M399,425.118H385.523v9.145H399a4.573,4.573,0,0,0,0-9.145Z" transform="translate(-352.11 -425.118)" fill="#2595d3"/>
      <g id="Group_4514" data-name="Group 4514" transform="translate(0 0)">
        <path id="Path_4914" data-name="Path 4914" d="M257.206,425.118c-2.186,0-3.957,2.047-3.957,4.573s1.772,4.573,3.957,4.573h29.456v-9.145Z" transform="translate(-253.249 -425.118)" fill="#2595d3"/>
      </g>
    </g>
    <g id="Group_4517" data-name="Group 4517" transform="translate(14.478)">
      <path id="Path_4916" data-name="Path 4916" d="M153.8,78.123a2.2,2.2,0,0,0,2.2-2.2V3.662A3.666,3.666,0,0,0,152.333,0H48.081a3.666,3.666,0,0,0-3.662,3.662v66.4H36.5a5.127,5.127,0,0,0-4.44,7.69l4.373,7.574A5.131,5.131,0,0,0,32,90.4v4.252a5.091,5.091,0,0,0,.817,2.766,35.526,35.526,0,0,0-9.339,6.575,29.158,29.158,0,0,0-9,20.774c0,9.258,4.646,17.993,12.746,23.966A6.587,6.587,0,0,0,31.109,150H152.333A3.666,3.666,0,0,0,156,146.338V86.179a2.2,2.2,0,0,0-4.395,0v59.426H67.783a29.622,29.622,0,0,0,8.639-16.025,2.2,2.2,0,0,0-4.328-.763,26.236,26.236,0,0,1-11.17,16.788H31.109a2.161,2.161,0,0,1-1.277-.408c-6.965-5.136-10.96-12.582-10.96-20.429a24.8,24.8,0,0,1,7.7-17.646,31.957,31.957,0,0,1,12-7.343H52.78c9.647,3.347,16.945,10.666,19.054,19.667a2.2,2.2,0,0,0,4.279-1c-2.127-9.076-8.707-16.663-17.61-21.027a5.092,5.092,0,0,0,.816-2.764V90.4a5.131,5.131,0,0,0-4.433-5.074l4.373-7.574a5.127,5.127,0,0,0-4.44-7.69h-6V4.395H151.6V75.925a2.2,2.2,0,0,0,2.2,2.2ZM54.924,90.4v4.252a.733.733,0,0,1-.732.732H37.131a.733.733,0,0,1-.732-.732V90.4a.733.733,0,0,1,.732-.732h17.06A.733.733,0,0,1,54.924,90.4Zm-.106-15.944a.732.732,0,0,1,.634,1.1l-5.611,9.719h-8.36L35.87,75.555a.732.732,0,0,1,.634-1.1Z" transform="translate(-14.478)" fill="#526271"/>
      <path id="Path_4917" data-name="Path 4917" d="M98.5,392.818a2.189,2.189,0,0,0,2.189-2.189v-2.472h.321a6.731,6.731,0,1,0,0-13.463h-5.02a2.353,2.353,0,0,1,0-4.706h8.845a2.189,2.189,0,0,0,0-4.378h-4.146v-2.472a2.189,2.189,0,0,0-4.378,0v2.472h-.321a6.731,6.731,0,1,0,0,13.463h5.02a2.353,2.353,0,0,1,0,4.706H92.163a2.189,2.189,0,0,0,0,4.378h4.146v2.472A2.189,2.189,0,0,0,98.5,392.818Z" transform="translate(-67.337 -255.039)" fill="#526271"/>
      <path id="Path_4918" data-name="Path 4918" d="M243.456,116.7V95.448a3.068,3.068,0,0,0-3.065-3.065h-5.546a3.068,3.068,0,0,0-3.065,3.065v19.935h-3.843V86.632a3.068,3.068,0,0,0-3.065-3.065h-5.546a3.068,3.068,0,0,0-3.065,3.065v28.751h-3.843V79a3.068,3.068,0,0,0-3.065-3.065h-5.546A3.068,3.068,0,0,0,200.741,79v36.387H196.9V103.39a2.189,2.189,0,1,0-4.378,0v11.993H189.6V86.673h2.919v6.5a2.189,2.189,0,1,0,4.378,0V85.359a3.068,3.068,0,0,0-3.065-3.065h-5.546a3.068,3.068,0,0,0-3.065,3.065v30.024h-3.843V92.571a3.068,3.068,0,0,0-3.065-3.065h-5.546a3.068,3.068,0,0,0-3.065,3.065v22.812h-3.843V99.941a3.068,3.068,0,0,0-3.065-3.065h-5.546a3.068,3.068,0,0,0-3.065,3.065V116.7a3.068,3.068,0,0,0,3.065,3.065h83.143a3.068,3.068,0,0,0,3.065-3.065Zm-81.975-1.314h-2.919V101.255h2.919Zm15.519,0h-2.919v-21.5H177Zm31.039,0h-2.919V80.309h2.919Zm15.519,0h-2.919V87.945h2.919Zm15.519,0h-2.919V96.762h2.919Z" transform="translate(-112.886 -53.767)" fill="#526271"/>
      <path id="Path_4919" data-name="Path 4919" d="M352.639,276.8h-1.076a17.474,17.474,0,0,0-28.076-11.616l-.767-.766a2.19,2.19,0,0,0-1.547-.64h0a2.19,2.19,0,0,0-1.548.642,20.616,20.616,0,1,0,35.2,14.568A2.189,2.189,0,0,0,352.639,276.8Zm-18.427-10.925A13.133,13.133,0,0,1,347.14,276.8H335.118l-8.5-8.491A13.038,13.038,0,0,1,334.212,265.878Zm0,29.352a16.234,16.234,0,0,1-12.929-26.056l11.382,11.367a2.19,2.19,0,0,0,1.547.64H350.3A16.262,16.262,0,0,1,334.212,295.231Z" transform="translate(-225.767 -184.793)" fill="#526271"/>
      <path id="Path_4920" data-name="Path 4920" d="M205.341,275.164h24.515a2.189,2.189,0,0,0,0-4.378H205.341a2.189,2.189,0,0,0,0,4.378Z" transform="translate(-147.824 -191.445)" fill="#526271"/>
      <path id="Path_4921" data-name="Path 4921" d="M205.341,303.925h24.515a2.189,2.189,0,0,0,0-4.378H205.341a2.189,2.189,0,0,0,0,4.378Z" transform="translate(-147.824 -211.779)" fill="#526271"/>
      <path id="Path_4922" data-name="Path 4922" d="M216.846,332.687H238a2.189,2.189,0,0,0,0-4.378H216.846a2.189,2.189,0,0,0,0,4.378Z" transform="translate(-155.963 -232.114)" fill="#526271"/>
      <path id="Path_4923" data-name="Path 4923" d="M239.856,361.448H254.3a2.189,2.189,0,0,0,0-4.378h-14.44a2.189,2.189,0,0,0,0,4.378Z" transform="translate(-172.243 -252.448)" fill="#526271"/>
      <path id="Path_4924" data-name="Path 4924" d="M181.371,41.192a2.189,2.189,0,1,0,0-4.378H156.787a2.189,2.189,0,0,0,0,4.378Z" transform="translate(-113.508 -26.068)" fill="#526271"/>
      <path id="Path_4925" data-name="Path 4925" d="M400.537,41.192h13.5a2.189,2.189,0,1,0,0-4.378h-13.5a2.189,2.189,0,1,0,0,4.378Z" transform="translate(-285.78 -26.068)" fill="#526271"/>
      <path id="Path_4926" data-name="Path 4926" d="M400.537,67.653h13.5a2.189,2.189,0,1,0,0-4.378h-13.5a2.189,2.189,0,1,0,0,4.378Z" transform="translate(-285.78 -44.805)" fill="#526271"/>
      <path id="Path_4927" data-name="Path 4927" d="M252.511,431.142h47.513a6.762,6.762,0,1,0,0-13.524H252.511a6.762,6.762,0,1,0,0,13.524ZM288.738,422h11.286a2.383,2.383,0,1,1,0,4.767H288.738Zm-36.227,0h31.849v4.767H252.511a2.383,2.383,0,1,1,0-4.767Z" transform="translate(-177.724 -295.168)" fill="#526271"/>
    </g>
  </g>
</svg>
