<svg xmlns="http://www.w3.org/2000/svg" width="185.802" height="150" viewBox="0 0 185.802 150">
  <g id="_026-decision" data-name="026-decision" transform="translate(0 -49.327)">
    <g id="Group_4390" data-name="Group 4390" transform="translate(1.325 54.218)">
      <g id="Group_4389" data-name="Group 4389" transform="translate(0 0)">
        <path id="Path_4758" data-name="Path 4758" d="M108.1,87.484h-5.331a22.206,22.206,0,0,0-38.3-21.772,18.211,18.211,0,0,0-25.5,7.676A15.575,15.575,0,1,1,19.343,97.464a14.8,14.8,0,0,0-.854,4.955,14.978,14.978,0,0,0,14.934,14.934H108.1a14.934,14.934,0,1,0,0-29.869Z" transform="translate(-18.489 -56.829)" fill="#2595d3"/>
      </g>
    </g>
    <g id="Group_4393" data-name="Group 4393" transform="translate(0 49.327)">
      <path id="Path_4764" data-name="Path 4764" d="M184.286,115.312,160.6,97.886a3.72,3.72,0,0,0-5.925,3v6.972h-16.57A49.785,49.785,0,0,0,94.237,67.54,24.908,24.908,0,0,0,70.281,49.327,24.642,24.642,0,0,0,51.851,57.5,20.863,20.863,0,0,0,26.169,64.86,18.248,18.248,0,0,0,4.506,93.306a17.59,17.59,0,0,0,17.1,21.83H39.481c-.012.312-.029.623-.035.935a49.812,49.812,0,0,0,5.719,24.1H31.126v-6.66a3.72,3.72,0,0,0-5.9-3.015L1.54,147.627a3.72,3.72,0,0,0-.025,6.011L25.2,171.064a3.72,3.72,0,0,0,5.924-3V161.1H38.1a2.722,2.722,0,1,0,0-5.443H29.4a3.725,3.725,0,0,0-3.72,3.72v5.288L6.644,150.653l19.038-13.767v5.01a3.725,3.725,0,0,0,3.72,3.72H48.487a49.725,49.725,0,0,0,9.335,10.035H50.805a2.722,2.722,0,1,0,0,5.443H62.643a9.157,9.157,0,0,1,.643,3.346v14.2H59.877a6.358,6.358,0,0,0-6.351,6.351v7.984a6.358,6.358,0,0,0,6.351,6.351H93.989a2.722,2.722,0,1,0,0-5.443H59.877a.908.908,0,0,1-.907-.907v-7.984a.908.908,0,0,1,.907-.907h55.886a.908.908,0,0,1,.907.907v7.984a.908.908,0,0,1-.907.907h-9.072a2.722,2.722,0,1,0,0,5.443h9.072a6.358,6.358,0,0,0,6.351-6.351v-7.984a6.358,6.358,0,0,0-6.351-6.351h-6.4V171.49a.279.279,0,0,1,.278-.278h9.142a15.771,15.771,0,0,0,15.753-15.753v-9.583a.279.279,0,0,1,.278-.278h7.557a7.623,7.623,0,0,0,6.645-11.356l-3.07-5.465h8.732v6.66a3.717,3.717,0,0,0,5.9,3.015l23.686-17.128a3.72,3.72,0,0,0,.024-6.011Zm-178.842-34A12.816,12.816,0,1,1,18.259,94.131,12.83,12.83,0,0,1,5.443,81.316Zm136.924,58.838h-7.557a5.728,5.728,0,0,0-5.722,5.722v9.583a10.322,10.322,0,0,1-10.31,10.31h-9.142a5.728,5.728,0,0,0-5.722,5.722v7.152H68.728v-14.2a14.883,14.883,0,0,0-6-11.858,44.465,44.465,0,0,1-17.841-36.409c.007-.347.019-.693.033-1.039H72.579a2.722,2.722,0,0,0,0-5.443H21.6A12.187,12.187,0,0,1,9.431,97.519c0-.075.006-.148.007-.223A18.248,18.248,0,0,0,30.659,67.93,15.426,15.426,0,0,1,51.19,63.26a2.721,2.721,0,0,0,3.548-.717A19.427,19.427,0,0,1,88.247,81.587a2.722,2.722,0,0,0,2.517,3.758H96.08a12.173,12.173,0,0,1,0,24.347H85.28a2.722,2.722,0,1,0,0,5.443h10.8a17.617,17.617,0,0,0,0-35.234H94.49a24.809,24.809,0,0,0,.66-5.706c0-.361-.012-.719-.027-1.076A44.324,44.324,0,0,1,133.5,116.315a5.78,5.78,0,0,0,.731,2.728l10.037,17.865a2.179,2.179,0,0,1-1.9,3.246Zm17.751-8.09v-5.01a3.725,3.725,0,0,0-3.72-3.72H142.885l-3.908-6.956a.326.326,0,0,1-.035-.15c-.016-.982-.063-1.958-.135-2.929H156.4a3.724,3.724,0,0,0,3.72-3.72v-5.288L179.157,118.3Z" transform="translate(0 -49.327)" fill="#526271"/>
      <path id="Path_4765" data-name="Path 4765" d="M42.2,124.671a2.729,2.729,0,0,0-3.859-3.859l-6.1,6.1-4.122-4.122a2.729,2.729,0,1,0-3.859,3.859l6.051,6.052a2.729,2.729,0,0,0,3.859,0Z" transform="translate(-14.927 -94.368)" fill="#526271"/>
      <path id="Path_4766" data-name="Path 4766" d="M150.008,120.9H113.921a2.729,2.729,0,0,0,0,5.458h36.087a2.729,2.729,0,1,0,0-5.458Z" transform="translate(-70.872 -94.931)" fill="#526271"/>
      <path id="Path_4767" data-name="Path 4767" d="M150.008,147.487H113.921a2.729,2.729,0,1,0,0,5.458h36.087a2.729,2.729,0,1,0,0-5.458Z" transform="translate(-70.872 -111.869)" fill="#526271"/>
      <path id="Path_4768" data-name="Path 4768" d="M141.278,174.072H113.921a2.729,2.729,0,1,0,0,5.458h27.357a2.729,2.729,0,1,0,0-5.458Z" transform="translate(-70.864 -128.807)" fill="#526271"/>
    </g>
  </g>
</svg>
