<svg xmlns="http://www.w3.org/2000/svg" width="192.073" height="150" viewBox="0 0 192.073 150">
  <g id="_029-predictive_chart" data-name="029-predictive chart" transform="translate(0 -56.076)">
    <g id="Group_4526" data-name="Group 4526" transform="translate(27.541 102.85)">
      <path id="Path_4928" data-name="Path 4928" d="M183.3,245.215H173.061a1.876,1.876,0,0,0-1.876,1.876v74.368H189.42V250.542a40.644,40.644,0,0,1-6.122-5.327Z" transform="translate(-139.463 -221.122)" fill="#2595d3"/>
      <g id="Group_4519" data-name="Group 4519" transform="translate(63.443 49.862)">
        <path id="Path_4930" data-name="Path 4930" d="M273.986,364.373H255.751v-48.6a1.876,1.876,0,0,1,1.876-1.876H272.11a1.876,1.876,0,0,1,1.876,1.876Z" transform="translate(-255.751 -313.899)" fill="#2595d3"/>
      </g>
      <g id="Group_4522" data-name="Group 4522" transform="translate(0 47.989)">
        <g id="Group_4521" data-name="Group 4521" transform="translate(0 0)">
          <path id="Path_4932" data-name="Path 4932" d="M104.854,361.253H86.619V310.781A1.876,1.876,0,0,1,88.5,308.9h14.483a1.876,1.876,0,0,1,1.876,1.876Z" transform="translate(-86.619 -308.905)" fill="#2595d3"/>
        </g>
      </g>
      <path id="Path_4934" data-name="Path 4934" d="M356.676,245.215H347.89a40.659,40.659,0,0,1-7.573,6.308V321.46h18.235V247.091A1.876,1.876,0,0,0,356.676,245.215Z" transform="translate(-245.152 -221.122)" fill="#2595d3"/>
      <g id="Group_4524" data-name="Group 4524" transform="translate(126.886 0)">
        <path id="Path_4936" data-name="Path 4936" d="M443.118,267.926H424.883v-98.55a1.833,1.833,0,0,1,1.876-1.786h14.483a1.833,1.833,0,0,1,1.876,1.786Z" transform="translate(-424.883 -167.589)" fill="#2595d3"/>
      </g>
    </g>
    <g id="Group_4537" data-name="Group 4537" transform="translate(0 56.076)">
      <path id="Path_4945" data-name="Path 4945" d="M189.259,200.449h-8.822V175.718a2.814,2.814,0,0,0-5.627,0v24.731H162.2V100.723H174.81v61.865a2.814,2.814,0,1,0,5.627,0v-62.8a4.694,4.694,0,0,0-4.689-4.689H161.267a4.694,4.694,0,0,0-4.689,4.689V200.449h-7.865V128.906a4.694,4.694,0,0,0-4.689-4.689h-2.887A43.245,43.245,0,1,0,63.423,90.574H50.107a6.566,6.566,0,0,0-5.891-3.687H12.281a12.281,12.281,0,0,0,0,24.562H23.259a2.814,2.814,0,1,0,0-5.627H12.281a6.654,6.654,0,0,1,0-13.308H44.216a.939.939,0,0,1,.938.938v11.433a.939.939,0,0,1-.938.938H36.389a2.814,2.814,0,1,0,0,5.627h7.827a6.567,6.567,0,0,0,5.891-3.687H63.362a43.037,43.037,0,0,0,7.07,16.453H66.094a4.694,4.694,0,0,0-4.689,4.689v71.543H53.54V152.8a4.694,4.694,0,0,0-4.689-4.689H34.37a4.694,4.694,0,0,0-4.689,4.689v47.651H2.814a2.814,2.814,0,0,0,0,5.627H189.259a2.814,2.814,0,1,0,0-5.627ZM62.627,102.136H50.781V96.2H62.647q-.111,1.549-.114,3.126C62.533,100.271,62.567,101.207,62.627,102.136ZM47.913,200.449H35.308V153.736H47.913ZM68.16,99.327a37.624,37.624,0,1,1,37.624,37.624A37.667,37.667,0,0,1,68.16,99.327ZM79.638,200.449H67.032V129.844h8.132a43.63,43.63,0,0,0,4.474,3.912Zm31.724,0H98.757V155.61h12.605Zm13.492,0h-7.865V154.672a4.694,4.694,0,0,0-4.689-4.689H97.818a4.694,4.694,0,0,0-4.689,4.689v45.776H85.264V137.393a43.188,43.188,0,0,0,39.589.747v62.309Zm18.233,0H130.481V134.813a43.582,43.582,0,0,0,5.923-4.969h6.682Z" transform="translate(0 -56.076)" fill="#526271"/>
      <path id="Path_4946" data-name="Path 4946" d="M230.178,150.673a31.076,31.076,0,0,0,15.219-3.991,2.814,2.814,0,1,0-2.762-4.9,25.5,25.5,0,1,1,8.7-8.034,2.814,2.814,0,0,0,4.67,3.141,31.1,31.1,0,1,0-25.829,13.788Z" transform="translate(-124.394 -76.305)" fill="#526271"/>
      <path id="Path_4949" data-name="Path 4949" d="M4.69,243.7H47.911a4.7,4.7,0,0,0,4.69-4.69V222.688a4.7,4.7,0,0,0-4.69-4.69H4.69A4.7,4.7,0,0,0,0,222.688V239.01A4.7,4.7,0,0,0,4.69,243.7Zm.938-20.074H46.973v14.446H5.628Z" transform="translate(0 -157.256)" fill="#526271"/>
      <path id="Path_4950" data-name="Path 4950" d="M32.528,244.749H26.4a2.814,2.814,0,0,0,0,5.628h6.127a2.814,2.814,0,0,0,0-5.628Z" transform="translate(-14.737 -173.97)" fill="#526271"/>
      <path id="Path_4951" data-name="Path 4951" d="M79.119,244.749H63.924a2.814,2.814,0,1,0,0,5.628H79.119a2.814,2.814,0,1,0,0-5.628Z" transform="translate(-38.181 -173.97)" fill="#526271"/>
      <path id="Path_4952" data-name="Path 4952" d="M28.823,326.37H12.314a2.814,2.814,0,0,0,0,5.628H28.823a2.814,2.814,0,0,0,0-5.628Z" transform="translate(-5.936 -224.972)" fill="#526271"/>
      <path id="Path_4953" data-name="Path 4953" d="M28.823,351.633H12.314a2.814,2.814,0,0,0,0,5.628H28.823a2.814,2.814,0,0,0,0-5.628Z" transform="translate(-5.936 -240.758)" fill="#526271"/>
      <path id="Path_4954" data-name="Path 4954" d="M31.637,379.937a2.814,2.814,0,0,0-2.814-2.814H12.314a2.814,2.814,0,0,0,0,5.628H28.823A2.814,2.814,0,0,0,31.637,379.937Z" transform="translate(-5.936 -256.689)" fill="#526271"/>
      <path id="Path_4955" data-name="Path 4955" d="M12.314,402.5a2.814,2.814,0,0,0,0,5.628h7.4a2.814,2.814,0,0,0,0-5.628Z" transform="translate(-5.936 -272.545)" fill="#526271"/>
    </g>
  </g>
</svg>
