<svg xmlns="http://www.w3.org/2000/svg" width="141.837" height="150" viewBox="0 0 141.837 150">
  <g id="_030-time" data-name="030-time" transform="translate(-13.931)">
    <g id="Group_4127" data-name="Group 4127" transform="translate(55.403 5.136)">
      <g id="Group_4126" data-name="Group 4126" transform="translate(0 0)">
        <g id="Group_4118" data-name="Group 4118" transform="translate(0 19.122)">
          <circle id="Ellipse_357" data-name="Ellipse 357" cx="6.133" cy="6.133" r="6.133" transform="translate(0 0)" fill="#2595d3"/>
        </g>
        <g id="Group_4120" data-name="Group 4120" transform="translate(21.696)">
          <circle id="Ellipse_358" data-name="Ellipse 358" cx="6.133" cy="6.133" r="6.133" transform="translate(0)" fill="#2595d3"/>
        </g>
        <g id="Group_4122" data-name="Group 4122" transform="translate(57.145 25.883)">
          <circle id="Ellipse_359" data-name="Ellipse 359" cx="6.133" cy="6.133" r="6.133" transform="translate(0)" fill="#2595d3"/>
        </g>
        <g id="Group_4124" data-name="Group 4124" transform="translate(76.831 9.506)">
          <circle id="Ellipse_360" data-name="Ellipse 360" cx="6.133" cy="6.133" r="6.133" transform="translate(0 0)" fill="#2595d3"/>
        </g>
      </g>
    </g>
    <g id="Group_4137" data-name="Group 4137" transform="translate(16.344 65.928)">
      <g id="Group_4136" data-name="Group 4136" transform="translate(0 0)">
        <g id="Group_4130" data-name="Group 4130">
          <path id="Path_4457" data-name="Path 4457" d="M84.619,217.981a27.923,27.923,0,0,1-.021,6.587,1.578,1.578,0,0,1-1.57,1.378H77.359a1.587,1.587,0,0,0-1.512,1.126,19.663,19.663,0,0,1-1.369,3.308,1.588,1.588,0,0,0,.273,1.866l4.006,4.006a1.579,1.579,0,0,1,.135,2.086,28.023,28.023,0,0,1-4.795,4.795A1.579,1.579,0,0,1,72.012,243l-4.006-4.006a1.588,1.588,0,0,0-1.866-.273,19.686,19.686,0,0,1-3.308,1.369,1.587,1.587,0,0,0-1.126,1.512v5.668a1.578,1.578,0,0,1-1.378,1.57,28.1,28.1,0,0,1-6.783,0,1.578,1.578,0,0,1-1.378-1.57V241.6a1.587,1.587,0,0,0-1.126-1.512,19.662,19.662,0,0,1-3.308-1.369,1.588,1.588,0,0,0-1.866.273L41.861,243a1.579,1.579,0,0,1-2.086.135,27.993,27.993,0,0,1-3.076-2.8,42.5,42.5,0,1,0,47.92-22.35Z" transform="translate(-32.228 -217.981)" fill="#2595d3"/>
          <g id="Group_4128" data-name="Group 4128" transform="translate(2.941 20.389)">
            <path id="Path_4458" data-name="Path 4458" d="M38.3,313.351a42.352,42.352,0,0,1,3.131-16.025,1.568,1.568,0,0,1-1.663-.163,28,28,0,0,1-3.076-2.8A42.51,42.51,0,0,0,74.725,355.85c1.016,0,2.023-.039,3.021-.111A42.5,42.5,0,0,1,38.3,313.351Z" transform="translate(-32.226 -294.362)" fill="#2595d3"/>
          </g>
          <path id="Path_4459" data-name="Path 4459" d="M99.406,246.929a1.615,1.615,0,0,0-.362.62,19.661,19.661,0,0,1-1.369,3.308,1.588,1.588,0,0,0,.273,1.866l4.006,4.006a1.579,1.579,0,0,1,.135,2.086A28.02,28.02,0,0,1,97.3,263.61a1.579,1.579,0,0,1-2.086-.135L91.2,259.468a1.588,1.588,0,0,0-1.866-.273,19.687,19.687,0,0,1-3.308,1.369,1.587,1.587,0,0,0-1.126,1.512v5.668a1.578,1.578,0,0,1-1.378,1.57,28.1,28.1,0,0,1-6.783,0,1.578,1.578,0,0,1-1.378-1.57v-5.668a1.587,1.587,0,0,0-1.126-1.512,19.646,19.646,0,0,1-2.34-.9,32.9,32.9,0,1,0,27.508-12.738Z" transform="translate(-52.484 -240.419)" fill="#fff"/>
        </g>
      </g>
    </g>
    <g id="Group_4138" data-name="Group 4138" transform="translate(13.931 0)">
      <path id="Path_4464" data-name="Path 4464" d="M165.946,36.757a8.322,8.322,0,0,0,7.274-12.375l9.2-8.895a8.3,8.3,0,0,0,9.266-.521l24.688,19.022a8.328,8.328,0,1,0,14.864-1.079l7.534-7.78a8.34,8.34,0,1,0-3.153-3.054l-7.533,7.78a8.306,8.306,0,0,0-9.03.657L194.364,11.491a8.328,8.328,0,1,0-15,.842l-9.215,8.913a8.326,8.326,0,1,0-4.2,15.512Zm76.831-22.862a3.938,3.938,0,1,1-3.938,3.938A3.943,3.943,0,0,1,242.777,13.895ZM224.072,33.213a3.938,3.938,0,1,1-3.938,3.938A3.943,3.943,0,0,1,224.072,33.213ZM186.662,4.389a3.938,3.938,0,1,1-3.938,3.938A3.943,3.943,0,0,1,186.662,4.389Zm-20.716,20.1a3.938,3.938,0,1,1-3.938,3.938A3.943,3.943,0,0,1,165.946,24.492Z" transform="translate(-115.4 0)" fill="#526271"/>
      <path id="Path_4465" data-name="Path 4465" d="M153.571,181.105h-3.943v-17.9a2.2,2.2,0,1,0-4.395,0v17.9h-7.886V122.29h7.886v30.661a2.2,2.2,0,1,0,4.395,0V121.079a3.188,3.188,0,0,0-3.183-3.184H136.136a3.188,3.188,0,0,0-3.183,3.184v60.027H130.9V134.592a3.188,3.188,0,0,0-3.183-3.184H117.408a3.188,3.188,0,0,0-3.183,3.184v46.513h-2.053V122.614a3.188,3.188,0,0,0-3.183-3.184H98.68a3.188,3.188,0,0,0-3.183,3.184v30.253q-.99-1.13-2.053-2.191V130.385a2.2,2.2,0,1,0-4.395,0v16.434a44.842,44.842,0,0,0-7.886-4.852V113.384h7.886v6.744a2.2,2.2,0,1,0,4.395,0v-7.956a3.188,3.188,0,0,0-3.183-3.184H79.952a3.188,3.188,0,0,0-3.183,3.184v27.961q-1.624-.576-3.3-1.028a3.785,3.785,0,0,0-3.31-1.951H64.928a21.989,21.989,0,0,0-1.19-2.875l3.693-3.695a3.782,3.782,0,0,0,.312-5,30.289,30.289,0,0,0-5.176-5.178,3.779,3.779,0,0,0-5,.312l-3.693,3.695A22.023,22.023,0,0,0,51,123.226V118a3.779,3.779,0,0,0-3.311-3.755,30.452,30.452,0,0,0-7.322,0A3.779,3.779,0,0,0,37.058,118v5.227a22.022,22.022,0,0,0-2.875,1.19l-3.693-3.695a3.778,3.778,0,0,0-5-.312,30.266,30.266,0,0,0-5.176,5.178,3.782,3.782,0,0,0,.312,5l3.693,3.695a22.021,22.021,0,0,0-1.19,2.875H17.907a3.779,3.779,0,0,0-3.754,3.312,30.332,30.332,0,0,0,0,7.325,3.779,3.779,0,0,0,3.754,3.313h5.226a21.981,21.981,0,0,0,1.19,2.875l-3.693,3.695a3.782,3.782,0,0,0-.312,5c.274.35.558.691.846,1.028A44.747,44.747,0,0,0,88.884,218a2.2,2.2,0,0,0-2.658-3.5,39.981,39.981,0,0,1-24.384,8.2A40.366,40.366,0,0,1,24.5,167.035c.326.278.655.552.993.816a3.773,3.773,0,0,0,4.209.29,35.136,35.136,0,1,0,43.756-18.978,3.733,3.733,0,0,0,.449-1.371,30.414,30.414,0,0,0,.222-3.662c0-.084,0-.167,0-.251a40.373,40.373,0,0,1,19.086,63.846,2.2,2.2,0,1,0,3.414,2.768,44.881,44.881,0,0,0,9.85-24.991h47.1a2.2,2.2,0,0,0,0-4.4Zm-125.8-17.061a25.9,25.9,0,0,1-3.646-3.647l3.624-3.625a3.775,3.775,0,0,0,.665-4.446,17.533,17.533,0,0,1-1.218-2.944,3.772,3.772,0,0,0-3.612-2.673H18.454c-.086-.855-.129-1.72-.129-2.579s.043-1.724.129-2.579h5.128a3.772,3.772,0,0,0,3.612-2.673,17.554,17.554,0,0,1,1.218-2.944,3.775,3.775,0,0,0-.665-4.446l-3.624-3.625a25.887,25.887,0,0,1,3.646-3.647l3.624,3.625a3.772,3.772,0,0,0,4.444.665,17.534,17.534,0,0,1,2.943-1.219,3.773,3.773,0,0,0,2.672-3.613v-5.129a26.042,26.042,0,0,1,5.156,0v5.129a3.773,3.773,0,0,0,2.672,3.613,17.571,17.571,0,0,1,2.943,1.219,3.771,3.771,0,0,0,4.444-.665l3.624-3.625a25.886,25.886,0,0,1,3.646,3.647l-3.624,3.626a3.775,3.775,0,0,0-.665,4.446,17.552,17.552,0,0,1,1.218,2.944,3.772,3.772,0,0,0,3.612,2.673h5.128c.086.856.129,1.721.129,2.579s-.043,1.723-.129,2.579H64.478a3.772,3.772,0,0,0-3.612,2.673,17.555,17.555,0,0,1-1.218,2.944,3.775,3.775,0,0,0,.665,4.446l3.624,3.626a25.917,25.917,0,0,1-3.646,3.647l-3.624-3.625a3.771,3.771,0,0,0-4.444-.665,17.551,17.551,0,0,1-2.943,1.219,3.773,3.773,0,0,0-2.672,3.613v5.129a26.044,26.044,0,0,1-5.156,0v-5.129a3.773,3.773,0,0,0-2.672-3.613,17.584,17.584,0,0,1-2.943-1.219,3.773,3.773,0,0,0-4.444.665Zm47.5-9.372-.11.19a2.2,2.2,0,1,0,3.806,2.2l.107-.185a31,31,0,0,1,8.22,8.221l-.185.107a2.2,2.2,0,1,0,2.2,3.807l.192-.111a30.531,30.531,0,0,1,3.014,11.235h-5.9a2.2,2.2,0,0,0,0,4.4h5.9A30.532,30.532,0,0,1,89.5,195.767l-.193-.111a2.2,2.2,0,0,0-2.2,3.807l.187.108a31,31,0,0,1-8.22,8.223l-.108-.187a2.2,2.2,0,1,0-3.806,2.2l.111.193a30.507,30.507,0,0,1-11.232,3.014v-5.842a2.2,2.2,0,1,0-4.395,0v5.843A30.505,30.505,0,0,1,48.413,210l.111-.193a2.2,2.2,0,1,0-3.806-2.2l-.108.187a31,31,0,0,1-8.22-8.223l.187-.108a2.2,2.2,0,0,0-2.2-3.807l-.193.111a30.538,30.538,0,0,1-3.013-11.236H37.1a2.2,2.2,0,0,0,0-4.4H31.18a30.57,30.57,0,0,1,5.379-15.276c.166.06.331.12.5.176v5.227a3.779,3.779,0,0,0,3.311,3.755,30.325,30.325,0,0,0,7.323,0A3.779,3.779,0,0,0,51,170.263v-5.227a22.06,22.06,0,0,0,2.875-1.19l3.693,3.695a3.778,3.778,0,0,0,5,.312,30.271,30.271,0,0,0,5.177-5.178,3.782,3.782,0,0,0-.312-5l-3.693-3.695a21.976,21.976,0,0,0,.976-2.268,30.5,30.5,0,0,1,10.556,2.96Zm32.507,26.433h-1.2a44.48,44.48,0,0,0-6.682-22.3V123.826h7.886Zm18.728,0h-7.886V135.8h7.886Z" transform="translate(-13.931 -77.097)" fill="#526271"/>
      <path id="Path_4466" data-name="Path 4466" d="M148.215,352.832,139.09,368.2a2.195,2.195,0,1,0,3.774,2.241l8.017-13.5,9.248,5.354a2.195,2.195,0,1,0,2.2-3.8L151.2,352.053a2.194,2.194,0,0,0-2.987.779Z" transform="translate(-102.195 -248.684)" fill="#526271"/>
      <path id="Path_4467" data-name="Path 4467" d="M81.157,208.078a14.69,14.69,0,1,0-14.69-14.69,14.706,14.706,0,0,0,14.69,14.69Zm0-24.99a10.3,10.3,0,1,1-10.3,10.3,10.312,10.312,0,0,1,10.3-10.3Z" transform="translate(-51.095 -126.33)" fill="#526271"/>
      <path id="Path_4468" data-name="Path 4468" d="M100.876,219.641a6.533,6.533,0,1,0-6.533-6.533,6.54,6.54,0,0,0,6.533,6.533Zm0-8.676a2.144,2.144,0,1,1-2.144,2.143,2.146,2.146,0,0,1,2.144-2.143Z" transform="translate(-70.782 -146.049)" fill="#526271"/>
      <path id="Path_4469" data-name="Path 4469" d="M352.682,385.754a2.194,2.194,0,0,0-3.1,3.1l5.637,5.637-5.637,5.637a2.194,2.194,0,1,0,3.1,3.1l7.188-7.188a2.194,2.194,0,0,0,0-3.1Z" transform="translate(-250.779 -272.24)" fill="#526271"/>
      <path id="Path_4470" data-name="Path 4470" d="M404.886,385.754a2.194,2.194,0,0,0-3.1,3.1l5.637,5.637-5.637,5.637a2.194,2.194,0,1,0,3.1,3.1l7.188-7.189a2.194,2.194,0,0,0,0-3.1Z" transform="translate(-287.665 -272.24)" fill="#526271"/>
      <path id="Path_4471" data-name="Path 4471" d="M457.09,385.754a2.194,2.194,0,0,0-3.1,3.1l5.637,5.637-5.637,5.637a2.194,2.194,0,1,0,3.1,3.1l7.189-7.188a2.194,2.194,0,0,0,0-3.1Z" transform="translate(-324.594 -272.24)" fill="#526271"/>
    </g>
  </g>
</svg>
