<svg xmlns="http://www.w3.org/2000/svg" width="125.491" height="150" viewBox="0 0 125.491 150">
  <g id="_032-data_synchronization" data-name="032-data synchronization" transform="translate(-41.828)">
    <g id="Group_4757" data-name="Group 4757" transform="translate(70.889 86.12)">
      <g id="Group_4756" data-name="Group 4756" transform="translate(0 0)">
        <g id="Group_4754" data-name="Group 4754">
          <path id="Path_5226" data-name="Path 5226" d="M194.754,313.685a3.177,3.177,0,0,1,1.919-1.77l7.5-2.505v-9.388l-7.5-2.505a3.177,3.177,0,0,1-1.919-1.77l-.011-.026a3.044,3.044,0,0,1,.068-2.572l3.48-6.925-6.832-6.638-7.127,3.382a3.3,3.3,0,0,1-2.647.066l-.027-.011a3.164,3.164,0,0,1-1.822-1.864l-2.578-7.288H167.6l-2.578,7.288a3.164,3.164,0,0,1-1.822,1.864l-.027.011a3.3,3.3,0,0,1-2.647-.066l-7.127-3.382-6.831,6.638,3.48,6.925a3.044,3.044,0,0,1,.068,2.572l-.011.026a3.178,3.178,0,0,1-1.919,1.77l-7.5,2.505v9.388l7.5,2.505a3.177,3.177,0,0,1,1.919,1.77l.011.026a3.044,3.044,0,0,1-.068,2.572l-3.48,6.925,6.831,6.638,7.127-3.382a3.3,3.3,0,0,1,2.647-.066l.027.011a3.164,3.164,0,0,1,1.822,1.864l2.578,7.288h9.661l2.578-7.288a3.164,3.164,0,0,1,1.822-1.864l.027-.011a3.3,3.3,0,0,1,2.647.066l7.127,3.382,6.832-6.638-3.48-6.925a3.043,3.043,0,0,1-.068-2.572Zm-22.325,4.442a13.416,13.416,0,1,1,13.8-13.411A13.61,13.61,0,0,1,172.428,318.127Z" transform="translate(-140.684 -273.871)" fill="#2595d3"/>
        </g>
      </g>
    </g>
    <g id="Group_4758" data-name="Group 4758" transform="translate(41.828 0)">
      <path id="Path_5228" data-name="Path 5228" d="M202.148,36.183H173.8a2.19,2.19,0,0,0-2.19,2.19V48.938a2.19,2.19,0,0,0,2.19,2.19h28.348a2.19,2.19,0,0,0,2.19-2.19V38.373A2.19,2.19,0,0,0,202.148,36.183Zm-2.19,10.565H175.99V40.563h23.968Z" transform="translate(-133.543 -25.618)" fill="#526270"/>
      <path id="Path_5229" data-name="Path 5229" d="M243.975,110.738a2.19,2.19,0,0,0,2.19,2.19h23.771a2.19,2.19,0,0,0,0-4.38H246.165A2.19,2.19,0,0,0,243.975,110.738Z" transform="translate(-184.695 -76.744)" fill="#526270"/>
      <path id="Path_5230" data-name="Path 5230" d="M173.8,112.928h10.565a2.19,2.19,0,0,0,0-4.38H173.8a2.19,2.19,0,0,0,0,4.38Z" transform="translate(-133.571 -76.744)" fill="#526270"/>
      <path id="Path_5231" data-name="Path 5231" d="M159.3,66.024q.055-.644.055-1.292a15.053,15.053,0,0,0-8.182-13.378V20.842a8.246,8.246,0,0,0-.125-1.458A8.723,8.723,0,0,0,148.59,14.6L136.569,2.586A8.725,8.725,0,0,0,131.788.125,8.218,8.218,0,0,0,130.329,0H89.335a8.833,8.833,0,0,0-8.824,8.821V28.872a2.2,2.2,0,0,0,4.4,0V8.821a4.432,4.432,0,0,1,4.428-4.427h39.885V16.441a5.517,5.517,0,0,0,5.511,5.51h12.05V49.9a15.091,15.091,0,0,0-2.467-.206,14.911,14.911,0,0,0-5.237.938,36.856,36.856,0,0,0-5.763-3.832h5.062a2.2,2.2,0,1,0,0-4.395h-10.6a2.2,2.2,0,0,0-2.029,1.352,36.931,36.931,0,0,0-9.9-1.352H93.312a2.2,2.2,0,1,0,0,4.395h5.059A36.927,36.927,0,0,0,84.907,59.171V39.126a2.2,2.2,0,0,0-4.4,0V63.5a26.488,26.488,0,0,0-.658,52.347v3.314a2.2,2.2,0,0,0,1.483,2.078l7.984,2.744a1.305,1.305,0,0,1,.722,1.742l-3.7,7.584a2.2,2.2,0,0,0,.421,2.518l7.272,7.27a2.2,2.2,0,0,0,2.518.421l7.587-3.7a1.3,1.3,0,0,1,1.742.722l2.744,7.982A2.2,2.2,0,0,0,110.7,150h10.285a2.2,2.2,0,0,0,2.079-1.483l2.744-7.982a1.309,1.309,0,0,1,1.743-.721l7.586,3.7a2.2,2.2,0,0,0,2.518-.421l7.272-7.27a2.2,2.2,0,0,0,.421-2.518l-3.7-7.584a1.309,1.309,0,0,1,.721-1.742l7.984-2.744a2.2,2.2,0,0,0,1.483-2.078v-3.308a26.321,26.321,0,0,0,12.276-5.536,2.2,2.2,0,1,0-2.768-3.413,21.945,21.945,0,0,1-9.507,4.482v-2.506a2.2,2.2,0,0,0-1.483-2.078l-7.984-2.744a1.305,1.305,0,0,1-.722-1.742l3.7-7.584a2.2,2.2,0,0,0-.421-2.518l-7.272-7.27a2.2,2.2,0,0,0-2.518-.421l-7.586,3.7a1.3,1.3,0,0,1-1.743-.722l-2.744-7.982a2.2,2.2,0,0,0-2.079-1.483H110.7a2.2,2.2,0,0,0-2.079,1.483L105.879,87.5a1.308,1.308,0,0,1-1.743.722l-7.586-3.7a2.2,2.2,0,0,0-2.518.421l-7.272,7.27a2.2,2.2,0,0,0-.421,2.518l3.7,7.584a1.307,1.307,0,0,1-.722,1.742L81.337,106.8a2.2,2.2,0,0,0-1.483,2.078v2.5a22.1,22.1,0,0,1,4.18-43.75,2.2,2.2,0,0,0,1.993-1.318,32.53,32.53,0,0,1,51.221-11.478,2.2,2.2,0,0,0,2.41.322,10.547,10.547,0,0,1,4.656-1.07,10.656,10.656,0,0,1,10.43,12.805,2.2,2.2,0,0,0,1.3,2.466,22.071,22.071,0,0,1,13.5,20.365,21.823,21.823,0,0,1-2.368,9.958,2.2,2.2,0,0,0,3.921,1.986,26.178,26.178,0,0,0,2.843-11.944,26.453,26.453,0,0,0-14.637-23.7ZM133.615,16.441V5.848l11.712,11.709h-10.6a1.117,1.117,0,0,1-1.116-1.116ZM84.249,110.447l6.5-2.234a5.7,5.7,0,0,0,3.242-7.826l-3.016-6.175,5.054-5.053,6.177,3.016a5.635,5.635,0,0,0,4.626.127l.026-.01a5.627,5.627,0,0,0,3.178-3.358l2.234-6.5h7.148l2.234,6.5a5.625,5.625,0,0,0,3.178,3.358l.029.012a5.629,5.629,0,0,0,4.622-.128l6.177-3.016,5.054,5.053-3.016,6.175a5.617,5.617,0,0,0-.131,4.613l.015.036a5.626,5.626,0,0,0,3.359,3.177l6.5,2.234v7.146l-6.5,2.234a5.722,5.722,0,0,0-3.242,7.826l3.016,6.175-5.054,5.053-6.176-3.016a5.7,5.7,0,0,0-7.829,3.241l-2.235,6.5H112.27l-2.234-6.5a5.7,5.7,0,0,0-7.829-3.242l-6.177,3.016-5.054-5.053,3.016-6.175a5.617,5.617,0,0,0,.131-4.613L94.108,123a5.626,5.626,0,0,0-3.359-3.177l-6.5-2.234v-7.146Z" transform="translate(-53.099 0)" fill="#526270"/>
      <path id="Path_5232" data-name="Path 5232" d="M286.771,315.062l-.016-.006h0Z" transform="translate(-214.997 -222.754)" fill="#526270"/>
      <path id="Path_5233" data-name="Path 5233" d="M215.189,365.207a16.829,16.829,0,1,0-3.721-33.244,2.19,2.19,0,1,0,.972,4.27,12.46,12.46,0,0,1,15,9.956H202.931a12.305,12.305,0,0,1,2.314-5.3,2.19,2.19,0,1,0-3.494-2.64,16.676,16.676,0,0,0-3.392,10.133A16.847,16.847,0,0,0,215.189,365.207Zm0-4.38a12.468,12.468,0,0,1-12.254-10.258h24.507A12.468,12.468,0,0,1,215.189,360.827Z" transform="translate(-152.444 -234.239)" fill="#526270"/>
      <path id="Path_5234" data-name="Path 5234" d="M47.728,99.674a2.19,2.19,0,0,0,2.19,2.19H60.881a2.19,2.19,0,1,0,0-4.38H52.107V75.964l2.161,2.161a2.19,2.19,0,1,0,3.1-3.1l-5.9-5.9a2.19,2.19,0,0,0-3.1,0l-5.9,5.9a2.19,2.19,0,1,0,3.1,3.1l2.161-2.161v23.71Z" transform="translate(-41.828 -48.489)" fill="#526270"/>
      <path id="Path_5235" data-name="Path 5235" d="M418.023,92.225a2.19,2.19,0,0,0-3.1,0l-2.161,2.161V70.676a2.19,2.19,0,0,0-2.19-2.19H399.612a2.19,2.19,0,0,0,0,4.38h8.773v21.52l-2.161-2.161a2.19,2.19,0,0,0-3.1,3.1l5.9,5.9a2.19,2.19,0,0,0,3.1,0l5.9-5.9a2.19,2.19,0,0,0,0-3.1Z" transform="translate(-293.173 -48.489)" fill="#526270"/>
    </g>
  </g>
</svg>
