<svg id="_034-data_security" data-name="034-data security" xmlns="http://www.w3.org/2000/svg" width="150" height="150" viewBox="0 0 150 150">
  <g id="Group_4605" data-name="Group 4605" transform="translate(11.667 86.098)">
    <g id="Group_4600" data-name="Group 4600" transform="translate(0 0)">
      <g id="Group_4599" data-name="Group 4599">
        <circle id="Ellipse_425" data-name="Ellipse 425" cx="4.735" cy="4.735" r="4.735" fill="#2595d3"/>
      </g>
    </g>
    <g id="Group_4604" data-name="Group 4604" transform="translate(0 41.136)">
      <g id="Group_4603" data-name="Group 4603">
        <circle id="Ellipse_426" data-name="Ellipse 426" cx="4.735" cy="4.735" r="4.735" fill="#2595d3"/>
      </g>
    </g>
  </g>
  <g id="Group_4615" data-name="Group 4615" transform="translate(89.205 86.098)">
    <g id="Group_4610" data-name="Group 4610" transform="translate(0 0)">
      <g id="Group_4609" data-name="Group 4609">
        <circle id="Ellipse_427" data-name="Ellipse 427" cx="4.735" cy="4.735" r="4.735" fill="#2595d3"/>
      </g>
    </g>
    <g id="Group_4614" data-name="Group 4614" transform="translate(0 41.136)">
      <g id="Group_4613" data-name="Group 4613">
        <circle id="Ellipse_428" data-name="Ellipse 428" cx="4.735" cy="4.735" r="4.735" fill="#2595d3"/>
      </g>
    </g>
  </g>
  <g id="Group_4623" data-name="Group 4623" transform="translate(56.651 40.81)">
    <g id="Group_4621" data-name="Group 4621" transform="translate(0 0)">
      <path id="Path_5075" data-name="Path 5075" d="M222.51,149.122H197.079a3.621,3.621,0,0,1-3.709-3.526V128.22a3.621,3.621,0,0,1,3.709-3.526H222.51a3.621,3.621,0,0,1,3.709,3.526V145.6A3.621,3.621,0,0,1,222.51,149.122Z" transform="translate(-193.37 -124.694)" fill="#2595d3"/>
    </g>
  </g>
  <g id="Group_4624" data-name="Group 4624" transform="translate(0 0)">
    <path id="Path_5077" data-name="Path 5077" d="M99.173,290.776h1.758a2.2,2.2,0,0,0,0-4.395H99.173a2.2,2.2,0,0,0,0,4.395Z" transform="translate(-68.565 -202.48)" fill="#526271"/>
    <path id="Path_5078" data-name="Path 5078" d="M143.5,290.776h4.211a2.2,2.2,0,0,0,0-4.395H143.5a2.2,2.2,0,0,0,0,4.395Z" transform="translate(-99.908 -202.48)" fill="#526271"/>
    <path id="Path_5079" data-name="Path 5079" d="M196.209,290.776h1.758a2.2,2.2,0,1,0,0-4.395h-1.758a2.2,2.2,0,0,0,0,4.395Z" transform="translate(-137.173 -202.48)" fill="#526271"/>
    <path id="Path_5080" data-name="Path 5080" d="M196.209,323.1h1.758a2.2,2.2,0,1,0,0-4.395h-1.758a2.2,2.2,0,0,0,0,4.395Z" transform="translate(-137.173 -225.335)" fill="#526271"/>
    <path id="Path_5081" data-name="Path 5081" d="M143.5,323.1h4.211a2.2,2.2,0,0,0,0-4.395H143.5a2.2,2.2,0,0,0,0,4.395Z" transform="translate(-99.908 -225.335)" fill="#526271"/>
    <path id="Path_5082" data-name="Path 5082" d="M99.173,323.1h1.758a2.2,2.2,0,0,0,0-4.395H99.173a2.2,2.2,0,0,0,0,4.395Z" transform="translate(-68.565 -225.335)" fill="#526271"/>
    <path id="Path_5083" data-name="Path 5083" d="M39.258,300.246a6.932,6.932,0,1,0-6.933-6.932A6.94,6.94,0,0,0,39.258,300.246Zm0-9.47a2.538,2.538,0,1,1-2.538,2.538A2.541,2.541,0,0,1,39.258,290.776Z" transform="translate(-22.855 -202.48)" fill="#526271"/>
    <path id="Path_5084" data-name="Path 5084" d="M66.247,289.673v-5.149a6.942,6.942,0,0,0,6.215-6.9v-22.2A6.94,6.94,0,0,0,65.53,248.5H6.933A6.94,6.94,0,0,0,0,255.433v22.2a6.943,6.943,0,0,0,6.215,6.9v5.149A6.943,6.943,0,0,0,0,296.57v22.2A6.94,6.94,0,0,0,6.932,325.7h58.6a6.941,6.941,0,0,0,6.935-6.932v-22.2a6.944,6.944,0,0,0-6.216-6.9ZM4.395,277.628v-22.2a2.541,2.541,0,0,1,2.538-2.538h58.6a2.541,2.541,0,0,1,2.538,2.538v22.2a2.541,2.541,0,0,1-2.538,2.538H6.933a2.541,2.541,0,0,1-2.538-2.538Zm63.674,41.137a2.542,2.542,0,0,1-2.54,2.537H6.932a2.54,2.54,0,0,1-2.537-2.537v-22.2a2.542,2.542,0,0,1,2.537-2.54H46.324a2.2,2.2,0,1,0,0-4.395H10.61v-5.075H61.853v5.075H56.578a2.2,2.2,0,0,0,0,4.395h8.95a2.543,2.543,0,0,1,2.54,2.54Z" transform="translate(0 -175.697)" fill="#526271"/>
    <path id="Path_5085" data-name="Path 5085" d="M100.931,426.794H99.173a2.2,2.2,0,0,0,0,4.395h1.758a2.2,2.2,0,0,0,0-4.395Z" transform="translate(-68.565 -301.757)" fill="#526271"/>
    <path id="Path_5086" data-name="Path 5086" d="M147.715,426.794H143.5a2.2,2.2,0,0,0,0,4.395h4.211a2.2,2.2,0,0,0,0-4.395Z" transform="translate(-99.908 -301.757)" fill="#526271"/>
    <path id="Path_5087" data-name="Path 5087" d="M197.967,426.794h-1.758a2.2,2.2,0,0,0,0,4.395h1.758a2.2,2.2,0,0,0,0-4.395Z" transform="translate(-137.173 -301.757)" fill="#526271"/>
    <path id="Path_5088" data-name="Path 5088" d="M197.967,459.119h-1.758a2.2,2.2,0,0,0,0,4.395h1.758a2.2,2.2,0,1,0,0-4.395Z" transform="translate(-137.173 -324.611)" fill="#526271"/>
    <path id="Path_5089" data-name="Path 5089" d="M147.715,459.119H143.5a2.2,2.2,0,0,0,0,4.395h4.211a2.2,2.2,0,0,0,0-4.395Z" transform="translate(-99.908 -324.611)" fill="#526271"/>
    <path id="Path_5090" data-name="Path 5090" d="M100.931,459.119H99.173a2.2,2.2,0,0,0,0,4.395h1.758a2.2,2.2,0,0,0,0-4.395Z" transform="translate(-68.565 -324.611)" fill="#526271"/>
    <path id="Path_5091" data-name="Path 5091" d="M39.258,426.794a6.932,6.932,0,1,0,6.932,6.932A6.94,6.94,0,0,0,39.258,426.794Zm0,9.47a2.538,2.538,0,1,1,2.538-2.538A2.541,2.541,0,0,1,39.258,436.264Z" transform="translate(-22.855 -301.757)" fill="#526271"/>
    <path id="Path_5092" data-name="Path 5092" d="M337.123,277.627v-22.2a6.94,6.94,0,0,0-6.932-6.932h-5.4a2.2,2.2,0,0,0,0,4.395h5.4a2.54,2.54,0,0,1,2.537,2.537v22.2a2.542,2.542,0,0,1-2.537,2.54h-58.6a2.543,2.543,0,0,1-2.54-2.54v-22.2a2.542,2.542,0,0,1,2.54-2.537h42.94a2.2,2.2,0,0,0,0-4.395h-42.94a6.941,6.941,0,0,0-6.935,6.932v22.2a6.944,6.944,0,0,0,6.216,6.9v5.15a6.942,6.942,0,0,0-6.215,6.9v22.2a6.94,6.94,0,0,0,6.932,6.933h58.6a6.94,6.94,0,0,0,6.933-6.933v-22.2a6.942,6.942,0,0,0-6.215-6.9v-5.149A6.943,6.943,0,0,0,337.123,277.627Zm-61.853,12.01v-5.075h51.243v5.075Zm57.458,6.932v22.2a2.541,2.541,0,0,1-2.538,2.538h-58.6a2.541,2.541,0,0,1-2.538-2.538v-22.2a2.541,2.541,0,0,1,2.538-2.538h58.6A2.541,2.541,0,0,1,332.728,296.569Z" transform="translate(-187.123 -175.697)" fill="#526271"/>
    <path id="Path_5093" data-name="Path 5093" d="M365.594,286.381h-1.758a2.2,2.2,0,0,0,0,4.395h1.758a2.2,2.2,0,0,0,0-4.395Z" transform="translate(-255.69 -202.48)" fill="#526271"/>
    <path id="Path_5094" data-name="Path 5094" d="M412.378,286.381h-4.211a2.2,2.2,0,1,0,0,4.395h4.211a2.2,2.2,0,0,0,0-4.395Z" transform="translate(-287.034 -202.48)" fill="#526271"/>
    <path id="Path_5095" data-name="Path 5095" d="M460.872,290.776h1.758a2.2,2.2,0,0,0,0-4.395h-1.758a2.2,2.2,0,1,0,0,4.395Z" transform="translate(-324.298 -202.48)" fill="#526271"/>
    <path id="Path_5096" data-name="Path 5096" d="M460.872,323.1h1.758a2.2,2.2,0,0,0,0-4.395h-1.758a2.2,2.2,0,1,0,0,4.395Z" transform="translate(-324.298 -225.335)" fill="#526271"/>
    <path id="Path_5097" data-name="Path 5097" d="M412.378,318.706h-4.211a2.2,2.2,0,1,0,0,4.395h4.211a2.2,2.2,0,0,0,0-4.395Z" transform="translate(-287.034 -225.335)" fill="#526271"/>
    <path id="Path_5098" data-name="Path 5098" d="M365.594,318.706h-1.758a2.2,2.2,0,0,0,0,4.395h1.758a2.2,2.2,0,0,0,0-4.395Z" transform="translate(-255.69 -225.335)" fill="#526271"/>
    <path id="Path_5099" data-name="Path 5099" d="M296.988,293.314a6.932,6.932,0,1,0,6.932-6.933A6.94,6.94,0,0,0,296.988,293.314Zm9.47,0a2.538,2.538,0,1,1-2.538-2.538A2.541,2.541,0,0,1,306.458,293.314Z" transform="translate(-209.98 -202.48)" fill="#526271"/>
    <path id="Path_5100" data-name="Path 5100" d="M365.594,426.794h-1.758a2.2,2.2,0,0,0,0,4.395h1.758a2.2,2.2,0,0,0,0-4.395Z" transform="translate(-255.69 -301.757)" fill="#526271"/>
    <path id="Path_5101" data-name="Path 5101" d="M412.378,426.794h-4.211a2.2,2.2,0,0,0,0,4.395h4.211a2.2,2.2,0,0,0,0-4.395Z" transform="translate(-287.034 -301.757)" fill="#526271"/>
    <path id="Path_5102" data-name="Path 5102" d="M462.63,426.794h-1.758a2.2,2.2,0,0,0,0,4.395h1.758a2.2,2.2,0,0,0,0-4.395Z" transform="translate(-324.298 -301.757)" fill="#526271"/>
    <path id="Path_5103" data-name="Path 5103" d="M462.63,459.119h-1.758a2.2,2.2,0,1,0,0,4.395h1.758a2.2,2.2,0,0,0,0-4.395Z" transform="translate(-324.298 -324.611)" fill="#526271"/>
    <path id="Path_5104" data-name="Path 5104" d="M412.378,459.119h-4.211a2.2,2.2,0,1,0,0,4.395h4.211a2.2,2.2,0,0,0,0-4.395Z" transform="translate(-287.034 -324.611)" fill="#526271"/>
    <path id="Path_5105" data-name="Path 5105" d="M365.594,459.119h-1.758a2.2,2.2,0,0,0,0,4.395h1.758a2.2,2.2,0,0,0,0-4.395Z" transform="translate(-255.69 -324.611)" fill="#526271"/>
    <path id="Path_5106" data-name="Path 5106" d="M303.92,426.794a6.932,6.932,0,1,0,6.932,6.932A6.94,6.94,0,0,0,303.92,426.794Zm0,9.47a2.538,2.538,0,1,1,2.538-2.538A2.541,2.541,0,0,1,303.92,436.264Z" transform="translate(-209.98 -301.757)" fill="#526271"/>
    <path id="Path_5107" data-name="Path 5107" d="M137.489,55.3h10.529v5.8a6.348,6.348,0,0,0,6.34,6.341h28.411a6.348,6.348,0,0,0,6.34-6.341V55.3h10.529a5.163,5.163,0,0,0,5.157-5.157V43.63a2.2,2.2,0,0,0-2.2-2.2h-2.241V33.167a2.2,2.2,0,0,0-4.395,0v8.266H189.11v-.758a6.347,6.347,0,0,0-6.34-6.34h-1.058v-5.2a13.147,13.147,0,0,0-26.295,0v5.2h-1.058a6.347,6.347,0,0,0-6.34,6.34v.758h-6.853V5.156a.764.764,0,0,1,.764-.762H195.2a.764.764,0,0,1,.764.762V22.913a2.2,2.2,0,1,0,4.395,0V5.156A5.163,5.163,0,0,0,195.2,0H141.929a5.163,5.163,0,0,0-5.159,5.156V41.433h-2.241a2.2,2.2,0,0,0-2.2,2.2v6.511A5.162,5.162,0,0,0,137.489,55.3Zm62.911-9.47v4.314a.763.763,0,0,1-.762.762H189.109V45.827H200.4ZM159.81,29.132a8.753,8.753,0,1,1,17.505,0v5.2H159.81Zm-7.4,11.542a1.948,1.948,0,0,1,1.946-1.946h28.411a1.948,1.948,0,0,1,1.946,1.946v20.42a1.948,1.948,0,0,1-1.946,1.946H154.357a1.948,1.948,0,0,1-1.946-1.946Zm-15.685,5.153h11.291V50.9H137.488a.763.763,0,0,1-.762-.762V45.827Z" transform="translate(-93.563 0)" fill="#526271"/>
    <path id="Path_5108" data-name="Path 5108" d="M244.518,155.94v5.131a2.2,2.2,0,1,0,4.395,0V155.94a3.847,3.847,0,1,0-4.395,0Z" transform="translate(-171.715 -105.303)" fill="#fff"/>
    <path id="Path_5109" data-name="Path 5109" d="M384.039,75.106h13.192v40.419a2.2,2.2,0,1,0,4.395,0V72.908a2.2,2.2,0,0,0-2.2-2.2H384.039a2.2,2.2,0,0,0,0,4.395Z" transform="translate(-269.974 -49.995)" fill="#526271"/>
    <path id="Path_5110" data-name="Path 5110" d="M64.827,117.722a2.2,2.2,0,0,0,2.2-2.2V75.106H80.216a2.2,2.2,0,0,0,0-4.395H64.827a2.2,2.2,0,0,0-2.2,2.2v42.616A2.2,2.2,0,0,0,64.827,117.722Z" transform="translate(-44.281 -49.995)" fill="#526271"/>
  </g>
</svg>
