<svg xmlns="http://www.w3.org/2000/svg" width="150" height="150" viewBox="0 0 150 150">
  <g id="_035-global_network" data-name="035-global network" transform="translate(0)">
    <g id="Group_4761" data-name="Group 4761" transform="translate(20.504 27.135)">
      <g id="Group_4759" data-name="Group 4759" transform="translate(0 0)">
        <ellipse id="Ellipse_457" data-name="Ellipse 457" cx="50.167" cy="51.181" rx="50.167" ry="51.181" fill="#2595d3"/>
      </g>
    </g>
    <g id="Group_4766" data-name="Group 4766" transform="translate(98.806 2.193)">
      <g id="Group_4762" data-name="Group 4762">
        <circle id="Ellipse_458" data-name="Ellipse 458" cx="24.501" cy="24.501" r="24.501" fill="#fff"/>
      </g>
      <g id="Group_4763" data-name="Group 4763" transform="translate(4.342 4.341)">
        <path id="Path_5237" data-name="Path 5237" d="M385.83,22.349a24.5,24.5,0,0,1-34.084,34.084A24.5,24.5,0,1,0,385.83,22.349Z" transform="translate(-351.746 -22.349)" fill="#fff"/>
      </g>
      <g id="Group_4764" data-name="Group 4764" transform="translate(16.99 9.48)">
        <circle id="Ellipse_459" data-name="Ellipse 459" cx="7.511" cy="7.511" r="7.511" fill="#fff"/>
      </g>
      <g id="Group_4765" data-name="Group 4765" transform="translate(11.048 24.501)">
        <path id="Path_5238" data-name="Path 5238" d="M388.138,91.3a16.871,16.871,0,0,0-13.453,6.672,15.013,15.013,0,0,0,26.905,0A16.871,16.871,0,0,0,388.138,91.3Z" transform="translate(-374.685 -91.302)" fill="#fff"/>
      </g>
    </g>
    <g id="Group_4771" data-name="Group 4771" transform="translate(2.193 98.806)">
      <g id="Group_4767" data-name="Group 4767">
        <circle id="Ellipse_460" data-name="Ellipse 460" cx="24.501" cy="24.501" r="24.501" fill="#fff"/>
      </g>
      <g id="Group_4768" data-name="Group 4768" transform="translate(4.341 4.341)">
        <path id="Path_5239" data-name="Path 5239" d="M56.433,351.745a24.5,24.5,0,0,1-34.084,34.084,24.5,24.5,0,1,0,34.084-34.084Z" transform="translate(-22.349 -351.745)" fill="#fff"/>
      </g>
      <g id="Group_4769" data-name="Group 4769" transform="translate(16.99 9.48)">
        <circle id="Ellipse_461" data-name="Ellipse 461" cx="7.511" cy="7.511" r="7.511" fill="#fff"/>
      </g>
      <g id="Group_4770" data-name="Group 4770" transform="translate(11.048 24.501)">
        <path id="Path_5240" data-name="Path 5240" d="M58.742,420.7a16.871,16.871,0,0,0-13.453,6.672,15.013,15.013,0,0,0,26.905,0A16.872,16.872,0,0,0,58.742,420.7Z" transform="translate(-45.289 -420.698)" fill="#fff"/>
      </g>
    </g>
    <g id="Group_4776" data-name="Group 4776" transform="translate(98.806 98.806)">
      <g id="Group_4772" data-name="Group 4772">
        <circle id="Ellipse_462" data-name="Ellipse 462" cx="24.501" cy="24.501" r="24.501" fill="#fff"/>
      </g>
      <g id="Group_4773" data-name="Group 4773" transform="translate(4.342 4.341)">
        <path id="Path_5241" data-name="Path 5241" d="M385.83,351.745a24.5,24.5,0,0,1-34.084,34.084,24.5,24.5,0,1,0,34.084-34.084Z" transform="translate(-351.746 -351.745)" fill="#fff"/>
      </g>
      <g id="Group_4774" data-name="Group 4774" transform="translate(16.99 9.48)">
        <circle id="Ellipse_463" data-name="Ellipse 463" cx="7.511" cy="7.511" r="7.511" fill="#fff"/>
      </g>
      <g id="Group_4775" data-name="Group 4775" transform="translate(11.048 24.501)">
        <path id="Path_5242" data-name="Path 5242" d="M388.138,420.7a16.871,16.871,0,0,0-13.453,6.672,15.013,15.013,0,0,0,26.905,0A16.871,16.871,0,0,0,388.138,420.7Z" transform="translate(-374.685 -420.698)" fill="#fff"/>
      </g>
    </g>
    <g id="Group_4781" data-name="Group 4781" transform="translate(2.193 2.193)">
      <g id="Group_4777" data-name="Group 4777">
        <circle id="Ellipse_464" data-name="Ellipse 464" cx="24.501" cy="24.501" r="24.501" fill="#fff"/>
      </g>
      <g id="Group_4778" data-name="Group 4778" transform="translate(4.341 4.341)">
        <path id="Path_5243" data-name="Path 5243" d="M56.433,22.349A24.5,24.5,0,0,1,22.349,56.433,24.5,24.5,0,1,0,56.433,22.349Z" transform="translate(-22.349 -22.349)" fill="#fff"/>
      </g>
      <g id="Group_4779" data-name="Group 4779" transform="translate(16.99 9.48)">
        <circle id="Ellipse_465" data-name="Ellipse 465" cx="7.511" cy="7.511" r="7.511" fill="#fff"/>
      </g>
      <g id="Group_4780" data-name="Group 4780" transform="translate(11.048 24.501)">
        <path id="Path_5244" data-name="Path 5244" d="M58.742,91.3a16.871,16.871,0,0,0-13.453,6.672,15.013,15.013,0,0,0,26.905,0A16.872,16.872,0,0,0,58.742,91.3Z" transform="translate(-45.289 -91.302)" fill="#fff"/>
      </g>
    </g>
    <g id="Group_4782" data-name="Group 4782" transform="translate(0 0)">
      <path id="Path_5245" data-name="Path 5245" d="M198.5,475.8c-1.531-.273-3.07-.6-4.573-.983a2.193,2.193,0,1,0-1.074,4.252c1.6.405,3.245.758,4.878,1.049a2.193,2.193,0,1,0,.769-4.318Z" transform="translate(-135.172 -335.642)" fill="#526271"/>
      <path id="Path_5246" data-name="Path 5246" d="M247.245,481.7h-.078c-1.541.054-3.119.054-4.681,0a2.193,2.193,0,1,0-.152,4.383c.831.029,1.671.044,2.5.044s1.666-.015,2.489-.043a2.193,2.193,0,0,0-.075-4.384Z" transform="translate(-169.831 -340.56)" fill="#526271"/>
      <path id="Path_5247" data-name="Path 5247" d="M295.993,474.827c-1.5.38-3.043.71-4.573.983a2.193,2.193,0,1,0,.768,4.318c1.632-.29,3.274-.643,4.879-1.048a2.193,2.193,0,1,0-1.074-4.252Z" transform="translate(-204.753 -335.647)" fill="#526271"/>
      <path id="Path_5248" data-name="Path 5248" d="M193.384,24.173a2.191,2.191,0,0,0,.539-.067c1.5-.379,3.042-.71,4.573-.983a2.193,2.193,0,1,0-.769-4.317c-1.633.291-3.274.643-4.878,1.049a2.193,2.193,0,0,0,.535,4.319Z" transform="translate(-135.172 -13.283)" fill="#526271"/>
      <path id="Path_5249" data-name="Path 5249" d="M242.409,19.581h.078c1.562-.055,3.14-.054,4.681,0h.078a2.193,2.193,0,0,0,.075-4.384c-1.642-.058-3.323-.058-4.987,0a2.193,2.193,0,0,0,.075,4.384Z" transform="translate(-169.832 -10.723)" fill="#526271"/>
      <path id="Path_5250" data-name="Path 5250" d="M291.421,23.115c1.53.272,3.069.6,4.573.983a2.193,2.193,0,1,0,1.074-4.252c-1.605-.406-3.246-.758-4.879-1.048a2.193,2.193,0,0,0-.768,4.318Z" transform="translate(-204.753 -13.277)" fill="#526271"/>
      <path id="Path_5251" data-name="Path 5251" d="M476.416,298.656a2.19,2.19,0,0,0,2.663-1.589c.406-1.605.758-3.247,1.048-4.879a2.193,2.193,0,0,0-4.317-.768c-.272,1.53-.6,3.069-.983,4.574A2.192,2.192,0,0,0,476.416,298.656Z" transform="translate(-335.648 -204.752)" fill="#526271"/>
      <path id="Path_5252" data-name="Path 5252" d="M486.088,247.319c.029-.822.043-1.66.043-2.489s-.015-1.667-.044-2.5a2.193,2.193,0,0,0-4.383.153c.027.78.041,1.569.041,2.345s-.014,1.564-.041,2.336a2.193,2.193,0,0,0,2.115,2.268h.078a2.193,2.193,0,0,0,2.19-2.116Z" transform="translate(-340.561 -169.83)" fill="#526271"/>
      <path id="Path_5253" data-name="Path 5253" d="M477.96,200.3a2.194,2.194,0,0,0,2.161-2.578c-.291-1.633-.644-3.274-1.049-4.878a2.193,2.193,0,0,0-4.252,1.073c.38,1.5.71,3.042.983,4.573A2.194,2.194,0,0,0,477.96,200.3Z" transform="translate(-335.643 -135.172)" fill="#526271"/>
      <path id="Path_5254" data-name="Path 5254" d="M22.509,191.287a2.191,2.191,0,0,0-2.663,1.59c-.406,1.606-.758,3.248-1.048,4.879a2.193,2.193,0,1,0,4.318.768c.272-1.529.6-3.068.982-4.574a2.192,2.192,0,0,0-1.589-2.662Z" transform="translate(-13.278 -135.191)" fill="#526271"/>
      <path id="Path_5255" data-name="Path 5255" d="M20.579,289.676a2.193,2.193,0,0,0-1.775,2.543c.29,1.631.643,3.272,1.049,4.878a2.193,2.193,0,1,0,4.252-1.074c-.38-1.5-.711-3.043-.983-4.572A2.193,2.193,0,0,0,20.579,289.676Z" transform="translate(-13.282 -204.774)" fill="#526271"/>
      <path id="Path_5256" data-name="Path 5256" d="M15.2,242.363c-.029.824-.043,1.661-.043,2.489s.015,1.673.044,2.5a2.193,2.193,0,0,0,2.19,2.116h.078a2.193,2.193,0,0,0,2.115-2.268c-.027-.774-.041-1.564-.041-2.345s.013-1.563.041-2.336a2.193,2.193,0,0,0-4.383-.152Z" transform="translate(-10.723 -169.852)" fill="#526271"/>
      <path id="Path_5257" data-name="Path 5257" d="M367.634,54.983a2.194,2.194,0,0,0-.218,2.306,17.206,17.206,0,0,0,30.831,0,2.194,2.194,0,0,0-.218-2.306,19.018,19.018,0,0,0-8.149-6.2,9.7,9.7,0,1,0-14.1,0,19.021,19.021,0,0,0-8.149,6.2Zm9.88-12.854a5.318,5.318,0,1,1,5.318,5.318A5.324,5.324,0,0,1,377.513,42.128Zm5.318,9.7a14.586,14.586,0,0,1,10.8,4.723,12.817,12.817,0,0,1-21.6,0A14.586,14.586,0,0,1,382.831,51.831Z" transform="translate(-259.525 -22.945)" fill="#526271"/>
      <path id="Path_5258" data-name="Path 5258" d="M38.236,384.379a2.193,2.193,0,0,0-.218,2.306,17.205,17.205,0,0,0,30.831,0,2.193,2.193,0,0,0-.218-2.306,19.021,19.021,0,0,0-8.149-6.2,9.7,9.7,0,1,0-14.1,0A19.021,19.021,0,0,0,38.236,384.379Zm9.88-12.854a5.318,5.318,0,1,1,5.318,5.318A5.324,5.324,0,0,1,48.116,371.524Zm5.318,9.7a14.586,14.586,0,0,1,10.8,4.723,12.817,12.817,0,0,1-21.6,0A14.586,14.586,0,0,1,53.434,381.227Z" transform="translate(-26.74 -255.728)" fill="#526271"/>
      <path id="Path_5259" data-name="Path 5259" d="M145.738,113.146a2.2,2.2,0,0,0-1.356,2.8,22.378,22.378,0,1,1-4.8-7.958,2.2,2.2,0,0,0,3.209-3,26.562,26.562,0,0,0-2.759-2.555c.086-.2.173-.407.256-.608a2.2,2.2,0,0,0-3.958-1.891,26.9,26.9,0,0,0-9.027-3.111,56.836,56.836,0,0,0,0-43.626,26.552,26.552,0,0,0,9.03-3.117,2.195,2.195,0,0,0,3.954-1.891c-.084-.2-.173-.41-.259-.615a26.736,26.736,0,0,0,6.437-34.122,2.2,2.2,0,1,0-3.81,2.189,22.384,22.384,0,1,1-6.2-6.923,2.2,2.2,0,0,0,2.6-3.542,26.722,26.722,0,0,0-36.621,4.806c-.205-.087-.411-.175-.615-.259a2.2,2.2,0,0,0-1.893,3.957A26.547,26.547,0,0,0,96.81,22.7a56.837,56.837,0,0,0-43.619,0,26.55,26.55,0,0,0-3.115-9.026,2.2,2.2,0,0,0-1.893-3.957c-.2.084-.41.172-.615.259A26.737,26.737,0,1,0,9.975,47.568c-.086.2-.175.41-.259.614a2.195,2.195,0,0,0,3.953,1.892,26.546,26.546,0,0,0,9.03,3.117,56.836,56.836,0,0,0,0,43.619,26.544,26.544,0,0,0-9.026,3.115,2.2,2.2,0,0,0-3.957,1.893c.084.2.173.41.259.615A26.747,26.747,0,0,0,2.341,134.21a2.2,2.2,0,0,0,4.008-1.8,22.385,22.385,0,1,1,5.486,7.494A2.2,2.2,0,0,0,8.9,143.175a26.728,26.728,0,0,0,38.666-3.151c.205.087.411.175.615.259a2.2,2.2,0,0,0,1.893-3.957A26.543,26.543,0,0,0,53.19,127.3a56.836,56.836,0,0,0,43.62,0,26.549,26.549,0,0,0,3.115,9.026,2.2,2.2,0,0,0,1.893,3.957c.2-.084.41-.173.615-.259a26.747,26.747,0,0,0,46.1-25.522A2.2,2.2,0,0,0,145.738,113.146ZM27.364,96.512A51.607,51.607,0,0,1,22.793,77.2h14.67a80.2,80.2,0,0,0,4.121,23.809A26.587,26.587,0,0,0,27.364,96.512ZM41.583,49A80.2,80.2,0,0,0,37.463,72.8H22.793a51.608,51.608,0,0,1,4.57-19.313A26.586,26.586,0,0,0,41.583,49Zm81.053,4.493A51.61,51.61,0,0,1,127.207,72.8h-14.67a80.2,80.2,0,0,0-4.121-23.809A26.587,26.587,0,0,0,122.636,53.488Zm-14.22,47.518A80.2,80.2,0,0,0,112.537,77.2h14.67a51.616,51.616,0,0,1-4.571,19.315A26.587,26.587,0,0,0,108.416,101.007ZM72.8,72.8H41.858A74.717,74.717,0,0,1,46.466,48.4H72.8ZM77.2,48.4h26.337A74.717,74.717,0,0,1,108.142,72.8H77.2ZM72.8,77.2v24.38H46.456a74.728,74.728,0,0,1-4.6-24.38Zm4.395,0h30.945a74.728,74.728,0,0,1-4.6,24.38H77.2ZM101.67,44H77.2V22.86c7.863.818,15.24,6.009,20.971,14.832A53.71,53.71,0,0,1,101.67,44ZM72.8,22.86V44H48.331a53.628,53.628,0,0,1,3.5-6.309C57.563,28.87,64.94,23.678,72.8,22.86ZM48.318,105.972H72.8V127.14c-7.862-.818-15.24-6.009-20.97-14.832a53.672,53.672,0,0,1-3.514-6.336ZM77.2,127.14V105.972h24.485a53.717,53.717,0,0,1-3.514,6.336C92.438,121.13,85.06,126.322,77.2,127.14ZM4.395,26.749A22.354,22.354,0,1,1,26.749,49.1,22.379,22.379,0,0,1,4.395,26.749Z" transform="translate(0 0)" fill="#526271"/>
      <path id="Path_5260" data-name="Path 5260" d="M367.634,384.38a2.194,2.194,0,0,0-.218,2.306,17.206,17.206,0,0,0,30.831,0,2.194,2.194,0,0,0-.218-2.306,19.018,19.018,0,0,0-8.149-6.2,9.7,9.7,0,1,0-14.1,0A19.015,19.015,0,0,0,367.634,384.38Zm9.88-12.854a5.318,5.318,0,1,1,5.318,5.318A5.324,5.324,0,0,1,377.513,371.525Zm5.318,9.7a14.586,14.586,0,0,1,10.8,4.723,12.817,12.817,0,0,1-21.6,0A14.586,14.586,0,0,1,382.831,381.228Z" transform="translate(-259.525 -255.729)" fill="#526271"/>
      <path id="Path_5261" data-name="Path 5261" d="M53.434,66.852a17.133,17.133,0,0,0,15.415-9.564,2.193,2.193,0,0,0-.218-2.306,19.021,19.021,0,0,0-8.149-6.2,9.7,9.7,0,1,0-14.1,0,19.022,19.022,0,0,0-8.149,6.2,2.193,2.193,0,0,0-.218,2.306A17.134,17.134,0,0,0,53.434,66.852ZM48.116,42.127a5.318,5.318,0,1,1,5.318,5.318A5.324,5.324,0,0,1,48.116,42.127Zm5.318,9.7a14.587,14.587,0,0,1,10.8,4.723,12.817,12.817,0,0,1-21.6,0,14.587,14.587,0,0,1,10.8-4.723Z" transform="translate(-26.74 -22.944)" fill="#526271"/>
    </g>
  </g>
</svg>
