<svg xmlns="http://www.w3.org/2000/svg" width="149.624" height="150" viewBox="0 0 149.624 150">
  <g id="_066-launch" data-name="066-launch" transform="translate(-540.5 -2114.917)">
    <g id="Group_4566" data-name="Group 4566" transform="translate(541.045 2223.526)">
      <circle id="Ellipse_412" data-name="Ellipse 412" cx="19.606" cy="19.606" r="19.606" transform="translate(0 0)" fill="#2595d3"/>
      <circle id="Ellipse_416" data-name="Ellipse 416" cx="19.606" cy="19.606" r="19.606" transform="translate(101.984 2.178)" fill="#2595d3"/>
      <ellipse id="Ellipse_413" data-name="Ellipse 413" cx="15.249" cy="14.705" rx="15.249" ry="14.705" transform="translate(30.388 9.803)" fill="#2595d3"/>
      <circle id="Ellipse_415" data-name="Ellipse 415" cx="16.339" cy="16.339" r="16.339" transform="translate(83.56 6.535)" fill="#2595d3"/>
      <ellipse id="Ellipse_414" data-name="Ellipse 414" cx="10.348" cy="9.803" rx="10.348" ry="9.803" transform="translate(62.965 19.606)" fill="#2595d3"/>
      <rect id="Rectangle_3961" data-name="Rectangle 3961" width="100.895" height="17.428" transform="translate(20.696 21.785)" fill="#2595d3"/>
    </g>
    <g id="noun_launch_2209185" transform="translate(540.5 2114.917)">
      <g id="Group_4565" data-name="Group 4565" transform="translate(0 0)">
        <path id="Path_4991" data-name="Path 4991" d="M126.686,42a24.9,24.9,0,0,0-19.351,9.229A19.865,19.865,0,0,0,81.55,60.311a14.771,14.771,0,0,0-12.571,1.418,19.855,19.855,0,0,0-21.723-9.174A24.668,24.668,0,0,0,26.937,42a25,25,0,0,0,0,50.01h99.749a25,25,0,0,0,0-50.01Zm0,45.009H26.937A19.995,19.995,0,1,1,44.044,56.753l1.037,1.75L47,57.841A14.893,14.893,0,0,1,65.782,66.5l1.382,3.5,2.681-2.63a9.828,9.828,0,0,1,11.778-1.56l2.569,1.43,1-2.776a14.9,14.9,0,0,1,21.636-7.887l2.02,1.19,1.309-1.948a19.968,19.968,0,1,1,16.533,31.183Z" transform="translate(-2 57.833)" fill="#526271"/>
        <path id="Path_4992" data-name="Path 4992" d="M28,45a26.465,26.465,0,0,0,7.8,18.841l2.2,2.2,2.2-2.2A26.465,26.465,0,0,0,48,45a10,10,0,0,0-20,0Zm15,0a21.482,21.482,0,0,1-5,13.84A21.482,21.482,0,0,1,33,45a5,5,0,1,1,10,0Z" transform="translate(36.81 47.454)" fill="#526271"/>
        <path id="Path_4993" data-name="Path 4993" d="M53.992,2.335l-.985-.423-.985.423A31.346,31.346,0,0,0,33,31.178v9.237A24.4,24.4,0,0,0,18,62.954v6.691h2.5v10h15v-10H43v10h20v-10h7.5v10h15v-10h2.5V62.954a24.4,24.4,0,0,0-15-22.539V31.178A31.346,31.346,0,0,0,53.992,2.335ZM23,62.954a19.419,19.419,0,0,1,10-17V64.644H23Zm7.5,11.692h-5v-5h5Zm27.505,0h-10v-5h10Zm10-10H38V31.178a26.348,26.348,0,0,1,15-23.795,26.347,26.347,0,0,1,15,23.8Zm12.5,10h-5v-5h5Zm2.5-11.692v1.69h-10V45.955A19.419,19.419,0,0,1,83.012,62.954Z" transform="translate(21.805 -1.912)" fill="#526271"/>
        <path id="Path_4994" data-name="Path 4994" d="M19,42.5a14.673,14.673,0,0,0,4.268,10.3L26.5,56.039l3.233-3.233A14.673,14.673,0,0,0,34,42.5a7.5,7.5,0,0,0-15,0Zm10,0a9.639,9.639,0,0,1-2.5,6.451A9.639,9.639,0,0,1,24,42.5a2.5,2.5,0,1,1,5,0Z" transform="translate(23.381 47.476)" fill="#526271"/>
        <path id="Path_4995" data-name="Path 4995" d="M39,42.5a14.673,14.673,0,0,0,4.268,10.3L46.5,56.039l3.233-3.233A14.673,14.673,0,0,0,54,42.5a7.5,7.5,0,0,0-15,0Zm10,0a9.639,9.639,0,0,1-2.5,6.451A9.639,9.639,0,0,1,44,42.5a2.5,2.5,0,1,1,5,0Z" transform="translate(53.24 47.476)" fill="#526271"/>
        <path id="Path_4996" data-name="Path 4996" d="M38,10A10,10,0,1,0,48,20,10,10,0,0,0,38,10Zm0,15a5,5,0,1,1,5-5A5,5,0,0,1,38,25Z" transform="translate(36.81 10.224)" fill="#526271"/>
      </g>
    </g>
  </g>
</svg>
