<svg xmlns="http://www.w3.org/2000/svg" width="139.296" height="123.5" viewBox="0 0 139.296 123.5"><g transform="translate(-540.5 -2071)"><circle cx="9.5" cy="9.5" r="9.5" transform="translate(599 2141)" fill="#2595d3"/><rect width="129" height="12" transform="translate(542 2077.465)" fill="#2595d3"/><g transform="translate(540.5 2041.971)"><path d="M32.828,58.689a2.04,2.04,0,0,0,2.04,2.04H52.45a2.04,2.04,0,0,0,0-4.081H34.868A2.041,2.041,0,0,0,32.828,58.689Z" transform="translate(-23.897 -20.106)" fill="#526271"/><path d="M134.282,29.029H29.69a2.04,2.04,0,1,0,0,4.081H134.282a.934.934,0,0,1,.933.933V44.058H4.081V34.043a.934.934,0,0,1,.933-.933H21.532a2.04,2.04,0,0,0,0-4.081H5.014A5.019,5.019,0,0,0,0,34.043V147.515a5.019,5.019,0,0,0,5.014,5.014H112.193a2.04,2.04,0,0,0,0-4.081H5.014a.934.934,0,0,1-.933-.933V48.139H135.215v99.377a.934.934,0,0,1-.933.933H120.351a2.04,2.04,0,0,0,0,4.081h13.931a5.019,5.019,0,0,0,5.014-5.014V34.043a5.019,5.019,0,0,0-5.014-5.014Z" fill="#526271"/><path d="M381.438,183.731a2.04,2.04,0,0,0-2.04-2.04H363.059a2.04,2.04,0,0,0-1.443.6L358.1,185.8a2.04,2.04,0,1,0,2.885,2.885l2.918-2.918H379.4a2.04,2.04,0,0,0,2.04-2.04Z" transform="translate(-260.24 -111.129)" fill="#526271"/><path d="M400.42,211.491h8.734a2.04,2.04,0,1,0,0-4.081H400.42a2.04,2.04,0,1,0,0,4.081Z" transform="translate(-289.996 -129.85)" fill="#526271"/><path d="M84.744,310.468l3.8-3.8a2.041,2.041,0,1,0-2.886-2.886l-3.206,3.206h-13.9a2.04,2.04,0,1,0,0,4.081H83.3A2.043,2.043,0,0,0,84.744,310.468Z" transform="translate(-48.422 -199.566)" fill="#526271"/><path d="M68.559,341.5a2.04,2.04,0,0,0,0,4.081h8.109a2.04,2.04,0,0,0,0-4.081Z" transform="translate(-48.422 -227.461)" fill="#526271"/><path d="M242.286,295.853h.205v.205a2.04,2.04,0,1,0,4.081,0v-.205h.205a2.04,2.04,0,0,0,0-4.081h-.205v-.205a2.04,2.04,0,1,0-4.081,0v.205h-.205a2.04,2.04,0,0,0,0,4.081Z" transform="translate(-174.884 -189.626)" fill="#526271"/><path d="M195.943,190.55V188.7a3.98,3.98,0,0,0-3.976-3.976H186.98l-3.715-9.558a15.966,15.966,0,0,0-14.975-10.246H151.913a15.965,15.965,0,0,0-14.975,10.246l-3.715,9.558h-4.987a3.98,3.98,0,0,0-3.976,3.976v1.853a7.256,7.256,0,0,0,7.247,7.247h2.732a26.526,26.526,0,0,0-.127,9.978,2.04,2.04,0,0,0,4.017-.718,22.468,22.468,0,0,1,.291-9.26h8.69a14.03,14.03,0,1,0,25.981,0h8.691a22.323,22.323,0,0,1-41.115,16.292,2.04,2.04,0,1,0-3.551,2.011,26.4,26.4,0,0,0,48.847-18.3H188.7A7.256,7.256,0,0,0,195.943,190.55Zm-55.2-13.908A11.911,11.911,0,0,1,151.913,169H168.29a11.91,11.91,0,0,1,11.171,7.643l3.141,8.08h-45Zm-12.4,13.908V188.8h63.522v1.747a3.17,3.17,0,0,1-3.167,3.167H131.507A3.17,3.17,0,0,1,128.341,190.55Zm41.71,12.555a9.949,9.949,0,0,1-19.9,0,9.834,9.834,0,0,1,1.537-5.308h16.825A9.836,9.836,0,0,1,170.051,203.105Z" transform="translate(-90.454 -98.919)" fill="#526271"/></g></g></svg>