<svg xmlns="http://www.w3.org/2000/svg" width="122.652" height="139.551" viewBox="0 0 122.652 139.551"><g transform="translate(-31)"><g transform="translate(105.272 32.435)"><path d="M324.585,123.9h-9.267a.818.818,0,0,1-.818-.818v-9.267a.818.818,0,0,1,.818-.818h9.267a.818.818,0,0,1,.818.818v9.267A.818.818,0,0,1,324.585,123.9Z" transform="translate(-314.5 -113)" fill="#2595d3"/></g><g transform="translate(87.829 13.355)"><path d="M263.31,52.628H251.318a.818.818,0,0,1-.818-.818V39.818a.818.818,0,0,1,.818-.818H263.31a.818.818,0,0,1,.818.818V51.81A.818.818,0,0,1,263.31,52.628Z" transform="translate(-250.5 -39)" fill="#2595d3"/></g><g transform="translate(125.714 20.442)"><path d="M401.31,76.628H389.318a.818.818,0,0,1-.818-.818V63.818a.818.818,0,0,1,.818-.818H401.31a.818.818,0,0,1,.818.818V75.81A.818.818,0,0,1,401.31,76.628Z" transform="translate(-388.5 -63)" fill="#2595d3"/></g><g transform="translate(47.899 93.215)"><path d="M119.81,344.628H107.818a.818.818,0,0,1-.818-.818V331.818a.818.818,0,0,1,.818-.818H119.81a.818.818,0,0,1,.818.818V343.81A.818.818,0,0,1,119.81,344.628Z" transform="translate(-107 -331)" fill="#2595d3"/></g><g transform="translate(31 0)"><path d="M307,117.629a2.865,2.865,0,0,0,2.862,2.862h9.267a2.865,2.865,0,0,0,2.862-2.862v-9.267a2.865,2.865,0,0,0-2.862-2.862h-9.267A2.865,2.865,0,0,0,307,108.362Zm4.088-8.041H317.9V116.4h-6.814Z" transform="translate(-231.774 -76.745)" fill="#526271"/><path d="M119.482,68.926H82.856a2.044,2.044,0,0,0,0,4.088h36.625a2.044,2.044,0,1,0,0-4.088Z" transform="translate(-67.235 -50.14)" fill="#526271"/><path d="M119.482,110.629H82.856a2.044,2.044,0,1,0,0,4.088h36.625a2.044,2.044,0,1,0,0-4.088Z" transform="translate(-67.235 -80.476)" fill="#526271"/><path d="M119.482,152.332H82.856a2.044,2.044,0,1,0,0,4.088h36.625a2.044,2.044,0,1,0,0-4.088Z" transform="translate(-67.235 -110.812)" fill="#526271"/><path d="M99.274,239.826a2.044,2.044,0,1,0,0-4.088H82.856a2.044,2.044,0,1,0,0,4.088Z" transform="translate(-67.235 -171.485)" fill="#526271"/><path d="M383.862,73.216h11.993a2.865,2.865,0,0,0,2.862-2.862V58.362a2.865,2.865,0,0,0-2.862-2.862H383.862A2.865,2.865,0,0,0,381,58.362V70.354A2.865,2.865,0,0,0,383.862,73.216Zm1.227-13.628h9.54v9.54h-9.54Z" transform="translate(-285.604 -40.373)" fill="#526271"/><path d="M232.13,217.281H217.5a2.044,2.044,0,1,0,0,4.088H232.13a2.044,2.044,0,1,0,0-4.088Z" transform="translate(-165.184 -158.059)" fill="#526271"/><circle cx="2.044" cy="2.044" r="2.044" transform="translate(108.434 59.222)" fill="#526271"/><circle cx="2.044" cy="2.044" r="2.044" transform="translate(102.711 59.222)" fill="#526271"/><circle cx="2.044" cy="2.044" r="2.044" transform="translate(96.987 59.222)" fill="#526271"/><path d="M217.5,297.2a2.044,2.044,0,1,0,0,4.088h14.626a2.044,2.044,0,1,0,0-4.088Z" transform="translate(-165.183 -216.196)" fill="#526271"/><circle cx="2.044" cy="2.044" r="2.044" transform="translate(108.434 81.005)" fill="#526271"/><circle cx="2.044" cy="2.044" r="2.044" transform="translate(102.711 81.005)" fill="#526271"/><circle cx="2.044" cy="2.044" r="2.044" transform="translate(96.987 81.005)" fill="#526271"/><path d="M217.5,381.209h14.626a2.044,2.044,0,1,0,0-4.088H217.5a2.044,2.044,0,1,0,0,4.088Z" transform="translate(-165.183 -274.333)" fill="#526271"/><circle cx="2.044" cy="2.044" r="2.044" transform="translate(108.434 102.788)" fill="#526271"/><circle cx="2.044" cy="2.044" r="2.044" transform="translate(102.711 102.788)" fill="#526271"/><circle cx="2.044" cy="2.044" r="2.044" transform="translate(96.987 102.788)" fill="#526271"/><path d="M153.652,51.738a3.411,3.411,0,0,0-3.407-3.407H98.867v-6.9a2.044,2.044,0,1,0-4.088,0v6.9H75.054a3.411,3.411,0,0,0-3.407,3.407v1.148H46.621a2.044,2.044,0,1,0,0,4.088H71.647V70.8a3.385,3.385,0,0,0,.286,1.363,3.385,3.385,0,0,0-.286,1.363v6.361H35.088V15.836L46.836,4.088H94.779v4.5H91.645a2.865,2.865,0,0,0-2.862,2.862V23.44A2.865,2.865,0,0,0,91.645,26.3h3.134v5.587a2.044,2.044,0,1,0,4.088,0V26.3h4.77A2.865,2.865,0,0,0,106.5,23.44V11.448a2.865,2.865,0,0,0-2.862-2.862h-4.77V3.427A3.431,3.431,0,0,0,95.44,0H46.562a3.4,3.4,0,0,0-2.423,1L32,13.139a3.4,3.4,0,0,0-1,2.423V80.543a3.431,3.431,0,0,0,3.427,3.427h37.22v8.608a3.385,3.385,0,0,0,.286,1.363,3.385,3.385,0,0,0-.286,1.363v19.057a3.385,3.385,0,0,0,.286,1.363,3.385,3.385,0,0,0-.286,1.363v19.057a3.411,3.411,0,0,0,3.407,3.407h75.191a3.411,3.411,0,0,0,3.407-3.407V117.086a3.386,3.386,0,0,0-.286-1.363,3.385,3.385,0,0,0,.286-1.363V95.3a3.386,3.386,0,0,0-.286-1.363,3.385,3.385,0,0,0,.286-1.363V88.037a2.044,2.044,0,1,0-4.088,0V91.9H75.735V74.2h73.828V78.5a2.044,2.044,0,1,0,4.088,0V73.521a3.386,3.386,0,0,0-.286-1.363,3.385,3.385,0,0,0,.286-1.363ZM102.411,22.214h-9.54v-9.54h9.54Zm47.153,73.771v17.694H134.573a2.044,2.044,0,1,0,0,4.088h14.991v17.695H75.735V117.768h49.3a2.044,2.044,0,0,0,0-4.088h-49.3V95.985ZM75.735,70.114V52.419h73.828V70.114Z" transform="translate(-31 0)" fill="#526271"/><path d="M232.13,457.04H217.5a2.044,2.044,0,1,0,0,4.088H232.13a2.044,2.044,0,1,0,0-4.088Z" transform="translate(-165.184 -332.469)" fill="#526271"/><circle cx="2.044" cy="2.044" r="2.044" transform="translate(108.434 124.571)" fill="#526271"/><circle cx="2.044" cy="2.044" r="2.044" transform="translate(102.711 124.571)" fill="#526271"/><circle cx="2.044" cy="2.044" r="2.044" transform="translate(96.987 124.571)" fill="#526271"/><path d="M114.354,323.5H102.362a2.865,2.865,0,0,0-2.862,2.862v11.993a2.865,2.865,0,0,0,2.862,2.862h11.993a2.865,2.865,0,0,0,2.862-2.862V326.362A2.865,2.865,0,0,0,114.354,323.5Zm-1.227,13.628h-9.54v-9.54h9.54Z" transform="translate(-80.83 -235.327)" fill="#526271"/></g></g></svg>