<svg xmlns="http://www.w3.org/2000/svg" width="141.666" height="124.334" viewBox="0 0 141.666 124.334"><g transform="translate(-1257 -1982)"><g transform="translate(170 -512)"><g transform="translate(1087 2462.68)"><path d="M141,62.035H7.5V43.652c0-2.672,2.43-4.837,5.427-4.837H135.571c3,0,5.427,2.166,5.427,4.837Z" transform="translate(-5.425 -1.808)" fill="#2595d3"/><path d="M0,0H8.944V65.963H0Z" transform="translate(130.647 42.338) rotate(90)" fill="#fff"/><circle cx="4.472" cy="4.472" r="4.472" transform="translate(11.019 42.338)" fill="#fff"/><circle cx="4.472" cy="4.472" r="4.472" transform="translate(28.907 42.338)" fill="#fff"/><circle cx="4.472" cy="4.472" r="4.472" transform="translate(46.796 42.338)" fill="#fff"/><g transform="translate(93.359 113.929)"><path d="M352.217,335.906l-4.838-8.66,4.573-2.728-15.242-9.095v18.19l4.573-2.728,4.838,8.66Z" transform="translate(-336.71 -315.423)" fill="#2595d3"/></g><g transform="translate(0 31.32)"><path d="M205.971,31.32h-104.4a2.075,2.075,0,1,0,0,4.15h104.4a3.518,3.518,0,0,1,3.514,3.514V58.151H194.973a2.075,2.075,0,0,0,0,4.15h14.512V147.99a3.518,3.518,0,0,1-3.514,3.514H109.724a2.075,2.075,0,1,0,0,4.15h96.247a7.673,7.673,0,0,0,7.664-7.664V38.984a7.673,7.673,0,0,0-7.664-7.664Z" transform="translate(-71.969 -31.32)" fill="#526271"/><path d="M28.07,151.5H7.664A3.518,3.518,0,0,1,4.15,147.99V62.3H113.319a2.075,2.075,0,1,0,0-4.15H4.15V38.984A3.518,3.518,0,0,1,7.664,35.47H19.922a2.075,2.075,0,1,0,0-4.15H7.664A7.673,7.673,0,0,0,0,38.984V147.99a7.673,7.673,0,0,0,7.664,7.664H28.07a2.075,2.075,0,1,0,0-4.15Z" transform="translate(0 -31.32)" fill="#526271"/><path d="M296.389,74.659V65.715a2.075,2.075,0,0,0-2.075-2.075H228.351a2.075,2.075,0,0,0-2.075,2.075v8.944a2.075,2.075,0,0,0,2.075,2.075h65.963A2.075,2.075,0,0,0,296.389,74.659Zm-4.15-2.075H230.426V67.79h61.812v4.794Z" transform="translate(-163.667 -54.697)" fill="#526271"/><path d="M38.872,63.64a6.547,6.547,0,1,0,6.547,6.547A6.555,6.555,0,0,0,38.872,63.64Zm0,8.944a2.4,2.4,0,1,1,2.4-2.4A2.4,2.4,0,0,1,38.872,72.584Z" transform="translate(-23.381 -54.697)" fill="#526271"/><path d="M110.07,70.187a6.547,6.547,0,1,0-6.547,6.547A6.555,6.555,0,0,0,110.07,70.187Zm-8.944,0a2.4,2.4,0,1,1,2.4,2.4A2.4,2.4,0,0,1,101.126,70.187Z" transform="translate(-70.144 -54.697)" fill="#526271"/><path d="M174.72,70.187a6.547,6.547,0,1,0-6.547,6.547A6.555,6.555,0,0,0,174.72,70.187Zm-8.944,0a2.4,2.4,0,1,1,2.4,2.4A2.4,2.4,0,0,1,165.776,70.187Z" transform="translate(-116.905 -54.697)" fill="#526271"/><path d="M330.248,334.155a2.075,2.075,0,0,0,2.075,0l4.012-2.316,5.109,8.848a2.074,2.074,0,0,0,2.835.76l7.746-4.472a2.075,2.075,0,0,0,.76-2.835l-5.109-8.848,4.012-2.316a2.075,2.075,0,0,0,0-3.594L332.323,308.2a2.075,2.075,0,0,0-3.113,1.8v22.36A2.075,2.075,0,0,0,330.248,334.155Zm3.113-20.563,13.139,7.586-2.7,1.557a2.075,2.075,0,0,0-.759,2.835l5.109,8.848-4.151,2.4-5.109-8.848a2.074,2.074,0,0,0-2.835-.759l-2.7,1.557Z" transform="translate(-238.12 -231.388)" fill="#526271"/></g></g></g><text transform="translate(1364 2065)" fill="#526271" font-size="30" font-family="SegoeUI, Segoe UI"><tspan x="-76.025" y="0">D O S</tspan></text></g></svg>