<svg xmlns="http://www.w3.org/2000/svg" width="141" height="147.503" viewBox="0 0 141 147.503"><g transform="translate(-819 -2121)"><g transform="translate(819 2121)"><circle cx="9.348" cy="9.348" r="9.348" transform="translate(54.877 19.66)" fill="#fff"/><path d="M-7288.4-13557.5h21.932s-2.241,8.048-12.042,7.586S-7288.4-13557.5-7288.4-13557.5Z" transform="translate(7299.255 13681.808)" fill="#2595d3"/><path d="M-7288.4-13557.5h21.932s-2.241,8.048-12.042,7.586S-7288.4-13557.5-7288.4-13557.5Z" transform="translate(7340.042 13691.896)" fill="#2595d3"/><path d="M-7288.4-13557.5h21.932s-2.241,8.048-12.042,7.586S-7288.4-13557.5-7288.4-13557.5Z" transform="translate(7380.972 13681.808)" fill="#2595d3"/><g transform="translate(0 0)"><g transform="translate(0 0)"><path d="M299.762,191.385a1.8,1.8,0,0,0,0,3.6h1.771a1.8,1.8,0,0,0,0-3.6Z" transform="translate(-215.008 -137.176)" fill="#526271"/><path d="M94.164,14.432h2.673a1.8,1.8,0,0,0,0-3.6H94.164a1.8,1.8,0,1,0,0,3.6Z" transform="translate(-71.137 -10.829)" fill="#526271"/><path d="M215.807,255.408a1.8,1.8,0,0,0,0-3.6H190.062a1.8,1.8,0,0,0,0,3.6Z" transform="translate(-138.244 -179.456)" fill="#526271"/><path d="M229.212,373.825a1.8,1.8,0,0,0,1.8-1.8v-1.831a1.8,1.8,0,1,0-3.6,0v1.831A1.8,1.8,0,0,0,229.212,373.825Z" transform="translate(-165.64 -261.04)" fill="#526271"/><path d="M341.5,341.329h-4.43a1.8,1.8,0,0,0,0,3.6h2.628v4.686l-3.615,3.623H311.6l-3.644-3.653v-4.657h24.377a1.8,1.8,0,0,0,0-3.6h-6.711V328.261a1.8,1.8,0,0,0-1.8-1.8H318.5a1.8,1.8,0,0,0,0,3.6h3.528v11.267H306.159a1.8,1.8,0,0,0-1.8,1.8v7.2a1.8,1.8,0,0,0,.526,1.272l4.177,4.187a14.794,14.794,0,0,0,29.547.014l4.163-4.172a1.8,1.8,0,0,0,.526-1.272V343.13A1.8,1.8,0,0,0,341.5,341.329ZM323.827,366.22a11.2,11.2,0,0,1-11.037-9.376h22.09A11.21,11.21,0,0,1,323.827,366.22Z" transform="translate(-219.485 -231.697)" fill="#526271"/><path d="M358.954,437.416a4.4,4.4,0,1,0-4.4-4.413A4.41,4.41,0,0,0,358.954,437.416Zm0-5.207a.8.8,0,0,1,0,1.6.8.8,0,0,1,0-1.6Z" transform="translate(-254.612 -303.176)" fill="#526271"/><path d="M205.6,393.974H189.691v-3.8a1.8,1.8,0,1,0-3.6,0v3.8H170.16a1.8,1.8,0,0,0-1.8,1.8v7.217a1.8,1.8,0,1,0,3.6,0v-5.415H203.8v4.7l-3.644,3.642h-25.3a1.8,1.8,0,0,0-1.8,1.8,14.823,14.823,0,0,0,29.626.766l4.191-4.189a1.8,1.8,0,0,0,.528-1.274v-7.247A1.8,1.8,0,0,0,205.6,393.974ZM187.89,418.925a11.24,11.24,0,0,1-11.083-9.4h22.151A11.228,11.228,0,0,1,187.89,418.925Z" transform="translate(-124.317 -275.025)" fill="#526271"/><path d="M223.122,468.6a4.4,4.4,0,1,0-4.414-4.413A4.41,4.41,0,0,0,223.122,468.6Zm0-5.207a.8.8,0,0,1,.8.794.8.8,0,1,1-1.607,0A.8.8,0,0,1,223.122,463.394Z" transform="translate(-159.55 -324.998)" fill="#526271"/><path d="M69.855,341.329H53.987V330.063h3.678a1.8,1.8,0,0,0,0-3.6h-5.48a1.8,1.8,0,0,0-1.8,1.8v13.068H34.519a1.8,1.8,0,1,0,0,3.6H68.054v4.685l-3.628,3.625H39.964l-4.17-4.18a1.8,1.8,0,0,0-2.551,2.544l4.177,4.187a14.786,14.786,0,0,0,29.533.016l4.175-4.172a1.8,1.8,0,0,0,.528-1.274V343.13A1.8,1.8,0,0,0,69.855,341.329ZM52.186,366.22a11.2,11.2,0,0,1-11.037-9.376H63.225A11.2,11.2,0,0,1,52.186,366.22Z" transform="translate(-29.399 -231.697)" fill="#526271"/><path d="M87.312,437.416a4.4,4.4,0,1,0-4.4-4.413A4.41,4.41,0,0,0,87.312,437.416Zm0-5.207a.8.8,0,0,1,0,1.6.813.813,0,0,1-.8-.81A.805.805,0,0,1,87.312,432.209Z" transform="translate(-64.525 -303.176)" fill="#526271"/><path d="M188.038,96.215a1.8,1.8,0,1,0-1.749,3.15c3.622,2.012,8.486,3,13.6,3a38.371,38.371,0,0,0,18.067-4.346l16.182-8.987a1.8,1.8,0,0,0,0-3.15l-14.8-8.206a1.8,1.8,0,1,0-1.747,3.151l11.963,6.632-13.343,7.411C207.907,99.467,195.007,100.086,188.038,96.215Z" transform="translate(-136.215 -57.444)" fill="#526271"/><path d="M172.09,64.141c-8.053-4.463-22.258-3.85-31.664,1.367l-16.182,8.971a1.8,1.8,0,0,0,0,3.151l14.6,8.1a1.8,1.8,0,1,0,1.748-3.15l-11.764-6.526,13.341-7.4c8.3-4.6,21.2-5.229,28.17-1.366a1.8,1.8,0,0,0,1.746-3.152Z" transform="translate(-92.797 -46.046)" fill="#526271"/><path d="M200.122,85.913a11.1,11.1,0,0,0,.236,1.4,1.8,1.8,0,0,0,1.8,1.373,1.8,1.8,0,0,0-.248,2.278,11.145,11.145,0,1,0-1.486-8.887,1.8,1.8,0,0,0,.8,1.973A1.8,1.8,0,0,0,200.122,85.913Zm3.793-2.955a7.533,7.533,0,1,1,1,6.026,1.8,1.8,0,0,0-1.507-.813h-.046a1.8,1.8,0,0,0,.492-1.718,7.6,7.6,0,0,1-.156-.944,1.8,1.8,0,0,0-.842-1.33A1.8,1.8,0,0,0,203.915,82.958Z" transform="translate(-146.536 -54.818)" fill="#526271"/><path d="M474.558,279.234H471.75a1.8,1.8,0,0,0,0,3.6h2.808a1.8,1.8,0,0,0,0-3.6Z" transform="translate(-335.36 -198.65)" fill="#526271"/><path d="M152.653,91.413H148.69a9.988,9.988,0,0,0,2.342-6.434V76.741a1.8,1.8,0,0,0-1.8-1.8h-7.46V12.63a1.8,1.8,0,0,0-1.8-1.8h-86.9a1.8,1.8,0,1,0,0,3.6h85.1V65.038H114.224a1.8,1.8,0,1,0,0,3.6h23.944v6.3H34.53v-6.3h66.064a1.8,1.8,0,1,0,0-3.6H34.53V14.432h3.244a1.8,1.8,0,0,0,0-3.6H32.729a1.8,1.8,0,0,0-1.8,1.8V74.94h-7.46a1.8,1.8,0,0,0-1.8,1.8v8.238A10.052,10.052,0,0,0,31.709,95.016H83.437v10.575H53.91a1.8,1.8,0,1,0,0,3.6H83.437v6.271a1.8,1.8,0,0,0,3.6,0v-6.271h29.211a1.8,1.8,0,1,0,0-3.6H87.04V95.016h65.612a1.8,1.8,0,0,0,0-3.6ZM25.269,84.979V78.543H147.429v6.436A6.445,6.445,0,0,1,141,91.413H85.454a1.649,1.649,0,0,0-.431,0H31.709A6.445,6.445,0,0,1,25.269,84.979Z" transform="translate(-21.666 -10.829)" fill="#526271"/></g></g></g></g></svg>