<svg xmlns="http://www.w3.org/2000/svg" width="144.5" height="136.336" viewBox="0 0 144.5 136.336"><g transform="translate(-7.5 -4.139)"><g transform="translate(82.03 97.316)"><g transform="translate(0 0)"><circle cx="16.616" cy="16.616" r="16.616" fill="#2595d3"/></g><path d="M281.081,350.9a16.62,16.62,0,0,1,11.863-15.922,16.616,16.616,0,1,0,0,31.844A16.62,16.62,0,0,1,281.081,350.9Z" transform="translate(-271.577 -334.289)" fill="#2595d3"/></g><g transform="translate(7.5 4.139)"><path d="M250.617,29.066a2.117,2.117,0,0,0,2.117-2.117V16.582a2.117,2.117,0,0,0-4.233,0V26.95A2.117,2.117,0,0,0,250.617,29.066Z" transform="translate(-178.367 -14.465)" fill="#526271"/><path d="M76.955,192.359H87.323a2.117,2.117,0,1,0,0-4.233H76.955a2.117,2.117,0,1,0,0,4.233Z" transform="translate(-53.717 -139.114)" fill="#526271"/><path d="M387.543,192.359h10.368a2.117,2.117,0,1,0,0-4.233H387.543a2.117,2.117,0,0,0,0,4.233Z" transform="translate(-276.649 -139.114)" fill="#526271"/><path d="M347.438,76.894a2.111,2.111,0,0,0,1.5-.62l7.331-7.331a2.117,2.117,0,0,0-2.994-2.993l-7.331,7.331a2.117,2.117,0,0,0,1.5,3.613Z" transform="translate(-247.863 -50.974)" fill="#526271"/><path d="M133.654,76.274a2.117,2.117,0,0,0,2.993-2.993l-7.331-7.331a2.117,2.117,0,0,0-2.993,2.993Z" transform="translate(-90.226 -50.974)" fill="#526271"/><path d="M83.617,401.733H105.63a2.117,2.117,0,1,0,0-4.233H83.617a2.117,2.117,0,1,0,0,4.233Z" transform="translate(-58.499 -289.397)" fill="#526271"/><path d="M83.617,427.743H105.63a2.117,2.117,0,1,0,0-4.233H83.617a2.117,2.117,0,1,0,0,4.233Z" transform="translate(-58.499 -308.067)" fill="#526271"/><path d="M122.345,156.963h-4.154a31.919,31.919,0,0,0-15.205-37.189,31.424,31.424,0,0,0,.256-4A30.832,30.832,0,0,0,97.888,98.36a2.117,2.117,0,1,0-3.5,2.382,26.754,26.754,0,0,1-3.121,33.852A39.288,39.288,0,0,0,82.6,147.77H74.367V134.512a18.858,18.858,0,1,0-4.233,0V147.77H61.887a38.013,38.013,0,0,0-8.5-13.025A26.757,26.757,0,0,1,88.022,94.158a2.117,2.117,0,0,0,2.5-3.418,31.028,31.028,0,0,0-49.251,24.187,31.079,31.079,0,0,0,1.651,10.932,26.562,26.562,0,0,0-17.289,31.1H22.155a22.155,22.155,0,0,0,0,44.31H38.974a2.117,2.117,0,1,0,0-4.233H22.155a17.921,17.921,0,0,1,0-35.843h6.292a2.117,2.117,0,0,0,2-2.818,22.316,22.316,0,0,1,14.136-28.6,31.1,31.1,0,0,0,5.819,7.972,33.712,33.712,0,0,1,7.386,11.167A7.263,7.263,0,0,0,56.571,160.2a7.268,7.268,0,0,0,4.544,12.405l.78,3.614a10.7,10.7,0,0,0,10.4,8.4,10.587,10.587,0,0,0,5.842-1.765,18.722,18.722,0,0,0,33.167-6,2.117,2.117,0,0,0-4.078-1.137,14.5,14.5,0,1,1-.255-8.621,2.117,2.117,0,1,0,4-1.378,18.7,18.7,0,0,0-21.085-12.325,7.3,7.3,0,0,0-3.18-4.483,35.11,35.11,0,0,1,7.567-11.338,30.826,30.826,0,0,0,7.822-13.416,27.669,27.669,0,0,1,11.137,34.117,2.116,2.116,0,0,0,1.957,2.923h7.153a17.921,17.921,0,1,1,0,35.843H48.852a2.117,2.117,0,0,0,0,4.233h73.493a22.155,22.155,0,1,0,0-44.309Zm-50.1-36.008a5.179,5.179,0,1,1,5.18-5.179A5.185,5.185,0,0,1,72.25,120.955Zm-14.625-5.179a14.625,14.625,0,1,1,16.741,14.47v-5.3a9.413,9.413,0,1,0-4.233,0v5.3A14.646,14.646,0,0,1,57.625,115.776Zm14.669,64.605a6.442,6.442,0,0,1-6.262-5.055l-.582-2.695h9.1a18.6,18.6,0,0,0,1.482,6.532,6.371,6.371,0,0,1-3.738,1.218ZM74.848,168.4H61.694a3.04,3.04,0,1,1,0-6.08H77.126A18.6,18.6,0,0,0,74.848,168.4Zm5.691-10.314H61.694a3.04,3.04,0,0,1,0-6.08H82.806a3.043,3.043,0,0,1,3.009,2.628,18.788,18.788,0,0,0-5.276,3.452Z" transform="translate(0 -64.938)" fill="#526271"/><path d="M311.98,372.581l-7.068,7.069-4.957-4.958a2.117,2.117,0,1,0-2.994,2.993l6.454,6.454a2.117,2.117,0,0,0,2.994,0l8.565-8.565a2.117,2.117,0,0,0-2.994-2.993Z" transform="translate(-212.706 -271.066)" fill="#526271"/></g></g></svg>