<svg xmlns="http://www.w3.org/2000/svg" width="155" height="135.749" viewBox="0 0 155 135.749"><g transform="translate(0 -31.795)"><g transform="translate(60.236 103.081)"><path d="M198.972,309.637V268.259a.989.989,0,0,1,.989-.989h72.231a.989.989,0,0,1,.989.989v41.378a.989.989,0,0,1-.989.989H199.961A.988.988,0,0,1,198.972,309.637Z" transform="translate(-198.972 -267.27)" fill="#fff"/></g><g transform="translate(67.181 112.371)"><g transform="translate(0 5.905)"><circle cx="4.152" cy="4.152" r="4.152" fill="#2595d3"/></g><g transform="translate(14.025 19.514)"><circle cx="4.152" cy="4.152" r="4.152" fill="#2595d3"/></g><g transform="translate(39.352)"><circle cx="4.152" cy="4.152" r="4.152" fill="#2595d3"/></g><g transform="translate(52.015 13.078)"><circle cx="4.152" cy="4.152" r="4.152" fill="#2595d3"/></g></g><g transform="translate(15.824 39.429)"><g transform="translate(0 37.452)"><g transform="translate(0 0)"><path d="M73.192,176.884H62.9V163.915a.908.908,0,0,1,.908-.908h8.475a.908.908,0,0,1,.908.908v12.969Z" transform="translate(-62.901 -163.007)" fill="#2595d3"/></g></g><g transform="translate(18.679 25.804)"><g transform="translate(0)"><path d="M134.893,150.057H124.6V125.441a.908.908,0,0,1,.908-.908h8.475a.908.908,0,0,1,.908.908Z" transform="translate(-124.602 -124.533)" fill="#2595d3"/></g></g><g transform="translate(37.358 0)"><g transform="translate(0 0)"><g transform="translate(0)"><path d="M196.6,90.624H186.3V40.2a.908.908,0,0,1,.908-.908h8.475a.908.908,0,0,1,.908.908Z" transform="translate(-186.304 -39.296)" fill="#2595d3"/></g></g></g><g transform="translate(56.038 21.095)"><g transform="translate(0)"><path d="M257.389,139.21h-9.383V109.885a.908.908,0,0,1,.908-.908h8.475a.908.908,0,0,1,.908.908V138.3A.908.908,0,0,1,257.389,139.21Z" transform="translate(-248.006 -108.977)" fill="#2595d3"/></g></g></g><g transform="translate(0 31.795)"><path d="M266.962,259.77H194.731a3.263,3.263,0,0,0-3.26,3.26v41.378a3.263,3.263,0,0,0,3.26,3.259h72.232a3.263,3.263,0,0,0,3.26-3.259V295.26a2.271,2.271,0,0,0-4.541,0v7.866H196.012V264.311h69.668v20.353a2.271,2.271,0,0,0,4.541,0V263.029a3.263,3.263,0,0,0-3.26-3.259Z" transform="translate(-133.506 -190.754)" fill="#526271"/><circle cx="2.271" cy="2.271" r="2.271" transform="translate(65.693 76.001)" fill="#526271"/><circle cx="2.271" cy="2.271" r="2.271" transform="translate(72.354 76.001)" fill="#526271"/><circle cx="2.271" cy="2.271" r="2.271" transform="translate(79.014 76.001)" fill="#526271"/><path d="M151.081,152.407h-6.126V98.137a5.573,5.573,0,0,0-5.567-5.567H104.413V68.791a2.271,2.271,0,0,0-4.541,0V92.57H55.291a5.569,5.569,0,0,0-5.549,5.222H4.541V47.984a1.027,1.027,0,0,1,1.026-1.026H54.13V83.124H50.283V60.778A3.182,3.182,0,0,0,47.1,57.6H38.63a3.182,3.182,0,0,0-3.179,3.179V83.124H31.6v-10.7a3.182,3.182,0,0,0-3.179-3.179H19.95a3.182,3.182,0,0,0-3.179,3.179v10.7H12.715a2.271,2.271,0,0,0,0,4.541H84.463a3.182,3.182,0,0,0,3.179-3.179V56.069a3.182,3.182,0,0,0-3.179-3.179H75.988a3.182,3.182,0,0,0-3.179,3.179V83.124H68.962V46.958H98.847a1.027,1.027,0,0,1,1.026,1.026V58.195a2.271,2.271,0,1,0,4.541,0V47.984a5.573,5.573,0,0,0-5.567-5.567H68.962V34.974a3.182,3.182,0,0,0-3.179-3.179H57.309a3.182,3.182,0,0,0-3.179,3.179v7.444H5.567A5.573,5.573,0,0,0,0,47.984v61.308a5.573,5.573,0,0,0,5.567,5.567H20.889a2.271,2.271,0,1,0,0-4.541H5.567a1.027,1.027,0,0,1-1.026-1.026v-6.959H49.725v7.984H31.484a2.271,2.271,0,0,0,0,4.541h5.432v13.588H24.684a7.223,7.223,0,0,0-7.215,7.215v3.955a3.923,3.923,0,0,0,3.919,3.919H49.725v8.872H43.6a3.923,3.923,0,0,0-3.919,3.919v7.3a3.923,3.923,0,0,0,3.919,3.919H151.081A3.923,3.923,0,0,0,155,163.625v-7.3A3.923,3.923,0,0,0,151.081,152.407ZM27.063,83.124h-5.75V73.788h5.75v9.336Zm18.679,0h-5.75V62.14h5.75ZM77.35,57.431H83.1V83.124H77.35Zm-18.679-21.1h5.75V83.124h-5.75Zm-4.405,61.8a1.027,1.027,0,0,1,1.026-1.026h84.1a1.027,1.027,0,0,1,1.026,1.026v54.27H54.266ZM41.457,114.858h8.267v13.588H41.457ZM22.011,138.994v-3.333a2.677,2.677,0,0,1,2.674-2.674H49.725v6.007ZM44.221,163v-6.055H82.027l2.2,6.055Zm61.489,0H89.053l-2.2-6.055h20.993Zm44.749,0H110.527l2.141-6.055h37.792Z" transform="translate(0 -31.795)" fill="#526271"/><path d="M272.851,316.379a6.422,6.422,0,1,0-2.546-12.316l-4.313-4.454a6.419,6.419,0,1,0-11.948-.863l-15.818,12.187a6.354,6.354,0,0,0-6.1-.344l-5.41-5.233a6.453,6.453,0,1,0-3.177,3.245l5.427,5.249a6.422,6.422,0,1,0,12.039.675l15.818-12.187a6.376,6.376,0,0,0,5.912.434l4.313,4.454a6.407,6.407,0,0,0,5.8,9.153Zm0-8.3a1.881,1.881,0,1,1-1.882,1.882A1.884,1.884,0,0,1,272.851,308.075Zm-52.015-3.411a1.882,1.882,0,1,1,1.881-1.882A1.884,1.884,0,0,1,220.836,304.664Zm14.025,13.609a1.882,1.882,0,1,1,1.882-1.882A1.884,1.884,0,0,1,234.861,318.273Zm25.327-19.514a1.882,1.882,0,1,1,1.882-1.882A1.884,1.884,0,0,1,260.188,298.759Z" transform="translate(-149.504 -212.15)" fill="#526271"/><path d="M38.771,101.886h11.2a2.271,2.271,0,0,0,0-4.541h-11.2a2.271,2.271,0,0,0,0,4.541Z" transform="translate(-25.45 -77.501)" fill="#526271"/><path d="M38.771,124.886h11.2a2.271,2.271,0,0,0,0-4.541h-11.2a2.271,2.271,0,0,0,0,4.541Z" transform="translate(-25.45 -93.538)" fill="#526271"/></g></g></svg>