<svg xmlns="http://www.w3.org/2000/svg" width="145.061" height="120.997" viewBox="0 0 145.061 120.997"><g transform="translate(0 -42.467)"><g transform="translate(44.111 86.028)"><g transform="translate(0 2.64)"><g transform="translate(36.368 36.368)"><path d="M308.919,337.469,298.346,326.9a23.012,23.012,0,0,1-5.291,5.291l10.572,10.572Z" transform="translate(-293.055 -326.897)" fill="#2595d3"/></g><g transform="translate(45.945 45.812)"><path d="M350.049,383.419a5.837,5.837,0,0,1-8.254,0l-14.5-14.5a1.5,1.5,0,0,1,0-2.116l6.138-6.138a1.5,1.5,0,0,1,2.116,0l14.5,14.5A5.837,5.837,0,0,1,350.049,383.419Z" transform="translate(-326.859 -360.229)" fill="#2595d3"/></g><circle cx="23.105" cy="23.105" r="23.105" fill="#2595d3"/><g transform="translate(9.148 4.615)"><circle cx="16.507" cy="16.507" r="16.507" fill="#fff"/></g></g><g transform="translate(45.06 0)"><g transform="translate(25.007 17.277)"><circle cx="5.74" cy="5.74" r="5.74" fill="#2595d3"/></g><circle cx="5.74" cy="5.74" r="5.74" fill="#2595d3"/><g transform="translate(42.284)"><circle cx="5.74" cy="5.74" r="5.74" fill="#2595d3"/></g></g><g transform="translate(19.914 18.104)"><circle cx="5.74" cy="5.74" r="5.74" fill="#2595d3"/></g></g><g transform="translate(0 42.467)"><path d="M86.071,365.828h4.15a1.63,1.63,0,1,1,0,3.26H82.909a2.125,2.125,0,1,0,0,4.25h3.112v1.729a2.125,2.125,0,1,0,4.25,0v-1.732a5.879,5.879,0,0,0-.05-11.758h-4.15a1.63,1.63,0,1,1,0-3.26h7.313a2.125,2.125,0,1,0,0-4.25H90.271v-1.729a2.125,2.125,0,1,0-4.25,0v1.732a5.879,5.879,0,0,0,.05,11.758Z" transform="translate(-57.471 -263.022)" fill="#526271"/><path d="M137.2,83.9a7.861,7.861,0,0,0-6.508,12.277l-6.357,6.357a7.847,7.847,0,0,0-10.109,1.093l-12.107-8.708a7.864,7.864,0,1,0-15.06-3.49,25.208,25.208,0,0,0-19.84-6.744L62.879,81.5a6.069,6.069,0,0,0,.362-8.326,6.079,6.079,0,0,0-3.22-9.9L67.479,49.1a3.324,3.324,0,0,0-2.941-4.872H58.132A3.3,3.3,0,0,0,55.2,42.467H44.091a3.3,3.3,0,0,0-2.931,1.762H34.754A3.324,3.324,0,0,0,31.813,49.1l7.458,14.174a6.08,6.08,0,0,0-3.22,9.9,6.069,6.069,0,0,0,.362,8.326l-14.949,11H4.486A4.492,4.492,0,0,0,0,96.982v3.677a4.453,4.453,0,0,0,.679,2.361A4.453,4.453,0,0,0,0,105.381v3.677a4.453,4.453,0,0,0,.679,2.361A4.453,4.453,0,0,0,0,113.78v3.677a4.453,4.453,0,0,0,.679,2.361A4.453,4.453,0,0,0,0,122.179v3.677a4.453,4.453,0,0,0,.679,2.361A4.453,4.453,0,0,0,0,130.579v3.677a4.453,4.453,0,0,0,.679,2.361A4.453,4.453,0,0,0,0,138.978v3.677a4.453,4.453,0,0,0,.679,2.361A4.453,4.453,0,0,0,0,147.377v3.677a4.491,4.491,0,0,0,4.486,4.486H14.592a20.283,20.283,0,0,0,32.166,0h9.906a2.125,2.125,0,1,0,0-4.25H49.283A20.3,20.3,0,0,0,34,123.109v-.93a4.453,4.453,0,0,0-.679-2.361A4.453,4.453,0,0,0,34,117.457v-3.677a4.453,4.453,0,0,0-.679-2.361A4.453,4.453,0,0,0,34,109.058v-3.677a4.453,4.453,0,0,0-.679-2.361A4.453,4.453,0,0,0,34,100.659V96.982A4.491,4.491,0,0,0,29.515,92.5h-.88l12.587-9.261H58.069l3.608,2.654a25.229,25.229,0,1,0,21.287,45.394l6.355,6.355A15.865,15.865,0,0,1,73.607,151.29H66.581a2.125,2.125,0,1,0,0,4.25h7.026a20.081,20.081,0,0,0,18.516-12.267l13.917,13.917A7.961,7.961,0,1,0,117.3,145.93l-3.1-3.1a2.125,2.125,0,1,0-3,3l3.1,3.1a3.712,3.712,0,0,1-5.249,5.249L94.991,140.13l5.249-5.249,3.938,3.938a2.125,2.125,0,1,0,3-3l-4.382-4.382a3.62,3.62,0,0,0-3.9-.8l-7.641-7.641A25.191,25.191,0,0,0,92.719,99.32a7.837,7.837,0,0,0,6.693-1.107l12.809,9.214A7.866,7.866,0,1,0,127.08,105.8l6.869-6.869A7.864,7.864,0,1,0,137.2,83.9ZM4.25,113.78a.237.237,0,0,1,.236-.236H29.515a.237.237,0,0,1,.236.236v3.677a.237.237,0,0,1-.236.236H4.486a.237.237,0,0,1-.236-.236Zm0,8.4a.237.237,0,0,1,.236-.236H29.515a.237.237,0,0,1,.236.236v.676a20.181,20.181,0,0,0-10.093,3.237H4.486a.237.237,0,0,1-.236-.236Zm0,16.8a.237.237,0,0,1,.236-.236h6.36a20.286,20.286,0,0,0-.481,4.149H4.486a.237.237,0,0,1-.236-.236Zm.236,12.312a.237.237,0,0,1-.236-.236v-3.677a.237.237,0,0,1,.236-.236h6.269a20.145,20.145,0,0,0,1.312,4.149Zm7.814-16.8H4.486a.237.237,0,0,1-.236-.236v-3.677a.237.237,0,0,1,.236-.236H14.918a20.366,20.366,0,0,0-2.618,4.149Zm34.441,8.657a16.066,16.066,0,1,1-16.066-16.066A16.085,16.085,0,0,1,46.741,143.148ZM29.751,96.982v3.677a.237.237,0,0,1-.236.236H24.366a2.125,2.125,0,0,0,0,4.25h5.149a.237.237,0,0,1,.236.236v3.677a.237.237,0,0,1-.236.236H4.486a.237.237,0,0,1-.236-.236v-3.677a.237.237,0,0,1,.236-.236h9.963a2.125,2.125,0,0,0,0-4.25H4.486a.237.237,0,0,1-.236-.236V96.982a.237.237,0,0,1,.236-.236H29.515a.237.237,0,0,1,.236.236Zm28.3-48.5H63l-7.7,14.629H55.1Zm-3.98-1.762L50.763,63.108H48.529L45.222,46.717ZM36.288,48.479h4.954l2.951,14.629h-.208Zm4.378,18.879H58.627a1.844,1.844,0,1,1,0,3.689H40.666a1.844,1.844,0,1,1,0-3.689Zm0,7.939H58.627a1.844,1.844,0,1,1,0,3.689H40.666a1.844,1.844,0,1,1,0-3.689Zm8.121,34.493A20.967,20.967,0,0,1,85.132,95.525l-1.868,1.441a18.6,18.6,0,1,0,2.561,3.392L87.7,98.911a20.978,20.978,0,1,1-38.913,10.878Zm24.6.083a3.616,3.616,0,1,1-3.616-3.615A3.62,3.62,0,0,1,73.382,109.872Zm1.2-6.211a7.858,7.858,0,1,0,2.532,3.414l5.313-4.1a14.426,14.426,0,1,1-2.549-3.4Zm21.1,29.763L93.4,135.71l-6.984-6.984A25.451,25.451,0,0,0,88.7,126.44Zm-.775-38.041a3.615,3.615,0,1,1,3.615-3.615A3.62,3.62,0,0,1,94.912,95.383Zm25.007,17.278a3.616,3.616,0,1,1,3.615-3.616A3.62,3.62,0,0,1,119.919,112.661ZM137.2,95.383a3.615,3.615,0,1,1,3.616-3.615A3.62,3.62,0,0,1,137.2,95.383Z" transform="translate(0 -42.467)" fill="#526271"/></g></g></svg>