<svg xmlns="http://www.w3.org/2000/svg" width="146" height="146" viewBox="0 0 146 146"><g transform="translate(11.356 83.802)"><g transform="translate(0 0)"><circle cx="4.609" cy="4.609" r="4.609" fill="#2595d3"/></g><g transform="translate(0 40.039)"><circle cx="4.609" cy="4.609" r="4.609" fill="#2595d3"/></g></g><g transform="translate(86.826 83.802)"><g transform="translate(0 0)"><circle cx="4.609" cy="4.609" r="4.609" fill="#2595d3"/></g><g transform="translate(0 40.039)"><circle cx="4.609" cy="4.609" r="4.609" fill="#2595d3"/></g></g><g transform="translate(55.141 39.722)"><g transform="translate(0 0)"><path d="M221.733,148.47H196.98a3.524,3.524,0,0,1-3.61-3.432V128.126a3.524,3.524,0,0,1,3.61-3.432h24.753a3.524,3.524,0,0,1,3.61,3.432v16.913A3.524,3.524,0,0,1,221.733,148.47Z" transform="translate(-193.37 -124.694)" fill="#2595d3"/></g></g><g transform="translate(0 0)"><path d="M99.115,290.658h1.711a2.139,2.139,0,1,0,0-4.277H99.115a2.139,2.139,0,0,0,0,4.277Z" transform="translate(-69.323 -204.718)" fill="#526271"/><path d="M143.446,290.658h4.1a2.139,2.139,0,0,0,0-4.277h-4.1a2.139,2.139,0,0,0,0,4.277Z" transform="translate(-101.012 -204.718)" fill="#526271"/><path d="M196.151,290.658h1.711a2.139,2.139,0,1,0,0-4.277h-1.711a2.139,2.139,0,0,0,0,4.277Z" transform="translate(-138.688 -204.718)" fill="#526271"/><path d="M196.151,322.983h1.711a2.139,2.139,0,1,0,0-4.277h-1.711a2.139,2.139,0,0,0,0,4.277Z" transform="translate(-138.688 -227.825)" fill="#526271"/><path d="M143.446,322.983h4.1a2.139,2.139,0,0,0,0-4.277h-4.1a2.139,2.139,0,0,0,0,4.277Z" transform="translate(-101.012 -227.825)" fill="#526271"/><path d="M99.115,322.983h1.711a2.139,2.139,0,1,0,0-4.277H99.115a2.139,2.139,0,0,0,0,4.277Z" transform="translate(-69.323 -227.825)" fill="#526271"/><path d="M39.073,299.876a6.748,6.748,0,1,0-6.748-6.747A6.755,6.755,0,0,0,39.073,299.876Zm0-9.218a2.47,2.47,0,1,1-2.47,2.47A2.473,2.473,0,0,1,39.073,290.658Z" transform="translate(-23.107 -204.718)" fill="#526271"/><path d="M64.481,288.575v-5.012a6.757,6.757,0,0,0,6.049-6.711v-21.6a6.755,6.755,0,0,0-6.747-6.748H6.748A6.755,6.755,0,0,0,0,255.248v21.6a6.757,6.757,0,0,0,6.049,6.711v5.012A6.758,6.758,0,0,0,0,295.288v21.6a6.755,6.755,0,0,0,6.747,6.747H63.781a6.756,6.756,0,0,0,6.75-6.747v-21.6a6.759,6.759,0,0,0-6.05-6.713Zm-60.2-11.723v-21.6a2.473,2.473,0,0,1,2.47-2.47H63.782a2.473,2.473,0,0,1,2.47,2.47v21.6a2.473,2.473,0,0,1-2.47,2.47H6.748a2.473,2.473,0,0,1-2.47-2.47Zm61.976,40.04a2.474,2.474,0,0,1-2.472,2.469H6.747a2.472,2.472,0,0,1-2.469-2.469v-21.6a2.474,2.474,0,0,1,2.469-2.472H45.089a2.139,2.139,0,1,0,0-4.277H10.327V283.6H60.2v4.94H55.069a2.139,2.139,0,0,0,0,4.277h8.712a2.475,2.475,0,0,1,2.472,2.472Z" transform="translate(0 -177.639)" fill="#526271"/><path d="M100.826,426.794H99.115a2.139,2.139,0,0,0,0,4.277h1.711a2.139,2.139,0,0,0,0-4.277Z" transform="translate(-69.323 -305.091)" fill="#526271"/><path d="M147.545,426.794h-4.1a2.139,2.139,0,0,0,0,4.277h4.1a2.139,2.139,0,0,0,0-4.277Z" transform="translate(-101.012 -305.091)" fill="#526271"/><path d="M197.862,426.794h-1.711a2.139,2.139,0,0,0,0,4.277h1.711a2.139,2.139,0,0,0,0-4.277Z" transform="translate(-138.688 -305.091)" fill="#526271"/><path d="M197.862,459.119h-1.711a2.139,2.139,0,0,0,0,4.277h1.711a2.139,2.139,0,1,0,0-4.277Z" transform="translate(-138.688 -328.198)" fill="#526271"/><path d="M147.545,459.119h-4.1a2.139,2.139,0,0,0,0,4.277h4.1a2.139,2.139,0,0,0,0-4.277Z" transform="translate(-101.012 -328.198)" fill="#526271"/><path d="M100.826,459.119H99.115a2.139,2.139,0,0,0,0,4.277h1.711a2.139,2.139,0,1,0,0-4.277Z" transform="translate(-69.323 -328.198)" fill="#526271"/><path d="M39.073,426.794a6.748,6.748,0,1,0,6.747,6.747A6.755,6.755,0,0,0,39.073,426.794Zm0,9.218a2.47,2.47,0,1,1,2.47-2.47A2.473,2.473,0,0,1,39.073,436.012Z" transform="translate(-23.107 -305.091)" fill="#526271"/><path d="M335.191,276.85v-21.6a6.754,6.754,0,0,0-6.747-6.747h-5.258a2.139,2.139,0,0,0,0,4.277h5.258a2.472,2.472,0,0,1,2.469,2.469v21.6a2.474,2.474,0,0,1-2.469,2.472H271.41a2.475,2.475,0,0,1-2.472-2.472v-21.6a2.474,2.474,0,0,1,2.472-2.469h41.8a2.139,2.139,0,0,0,0-4.277h-41.8a6.756,6.756,0,0,0-6.75,6.747v21.6a6.759,6.759,0,0,0,6.05,6.713v5.012a6.757,6.757,0,0,0-6.049,6.711v21.6a6.755,6.755,0,0,0,6.747,6.748h57.035a6.755,6.755,0,0,0,6.748-6.748v-21.6a6.757,6.757,0,0,0-6.049-6.711v-5.012A6.758,6.758,0,0,0,335.191,276.85Zm-60.2,11.689V283.6h49.877v4.94Zm55.926,6.747v21.6a2.473,2.473,0,0,1-2.47,2.47H271.408a2.473,2.473,0,0,1-2.47-2.47v-21.6a2.473,2.473,0,0,1,2.47-2.47h57.035A2.473,2.473,0,0,1,330.913,295.287Z" transform="translate(-189.191 -177.639)" fill="#526271"/><path d="M365.489,286.381h-1.711a2.139,2.139,0,0,0,0,4.277h1.711a2.139,2.139,0,0,0,0-4.277Z" transform="translate(-258.515 -204.718)" fill="#526271"/><path d="M412.208,286.381h-4.1a2.139,2.139,0,1,0,0,4.277h4.1a2.139,2.139,0,0,0,0-4.277Z" transform="translate(-290.205 -204.718)" fill="#526271"/><path d="M460.814,290.658h1.711a2.139,2.139,0,0,0,0-4.277h-1.711a2.139,2.139,0,1,0,0,4.277Z" transform="translate(-327.881 -204.718)" fill="#526271"/><path d="M460.814,322.983h1.711a2.139,2.139,0,0,0,0-4.277h-1.711a2.139,2.139,0,1,0,0,4.277Z" transform="translate(-327.881 -227.825)" fill="#526271"/><path d="M412.208,318.706h-4.1a2.139,2.139,0,1,0,0,4.277h4.1a2.139,2.139,0,0,0,0-4.277Z" transform="translate(-290.205 -227.825)" fill="#526271"/><path d="M365.489,318.706h-1.711a2.139,2.139,0,0,0,0,4.277h1.711a2.139,2.139,0,0,0,0-4.277Z" transform="translate(-258.515 -227.825)" fill="#526271"/><path d="M296.988,293.129a6.748,6.748,0,1,0,6.747-6.748A6.755,6.755,0,0,0,296.988,293.129Zm9.218,0a2.47,2.47,0,1,1-2.47-2.47A2.473,2.473,0,0,1,306.206,293.129Z" transform="translate(-212.3 -204.718)" fill="#526271"/><path d="M365.489,426.794h-1.711a2.139,2.139,0,0,0,0,4.277h1.711a2.139,2.139,0,0,0,0-4.277Z" transform="translate(-258.515 -305.091)" fill="#526271"/><path d="M412.208,426.794h-4.1a2.139,2.139,0,0,0,0,4.277h4.1a2.139,2.139,0,0,0,0-4.277Z" transform="translate(-290.205 -305.091)" fill="#526271"/><path d="M462.525,426.794h-1.711a2.139,2.139,0,0,0,0,4.277h1.711a2.139,2.139,0,0,0,0-4.277Z" transform="translate(-327.881 -305.091)" fill="#526271"/><path d="M462.525,459.119h-1.711a2.139,2.139,0,1,0,0,4.277h1.711a2.139,2.139,0,0,0,0-4.277Z" transform="translate(-327.881 -328.198)" fill="#526271"/><path d="M412.208,459.119h-4.1a2.139,2.139,0,1,0,0,4.277h4.1a2.139,2.139,0,0,0,0-4.277Z" transform="translate(-290.205 -328.198)" fill="#526271"/><path d="M365.489,459.119h-1.711a2.139,2.139,0,0,0,0,4.277h1.711a2.139,2.139,0,0,0,0-4.277Z" transform="translate(-258.515 -328.198)" fill="#526271"/><path d="M303.735,426.794a6.748,6.748,0,1,0,6.748,6.747A6.755,6.755,0,0,0,303.735,426.794Zm0,9.218a2.47,2.47,0,1,1,2.47-2.47A2.473,2.473,0,0,1,303.735,436.012Z" transform="translate(-212.3 -305.091)" fill="#526271"/><path d="M137.351,53.823H147.6v5.643a6.178,6.178,0,0,0,6.171,6.172h27.654a6.178,6.178,0,0,0,6.171-6.172V53.823h10.248a5.025,5.025,0,0,0,5.019-5.019V42.466a2.138,2.138,0,0,0-2.139-2.139h-2.181V32.283a2.139,2.139,0,0,0-4.277,0v8.045H187.6V39.59a6.178,6.178,0,0,0-6.171-6.171h-1.03V28.355a12.8,12.8,0,0,0-25.593,0v5.063h-1.03A6.178,6.178,0,0,0,147.6,39.59v.738h-6.67V5.019a.744.744,0,0,1,.744-.741h51.847a.744.744,0,0,1,.744.741V22.3a2.139,2.139,0,0,0,4.277,0V5.019A5.026,5.026,0,0,0,193.521,0H141.673a5.026,5.026,0,0,0-5.021,5.019V40.328h-2.181a2.138,2.138,0,0,0-2.139,2.139V48.8A5.025,5.025,0,0,0,137.351,53.823Zm61.233-9.218v4.2a.743.743,0,0,1-.742.742H187.595v-4.94h10.99Zm-39.507-16.25a8.519,8.519,0,1,1,17.039,0v5.063H159.077Zm-7.2,11.234A1.9,1.9,0,0,1,153.77,37.7h27.654a1.9,1.9,0,0,1,1.894,1.894V59.465a1.9,1.9,0,0,1-1.894,1.894H153.77a1.9,1.9,0,0,1-1.894-1.894Zm-15.267,5.015H147.6v4.94H137.351a.743.743,0,0,1-.742-.742v-4.2Z" transform="translate(-94.597 0)" fill="#526271"/><path d="M244.474,155.753v4.994a2.139,2.139,0,1,0,4.277,0v-4.994a3.745,3.745,0,1,0-4.277,0Z" transform="translate(-173.613 -106.467)" fill="#fff"/><path d="M383.981,74.988h12.84V114.33a2.139,2.139,0,0,0,4.277,0V72.85a2.138,2.138,0,0,0-2.139-2.139H383.981a2.139,2.139,0,0,0,0,4.277Z" transform="translate(-272.957 -50.547)" fill="#526271"/><path d="M64.769,116.468a2.138,2.138,0,0,0,2.139-2.139V74.988h12.84a2.139,2.139,0,0,0,0-4.277H64.769A2.138,2.138,0,0,0,62.63,72.85v41.48A2.139,2.139,0,0,0,64.769,116.468Z" transform="translate(-44.771 -50.547)" fill="#526271"/></g></svg>