<svg xmlns="http://www.w3.org/2000/svg" width="145.261" height="152.86" viewBox="0 0 145.261 152.86"><g transform="translate(-13.24)"><g transform="translate(16.24 40.851)"><g transform="translate(0 24.64)"><g transform="translate(111.169)"><path d="M399.453,219.623l-5.332,5.332a.9.9,0,0,0-.262.633V254.6a.9.9,0,0,0,.9.9h27.061a.9.9,0,0,0,.9-.9V220.257a.9.9,0,0,0-.9-.9h-21.73A.9.9,0,0,0,399.453,219.623Z" transform="translate(-397.859 -216.361)" fill="#2595d3"/></g><path d="M27.094,219.623l-5.332,5.332a.9.9,0,0,0-.262.633V254.6a.9.9,0,0,0,.9.9H49.457a.9.9,0,0,0,.9-.9V220.257a.9.9,0,0,0-.9-.9H27.727A.9.9,0,0,0,27.094,219.623Z" transform="translate(-24.5 -215.361)" fill="#2595d3"/></g></g><g transform="translate(63.845 5.239)"><g transform="translate(0 0)"><path d="M198.615,7.762l-7.353,7.353a.9.9,0,0,0-.262.633V55.216a.9.9,0,0,0,.9.9h37.021a.9.9,0,0,0,.9-.9V8.4a.9.9,0,0,0-.9-.9H199.249a.9.9,0,0,0-.634.262Z" transform="translate(-191 -7.5)" fill="#2595d3"/></g><path d="M199.957,55.215V15.748a.9.9,0,0,1,.262-.634l7.353-7.353a.9.9,0,0,1,.633-.262h-8.957a.9.9,0,0,0-.633.262l-7.353,7.353a.9.9,0,0,0-.262.634V55.215a.9.9,0,0,0,.9.9h8.957A.9.9,0,0,1,199.957,55.215Z" transform="translate(-191 -7.499)" fill="#2595d3"/></g><g transform="translate(14.001 0)"><path d="M156.262,79.863a2.239,2.239,0,0,0,2.239-2.239V66.387a3.136,3.136,0,0,0-2.907-3.123V45.287a6.671,6.671,0,0,0-6.674-6.675h-23.8V24.589a2.239,2.239,0,0,0-4.478,0V38.612H107.9V31.647a2.239,2.239,0,0,0-4.478,0V48.611H69.084V11.044L75.65,4.478h27.768V21.2a2.239,2.239,0,0,0,4.478,0V3.135A3.138,3.138,0,0,0,104.761,0H75.094a3.114,3.114,0,0,0-2.217.918L65.524,8.271a3.115,3.115,0,0,0-.918,2.217V38.612H52.569V24.589a2.239,2.239,0,0,0-4.478,0V38.612H23.582a6.671,6.671,0,0,0-6.674,6.675V67.513L14.92,69.5A3.114,3.114,0,0,0,14,71.718v29.014a3.137,3.137,0,0,0,2.907,3.123v18.163a5.231,5.231,0,0,0,5.225,5.225H66.587v11.4H54.652a6.725,6.725,0,0,0-6.717,6.717v2.277a5.231,5.231,0,0,0,5.225,5.225h66.184a5.231,5.231,0,0,0,5.225-5.225v-2.277a6.725,6.725,0,0,0-6.717-6.717H105.915v-11.4h44.454a5.231,5.231,0,0,0,5.225-5.225V103.856a3.136,3.136,0,0,0,2.907-3.123V88.074a2.239,2.239,0,1,0-4.478,0V99.389H129.648V72.275l4.545-4.545h19.83v9.894a2.239,2.239,0,0,0,2.239,2.239Zm-70.011,16.2a2.232,2.232,0,0,0,1.584-.656l5.28-5.28a2.239,2.239,0,0,0-3.167-3.166L88.49,88.421V74.707h20.6v26.76H63.412V74.707h20.6V88.421l-1.457-1.457a2.239,2.239,0,0,0-3.166,3.166l5.28,5.28a2.23,2.23,0,0,0,1.583.656ZM63.411,70.229v-3H77.143l1.26,3ZM18.479,72.275l4.545-4.545h19.83V99.389H18.479Zm99.371,70.844a2.242,2.242,0,0,1,2.239,2.239v2.277a.747.747,0,0,1-.746.746H53.159a.747.747,0,0,1-.746-.746v-2.277a2.242,2.242,0,0,1,2.239-2.239h32.2a2.239,2.239,0,1,0,0-4.478H71.065v-11.4h30.373v11.4H97.3a2.239,2.239,0,1,0,0,4.478Zm33.266-21.1a.747.747,0,0,1-.746.746H22.132a.747.747,0,0,1-.746-.746v-6.557H151.115v6.557Zm0-58.767H133.637a3.114,3.114,0,0,0-2.217.918l-5.33,5.331a3.114,3.114,0,0,0-.919,2.217v29.014a3.138,3.138,0,0,0,3.135,3.135h22.81v7.116H21.386v-7.116H44.2a3.138,3.138,0,0,0,3.135-3.135V66.387A3.138,3.138,0,0,0,44.2,63.252H22.467a3.135,3.135,0,0,0-1.081.194V45.287a2.2,2.2,0,0,1,2.2-2.2H48.091v9.883l-1.457-1.457a2.239,2.239,0,0,0-3.166,3.166l5.28,5.28a2.239,2.239,0,0,0,3.166,0l5.28-5.28a2.239,2.239,0,0,0-3.166-3.166L52.57,52.974V43.091H64.606v6.864A3.138,3.138,0,0,0,67.74,53.09H84.012V70.229h-.751L81,64.853a3.426,3.426,0,0,0-3.166-2.1H62.367a3.437,3.437,0,0,0-3.433,3.433v36.628a3.138,3.138,0,0,0,3.135,3.135h48.366a3.138,3.138,0,0,0,3.135-3.135V73.364a3.138,3.138,0,0,0-3.135-3.135H88.49V53.09h16.271a3.138,3.138,0,0,0,3.135-3.135V43.091H120.64v9.883l-1.457-1.457a2.239,2.239,0,1,0-3.167,3.166l5.28,5.28a2.239,2.239,0,0,0,3.167,0l5.28-5.28a2.239,2.239,0,1,0-3.167-3.166l-1.457,1.457V43.091h23.8a2.2,2.2,0,0,1,2.2,2.2V63.252Z" transform="translate(-14.001 0)" fill="#526271"/><path d="M428.767,239.82H416.685a2.239,2.239,0,1,0,0,4.478h12.082a2.239,2.239,0,1,0,0-4.478Z" transform="translate(-294.891 -168.221)" fill="#526271"/><path d="M428.767,261.431H416.685a2.239,2.239,0,1,0,0,4.478h12.082a2.239,2.239,0,1,0,0-4.478Z" transform="translate(-294.891 -183.38)" fill="#526271"/><path d="M431.006,285.474a2.239,2.239,0,0,0-2.239-2.239H416.685a2.239,2.239,0,1,0,0,4.478h12.082A2.239,2.239,0,0,0,431.006,285.474Z" transform="translate(-294.891 -198.674)" fill="#526271"/><path d="M416.685,304.943a2.239,2.239,0,1,0,0,4.478H422.1a2.239,2.239,0,1,0,0-4.478Z" transform="translate(-294.891 -213.901)" fill="#526271"/><path d="M56.408,239.82H44.326a2.239,2.239,0,1,0,0,4.478H56.407a2.239,2.239,0,0,0,0-4.478Z" transform="translate(-33.702 -168.221)" fill="#526271"/><path d="M56.408,261.431H44.326a2.239,2.239,0,1,0,0,4.478H56.407a2.239,2.239,0,0,0,0-4.478Z" transform="translate(-33.702 -183.38)" fill="#526271"/><path d="M56.408,283.235H44.326a2.239,2.239,0,0,0,0,4.478H56.407a2.239,2.239,0,0,0,0-4.478Z" transform="translate(-33.702 -198.674)" fill="#526271"/><path d="M49.743,304.943H44.327a2.239,2.239,0,1,0,0,4.478h5.416a2.239,2.239,0,1,0,0-4.478Z" transform="translate(-33.702 -213.901)" fill="#526271"/><path d="M235.429,36.324h-.6V25.739a2.239,2.239,0,1,0-4.478,0V36.324H229.16V29.586a2.239,2.239,0,1,0-4.478,0v6.737h-1.194V27.278a2.239,2.239,0,1,0-4.478,0v9.046h-1.194V31.894a2.239,2.239,0,1,0-4.478,0v4.429h-.6a2.239,2.239,0,0,0,0,4.478h22.69a2.239,2.239,0,1,0,0-4.478Z" transform="translate(-151.834 -16.484)" fill="#526271"/><path d="M213.972,91.5h-1.233a2.239,2.239,0,0,0,0,4.478h1.233a2.239,2.239,0,0,0,0-4.478Z" transform="translate(-151.834 -64.182)" fill="#526271"/><path d="M213.972,113h-1.233a2.239,2.239,0,0,0,0,4.478h1.233a2.239,2.239,0,0,0,0-4.478Z" transform="translate(-151.834 -79.263)" fill="#526271"/><path d="M213.972,134.5h-1.233a2.239,2.239,0,0,0,0,4.478h1.233a2.239,2.239,0,0,0,0-4.478Z" transform="translate(-151.834 -94.344)" fill="#526271"/><path d="M251.074,91.5H235.043a2.239,2.239,0,1,0,0,4.478h16.031a2.239,2.239,0,1,0,0-4.478Z" transform="translate(-167.479 -64.182)" fill="#526271"/><path d="M251.074,113H235.043a2.239,2.239,0,1,0,0,4.478h16.031a2.239,2.239,0,1,0,0-4.478Z" transform="translate(-167.479 -79.263)" fill="#526271"/><path d="M251.074,134.5H235.043a2.239,2.239,0,1,0,0,4.478h16.031a2.239,2.239,0,1,0,0-4.478Z" transform="translate(-167.479 -94.344)" fill="#526271"/></g></g></svg>