<svg xmlns="http://www.w3.org/2000/svg" width="143.5" height="108.733" viewBox="0 0 143.5 108.733"><g transform="translate(0 -63.632)"><g transform="translate(25.077 70.158)"><path d="M294.339,82.793a39.688,39.688,0,0,1,30.233,19.949,46.7,46.7,0,0,1,15.075,6.537,51.328,51.328,0,0,0-45.159-38.144.839.839,0,0,0-.906.839v9.984A.843.843,0,0,0,294.339,82.793Z" transform="translate(-238.904 -71.132)" fill="#2595d3"/><path d="M104.01,278.354a.959.959,0,0,1,1.26.086l3.187,3.187a.96.96,0,0,0,1.136.163,14.5,14.5,0,0,1,2.709-1.122.96.96,0,0,0,.688-.918v-1.772a39.43,39.43,0,0,1-2.837-11,.843.843,0,0,0-.835-.757H99.335a.839.839,0,0,0-.839.906,51.042,51.042,0,0,0,3.036,13.472A20.688,20.688,0,0,1,104.01,278.354Z" transform="translate(-98.493 -211.543)" fill="#2595d3"/><g transform="translate(0 0)"><path d="M110.154,117.9a39.69,39.69,0,0,1,35.11-35.11.843.843,0,0,0,.757-.835V71.974a.839.839,0,0,0-.906-.839A51.305,51.305,0,0,0,98.5,117.755a.839.839,0,0,0,.839.906h9.984A.843.843,0,0,0,110.154,117.9Z" transform="translate(-98.493 -71.133)" fill="#2595d3"/></g><path d="M324.571,306.229a39.688,39.688,0,0,1-30.233,19.949.842.842,0,0,0-.757.835V337a.839.839,0,0,0,.906.839,51.328,51.328,0,0,0,45.159-38.144A46.7,46.7,0,0,1,324.571,306.229Z" transform="translate(-238.903 -235.633)" fill="#2595d3"/><path d="M224.222,384.094a39.411,39.411,0,0,1-13.384-3.933h-.485a.96.96,0,0,0-.918.688,14.488,14.488,0,0,1-1.122,2.709.96.96,0,0,0,.163,1.136l3.187,3.187a.959.959,0,0,1,.086,1.26,20.63,20.63,0,0,1-2.756,2.941,51,51,0,0,0,15.078,3.669.839.839,0,0,0,.906-.839v-9.984a.842.842,0,0,0-.757-.835Z" transform="translate(-177.45 -293.548)" fill="#2595d3"/></g><g transform="translate(90.213 104.629)"><g transform="translate(0 0)"><circle cx="12.209" cy="12.209" r="12.209" fill="#2595d3"/></g><g transform="translate(7.994 7.994)"><circle cx="4.215" cy="4.215" r="4.215" fill="#fff"/></g></g><g transform="translate(0 63.632)"><path d="M133.63,294.6h0a37.361,37.361,0,0,1-6.862-1.407,3.026,3.026,0,0,0,.313-.993,22.793,22.793,0,0,0,0-5.913,3.068,3.068,0,0,0-3.036-2.659h-3.68c-.186-.52-.4-1.032-.634-1.531l2.6-2.6a3.068,3.068,0,0,0,.266-4.027,22.753,22.753,0,0,0-4.181-4.181,3.069,3.069,0,0,0-4.027.267l-2.6,2.6q-.749-.354-1.531-.634v-3.68a3.068,3.068,0,0,0-2.659-3.036,22.9,22.9,0,0,0-5.913,0c-.1.012-.189.029-.281.05a37.325,37.325,0,0,1-1.023-5.5,2.942,2.942,0,0,0-2.925-2.632H87.473a2.941,2.941,0,0,0-2.933,3.19,53.237,53.237,0,0,0,2.729,12.836c-.2.237-.393.477-.582.722a3.068,3.068,0,0,0,.266,4.028l2.6,2.6c-.236.5-.448,1.01-.634,1.531h-3.68a3.068,3.068,0,0,0-3.036,2.659,22.758,22.758,0,0,0,0,5.912,3.068,3.068,0,0,0,3.036,2.66h3.68q.279.781.634,1.531l-2.6,2.6a3.068,3.068,0,0,0-.267,4.027,22.743,22.743,0,0,0,4.181,4.181,3.068,3.068,0,0,0,4.027-.267l2.6-2.6c.5.236,1.01.448,1.531.634v3.68a3.068,3.068,0,0,0,2.659,3.036,22.793,22.793,0,0,0,5.913,0,3.068,3.068,0,0,0,2.659-3.036v-3.68c.52-.186,1.032-.4,1.531-.634l2.6,2.6a3.068,3.068,0,0,0,4.027.266c.044-.034.087-.069.13-.1a53.158,53.158,0,0,0,14.525,3.347c.084.007.167.011.251.011a2.942,2.942,0,0,0,2.939-2.944v-9.984a2.941,2.941,0,0,0-2.632-2.925ZM96.34,262.924a41.505,41.505,0,0,0,2.688,10.061v.537c-.52.186-1.032.4-1.531.634l-2.6-2.6a3.068,3.068,0,0,0-4.028-.267c-.078.06-.154.123-.232.184a48.889,48.889,0,0,1-1.769-8.548Zm11.9,38.279a3.044,3.044,0,0,0-2.186,2.932v3.48a18.6,18.6,0,0,1-2.823,0v-3.48a3.044,3.044,0,0,0-2.186-2.932,12.424,12.424,0,0,1-2.317-.959,3.045,3.045,0,0,0-3.619.527l-2.46,2.46a18.534,18.534,0,0,1-2-2l2.459-2.459a3.044,3.044,0,0,0,.528-3.619,12.437,12.437,0,0,1-.959-2.316,3.044,3.044,0,0,0-2.932-2.186h-3.48c-.036-.47-.054-.942-.054-1.411s.018-.941.054-1.411h3.48a3.043,3.043,0,0,0,2.932-2.186,12.44,12.44,0,0,1,.959-2.317,3.044,3.044,0,0,0-.527-3.619l-2.46-2.46a18.525,18.525,0,0,1,2-2l2.46,2.46a3.044,3.044,0,0,0,3.619.527,12.434,12.434,0,0,1,2.317-.959,3.044,3.044,0,0,0,2.186-2.932v-3.48a18.614,18.614,0,0,1,2.823,0v3.48a3.044,3.044,0,0,0,2.186,2.932,12.421,12.421,0,0,1,2.317.959,3.044,3.044,0,0,0,3.619-.527l2.46-2.46a18.539,18.539,0,0,1,2,2l-2.46,2.46h0a3.045,3.045,0,0,0-.527,3.619,12.4,12.4,0,0,1,.959,2.317,3.044,3.044,0,0,0,2.932,2.186h3.48c.036.47.054.942.054,1.411s-.018.941-.054,1.411h-3.48a3.044,3.044,0,0,0-2.932,2.186,12.42,12.42,0,0,1-.959,2.317,3.045,3.045,0,0,0,.527,3.619l2.46,2.46a18.562,18.562,0,0,1-2,2l-2.46-2.46a3.044,3.044,0,0,0-3.619-.527,12.421,12.421,0,0,1-2.317.959Zm23.818,4.912a48.858,48.858,0,0,1-10.126-2.276c.228-.269.451-.542.666-.822a3.068,3.068,0,0,0-.267-4.027l-2.6-2.6c.186-.392.351-.793.506-1.2a41.508,41.508,0,0,0,11.822,3.452Z" transform="translate(-59.027 -204.042)" fill="#526271"/><path d="M300.67,115.664a49.172,49.172,0,0,0-12.978-13.09A53.4,53.4,0,0,0,240.9,63.643a2.941,2.941,0,0,0-3.19,2.933V76.56a2.941,2.941,0,0,0,2.632,2.925h0A37.49,37.49,0,0,1,266.37,94.4a49.043,49.043,0,0,0-47.137,21.262,2.1,2.1,0,0,0,0,2.349,49.044,49.044,0,0,0,47.137,21.262,37.489,37.489,0,0,1-26.028,14.916,2.941,2.941,0,0,0-2.632,2.925V167.1a2.942,2.942,0,0,0,2.939,2.944c.083,0,.167,0,.251-.011a52.941,52.941,0,0,0,30.359-12.89,2.1,2.1,0,0,0-2.759-3.172,48.752,48.752,0,0,1-26.586,11.736v-7.473a41.7,41.7,0,0,0,30.239-20.075,48.971,48.971,0,0,0,10.054-3.8,49.013,49.013,0,0,1-7.224,12.785,2.1,2.1,0,1,0,3.309,2.593,53.167,53.167,0,0,0,9.41-18.643,49.171,49.171,0,0,0,12.967-13.083A2.1,2.1,0,0,0,300.67,115.664ZM265.779,87.3a41.874,41.874,0,0,0-23.865-11.853V67.971A49.205,49.205,0,0,1,282.2,99.313a48.967,48.967,0,0,0-10.049-3.8,41.744,41.744,0,0,0-6.374-8.222Zm-42.241,29.542a44.883,44.883,0,0,1,18.153-14.774,44.787,44.787,0,0,0-9.385,13.92,2.1,2.1,0,0,0,0,1.708,44.776,44.776,0,0,0,9.385,13.92A44.884,44.884,0,0,1,223.538,116.838Zm36.414,18.656c-9.251,0-17.954-6.954-23.416-18.656,5.462-11.7,14.164-18.656,23.416-18.656s17.954,6.954,23.415,18.656C277.906,128.54,269.2,135.494,259.952,135.494Zm18.261-3.882a44.782,44.782,0,0,0,9.385-13.92,2.1,2.1,0,0,0,0-1.708,44.777,44.777,0,0,0-9.385-13.92,44.883,44.883,0,0,1,18.153,14.774,44.883,44.883,0,0,1-18.152,14.774Z" transform="translate(-157.529 -63.632)" fill="#526271"/><path d="M338.136,213.127a2.1,2.1,0,1,0,3.93-1.493,14.312,14.312,0,1,0-13.379,19.393,14.245,14.245,0,0,0,12.79-7.892,2.1,2.1,0,1,0-3.756-1.888,10.106,10.106,0,1,1,.415-8.119Z" transform="translate(-226.264 -163.51)" fill="#526271"/><path d="M342.9,237.246a6.317,6.317,0,1,0,6.317-6.317A6.324,6.324,0,0,0,342.9,237.246Zm8.43,0a2.113,2.113,0,1,1-2.113-2.113A2.115,2.115,0,0,1,351.33,237.246Z" transform="translate(-246.794 -184.04)" fill="#526271"/><path d="M30.814,93.229a53.211,53.211,0,0,0-5.3,18.946,2.941,2.941,0,0,0,2.933,3.19h9.984a2.942,2.942,0,0,0,2.925-2.632,37.383,37.383,0,0,1,2.343-9.576l3.5,2.7a7.21,7.21,0,1,0,13.05-.947l5.987-6.184A7.215,7.215,0,1,0,63.215,95.8l-5.987,6.184a7.184,7.184,0,0,0-7.461.543L45.5,99.237a37.712,37.712,0,0,1,4.957-7.17,2.1,2.1,0,1,0-3.16-2.773,41.961,41.961,0,0,0-5.17,7.345l-5.921-4.562A49.19,49.19,0,0,1,73.032,67.97v7.472a41.766,41.766,0,0,0-18.006,6.975,2.1,2.1,0,0,0,2.386,3.462A37.528,37.528,0,0,1,74.6,79.486a2.941,2.941,0,0,0,2.632-2.925V66.576a2.941,2.941,0,0,0-3.19-2.933,53.38,53.38,0,0,0-41.2,25.848l-3.318-2.557a7.21,7.21,0,1,0-13.161.738L10.7,93.155a7.22,7.22,0,1,0,2.922,3.022l5.668-5.482a7.187,7.187,0,0,0,7.67-.432ZM69.521,89.3a3.005,3.005,0,1,1-3.005,3.005A3.009,3.009,0,0,1,69.521,89.3ZM53.943,105.391a3.005,3.005,0,1,1-3.005,3.005A3.009,3.009,0,0,1,53.943,105.391ZM34.219,95.853l6.028,4.644a41.482,41.482,0,0,0-2.934,10.664H29.842A49.018,49.018,0,0,1,34.219,95.853ZM7.209,102.464a3.005,3.005,0,1,1,3.005-3.005A3.009,3.009,0,0,1,7.209,102.464ZM22.787,87.4a3.005,3.005,0,1,1,3.005-3.005A3.009,3.009,0,0,1,22.787,87.4Z" transform="translate(0 -63.632)" fill="#526271"/><path d="M149.573,346.034a8.408,8.408,0,1,0-8.408,8.408A8.418,8.418,0,0,0,149.573,346.034Zm-8.408,4.2a4.2,4.2,0,1,1,4.2-4.2A4.209,4.209,0,0,1,141.165,350.238Z" transform="translate(-95.549 -260.833)" fill="#526271"/></g></g></svg>