<svg xmlns="http://www.w3.org/2000/svg" width="144.5" height="144.5" viewBox="0 0 144.5 144.5"><g transform="translate(-819 -2469)"><rect width="56" height="5" transform="translate(826 2564)" fill="#2595d3"/><rect width="56" height="5" transform="translate(900 2564)" fill="#2595d3"/><g transform="translate(819 2469.001)"><g transform="translate(67.688 75.1)"><circle cx="4.562" cy="4.562" r="4.562" fill="#2595d3"/></g><g transform="translate(85.649 2.196)"><path d="M318.507,22.813H306.328a2.851,2.851,0,0,1-2.851-2.851V7.783a5.676,5.676,0,0,1,3.1,1.591l10.343,10.343A5.671,5.671,0,0,1,318.507,22.813Z" transform="translate(-303.477 -7.783)" fill="#2595d3"/></g><g transform="translate(0 -0.001)"><path d="M142.383,131.142h-2.159v-6.332a2.117,2.117,0,1,0-4.233,0v6.33H83.206V96.2a.735.735,0,0,1,.734-.734h51.317a.735.735,0,0,1,.734.734v18.737a2.117,2.117,0,1,0,4.233,0V96.2a4.973,4.973,0,0,0-4.967-4.967H111.714V79.661a2.117,2.117,0,0,0-2.117-2.117H78.582a6.707,6.707,0,0,0-4.216-4.216V68.095h20.69a7.829,7.829,0,0,0,7.82-7.82V44.407a2.117,2.117,0,0,0-4.233,0V60.274a3.591,3.591,0,0,1-3.587,3.587H49.443a3.591,3.591,0,0,1-3.587-3.587V7.817a3.59,3.59,0,0,1,3.587-3.584H83.533V14.375A4.973,4.973,0,0,0,88.5,19.343H98.644V34.53a2.117,2.117,0,1,0,4.233,0V18.161a7.389,7.389,0,0,0-.091-1.129c0-.038-.01-.075-.015-.113,0-.017,0-.035-.007-.052s0-.014,0-.02c-.006-.032-.012-.063-.019-.094a7.731,7.731,0,0,0-2.155-4.119L90.243,2.29A7.743,7.743,0,0,0,86.083.124l-.015,0L86.013.11C85.974.1,85.933.1,85.893.094l-.036,0A7.645,7.645,0,0,0,84.713,0H49.443a7.828,7.828,0,0,0-7.82,7.818V60.274a7.829,7.829,0,0,0,7.82,7.82h20.69v5.234a6.707,6.707,0,0,0-4.216,4.216H34.9a2.117,2.117,0,0,0-2.117,2.117V91.228H9.243A4.973,4.973,0,0,0,4.276,96.2v7.835a2.117,2.117,0,1,0,4.233,0V96.2a.735.735,0,0,1,.734-.734H60.56a.735.735,0,0,1,.734.734v34.945H8.509V113.908a2.117,2.117,0,1,0-4.233,0v17.234H2.117A2.117,2.117,0,0,0,0,133.259v6.272A4.973,4.973,0,0,0,4.968,144.5h59.87a4.973,4.973,0,0,0,4.968-4.968v-6.272a2.117,2.117,0,0,0-2.117-2.117H65.527V96.2a4.973,4.973,0,0,0-4.967-4.967H37.019V81.778h28.9a6.676,6.676,0,0,0,12.665,0h28.9v9.451H83.94A4.973,4.973,0,0,0,78.972,96.2v34.947H76.811a2.117,2.117,0,0,0-2.117,2.117v6.272a4.973,4.973,0,0,0,4.968,4.968h59.87a4.973,4.973,0,0,0,4.968-4.968v-6.272a2.117,2.117,0,0,0-2.117-2.117ZM97.075,15.109H88.5a.735.735,0,0,1-.734-.734V5.8Zm-31.5,124.422a.735.735,0,0,1-.734.734H4.968a.735.735,0,0,1-.734-.734v-4.156H65.571ZM72.25,82.106a2.445,2.445,0,1,1,2.445-2.445A2.448,2.448,0,0,1,72.25,82.106Zm68.016,57.425a.735.735,0,0,1-.734.734H79.662a.735.735,0,0,1-.734-.734v-4.156h61.338Z" transform="translate(0 0.001)" fill="#526271"/><path d="M181.926,36.558H196.75a2.117,2.117,0,1,0,0-4.233H181.926a2.117,2.117,0,1,0,0,4.233Z" transform="translate(-129.062 -23.202)" fill="#526271"/><path d="M181.926,68.883h8.553a2.117,2.117,0,1,0,0-4.233h-8.553a2.117,2.117,0,1,0,0,4.233Z" transform="translate(-129.062 -46.404)" fill="#526271"/><path d="M267.1,96.976H246.577a2.117,2.117,0,1,0,0,4.233H267.1a2.117,2.117,0,0,0,0-4.233Z" transform="translate(-175.467 -69.607)" fill="#526271"/><path d="M181.926,101.209h9.123a2.117,2.117,0,1,0,0-4.233h-9.123a2.117,2.117,0,1,0,0,4.233Z" transform="translate(-129.062 -69.607)" fill="#526271"/><path d="M296.106,129.3h-9.123a2.117,2.117,0,0,0,0,4.233h9.123a2.117,2.117,0,0,0,0-4.233Z" transform="translate(-204.47 -92.809)" fill="#526271"/><path d="M204.57,131.418a2.117,2.117,0,0,0-2.117-2.117H181.927a2.117,2.117,0,0,0,0,4.233h20.527A2.117,2.117,0,0,0,204.57,131.418Z" transform="translate(-129.063 -92.809)" fill="#526271"/><path d="M272.9,161.626H254.658a2.117,2.117,0,1,0,0,4.233H272.9a2.117,2.117,0,1,0,0-4.233Z" transform="translate(-181.267 -116.011)" fill="#526271"/><path d="M195.446,163.743a2.117,2.117,0,0,0-2.117-2.117h-11.4a2.117,2.117,0,1,0,0,4.233h11.4A2.117,2.117,0,0,0,195.446,163.743Z" transform="translate(-129.062 -116.011)" fill="#526271"/><path d="M246.576,198.184H267.1a2.117,2.117,0,0,0,0-4.233H246.576a2.117,2.117,0,0,0,0,4.233Z" transform="translate(-175.466 -139.213)" fill="#526271"/><path d="M181.926,193.951a2.117,2.117,0,1,0,0,4.233h9.123a2.117,2.117,0,0,0,0-4.233Z" transform="translate(-129.062 -139.213)" fill="#526271"/></g></g></g></svg>