<svg xmlns="http://www.w3.org/2000/svg" width="134" height="142.032" viewBox="0 0 134 142.032"><g transform="translate(-14.478)"><g transform="translate(52.313 25.144)"><g transform="translate(0 19.905)"><path d="M168.616,172.774h-6.1a.832.832,0,0,1-.832-.832V156.018a.832.832,0,0,1,.832-.832h5.271a.832.832,0,0,1,.832.832Z" transform="translate(-161.681 -155.186)" fill="#2595d3"/></g><g transform="translate(14.749 12.901)"><path d="M221.784,154.529h-6.935v-23.76a.832.832,0,0,1,.832-.832h5.271a.832.832,0,0,1,.832.832Z" transform="translate(-214.849 -129.936)" fill="#2595d3"/></g><g transform="translate(29.498 6.047)"><path d="M274.951,136.676h-6.935V106.062a.832.832,0,0,1,.832-.832h5.271a.832.832,0,0,1,.832.832Z" transform="translate(-268.016 -105.23)" fill="#2595d3"/></g><g transform="translate(44.247)"><path d="M328.118,120.924h-6.935V84.263a.832.832,0,0,1,.832-.832h5.271a.832.832,0,0,1,.832.832Z" transform="translate(-321.183 -83.431)" fill="#2595d3"/></g><g transform="translate(58.996 7.257)"><path d="M381.286,139.827h-6.935v-29.4a.832.832,0,0,1,.832-.832h5.271a.832.832,0,0,1,.832.832Z" transform="translate(-374.351 -109.59)" fill="#2595d3"/></g><g transform="translate(73.745 15.635)"><path d="M433.621,161.652h-6.1V140.626a.832.832,0,0,1,.832-.832h5.271a.832.832,0,0,1,.832.832V160.82A.832.832,0,0,1,433.621,161.652Z" transform="translate(-427.518 -139.794)" fill="#2595d3"/></g></g><g transform="translate(100.189 78.622)"><g transform="translate(3.381)"><path d="M356.818,283.821H371.47c0-.093.007-.184.007-.277a14.533,14.533,0,0,0-25.021-10.072Z" transform="translate(-346.456 -269)" fill="#2595d3"/></g><g transform="translate(0 2.169)"><path d="M336.782,288.387h15.685c0,8.98-7.081,16.37-15.685,16.37s-15.685-7.39-15.685-16.37a16.745,16.745,0,0,1,4.587-11.568Z" transform="translate(-321.097 -276.819)" fill="#2595d3"/></g></g><g transform="translate(80.715 117.93)"><path d="M398.329,425.118H385.523v8.691h12.806a4.346,4.346,0,0,0,0-8.691Z" transform="translate(-353.769 -425.118)" fill="#2595d3"/><g transform="translate(0 0)"><path d="M257.01,425.118a4.391,4.391,0,0,0,0,8.691H285v-8.691Z" transform="translate(-253.249 -425.118)" fill="#2595d3"/></g></g><g transform="translate(14.478)"><path d="M146.4,73.973a2.08,2.08,0,0,0,2.081-2.081V3.468A3.471,3.471,0,0,0,145.01,0H46.3a3.471,3.471,0,0,0-3.468,3.468V66.34H35.335a4.855,4.855,0,0,0-4.2,7.282l4.141,7.172a4.858,4.858,0,0,0-4.2,4.8v4.026a4.821,4.821,0,0,0,.774,2.619A33.639,33.639,0,0,0,23,98.47a27.609,27.609,0,0,0-8.526,19.671c0,8.766,4.4,17.037,12.069,22.693a6.237,6.237,0,0,0,3.679,1.2H145.01a3.471,3.471,0,0,0,3.468-3.468V81.6a2.081,2.081,0,1,0-4.161,0v56.269H64.952a28.049,28.049,0,0,0,8.18-15.174,2.081,2.081,0,0,0-4.1-.722,24.843,24.843,0,0,1-10.577,15.9H30.226a2.046,2.046,0,0,1-1.209-.386c-6.6-4.863-10.378-11.914-10.378-19.344a23.481,23.481,0,0,1,7.288-16.709A30.26,30.26,0,0,1,37.287,94.48H50.745c9.135,3.169,16.045,10.1,18.042,18.622a2.081,2.081,0,0,0,4.052-.949c-2.014-8.594-8.245-15.778-16.675-19.91a4.821,4.821,0,0,0,.773-2.617V85.6a4.858,4.858,0,0,0-4.2-4.8l4.141-7.172a4.855,4.855,0,0,0-4.2-7.282H46.99V4.161h97.327V71.892a2.08,2.08,0,0,0,2.08,2.081ZM52.775,85.6v4.026a.694.694,0,0,1-.694.694H35.928a.694.694,0,0,1-.694-.694V85.6a.694.694,0,0,1,.694-.694H52.082A.694.694,0,0,1,52.775,85.6Zm-.1-15.1a.694.694,0,0,1,.6,1.04l-5.313,9.2H40.047l-5.313-9.2a.694.694,0,0,1,.6-1.04Z" transform="translate(-14.478)" fill="#526271"/><path d="M98.04,391.235a2.08,2.08,0,0,0,2.081-2.081v-2.35h.3a6.4,6.4,0,1,0,0-12.795H95.654a2.236,2.236,0,0,1,0-4.472h8.406a2.081,2.081,0,1,0,0-4.161h-3.94v-2.35a2.081,2.081,0,0,0-4.161,0v2.35h-.3a6.4,6.4,0,1,0,0,12.795h4.771a2.236,2.236,0,0,1,0,4.472H92.019a2.081,2.081,0,0,0,0,4.161h3.94v2.35A2.08,2.08,0,0,0,98.04,391.235Z" transform="translate(-68.513 -260.818)" fill="#526271"/><path d="M239.024,114.673V94.479a2.916,2.916,0,0,0-2.913-2.913H230.84a2.916,2.916,0,0,0-2.913,2.913v18.945h-3.653V86.1a2.916,2.916,0,0,0-2.913-2.913h-5.271a2.916,2.916,0,0,0-2.913,2.913v27.324h-3.653V78.844a2.916,2.916,0,0,0-2.913-2.913h-5.271a2.916,2.916,0,0,0-2.913,2.913v34.581h-3.653v-11.4a2.081,2.081,0,1,0-4.161,0v11.4h-2.774V86.139h2.774v6.178a2.081,2.081,0,1,0,4.161,0V84.891a2.916,2.916,0,0,0-2.913-2.913h-5.271a2.916,2.916,0,0,0-2.913,2.913v28.533h-3.653V91.745a2.916,2.916,0,0,0-2.913-2.913h-5.271a2.916,2.916,0,0,0-2.913,2.913v21.68h-3.653V98.749a2.916,2.916,0,0,0-2.913-2.913H157.1a2.916,2.916,0,0,0-2.913,2.913v15.923a2.916,2.916,0,0,0,2.913,2.913h79.015a2.915,2.915,0,0,0,2.912-2.912Zm-77.906-1.248h-2.774V100h2.774Zm14.749,0h-2.774V92.993h2.774Zm29.5,0h-2.774V80.092h2.774Zm14.749,0H217.34V87.349h2.774Zm14.749,0h-2.774v-17.7h2.774Z" transform="translate(-115.428 -54.867)" fill="#526271"/><path d="M350.7,276.044h-1.022A16.606,16.606,0,0,0,323,265.005l-.728-.728a2.081,2.081,0,0,0-1.47-.608h0a2.081,2.081,0,0,0-1.471.61,19.592,19.592,0,1,0,33.455,13.845A2.08,2.08,0,0,0,350.7,276.044Zm-17.512-10.383a12.481,12.481,0,0,1,12.286,10.383H334.049l-8.08-8.069A12.391,12.391,0,0,1,333.189,265.661Zm0,27.895A15.428,15.428,0,0,1,320.9,268.794l10.817,10.8a2.081,2.081,0,0,0,1.47.608H348.48A15.455,15.455,0,0,1,333.189,293.556Z" transform="translate(-230.619 -188.958)" fill="#526271"/><path d="M205.233,274.947h23.3a2.081,2.081,0,0,0,0-4.161h-23.3a2.081,2.081,0,0,0,0,4.161Z" transform="translate(-150.813 -195.668)" fill="#526271"/><path d="M205.233,303.708h23.3a2.081,2.081,0,0,0,0-4.161h-23.3a2.081,2.081,0,0,0,0,4.161Z" transform="translate(-150.813 -216.451)" fill="#526271"/><path d="M216.738,332.47h20.106a2.081,2.081,0,0,0,0-4.161H216.738a2.081,2.081,0,1,0,0,4.161Z" transform="translate(-159.126 -237.234)" fill="#526271"/><path d="M239.748,361.231h13.723a2.081,2.081,0,1,0,0-4.161H239.748a2.081,2.081,0,0,0,0,4.161Z" transform="translate(-175.753 -258.017)" fill="#526271"/><path d="M180.041,40.975a2.081,2.081,0,1,0,0-4.161H156.679a2.081,2.081,0,1,0,0,4.161Z" transform="translate(-115.728 -26.602)" fill="#526271"/><path d="M400.429,40.975H413.26a2.081,2.081,0,0,0,0-4.161H400.429a2.081,2.081,0,0,0,0,4.161Z" transform="translate(-291.86 -26.602)" fill="#526271"/><path d="M400.429,67.436H413.26a2.081,2.081,0,0,0,0-4.161H400.429a2.081,2.081,0,0,0,0,4.161Z" transform="translate(-291.86 -45.722)" fill="#526271"/><path d="M252.175,430.47h45.154a6.426,6.426,0,1,0,0-12.852H252.175a6.426,6.426,0,0,0,0,12.852Zm34.429-8.691h10.726a2.265,2.265,0,1,1,0,4.53H286.6Zm-34.429,0h30.268v4.53H252.175a2.265,2.265,0,1,1,0-4.53Z" transform="translate(-181.593 -301.768)" fill="#526271"/></g></g></svg>