<svg xmlns="http://www.w3.org/2000/svg" width="144.5" height="144.5" viewBox="0 0 144.5 144.5"><g transform="translate(15.231 18.937)"><g transform="translate(-4 2)"><path d="M110.986,67.1a57.059,57.059,0,0,0-54.5,73.84h9.652a47.878,47.878,0,0,1,78.7-50.672L151.3,83.8A56.84,56.84,0,0,0,110.986,67.1Z" transform="translate(-53.967 -67.1)" fill="#2595d3"/></g><g transform="translate(86.871 18.7)"><path d="M386.937,183.412h9.652a57.1,57.1,0,0,0-14.177-57.139l-6.467,6.467a47.839,47.839,0,0,1,10.992,50.672Z" transform="translate(-375.945 -126.273)" fill="#2595d3"/></g></g><g transform="translate(65.408 51.438)"><path d="M238.6,182.258s6.842,16.535,6.842,24.518a6.842,6.842,0,0,1-13.685,0c0-7.982,6.842-24.518,6.842-24.518Z" transform="translate(-231.756 -182.258)" fill="#2595d3"/></g><path d="M133.832,0H10.668A10.68,10.68,0,0,0,0,10.668v19.1a2.117,2.117,0,0,0,4.233,0v-19.1a6.442,6.442,0,0,1,6.435-6.435H133.832a6.442,6.442,0,0,1,6.435,6.435V68.954a2.117,2.117,0,0,0,4.233,0V10.668A10.68,10.68,0,0,0,133.832,0Z" transform="translate(0)" fill="#526271"/><path d="M142.383,119.494a2.117,2.117,0,0,0-2.117,2.117v11.829H129.538a59.136,59.136,0,1,0-114.577,0H4.233V82.426a2.117,2.117,0,0,0-4.233,0V144.11a10.68,10.68,0,0,0,10.668,10.668H55.562L49.89,173.922H37.468a4.4,4.4,0,0,0-4.4,4.4v4.561a4.4,4.4,0,0,0,4.4,4.4H48.142a2.117,2.117,0,0,0,0-4.233H37.468a.164.164,0,0,1-.164-.164v-4.561a.165.165,0,0,1,.164-.167h69.563a.165.165,0,0,1,.164.167v4.561a.164.164,0,0,1-.164.164H58.02a2.117,2.117,0,0,0,0,4.233h49.011a4.4,4.4,0,0,0,4.4-4.4v-4.561a4.4,4.4,0,0,0-4.4-4.4H94.611l-5.672-19.143h44.893A10.68,10.68,0,0,0,144.5,144.11v-22.5A2.117,2.117,0,0,0,142.383,119.494ZM28.9,133.439a45.779,45.779,0,1,1,86.7,0Zm96.262,0h-5.105a49.958,49.958,0,0,0-10.994-48.522l3.458-3.458a54.915,54.915,0,0,1,12.641,51.98Zm-107.812-14.7a54.871,54.871,0,0,1,92.177-40.269l-3.458,3.458A50,50,0,0,0,24.445,133.44H19.34a55,55,0,0,1-1.992-14.7Zm72.847,55.186H54.305l5.672-19.143H84.523Zm43.637-23.377H10.668a6.442,6.442,0,0,1-6.435-6.435v-6.437H140.267v6.437A6.442,6.442,0,0,1,133.832,150.545Z" transform="translate(0 -42.779)" fill="#526271"/><path d="M233.215,174.758a2.117,2.117,0,0,0-1.956,1.307c-.286.691-7,17.02-7,25.328a8.959,8.959,0,1,0,17.918,0c0-8.308-6.717-24.636-7-25.328A2.117,2.117,0,0,0,233.215,174.758Zm0,31.36a4.731,4.731,0,0,1-4.726-4.726c0-4.82,2.754-13.224,4.726-18.623.445,1.219.929,2.591,1.413,4.04,2.167,6.5,3.312,11.544,3.312,14.583a4.731,4.731,0,0,1-4.726,4.726Z" transform="translate(-160.965 -125.437)" fill="#526271"/><path d="M250.617,131.334a2.117,2.117,0,0,0,2.117-2.117v-2.851a2.117,2.117,0,0,0-4.233,0v2.851A2.117,2.117,0,0,0,250.617,131.334Z" transform="translate(-178.367 -89.183)" fill="#526271"/><path d="M183.758,143.714a2.117,2.117,0,0,0-3.666,2.117l1.426,2.469a2.117,2.117,0,1,0,3.666-2.117Z" transform="translate(-129.061 -102.394)" fill="#526271"/><path d="M135.166,194.649l-2.469-1.426a2.117,2.117,0,1,0-2.117,3.666l2.469,1.426a2.117,2.117,0,0,0,2.117-3.666Z" transform="translate(-92.967 -138.487)" fill="#526271"/><path d="M116.086,261.632h-2.851a2.117,2.117,0,1,0,0,4.233h2.851a2.117,2.117,0,0,0,0-4.233Z" transform="translate(-79.758 -187.792)" fill="#526271"/><path d="M316.74,142.939a2.116,2.116,0,0,0-2.891.775l-1.426,2.469a2.117,2.117,0,1,0,3.666,2.117l1.426-2.469a2.116,2.116,0,0,0-.775-2.891Z" transform="translate(-224.045 -102.394)" fill="#526271"/><path d="M365.147,194a2.117,2.117,0,0,0-2.891-.775l-2.469,1.426a2.117,2.117,0,1,0,2.117,3.666l2.469-1.426a2.117,2.117,0,0,0,.775-2.891Z" transform="translate(-257.485 -138.487)" fill="#526271"/><path d="M380.748,261.632H377.9a2.117,2.117,0,0,0,0,4.233h2.851a2.117,2.117,0,0,0,0-4.233Z" transform="translate(-269.725 -187.792)" fill="#526271"/></svg>