<svg xmlns="http://www.w3.org/2000/svg" width="144.5" height="157.443" viewBox="0 0 144.5 157.443"><g transform="translate(-21.046)"><path d="M243.909,31.226h8.033a.922.922,0,0,1,.923.923v30.6l4.476-4.476a2.424,2.424,0,0,1,3.187-.217,52.209,52.209,0,0,1,6.637,6.086v-32a.922.922,0,0,1,.923-.923h7.744a.923.923,0,0,0,.748-1.463L260.755,7.882a.922.922,0,0,0-1.49-.006l-16.1,21.882a.922.922,0,0,0,.743,1.469Z" transform="translate(-158.747 -2.194)" fill="#2595d3"/><path d="M361.958,125.668h8.033a.922.922,0,0,1,.923.923v37.2a30.876,30.876,0,0,1,14.3,5.288V126.591a.922.922,0,0,1,.922-.923h7.744a.923.923,0,0,0,.748-1.463L378.8,102.324a.922.922,0,0,0-1.491-.006l-16.1,21.882A.923.923,0,0,0,361.958,125.668Z" transform="translate(-239.439 -68.313)" fill="#2595d3"/><g transform="translate(101.123 93.021)"><g transform="translate(0)"><circle cx="31.058" cy="31.058" r="31.058" transform="translate(-5 2)" fill="#2595d3"/></g><path d="M290.232,333.558A31.063,31.063,0,0,1,316.9,302.81a31.058,31.058,0,1,0,0,61.5A31.063,31.063,0,0,1,290.232,333.558Z" transform="translate(-281.454 -302.5)" fill="#2595d3"/><g transform="translate(7.688 7.688)"><circle cx="23.371" cy="23.371" r="23.371" fill="#fff"/></g></g><g transform="translate(21.046 0)"><path d="M159.419,239.8a2.306,2.306,0,0,0,1.9-2.649,28.427,28.427,0,1,0-.51,11.708,2.306,2.306,0,1,0-4.468-1.146,23.859,23.859,0,1,1,.427-9.817,2.305,2.305,0,0,0,2.649,1.9Z" transform="translate(-79.054 -147.727)" fill="#526271"/><path d="M156.384,246.723A18.175,18.175,0,1,0,174.559,264.9,18.2,18.2,0,0,0,156.384,246.723Zm0,31.737A13.562,13.562,0,1,1,169.946,264.9,13.578,13.578,0,0,1,156.384,278.46Z" transform="translate(-102.181 -170.854)" fill="#526271"/><path d="M177.089,276.623a8.981,8.981,0,1,0,8.981,8.981A8.991,8.991,0,0,0,177.089,276.623Zm0,13.349a4.368,4.368,0,1,1,4.368-4.368A4.373,4.373,0,0,1,177.089,289.972Z" transform="translate(-122.885 -191.56)" fill="#526271"/><path d="M152.08,97.314V82.719a2.306,2.306,0,1,0-4.613,0V94.428a33.1,33.1,0,0,0-9.687-3.241V56a3.232,3.232,0,0,0-3.229-3.229h-5.3l13.353-18.149,13.125,18.149H150.7A3.232,3.232,0,0,0,147.468,56v15.96a2.306,2.306,0,1,0,4.613,0V57.381h6.361a3.229,3.229,0,0,0,2.617-5.121L145.234,30.379a3.239,3.239,0,0,0-2.6-1.337h-.013a3.239,3.239,0,0,0-2.6,1.315l-16.1,21.882a3.229,3.229,0,0,0,2.6,5.142h6.649V90.73c-.328-.01-.656-.016-.986-.016-.954,0-1.9.042-2.834.121-.074-1.3-.188-2.593-.356-3.875a4.739,4.739,0,0,0-4.693-4.106H112.9a.121.121,0,0,1-.113-.094,39.055,39.055,0,0,0-3.014-7.281.123.123,0,0,1,.012-.148l8.058-8.058a4.741,4.741,0,0,0,.415-6.222q-1.184-1.541-2.477-2.99V28.339h6.36a3.229,3.229,0,0,0,2.617-5.121L108.933,1.337A3.24,3.24,0,0,0,106.33,0h-.014a3.24,3.24,0,0,0-2.6,1.315L87.617,23.2a3.229,3.229,0,0,0,2.6,5.142h6.649V56.6L93.96,59.51a.124.124,0,0,1-.148.012,39.035,39.035,0,0,0-7.281-3.014.121.121,0,0,1-.094-.113v-11.4A4.74,4.74,0,0,0,82.332,40.3a54.86,54.86,0,0,0-14.166,0,4.739,4.739,0,0,0-4.106,4.693V56.4a.121.121,0,0,1-.094.113,39.054,39.054,0,0,0-7.281,3.014.123.123,0,0,1-.148-.012L48.48,51.452a4.74,4.74,0,0,0-6.222-.415A54.52,54.52,0,0,0,32.242,61.052a4.741,4.741,0,0,0,.415,6.222l8.058,8.058a.123.123,0,0,1,.012.148,39.044,39.044,0,0,0-3.014,7.281.121.121,0,0,1-.113.094H26.2a4.739,4.739,0,0,0-4.693,4.106,54.615,54.615,0,0,0,0,14.166,4.739,4.739,0,0,0,4.693,4.106H37.6a.121.121,0,0,1,.113.094,39.054,39.054,0,0,0,3.014,7.281.122.122,0,0,1-.012.148l-8.058,8.058a4.74,4.74,0,0,0-.415,6.222,54.52,54.52,0,0,0,10.015,10.015,4.74,4.74,0,0,0,6.222-.415l8.058-8.058a.123.123,0,0,1,.148-.012,39.038,39.038,0,0,0,7.281,3.014.121.121,0,0,1,.094.113v11.4a4.739,4.739,0,0,0,4.106,4.693,54.615,54.615,0,0,0,14.166,0,4.74,4.74,0,0,0,4.105-4.693v-11.4a.121.121,0,0,1,.094-.113,39.032,39.032,0,0,0,7.281-3.014.123.123,0,0,1,.148.012l6.842,6.842A33.362,33.362,0,1,0,152.08,97.314ZM92.954,23.727,106.307,5.577l13.125,18.149H114.4a3.232,3.232,0,0,0-3.229,3.229v26.5q-1.421-1.258-2.926-2.419a4.74,4.74,0,0,0-6.222.415l-.539.539V26.955a3.232,3.232,0,0,0-3.229-3.229Zm6,103.318-1.728-1.728a4.708,4.708,0,0,0-5.6-.812,34.439,34.439,0,0,1-6.419,2.657,4.706,4.706,0,0,0-3.382,4.531v11.4a.118.118,0,0,1-.091.12,50.24,50.24,0,0,1-12.968,0,.118.118,0,0,1-.092-.12v-11.4a4.706,4.706,0,0,0-3.382-4.531,34.415,34.415,0,0,1-6.419-2.657,4.768,4.768,0,0,0-2.264-.576,4.7,4.7,0,0,0-3.332,1.388l-8.058,8.058a.12.12,0,0,1-.151.019,49.9,49.9,0,0,1-9.168-9.168.119.119,0,0,1,.019-.151l8.058-8.058a4.708,4.708,0,0,0,.812-5.6A34.423,34.423,0,0,1,42.131,104,4.706,4.706,0,0,0,37.6,100.62H26.2a.118.118,0,0,1-.12-.092,49.965,49.965,0,0,1,0-12.968.118.118,0,0,1,.12-.092H37.6a4.706,4.706,0,0,0,4.531-3.382,34.422,34.422,0,0,1,2.657-6.419,4.708,4.708,0,0,0-.812-5.6l-8.058-8.058a.119.119,0,0,1-.019-.151A49.89,49.89,0,0,1,45.068,54.7a.119.119,0,0,1,.151.019l8.058,8.058a4.708,4.708,0,0,0,5.6.812,34.428,34.428,0,0,1,6.419-2.657A4.706,4.706,0,0,0,68.674,56.4V45a.118.118,0,0,1,.092-.12,50.212,50.212,0,0,1,12.968,0,.118.118,0,0,1,.092.12V56.4a4.706,4.706,0,0,0,3.382,4.531,34.446,34.446,0,0,1,6.419,2.657,4.707,4.707,0,0,0,5.6-.812l8.058-8.058a.119.119,0,0,1,.151-.019,49.89,49.89,0,0,1,9.168,9.168.119.119,0,0,1-.019.151l-8.058,8.058a4.708,4.708,0,0,0-.812,5.6,34.421,34.421,0,0,1,2.657,6.419,4.706,4.706,0,0,0,4.531,3.382h11.4a.118.118,0,0,1,.12.092c.173,1.318.286,2.651.352,3.986A33.422,33.422,0,0,0,98.818,124.08c0,1,.046,1.988.133,2.965Zm33.231,25.786a28.752,28.752,0,1,1,28.752-28.752A28.784,28.784,0,0,1,132.181,152.831Z" transform="translate(-21.046 0)" fill="#526271"/><path d="M345.4,342.211a2.306,2.306,0,0,0,4.55-.756,25.675,25.675,0,1,0-25.324,29.9A25.441,25.441,0,0,0,340,366.237a25.936,25.936,0,0,0,9.161-12.957,2.306,2.306,0,0,0-4.405-1.368,21.291,21.291,0,0,1-7.522,10.634,20.864,20.864,0,0,1-12.6,4.2,21.054,21.054,0,1,1,20.774-24.53Z" transform="translate(-213.495 -221.598)" fill="#526271"/><path d="M377.26,342.5a2.306,2.306,0,0,0-2.306,2.306v16.451a2.306,2.306,0,0,0,3.562,1.934L389,356.388a2.306,2.306,0,0,0-2.511-3.869l-6.922,4.493v-12.2a2.306,2.306,0,0,0-2.306-2.306Z" transform="translate(-266.125 -237.18)" fill="#526271"/></g></g></svg>