<svg xmlns="http://www.w3.org/2000/svg" width="159.248" height="149.917" viewBox="0 0 159.248 149.917"><g transform="translate(-819 -1879.572)"><path d="M-5376.865-18497.426h23.406l8.531,11.449h57.733v47.424h-88.619v-55.842Z" transform="translate(6228 20386)" fill="#2595d3"/><circle cx="4.5" cy="4.5" r="4.5" transform="translate(868 1906)" fill="#fff"/><circle cx="4.5" cy="4.5" r="4.5" transform="translate(867 1928)" fill="#fff"/><circle cx="4.5" cy="4.5" r="4.5" transform="translate(922 1928)" fill="#fff"/><circle cx="4.5" cy="4.5" r="4.5" transform="translate(920 1906)" fill="#fff"/><g transform="translate(819 1864.572)"><path d="M183.852,101.734v4.115a2.333,2.333,0,0,0,4.665,0v-4.115a7.008,7.008,0,0,0-7-7h-33.9V87.721H188.69a6.584,6.584,0,0,0,6.576-6.577V34.169a6.584,6.584,0,0,0-4.094-6.086v-3.3a6.878,6.878,0,0,0-6.871-6.871H162.86a2.333,2.333,0,0,0,0,4.665H184.3a2.208,2.208,0,0,1,2.205,2.205v2.81H135.5a1.9,1.9,0,0,1-1.625-.9h0l-2.545-4.111h22.206a2.333,2.333,0,1,0,0-4.665h-25.1A6.53,6.53,0,0,0,122.972,15H101.88A6.584,6.584,0,0,0,95.3,21.576V81.145a6.584,6.584,0,0,0,6.576,6.577h41.072v7.013h-33.9a7.008,7.008,0,0,0-7,7v4.115a2.333,2.333,0,1,0,4.665,0v-4.116a2.337,2.337,0,0,1,2.335-2.335h72.464a2.338,2.338,0,0,1,2.335,2.335ZM99.97,81.144V69.99H112.1a6.544,6.544,0,1,0,0-4.665H99.97v-7.83h11.9a2.333,2.333,0,0,0,1.649-.683l4.3-4.3a6.572,6.572,0,1,0-3.739-2.859L110.9,52.829H99.97V21.576a1.913,1.913,0,0,1,1.911-1.911h21.091a1.9,1.9,0,0,1,1.624.9l5.309,8.574h0a6.535,6.535,0,0,0,5.591,3.114c72.955.007,47.978.007,53.343.007a1.912,1.912,0,0,1,1.761,1.9V52.828H179.666l-3.178-3.178a6.554,6.554,0,1,0-3.739,2.859l4.3,4.3a2.332,2.332,0,0,0,1.649.683h11.9v7.831H178.468a6.544,6.544,0,1,0,0,4.665H190.6V81.144a1.913,1.913,0,0,1-1.911,1.911H101.88a1.913,1.913,0,0,1-1.911-1.911Zm16.362-13.487a1.878,1.878,0,1,1,1.878,1.878A1.88,1.88,0,0,1,116.331,67.657Zm1.442-21.426a1.878,1.878,0,1,1,1.878,1.878A1.88,1.88,0,0,1,117.773,46.231Zm53.146,1.878a1.878,1.878,0,1,1,1.878-1.878A1.88,1.88,0,0,1,170.919,48.109Zm3.32,19.548a1.878,1.878,0,1,1-1.878-1.878A1.88,1.88,0,0,1,174.239,67.657Z" transform="translate(-65.662 0)" fill="#526271"/><path d="M344.37,349.939a2.332,2.332,0,0,0,2.333-2.333V336.068A5.45,5.45,0,0,0,343.7,331.2v-2.028a5.67,5.67,0,0,0-5.664-5.664h-40.7a5.408,5.408,0,0,0-4.324-2.138H277.529a5.454,5.454,0,0,0-5.448,5.448v43.729A5.454,5.454,0,0,0,277.529,376h63.726a5.454,5.454,0,0,0,5.448-5.448V356.934a2.333,2.333,0,1,0-4.665,0v13.618a.784.784,0,0,1-.783.783H277.529a.784.784,0,0,1-.783-.783V326.823a.784.784,0,0,1,.783-.783h15.483a.788.788,0,0,1,.665.37l3.9,6.294a5.414,5.414,0,0,0,4.632,2.58h39a.728.728,0,0,1,.833.783v11.539A2.333,2.333,0,0,0,344.37,349.939Zm-42.829-19.69-1.282-2.071h37.775a1,1,0,0,1,1,1v1.443H302.206a.778.778,0,0,1-.665-.371Z" transform="translate(-187.456 -211.083)" fill="#526271"/><path d="M71.617,331.206v-2.028a5.67,5.67,0,0,0-5.664-5.664h-40.7a5.407,5.407,0,0,0-4.324-2.138H5.448A5.454,5.454,0,0,0,0,326.824v43.729A5.454,5.454,0,0,0,5.448,376h9.339a2.333,2.333,0,0,0,0-4.665H5.448a.784.784,0,0,1-.783-.783V326.824a.784.784,0,0,1,.783-.783H20.931a.788.788,0,0,1,.665.37l3.9,6.294a5.414,5.414,0,0,0,4.632,2.58h39a.734.734,0,0,1,.833.783v34.484a.784.784,0,0,1-.783.783H24.114a2.333,2.333,0,1,0,0,4.665h45.06a5.454,5.454,0,0,0,5.448-5.448V336.068a5.449,5.449,0,0,0-3.005-4.863ZM29.46,330.25l-1.282-2.071H65.953a1,1,0,0,1,1,1v1.443H30.125a.779.779,0,0,1-.666-.371Z" transform="translate(0 -211.084)" fill="#526271"/></g></g></svg>