<svg xmlns="http://www.w3.org/2000/svg" width="149.967" height="150" viewBox="0 0 149.967 150">
  <g id="Group_4378" data-name="Group 4378" transform="translate(-819 -2051)">
    <g id="Group_4377" data-name="Group 4377" transform="translate(838 2063)">
      <circle id="Ellipse_399" data-name="Ellipse 399" cx="15.5" cy="15.5" r="15.5" transform="translate(0 28)" fill="#2595d3"/>
      <ellipse id="Ellipse_400" data-name="Ellipse 400" cx="24.5" cy="25" rx="24.5" ry="25" transform="translate(21 9)" fill="#2595d3"/>
      <circle id="Ellipse_401" data-name="Ellipse 401" cx="26.5" cy="26.5" r="26.5" transform="translate(42)" fill="#2595d3"/>
      <circle id="Ellipse_402" data-name="Ellipse 402" cx="23" cy="23" r="23" transform="translate(62 13)" fill="#2595d3"/>
      <rect id="Rectangle_3952" data-name="Rectangle 3952" width="70" height="16" transform="translate(16 43)" fill="#2595d3"/>
    </g>
    <g id="_035-cloud_computing" data-name="035-cloud computing" transform="translate(819 2051)">
      <path id="Path_4749" data-name="Path 4749" d="M146.446,104.364H130.778v-6.6a8.856,8.856,0,0,0-8.846-8.846H77.237V81.137H99.266A8.041,8.041,0,0,0,107.3,73.1V72.56h2a25.278,25.278,0,0,0,18.04-7.544,24.713,24.713,0,0,0,7.294-17.67,25.095,25.095,0,0,0-19.4-24.25.073.073,0,0,1-.051-.052,29.038,29.038,0,0,0-6.181-12.667A2.2,2.2,0,0,0,105.63,13.2a24.634,24.634,0,0,1,5.245,10.742,4.476,4.476,0,0,0,3.361,3.431,20.784,20.784,0,0,1,11.394,7.142,20.429,20.429,0,0,1-1.413,27.4,20.914,20.914,0,0,1-14.923,6.247H37.071a17.215,17.215,0,0,1-12.3-5.158,16.693,16.693,0,0,1-4.922-11.963A17.04,17.04,0,0,1,35.623,34.276a4.475,4.475,0,0,0,4.051-3.467,19.453,19.453,0,0,1,6.744-10.647A19.112,19.112,0,0,1,58.5,15.913a19.464,19.464,0,0,1,3.857.385,4.479,4.479,0,0,0,4.511-1.758,24.587,24.587,0,0,1,32.615-6.6,2.2,2.2,0,1,0,2.276-3.759,28.981,28.981,0,0,0-38.449,7.783.083.083,0,0,1-.08.03A23.769,23.769,0,0,0,35.4,29.8c-.012.049-.046.09-.079.091A21.456,21.456,0,0,0,15.452,51.005a21.058,21.058,0,0,0,6.2,15.1A21.578,21.578,0,0,0,37.071,72.56h5.712V73.1a8.041,8.041,0,0,0,8.032,8.032H58.35a2.2,2.2,0,1,0,0-4.394H50.814A3.641,3.641,0,0,1,47.177,73.1V72.56H102.9V73.1a3.641,3.641,0,0,1-3.637,3.637H67.135a2.2,2.2,0,0,0,0,4.394h5.707v7.785H28.149A8.856,8.856,0,0,0,19.3,97.768v6.6H3.634a3.582,3.582,0,0,0-3.577,3.577v25.5a3.587,3.587,0,0,0,1.474,2.894L19.4,149.315a3.569,3.569,0,0,0,4.205,0l17.865-12.98a3.586,3.586,0,0,0,1.476-2.895v-25.5a3.582,3.582,0,0,0-3.577-3.577H23.7v-6.6a4.456,4.456,0,0,1,4.452-4.452H72.843v11.048H57.175a3.582,3.582,0,0,0-3.577,3.577v25.5a3.587,3.587,0,0,0,1.474,2.894l17.866,12.981a3.569,3.569,0,0,0,4.205,0l17.865-12.98a3.586,3.586,0,0,0,1.476-2.895v-25.5a3.581,3.581,0,0,0-3.577-3.577H77.238V93.316h44.694a4.456,4.456,0,0,1,4.451,4.452v6.6H110.715a3.582,3.582,0,0,0-3.577,3.577V117.9a2.2,2.2,0,0,0,4.394,0v-9.141h34.1v24.266L128.581,145.41l-17.049-12.387v-6.339a2.2,2.2,0,0,0-4.394,0v6.756a3.587,3.587,0,0,0,1.474,2.894l17.866,12.981a3.569,3.569,0,0,0,4.205,0l17.866-12.98a3.587,3.587,0,0,0,1.475-2.894v-25.5A3.581,3.581,0,0,0,146.446,104.364Zm-107.9,28.66L21.5,145.411,4.451,133.024V108.758h34.1v24.265Zm53.54,0L75.04,145.411,57.992,133.024V108.758h34.1v24.265Z" transform="translate(-0.057 0)" fill="#526271"/>
    </g>
    <path id="Path_4750" data-name="Path 4750" d="M-5392.655-18216.73h14.408v10.777l-7.126,5.84-7.126-5.84Z" transform="translate(6225.537 20385.898)" fill="#2595d3"/>
    <path id="Path_4751" data-name="Path 4751" d="M-5392.655-18216.73h14.408v10.777l-7.126,5.84-7.126-5.84Z" transform="translate(6279.434 20385.898)" fill="#2595d3"/>
    <path id="Path_4752" data-name="Path 4752" d="M-5392.655-18216.73h14.408v10.777l-7.126,5.84-7.126-5.84Z" transform="translate(6333.33 20385.898)" fill="#2595d3"/>
  </g>
</svg>
