<svg xmlns="http://www.w3.org/2000/svg" width="159.336" height="150" viewBox="0 0 159.336 150">
  <g id="Group_4354" data-name="Group 4354" transform="translate(-819 -1879.572)">
    <g id="Group_4353" data-name="Group 4353" transform="translate(851.176 1888.574)">
      <path id="Path_4723" data-name="Path 4723" d="M-5376.865-18497.426h23.406l8.531,11.449h57.733v47.424h-88.619v-55.842Z" transform="translate(5376.865 18497.426)" fill="#2595d3"/>
      <circle id="Ellipse_391" data-name="Ellipse 391" cx="4.5" cy="4.5" r="4.5" transform="translate(16.865 17.426)" fill="#fff"/>
      <circle id="Ellipse_392" data-name="Ellipse 392" cx="4.5" cy="4.5" r="4.5" transform="translate(15.865 39.426)" fill="#fff"/>
      <circle id="Ellipse_393" data-name="Ellipse 393" cx="4.5" cy="4.5" r="4.5" transform="translate(70.865 39.426)" fill="#fff"/>
      <circle id="Ellipse_394" data-name="Ellipse 394" cx="4.5" cy="4.5" r="4.5" transform="translate(68.865 17.426)" fill="#fff"/>
    </g>
    <g id="_002-root_directory" data-name="002-root directory" transform="translate(819 1879.572)">
      <path id="Path_4720" data-name="Path 4720" d="M183.931,101.734v4.115a2.335,2.335,0,0,0,4.67,0v-4.115a7.011,7.011,0,0,0-7.006-7h-33.93V87.721h41.109a6.587,6.587,0,0,0,6.582-6.577V34.169a6.584,6.584,0,0,0-4.1-6.086v-3.3a6.881,6.881,0,0,0-6.877-6.871H162.92a2.333,2.333,0,1,0,0,4.665h21.461a2.209,2.209,0,0,1,2.207,2.205v2.81H135.532a1.9,1.9,0,0,1-1.627-.9h0l-2.548-4.111h22.226a2.333,2.333,0,1,0,0-4.665H128.457A6.537,6.537,0,0,0,123,15h-21.11A6.587,6.587,0,0,0,95.3,21.576V81.145a6.587,6.587,0,0,0,6.582,6.577h41.109v7.013H109.066a7.012,7.012,0,0,0-7.007,7v4.115a2.335,2.335,0,0,0,4.67,0v-4.116a2.338,2.338,0,0,1,2.337-2.335h72.528a2.339,2.339,0,0,1,2.337,2.335ZM99.974,81.144V69.99h12.145a6.544,6.544,0,1,0,0-4.665H99.974v-7.83h11.912a2.336,2.336,0,0,0,1.651-.683l4.305-4.3a6.572,6.572,0,1,0-3.742-2.859l-3.181,3.178H99.974V21.576a1.914,1.914,0,0,1,1.913-1.911H123a1.9,1.9,0,0,1,1.626.9l5.314,8.574h0a6.543,6.543,0,0,0,5.6,3.114c73.019.007,48.02.007,53.391.007a1.913,1.913,0,0,1,1.763,1.9V52.828H179.741L176.56,49.65a6.562,6.562,0,1,0-3.742,2.859l4.305,4.3a2.335,2.335,0,0,0,1.651.683h11.912v7.831H178.542a6.544,6.544,0,1,0,0,4.665h12.145V81.144a1.914,1.914,0,0,1-1.913,1.911H101.886a1.914,1.914,0,0,1-1.912-1.911ZM116.35,67.657a1.88,1.88,0,1,1,1.88,1.878A1.881,1.881,0,0,1,116.35,67.657Zm1.443-21.426a1.88,1.88,0,1,1,1.88,1.878A1.881,1.881,0,0,1,117.793,46.231Zm53.193,1.878a1.878,1.878,0,1,1,1.88-1.878A1.881,1.881,0,0,1,170.986,48.109Zm3.323,19.548a1.88,1.88,0,1,1-1.88-1.878A1.881,1.881,0,0,1,174.309,67.657Z" transform="translate(-65.662 -15)" fill="#526271"/>
      <path id="Path_4721" data-name="Path 4721" d="M344.37,349.939a2.332,2.332,0,0,0,2.333-2.333V336.068A5.45,5.45,0,0,0,343.7,331.2v-2.028a5.67,5.67,0,0,0-5.664-5.664h-40.7a5.408,5.408,0,0,0-4.324-2.138H277.529a5.454,5.454,0,0,0-5.448,5.448v43.729A5.454,5.454,0,0,0,277.529,376h63.726a5.454,5.454,0,0,0,5.448-5.448V356.934a2.333,2.333,0,1,0-4.665,0v13.618a.784.784,0,0,1-.783.783H277.529a.784.784,0,0,1-.783-.783V326.823a.784.784,0,0,1,.783-.783h15.483a.788.788,0,0,1,.665.37l3.9,6.294a5.414,5.414,0,0,0,4.632,2.58h39a.728.728,0,0,1,.833.783v11.539A2.333,2.333,0,0,0,344.37,349.939Zm-42.829-19.69-1.282-2.071h37.775a1,1,0,0,1,1,1v1.443H302.206a.778.778,0,0,1-.665-.371Z" transform="translate(-187.367 -226)" fill="#526271"/>
      <path id="Path_4722" data-name="Path 4722" d="M71.617,331.206v-2.028a5.67,5.67,0,0,0-5.664-5.664h-40.7a5.407,5.407,0,0,0-4.324-2.138H5.448A5.454,5.454,0,0,0,0,326.824v43.729A5.454,5.454,0,0,0,5.448,376h9.339a2.333,2.333,0,0,0,0-4.665H5.448a.784.784,0,0,1-.783-.783V326.824a.784.784,0,0,1,.783-.783H20.931a.788.788,0,0,1,.665.37l3.9,6.294a5.414,5.414,0,0,0,4.632,2.58h39a.734.734,0,0,1,.833.783v34.484a.784.784,0,0,1-.783.783H24.114a2.333,2.333,0,1,0,0,4.665h45.06a5.454,5.454,0,0,0,5.448-5.448V336.068a5.449,5.449,0,0,0-3.005-4.863ZM29.46,330.25l-1.282-2.071H65.953a1,1,0,0,1,1,1v1.443H30.125a.779.779,0,0,1-.666-.371Z" transform="translate(0 -226)" fill="#526271"/>
    </g>
  </g>
</svg>
