<svg xmlns="http://www.w3.org/2000/svg" width="169.185" height="150" viewBox="0 0 169.185 150">
  <g id="Group_4561" data-name="Group 4561" transform="translate(-621.5 -2582.535)">
    <g id="Group_4560" data-name="Group 4560" transform="translate(625.765 2590.413)">
      <rect id="Rectangle_3954" data-name="Rectangle 3954" width="24.373" height="15.842" transform="translate(65.528 73.118)" fill="#2595d3"/>
      <g id="Group_4558" data-name="Group 4558" transform="translate(17.061 36.559)">
        <circle id="Ellipse_408" data-name="Ellipse 408" cx="4.265" cy="4.265" r="4.265" fill="#2595d3"/>
        <circle id="Ellipse_409" data-name="Ellipse 409" cx="4.265" cy="4.265" r="4.265" transform="translate(1.219 26.81)" fill="#2595d3"/>
        <circle id="Ellipse_410" data-name="Ellipse 410" cx="4.265" cy="4.265" r="4.265" transform="translate(0 52.401)" fill="#2595d3"/>
      </g>
      <g id="Group_4559" data-name="Group 4559" transform="translate(133.488 35.34)">
        <circle id="Ellipse_408-2" data-name="Ellipse 408" cx="4.265" cy="4.265" r="4.265" fill="#2595d3"/>
        <circle id="Ellipse_409-2" data-name="Ellipse 409" cx="4.265" cy="4.265" r="4.265" transform="translate(1.219 26.81)" fill="#2595d3"/>
        <circle id="Ellipse_410-2" data-name="Ellipse 410" cx="4.265" cy="4.265" r="4.265" transform="translate(0 52.401)" fill="#2595d3"/>
      </g>
      <rect id="Rectangle_3953" data-name="Rectangle 3953" width="156.642" height="14.624" fill="#2595d3"/>
    </g>
    <g id="_022-browser" data-name="022-browser" transform="translate(621.5 2582.535)">
      <path id="Path_4969" data-name="Path 4969" d="M32.828,59.136a2.486,2.486,0,0,0,2.486,2.487H56.739a2.487,2.487,0,0,0,0-4.973H35.314A2.487,2.487,0,0,0,32.828,59.136Z" transform="translate(-21.944 -47.492)" fill="#526271"/>
      <path id="Path_4970" data-name="Path 4970" d="M163.1,29.029H36.061a2.478,2.478,0,0,0,0,4.957H163.1a1.134,1.134,0,0,1,1.133,1.133V47.282H4.957V35.118A1.134,1.134,0,0,1,6.09,33.986H26.152a2.478,2.478,0,1,0,0-4.957H6.09A6.1,6.1,0,0,0,0,35.118V172.939a6.1,6.1,0,0,0,6.09,6.09H136.267a2.478,2.478,0,1,0,0-4.957H6.09a1.134,1.134,0,0,1-1.133-1.133V52.239H164.228v120.7a1.134,1.134,0,0,1-1.133,1.133h-16.92a2.478,2.478,0,0,0,0,4.957H163.1a6.1,6.1,0,0,0,6.089-6.09V35.118A6.1,6.1,0,0,0,163.1,29.029Z" transform="translate(0 -29.029)" fill="#526271"/>
      <path id="Path_4971" data-name="Path 4971" d="M222.838,200.037a9.781,9.781,0,0,0-9.769,9.77v6.82h-2.388a4.3,4.3,0,0,0-4.29,4.29v18.569a4.3,4.3,0,0,0,4.29,4.29H235a4.3,4.3,0,0,0,4.29-4.29V220.917a4.3,4.3,0,0,0-4.29-4.29h-2.388v-6.82A9.781,9.781,0,0,0,222.838,200.037Zm-4.8,9.77a4.8,4.8,0,1,1,9.593,0v6.82h-9.593Zm16.271,29H211.364V221.6h22.949Z" transform="translate(-138.246 -143.606)" fill="#526271"/>
      <path id="Path_4972" data-name="Path 4972" d="M181.3,219.627a6.975,6.975,0,0,0,0-13.95,6.884,6.884,0,0,0-1.942.283l-4.566-4.585a2.471,2.471,0,0,0-1.751-.728H158.726V188.984h14.559a6.975,6.975,0,1,0,0-4.973H158.726V172.349h14.313a2.473,2.473,0,0,0,1.751-.728l4.566-4.585a6.883,6.883,0,0,0,1.942.283,6.991,6.991,0,1,0-5.911-3.33l-3.373,3.388H158.726v-4.8a4.919,4.919,0,0,0-4.9-4.924h-27.7a2.487,2.487,0,0,0,0,4.973h27.655v44.961L122.4,230.47,91.033,207.581V162.62H116.22a2.487,2.487,0,0,0,0-4.973H90.984a4.92,4.92,0,0,0-4.9,4.924v4.8H72.793l-3.373-3.388a6.945,6.945,0,1,0-3.968,3.047l4.565,4.585a2.47,2.47,0,0,0,1.751.728H86.08V184.01H71.521a6.975,6.975,0,1,0,0,4.973H86.08v11.662H71.768a2.472,2.472,0,0,0-1.751.728l-4.565,4.585a6.883,6.883,0,0,0-1.942-.283,6.991,6.991,0,1,0,5.91,3.33l3.373-3.388H86.08V207.6a4.946,4.946,0,0,0,2.021,3.984l31.419,22.925a4.872,4.872,0,0,0,5.764,0l31.42-22.925a4.945,4.945,0,0,0,2.021-3.984v-1.987h13.287l3.373,3.388a6.967,6.967,0,0,0,5.911,10.621Zm-1.53-35.132a2,2,0,1,1-1.994,2A2,2,0,0,1,179.767,184.5Zm1.53-26.154a2,2,0,1,1-1.994,2A2,2,0,0,1,181.3,158.341Zm-119.781,2a1.994,1.994,0,1,1,1.994,2A2,2,0,0,1,61.516,160.343ZM65.04,188.5a2,2,0,1,1,1.993-2A2,2,0,0,1,65.04,188.5Zm-1.53,26.154a2,2,0,1,1,1.993-2A2,2,0,0,1,63.51,214.654Zm119.781-2a1.994,1.994,0,1,1-1.994-2A2,2,0,0,1,183.291,212.652Z" transform="translate(-37.811 -112.445)" fill="#526271"/>
    </g>
  </g>
</svg>
