<svg xmlns="http://www.w3.org/2000/svg" width="169.185" height="150" viewBox="0 0 169.185 150">
  <g id="Group_4562" data-name="Group 4562" transform="translate(-540.5 -2071)">
    <circle id="Ellipse_411" data-name="Ellipse 411" cx="11.577" cy="11.577" r="11.577" transform="translate(611.515 2155.969)" fill="#2595d3"/>
    <rect id="Rectangle_3955" data-name="Rectangle 3955" width="156.638" height="14.623" transform="translate(542.328 2078.878)" fill="#2595d3"/>
    <g id="_034-spyware" data-name="034-spyware" transform="translate(540.5 2071)">
      <path id="Path_4973" data-name="Path 4973" d="M32.828,59.136a2.486,2.486,0,0,0,2.487,2.487H56.739a2.487,2.487,0,1,0,0-4.973H35.315A2.487,2.487,0,0,0,32.828,59.136Z" transform="translate(-21.944 -47.492)" fill="#526271"/>
      <path id="Path_4974" data-name="Path 4974" d="M163.1,29.029H36.061a2.478,2.478,0,1,0,0,4.957H163.1a1.134,1.134,0,0,1,1.133,1.133V47.282H4.957V35.119A1.134,1.134,0,0,1,6.09,33.986H26.152a2.478,2.478,0,0,0,0-4.957H6.09A6.1,6.1,0,0,0,0,35.119V172.939a6.1,6.1,0,0,0,6.09,6.09H136.267a2.478,2.478,0,0,0,0-4.957H6.09a1.134,1.134,0,0,1-1.133-1.133V52.239H164.228v120.7a1.134,1.134,0,0,1-1.133,1.133h-16.92a2.478,2.478,0,1,0,0,4.957H163.1a6.1,6.1,0,0,0,6.089-6.09V35.119a6.1,6.1,0,0,0-6.089-6.09Z" transform="translate(0 -29.029)" fill="#526271"/>
      <path id="Path_4975" data-name="Path 4975" d="M386.671,184.178a2.486,2.486,0,0,0-2.487-2.487H364.273a2.486,2.486,0,0,0-1.758.728l-4.284,4.284a2.486,2.486,0,1,0,3.516,3.516l3.556-3.556h18.881a2.486,2.486,0,0,0,2.487-2.486Z" transform="translate(-239.54 -131.257)" fill="#526271"/>
      <path id="Path_4976" data-name="Path 4976" d="M400.867,212.383H411.51a2.487,2.487,0,0,0,0-4.973H400.867a2.487,2.487,0,1,0,0,4.973Z" transform="translate(-266.865 -148.473)" fill="#526271"/>
      <path id="Path_4977" data-name="Path 4977" d="M88.729,312.061l4.635-4.635a2.487,2.487,0,1,0-3.517-3.517l-3.907,3.907H69.006a2.487,2.487,0,1,0,0,4.973H86.971A2.489,2.489,0,0,0,88.729,312.061Z" transform="translate(-44.465 -212.611)" fill="#526271"/>
      <path id="Path_4978" data-name="Path 4978" d="M69.006,341.5a2.487,2.487,0,1,0,0,4.973h9.882a2.487,2.487,0,1,0,0-4.973Z" transform="translate(-44.465 -238.26)" fill="#526271"/>
      <path id="Path_4979" data-name="Path 4979" d="M242.733,297.236h.25v.25a2.487,2.487,0,1,0,4.973,0v-.25h.25a2.487,2.487,0,1,0,0-4.973h-.25v-.25a2.487,2.487,0,0,0-4.973,0v.25h-.25a2.487,2.487,0,0,0,0,4.973Z" transform="translate(-160.877 -203.469)" fill="#526271"/>
      <path id="Path_4980" data-name="Path 4980" d="M211.051,196.154V193.9a4.835,4.835,0,0,0-4.814-4.845H200.2L195.7,177.4a19.333,19.333,0,0,0-18.131-12.485H157.741A19.333,19.333,0,0,0,139.61,177.4l-4.5,11.648h-6.039a4.835,4.835,0,0,0-4.814,4.845v2.258a8.814,8.814,0,0,0,8.775,8.832h3.308a32.531,32.531,0,0,0-.153,12.159,2.471,2.471,0,1,0,4.864-.875,27.553,27.553,0,0,1,.352-11.284h10.522a16.987,16.987,0,1,0,31.457,0h10.522a27.426,27.426,0,0,1,.773,6.468,27,27,0,0,1-50.554,13.385,2.461,2.461,0,0,0-3.367-.938,2.5,2.5,0,0,0-.932,3.389,31.931,31.931,0,0,0,59.794-15.836,32.488,32.488,0,0,0-.653-6.468h3.308A8.814,8.814,0,0,0,211.051,196.154Zm-66.836-16.948a14.423,14.423,0,0,1,13.526-9.314H177.57a14.423,14.423,0,0,1,13.526,9.314l3.8,9.846H140.413ZM129.2,196.154v-2.129H206.11v2.129a3.851,3.851,0,0,1-3.834,3.859H133.034A3.85,3.85,0,0,1,129.2,196.154Zm50.5,15.3a12.046,12.046,0,1,1-22.232-6.468h20.37A12.043,12.043,0,0,1,179.7,211.454Z" transform="translate(-83.063 -120.179)" fill="#526271"/>
    </g>
  </g>
</svg>
