<svg xmlns="http://www.w3.org/2000/svg" width="150" height="150" viewBox="0 0 150 150">
  <g id="Group_4640" data-name="Group 4640" transform="translate(-819 -2469)">
    <rect id="Rectangle_3966" data-name="Rectangle 3966" width="59" height="5" transform="translate(826 2567.66)" fill="#2595d3"/>
    <rect id="Rectangle_3967" data-name="Rectangle 3967" width="59" height="5" transform="translate(902.5 2567.66)" fill="#2595d3"/>
    <g id="_045-file_sharing" data-name="045-file sharing" transform="translate(819 2469)">
      <g id="Group_4635" data-name="Group 4635" transform="translate(70.249 77.942)">
        <circle id="Ellipse_429" data-name="Ellipse 429" cx="4.751" cy="4.751" r="4.751" fill="#2595d3"/>
      </g>
      <g id="Group_4638" data-name="Group 4638" transform="translate(88.875 2.288)">
        <path id="Path_5121" data-name="Path 5121" d="M319.131,23.437H306.446a2.969,2.969,0,0,1-2.969-2.969V7.783A5.911,5.911,0,0,1,306.7,9.44l10.773,10.773A5.907,5.907,0,0,1,319.131,23.437Z" transform="translate(-303.477 -7.783)" fill="#2595d3"/>
      </g>
      <g id="Group_4639" data-name="Group 4639" transform="translate(0 0)">
        <path id="Path_5122" data-name="Path 5122" d="M147.8,136.134h-2.241v-6.573a2.2,2.2,0,1,0-4.395,0v6.571H86.373V99.857a.763.763,0,0,1,.762-.762H140.4a.763.763,0,0,1,.762.762v19.45a2.2,2.2,0,1,0,4.395,0V99.857A5.162,5.162,0,0,0,140.4,94.7H115.966V82.694a2.2,2.2,0,0,0-2.2-2.2h-32.2A6.962,6.962,0,0,0,77.2,76.12V70.687H98.675a8.127,8.127,0,0,0,8.118-8.118V46.1a2.2,2.2,0,0,0-4.395,0V62.568a3.728,3.728,0,0,1-3.724,3.724H51.325A3.728,3.728,0,0,1,47.6,62.568V8.114a3.726,3.726,0,0,1,3.724-3.721H86.712V14.922a5.163,5.163,0,0,0,5.157,5.157H102.4V35.844a2.2,2.2,0,1,0,4.395,0V18.852a7.669,7.669,0,0,0-.094-1.172c0-.04-.01-.078-.016-.117,0-.018,0-.037-.007-.054s0-.014,0-.021c-.006-.033-.013-.065-.02-.1a8.026,8.026,0,0,0-2.237-4.276L93.678,2.377A8.037,8.037,0,0,0,89.36.129l-.016,0L89.287.114C89.247.107,89.2.1,89.163.1l-.037,0A7.936,7.936,0,0,0,87.938,0H51.325a8.126,8.126,0,0,0-8.118,8.115V62.568a8.127,8.127,0,0,0,8.118,8.118H72.8V76.12A6.962,6.962,0,0,0,68.427,80.5h-32.2a2.2,2.2,0,0,0-2.2,2.2V94.7H9.595a5.162,5.162,0,0,0-5.156,5.156v8.133a2.2,2.2,0,0,0,4.395,0V99.857a.763.763,0,0,1,.762-.762h53.27a.763.763,0,0,1,.762.762v36.275H8.833V118.244a2.2,2.2,0,1,0-4.395,0v17.89H2.2a2.2,2.2,0,0,0-2.2,2.2v6.511A5.163,5.163,0,0,0,5.157,150H67.305a5.163,5.163,0,0,0,5.157-5.157v-6.511a2.2,2.2,0,0,0-2.2-2.2H68.022V99.857A5.162,5.162,0,0,0,62.865,94.7H38.428v-9.81h30a6.93,6.93,0,0,0,13.147,0h30V94.7H87.135a5.162,5.162,0,0,0-5.156,5.156v36.277H79.735a2.2,2.2,0,0,0-2.2,2.2v6.511A5.163,5.163,0,0,0,82.695,150h62.149A5.163,5.163,0,0,0,150,144.842v-6.511a2.2,2.2,0,0,0-2.2-2.2ZM100.77,15.685h-8.9a.763.763,0,0,1-.762-.762v-8.9Zm-32.7,129.158a.763.763,0,0,1-.762.762H5.157a.763.763,0,0,1-.762-.762v-4.314H68.067ZM75,85.232a2.538,2.538,0,1,1,2.538-2.538A2.541,2.541,0,0,1,75,85.232Zm70.605,59.611a.763.763,0,0,1-.762.762H82.694a.763.763,0,0,1-.762-.762v-4.314h63.673Z" transform="translate(0 0.001)" fill="#526271"/>
        <path id="Path_5123" data-name="Path 5123" d="M182.014,36.734h15.44a2.2,2.2,0,1,0,0-4.409h-15.44a2.2,2.2,0,1,0,0,4.409Z" transform="translate(-127.157 -22.823)" fill="#526271"/>
        <path id="Path_5124" data-name="Path 5124" d="M182.014,69.059h8.908a2.2,2.2,0,1,0,0-4.409h-8.908a2.2,2.2,0,1,0,0,4.409Z" transform="translate(-127.148 -45.646)" fill="#526271"/>
        <path id="Path_5125" data-name="Path 5125" d="M268.043,96.976H246.665a2.2,2.2,0,1,0,0,4.409h21.379a2.2,2.2,0,0,0,0-4.409Z" transform="translate(-172.89 -68.568)" fill="#526271"/>
        <path id="Path_5126" data-name="Path 5126" d="M182.014,101.385h9.5a2.2,2.2,0,1,0,0-4.409h-9.5a2.2,2.2,0,1,0,0,4.409Z" transform="translate(-127.149 -68.568)" fill="#526271"/>
        <path id="Path_5127" data-name="Path 5127" d="M296.572,129.3h-9.5a2.2,2.2,0,0,0,0,4.409h9.5a2.2,2.2,0,0,0,0-4.409Z" transform="translate(-201.438 -91.423)" fill="#526271"/>
        <path id="Path_5128" data-name="Path 5128" d="M205.6,131.506a2.2,2.2,0,0,0-2.2-2.2H182.015a2.2,2.2,0,0,0,0,4.409h21.379A2.2,2.2,0,0,0,205.6,131.506Z" transform="translate(-127.168 -91.423)" fill="#526271"/>
        <path id="Path_5129" data-name="Path 5129" d="M273.749,161.626h-19a2.2,2.2,0,1,0,0,4.409h19a2.2,2.2,0,1,0,0-4.409Z" transform="translate(-178.6 -114.279)" fill="#526271"/>
        <path id="Path_5130" data-name="Path 5130" d="M196.1,163.831a2.2,2.2,0,0,0-2.2-2.2H182.014a2.2,2.2,0,1,0,0,4.409h11.877A2.2,2.2,0,0,0,196.1,163.831Z" transform="translate(-127.152 -114.279)" fill="#526271"/>
        <path id="Path_5131" data-name="Path 5131" d="M246.664,198.36h21.379a2.2,2.2,0,0,0,0-4.409H246.664a2.2,2.2,0,0,0,0,4.409Z" transform="translate(-172.89 -137.135)" fill="#526271"/>
        <path id="Path_5132" data-name="Path 5132" d="M182.014,193.951a2.2,2.2,0,0,0,0,4.409h9.5a2.2,2.2,0,0,0,0-4.409Z" transform="translate(-127.149 -137.135)" fill="#526271"/>
      </g>
    </g>
  </g>
</svg>
