<svg xmlns="http://www.w3.org/2000/svg" width="143.387" height="150" viewBox="0 0 143.387 150">
  <g id="Group_4576" data-name="Group 4576" transform="translate(-819 -2121)">
    <g id="Group_4575" data-name="Group 4575" transform="translate(819 2121)">
      <circle id="Ellipse_421" data-name="Ellipse 421" cx="9.475" cy="9.475" r="9.475" transform="translate(55.834 19.927)" fill="#fff"/>
      <path id="Path_5025" data-name="Path 5025" d="M-7288.4-13557.5h22.229s-2.271,8.156-12.206,7.688S-7288.4-13557.5-7288.4-13557.5Z" transform="translate(7299.402 13683.99)" fill="#2595d3"/>
      <path id="Path_5026" data-name="Path 5026" d="M-7288.4-13557.5h22.229s-2.271,8.156-12.206,7.688S-7288.4-13557.5-7288.4-13557.5Z" transform="translate(7340.949 13694.215)" fill="#2595d3"/>
      <path id="Path_5027" data-name="Path 5027" d="M-7288.4-13557.5h22.229s-2.271,8.156-12.206,7.688S-7288.4-13557.5-7288.4-13557.5Z" transform="translate(7382.597 13683.99)" fill="#2595d3"/>
      <g id="noun_CCTV_2841686" transform="translate(0 0)">
        <g id="Group_4574" data-name="Group 4574" transform="translate(0 0)">
          <path id="Path_5010" data-name="Path 5010" d="M299.787,191.385a1.826,1.826,0,1,0,0,3.652h1.795a1.826,1.826,0,0,0,0-3.652Z" transform="translate(-213.593 -136.254)" fill="#526271"/>
          <path id="Path_5011" data-name="Path 5011" d="M94.189,14.481H96.9a1.826,1.826,0,0,0,0-3.652H94.189a1.826,1.826,0,1,0,0,3.652Z" transform="translate(-70.85 -10.829)" fill="#526271"/>
          <path id="Path_5012" data-name="Path 5012" d="M216.181,255.457a1.826,1.826,0,1,0,0-3.652H190.087a1.826,1.826,0,1,0,0,3.652Z" transform="translate(-137.353 -178.225)" fill="#526271"/>
          <path id="Path_5013" data-name="Path 5013" d="M229.237,373.9a1.826,1.826,0,0,0,1.826-1.826v-1.855a1.826,1.826,0,1,0-3.652,0v1.855A1.826,1.826,0,0,0,229.237,373.9Z" transform="translate(-164.588 -259.209)" fill="#526271"/>
          <path id="Path_5014" data-name="Path 5014" d="M342,341.531h-4.49a1.826,1.826,0,0,0,0,3.652h2.664v4.75L336.51,353.6H311.7l-3.693-3.7v-4.72h24.708a1.826,1.826,0,0,0,0-3.652h-6.8V328.286a1.826,1.826,0,0,0-1.826-1.826h-5.4a1.826,1.826,0,0,0,0,3.652h3.576v11.419H306.184a1.826,1.826,0,0,0-1.826,1.826v7.3a1.826,1.826,0,0,0,.533,1.289l4.233,4.244a14.994,14.994,0,0,0,29.948.015l4.219-4.228a1.827,1.827,0,0,0,.533-1.29v-7.331A1.825,1.825,0,0,0,342,341.531Zm-17.909,25.229a11.351,11.351,0,0,1-11.187-9.5h22.389A11.362,11.362,0,0,1,324.091,366.759Z" transform="translate(-217.859 -229.915)" fill="#526271"/>
          <path id="Path_5015" data-name="Path 5015" d="M359.013,437.535a4.465,4.465,0,1,0-4.457-4.473A4.47,4.47,0,0,0,359.013,437.535Zm0-5.278a.813.813,0,0,1,0,1.626.813.813,0,0,1,0-1.626Z" transform="translate(-252.897 -300.978)" fill="#526271"/>
          <path id="Path_5016" data-name="Path 5016" d="M206.107,394.05H189.98V390.2a1.826,1.826,0,0,0-3.652,0v3.847H170.185a1.826,1.826,0,0,0-1.826,1.826v7.315a1.826,1.826,0,0,0,3.652,0V397.7h32.271v4.763l-3.693,3.691h-25.64a1.826,1.826,0,0,0-1.826,1.826,15.024,15.024,0,0,0,30.028.777l4.248-4.246a1.826,1.826,0,0,0,.535-1.291v-7.345A1.826,1.826,0,0,0,206.107,394.05Zm-17.953,25.289a11.393,11.393,0,0,1-11.234-9.532h22.451A11.381,11.381,0,0,1,188.155,419.339Z" transform="translate(-123.515 -272.991)" fill="#526271"/>
          <path id="Path_5017" data-name="Path 5017" d="M223.182,468.72a4.464,4.464,0,1,0-4.474-4.472A4.47,4.47,0,0,0,223.182,468.72Zm0-5.277a.806.806,0,0,1,.806.8.814.814,0,1,1-1.628,0A.815.815,0,0,1,223.182,463.443Z" transform="translate(-158.535 -322.673)" fill="#526271"/>
          <path id="Path_5018" data-name="Path 5018" d="M70.359,341.531H54.276V330.112H58a1.826,1.826,0,1,0,0-3.652H52.45a1.826,1.826,0,0,0-1.826,1.826v13.245H34.543a1.826,1.826,0,1,0,0,3.652h33.99v4.748L64.856,353.6H40.062l-4.227-4.237a1.826,1.826,0,1,0-2.585,2.579l4.234,4.244a14.987,14.987,0,0,0,29.933.016l4.232-4.228a1.826,1.826,0,0,0,.535-1.291v-7.331A1.826,1.826,0,0,0,70.359,341.531ZM52.45,366.759a11.351,11.351,0,0,1-11.187-9.5H63.639A11.352,11.352,0,0,1,52.45,366.759Z" transform="translate(-29.354 -229.915)" fill="#526271"/>
          <path id="Path_5019" data-name="Path 5019" d="M87.372,437.535a4.465,4.465,0,1,0-4.458-4.473A4.47,4.47,0,0,0,87.372,437.535Zm0-5.278a.813.813,0,0,1,0,1.626.824.824,0,0,1-.806-.821A.816.816,0,0,1,87.372,432.258Z" transform="translate(-64.276 -300.978)" fill="#526271"/>
          <path id="Path_5020" data-name="Path 5020" d="M188.074,96.469a1.826,1.826,0,1,0-1.773,3.192c3.671,2.039,8.6,3.037,13.784,3.037A38.891,38.891,0,0,0,218.4,98.293l16.4-9.109a1.826,1.826,0,0,0,0-3.193l-15-8.317a1.826,1.826,0,1,0-1.77,3.194l12.125,6.722L216.625,95.1C208.212,99.766,195.137,100.393,188.074,96.469Z" transform="translate(-135.292 -57.173)" fill="#526271"/>
          <path id="Path_5021" data-name="Path 5021" d="M172.751,64.181c-8.162-4.524-22.56-3.9-32.093,1.385l-16.4,9.093a1.826,1.826,0,0,0,0,3.194l14.8,8.212a1.826,1.826,0,1,0,1.771-3.193l-11.924-6.615,13.522-7.5c8.413-4.666,21.488-5.3,28.552-1.385a1.826,1.826,0,0,0,1.77-3.194Z" transform="translate(-92.225 -45.841)" fill="#526271"/>
          <path id="Path_5022" data-name="Path 5022" d="M200.123,86.079a11.253,11.253,0,0,0,.239,1.416,1.821,1.821,0,0,0,1.821,1.392,1.826,1.826,0,0,0-.251,2.309,11.3,11.3,0,1,0-1.506-9.007,1.827,1.827,0,0,0,.809,2A1.827,1.827,0,0,0,200.123,86.079Zm3.844-3a7.635,7.635,0,1,1,1.018,6.108,1.824,1.824,0,0,0-1.528-.824h-.046a1.826,1.826,0,0,0,.5-1.742,7.707,7.707,0,0,1-.158-.957,1.822,1.822,0,0,0-.854-1.348A1.822,1.822,0,0,0,203.966,83.083Z" transform="translate(-145.595 -54.563)" fill="#526271"/>
          <path id="Path_5023" data-name="Path 5023" d="M474.621,279.234h-2.846a1.826,1.826,0,0,0,0,3.652h2.846a1.826,1.826,0,0,0,0-3.652Z" transform="translate(-333.06 -197.279)" fill="#526271"/>
          <path id="Path_5024" data-name="Path 5024" d="M154.9,92.506h-4.031a10.1,10.1,0,0,0,2.382-6.521V77.635a1.829,1.829,0,0,0-1.832-1.826h-7.588V12.655A1.829,1.829,0,0,0,142,10.829H53.609a1.826,1.826,0,1,0,0,3.652h86.556V65.773H115.811a1.826,1.826,0,1,0,0,3.652h24.354v6.385H34.751V69.424h67.2a1.826,1.826,0,1,0,0-3.652h-67.2V14.481h3.3a1.826,1.826,0,1,0,0-3.652H32.919a1.829,1.829,0,0,0-1.832,1.826V75.809H23.5a1.829,1.829,0,0,0-1.832,1.826v8.349A10.206,10.206,0,0,0,31.882,96.158H84.5v10.719H54.463a1.826,1.826,0,1,0,0,3.652H84.5v6.356a1.832,1.832,0,0,0,3.665,0v-6.356h29.712a1.826,1.826,0,1,0,0-3.652H88.161V96.158H154.9a1.826,1.826,0,1,0,0-3.652ZM25.331,85.985V79.461H149.585v6.524a6.543,6.543,0,0,1-6.539,6.521h-56.5a1.683,1.683,0,0,0-.438,0H31.882A6.544,6.544,0,0,1,25.331,85.985Z" transform="translate(-21.666 -10.829)" fill="#526271"/>
        </g>
      </g>
    </g>
  </g>
</svg>
