<svg xmlns="http://www.w3.org/2000/svg" width="150" height="150" viewBox="0 0 150 150">
  <g id="Group_4698" data-name="Group 4698" transform="translate(-819 -1953)">
    <rect id="Rectangle_3968" data-name="Rectangle 3968" width="63" height="5" transform="translate(823 2052)" fill="#2595d3"/>
    <rect id="Rectangle_3969" data-name="Rectangle 3969" width="58" height="5" transform="translate(904 2052)" fill="#2595d3"/>
    <g id="_017-cloud_sharing" data-name="017-cloud sharing" transform="translate(819 1953)">
      <g id="Group_4696" data-name="Group 4696" transform="translate(52.508 46.332)">
        <g id="Group_4695" data-name="Group 4695" transform="translate(0 0)">
          <circle id="Ellipse_446" data-name="Ellipse 446" cx="20.253" cy="20.253" r="20.253" fill="#2595d3"/>
        </g>
      </g>
      <g id="Group_4697" data-name="Group 4697" transform="translate(0 0)">
        <path id="Path_5182" data-name="Path 5182" d="M334.928,364.683h-2.241V328.406a5.162,5.162,0,0,0-5.156-5.156h-4.213a2.2,2.2,0,0,0,0,4.395h4.213a.763.763,0,0,1,.762.762v36.275H273.5V328.406a.762.762,0,0,1,.762-.762h38.8a2.2,2.2,0,0,0,0-4.395h-38.8a5.162,5.162,0,0,0-5.156,5.156v36.277H266.86a2.2,2.2,0,0,0-2.2,2.2v6.511a5.163,5.163,0,0,0,5.157,5.157h62.149a5.163,5.163,0,0,0,5.157-5.157V366.88A2.2,2.2,0,0,0,334.928,364.683Zm-2.2,8.708a.763.763,0,0,1-.762.762H269.82a.763.763,0,0,1-.762-.762v-4.314H332.73Z" transform="translate(-187.125 -228.548)" fill="#526270"/>
        <path id="Path_5183" data-name="Path 5183" d="M70.266,364.683H68.023V328.409a5.163,5.163,0,0,0-5.157-5.157H9.6a5.163,5.163,0,0,0-5.157,5.157v36.274H2.2a2.2,2.2,0,0,0-2.2,2.2v6.513a5.162,5.162,0,0,0,5.156,5.156h62.15a5.162,5.162,0,0,0,5.156-5.156V366.88A2.2,2.2,0,0,0,70.266,364.683Zm-2.2,8.71a.762.762,0,0,1-.762.762H5.156a.763.763,0,0,1-.762-.762v-4.315H15.416a2.2,2.2,0,1,0,0-4.395H8.834V328.409a.763.763,0,0,1,.762-.762h53.27a.763.763,0,0,1,.762.762v36.274H25.67a2.2,2.2,0,1,0,0,4.395h42.4v4.315Z" transform="translate(0 -228.549)" fill="#526270"/>
        <path id="Path_5184" data-name="Path 5184" d="M160.394,64.345c0-.255-.012-.508-.019-.762h2.261a22.917,22.917,0,0,0,10.454-43.31q.032-.456.032-.911A13.152,13.152,0,0,0,155.571,6.971,31.8,31.8,0,0,0,107.144,17.82a22.911,22.911,0,0,0,1.632,45.763h2.256c-.008.253-.015.507-.015.762a24.688,24.688,0,1,0,49.377,0Zm-24.688,20.3a20.3,20.3,0,0,1-16.56-32.032,2.2,2.2,0,0,0-3.583-2.545,24.482,24.482,0,0,0-4,9.124h-2.783a18.516,18.516,0,0,1-.181-37.031,2.2,2.2,0,0,0,1.993-1.318,27.4,27.4,0,0,1,43.151-9.673,2.2,2.2,0,0,0,2.408.323,8.754,8.754,0,0,1,12.581,7.873,8.873,8.873,0,0,1-.181,1.777,2.2,2.2,0,0,0,1.3,2.465,18.522,18.522,0,0,1-7.206,35.585h-2.787a24.7,24.7,0,0,0-35.921-16.546,2.2,2.2,0,1,0,2.1,3.86,20.3,20.3,0,1,1,9.678,38.14Z" transform="translate(-60.706 0)" fill="#526270"/>
        <path id="Path_5185" data-name="Path 5185" d="M236.364,183.4a22.3,22.3,0,0,0-24.385,0,2.2,2.2,0,1,0,2.4,3.679,17.91,17.91,0,0,1,19.58,0,2.2,2.2,0,1,0,2.4-3.679Z" transform="translate(-149.171 -127.103)" fill="#fff"/>
        <path id="Path_5186" data-name="Path 5186" d="M242.3,215.27a12.929,12.929,0,0,0-16.792,0,2.2,2.2,0,0,0,2.871,3.328,8.51,8.51,0,0,1,11.05,0,2.2,2.2,0,1,0,2.871-3.328Z" transform="translate(-158.899 -150.013)" fill="#fff"/>
        <circle id="Ellipse_447" data-name="Ellipse 447" cx="3.255" cy="3.255" r="3.255" transform="translate(71.744 71.736)" fill="#fff"/>
        <path id="Path_5187" data-name="Path 5187" d="M371.909,276.038a2.2,2.2,0,0,0,2.2-2.2v-7.99a2.2,2.2,0,0,0-2.2-2.2H354.744a2.2,2.2,0,0,0,0,4.395h14.967v5.793A2.2,2.2,0,0,0,371.909,276.038Z" transform="translate(-249.262 -186.411)" fill="#526270"/>
        <path id="Path_5188" data-name="Path 5188" d="M90.259,273.841v-5.793h14.967a2.2,2.2,0,0,0,0-4.395H88.061a2.2,2.2,0,0,0-2.2,2.2v7.99a2.2,2.2,0,1,0,4.395,0Z" transform="translate(-60.709 -186.411)" fill="#526270"/>
      </g>
    </g>
  </g>
</svg>
