<svg xmlns="http://www.w3.org/2000/svg" width="132.067" height="150" viewBox="0 0 132.067 150">
  <g id="Group_4564" data-name="Group 4564" transform="translate(-976 -2564)">
    <path id="Path_4990" data-name="Path 4990" d="M-7257.079-13159.483h39.121v31.277l-17.646,13.023-21.475-16.169Z" transform="translate(8318.766 15807.548)" fill="#2595d3"/>
    <rect id="Rectangle_3960" data-name="Rectangle 3960" width="15.795" height="13.538" transform="translate(1075.61 2663.048)" fill="#fff"/>
    <g id="Group_4563" data-name="Group 4563" transform="translate(990.667 2604.316)">
      <rect id="Rectangle_3956" data-name="Rectangle 3956" width="7.897" height="9.025" rx="1" transform="translate(0 0)" fill="#2595d3"/>
      <rect id="Rectangle_3957" data-name="Rectangle 3957" width="7.897" height="9.025" rx="1" transform="translate(0 22.564)" fill="#2595d3"/>
      <rect id="Rectangle_3958" data-name="Rectangle 3958" width="7.897" height="9.025" rx="1" transform="translate(0 45.127)" fill="#2595d3"/>
      <rect id="Rectangle_3959" data-name="Rectangle 3959" width="7.897" height="9.025" rx="1" transform="translate(0 67.691)" fill="#2595d3"/>
    </g>
    <g id="_039-server" data-name="039-server" transform="translate(976 2564)">
      <path id="Path_4981" data-name="Path 4981" d="M100.46,35.208h-27.9a4.891,4.891,0,0,0-4.885,4.885v4.962a4.891,4.891,0,0,0,4.885,4.885h27.9a4.891,4.891,0,0,0,4.885-4.885V40.093A4.891,4.891,0,0,0,100.46,35.208Zm.5,9.847a.5.5,0,0,1-.5.5h-27.9a.5.5,0,0,1-.5-.5V40.093a.5.5,0,0,1,.5-.5h27.9a.5.5,0,0,1,.5.5Z" transform="translate(-56.839 -24.919)" fill="#526271"/>
      <path id="Path_4982" data-name="Path 4982" d="M84.954,123.857a3.691,3.691,0,0,0-3.687-3.687H71.748a3.691,3.691,0,0,0-3.687,3.687v9.518a3.691,3.691,0,0,0,3.687,3.687h9.518a3.691,3.691,0,0,0,3.687-3.687ZM80.57,132.68H72.445v-8.126h8.126v8.126Z" transform="translate(-57.115 -84.953)" fill="#526271"/>
      <path id="Path_4983" data-name="Path 4983" d="M220.693,123.857a3.691,3.691,0,0,0-3.687-3.687H164.262a3.691,3.691,0,0,0-3.687,3.687v9.518a3.691,3.691,0,0,0,3.687,3.687h52.743a3.691,3.691,0,0,0,3.687-3.687v-9.518Zm-4.384,8.822H164.959v-8.126H216.31Z" transform="translate(-122.418 -84.953)" fill="#526271"/>
      <path id="Path_4984" data-name="Path 4984" d="M84.954,201.289a3.692,3.692,0,0,0-3.687-3.688H71.748a3.692,3.692,0,0,0-3.687,3.688v9.518a3.691,3.691,0,0,0,3.687,3.687h9.518a3.691,3.691,0,0,0,3.687-3.687Zm-4.384,8.822H72.445v-8.126h8.126v8.126Z" transform="translate(-57.115 -139.692)" fill="#526271"/>
      <path id="Path_4985" data-name="Path 4985" d="M84.954,278.719a3.691,3.691,0,0,0-3.687-3.687H71.748a3.691,3.691,0,0,0-3.687,3.687v9.518a3.691,3.691,0,0,0,3.687,3.687h9.518a3.691,3.691,0,0,0,3.687-3.687Zm-4.384,8.823H72.445v-8.127h8.126v8.127Z" transform="translate(-57.115 -194.431)" fill="#526271"/>
      <path id="Path_4986" data-name="Path 4986" d="M81.267,352.464H71.748a3.692,3.692,0,0,0-3.687,3.688v9.518a3.691,3.691,0,0,0,3.687,3.687h9.518a3.691,3.691,0,0,0,3.687-3.687v-9.518A3.692,3.692,0,0,0,81.267,352.464Zm-.7,12.51H72.445v-8.126h8.126v8.126Z" transform="translate(-57.115 -249.17)" fill="#526271"/>
      <path id="Path_4987" data-name="Path 4987" d="M368.366,290.031a7.062,7.062,0,0,0-7.054,7.054v4.021h-1.062a3.4,3.4,0,0,0-3.4,3.4v12.4a3.4,3.4,0,0,0,3.4,3.4h16.232a3.4,3.4,0,0,0,3.4-3.4V304.5a3.4,3.4,0,0,0-3.4-3.4H375.42v-4.021A7.061,7.061,0,0,0,368.366,290.031Zm-2.67,7.054a2.67,2.67,0,0,1,5.34,0v4.021H365.7v-4.021Zm9.8,18.825H361.239V305.489h14.256Z" transform="translate(-261.183 -205.007)" fill="#526271"/>
      <path id="Path_4988" data-name="Path 4988" d="M160.475,96.075a2.2,2.2,0,0,0,2.2-2.2V81.308a3.833,3.833,0,0,0-3.828-3.829h-18.92V6.091A6.1,6.1,0,0,0,133.834,0H36.7a6.1,6.1,0,0,0-6.091,6.091v12.4a2.2,2.2,0,0,0,4.395,0V6.091a1.7,1.7,0,0,1,1.7-1.7h67.715v8.118a2.2,2.2,0,0,0,4.395,0V4.395h5.621v8.118a2.2,2.2,0,1,0,4.395,0V4.395h5.621v8.118a2.2,2.2,0,0,0,4.395,0V4.395h5a1.7,1.7,0,0,1,1.7,1.7V77.479H116.61a3.834,3.834,0,0,0-3.757,3.1H72.38a3.7,3.7,0,0,0-3.7,3.7v9.542a3.7,3.7,0,0,0,3.7,3.7h40.4v5.749H72.38a3.7,3.7,0,0,0-3.7,3.7V116.5a3.7,3.7,0,0,0,3.7,3.7h49.76l13.337,9.69c.017.013.035.023.053.035v13.987a1.7,1.7,0,0,1-1.7,1.7H65.6v-8.118a2.2,2.2,0,0,0-4.395,0v8.118H55.585v-8.118a2.2,2.2,0,1,0-4.395,0v8.118H45.57v-8.118a2.2,2.2,0,1,0-4.395,0v8.118H36.7a1.7,1.7,0,0,1-1.7-1.7V27.28a2.2,2.2,0,1,0-4.395,0V143.909A6.1,6.1,0,0,0,36.7,150h97.137a6.1,6.1,0,0,0,6.091-6.091V129.922l.053-.035,21.117-15.342a3.839,3.839,0,0,0,1.578-3.1v-8.784a2.2,2.2,0,0,0-4.395,0v8.5L137.728,126.09l-20.551-14.931V81.874h41.1v12a2.2,2.2,0,0,0,2.2,2.2Zm-87.4-2.958V84.97h39.7v8.147Zm0,22.685v-8.147h39.7v3.791a3.839,3.839,0,0,0,1.579,3.1l1.731,1.258H73.077Z" transform="translate(-30.606 0)" fill="#526271"/>
      <path id="Path_4989" data-name="Path 4989" d="M179.518,210.111a2.192,2.192,0,0,0,0,4.384h37.488a3.691,3.691,0,0,0,3.687-3.687v-9.518a3.691,3.691,0,0,0-3.687-3.687H164.262a3.691,3.691,0,0,0-3.687,3.687v9.518a3.691,3.691,0,0,0,3.687,3.687h6.492a2.192,2.192,0,0,0,0-4.384h-5.8v-8.126H216.31v8.126Z" transform="translate(-122.418 -139.692)" fill="#526271"/>
    </g>
  </g>
</svg>
