<svg xmlns="http://www.w3.org/2000/svg" width="170.91" height="150" viewBox="0 0 170.91 150">
  <g id="Group_4661" data-name="Group 4661" transform="translate(-1257 -1982)">
    <g id="Group_4660" data-name="Group 4660" transform="translate(1257 1982)">
      <g id="_011-domain" data-name="011-domain" transform="translate(0 0)">
        <path id="Path_5144" data-name="Path 5144" d="M168.533,66.89H7.5V44.664c0-3.23,2.931-5.849,6.546-5.849H161.987c3.615,0,6.546,2.619,6.546,5.849Z" transform="translate(-4.991 -31.939)" fill="#2595d3"/>
        <path id="Path_5148" data-name="Path 5148" d="M0,0H10.814V79.756H0Z" transform="translate(157.586 13.322) rotate(90)" fill="#fff"/>
        <circle id="Ellipse_437" data-name="Ellipse 437" cx="5.407" cy="5.407" r="5.407" transform="translate(13.324 13.322)" fill="#fff"/>
        <circle id="Ellipse_438" data-name="Ellipse 438" cx="5.407" cy="5.407" r="5.407" transform="translate(34.869 13.322)" fill="#fff"/>
        <circle id="Ellipse_439" data-name="Ellipse 439" cx="5.407" cy="5.407" r="5.407" transform="translate(56.447 13.322)" fill="#fff"/>
        <g id="Group_4658" data-name="Group 4658" transform="translate(112.6 99.549)">
          <path id="Path_5149" data-name="Path 5149" d="M355.46,340.189l-5.849-10.471,5.529-3.3-18.429-11v21.993l5.529-3.3,5.849,10.471Z" transform="translate(-336.71 -315.423)" fill="#2595d3"/>
        </g>
        <g id="Group_4659" data-name="Group 4659" transform="translate(0 0)">
          <path id="Path_5151" data-name="Path 5151" d="M227.88,31.32H102a2.5,2.5,0,0,0,0,5.007H227.88a4.243,4.243,0,0,1,4.237,4.239V63.689h-17.5a2.5,2.5,0,0,0,0,5.007h17.5V172.073a4.243,4.243,0,0,1-4.237,4.239H111.828a2.5,2.5,0,0,0,0,5.007H227.88a9.254,9.254,0,0,0,9.242-9.246V40.566a9.254,9.254,0,0,0-9.242-9.246Z" transform="translate(-66.212 -31.32)" fill="#526271"/>
          <path id="Path_5152" data-name="Path 5152" d="M33.848,176.313H9.242A4.243,4.243,0,0,1,5,172.073V68.7H136.642a2.5,2.5,0,0,0,0-5.007H5V40.566a4.243,4.243,0,0,1,4.237-4.239h14.78a2.5,2.5,0,0,0,0-5.007H9.242A9.255,9.255,0,0,0,0,40.566V172.073a9.255,9.255,0,0,0,9.242,9.246H33.848a2.5,2.5,0,0,0,0-5.007Z" transform="translate(0 -31.32)" fill="#526271"/>
          <path id="Path_5153" data-name="Path 5153" d="M311.051,76.964V66.149a2.509,2.509,0,0,0-2.509-2.509H228.785a2.509,2.509,0,0,0-2.509,2.509V76.964a2.509,2.509,0,0,0,2.509,2.509h79.756A2.509,2.509,0,0,0,311.051,76.964Zm-5.018-2.509H231.294v-5.8h74.738v5.8Z" transform="translate(-150.956 -52.827)" fill="#526271"/>
          <path id="Path_5154" data-name="Path 5154" d="M40.241,63.64a7.916,7.916,0,1,0,7.916,7.916A7.925,7.925,0,0,0,40.241,63.64Zm0,10.814a2.9,2.9,0,1,1,2.9-2.9A2.9,2.9,0,0,1,40.241,74.454Z" transform="translate(-21.511 -52.827)" fill="#526271"/>
          <path id="Path_5155" data-name="Path 5155" d="M112.809,71.556a7.916,7.916,0,1,0-7.916,7.916A7.926,7.926,0,0,0,112.809,71.556Zm-10.814,0a2.9,2.9,0,1,1,2.9,2.9A2.9,2.9,0,0,1,101.994,71.556Z" transform="translate(-64.612 -52.827)" fill="#526271"/>
          <path id="Path_5156" data-name="Path 5156" d="M177.459,71.556a7.916,7.916,0,1,0-7.916,7.916A7.926,7.926,0,0,0,177.459,71.556Zm-10.814,0a2.9,2.9,0,1,1,2.9,2.9A2.9,2.9,0,0,1,166.644,71.556Z" transform="translate(-107.686 -52.827)" fill="#526271"/>
          <path id="Path_5160" data-name="Path 5160" d="M330.465,339.64a2.509,2.509,0,0,0,2.509,0l4.851-2.8,6.177,10.7a2.508,2.508,0,0,0,3.427.918l9.365-5.407a2.509,2.509,0,0,0,.918-3.427l-6.177-10.7,4.851-2.8a2.509,2.509,0,0,0,0-4.346l-23.414-13.518a2.509,2.509,0,0,0-3.764,2.173v27.036A2.509,2.509,0,0,0,330.465,339.64Zm3.764-24.863,15.886,9.172-3.26,1.883a2.509,2.509,0,0,0-.918,3.427l6.177,10.7-5.02,2.9-6.177-10.7a2.508,2.508,0,0,0-3.427-.918l-3.26,1.882Z" transform="translate(-219.367 -215.718)" fill="#526271"/>
        </g>
      </g>
    </g>
    <text id="D_O_S" data-name="D O S" transform="translate(1385.82 2082.798)" fill="#526271" font-size="36" font-family="SegoeUI, Segoe UI"><tspan x="-91.23" y="0">D O S</tspan></text>
  </g>
</svg>
