<svg xmlns="http://www.w3.org/2000/svg" width="123.064" height="126.316" viewBox="0 0 123.064 126.316"><g transform="translate(-6.59)"><g transform="translate(28.201 40.841)"><g transform="translate(0 0)"><path d="M111.607,146.2,94.186,169.909H102.4v34.25h18.417v-34.25h8.213Z" transform="translate(-94.186 -146.198)" fill="#2595d3"/></g><g transform="translate(39.921 23.004)"><path d="M273.412,310.842l17.412-24.8h-8.209V250.221H264.209v35.821H256Z" transform="translate(-256 -250.221)" fill="#2595d3"/></g></g><path d="M98.633,83.319a1.85,1.85,0,0,0,1.85-1.85V77.84h1.372A27.8,27.8,0,0,0,114,25.025a15.744,15.744,0,0,0,.089-1.673A15.584,15.584,0,0,0,98.519,7.784a15.424,15.424,0,0,0-5.681,1.071,38.916,38.916,0,0,0-49.92.411,1.85,1.85,0,1,0,2.4,2.818,35.215,35.215,0,0,1,45.987.322,1.851,1.851,0,0,0,2.027.271,11.867,11.867,0,0,1,17.052,10.674,11.909,11.909,0,0,1-.243,2.4,1.85,1.85,0,0,0,1.091,2.079,24.1,24.1,0,0,1-9.377,46.306h-1.372V61.732a1.85,1.85,0,0,0-1.85-1.85h-21.1a1.85,1.85,0,0,0-1.85,1.85V74.139H60.563V63.582h7.559A1.85,1.85,0,0,0,69.583,60.6L49.621,34.933a1.85,1.85,0,0,0-2.921,0L26.741,60.6A1.85,1.85,0,0,0,28.2,63.583h7.559V74.139H34.389a24.1,24.1,0,0,1-.234-48.19,1.85,1.85,0,0,0,1.678-1.11,35.131,35.131,0,0,1,3.9-6.759,1.85,1.85,0,0,0-2.98-2.194,38.85,38.85,0,0,0-3.823,6.4A27.8,27.8,0,0,0,34.389,77.84h1.372v3.2a1.85,1.85,0,0,0,3.7,0V61.732a1.85,1.85,0,0,0-1.85-1.85H31.985l16.176-20.8,16.178,20.8H58.713a1.85,1.85,0,0,0-1.85,1.85v35.22h-17.4V89.679a1.85,1.85,0,1,0-3.7,0V98.8a1.85,1.85,0,0,0,1.85,1.85h21.1a1.85,1.85,0,0,0,1.85-1.85V77.84H75.681V96.952H68.122a1.85,1.85,0,0,0-1.461,2.986L86.623,125.6a1.85,1.85,0,0,0,2.921,0L109.5,99.939a1.85,1.85,0,0,0-1.461-2.986h-7.559V90.1a1.85,1.85,0,1,0-3.7,0v8.7a1.85,1.85,0,0,0,1.85,1.85h5.626l-16.176,20.8-16.178-20.8h5.626a1.85,1.85,0,0,0,1.85-1.85V63.582h17.4V81.469a1.85,1.85,0,0,0,1.85,1.85Z" transform="translate(0)" fill="#526271"/></g></svg>