<svg xmlns="http://www.w3.org/2000/svg" width="128.453" height="136.083" viewBox="0 0 128.453 136.083"><g transform="translate(-9.854)"><g transform="translate(63.415 67.957)"><circle cx="7.926" cy="7.926" r="7.926" transform="translate(0)" fill="#fff"/></g><g transform="translate(63.415 67.957)"><path d="M221.682,268.368a7.925,7.925,0,0,1,4.648-7.216,7.926,7.926,0,1,0,0,14.431A7.925,7.925,0,0,1,221.682,268.368Z" transform="translate(-215.126 -260.442)" fill="#eef5f6"/></g><g transform="translate(14.904 14.803)"><path d="M209.98,69.312q0,1.152-.1,2.278a47.112,47.112,0,0,1,8.776-.824h39.494a.581.581,0,0,1,.581.581v3.87a.871.871,0,0,0,1.354.725l13.237-8.807a.871.871,0,0,0,0-1.451l-13.237-8.807a.871.871,0,0,0-1.354.725v3.87a.581.581,0,0,1-.581.581H219.137a55.751,55.751,0,0,0-9.96.9A25.467,25.467,0,0,1,209.98,69.312Z" transform="translate(-162.218 -56.731)" fill="#2595d3"/><path d="M141.941,213.628l-5.933-.1a1.387,1.387,0,0,0-1.41,1.347,47.044,47.044,0,0,1-94.067-1q-.009-1.229.044-2.443a4.53,4.53,0,0,1,.7-6.249q.165-.921.365-1.829a4.538,4.538,0,0,1,1.477-8.175l-1.484-4.7a11,11,0,0,0-2.5-4.27,54.645,54.645,0,0,0-7.31,27.268,55.756,55.756,0,0,0,111.49,1.583A1.392,1.392,0,0,0,141.941,213.628Z" transform="translate(-31.818 -147.978)" fill="#2595d3"/></g><g transform="translate(116.914 48.661)"><circle cx="5.47" cy="5.47" r="5.47" fill="#fff"/></g><g transform="translate(116.914 48.661)"><path d="M424.573,191.961a5.468,5.468,0,0,1,3.262-5,5.47,5.47,0,1,0,0,10A5.468,5.468,0,0,1,424.573,191.961Z" transform="translate(-420.158 -186.491)" fill="#eef5f6"/></g><g transform="translate(9.854 0)"><path d="M195.731,258.617a17.613,17.613,0,0,0,16.544-11.645,1.957,1.957,0,1,0-3.685-1.32,13.657,13.657,0,1,1,.375-7.99,1.957,1.957,0,0,0,3.793-.966,17.573,17.573,0,1,0-17.028,21.921Z" transform="translate(-134.244 -165.163)" fill="#526271"/><path d="M217.509,252.942a9.883,9.883,0,1,0,9.883,9.883A9.894,9.894,0,0,0,217.509,252.942Zm0,15.851a5.969,5.969,0,1,1,5.969-5.969A5.976,5.976,0,0,1,217.509,268.793Z" transform="translate(-156.022 -186.942)" fill="#526271"/><path d="M125.742,74.051l-5.933-.1h-.058a3.356,3.356,0,0,0-3.342,3.248,45.143,45.143,0,0,1-45.067,43.773h-.353A45.284,45.284,0,0,1,26.277,77.327a6.481,6.481,0,0,0,1.665.217h.027l1.149,5.322a5.868,5.868,0,0,0,5.7,4.6h4.925a5.866,5.866,0,0,0,5.422-3.679h.691a26.583,26.583,0,0,0,1.869,4.515l-5.225,5.225a3.59,3.59,0,0,0-.314,4.712,36.955,36.955,0,0,0,6.788,6.788,3.59,3.59,0,0,0,4.712-.314l5.225-5.225a26.613,26.613,0,0,0,4.515,1.869v7.392a3.588,3.588,0,0,0,3.109,3.553,36.982,36.982,0,0,0,9.6,0,3.589,3.589,0,0,0,3.109-3.553v-7.392a26.582,26.582,0,0,0,4.515-1.869l5.225,5.225a3.59,3.59,0,0,0,4.712.314,36.938,36.938,0,0,0,6.788-6.788,3.589,3.589,0,0,0-.313-4.712l-5.225-5.225a26.6,26.6,0,0,0,1.869-4.515h7.392a3.588,3.588,0,0,0,3.553-3.109,37.013,37.013,0,0,0,0-9.6,3.589,3.589,0,0,0-3.553-3.109H96.821a26.577,26.577,0,0,0-1.869-4.515l5.225-5.225a3.59,3.59,0,0,0,.314-4.712A36.94,36.94,0,0,0,93.7,46.733a3.59,3.59,0,0,0-4.712.314l-5.225,5.225A26.6,26.6,0,0,0,79.25,50.4V43.01a3.589,3.589,0,0,0-3.109-3.553,37.185,37.185,0,0,0-9.6,0,3.589,3.589,0,0,0-3.109,3.553V50.4a26.576,26.576,0,0,0-4.515,1.869l-3.99-3.989A27.186,27.186,0,0,0,64.34,31.337a45.5,45.5,0,0,1,7-.542h38.117v2.494a2.828,2.828,0,0,0,4.395,2.355l13.237-8.807a2.828,2.828,0,0,0,0-4.709l-13.237-8.807a2.828,2.828,0,0,0-4.395,2.355v2.494H71.823a58.148,58.148,0,0,0-8.563.638A27.39,27.39,0,1,0,20.412,48.983a56.484,56.484,0,0,0-6.783,26.87,57.682,57.682,0,0,0,94.187,44.72,1.957,1.957,0,0,0-2.478-3.03,53.8,53.8,0,0,1-87.8-41.688A52.578,52.578,0,0,1,23.093,52.33a9.553,9.553,0,0,1,.436,1.116l.955,3.021a6.487,6.487,0,0,0-1.232,9.986c-.009.044-.018.088-.027.132a6.481,6.481,0,0,0-.858,7.793c-.019.627-.03,1.256-.025,1.887a49.137,49.137,0,0,0,48.617,48.618h.384A49.059,49.059,0,0,0,120.3,77.873l4.8.082a53.818,53.818,0,0,1-13.412,33.472,1.957,1.957,0,1,0,2.935,2.589,57.73,57.73,0,0,0,14.408-36.526,3.349,3.349,0,0,0-3.29-3.439ZM25.358,61.964a2.587,2.587,0,0,1,2.584-2.584H46.534a2.584,2.584,0,0,1,0,5.168H27.943A2.587,2.587,0,0,1,25.358,61.964Zm11.88-30.111a4.468,4.468,0,1,1,4.468-4.468A4.473,4.473,0,0,1,37.238,31.852Zm11.88,39.194a2.587,2.587,0,0,1-2.584,2.584H27.942a2.584,2.584,0,1,1,0-5.168H46.534A2.587,2.587,0,0,1,49.118,71.046Zm-9.37,12.511H34.823a1.933,1.933,0,0,1-1.879-1.517l-.97-4.5H42.561l-.931,4.481A1.93,1.93,0,0,1,39.748,83.557ZM60.56,55.83a22.662,22.662,0,0,1,4.225-1.749,3.563,3.563,0,0,0,2.56-3.43V43.3a33.258,33.258,0,0,1,7.991,0v7.35a3.563,3.563,0,0,0,2.56,3.43,22.663,22.663,0,0,1,4.225,1.749,3.563,3.563,0,0,0,4.236-.615l5.2-5.2A33.022,33.022,0,0,1,97.2,55.671l-5.2,5.2a3.564,3.564,0,0,0-.616,4.236,22.654,22.654,0,0,1,1.749,4.225,3.563,3.563,0,0,0,3.43,2.56h7.35a33.086,33.086,0,0,1,0,7.991h-7.35a3.563,3.563,0,0,0-3.43,2.56,22.666,22.666,0,0,1-1.749,4.225,3.564,3.564,0,0,0,.616,4.236l5.2,5.2a33.049,33.049,0,0,1-5.651,5.651l-5.2-5.2a3.564,3.564,0,0,0-4.236-.616A22.662,22.662,0,0,1,77.9,97.683a3.563,3.563,0,0,0-2.56,3.43v7.35a33.231,33.231,0,0,1-7.991,0v-7.35a3.563,3.563,0,0,0-2.56-3.43,22.672,22.672,0,0,1-4.225-1.749,3.564,3.564,0,0,0-4.236.616l-5.2,5.2a33.028,33.028,0,0,1-5.651-5.651l5.2-5.2a3.564,3.564,0,0,0,.616-4.236,22.663,22.663,0,0,1-1.749-4.225,3.563,3.563,0,0,0-3.43-2.56h-.036l.485-2.335A6.493,6.493,0,0,0,51.175,66.5a6.487,6.487,0,0,0-1.183-10.038l.974-3.082a8.726,8.726,0,0,1,1.168-2.359l4.189,4.189a3.563,3.563,0,0,0,4.236.616ZM71.823,22.084h39.012a2.541,2.541,0,0,0,2.538-2.538V17.7l10.192,6.78-10.192,6.78V29.419a2.541,2.541,0,0,0-2.538-2.538H71.341a49.5,49.5,0,0,0-6.719.458,27.755,27.755,0,0,0-.409-4.718,54.309,54.309,0,0,1,7.61-.539ZM13.776,26.739A23.471,23.471,0,1,1,51.69,45.874a13.036,13.036,0,0,0-4.455,6.331l-1.03,3.26h-7.01V43.97A16.624,16.624,0,0,0,53.162,32.423a1.957,1.957,0,1,0-3.732-1.18,12.726,12.726,0,0,1-10.235,8.777V35.533a8.383,8.383,0,1,0-3.914,0V40.02a12.786,12.786,0,1,1,14.08-16.7,1.957,1.957,0,0,0,3.711-1.243A16.7,16.7,0,1,0,35.281,43.965v11.5H28.271l-1.011-3.2a12.71,12.71,0,0,0-4.34-6.288,23.574,23.574,0,0,1-9.145-19.239Z" transform="translate(-9.854 0)" fill="#526271"/><path d="M411.486,165.392l-6.258-10.839a3.418,3.418,0,0,0-2.952-1.7H389.76a3.419,3.419,0,0,0-2.952,1.7l-6.258,10.839a3.418,3.418,0,0,0,0,3.409l6.258,10.839a3.419,3.419,0,0,0,2.952,1.7h12.516a3.418,3.418,0,0,0,2.952-1.7l6.258-10.839A3.417,3.417,0,0,0,411.486,165.392Zm-9.5,12.039H390.052L384.085,167.1l5.966-10.334h11.933l5.966,10.334Z" transform="translate(-283.489 -112.966)" fill="#526271"/><path d="M420.085,178.991a7.427,7.427,0,1,0,7.427,7.427A7.435,7.435,0,0,0,420.085,178.991Zm0,10.939a3.513,3.513,0,1,1,3.513-3.513A3.517,3.517,0,0,1,420.085,189.93Z" transform="translate(-307.555 -132.287)" fill="#526271"/></g></g></svg>