<svg xmlns="http://www.w3.org/2000/svg" width="154.902" height="154.937" viewBox="0 0 154.902 154.937"><g transform="translate(-819 -2051)"><circle cx="16" cy="16" r="16" transform="translate(839 2092)" fill="#2595d3"/><circle cx="25.5" cy="25.5" r="25.5" transform="translate(860 2073)" fill="#2595d3"/><circle cx="27.5" cy="27.5" r="27.5" transform="translate(882 2063)" fill="#2595d3"/><circle cx="23.5" cy="23.5" r="23.5" transform="translate(903 2077)" fill="#2595d3"/><rect width="73" height="16" transform="translate(855 2108)" fill="#2595d3"/><g transform="translate(818.943 2051)"><path d="M151.264,107.8H135.08v-6.813a9.148,9.148,0,0,0-9.137-9.137H79.777V83.807h22.754a8.306,8.306,0,0,0,8.3-8.3v-.563h2.062a26.11,26.11,0,0,0,18.634-7.792A25.526,25.526,0,0,0,139.057,48.9a25.92,25.92,0,0,0-20.04-25.048.075.075,0,0,1-.053-.054,29.993,29.993,0,0,0-6.385-13.083,2.269,2.269,0,0,0-3.475,2.92,25.445,25.445,0,0,1,5.417,11.1,4.623,4.623,0,0,0,3.472,3.544,21.468,21.468,0,0,1,11.769,7.378,21.1,21.1,0,0,1-1.459,28.3,21.6,21.6,0,0,1-15.414,6.453h-74.6a17.782,17.782,0,0,1-12.707-5.328A17.243,17.243,0,0,1,20.5,52.725,17.6,17.6,0,0,1,36.793,35.4a4.622,4.622,0,0,0,4.185-3.581,20.094,20.094,0,0,1,6.966-11,19.741,19.741,0,0,1,12.478-4.389,20.1,20.1,0,0,1,3.984.4,4.626,4.626,0,0,0,4.66-1.816A25.4,25.4,0,0,1,102.755,8.2a2.27,2.27,0,1,0,2.351-3.883,29.935,29.935,0,0,0-39.715,8.039.085.085,0,0,1-.083.031,24.551,24.551,0,0,0-28.748,18.4c-.012.051-.048.093-.081.094a22.163,22.163,0,0,0-20.52,21.809,21.751,21.751,0,0,0,6.4,15.592,22.288,22.288,0,0,0,15.931,6.672h5.9v.563a8.306,8.306,0,0,0,8.3,8.3h7.784a2.27,2.27,0,1,0,0-4.539H52.485a3.761,3.761,0,0,1-3.757-3.757v-.563h57.561v.563a3.761,3.761,0,0,1-3.757,3.757H69.343a2.27,2.27,0,0,0,0,4.539h5.9v8.041H29.073a9.148,9.148,0,0,0-9.137,9.137V107.8H3.752a3.7,3.7,0,0,0-3.7,3.7v26.338a3.705,3.705,0,0,0,1.523,2.989l18.454,13.408a3.686,3.686,0,0,0,4.344,0L42.83,140.822a3.7,3.7,0,0,0,1.525-2.99V111.494a3.7,3.7,0,0,0-3.7-3.7H24.475v-6.813a4.6,4.6,0,0,1,4.6-4.6H75.238V107.8H59.054a3.7,3.7,0,0,0-3.7,3.7v26.338a3.705,3.705,0,0,0,1.523,2.989l18.454,13.408a3.686,3.686,0,0,0,4.344,0l18.453-13.407a3.7,3.7,0,0,0,1.525-2.99V111.494a3.7,3.7,0,0,0-3.7-3.7H79.778V96.387h46.165a4.6,4.6,0,0,1,4.6,4.6V107.8H114.357a3.7,3.7,0,0,0-3.7,3.7v10.286a2.27,2.27,0,1,0,4.539,0v-9.442H150.42V137.4L132.81,150.2,115.2,137.4v-6.548a2.27,2.27,0,0,0-4.539,0v6.978a3.705,3.705,0,0,0,1.523,2.989l18.454,13.408a3.687,3.687,0,0,0,4.344,0l18.454-13.407a3.705,3.705,0,0,0,1.523-2.989V111.494A3.7,3.7,0,0,0,151.264,107.8ZM39.816,137.4,22.206,150.2,4.6,137.4V112.338h35.22V137.4Zm55.3,0L77.508,150.2,59.9,137.4V112.338h35.22V137.4Z" fill="#526271"/></g><path d="M-5392.655-18216.73h14.889v11.137l-7.364,6.035-7.364-6.035Z" transform="translate(6226 20389.775)" fill="#2595d3"/><path d="M-5392.655-18216.73h14.889v11.137l-7.364,6.035-7.364-6.035Z" transform="translate(6281.661 20389.775)" fill="#2595d3"/><path d="M-5392.655-18216.73h14.889v11.137l-7.364,6.035-7.364-6.035Z" transform="translate(6337.322 20389.775)" fill="#2595d3"/></g></svg>