<svg xmlns="http://www.w3.org/2000/svg" width="148.115" height="140.518" viewBox="0 0 148.115 140.518"><g transform="translate(0 -13.131)"><rect width="56" height="5" transform="translate(7.63 103.131)" fill="#2595d3"/><rect width="56" height="5" transform="translate(81.63 103.131)" fill="#2595d3"/><g transform="translate(30.223 15.301)"><g transform="translate(78.317 27.671)"><circle cx="4.676" cy="4.676" r="4.676" fill="#2595d3"/></g><g transform="translate(72.472 8.969)"><circle cx="4.676" cy="4.676" r="4.676" fill="#2595d3"/></g><g transform="translate(72.472 46.374)"><circle cx="4.676" cy="4.676" r="4.676" fill="#2595d3"/></g><g transform="translate(0 27.671)"><circle cx="4.676" cy="4.676" r="4.676" fill="#2595d3"/></g><g transform="translate(5.844 8.969)"><circle cx="4.676" cy="4.676" r="4.676" fill="#2595d3"/></g><g transform="translate(5.844 46.374)"><circle cx="4.676" cy="4.676" r="4.676" fill="#2595d3"/></g></g><g transform="translate(69.382 82.513)"><circle cx="4.676" cy="4.676" r="4.676" fill="#2595d3"/></g><path d="M145.945,139.957h-2.213v-35.82a5.1,5.1,0,0,0-5.091-5.091h-5.314a2.17,2.17,0,0,0,0,4.339h5.314a.753.753,0,0,1,.752.752v35.819H85.288V104.137a.753.753,0,0,1,.752-.752H123.2a2.17,2.17,0,1,0,0-4.339h-8.693V87.188a2.169,2.169,0,0,0-2.17-2.17H80.548A6.876,6.876,0,0,0,76.227,80.7v-6.65A20.906,20.906,0,0,0,92.289,63.433l4.836,4.5a2.169,2.169,0,0,0,1.479.582h2.276a6.845,6.845,0,1,0,0-4.339H99.458L94.08,59.171a20.8,20.8,0,0,0,.85-5.882V49.817h11.8a6.845,6.845,0,1,0,0-4.339h-11.8V35.265l4.52-4.15h1.431a6.845,6.845,0,1,0,0-4.339H98.6a2.169,2.169,0,0,0-1.467.572l-2.77,2.543a8.032,8.032,0,0,0-6.614-5.026,13.859,13.859,0,0,0-27.391,0,8.032,8.032,0,0,0-6.614,5.026l-2.77-2.543a2.169,2.169,0,0,0-1.467-.572H47.234a6.845,6.845,0,1,0,0,4.339h1.431l4.52,4.15V45.478H41.39a6.845,6.845,0,1,0,0,4.339h11.8v3.472a20.871,20.871,0,0,0,.851,5.881l-5.38,5.01H47.234a6.845,6.845,0,1,0,0,4.339h2.276a2.168,2.168,0,0,0,1.479-.582l4.833-4.5a20.714,20.714,0,0,0,2.308,3.341,2.17,2.17,0,1,0,3.307-2.809,16.511,16.511,0,0,1-3.913-10.679V32.833A3.678,3.678,0,0,1,61.2,29.159H71.888V51.172a2.17,2.17,0,0,0,4.339,0V29.16H86.916a3.678,3.678,0,0,1,3.674,3.674V53.289A16.545,16.545,0,0,1,68.769,68.958a2.17,2.17,0,1,0-1.388,4.112,20.749,20.749,0,0,0,4.507.976V80.7a6.876,6.876,0,0,0-4.321,4.321H35.776a2.169,2.169,0,0,0-2.17,2.17V99.046H9.475a5.1,5.1,0,0,0-5.092,5.092v35.819H2.17A2.169,2.169,0,0,0,0,142.126v6.431a5.1,5.1,0,0,0,5.091,5.092H8.838a2.17,2.17,0,1,0,0-4.339H5.091a.753.753,0,0,1-.752-.752V144.3H67.213v4.261a.753.753,0,0,1-.752.752h-47.5a2.17,2.17,0,1,0,0,4.339h47.5a5.1,5.1,0,0,0,5.091-5.092v-6.431a2.169,2.169,0,0,0-2.17-2.17H67.168V104.138a5.1,5.1,0,0,0-5.092-5.092H37.945V89.358H67.566a6.843,6.843,0,0,0,12.982,0h29.621v9.688H86.04a5.1,5.1,0,0,0-5.091,5.091v35.82H78.733a2.169,2.169,0,0,0-2.17,2.17v6.429a5.1,5.1,0,0,0,5.092,5.092h61.368a5.1,5.1,0,0,0,5.092-5.092v-6.429a2.17,2.17,0,0,0-2.17-2.17ZM107.371,63.844a2.506,2.506,0,1,1-2.506,2.506A2.509,2.509,0,0,1,107.371,63.844Zm5.844-18.7a2.506,2.506,0,1,1-2.506,2.506A2.509,2.509,0,0,1,113.216,45.142Zm-5.844-18.7a2.506,2.506,0,1,1-2.506,2.506A2.509,2.509,0,0,1,107.371,26.439ZM40.744,31.451a2.506,2.506,0,1,1,2.506-2.506A2.509,2.509,0,0,1,40.744,31.451ZM34.9,50.154a2.506,2.506,0,1,1,2.506-2.506A2.509,2.509,0,0,1,34.9,50.154Zm5.844,18.7A2.506,2.506,0,1,1,43.25,66.35,2.509,2.509,0,0,1,40.744,68.856ZM74.057,17.47a9.534,9.534,0,0,1,9.267,7.35H64.79A9.534,9.534,0,0,1,74.057,17.47ZM62.829,104.138v35.819H8.723V104.138a.753.753,0,0,1,.753-.753h52.6A.753.753,0,0,1,62.829,104.138ZM74.057,89.694a2.506,2.506,0,1,1,2.506-2.506A2.509,2.509,0,0,1,74.057,89.694Zm69.718,58.862a.753.753,0,0,1-.753.753H81.656a.753.753,0,0,1-.753-.753V144.3h62.873Z" transform="translate(0 0)" fill="#526271"/></g></svg>