<svg xmlns="http://www.w3.org/2000/svg" width="134.691" height="134.691" viewBox="0 0 134.691 134.691"><g transform="translate(0)"><g transform="translate(18.449 18.449)"><g transform="translate(0 2.689)"><ellipse cx="45.14" cy="46.052" rx="45.14" ry="46.052" transform="translate(0 3)" fill="#2595d3"/></g></g><g transform="translate(88.627 1.973)"><circle cx="22.046" cy="22.046" r="22.046" fill="#fff"/><g transform="translate(3.907 3.906)"><path d="M382.415,22.349a22.046,22.046,0,0,1-30.669,30.669,22.046,22.046,0,1,0,30.669-30.669Z" transform="translate(-351.746 -22.349)" fill="#fff"/></g><g transform="translate(15.288 8.53)"><circle cx="6.758" cy="6.758" r="6.758" fill="#fff"/></g><g transform="translate(9.941 22.046)"><path d="M386.79,91.3a15.181,15.181,0,0,0-12.1,6,13.508,13.508,0,0,0,24.209,0A15.18,15.18,0,0,0,386.79,91.3Z" transform="translate(-374.685 -91.302)" fill="#fff"/></g></g><g transform="translate(1.973 88.627)"><circle cx="22.046" cy="22.046" r="22.046" fill="#fff"/><g transform="translate(3.906 3.906)"><path d="M53.018,351.745a22.046,22.046,0,0,1-30.669,30.669,22.046,22.046,0,1,0,30.669-30.669Z" transform="translate(-22.349 -351.745)" fill="#fff"/></g><g transform="translate(15.288 8.53)"><circle cx="6.758" cy="6.758" r="6.758" fill="#fff"/></g><g transform="translate(9.941 22.046)"><path d="M57.394,420.7a15.181,15.181,0,0,0-12.1,6,13.508,13.508,0,0,0,24.209,0A15.181,15.181,0,0,0,57.394,420.7Z" transform="translate(-45.289 -420.698)" fill="#fff"/></g></g><g transform="translate(88.627 88.627)"><circle cx="22.046" cy="22.046" r="22.046" fill="#fff"/><g transform="translate(3.907 3.906)"><path d="M382.415,351.745a22.046,22.046,0,0,1-30.669,30.669,22.046,22.046,0,1,0,30.669-30.669Z" transform="translate(-351.746 -351.745)" fill="#fff"/></g><g transform="translate(15.288 8.53)"><circle cx="6.758" cy="6.758" r="6.758" fill="#fff"/></g><g transform="translate(9.941 22.046)"><path d="M386.79,420.7a15.181,15.181,0,0,0-12.1,6,13.508,13.508,0,0,0,24.209,0A15.18,15.18,0,0,0,386.79,420.7Z" transform="translate(-374.685 -420.698)" fill="#fff"/></g></g><g transform="translate(1.973 1.973)"><circle cx="22.046" cy="22.046" r="22.046" fill="#fff"/><g transform="translate(3.906 3.906)"><path d="M53.018,22.349A22.046,22.046,0,0,1,22.349,53.018,22.046,22.046,0,1,0,53.018,22.349Z" transform="translate(-22.349 -22.349)" fill="#fff"/></g><g transform="translate(15.288 8.53)"><circle cx="6.758" cy="6.758" r="6.758" fill="#fff"/></g><g transform="translate(9.941 22.046)"><path d="M57.394,91.3a15.181,15.181,0,0,0-12.1,6,13.508,13.508,0,0,0,24.209,0A15.181,15.181,0,0,0,57.394,91.3Z" transform="translate(-45.289 -91.302)" fill="#fff"/></g></g><g transform="translate(0 0)"><path d="M197.764,475.7c-1.378-.245-2.762-.543-4.115-.884a1.973,1.973,0,1,0-.966,3.826c1.443.365,2.92.682,4.389.944a1.973,1.973,0,1,0,.692-3.885Z" transform="translate(-140.896 -349.859)" fill="#526271"/><path d="M246.54,481.7h-.07c-1.387.048-2.806.049-4.212,0a1.973,1.973,0,1,0-.137,3.943c.747.026,1.5.039,2.248.039s1.5-.013,2.24-.039a1.973,1.973,0,0,0-.068-3.945Z" transform="translate(-177.023 -354.981)" fill="#526271"/><path d="M295.354,474.82c-1.354.342-2.738.639-4.115.884a1.973,1.973,0,1,0,.691,3.885c1.469-.261,2.946-.579,4.39-.943a1.973,1.973,0,1,0-.966-3.826Z" transform="translate(-213.423 -349.865)" fill="#526271"/><path d="M193.164,23.631a1.972,1.972,0,0,0,.485-.061c1.353-.341,2.737-.639,4.115-.884a1.973,1.973,0,1,0-.692-3.885c-1.469.262-2.946.579-4.389.944a1.973,1.973,0,0,0,.482,3.886Z" transform="translate(-140.896 -13.833)" fill="#526271"/><path d="M242.189,19.137h.07c1.406-.049,2.826-.049,4.212,0h.07a1.973,1.973,0,0,0,.068-3.945c-1.478-.052-2.99-.052-4.487,0a1.973,1.973,0,0,0,.067,3.945Z" transform="translate(-177.024 -11.167)" fill="#526271"/><path d="M291.24,22.679c1.377.245,2.761.542,4.115.884a1.973,1.973,0,1,0,.966-3.826c-1.444-.365-2.921-.682-4.39-.943a1.973,1.973,0,0,0-.691,3.885Z" transform="translate(-213.424 -13.827)" fill="#526271"/><path d="M476.25,297.749a1.971,1.971,0,0,0,2.4-1.43c.365-1.444.682-2.921.943-4.39a1.973,1.973,0,0,0-3.885-.691c-.245,1.377-.542,2.761-.884,4.115a1.972,1.972,0,0,0,1.43,2.4Z" transform="translate(-349.865 -213.423)" fill="#526271"/><path d="M485.648,246.607c.026-.74.039-1.494.039-2.24s-.013-1.5-.039-2.248a1.973,1.973,0,1,0-3.943.137c.024.7.037,1.412.037,2.11s-.012,1.408-.037,2.1a1.973,1.973,0,0,0,1.9,2.041h.07a1.973,1.973,0,0,0,1.97-1.9Z" transform="translate(-354.982 -177.022)" fill="#526271"/><path d="M477.638,199.392a1.974,1.974,0,0,0,1.945-2.319c-.262-1.469-.579-2.946-.944-4.389a1.973,1.973,0,0,0-3.826.966c.341,1.353.639,2.737.884,4.115A1.974,1.974,0,0,0,477.638,199.392Z" transform="translate(-349.86 -140.896)" fill="#526271"/><path d="M22.134,191.281a1.972,1.972,0,0,0-2.4,1.43c-.365,1.445-.682,2.922-.943,4.39a1.973,1.973,0,1,0,3.885.691c.245-1.376.542-2.76.884-4.115a1.973,1.973,0,0,0-1.43-2.4Z" transform="translate(-13.828 -140.916)" fill="#526271"/><path d="M20.4,289.673a1.973,1.973,0,0,0-1.6,2.288c.261,1.468.579,2.945.944,4.39a1.973,1.973,0,1,0,3.826-.966c-.342-1.354-.64-2.738-.884-4.114A1.973,1.973,0,0,0,20.4,289.673Z" transform="translate(-13.832 -213.446)" fill="#526271"/><path d="M15.192,242.15c-.026.741-.039,1.495-.039,2.24s.013,1.505.039,2.248a1.973,1.973,0,0,0,1.971,1.9h.07a1.973,1.973,0,0,0,1.9-2.041c-.024-.7-.037-1.407-.037-2.11s.012-1.407.037-2.1a1.973,1.973,0,0,0-3.944-.137Z" transform="translate(-11.167 -177.044)" fill="#526271"/><path d="M367.589,52.722a1.974,1.974,0,0,0-.2,2.075,15.481,15.481,0,0,0,27.742,0,1.974,1.974,0,0,0-.2-2.075,17.113,17.113,0,0,0-7.333-5.575,8.731,8.731,0,1,0-12.684,0,17.115,17.115,0,0,0-7.333,5.575Zm8.89-11.566a4.785,4.785,0,1,1,4.785,4.785A4.79,4.79,0,0,1,376.478,41.156Zm4.785,8.731a13.125,13.125,0,0,1,9.717,4.249,11.533,11.533,0,0,1-19.433,0A13.125,13.125,0,0,1,381.263,49.887Z" transform="translate(-270.591 -23.895)" fill="#526271"/><path d="M38.191,382.118a1.973,1.973,0,0,0-.2,2.075,15.481,15.481,0,0,0,27.741,0,1.973,1.973,0,0,0-.2-2.075,17.115,17.115,0,0,0-7.333-5.575,8.731,8.731,0,1,0-12.684,0A17.115,17.115,0,0,0,38.191,382.118Zm8.89-11.566a4.785,4.785,0,1,1,4.785,4.785A4.791,4.791,0,0,1,47.081,370.552Zm4.785,8.731a13.125,13.125,0,0,1,9.717,4.249,11.533,11.533,0,0,1-19.433,0A13.125,13.125,0,0,1,51.866,379.283Z" transform="translate(-27.847 -266.637)" fill="#526271"/><path d="M130.864,101.6a1.973,1.973,0,0,0-1.217,2.511,20.094,20.094,0,1,1-4.314-7.146,1.973,1.973,0,0,0,2.882-2.7,23.852,23.852,0,0,0-2.478-2.294c.077-.182.156-.365.23-.546a1.973,1.973,0,0,0-3.554-1.7,24.157,24.157,0,0,0-8.106-2.793,51.036,51.036,0,0,0,0-39.173,23.842,23.842,0,0,0,8.108-2.8,1.971,1.971,0,0,0,3.55-1.7c-.075-.183-.155-.368-.233-.552a24.008,24.008,0,0,0,5.78-30.64,1.973,1.973,0,1,0-3.421,1.966,20.1,20.1,0,1,1-5.565-6.216,1.973,1.973,0,0,0,2.335-3.181A24,24,0,0,0,91.978,8.958c-.184-.078-.369-.157-.552-.233a1.973,1.973,0,0,0-1.7,3.553,23.838,23.838,0,0,0-2.8,8.1,51.037,51.037,0,0,0-39.167,0,23.84,23.84,0,0,0-2.8-8.1,1.973,1.973,0,0,0-1.7-3.553c-.183.075-.368.155-.552.233A24.008,24.008,0,1,0,8.957,42.713c-.078.184-.157.368-.232.551a1.971,1.971,0,0,0,3.55,1.7,23.837,23.837,0,0,0,8.108,2.8,51.036,51.036,0,0,0,0,39.168,23.835,23.835,0,0,0-8.1,2.8,1.973,1.973,0,0,0-3.553,1.7c.076.184.155.368.233.552A24.017,24.017,0,0,0,2.1,120.513,1.973,1.973,0,0,0,5.7,118.9a20.1,20.1,0,1,1,4.926,6.729,1.973,1.973,0,0,0-2.635,2.938,24,24,0,0,0,34.72-2.829c.184.078.369.157.552.233a1.973,1.973,0,0,0,1.7-3.554,23.834,23.834,0,0,0,2.8-8.1,51.036,51.036,0,0,0,39.168,0,23.84,23.84,0,0,0,2.8,8.1,1.972,1.972,0,0,0,1.7,3.553c.183-.075.368-.155.552-.233a24.017,24.017,0,0,0,41.4-22.918A1.973,1.973,0,0,0,130.864,101.6ZM24.571,86.662a46.34,46.34,0,0,1-4.1-17.343H33.639A72.014,72.014,0,0,0,37.34,90.7,23.874,23.874,0,0,0,24.571,86.662ZM37.339,44a72.013,72.013,0,0,0-3.7,21.378H20.467a46.341,46.341,0,0,1,4.1-17.342A23.873,23.873,0,0,0,37.339,44Zm72.781,4.034a46.343,46.343,0,0,1,4.1,17.343H101.052a72.014,72.014,0,0,0-3.7-21.379A23.874,23.874,0,0,0,110.12,48.029ZM97.352,90.7a72.014,72.014,0,0,0,3.7-21.379h13.173a46.348,46.348,0,0,1-4.1,17.343A23.874,23.874,0,0,0,97.352,90.7ZM65.373,65.373H37.586a67.092,67.092,0,0,1,4.137-21.916H65.373Zm3.946-21.916H92.968a67.092,67.092,0,0,1,4.137,21.916H69.319ZM65.373,69.319V91.211H41.715a67.1,67.1,0,0,1-4.128-21.892Zm3.946,0H97.105a67.1,67.1,0,0,1-4.128,21.892H69.319ZM91.293,39.511H69.319V20.527c7.06.734,13.685,5.4,18.83,13.318A48.228,48.228,0,0,1,91.293,39.511ZM65.373,20.527V39.511H43.4a48.155,48.155,0,0,1,3.144-5.665c5.146-7.922,11.77-12.584,18.83-13.318ZM43.387,95.157H65.373v19.008c-7.06-.734-13.685-5.4-18.83-13.318a48.2,48.2,0,0,1-3.155-5.689Zm25.932,19.007V95.157H91.3a48.234,48.234,0,0,1-3.155,5.689C83,108.768,76.379,113.43,69.319,114.164ZM3.946,24.019A20.073,20.073,0,1,1,24.019,44.091,20.1,20.1,0,0,1,3.946,24.019Z" transform="translate(0 0)" fill="#526271"/><path d="M367.589,382.119a1.974,1.974,0,0,0-.2,2.075,15.481,15.481,0,0,0,27.742,0,1.974,1.974,0,0,0-.2-2.075,17.113,17.113,0,0,0-7.333-5.575,8.731,8.731,0,1,0-12.683,0A17.109,17.109,0,0,0,367.589,382.119Zm8.89-11.566a4.785,4.785,0,1,1,4.785,4.785A4.79,4.79,0,0,1,376.478,370.553Zm4.785,8.731a13.125,13.125,0,0,1,9.717,4.249,11.533,11.533,0,0,1-19.433,0A13.125,13.125,0,0,1,381.263,379.283Z" transform="translate(-270.591 -266.638)" fill="#526271"/><path d="M51.866,63.4A15.417,15.417,0,0,0,65.737,54.8a1.973,1.973,0,0,0-.2-2.075,17.115,17.115,0,0,0-7.333-5.575,8.731,8.731,0,1,0-12.684,0,17.116,17.116,0,0,0-7.333,5.574A1.973,1.973,0,0,0,38,54.8,15.417,15.417,0,0,0,51.866,63.4ZM47.081,41.155a4.785,4.785,0,1,1,4.785,4.785A4.791,4.791,0,0,1,47.081,41.155Zm4.785,8.731a13.125,13.125,0,0,1,9.717,4.249,11.533,11.533,0,0,1-19.433,0,13.125,13.125,0,0,1,9.717-4.249Z" transform="translate(-27.847 -23.894)" fill="#526271"/></g></g></svg>