<svg xmlns="http://www.w3.org/2000/svg" width="168.104" height="140.517" viewBox="0 0 168.104 140.517"><g transform="translate(0 -42.01)"><g transform="translate(2.462 48.213)"><g transform="translate(0)"><g transform="translate(0 3.599)"><path d="M126.33,76.209H7.5V63.561A2.953,2.953,0,0,1,10.678,60.9H123.152a2.953,2.953,0,0,1,3.178,2.658Z" transform="translate(-7.5 -60.903)" fill="#2595d3"/></g><g transform="translate(9.745 28.65)"><path d="M140.473,181.988V149.965a1.8,1.8,0,0,0-1.8-1.8H38.983a1.8,1.8,0,0,0-1.8,1.8v56.419a1.8,1.8,0,0,0,1.8,1.8h80.132a36.051,36.051,0,0,1,21.358-26.2Z" transform="translate(-37.18 -148.162)" fill="#fff"/></g><g transform="translate(9.745 28.65)"><path d="M45.459,206.385V149.965a1.8,1.8,0,0,1,1.8-1.8H38.984a1.8,1.8,0,0,0-1.8,1.8v56.419a1.8,1.8,0,0,0,1.8,1.8h8.279A1.8,1.8,0,0,1,45.459,206.385Z" transform="translate(-37.18 -148.162)" fill="#eef5f6"/></g><g transform="translate(9.744 98.53)"><circle cx="5.108" cy="5.108" r="5.108" fill="#2595d3"/><g transform="translate(31.128)"><circle cx="5.108" cy="5.108" r="5.108" fill="#2595d3"/><g transform="translate(30.82)"><circle cx="5.108" cy="5.108" r="5.108" fill="#2595d3"/></g></g></g><g transform="translate(90.679 59.352)"><g transform="translate(0 0)"><ellipse cx="34.75" cy="34.25" rx="34.75" ry="34.25" transform="translate(0 4)" fill="#2595d3"/></g><g transform="translate(10.014 10.014)"><circle cx="26.236" cy="26.236" r="26.236" fill="#fff"/></g></g></g></g><g transform="translate(0 42.01)"><path d="M153.46,113.517V77.857h3.533a3.447,3.447,0,0,0,2.793-5.468L148.374,56.609a3.459,3.459,0,0,0-2.779-1.428h-.014a3.459,3.459,0,0,0-2.777,1.4l-11.61,15.781a3.447,3.447,0,0,0,2.776,5.491h3.746v9.13a2.462,2.462,0,1,0,4.925,0V76.38a3.451,3.451,0,0,0-3.447-3.447h-2.3l8.679-11.8,8.531,11.8h-2.119a3.451,3.451,0,0,0-3.447,3.447v33.8a38.548,38.548,0,0,0-5.894-2.738v-8.96a2.462,2.462,0,1,0-4.925,0v7.528a38.692,38.692,0,0,0-8.324-.9c-.564,0-1.125.015-1.684.039V51.5a5.752,5.752,0,0,0-5.746-5.746h-9.509V44.472a2.462,2.462,0,0,0-4.925,0v1.278H99.27V44.472a2.462,2.462,0,1,0-4.925,0v1.278H86.089V44.472a2.462,2.462,0,1,0-4.925,0v1.278H72.907V44.472a2.462,2.462,0,1,0-4.925,0v1.278H59.726V44.472a2.462,2.462,0,0,0-4.925,0v1.278H46.544V44.472a2.462,2.462,0,0,0-4.925,0v1.278H33.361V44.472a2.462,2.462,0,0,0-4.925,0v1.278H20.18V44.472a2.462,2.462,0,0,0-4.925,0v1.278H5.746A5.752,5.752,0,0,0,0,51.5V165.541a5.752,5.752,0,0,0,5.746,5.746h96.4a38.675,38.675,0,0,0,50.038,3.821,2.462,2.462,0,1,0-2.9-3.979,33.78,33.78,0,1,1,7.553-7.6,2.462,2.462,0,1,0,4,2.877,38.686,38.686,0,0,0-7.37-52.889ZM4.925,165.541V69.58H25.609a2.462,2.462,0,1,0,0-4.925H4.925V51.5a.822.822,0,0,1,.821-.821h9.509v4.164a2.462,2.462,0,1,0,4.925,0V50.676h8.256v4.164a2.462,2.462,0,1,0,4.925,0V50.676h8.257v4.164a2.462,2.462,0,1,0,4.925,0V50.676H54.8v4.164a2.462,2.462,0,1,0,4.925,0V50.676h8.257v4.164a2.462,2.462,0,1,0,4.925,0V50.676h8.256v4.164a2.462,2.462,0,1,0,4.925,0V50.676h8.257v4.164a2.462,2.462,0,1,0,4.925,0V50.676h8.258v4.164a2.462,2.462,0,1,0,4.925,0V50.676h9.509a.822.822,0,0,1,.821.821V64.655H37.1a2.462,2.462,0,1,0,0,4.925h85.681v36.094a38.458,38.458,0,0,0-4.82,1.15V78.666A4.271,4.271,0,0,0,113.7,74.4H14.011a4.271,4.271,0,0,0-4.266,4.266v56.419a4.271,4.271,0,0,0,4.266,4.266H90.937a38.771,38.771,0,0,0,.169,10.213H86.48a7.57,7.57,0,0,0-14.433,0H55.661a7.57,7.57,0,0,0-14.433,0h-16.7a7.571,7.571,0,1,0-.121,4.925H41.348a7.57,7.57,0,0,0,14.19,0h16.63a7.57,7.57,0,0,0,14.19,0h5.818a38.583,38.583,0,0,0,5.765,11.872H5.746a.822.822,0,0,1-.821-.821Zm94.961-61.127V93.747h13.151v10.666Zm-38.5,0H49.531V93.747h11.86Zm4.925-10.666h11.86v10.666H66.316Zm-21.71,10.666H32.746V93.747h11.86Zm-16.785,0H14.67V93.747H27.821v10.666ZM14.67,109.338H27.821V120H14.67Zm18.076,0h11.86V120H32.746Zm16.785,0h11.86V120H49.531Zm16.785,0h11.86V120H66.316Zm16.785,0h11.86V120H83.1Zm0-4.925V93.747h11.86v10.666Zm29.937-15.591H99.886v-9.5h13.151Zm-18.076,0H83.1v-9.5h11.86Zm-16.785,0H66.316v-9.5h11.86Zm-16.785,0H49.531v-9.5h11.86Zm-16.785,0H32.746v-9.5h11.86Zm-16.785,0H14.67v-9.5H27.821v9.5ZM14.67,124.93H27.821v9.5H14.67Zm18.076,0h11.86v9.5H32.746Zm16.785,0h11.86v9.5H49.531Zm16.785,0h11.86v9.5H66.316Zm16.785,0h11.86v1.206a38.449,38.449,0,0,0-3.129,8.291H83.1v-9.5Zm16.785-6.141v-9.45h11.92A38.953,38.953,0,0,0,99.886,118.788ZM81.909,151.851a2.646,2.646,0,1,1-2.646-2.646A2.649,2.649,0,0,1,81.909,151.851Zm-30.82,0a2.646,2.646,0,1,1-2.646-2.646A2.649,2.649,0,0,1,51.089,151.851Zm-31.128,0a2.645,2.645,0,1,1-2.645-2.646A2.649,2.649,0,0,1,19.961,151.851Z" transform="translate(0 -42.01)" fill="#526271"/><path d="M335.382,264.673a28.7,28.7,0,1,0,28.7,28.7A28.731,28.731,0,0,0,335.382,264.673Zm0,52.472a23.774,23.774,0,1,1,23.774-23.773A23.8,23.8,0,0,1,335.382,317.145Z" transform="translate(-205.991 -191.567)" fill="#526271"/><path d="M403.142,308.1H391.517V292.723a2.462,2.462,0,1,0-4.925,0v17.835a2.462,2.462,0,0,0,2.462,2.462h14.088a2.462,2.462,0,1,0,0-4.925Z" transform="translate(-259.663 -208.753)" fill="#526271"/></g></g></svg>