<svg xmlns="http://www.w3.org/2000/svg" width="157.047" height="136.508" viewBox="0 0 157.047 136.508"><g transform="translate(0 -33.479)"><g transform="translate(144.831 91.938)"><circle cx="4.958" cy="4.958" r="4.958" fill="#2595d3"/></g><g transform="translate(141.733 72.108)"><circle cx="4.958" cy="4.958" r="4.958" fill="#2595d3"/></g><g transform="translate(141.733 111.768)"><circle cx="4.958" cy="4.958" r="4.958" fill="#2595d3"/></g><g transform="translate(2.301 91.938)"><circle cx="4.958" cy="4.958" r="4.958" fill="#2595d3"/></g><g transform="translate(5.399 72.108)"><circle cx="4.958" cy="4.958" r="4.958" fill="#2595d3"/></g><g transform="translate(5.399 111.768)"><circle cx="4.958" cy="4.958" r="4.958" fill="#2595d3"/></g><g transform="translate(50.637 95.589)"><path d="M212.644,252.315H167.883a2.746,2.746,0,0,1-2.8-2.691V222.715a2.746,2.746,0,0,1,2.8-2.691h44.761a2.746,2.746,0,0,1,2.8,2.691v26.909A2.746,2.746,0,0,1,212.644,252.315Z" transform="translate(-165.085 -220.024)" fill="#2595d3"/></g><g transform="translate(73.566 100.614)"><circle cx="4.958" cy="4.958" r="4.958" fill="#2595d3"/></g><g transform="translate(0 33.48)"><path d="M133.5,99.2h9.407a7.258,7.258,0,1,0,0-4.6H133.5V79.366h6.309a7.258,7.258,0,1,0,0-4.6H133.5V59.254a2.3,2.3,0,0,0-1.364-2.1L79.46,33.679a2.3,2.3,0,0,0-1.873,0L24.912,57.153a2.3,2.3,0,0,0-1.364,2.1V63a2.3,2.3,0,0,0,4.6,0V60.748L78.523,38.3,128.9,60.748v38.6a66.368,66.368,0,0,1-28.955,54.836l-12.263,8.374a16.231,16.231,0,0,1-18.312,0L57.1,154.184A66.367,66.367,0,0,1,28.149,99.347V73.732a2.3,2.3,0,1,0-4.6,0v1.033H17.239a7.258,7.258,0,1,0,0,4.6h6.309V94.6H14.14a7.258,7.258,0,1,0,0,4.6h9.407v.151a71.048,71.048,0,0,0,1.616,15.078H17.239a7.258,7.258,0,1,0,0,4.6H26.33A70.967,70.967,0,0,0,54.51,157.983l12.263,8.373a20.824,20.824,0,0,0,23.5,0l12.263-8.374a70.968,70.968,0,0,0,28.179-38.956h9.092a7.258,7.258,0,1,0,0-4.6h-7.925A71.05,71.05,0,0,0,133.5,99.347V99.2Zm16.29-4.957a2.657,2.657,0,1,1-2.657,2.657A2.66,2.66,0,0,1,149.789,94.239Zm-3.1-19.831a2.657,2.657,0,1,1-2.657,2.657A2.66,2.66,0,0,1,146.69,74.408ZM10.357,79.723a2.657,2.657,0,1,1,2.657-2.657A2.66,2.66,0,0,1,10.357,79.723Zm-3.1,19.831A2.657,2.657,0,1,1,9.915,96.9,2.66,2.66,0,0,1,7.258,99.553Zm3.1,19.83a2.657,2.657,0,1,1,2.657-2.657A2.66,2.66,0,0,1,10.357,119.383Zm136.333-5.314a2.657,2.657,0,1,1-2.657,2.657A2.66,2.66,0,0,1,146.69,114.069Z" transform="translate(0 -33.48)" fill="#526271"/><path d="M195.967,97.506a2.3,2.3,0,0,0,2.3-2.3V87.872a2.3,2.3,0,0,0-1.364-2.1L153.391,66.379a2.3,2.3,0,0,0-1.873,0L108.005,85.77a2.3,2.3,0,0,0-1.364,2.1v34.145a61.806,61.806,0,0,0,26.968,51.072l12.261,8.374a11.685,11.685,0,0,0,13.17,0l12.26-8.374a61.805,61.805,0,0,0,26.968-51.072V105.942a2.3,2.3,0,0,0-4.6,0v16.076a57.208,57.208,0,0,1-24.962,47.272l-12.259,8.373a7.085,7.085,0,0,1-7.982,0l-12.26-8.374a57.208,57.208,0,0,1-24.962-47.272V89.365L152.454,71l41.212,18.366v5.841a2.3,2.3,0,0,0,2.3,2.3Z" transform="translate(-73.931 -56.149)" fill="#526271"/><path d="M159.89,178.108a2.3,2.3,0,0,0-2.3,2.3v4.07a5.4,5.4,0,0,0,5.4,5.4h49.574a5.4,5.4,0,0,0,5.4-5.4V153.5a5.406,5.406,0,0,0-5.4-5.4h-2.656V141.72a22.131,22.131,0,1,0-44.261,0v6.374h-2.656a5.406,5.406,0,0,0-5.4,5.4v16.177a2.3,2.3,0,1,0,4.6,0V153.5a.8.8,0,0,1,.8-.8h49.573a.8.8,0,0,1,.8.8v30.983a.8.8,0,0,1-.8.8H162.988a.8.8,0,0,1-.8-.8v-4.07a2.3,2.3,0,0,0-2.3-2.3Zm10.355-36.388a17.53,17.53,0,1,1,35.059,0v6.374h-5.314V141.72a12.216,12.216,0,1,0-24.431,0v6.374h-5.314Zm25.144,6.374H180.161V141.72a7.615,7.615,0,1,1,15.229,0Z" transform="translate(-109.252 -93.176)" fill="#526271"/><path d="M239.6,266.8a2.3,2.3,0,0,0,2.3-2.3V258.99a7.258,7.258,0,1,0-4.6,0V264.5A2.3,2.3,0,0,0,239.6,266.8Zm0-17.352a2.657,2.657,0,1,1-2.657,2.657A2.66,2.66,0,0,1,239.6,249.451Z" transform="translate(-161.072 -180.016)" fill="#fff"/></g></g></svg>