<svg xmlns="http://www.w3.org/2000/svg" width="155.296" height="135.413" viewBox="0 0 155.296 135.413"><g transform="translate(1.751 -30.231)"><g transform="translate(72.174 63.247)"><g transform="translate(-3 29.835)"><g transform="translate(0 0)"><path d="M250.021,256.572h-8.456a.9.9,0,0,1-.9-.9V244.847a.9.9,0,0,1,.9-.9h8.456a.9.9,0,0,1,.9.9v10.826A.9.9,0,0,1,250.021,256.572Z" transform="translate(-240.665 -243.947)" fill="#2595d3"/></g></g><g transform="translate(15.615 19.238)"><g transform="translate(-0.001 0)"><path d="M312.092,231.833h-8.456a.9.9,0,0,1-.9-.9V209.51a.9.9,0,0,1,.9-.9h8.456a.9.9,0,0,1,.9.9v21.423A.9.9,0,0,1,312.092,231.833Z" transform="translate(-302.736 -208.61)" fill="#2595d3"/></g></g><g transform="translate(34.231 5)"><g transform="translate(-0.001)"><path d="M374.164,177.784h-8.456a.843.843,0,0,1-.9-.771V141.094a.843.843,0,0,1,.9-.771h8.456a.843.843,0,0,1,.9.771v35.918A.843.843,0,0,1,374.164,177.784Z" transform="translate(-364.808 -140.323)" fill="#2595d3"/></g></g><g transform="translate(52.845 9.014)"><g transform="translate(0 0.001)"><path d="M436.235,207.966h-8.456a.9.9,0,0,1-.9-.9V175.42a.9.9,0,0,1,.9-.9h8.456a.9.9,0,0,1,.9.9v31.647A.9.9,0,0,1,436.235,207.966Z" transform="translate(-426.879 -174.52)" fill="#2595d3"/></g></g></g><g transform="translate(13.179 59.51)"><path d="M58.117,142.857H44.767a.822.822,0,0,1-.822-.822v-13.35a.822.822,0,0,1,.822-.822h13.35a.822.822,0,0,1,.822.822v13.35A.822.822,0,0,1,58.117,142.857Z" transform="translate(-46.945 -123.863)" fill="#2595d3"/></g><g transform="translate(13.179 82.737)"><path d="M58.117,223.641H44.767a.822.822,0,0,1-.822-.822v-13.35a.822.822,0,0,1,.822-.822h13.35a.822.822,0,0,1,.822.822v13.35A.822.822,0,0,1,58.117,223.641Z" transform="translate(-46.945 -204.647)" fill="#2595d3"/></g><g transform="translate(-1.751 36.48)"><path d="M153.128,37.731H10.918A3.419,3.419,0,0,0,7.5,41.149V53.114H156.547V41.149A3.419,3.419,0,0,0,153.128,37.731Z" transform="translate(-7.5 -37.731)" fill="#2595d3"/></g><g transform="translate(0 30.231)"><path d="M59.556,288.99H38.693a2.249,2.249,0,0,0,0,4.5H59.556a2.249,2.249,0,0,0,0-4.5Z" transform="translate(-25.515 -211.39)" fill="#526271"/><path d="M59.556,319.768H38.693a2.249,2.249,0,1,0,0,4.5H59.556a2.249,2.249,0,0,0,0-4.5Z" transform="translate(-25.515 -232.938)" fill="#526271"/><path d="M61.805,352.794a2.249,2.249,0,0,0-2.249-2.249H38.693a2.249,2.249,0,1,0,0,4.5H59.556A2.249,2.249,0,0,0,61.805,352.794Z" transform="translate(-25.515 -254.485)" fill="#526271"/><path d="M38.693,381.323a2.249,2.249,0,1,0,0,4.5H51a2.249,2.249,0,1,0,0-4.5Z" transform="translate(-25.515 -276.033)" fill="#526271"/><path d="M39.516,139.855H52.867a3.075,3.075,0,0,0,3.071-3.071v-13.35a3.075,3.075,0,0,0-3.071-3.072H39.516a3.075,3.075,0,0,0-3.071,3.072v13.35A3.074,3.074,0,0,0,39.516,139.855Zm1.427-14.995h10.5v10.5h-10.5Z" transform="translate(-25.515 -93.332)" fill="#526271"/><path d="M36.444,217.568a3.075,3.075,0,0,0,3.071,3.071H52.866a3.075,3.075,0,0,0,3.071-3.071v-13.35a3.075,3.075,0,0,0-3.071-3.072H39.516a3.075,3.075,0,0,0-3.071,3.072v13.35Zm4.5-11.923h10.5v10.5h-10.5Z" transform="translate(-25.515 -149.89)" fill="#526271"/><path d="M439.723,59.352a2.249,2.249,0,0,0,0-4.5h-6.9a2.249,2.249,0,1,0,0,4.5Z" transform="translate(-301.449 -47.47)" fill="#526271"/><path d="M430.984,204.965a3.152,3.152,0,0,0,3.149-3.149V170.169a3.152,3.152,0,0,0-3.149-3.149h-8.456a3.152,3.152,0,0,0-3.149,3.149v31.647a3.152,3.152,0,0,0,3.149,3.149Zm-7.107-33.446h5.757v28.948h-5.757Z" transform="translate(-293.61 -125.998)" fill="#526271"/><path d="M244.77,236.447h-8.456a3.152,3.152,0,0,0-3.149,3.149v10.826a3.152,3.152,0,0,0,3.149,3.149h8.456a3.152,3.152,0,0,0,3.149-3.149V239.6A3.153,3.153,0,0,0,244.77,236.447Zm-1.35,12.625h-5.757v-8.127h5.757Z" transform="translate(-163.24 -174.604)" fill="#526271"/><path d="M220.319,177.634h-2.412a25.818,25.818,0,1,0,2.451,27.719,3.151,3.151,0,0,0,3.11-3.147V180.783A3.152,3.152,0,0,0,220.319,177.634Zm-22.843,37.094a21.326,21.326,0,1,1,14.342-37.092,3.151,3.151,0,0,0-3.1,3.146v21.424a3.152,3.152,0,0,0,3.149,3.149h3.256A21.309,21.309,0,0,1,197.476,214.728Zm21.493-13.872h-5.757V182.132h5.757Z" transform="translate(-120.175 -126.389)" fill="#526271"/><path d="M147.878,30.231h-97.5a2.249,2.249,0,1,0,0,4.5h97.5a1.171,1.171,0,0,1,1.169,1.169v9.716H29.112V34.729H39.886a2.249,2.249,0,1,0,0-4.5H5.668A5.674,5.674,0,0,0,0,35.9v109.05a5.674,5.674,0,0,0,5.668,5.668h82.8a2.249,2.249,0,1,0,0-4.5H5.668A1.171,1.171,0,0,1,4.5,144.949V50.113H149.047v94.836a1.171,1.171,0,0,1-1.169,1.169h-6.664L120.77,125.674a5.254,5.254,0,0,0-6.018-1l-7.323-7.323a36.173,36.173,0,0,0,4.085-8.156h7.245a3.152,3.152,0,0,0,3.149-3.149V85.643a2.249,2.249,0,1,0-4.5,0V104.7h-5.757V65.5h5.757v9.651a2.249,2.249,0,1,0,4.5,0v-11A3.152,3.152,0,0,0,118.759,61H110.3a3.152,3.152,0,0,0-3.149,3.149V76.719a36.251,36.251,0,1,0-9.737,50.659l7.385,7.385a5.254,5.254,0,0,0,1.117,5.76l5.594,5.594H98.965a2.249,2.249,0,1,0,0,4.5h17.047L129.5,164.109a5.254,5.254,0,0,0,7.422,0l7.428-7.428a5.255,5.255,0,0,0,.976-6.065h2.547a5.674,5.674,0,0,0,5.668-5.668V35.9a5.674,5.674,0,0,0-5.667-5.668ZM24.613,45.614H4.5V35.9a1.171,1.171,0,0,1,1.169-1.169H24.613ZM77.3,128.994a31.749,31.749,0,1,1,29.853-42.559v19.615a3.127,3.127,0,0,0,.262,1.254A31.8,31.8,0,0,1,77.3,128.994Zm23.718-4.375a36.559,36.559,0,0,0,3.657-3.655l6.691,6.691-3.656,3.656ZM141.173,153.5l-7.428,7.428a.75.75,0,0,1-1.06,0L109.1,137.344a.75.75,0,0,1,0-1.06l7.428-7.428a.751.751,0,0,1,1.06,0l23.585,23.585A.751.751,0,0,1,141.173,153.5Z" transform="translate(0 -30.231)" fill="#526271"/></g></g></svg>