<svg xmlns="http://www.w3.org/2000/svg" width="144.5" height="152.815" viewBox="0 0 144.5 152.815"><g transform="translate(-13.931)"><g transform="translate(59.056 2.238)"><g transform="translate(0 20.505)"><circle cx="6.256" cy="6.256" r="6.256" transform="translate(-3 2)" fill="#2595d3"/></g><g transform="translate(21.131 0)"><circle cx="6.256" cy="6.256" r="6.256" transform="translate(-2 3)" fill="#2595d3"/></g><g transform="translate(59.29 29.402)"><circle cx="6.256" cy="6.256" r="6.256" transform="translate(-4)" fill="#2595d3"/></g><g transform="translate(78.369 9.697)"><circle cx="6.256" cy="6.256" r="6.256" transform="translate(-3 3)" fill="#2595d3"/></g></g><g transform="translate(16.17 39.894)"><g transform="translate(3.222 25.166)"><path d="M85.668,217.981a28.482,28.482,0,0,1-.021,6.719,1.61,1.61,0,0,1-1.6,1.406H78.263a1.619,1.619,0,0,0-1.542,1.148,20.057,20.057,0,0,1-1.4,3.374,1.62,1.62,0,0,0,.278,1.9l4.086,4.086a1.61,1.61,0,0,1,.138,2.127,28.585,28.585,0,0,1-4.891,4.891,1.61,1.61,0,0,1-2.127-.138l-4.086-4.086a1.619,1.619,0,0,0-1.9-.278,20.079,20.079,0,0,1-3.374,1.4,1.619,1.619,0,0,0-1.148,1.542v5.782a1.609,1.609,0,0,1-1.406,1.6,28.659,28.659,0,0,1-6.918,0,1.61,1.61,0,0,1-1.406-1.6v-5.782a1.619,1.619,0,0,0-1.148-1.542,20.055,20.055,0,0,1-3.374-1.4,1.62,1.62,0,0,0-1.9.278L42.054,243.5a1.61,1.61,0,0,1-2.127.138,28.553,28.553,0,0,1-3.138-2.858,43.352,43.352,0,1,0,48.88-22.8Z" transform="translate(-35.227 -215.981)" fill="#2595d3"/><g transform="translate(0 22.797)"><path d="M38.426,313.731a43.2,43.2,0,0,1,3.194-16.346,1.6,1.6,0,0,1-1.7-.166,28.555,28.555,0,0,1-3.138-2.858,43.362,43.362,0,0,0,38.789,62.719c1.036,0,2.063-.04,3.081-.113A43.351,43.351,0,0,1,38.426,313.731Z" transform="translate(-32.226 -294.362)" fill="#2595d3"/></g><path d="M100.095,246.929a1.647,1.647,0,0,0-.369.632,20.054,20.054,0,0,1-1.4,3.374,1.62,1.62,0,0,0,.278,1.9l4.086,4.086a1.61,1.61,0,0,1,.138,2.127,28.582,28.582,0,0,1-4.891,4.891,1.61,1.61,0,0,1-2.127-.138l-4.086-4.086a1.619,1.619,0,0,0-1.9-.278,20.081,20.081,0,0,1-3.374,1.4A1.619,1.619,0,0,0,85.3,262.38v5.782a1.609,1.609,0,0,1-1.406,1.6,28.664,28.664,0,0,1-6.918,0,1.61,1.61,0,0,1-1.406-1.6V262.38a1.619,1.619,0,0,0-1.148-1.543,20.039,20.039,0,0,1-2.387-.916,33.562,33.562,0,1,0,28.059-12.993Z" transform="translate(-55.233 -238.289)" fill="#fff"/></g></g><g transform="translate(13.931 0)"><path d="M166.113,37.493a8.489,8.489,0,0,0,7.419-12.623l9.381-9.073a8.471,8.471,0,0,0,9.452-.532l25.183,19.4a8.495,8.495,0,1,0,15.161-1.1l7.684-7.936a8.507,8.507,0,1,0-3.216-3.115l-7.684,7.936a8.473,8.473,0,0,0-9.211.67L195.1,11.721a8.494,8.494,0,1,0-15.3.859l-9.4,9.091a8.492,8.492,0,1,0-4.287,15.822Zm78.369-23.32a4.017,4.017,0,1,1-4.017,4.017A4.022,4.022,0,0,1,244.482,14.173ZM225.4,33.878a4.017,4.017,0,1,1-4.017,4.017A4.022,4.022,0,0,1,225.4,33.878Zm-38.159-29.4a4.017,4.017,0,1,1-4.017,4.017A4.022,4.022,0,0,1,187.244,4.477ZM166.113,24.982A4.017,4.017,0,1,1,162.1,29,4.022,4.022,0,0,1,166.113,24.982Z" transform="translate(-114.733 0)" fill="#526271"/><path d="M156.192,182.435h-4.017V164.208a2.239,2.239,0,0,0-4.477,0v18.227h-8.034v-59.9H147.7v31.226a2.239,2.239,0,0,0,4.477,0V121.3a3.247,3.247,0,0,0-3.243-3.243h-10.5a3.247,3.247,0,0,0-3.243,3.243v61.133H133.1V135.064a3.247,3.247,0,0,0-3.243-3.243h-10.5a3.247,3.247,0,0,0-3.243,3.243v47.371h-2.091V122.866a3.247,3.247,0,0,0-3.243-3.243h-10.5a3.247,3.247,0,0,0-3.243,3.243v30.811q-1.009-1.151-2.091-2.232V130.78a2.239,2.239,0,0,0-4.477,0v16.737a45.687,45.687,0,0,0-8.034-4.942v-29.11h8.034v6.869a2.239,2.239,0,1,0,4.477,0v-8.1a3.247,3.247,0,0,0-3.243-3.243h-10.5a3.247,3.247,0,0,0-3.243,3.243v28.477q-1.655-.587-3.366-1.047a3.857,3.857,0,0,0-3.372-1.987H65.885a22.389,22.389,0,0,0-1.212-2.928l3.763-3.763a3.85,3.85,0,0,0,.318-5.09,30.852,30.852,0,0,0-5.274-5.274,3.85,3.85,0,0,0-5.09.318L54.627,124.7a22.442,22.442,0,0,0-2.929-1.212v-5.324a3.85,3.85,0,0,0-3.374-3.824,31.034,31.034,0,0,0-7.46,0,3.85,3.85,0,0,0-3.373,3.824v5.324a22.441,22.441,0,0,0-2.929,1.212L30.8,120.938a3.85,3.85,0,0,0-5.09-.318,30.83,30.83,0,0,0-5.274,5.274,3.851,3.851,0,0,0,.318,5.09l3.763,3.763a22.422,22.422,0,0,0-1.212,2.928H17.981a3.849,3.849,0,0,0-3.824,3.373,30.881,30.881,0,0,0,0,7.46,3.849,3.849,0,0,0,3.824,3.374H23.3a22.383,22.383,0,0,0,1.212,2.928l-3.763,3.763a3.85,3.85,0,0,0-.318,5.09c.279.356.568.7.862,1.047a45.584,45.584,0,0,0,68.992,55.3,2.239,2.239,0,0,0-2.708-3.565A40.74,40.74,0,0,1,62.742,224.8,41.108,41.108,0,0,1,24.7,168.105c.332.284.668.563,1.012.832a3.845,3.845,0,0,0,4.288.295A35.8,35.8,0,1,0,74.576,149.9a3.8,3.8,0,0,0,.457-1.4,30.964,30.964,0,0,0,.226-3.73c0-.085,0-.17,0-.255A41.111,41.111,0,0,1,94.7,209.545a2.239,2.239,0,0,0,3.478,2.819,45.7,45.7,0,0,0,10.034-25.452h47.979a2.239,2.239,0,1,0,0-4.477ZM28.029,165.059a26.384,26.384,0,0,1-3.714-3.714l3.692-3.692a3.844,3.844,0,0,0,.678-4.527,17.852,17.852,0,0,1-1.241-3,3.842,3.842,0,0,0-3.68-2.722H18.539c-.087-.871-.131-1.752-.131-2.627s.044-1.755.131-2.627h5.224a3.843,3.843,0,0,0,3.68-2.722,17.873,17.873,0,0,1,1.241-3,3.844,3.844,0,0,0-.678-4.527l-3.692-3.692a26.368,26.368,0,0,1,3.714-3.714l3.692,3.692a3.844,3.844,0,0,0,4.527.678,17.865,17.865,0,0,1,3-1.241,3.843,3.843,0,0,0,2.722-3.68v-5.224a26.54,26.54,0,0,1,5.253,0v5.224a3.843,3.843,0,0,0,2.722,3.68,17.9,17.9,0,0,1,3,1.241,3.843,3.843,0,0,0,4.527-.678l3.692-3.692a26.368,26.368,0,0,1,3.714,3.714L61.183,131.9a3.844,3.844,0,0,0-.678,4.527,17.871,17.871,0,0,1,1.241,3,3.843,3.843,0,0,0,3.68,2.722h5.224c.087.872.131,1.753.131,2.627s-.044,1.755-.131,2.627H65.427a3.843,3.843,0,0,0-3.68,2.722,17.875,17.875,0,0,1-1.241,3,3.844,3.844,0,0,0,.678,4.527l3.692,3.692a26.4,26.4,0,0,1-3.714,3.714l-3.692-3.692a3.843,3.843,0,0,0-4.527-.678,17.884,17.884,0,0,1-3,1.241,3.842,3.842,0,0,0-2.722,3.68v5.223a26.541,26.541,0,0,1-5.253,0V165.61a3.843,3.843,0,0,0-2.722-3.68,17.919,17.919,0,0,1-3-1.241,3.844,3.844,0,0,0-4.527.678Zm48.392-9.545-.112.194a2.238,2.238,0,1,0,3.877,2.239l.109-.188a31.58,31.58,0,0,1,8.374,8.373l-.189.109a2.238,2.238,0,1,0,2.239,3.877l.2-.113a31.086,31.086,0,0,1,3.07,11.442H87.972a2.239,2.239,0,1,0,0,4.477h6.013a31.086,31.086,0,0,1-3.069,11.443l-.2-.113a2.238,2.238,0,0,0-2.238,3.877l.19.11a31.582,31.582,0,0,1-8.374,8.374l-.11-.19a2.238,2.238,0,1,0-3.877,2.239l.113.2a31.088,31.088,0,0,1-11.443,3.069v-5.95a2.239,2.239,0,0,0-4.477,0v5.95a31.086,31.086,0,0,1-11.443-3.069l.113-.2a2.238,2.238,0,0,0-3.877-2.239l-.11.19a31.578,31.578,0,0,1-8.374-8.374l.19-.11a2.238,2.238,0,1,0-2.239-3.877l-.2.113A31.093,31.093,0,0,1,31.5,185.924h6.032a2.239,2.239,0,1,0,0-4.477H31.5a31.127,31.127,0,0,1,5.48-15.558c.169.061.337.122.507.179v5.324a3.85,3.85,0,0,0,3.374,3.824,30.9,30.9,0,0,0,7.46,0,3.85,3.85,0,0,0,3.373-3.824v-5.324a22.477,22.477,0,0,0,2.929-1.212l3.762,3.763a3.85,3.85,0,0,0,5.09.318,30.834,30.834,0,0,0,5.274-5.274,3.851,3.851,0,0,0-.318-5.09l-3.763-3.763a22.382,22.382,0,0,0,.994-2.31,31.08,31.08,0,0,1,10.754,3.014Zm33.117,26.921h-1.226a45.289,45.289,0,0,0-6.808-22.716V124.1h8.034Zm19.08,0h-8.034V136.3h8.034Z" transform="translate(-13.931 -76.459)" fill="#526271"/><path d="M148.4,352.853,139.1,368.533a2.239,2.239,0,1,0,3.85,2.286l8.177-13.775,9.433,5.461a2.239,2.239,0,0,0,2.243-3.875l-11.349-6.571a2.238,2.238,0,0,0-3.046.794Z" transform="translate(-101.518 -246.769)" fill="#526271"/><path d="M81.451,208.666a14.984,14.984,0,1,0-14.984-14.984,15,15,0,0,0,14.984,14.984Zm0-25.49a10.507,10.507,0,1,1-10.507,10.507,10.519,10.519,0,0,1,10.507-10.507Z" transform="translate(-50.787 -125.363)" fill="#526271"/><path d="M101.007,219.9a6.663,6.663,0,1,0-6.664-6.664,6.671,6.671,0,0,0,6.664,6.664Zm0-8.85a2.186,2.186,0,1,1-2.187,2.186,2.189,2.189,0,0,1,2.187-2.186Z" transform="translate(-70.343 -144.92)" fill="#526271"/><path d="M352.757,385.767a2.238,2.238,0,0,0-3.166,3.166l5.75,5.75-5.75,5.75a2.238,2.238,0,1,0,3.166,3.166l7.332-7.332a2.238,2.238,0,0,0,0-3.166Z" transform="translate(-248.948 -270.168)" fill="#526271"/><path d="M404.961,385.767a2.238,2.238,0,0,0-3.166,3.166l5.749,5.75-5.749,5.75a2.238,2.238,0,1,0,3.166,3.166l7.332-7.332a2.238,2.238,0,0,0,0-3.166Z" transform="translate(-285.571 -270.168)" fill="#526271"/><path d="M457.165,385.767A2.238,2.238,0,1,0,454,388.932l5.75,5.75-5.75,5.75a2.238,2.238,0,1,0,3.166,3.166l7.332-7.332a2.238,2.238,0,0,0,0-3.166Z" transform="translate(-322.194 -270.168)" fill="#526271"/></g></g></svg>