<svg xmlns="http://www.w3.org/2000/svg" width="156.566" height="126.397" viewBox="0 0 156.566 126.397"><g transform="translate(0 -49.327)"><g transform="translate(1.113 53.437)"><g transform="translate(0 0)"><path d="M93.8,82.592h-4.48a18.663,18.663,0,0,0-32.19-18.3A15.3,15.3,0,0,0,35.7,70.746,13.09,13.09,0,1,1,19.206,90.979a12.437,12.437,0,0,0-.717,4.164A12.588,12.588,0,0,0,31.04,107.695H93.8a12.551,12.551,0,1,0,0-25.1Z" transform="translate(-18.489 -56.829)" fill="#2595d3"/></g></g><g transform="translate(0 49.327)"><path d="M155.288,104.929,135.33,90.245a3.135,3.135,0,0,0-4.993,2.525v5.875H116.374A41.951,41.951,0,0,0,79.409,64.674,20.989,20.989,0,0,0,59.222,49.327a20.765,20.765,0,0,0-15.53,6.883,17.58,17.58,0,0,0-21.641,6.206A15.377,15.377,0,0,0,3.8,86.386,14.822,14.822,0,0,0,18.2,104.781H33.268c-.01.263-.024.525-.029.788a41.974,41.974,0,0,0,4.819,20.31H26.229v-5.612a3.135,3.135,0,0,0-4.972-2.54L1.3,132.159a3.135,3.135,0,0,0-.021,5.065l19.959,14.684a3.135,3.135,0,0,0,4.992-2.525v-5.875h5.88a2.293,2.293,0,1,0,0-4.587H24.776a3.139,3.139,0,0,0-3.135,3.135v4.456L5.6,134.709l16.043-11.6v4.222a3.139,3.139,0,0,0,3.135,3.135H40.857a41.9,41.9,0,0,0,7.866,8.456H42.811a2.293,2.293,0,1,0,0,4.587h9.975a7.716,7.716,0,0,1,.542,2.82v11.966H50.456a5.358,5.358,0,0,0-5.351,5.351v6.727a5.358,5.358,0,0,0,5.351,5.351H79.2a2.293,2.293,0,1,0,0-4.587H50.456a.765.765,0,0,1-.764-.764v-6.727a.765.765,0,0,1,.764-.764H97.548a.765.765,0,0,1,.764.764v6.727a.765.765,0,0,1-.764.764H89.9a2.293,2.293,0,1,0,0,4.587h7.645a5.358,5.358,0,0,0,5.351-5.351v-6.727a5.358,5.358,0,0,0-5.351-5.351h-5.4v-6.026a.235.235,0,0,1,.235-.235h7.7a13.29,13.29,0,0,0,13.274-13.274v-8.075a.235.235,0,0,1,.235-.235h6.368a6.423,6.423,0,0,0,5.6-9.569l-2.587-4.6h7.358v5.612a3.133,3.133,0,0,0,4.972,2.54l19.959-14.433a3.134,3.134,0,0,0,.02-5.065ZM4.587,76.282a10.8,10.8,0,1,1,10.8,10.8A10.811,10.811,0,0,1,4.587,76.282Zm115.379,49.58H113.6a4.827,4.827,0,0,0-4.821,4.821v8.075a8.7,8.7,0,0,1-8.688,8.688h-7.7a4.827,4.827,0,0,0-4.821,4.821v6.026H57.914V146.328a12.541,12.541,0,0,0-5.055-9.992,37.469,37.469,0,0,1-15.034-30.68c.006-.292.016-.584.028-.875H61.158a2.293,2.293,0,1,0,0-4.587H18.205A10.269,10.269,0,0,1,7.947,89.936c0-.063.005-.125.006-.188A15.377,15.377,0,0,0,25.835,65a13,13,0,0,1,17.3-3.935,2.293,2.293,0,0,0,2.989-.6A16.37,16.37,0,0,1,74.361,76.511a2.293,2.293,0,0,0,2.121,3.167h4.48a10.258,10.258,0,0,1,0,20.516h-9.1a2.293,2.293,0,1,0,0,4.587h9.1a14.845,14.845,0,0,0,0-29.69h-1.34a20.905,20.905,0,0,0,.556-4.808c0-.3-.01-.605-.023-.906a37.349,37.349,0,0,1,32.339,36.4,4.871,4.871,0,0,0,.616,2.3l8.457,15.054a1.836,1.836,0,0,1-1.6,2.735Zm14.958-6.817v-4.222a3.138,3.138,0,0,0-3.135-3.135H120.4l-3.293-5.861a.275.275,0,0,1-.029-.127c-.013-.827-.053-1.65-.114-2.468h14.823a3.138,3.138,0,0,0,3.135-3.135V95.641l16.043,11.8Z" transform="translate(0 -49.327)" fill="#526271"/><path d="M39.214,123.928a2.293,2.293,0,0,0-3.243-3.244l-5.128,5.128-3.464-3.464a2.293,2.293,0,0,0-3.243,3.244l5.086,5.086a2.294,2.294,0,0,0,3.243,0Z" transform="translate(-16.289 -98.398)" fill="#526271"/><path d="M143.814,120.9H113.485a2.293,2.293,0,1,0,0,4.587h30.329a2.293,2.293,0,1,0,0-4.587Z" transform="translate(-77.19 -99.016)" fill="#526271"/><path d="M143.814,147.487H113.485a2.293,2.293,0,1,0,0,4.587h30.329a2.293,2.293,0,1,0,0-4.587Z" transform="translate(-77.19 -117.47)" fill="#526271"/><path d="M136.477,174.072H113.485a2.293,2.293,0,1,0,0,4.587h22.991a2.293,2.293,0,1,0,0-4.587Z" transform="translate(-77.19 -135.926)" fill="#526271"/></g></g></svg>