<svg xmlns="http://www.w3.org/2000/svg" width="134" height="134" viewBox="0 0 134 134"><g transform="translate(-819 -1953)"><rect width="56" height="5" transform="translate(823 2041)" fill="#2595d3"/><rect width="52" height="5" transform="translate(895 2041)" fill="#2595d3"/><g transform="translate(819 1953)"><g transform="translate(46.907 37.39)"><circle cx="18.093" cy="18.093" r="18.093" transform="translate(0 4)" fill="#2595d3"/></g><g transform="translate(0 0)"><path d="M327.433,360.263h-2V327.856a4.612,4.612,0,0,0-4.606-4.606h-3.763a1.963,1.963,0,0,0,0,3.926h3.763a.681.681,0,0,1,.68.68v32.406H272.556V327.856a.681.681,0,0,1,.68-.68H307.9a1.963,1.963,0,0,0,0-3.926H273.236a4.612,4.612,0,0,0-4.606,4.606v32.407h-2a1.963,1.963,0,0,0-1.963,1.963v5.816a4.612,4.612,0,0,0,4.607,4.607h55.519a4.612,4.612,0,0,0,4.607-4.607v-5.816A1.963,1.963,0,0,0,327.433,360.263Zm-1.963,7.779a.682.682,0,0,1-.681.681H269.27a.682.682,0,0,1-.681-.681v-3.854H325.47Z" transform="translate(-195.396 -238.65)" fill="#526270"/><path d="M62.771,360.264h-2v-32.4a4.612,4.612,0,0,0-4.607-4.607H8.572a4.612,4.612,0,0,0-4.607,4.607v32.4h-2A1.963,1.963,0,0,0,0,362.227v5.818a4.612,4.612,0,0,0,4.606,4.606H60.127a4.612,4.612,0,0,0,4.606-4.606v-5.818A1.963,1.963,0,0,0,62.771,360.264Zm-1.963,7.781a.681.681,0,0,1-.68.68H4.606a.681.681,0,0,1-.68-.68v-3.855h9.846a1.963,1.963,0,1,0,0-3.926H7.891v-32.4a.682.682,0,0,1,.681-.681H56.16a.682.682,0,0,1,.681.681v32.4H22.932a1.963,1.963,0,1,0,0,3.926H60.808v3.855Z" transform="translate(0 -238.651)" fill="#526270"/><path d="M152.444,57.481c0-.228-.01-.454-.017-.68h2.019a20.472,20.472,0,0,0,9.339-38.69q.028-.407.028-.814a11.75,11.75,0,0,0-15.677-11.07,28.406,28.406,0,0,0-43.262,9.692A20.467,20.467,0,0,0,106.332,56.8h2.015c-.007.226-.013.453-.013.68a22.055,22.055,0,1,0,44.11,0ZM130.389,75.613A18.135,18.135,0,0,1,115.595,47a1.963,1.963,0,0,0-3.2-2.274,21.871,21.871,0,0,0-3.577,8.151h-2.486a16.541,16.541,0,0,1-.162-33.081,1.963,1.963,0,0,0,1.78-1.177A24.479,24.479,0,0,1,146.5,9.975a1.963,1.963,0,0,0,2.151.288A7.82,7.82,0,0,1,159.887,17.3a7.926,7.926,0,0,1-.161,1.587,1.963,1.963,0,0,0,1.158,2.2,16.546,16.546,0,0,1-6.438,31.789h-2.49a22.062,22.062,0,0,0-32.09-14.781,1.963,1.963,0,1,0,1.877,3.448,18.132,18.132,0,1,1,8.646,34.072Z" transform="translate(-63.389 0)" fill="#526270"/><path d="M233.656,183.01a19.926,19.926,0,0,0-21.784,0,1.963,1.963,0,1,0,2.146,3.287,16,16,0,0,1,17.492,0,1.963,1.963,0,0,0,2.146-3.287Z" transform="translate(-155.764 -132.72)" fill="#fff"/><path d="M240.423,214.939a11.55,11.55,0,0,0-15,0,1.963,1.963,0,0,0,2.565,2.973,7.6,7.6,0,0,1,9.872,0,1.963,1.963,0,1,0,2.564-2.973Z" transform="translate(-165.922 -156.643)" fill="#fff"/><circle cx="2.908" cy="2.908" r="2.908" transform="translate(64.092 64.084)" fill="#fff"/><path d="M369.844,274.717a1.963,1.963,0,0,0,1.963-1.963v-7.138a1.963,1.963,0,0,0-1.963-1.963H354.51a1.963,1.963,0,0,0,0,3.926h13.371v5.175A1.963,1.963,0,0,0,369.844,274.717Z" transform="translate(-260.279 -194.65)" fill="#526270"/><path d="M89.79,272.754v-5.175h13.371a1.963,1.963,0,0,0,0-3.926H87.827a1.963,1.963,0,0,0-1.963,1.963v7.138a1.963,1.963,0,1,0,3.926,0Z" transform="translate(-63.392 -194.65)" fill="#526270"/></g></g></g></svg>