<svg xmlns="http://www.w3.org/2000/svg" width="152.528" height="114.008" viewBox="0 0 152.528 114.008"><g transform="translate(0 -64.651)"><g transform="translate(21.494 66.885)"><path d="M128.7,146.405c-13.579,0-24.586-10.074-24.586-22.5s11.008-22.5,24.586-22.5V72.15h-8.605L115.5,84.378a5.471,5.471,0,0,1-3.245,3.128l-.048.018a6.213,6.213,0,0,1-4.715-.111L94.8,81.739,82.628,92.877l6.2,11.619a4.841,4.841,0,0,1,.121,4.315l-.02.044a5.543,5.543,0,0,1-3.418,2.97l-13.361,4.2v15.751l13.361,4.2a5.543,5.543,0,0,1,3.418,2.97l.02.044a4.841,4.841,0,0,1-.121,4.315l-6.2,11.619L94.8,166.068l12.695-5.674a6.213,6.213,0,0,1,4.715-.111l.048.018a5.471,5.471,0,0,1,3.245,3.128l4.593,12.228H128.7Z" transform="translate(-75.15 -65.117)" fill="#2595d3"/></g><g transform="translate(140.663 116.84)"><circle cx="4.815" cy="4.815" r="4.815" fill="#2595d3"/></g><g transform="translate(140.663 93.969)"><circle cx="4.815" cy="4.815" r="4.815" fill="#2595d3"/></g><g transform="translate(140.663 139.711)"><g transform="translate(0 0)"><circle cx="4.815" cy="4.815" r="4.815" fill="#2595d3"/></g></g><g transform="translate(2.234 116.84)"><circle cx="4.815" cy="4.815" r="4.815" fill="#2595d3"/></g><g transform="translate(5.243 93.969)"><circle cx="4.815" cy="4.815" r="4.815" fill="#2595d3"/></g><g transform="translate(5.243 139.711)"><g transform="translate(0 0)"><circle cx="4.815" cy="4.815" r="4.815" fill="#2595d3"/></g></g><g transform="translate(0 64.651)"><path d="M284.677,115.456A2.234,2.234,0,0,0,280.825,117v35.026a2.234,2.234,0,0,0,2.234,2.234h13.2a2.234,2.234,0,0,0,2.23-2.383c-.714-10.72-3.685-21.04-8.367-29.059a39.57,39.57,0,0,0-5.442-7.36Zm.617,34.333v-26.3q.493.765.966,1.576a62.057,62.057,0,0,1,7.569,24.72h-8.535Z" transform="translate(-197.166 -99.835)" fill="#526271"/><path d="M324.914,303.676a2.23,2.23,0,0,0,1.1-.287,47.5,47.5,0,0,0,23.929-36.254,2.234,2.234,0,0,0-2.222-2.471H335.295a2.234,2.234,0,0,0-2.23,2.106c-.669,11.687-3.9,23.029-9.1,31.937-.279.478-.587.984-.939,1.544a2.234,2.234,0,0,0,1.891,3.425Zm12.466-34.544h7.778A42.991,42.991,0,0,1,331.248,294.2,78.646,78.646,0,0,0,337.379,269.132Z" transform="translate(-226.551 -205.078)" fill="#526271"/><path d="M133.239,123.889h5.556a7.049,7.049,0,1,0,0-4.469h-5.555a56.721,56.721,0,0,0-3.807-18.4h9.363a7.049,7.049,0,1,0,0-4.469H127.467A57.219,57.219,0,0,0,77.373,64.666l-1.109-.015H67.928a2.234,2.234,0,0,0-2.113,1.508L61.367,79.1A3.315,3.315,0,0,1,59.5,81.066l-.1.041a3.318,3.318,0,0,1-2.695-.077l-12.3-6a2.235,2.235,0,0,0-2.56.428l-2.21,2.21a2.234,2.234,0,0,0,3.16,3.16l1.083-1.083,10.864,5.3a7.789,7.789,0,0,0,6.4.175L61.2,85.2a7.784,7.784,0,0,0,4.393-4.645L69.523,69.12H74.03V95.7a26.047,26.047,0,0,0,0,51.9v26.585H69.523l-3.929-11.433a7.785,7.785,0,0,0-4.393-4.644l-.054-.023a7.787,7.787,0,0,0-6.4.175l-10.865,5.3-9.531-9.531,5.3-10.864a7.787,7.787,0,0,0,.175-6.4l-.023-.054a7.784,7.784,0,0,0-4.645-4.393L23.728,128.4V114.914l11.433-3.929a7.785,7.785,0,0,0,4.644-4.393l.023-.054a7.785,7.785,0,0,0-.175-6.4l-5.3-10.865L35.428,88.2a2.234,2.234,0,0,0-3.16-3.16l-2.2,2.2a2.235,2.235,0,0,0-.428,2.56l3.295,6.75H16.743a7.049,7.049,0,1,0,0,4.469H35.111l.527,1.08a3.316,3.316,0,0,1,.077,2.694c-.015.033-.028.065-.041.1a3.313,3.313,0,0,1-1.966,1.871l-12.941,4.448a2.234,2.234,0,0,0-1.508,2.113v6.1H13.733a7.049,7.049,0,1,0,0,4.469H19.26v6.1a2.234,2.234,0,0,0,1.508,2.113l12.94,4.448a3.315,3.315,0,0,1,1.966,1.871c.013.031.026.063.041.1a3.316,3.316,0,0,1-.077,2.695l-.527,1.079H16.743a7.049,7.049,0,1,0,0,4.469H32.93l-3.295,6.75a2.235,2.235,0,0,0,.428,2.56l11.785,11.785a2.235,2.235,0,0,0,2.56.428l12.3-6A3.315,3.315,0,0,1,59.4,162.2l.1.041a3.313,3.313,0,0,1,1.871,1.966l4.448,12.941a2.234,2.234,0,0,0,2.113,1.508h8.353A56.7,56.7,0,0,0,107,169.654a2.234,2.234,0,0,0-2.416-3.759A52.209,52.209,0,0,1,78.5,174.144V121.208a2.234,2.234,0,0,0-4.469,0v21.909a21.578,21.578,0,0,1,0-42.923v10.588a2.234,2.234,0,0,0,4.469,0V69.17a52.507,52.507,0,0,1,33.945,90.558,2.234,2.234,0,1,0,3.077,3.24,56.883,56.883,0,0,0,11.932-16.208h11.341a7.049,7.049,0,1,0,0-4.469h-9.376a56.368,56.368,0,0,0,3.821-18.4ZM145.478,96.2a2.581,2.581,0,1,1-2.58,2.58A2.584,2.584,0,0,1,145.478,96.2Zm-135.42,5.162a2.581,2.581,0,1,1,2.58-2.581A2.584,2.584,0,0,1,10.059,101.365ZM7.049,124.236a2.581,2.581,0,1,1,2.58-2.581A2.584,2.584,0,0,1,7.049,124.236Zm3.009,22.871a2.581,2.581,0,1,1,2.58-2.58A2.584,2.584,0,0,1,10.059,147.107Zm135.42-28.032a2.581,2.581,0,1,1-2.58,2.581A2.584,2.584,0,0,1,145.478,119.074Zm0,22.871a2.581,2.581,0,1,1-2.58,2.581A2.584,2.584,0,0,1,145.478,141.945Z" transform="translate(0 -64.651)" fill="#526271"/><path d="M280.825,301.923a2.234,2.234,0,0,0,3.852,1.542,39.585,39.585,0,0,0,5.443-7.36c4.681-8.019,7.653-18.339,8.367-29.059a2.234,2.234,0,0,0-2.23-2.383h-13.2a2.234,2.234,0,0,0-2.234,2.234Zm4.469-32.791h8.535a62.054,62.054,0,0,1-7.569,24.72q-.474.811-.966,1.576Z" transform="translate(-197.166 -205.078)" fill="#526271"/><path d="M333.063,153.287a2.234,2.234,0,0,0,2.23,2.106h12.422a2.234,2.234,0,0,0,2.222-2.471,47.5,47.5,0,0,0-23.929-36.254,2.234,2.234,0,0,0-2.987,3.138c.353.56.66,1.065.94,1.544,5.2,8.908,8.433,20.25,9.1,31.937Zm12.094-2.362h-7.778a78.661,78.661,0,0,0-6.131-25.068A42.99,42.99,0,0,1,345.157,150.925Z" transform="translate(-226.55 -100.97)" fill="#526271"/></g></g></svg>