<svg xmlns="http://www.w3.org/2000/svg" width="134" height="134" viewBox="0 0 134 134"><rect width="56" height="5" transform="translate(4 88)" fill="#2595d3"/><rect width="52" height="5" transform="translate(76 88)" fill="#2595d3"/><g transform="translate(54.126 18.699)"><ellipse cx="10.874" cy="12.874" rx="10.874" ry="12.874" fill="#2595d3"/></g><g transform="translate(62.77 69.644)"><circle cx="4.23" cy="4.23" r="4.23" fill="#2595d3"/></g><g transform="translate(0 0)"><path d="M214.3,93.619a14.852,14.852,0,0,0,14.687-14.833h0a14.852,14.852,0,0,0-14.657-14.831c-.112-.006-.219-.007-.33,0a14.758,14.758,0,0,0-8.269,2.616,1.963,1.963,0,0,0,2.229,3.232,10.938,10.938,0,0,1,1.357-.8l-.023.067A30.154,30.154,0,0,0,208,76.822h-4.586c.046-.256.1-.511.164-.763a1.963,1.963,0,0,0-3.8-.97,14.973,14.973,0,0,0-.464,3.7h0A14.852,14.852,0,0,0,214,93.619c.05,0,.249,0,.3,0Zm-2.366-12.871h4.434c-.263,5.093-1.507,8.074-2.217,8.829C213.438,88.822,212.194,85.841,211.931,80.748Zm7.052,7.815c.007-.021.014-.041.021-.062a30.152,30.152,0,0,0,1.29-7.753h4.585A10.943,10.943,0,0,1,218.983,88.564Zm5.9-11.741h-4.585A30.154,30.154,0,0,0,219,69.069c-.007-.021-.014-.04-.021-.061A10.943,10.943,0,0,1,224.878,76.822Zm-10.731-8.829c.71.755,1.954,3.737,2.217,8.829h-4.434C212.194,71.73,213.438,68.749,214.148,67.993ZM203.417,80.748H208a30.154,30.154,0,0,0,1.29,7.753l.021.062A10.943,10.943,0,0,1,203.417,80.748Z" transform="translate(-147.148 -47.212)" fill="#526270"/><path d="M132.037,121.613h-2v-32.4a4.612,4.612,0,0,0-4.607-4.607H103.6V73.874a1.963,1.963,0,0,0-1.963-1.963H72.872A6.22,6.22,0,0,0,68.963,68V63.146h2.543a1.963,1.963,0,0,0,1.856-1.325l2.4-7a1.109,1.109,0,0,1,1.476-.611l6.647,3.246a1.963,1.963,0,0,0,2.249-.376l6.372-6.372a1.963,1.963,0,0,0,.376-2.249l-3.246-6.647a1.049,1.049,0,0,1-.009-.867l.007-.016a1.04,1.04,0,0,1,.614-.593l7-2.4a1.963,1.963,0,0,0,1.325-1.856V27.067a1.963,1.963,0,0,0-1.325-1.856l-7-2.4a1.026,1.026,0,0,1-.605-.572l-.02-.048a1.04,1.04,0,0,1,.014-.855l3.246-6.647a1.963,1.963,0,0,0-.376-2.249L86.14,6.061a1.963,1.963,0,0,0-2.249-.376L77.243,8.932a1.042,1.042,0,0,1-.855.014l-.027-.011a1.04,1.04,0,0,1-.594-.614l-2.4-7A1.963,1.963,0,0,0,71.506,0H62.494a1.963,1.963,0,0,0-1.856,1.325l-2.4,7a1.041,1.041,0,0,1-.594.614l-.027.011a1.04,1.04,0,0,1-.855-.014L50.109,5.686a1.963,1.963,0,0,0-2.249.376l-6.372,6.372a1.963,1.963,0,0,0-.376,2.249l3.246,6.647a1.042,1.042,0,0,1,.014.855l-.011.027a1.038,1.038,0,0,1-.614.594l-7,2.4a1.963,1.963,0,0,0-1.325,1.856V36.08a1.963,1.963,0,0,0,1.325,1.856l7,2.4a1.026,1.026,0,0,1,.605.572l.02.049a1.04,1.04,0,0,1-.014.855l-3.246,6.647a1.963,1.963,0,0,0,.376,2.249l6.372,6.372a1.963,1.963,0,0,0,2.249.376l6.647-3.246a1.042,1.042,0,0,1,.855-.014l.027.011a1.04,1.04,0,0,1,.594.614l2.4,7a1.963,1.963,0,0,0,1.856,1.325h2.543V68a6.221,6.221,0,0,0-3.91,3.909H32.366A1.963,1.963,0,0,0,30.4,73.874V84.6H8.571a4.612,4.612,0,0,0-4.606,4.606v32.407h-2A1.963,1.963,0,0,0,0,123.577v5.816A4.612,4.612,0,0,0,4.607,134H60.126a4.612,4.612,0,0,0,4.607-4.607v-5.816a1.963,1.963,0,0,0-1.963-1.963h-2V104a1.963,1.963,0,0,0-3.926,0v17.614H7.891V89.207a.681.681,0,0,1,.68-.68H56.16a.681.681,0,0,1,.68.68v5.632a1.963,1.963,0,0,0,3.926,0V89.207A4.612,4.612,0,0,0,56.16,84.6H34.329V75.837h26.8a6.191,6.191,0,0,0,11.745,0h26.8V84.6H77.84a4.612,4.612,0,0,0-4.607,4.607v32.4h-2a1.963,1.963,0,0,0-1.963,1.963v5.818A4.612,4.612,0,0,0,73.873,134h55.521A4.612,4.612,0,0,0,134,129.394v-5.818a1.963,1.963,0,0,0-1.963-1.963ZM61.946,53.549a5.031,5.031,0,0,0-6.911-2.862l-5.389,2.632-4.391-4.391,2.632-5.389a4.954,4.954,0,0,0,.122-4.059l-.019-.046a4.968,4.968,0,0,0-2.966-2.805l-5.671-1.95v-6.21l5.671-1.949a5.031,5.031,0,0,0,2.862-6.911l-2.632-5.388,4.391-4.391,5.389,2.632A5.031,5.031,0,0,0,61.945,9.6l1.95-5.671h6.21L72.055,9.6a5.031,5.031,0,0,0,6.911,2.862l5.389-2.632,4.391,4.391-2.632,5.389A4.959,4.959,0,0,0,86,23.677l.015.036a4.968,4.968,0,0,0,2.966,2.805l5.671,1.949v6.21l-5.671,1.95a4.968,4.968,0,0,0-2.966,2.805L86,39.456a4.968,4.968,0,0,0,.112,4.083l2.632,5.389-4.391,4.391-5.389-2.632a5.031,5.031,0,0,0-6.911,2.863l-1.949,5.671H63.9Zm-1.139,75.844a.682.682,0,0,1-.681.681H4.607a.682.682,0,0,1-.681-.681V125.54H60.807ZM67,76.141a2.267,2.267,0,1,1,2.267-2.267A2.27,2.27,0,0,1,67,76.141Zm63.074,53.253a.681.681,0,0,1-.68.68H73.873a.681.681,0,0,1-.68-.68v-3.855H114.58a1.963,1.963,0,0,0,0-3.926H77.159v-32.4a.682.682,0,0,1,.681-.681h47.588a.682.682,0,0,1,.681.681v32.4h-2.368a1.963,1.963,0,0,0,0,3.926h6.334Z" transform="translate(0 0)" fill="#526270"/></g></svg>