<svg xmlns="http://www.w3.org/2000/svg" width="117.543" height="140.5" viewBox="0 0 117.543 140.5"><g transform="translate(-41.828)"><g transform="translate(68.956 80.466)"><g transform="translate(0 0)"><g transform="translate(0 0)"><path d="M191.5,311.288a2.986,2.986,0,0,1,1.8-1.664l7.049-2.354v-8.822l-7.049-2.354a2.986,2.986,0,0,1-1.8-1.664l-.01-.024a2.861,2.861,0,0,1,.064-2.417l3.271-6.508-6.42-6.238-6.7,3.178a3.1,3.1,0,0,1-2.488.062l-.025-.01a2.974,2.974,0,0,1-1.712-1.752l-2.423-6.849h-9.08l-2.423,6.849a2.974,2.974,0,0,1-1.712,1.752l-.025.01a3.1,3.1,0,0,1-2.488-.062l-6.7-3.178-6.42,6.238,3.271,6.508a2.861,2.861,0,0,1,.064,2.417l-.01.024a2.986,2.986,0,0,1-1.8,1.664l-7.049,2.354v8.822l7.049,2.354a2.986,2.986,0,0,1,1.8,1.664l.01.024a2.861,2.861,0,0,1-.064,2.417l-3.271,6.508,6.42,6.238,6.7-3.178a3.1,3.1,0,0,1,2.488-.062l.025.01A2.974,2.974,0,0,1,163.554,325l2.423,6.849h9.08L177.48,325a2.974,2.974,0,0,1,1.712-1.752l.025-.01a3.1,3.1,0,0,1,2.488.062l6.7,3.178,6.42-6.238-3.271-6.508a2.86,2.86,0,0,1-.064-2.417Zm-20.981,4.174a12.608,12.608,0,1,1,12.971-12.6A12.791,12.791,0,0,1,170.517,315.462Z" transform="translate(-140.684 -273.871)" fill="#2595d3"/></g></g></g><g transform="translate(41.828 0)"><path d="M200.309,36.183H173.668a2.058,2.058,0,0,0-2.058,2.058V48.17a2.058,2.058,0,0,0,2.058,2.058h26.641a2.058,2.058,0,0,0,2.058-2.058V38.241A2.058,2.058,0,0,0,200.309,36.183Zm-2.058,9.929H175.726V40.3h22.525Z" transform="translate(-135.996 -26.254)" fill="#526270"/><path d="M243.975,110.606a2.058,2.058,0,0,0,2.058,2.058h22.34a2.058,2.058,0,0,0,0-4.116h-22.34A2.058,2.058,0,0,0,243.975,110.606Z" transform="translate(-188.503 -78.761)" fill="#526270"/><path d="M173.668,112.664H183.6a2.058,2.058,0,0,0,0-4.116h-9.929a2.058,2.058,0,0,0,0,4.116Z" transform="translate(-135.996 -78.761)" fill="#526270"/><path d="M152.846,61.842q.051-.6.052-1.21A14.1,14.1,0,0,0,145.236,48.1V19.522a7.726,7.726,0,0,0-.117-1.365,8.172,8.172,0,0,0-2.305-4.478L131.557,2.422a8.17,8.17,0,0,0-4.477-2.3A7.694,7.694,0,0,0,125.714,0H87.326a8.272,8.272,0,0,0-8.263,8.263V27.044a2.058,2.058,0,0,0,4.116,0V8.263a4.151,4.151,0,0,1,4.146-4.146h37.349V15.4a5.167,5.167,0,0,0,5.161,5.161H141.12V46.736a14.128,14.128,0,0,0-2.311-.193,13.96,13.96,0,0,0-4.9.878,34.511,34.511,0,0,0-5.4-3.589h4.74a2.058,2.058,0,1,0,0-4.116H123.32a2.059,2.059,0,0,0-1.9,1.267,34.574,34.574,0,0,0-9.27-1.267h-21.1a2.058,2.058,0,1,0,0,4.116h4.737A34.583,34.583,0,0,0,83.18,55.423V36.648a2.058,2.058,0,0,0-4.116,0V59.477a24.811,24.811,0,0,0-.616,49.032v3.1a2.058,2.058,0,0,0,1.389,1.946l7.476,2.57a1.223,1.223,0,0,1,.676,1.632l-3.469,7.1a2.058,2.058,0,0,0,.394,2.359l6.81,6.81a2.058,2.058,0,0,0,2.358.394l7.1-3.47a1.221,1.221,0,0,1,1.631.676l2.57,7.476a2.058,2.058,0,0,0,1.946,1.389h9.631a2.058,2.058,0,0,0,1.946-1.389l2.57-7.477a1.226,1.226,0,0,1,1.632-.676l7.1,3.469a2.059,2.059,0,0,0,2.358-.394l6.81-6.81a2.058,2.058,0,0,0,.394-2.359l-3.469-7.1a1.227,1.227,0,0,1,.676-1.632l7.477-2.57a2.058,2.058,0,0,0,1.389-1.946v-3.1a24.644,24.644,0,0,0,11.5-5.186,2.058,2.058,0,1,0-2.592-3.2,20.547,20.547,0,0,1-8.9,4.2v-2.347a2.058,2.058,0,0,0-1.389-1.946l-7.477-2.57a1.223,1.223,0,0,1-.676-1.632l3.469-7.1a2.058,2.058,0,0,0-.394-2.359l-6.81-6.81a2.058,2.058,0,0,0-2.358-.394l-7.1,3.469a1.221,1.221,0,0,1-1.632-.676l-2.57-7.476a2.058,2.058,0,0,0-1.946-1.389h-9.63a2.058,2.058,0,0,0-1.946,1.389l-2.57,7.477a1.224,1.224,0,0,1-1.632.676l-7.1-3.469a2.058,2.058,0,0,0-2.358.394l-6.81,6.81a2.058,2.058,0,0,0-.394,2.359l3.469,7.1a1.224,1.224,0,0,1-.676,1.632l-7.477,2.57a2.059,2.059,0,0,0-1.389,1.946v2.342a20.7,20.7,0,0,1,3.915-40.979,2.058,2.058,0,0,0,1.867-1.234,30.458,30.458,0,0,1,47.964-10.751,2.058,2.058,0,0,0,2.257.3,9.874,9.874,0,0,1,4.36-1,9.982,9.982,0,0,1,9.767,11.994,2.058,2.058,0,0,0,1.214,2.31A20.674,20.674,0,0,1,162.436,84.04a20.445,20.445,0,0,1-2.218,9.327,2.058,2.058,0,1,0,3.672,1.86,24.525,24.525,0,0,0,2.662-11.188,24.779,24.779,0,0,0-13.707-22.2ZM128.791,15.4V5.477l10.968,10.968h-9.923a1.046,1.046,0,0,1-1.045-1.045ZM82.564,103.452l6.088-2.093a5.337,5.337,0,0,0,3.036-7.331l-2.825-5.784L93.6,83.512l5.784,2.825a5.276,5.276,0,0,0,4.332.119l.024-.01a5.27,5.27,0,0,0,2.975-3.145l2.092-6.088H115.5l2.092,6.087a5.269,5.269,0,0,0,2.975,3.146l.027.011a5.269,5.269,0,0,0,4.328-.12l5.784-2.825,4.733,4.733-2.825,5.784a5.263,5.263,0,0,0-.123,4.321l.014.034a5.269,5.269,0,0,0,3.145,2.976l6.088,2.093v6.693l-6.088,2.092a5.36,5.36,0,0,0-3.036,7.331l2.825,5.784-4.733,4.733-5.784-2.825a5.337,5.337,0,0,0-7.332,3.036l-2.093,6.087H108.8l-2.092-6.087a5.337,5.337,0,0,0-7.331-3.036L93.6,130.085l-4.733-4.733,2.825-5.784a5.263,5.263,0,0,0,.123-4.321l-.014-.034a5.269,5.269,0,0,0-3.145-2.976l-6.088-2.092v-6.693Z" transform="translate(-53.379 0)" fill="#526270"/><path d="M286.77,315.062l-.015-.006h0Z" transform="translate(-219.541 -228.599)" fill="#526270"/><path d="M214.176,363.181a15.816,15.816,0,1,0-3.5-31.243,2.058,2.058,0,1,0,.914,4.013,11.71,11.71,0,0,1,14.1,9.357H202.656a11.564,11.564,0,0,1,2.175-4.983,2.058,2.058,0,1,0-3.284-2.482,15.672,15.672,0,0,0-3.188,9.523A15.833,15.833,0,0,0,214.176,363.181Zm0-4.116a11.717,11.717,0,0,1-11.516-9.64h23.032A11.717,11.717,0,0,1,214.176,359.065Z" transform="translate(-155.405 -240.567)" fill="#526270"/><path d="M47.372,97.8a2.058,2.058,0,0,0,2.058,2.058h10.3a2.058,2.058,0,1,0,0-4.116H51.489V75.514l2.031,2.031a2.058,2.058,0,1,0,2.91-2.91L50.886,69.09a2.058,2.058,0,0,0-2.91,0l-5.544,5.544a2.058,2.058,0,1,0,2.91,2.91l2.031-2.031V97.8Z" transform="translate(-41.828 -49.693)" fill="#526270"/><path d="M416.783,90.8a2.058,2.058,0,0,0-2.91,0l-2.031,2.031V70.544a2.058,2.058,0,0,0-2.058-2.058h-10.3a2.058,2.058,0,0,0,0,4.116h8.245V92.827L405.695,90.8a2.058,2.058,0,0,0-2.91,2.911l5.544,5.544a2.058,2.058,0,0,0,2.91,0l5.544-5.544a2.058,2.058,0,0,0,0-2.911Z" transform="translate(-299.842 -49.692)" fill="#526270"/></g></g></svg>