<svg xmlns="http://www.w3.org/2000/svg" width="116.77" height="132.625" viewBox="0 0 116.77 132.625"><g transform="translate(-976 -2564)"><path d="M-7257.079-13159.483h34.676v27.724l-15.641,11.544-19.035-14.332Z" transform="translate(8308.737 15797.664)" fill="#2595d3"/><rect width="14" height="12" transform="translate(1064 2651.553)" fill="#fff"/><g transform="translate(988.624 2599.767)"><rect width="7" height="8" rx="1" transform="translate(0.376 -0.215)" fill="#2595d3"/><rect width="7" height="8" rx="1" transform="translate(0.376 19.785)" fill="#2595d3"/><rect width="7" height="8" rx="1" transform="translate(0.376 39.785)" fill="#2595d3"/><rect width="7" height="8" rx="1" transform="translate(0.376 59.785)" fill="#2595d3"/></g><g transform="translate(976 2564)"><path d="M96.734,35.208H72a4.335,4.335,0,0,0-4.33,4.33v4.4A4.335,4.335,0,0,0,72,48.267H96.734a4.335,4.335,0,0,0,4.33-4.33v-4.4A4.335,4.335,0,0,0,96.734,35.208Zm.445,8.729a.446.446,0,0,1-.445.445H72a.446.446,0,0,1-.445-.445v-4.4A.446.446,0,0,1,72,39.094H96.734a.446.446,0,0,1,.445.445Z" transform="translate(-58.069 -26.088)" fill="#526271"/><path d="M83.035,123.438a3.272,3.272,0,0,0-3.268-3.268H71.329a3.272,3.272,0,0,0-3.268,3.268v8.437a3.272,3.272,0,0,0,3.268,3.268h8.437a3.272,3.272,0,0,0,3.268-3.268Zm-3.886,7.82h-7.2v-7.2h7.2v7.2Z" transform="translate(-58.359 -89.042)" fill="#526271"/><path d="M213.863,123.438a3.272,3.272,0,0,0-3.268-3.268H163.843a3.272,3.272,0,0,0-3.268,3.268v8.437a3.272,3.272,0,0,0,3.268,3.268h46.751a3.272,3.272,0,0,0,3.268-3.268v-8.437Zm-3.886,7.82H164.46v-7.2h45.517Z" transform="translate(-126.909 -89.042)" fill="#526271"/><path d="M83.035,200.87a3.272,3.272,0,0,0-3.268-3.269H71.329a3.272,3.272,0,0,0-3.268,3.269v8.437a3.272,3.272,0,0,0,3.268,3.269h8.437a3.272,3.272,0,0,0,3.268-3.269Zm-3.886,7.82h-7.2v-7.2h7.2v7.2Z" transform="translate(-58.359 -146.416)" fill="#526271"/><path d="M83.035,278.3a3.272,3.272,0,0,0-3.268-3.268H71.329a3.272,3.272,0,0,0-3.268,3.268v8.437a3.272,3.272,0,0,0,3.268,3.268h8.437a3.272,3.272,0,0,0,3.268-3.268Zm-3.886,7.82h-7.2v-7.2h7.2v7.2Z" transform="translate(-58.359 -203.789)" fill="#526271"/><path d="M79.766,352.464H71.329a3.272,3.272,0,0,0-3.268,3.269v8.437a3.272,3.272,0,0,0,3.268,3.268h8.437a3.272,3.272,0,0,0,3.268-3.268v-8.437A3.272,3.272,0,0,0,79.766,352.464Zm-.617,11.088h-7.2v-7.2h7.2v7.2Z" transform="translate(-58.359 -261.164)" fill="#526271"/><path d="M367.059,290.031a6.259,6.259,0,0,0-6.252,6.252v3.564h-.942a3.013,3.013,0,0,0-3.01,3.01v10.988a3.013,3.013,0,0,0,3.01,3.01h14.388a3.013,3.013,0,0,0,3.01-3.01V302.858a3.013,3.013,0,0,0-3.01-3.01h-.942v-3.564A6.259,6.259,0,0,0,367.059,290.031Zm-2.367,6.252a2.367,2.367,0,0,1,4.734,0v3.564h-4.733v-3.564Zm8.685,16.686H360.741v-9.237h12.636Z" transform="translate(-272.346 -214.903)" fill="#526271"/><path d="M145.432,84.946A1.942,1.942,0,0,0,147.375,83V71.89A3.389,3.389,0,0,0,143.99,68.5H127.262V5.385A5.392,5.392,0,0,0,121.877,0H35.991a5.391,5.391,0,0,0-5.385,5.385V16.353a1.943,1.943,0,0,0,3.886,0V5.385a1.5,1.5,0,0,1,1.5-1.5H95.863v7.177a1.943,1.943,0,0,0,3.886,0V3.886h4.97v7.177a1.943,1.943,0,1,0,3.885,0V3.886h4.97v7.177a1.943,1.943,0,0,0,3.886,0V3.886h4.418a1.5,1.5,0,0,1,1.5,1.5V68.5H106.648a3.39,3.39,0,0,0-3.322,2.738H67.541a3.272,3.272,0,0,0-3.268,3.268v8.437a3.272,3.272,0,0,0,3.268,3.268h35.722V91.3H67.541a3.272,3.272,0,0,0-3.268,3.268V103a3.272,3.272,0,0,0,3.268,3.268h44l11.792,8.568.047.031V127.24a1.5,1.5,0,0,1-1.5,1.5H61.547v-7.178a1.943,1.943,0,0,0-3.886,0v7.178h-4.97v-7.178a1.943,1.943,0,0,0-3.886,0v7.178h-4.97v-7.178a1.943,1.943,0,0,0-3.886,0v7.178h-3.96a1.5,1.5,0,0,1-1.5-1.5V24.12a1.943,1.943,0,1,0-3.886,0V127.24a5.391,5.391,0,0,0,5.385,5.385h85.886a5.391,5.391,0,0,0,5.385-5.385V114.873l.047-.031,18.671-13.565a3.4,3.4,0,0,0,1.4-2.739V90.771a1.943,1.943,0,0,0-3.886,0v7.512l-18.17,13.2-18.171-13.2V72.39H143.49V83a1.942,1.942,0,0,0,1.942,1.942ZM68.158,82.331v-7.2h35.105v7.2Zm0,20.057v-7.2h35.105v3.352a3.394,3.394,0,0,0,1.4,2.739l1.531,1.112H68.158Z" transform="translate(-30.606 0)" fill="#526271"/><path d="M177.366,208.69a1.943,1.943,0,0,0,0,3.886h33.229a3.272,3.272,0,0,0,3.268-3.269V200.87a3.272,3.272,0,0,0-3.268-3.268H163.843a3.272,3.272,0,0,0-3.268,3.268v8.437a3.272,3.272,0,0,0,3.268,3.269H169.6a1.943,1.943,0,0,0,0-3.886H164.46v-7.2h45.517v7.2Z" transform="translate(-126.909 -146.416)" fill="#526271"/></g></g></svg>