<svg xmlns="http://www.w3.org/2000/svg" width="139.954" height="127.413" viewBox="0 0 139.954 127.413"><g transform="translate(0 -22.939)"><g transform="translate(2.05 86.33)"><g transform="translate(85.968 33.503)"><path d="M357.67,388.867h-34.3A1.367,1.367,0,0,1,322,387.5v-8.721a1.367,1.367,0,0,1,1.367-1.367h34.3a1.367,1.367,0,0,1,1.367,1.367V387.5A1.367,1.367,0,0,1,357.67,388.867Z" transform="translate(-322 -377.412)" fill="#fff"/></g><g transform="translate(85.968 33.503)"><path d="M336.9,387.5v-8.721a1.367,1.367,0,0,1,1.367-1.367h-14.9A1.367,1.367,0,0,0,322,378.779V387.5a1.367,1.367,0,0,0,1.367,1.367h14.9A1.367,1.367,0,0,1,336.9,387.5Z" transform="translate(-322 -377.412)" fill="#eef5f6"/></g><g transform="translate(0 0)"><g transform="translate(8.069 0)"><path d="M45.219,263.064v-7.3c0-4.727,4.518-8.572,10.073-8.572s10.073,3.845,10.073,8.572v7.3h8.2v-7.3c0-8.588-8.181-15.551-18.273-15.551s-18.273,6.962-18.273,15.551v7.3Z" transform="translate(-37.019 -240.212)" fill="#2595d3"/></g><g transform="translate(0.005 25.627)"><path d="M53.877,373.791H10.038A2.53,2.53,0,0,1,7.5,371.269v-31.3a2.53,2.53,0,0,1,2.538-2.522H53.877a2.53,2.53,0,0,1,2.538,2.522v31.3A2.53,2.53,0,0,1,53.877,373.791Z" transform="translate(-7.5 -337.446)" fill="#2595d3"/></g><g transform="translate(0 33.97)"><path d="M7.5,379.118H60.183V395.73H7.5Z" transform="translate(-7.5 -379.118)" fill="#fff"/></g></g></g><g transform="translate(0 22.939)"><path d="M137.9,99.083a2.05,2.05,0,0,0,2.05-2.05V73.074a4.789,4.789,0,0,0-4.784-4.784h-1.333V45.338a2.873,2.873,0,0,0-2.87-2.87h-2.681V25.809a2.873,2.873,0,0,0-2.87-2.87H32.687a2.873,2.873,0,0,0-2.87,2.87V32.7H24.948a2.873,2.873,0,0,0-2.87,2.87v16H20.745a4.789,4.789,0,0,0-4.784,4.784V84.541A20.3,20.3,0,0,0,8.069,100.6v6.256H4.784A4.789,4.789,0,0,0,0,111.642v33.927a4.789,4.789,0,0,0,4.784,4.784H52a4.788,4.788,0,0,0,4.742-4.185H135.17a4.789,4.789,0,0,0,4.784-4.784V106.6a2.05,2.05,0,1,0-4.1,0v34.784a.684.684,0,0,1-.683.683H56.783V111.642A4.789,4.789,0,0,0,52,106.859H48.715V100.6a20.31,20.31,0,0,0-28.653-18.53V72.391H135.17a.684.684,0,0,1,.683.683V97.033A2.05,2.05,0,0,0,137.9,99.083ZM52.683,145.569a.684.684,0,0,1-.683.683H4.784a.684.684,0,0,1-.683-.683v-6.607H52.683ZM52,110.959a.684.684,0,0,1,.683.683v6.607H44.009a2.05,2.05,0,1,0,0,4.1h8.674v12.511H4.1V122.35H34.442a2.05,2.05,0,1,0,0-4.1H4.1v-6.607a.684.684,0,0,1,.683-.683Zm-31.63-4.1V100.6a8.022,8.022,0,0,1,16.045,0v6.256ZM28.392,84.38A16.241,16.241,0,0,1,44.614,100.6v6.256h-4.1V100.6a12.123,12.123,0,0,0-24.245,0v6.256h-4.1V100.6A16.241,16.241,0,0,1,28.392,84.38ZM26.178,36.8H97.585a2.05,2.05,0,1,0,0-4.1H33.917V27.039h90.269V42.468h-3.639V35.573a2.873,2.873,0,0,0-2.87-2.87H107.152a2.05,2.05,0,1,0,0,4.1h9.295v5.664H38.238a2.873,2.873,0,0,0-2.87,2.87v6.238h-9.19ZM20.062,68.291V56.359a.684.684,0,0,1,.683-.683H63.662a.681.681,0,0,1,.609.373l6.235,12.242Zm109.676,0H75.107l-7.183-14.1a4.762,4.762,0,0,0-4.263-2.613H39.468V46.568h90.269V68.291Z" transform="translate(0 -22.939)" fill="#526271"/><path d="M316.064,140.182H346.61a2.05,2.05,0,0,0,0-4.1H316.064a2.05,2.05,0,1,0,0,4.1Z" transform="translate(-228.179 -105.155)" fill="#526271"/><path d="M317.917,369.912a3.421,3.421,0,0,0-3.417,3.417v8.721a3.421,3.421,0,0,0,3.417,3.417h34.3a3.42,3.42,0,0,0,3.417-3.417v-8.721a3.421,3.421,0,0,0-3.417-3.417Zm33.62,11.455H318.6v-7.354h32.937Z" transform="translate(-228.532 -275.068)" fill="#526271"/></g></g></svg>