<svg xmlns="http://www.w3.org/2000/svg" width="122.1" height="122.407" viewBox="0 0 122.1 122.407"><g transform="translate(-540.5 -2114.917)"><g transform="translate(540.943 2203.638)"><circle cx="15.957" cy="15.957" r="15.957" transform="translate(0 0)" fill="#2595d3"/><circle cx="15.957" cy="15.957" r="15.957" transform="translate(83.329 1.773)" fill="#2595d3"/><ellipse cx="12.411" cy="11.967" rx="12.411" ry="11.967" transform="translate(24.821 7.978)" fill="#2595d3"/><circle cx="13.297" cy="13.297" r="13.297" transform="translate(68.259 5.319)" fill="#2595d3"/><ellipse cx="8.422" cy="7.978" rx="8.422" ry="7.978" transform="translate(51.416 15.957)" fill="#2595d3"/><rect width="82.442" height="14.184" transform="translate(16.843 17.729)" fill="#2595d3"/></g><g transform="translate(540.5 2114.917)"><g transform="translate(0 0)"><path d="M103.75,42a20.338,20.338,0,0,0-15.792,7.511A16.231,16.231,0,0,0,66.916,56.9a12.082,12.082,0,0,0-10.258,1.154A16.221,16.221,0,0,0,38.931,50.59,20.146,20.146,0,0,0,22.35,42a20.35,20.35,0,1,0,0,40.7h81.4a20.35,20.35,0,1,0,0-40.7Zm0,36.63H22.35A16.28,16.28,0,1,1,36.31,54.007l.847,1.424,1.563-.539a12.163,12.163,0,0,1,15.33,7.051l1.127,2.849,2.188-2.141a8.036,8.036,0,0,1,9.611-1.27l2.1,1.164.814-2.259a12.173,12.173,0,0,1,17.656-6.418l1.648.969,1.068-1.585A16.28,16.28,0,1,1,103.75,78.63Z" transform="translate(-2 39.579)" fill="#526271"/><path d="M28,43.14a21.538,21.538,0,0,0,6.351,15.334l1.789,1.789,1.789-1.789A21.538,21.538,0,0,0,44.28,43.14a8.14,8.14,0,0,0-16.28,0Zm12.21,0A17.483,17.483,0,0,1,36.14,54.4,17.483,17.483,0,0,1,32.07,43.14a4.07,4.07,0,1,1,8.14,0Z" transform="translate(24.91 32.334)" fill="#526271"/><path d="M47.292,2.256l-.8-.344-.8.344A25.511,25.511,0,0,0,30.21,25.73v7.517A19.86,19.86,0,0,0,18,51.59v5.446h2.035v8.14h12.21v-8.14h6.1v8.14H54.63v-8.14h6.1v8.14h12.21v-8.14H74.98V51.59A19.86,19.86,0,0,0,62.77,33.247V25.73A25.511,25.511,0,0,0,47.292,2.256ZM22.07,51.59a15.8,15.8,0,0,1,8.14-13.838V52.966H22.07Zm6.1,9.516H24.1v-4.07h4.07Zm22.385,0H42.42v-4.07h8.14Zm8.14-8.14H34.28V25.73A21.443,21.443,0,0,1,46.49,6.365,21.443,21.443,0,0,1,58.7,25.734Zm10.175,8.14H64.8v-4.07h4.07ZM70.91,51.59v1.376H62.77V37.756A15.8,15.8,0,0,1,70.91,51.59Z" transform="translate(14.56 -1.912)" fill="#526271"/><path d="M19,41.1a11.941,11.941,0,0,0,3.474,8.386L25.1,52.122l2.631-2.631A11.941,11.941,0,0,0,31.21,41.1,6.1,6.1,0,0,0,19,41.1Zm8.14,0a7.845,7.845,0,0,1-2.035,5.25,7.845,7.845,0,0,1-2.035-5.25,2.035,2.035,0,1,1,4.07,0Z" transform="translate(15.595 32.334)" fill="#526271"/><path d="M39,41.1a11.941,11.941,0,0,0,3.474,8.386L45.1,52.122l2.631-2.631A11.941,11.941,0,0,0,51.21,41.1a6.1,6.1,0,0,0-12.21,0Zm8.14,0a7.845,7.845,0,0,1-2.035,5.25,7.845,7.845,0,0,1-2.035-5.25,2.035,2.035,0,1,1,4.07,0Z" transform="translate(36.295 32.334)" fill="#526271"/><path d="M36.14,10a8.14,8.14,0,1,0,8.14,8.14A8.14,8.14,0,0,0,36.14,10Zm0,12.21a4.07,4.07,0,1,1,4.07-4.07A4.07,4.07,0,0,1,36.14,22.21Z" transform="translate(24.91 6.459)" fill="#526271"/></g></g></g></svg>