<svg xmlns="http://www.w3.org/2000/svg" width="144.5" height="176.706" viewBox="0 0 144.5 176.706"><g transform="translate(-47.063 0)"><path d="M220.45,202.7a18.028,18.028,0,0,0-6.77,1.316,4.9,4.9,0,0,1-2.189,1.062c-.09.051-.18.1-.269.155a4.911,4.911,0,0,1-.709,9.771h-1.7l-1.537,7.4a4.2,4.2,0,0,1-4.11,3.344H203A18.129,18.129,0,1,0,220.45,202.7Z" transform="translate(-106.35 -130.893)" fill="#2595d3"/><g transform="translate(47.063 112.159)"><g transform="translate(0)"><path d="M103.624,332.788H57.488a1.727,1.727,0,0,1-1.727-1.727V313.322a1.727,1.727,0,0,1,1.727-1.727h46.135a1.727,1.727,0,0,1,1.727,1.727V331.06A1.728,1.728,0,0,1,103.624,332.788Z" transform="translate(-55.761 -311.595)" fill="#2595d3"/></g><path d="M67.341,331.06V313.322a1.727,1.727,0,0,1,1.727-1.727H57.488a1.727,1.727,0,0,0-1.727,1.727V331.06a1.727,1.727,0,0,0,1.727,1.727h11.58a1.727,1.727,0,0,1-1.727-1.727Z" transform="translate(-55.761 -311.595)" fill="#2595d3"/></g><g transform="translate(135.689 55.688)"><path d="M360.415,166.488H314.279a1.727,1.727,0,0,1-1.727-1.727V147.023a1.727,1.727,0,0,1,1.727-1.727h46.135a1.727,1.727,0,0,1,1.727,1.727v17.738A1.727,1.727,0,0,1,360.415,166.488Z" transform="translate(-312.552 -145.296)" fill="#2595d3"/><g transform="translate(0 0)"><path d="M324.2,164.761V147.023a1.727,1.727,0,0,1,1.727-1.727H314.279a1.727,1.727,0,0,0-1.727,1.727v17.738a1.727,1.727,0,0,0,1.727,1.727h11.652A1.727,1.727,0,0,1,324.2,164.761Z" transform="translate(-312.552 -145.296)" fill="#2595d3"/></g></g><g transform="translate(48.169 0)"><path d="M77.921,339.974H84.39a2.588,2.588,0,0,0,0-5.177H77.921a2.588,2.588,0,1,0,0,5.177Z" transform="translate(-65.989 -219.249)" fill="#526271"/><path d="M120.986,339.974h16.041a2.588,2.588,0,0,0,0-5.177H120.986a2.588,2.588,0,1,0,0,5.177Z" transform="translate(-94.191 -219.249)" fill="#526271"/><path d="M187.338,47.557H158.9a56.338,56.338,0,0,0-29.776-15.081c.061-.786.094-1.577.094-2.374a30.1,30.1,0,0,0-60.194-.824A30.239,30.239,0,0,0,77.183,50.7a56.469,56.469,0,0,0-11.929,54.25H52.576a4.321,4.321,0,0,0-4.316,4.316v17.738a4.321,4.321,0,0,0,4.316,4.316h29.8q1.568,1.363,3.245,2.619a11.393,11.393,0,0,1,4.607,9.068v27.655a6.05,6.05,0,0,0,6.043,6.043h39.881a6.05,6.05,0,0,0,6.043-6.043V166.7a2.588,2.588,0,1,0-5.177,0v3.966a.867.867,0,0,1-.866.866H96.276a.867.867,0,0,1-.866-.866V143.007a16.544,16.544,0,0,0-4.922-11.686h8.224a4.321,4.321,0,0,0,4.316-4.316v-2.972a39.378,39.378,0,0,0,52.837-50.107h13.174a51.728,51.728,0,0,1,2.052,13.651,6.109,6.109,0,0,0,.772,2.883l11.558,20.573a3.055,3.055,0,0,1-2.664,4.551h-8.7a6.05,6.05,0,0,0-6.044,6.043v11.037a12.433,12.433,0,0,1-12.418,12.418H143.066a6.05,6.05,0,0,0-6.044,6.043v3.492a2.588,2.588,0,0,0,5.177,0v-3.492a.867.867,0,0,1,.867-.866h10.528a17.615,17.615,0,0,0,17.6-17.6V121.627a.867.867,0,0,1,.867-.866h8.7a8.232,8.232,0,0,0,7.177-12.264L176.377,87.925a.914.914,0,0,1-.109-.431,56.98,56.98,0,0,0-1.862-13.567h12.932a4.321,4.321,0,0,0,4.316-4.316V51.873a4.321,4.321,0,0,0-4.316-4.316Zm-36.343,0H141.2a4.321,4.321,0,0,0-4.316,4.316v1.076a39.091,39.091,0,0,0-14.222-4.085A29.784,29.784,0,0,0,128.283,37.6a51.125,51.125,0,0,1,22.711,9.961ZM74.2,29.417A25.035,25.035,0,0,1,98.744,5.179l.376,0a24.923,24.923,0,0,1,15.345,44.562,14.572,14.572,0,0,0-4.979,7.08l-1.011,3.2h-6.769V48.458a18.547,18.547,0,0,0,14.814-24.764,2.588,2.588,0,1,0-4.857,1.789,13.373,13.373,0,0,1-9.956,17.728V39.282a9.541,9.541,0,1,0-5.177,0v3.929a13.363,13.363,0,0,1,2.588-26.474,13.244,13.244,0,0,1,5.7,1.275,2.588,2.588,0,1,0,2.212-4.68,18.375,18.375,0,0,0-7.912-1.772,18.539,18.539,0,0,0-2.588,36.9V60.016H89.76l-.99-3.133a14.222,14.222,0,0,0-4.857-7.035A25.035,25.035,0,0,1,74.2,29.417Zm29.208,59.714a1.616,1.616,0,0,1-1.576,1.282H96.5a1.618,1.618,0,0,1-1.573-1.27L94,84.849H104.3Zm-14.35-9.459a2.325,2.325,0,0,1,0-4.651h20.117a2.325,2.325,0,0,1,0,4.651Zm20.117-9.828H89.059a2.325,2.325,0,0,1,0-4.65h20.117a2.325,2.325,0,1,1,0,4.65ZM99.117,34.466a4.364,4.364,0,1,1,4.364-4.364A4.369,4.369,0,0,1,99.117,34.466ZM67.955,87.413A51.163,51.163,0,0,1,81.022,54.175a9.11,9.11,0,0,1,2.812,4.269l.927,2.932A7.474,7.474,0,0,0,83.125,72.09q-.46,1.031-.862,2.093a7.4,7.4,0,0,0-.464,1.292,39.328,39.328,0,0,0,1.728,29.476H70.693a51.457,51.457,0,0,1-2.738-17.538Zm29.9,38.731H53.437V110.129H97.851Zm55.475-38.058a34.191,34.191,0,0,1-50.3,30.18v-9a4.321,4.321,0,0,0-4.316-4.316H89.364a34.094,34.094,0,0,1-4.186-21.194,7.444,7.444,0,0,0,3.528,1.081l1.165,5.4A6.822,6.822,0,0,0,96.5,95.589h3.3a20.7,20.7,0,0,0,26.628,11.875,2.588,2.588,0,1,0-1.835-4.841,15.522,15.522,0,0,1-19.52-7.873,6.8,6.8,0,0,0,3.4-4.567l1.111-5.347a7.49,7.49,0,0,0,5.711-11.81,15.527,15.527,0,0,1,17.236,22.879A2.588,2.588,0,1,0,137,98.52a20.706,20.706,0,0,0-20.326-31.007,7.5,7.5,0,0,0-3.2-6.137l.947-3a9.4,9.4,0,0,1,3.114-4.463c.523-.025,1.048-.041,1.578-.041a34,34,0,0,1,17.773,5v10.74a4.321,4.321,0,0,0,4.316,4.316h9.048a33.994,33.994,0,0,1,3.075,14.16Zm33.152-19.337H142.063V52.734h44.414Z" transform="translate(-48.26 0)" fill="#526271"/><path d="M334.712,173.675h6.468a2.588,2.588,0,1,0,0-5.177h-6.468a2.588,2.588,0,0,0,0,5.177Z" transform="translate(-234.154 -110.344)" fill="#526271"/><path d="M377.777,173.675h16.041a2.588,2.588,0,0,0,0-5.177H377.777a2.588,2.588,0,1,0,0,5.177Z" transform="translate(-262.356 -110.344)" fill="#526271"/></g></g></svg>