<svg xmlns="http://www.w3.org/2000/svg" width="145" height="154.077" viewBox="0 0 145 154.077"><g transform="translate(-13.835)"><g transform="translate(21.36 26.592)"><g transform="translate(67.468)"><g transform="translate(0)"><path d="M274.776,100.17h-9.55a.9.9,0,0,1-.9-.9v-9.55a.9.9,0,0,1,.9-.9h9.55a.9.9,0,0,1,.9.9v9.55A.9.9,0,0,1,274.776,100.17Z" transform="translate(-264.328 -88.824)" fill="#2595d3"/><path d="M269.35,99.272v-9.55a.9.9,0,0,1,.9-.9h-5.022a.9.9,0,0,0-.9.9v9.55a.9.9,0,0,0,.9.9h5.022A.9.9,0,0,1,269.35,99.272Z" transform="translate(-264.328 -88.824)" fill="#2595d3"/></g><g transform="translate(0 20.092)"><path d="M274.776,167.282h-9.55a.9.9,0,0,1-.9-.9v-9.55a.9.9,0,0,1,.9-.9h9.55a.9.9,0,0,1,.9.9v9.55A.9.9,0,0,1,274.776,167.282Z" transform="translate(-264.328 -155.936)" fill="#2595d3"/><path d="M269.35,166.384v-9.55a.9.9,0,0,1,.9-.9h-5.022a.9.9,0,0,0-.9.9v9.55a.9.9,0,0,0,.9.9h5.022A.9.9,0,0,1,269.35,166.384Z" transform="translate(-264.328 -155.936)" fill="#2595d3"/></g><g transform="translate(0 40.184)"><path d="M274.776,234.394h-9.55a.9.9,0,0,1-.9-.9v-9.55a.9.9,0,0,1,.9-.9h9.55a.9.9,0,0,1,.9.9v9.55A.9.9,0,0,1,274.776,234.394Z" transform="translate(-264.328 -223.048)" fill="#2595d3"/><path d="M269.35,233.5v-9.55a.9.9,0,0,1,.9-.9h-5.022a.9.9,0,0,0-.9.9v9.55a.9.9,0,0,0,.9.9h5.022A.9.9,0,0,1,269.35,233.5Z" transform="translate(-264.328 -223.048)" fill="#2595d3"/></g><g transform="translate(0 60.276)"><path d="M274.776,290.159h-9.55a.9.9,0,0,0-.9.9v2.3a36.594,36.594,0,0,1,5.553,8.144h4.9a.9.9,0,0,0,.9-.9v-9.55A.9.9,0,0,0,274.776,290.159Z" transform="translate(-264.328 -290.159)" fill="#2595d3"/><path d="M269.35,300.48v-9.423a.9.9,0,0,1,.9-.9h-5.022a.9.9,0,0,0-.9.9v2.3A36.652,36.652,0,0,1,269.35,300.48Z" transform="translate(-264.328 -290.159)" fill="#2595d3"/></g></g><g transform="translate(0 54.433)"><path d="M88.188,260.489a36.663,36.663,0,0,0-7.7.815A19.331,19.331,0,0,1,53.95,284.267a36.531,36.531,0,1,0,34.238-23.778Z" transform="translate(-51.662 -260.489)" fill="#2595d3"/><path d="M115.941,300.1a24.548,24.548,0,0,0-8.306,1.443,19.365,19.365,0,0,1-13.476,11.665A24.662,24.662,0,1,0,115.941,300.1Z" transform="translate(-75.615 -291.282)" fill="#fff"/><g transform="translate(86.073 24.941)"><path d="M350.474,353.952H332.78a.9.9,0,0,0-.742.392l-5.564,8.153,5.564,8.153a.9.9,0,0,0,.742.392h17.694a.9.9,0,0,0,.731-1.42l-5.085-7.125,5.085-7.125a.9.9,0,0,0-.731-1.42Z" transform="translate(-326.474 -353.952)" fill="#fff"/></g><g transform="translate(86.073 24.941)"><path d="M350.474,353.952H332.78a.9.9,0,0,0-.742.392l-5.564,8.153,5.564,8.153a.9.9,0,0,0,.742.392h17.694a.9.9,0,0,0,.731-1.42l-5.085-7.125,5.085-7.125a.9.9,0,0,0-.731-1.42Z" transform="translate(-326.474 -353.952)" fill="#fff"/></g><g transform="translate(86.074 24.941)"><path d="M339.63,370.65l-5.563-8.153,5.563-8.153a.9.9,0,0,1,.742-.392H332.78a.9.9,0,0,0-.742.392l-5.563,8.153,5.563,8.153a.9.9,0,0,0,.742.392h7.591A.9.9,0,0,1,339.63,370.65Z" transform="translate(-326.475 -353.951)" fill="#eef5f6"/></g><g transform="translate(27.518 20.679)"><circle cx="12.808" cy="12.808" r="12.808" fill="#2595d3"/></g></g></g><g transform="translate(13.835)"><path d="M156.589,69.008a2.245,2.245,0,0,0,2.245-2.245V5.239A5.245,5.245,0,0,0,153.6,0H78.269A5.245,5.245,0,0,0,73.03,5.239v72.2a38.787,38.787,0,0,0-17.547-1.195A21.573,21.573,0,1,0,24.7,102.871,38.767,38.767,0,0,0,95.714,133.08h59.427a3.7,3.7,0,0,0,3.694-3.694V77.241a2.245,2.245,0,1,0-4.491,0v51.349H97.811a38.5,38.5,0,0,0,2.579-11.832h5.857l4.895,7.173a3.141,3.141,0,0,0,2.6,1.372h17.694a3.143,3.143,0,0,0,2.559-4.969l-2.552-3.576h.108a2.245,2.245,0,1,0,0-4.491h-.108l2.552-3.575a3.143,3.143,0,0,0-2.558-4.97H113.739a3.141,3.141,0,0,0-2.6,1.371l-4.9,7.173H100.39a38.5,38.5,0,0,0-2.57-11.807h1.455a3.147,3.147,0,0,0,3.144-3.144v-9.55a3.147,3.147,0,0,0-3.144-3.144h-9.55a3.132,3.132,0,0,0-2.257.96,38.888,38.888,0,0,0-9.948-6.459V18.989h76.823V66.762a2.245,2.245,0,0,0,2.245,2.245Zm-42.139,51.8-2.767-4.054h14.239l2.894,4.054Zm0-12.6h14.366l-2.894,4.054H111.684ZM18.326,84.15a17.088,17.088,0,1,1,17.088,17.088A17.107,17.107,0,0,1,18.326,84.15Zm43.36,64.643A34.287,34.287,0,0,1,28.837,104.7a21.492,21.492,0,0,0,6.576,1.028c.282,0,.562-.01.842-.021A26.9,26.9,0,0,0,76.4,137.032a2.245,2.245,0,1,0-2.461-3.756,22.406,22.406,0,0,1-32.481-28.415A21.672,21.672,0,0,0,55.04,93.1a22.413,22.413,0,0,1,28.955,19.166H76.57a15.053,15.053,0,1,0,0,4.491h7.422a22.313,22.313,0,0,1-3.367,9.73,2.246,2.246,0,1,0,3.792,2.407A26.792,26.792,0,0,0,88.5,116.757h7.391a34.324,34.324,0,0,1-34.205,32.035Zm0-32.035h10.32a10.562,10.562,0,1,1,0-4.491H61.686a2.245,2.245,0,1,0,0,4.491ZM91.073,89.114h6.855v6.855h-2.2a38.95,38.95,0,0,0-4.654-6.719v-.136Zm4.818,23.153H88.5A26.9,26.9,0,0,0,56.626,88.081a21.341,21.341,0,0,0,.068-7.483,34.265,34.265,0,0,1,39.2,31.668ZM90.995,14.5H77.521V5.239a.749.749,0,0,1,.748-.748H91V14.5Zm4.491,0V4.491H153.6a.749.749,0,0,1,.748.748V14.5Z" transform="translate(-13.835 0)" fill="#526271"/><path d="M358.273,87.114H323.289a2.245,2.245,0,0,0,0,4.491h34.984a2.245,2.245,0,1,0,0-4.491Z" transform="translate(-229.071 -61.034)" fill="#526271"/><path d="M323.289,117.923h20.719a2.245,2.245,0,0,0,0-4.491H323.289a2.245,2.245,0,0,0,0,4.491Z" transform="translate(-229.071 -79.473)" fill="#526271"/><path d="M358.273,154.226H323.289a2.245,2.245,0,1,0,0,4.491h34.984a2.245,2.245,0,1,0,0-4.491Z" transform="translate(-229.071 -108.054)" fill="#526271"/><path d="M323.289,185.035h20.719a2.245,2.245,0,0,0,0-4.491H323.289a2.245,2.245,0,0,0,0,4.491Z" transform="translate(-229.071 -126.492)" fill="#526271"/><path d="M358.273,221.337H323.289a2.245,2.245,0,0,0,0,4.491h34.984a2.245,2.245,0,1,0,0-4.491Z" transform="translate(-229.071 -155.073)" fill="#526271"/><path d="M323.289,252.147h20.719a2.245,2.245,0,0,0,0-4.491H323.289a2.245,2.245,0,0,0,0,4.491Z" transform="translate(-229.071 -173.512)" fill="#526271"/><path d="M272.665,84.468a3.147,3.147,0,0,0-3.143-3.144h-9.55a3.147,3.147,0,0,0-3.144,3.144v9.55a3.147,3.147,0,0,0,3.144,3.144h9.55a3.147,3.147,0,0,0,3.143-3.144Zm-4.491,8.2h-6.855V85.815h6.855Z" transform="translate(-184.08 -56.977)" fill="#526271"/><path d="M272.665,151.58a3.147,3.147,0,0,0-3.143-3.144h-9.55a3.147,3.147,0,0,0-3.144,3.144v9.55a3.147,3.147,0,0,0,3.144,3.144h9.55a3.147,3.147,0,0,0,3.143-3.144Zm-4.491,8.2h-6.855v-6.855h6.855Z" transform="translate(-184.08 -103.997)" fill="#526271"/><path d="M269.521,215.547h-9.55a3.147,3.147,0,0,0-3.144,3.144v9.55a3.147,3.147,0,0,0,3.144,3.144h9.55a3.147,3.147,0,0,0,3.143-3.144v-9.55a3.147,3.147,0,0,0-3.143-3.144Zm-1.347,11.346h-6.855v-6.855h6.855Z" transform="translate(-184.08 -151.016)" fill="#526271"/><path d="M360.518,290.694a2.245,2.245,0,0,0-2.245-2.245H323.289a2.245,2.245,0,0,0,0,4.491h34.984A2.245,2.245,0,0,0,360.518,290.694Z" transform="translate(-229.071 -202.093)" fill="#526271"/><path d="M323.289,314.768a2.245,2.245,0,0,0,0,4.491h20.719a2.245,2.245,0,0,0,0-4.491Z" transform="translate(-229.071 -220.532)" fill="#526271"/><path d="M69.242,260.574v-1.622a6,6,0,0,0-.168-12H64.919a1.514,1.514,0,0,1,0-3.029H72.24a2.245,2.245,0,0,0,0-4.491h-3v-1.613a2.245,2.245,0,0,0-4.491,0v1.621a6,6,0,0,0,.168,12h4.155a1.514,1.514,0,1,1,0,3.029H61.753a2.245,2.245,0,0,0,0,4.491h3v1.613a2.245,2.245,0,0,0,4.491,0Z" transform="translate(-45.418 -165.047)" fill="#526271"/><path d="M72.8,88.353h31.723a3.3,3.3,0,0,0,3.3-3.3V69.792a2.245,2.245,0,1,0-4.491,0V83.863H73.991V51.541l5.55-5.55h23.783V59.313a2.245,2.245,0,0,0,4.491,0V44.8a3.3,3.3,0,0,0-3.3-3.3H79.045a3.276,3.276,0,0,0-2.33.965l-6.249,6.25a3.273,3.273,0,0,0-.966,2.331V85.058A3.3,3.3,0,0,0,72.8,88.353Z" transform="translate(-52.835 -29.076)" fill="#526271"/><path d="M118.743,74.185H104.58a2.245,2.245,0,1,0,0,4.491h14.163a2.245,2.245,0,1,0,0-4.491Z" transform="translate(-75.84 -51.975)" fill="#526271"/><path d="M118.743,99.448H104.58a2.245,2.245,0,0,0,0,4.491h14.163a2.245,2.245,0,1,0,0-4.491Z" transform="translate(-75.84 -69.675)" fill="#526271"/><path d="M120.989,127.183a2.245,2.245,0,0,0-2.245-2.245H104.58a2.245,2.245,0,0,0,0,4.491h14.163A2.245,2.245,0,0,0,120.989,127.183Z" transform="translate(-75.84 -87.534)" fill="#526271"/><path d="M104.58,150.315a2.245,2.245,0,0,0,0,4.491h6.349a2.245,2.245,0,1,0,0-4.491Z" transform="translate(-75.84 -105.313)" fill="#526271"/></g></g></svg>