<svg xmlns="http://www.w3.org/2000/svg" width="141.328" height="119.2" viewBox="0 0 141.328 119.2"><g transform="translate(0 -40.083)"><g transform="translate(7.428 45.647)"><g transform="translate(0 0)"><path d="M167.905,62.519H39.57V50.345a2.762,2.762,0,0,1,2.762-2.762H165.144a2.762,2.762,0,0,1,2.762,2.762Z" transform="translate(-39.57 -47.583)" fill="#2595d3"/></g></g><g transform="translate(71.126 117.793)"><g transform="translate(0 0)"><g transform="translate(0 15.371)"><path d="M275.023,385.073H267.8V370.53a.828.828,0,0,1,.828-.828h5.568a.828.828,0,0,1,.828.828Z" transform="translate(-267.799 -369.702)" fill="#2595d3"/></g><g transform="translate(13.912)"><path d="M325.424,344.758H318.2V314.843a.828.828,0,0,1,.828-.828H324.6a.828.828,0,0,1,.828.828v29.915Z" transform="translate(-318.2 -314.015)" fill="#2595d3"/></g><g transform="translate(27.825 18.446)"><path d="M375.827,393.136H368.6V381.667a.828.828,0,0,1,.828-.828H375a.828.828,0,0,1,.828.828Z" transform="translate(-368.603 -380.839)" fill="#2595d3"/></g><g transform="translate(41.738 6.148)"><path d="M426.229,360.883H419V337.117a.828.828,0,0,1,.828-.828H425.4a.828.828,0,0,1,.828.828Z" transform="translate(-419.005 -336.289)" fill="#2595d3"/></g></g></g><g transform="translate(0 40.083)"><path d="M139.258,122.731a2.07,2.07,0,0,0,2.07-2.07V44.915a4.838,4.838,0,0,0-4.832-4.832H110.689a2.07,2.07,0,1,0,0,4.14H136.5a.692.692,0,0,1,.691.691v10.1H12.993v-10.1a.692.692,0,0,1,.691-.691h87.343a2.07,2.07,0,1,0,0-4.14H13.684a4.838,4.838,0,0,0-4.832,4.832v41.26h-5.4A3.457,3.457,0,0,0,0,89.628v9.957a3.457,3.457,0,0,0,3.453,3.453h5.4v50.034a6.218,6.218,0,0,0,6.211,6.211H135.117a6.218,6.218,0,0,0,6.211-6.211v-22.75a2.07,2.07,0,0,0-4.14,0v22.75a2.072,2.072,0,0,1-2.07,2.07H62.972l-6.628-34.711a8.272,8.272,0,0,0,1.454-4.693v-1.084H60.43a6.226,6.226,0,0,0,6.219-6.219v-2.412h9.707a3.458,3.458,0,0,0,3.435,3.1H99.428a3.457,3.457,0,0,0,3.453-3.453V83.543a3.457,3.457,0,0,0-3.453-3.453H79.79a3.458,3.458,0,0,0-3.435,3.1H56.034a2.07,2.07,0,1,0,0,4.14h20.3v14.553H33.324a.7.7,0,0,1-.7-.7V88.026a.7.7,0,0,1,.7-.7H46.373a2.07,2.07,0,1,0,0-4.14H33.324a4.842,4.842,0,0,0-4.466,2.985H12.993V59.159H137.188v61.5a2.07,2.07,0,0,0,2.07,2.07Zm-58.78-38.5H98.741V95.855H80.478Zm0,15.765H98.741v4.987H80.478ZM56.5,143.317l2.258,11.825H39.976l2.258-11.825Zm-10.446-20a8.3,8.3,0,0,0,6.645.092l3.01,15.766H43.024Zm-.754-7.579v-1.084h8.359v1.084a4.18,4.18,0,0,1-8.359,0Zm-3.542-9.715H62.508v2.413a2.081,2.081,0,0,1-2.079,2.079H41.756Zm-8.431,0h4.291V111.2a3.457,3.457,0,0,0,3.453,3.453h.089v1.084a8.267,8.267,0,0,0,1.281,4.428l-6.678,34.975h-20.7a2.072,2.072,0,0,1-2.07-2.07V106.688a7.724,7.724,0,0,0,12.033-3.65h3.832a4.843,4.843,0,0,0,4.466,2.985ZM14.1,100.553a3.6,3.6,0,1,1,3.6,3.6A3.6,3.6,0,0,1,14.1,100.553ZM28.488,90.315V98.9H25.257a7.739,7.739,0,0,0-15.12,0h-6V90.315Z" transform="translate(0 -40.083)" fill="#526271"/><path d="M70.06,66.9a2.07,2.07,0,1,0,0,4.14H81.935a2.07,2.07,0,0,0,0-4.14Z" transform="translate(-49.223 -59.498)" fill="#526271"/><path d="M457.715,68.968a2.071,2.071,0,1,0-2.071,2.071A2.071,2.071,0,0,0,457.715,68.968Z" transform="translate(-328.372 -59.496)" fill="#526271"/><path d="M436.7,68.968a2.071,2.071,0,1,0-2.071,2.071A2.071,2.071,0,0,0,436.7,68.968Z" transform="translate(-313.161 -59.496)" fill="#526271"/><path d="M415.695,68.968a2.071,2.071,0,1,0-2.071,2.071A2.071,2.071,0,0,0,415.695,68.968Z" transform="translate(-297.951 -59.496)" fill="#526271"/><path d="M137.748,133.64H104.207a6.071,6.071,0,0,0-11.512,0H76.328a6.073,6.073,0,1,0-.1,4.14H92.8a6.07,6.07,0,0,0,11.311,0h33.742a6.072,6.072,0,1,0-.1-4.14ZM70.572,137.5a1.932,1.932,0,1,1,1.932-1.932A1.934,1.934,0,0,1,70.572,137.5Zm27.879,0a1.932,1.932,0,1,1,1.932-1.932A1.934,1.934,0,0,1,98.451,137.5Zm46.985-1.932a1.932,1.932,0,1,1-1.932-1.932A1.934,1.934,0,0,1,145.436,135.573Z" transform="translate(-46.695 -104.818)" fill="#526271"/><path d="M255.783,321.886h-5.568a2.9,2.9,0,0,0-2.9,2.9v12.473h-2.88a2.07,2.07,0,1,0,0,4.14H303.3a2.07,2.07,0,1,0,0-4.14h-2.88v-21.7a2.9,2.9,0,0,0-2.9-2.9h-5.568a2.9,2.9,0,0,0-2.9,2.9v21.7h-2.548v-9.4a2.9,2.9,0,0,0-2.9-2.9H278.04a2.9,2.9,0,0,0-2.9,2.9v9.4h-2.548V309.413a2.9,2.9,0,0,0-2.9-2.9h-5.568a2.9,2.9,0,0,0-2.9,2.9v27.845h-2.548V324.785A2.9,2.9,0,0,0,255.783,321.886Zm-1.242,15.371h-3.083V326.027h3.083ZM293.195,316.8h3.083v20.454h-3.083Zm-13.912,12.3h3.083v8.157h-3.083Zm-13.913-18.445h3.083v26.6h-3.083Z" transform="translate(-175.466 -232.971)" fill="#526271"/><path d="M413.493,163.147H396.647a2.07,2.07,0,1,0,0,4.14h16.846a2.07,2.07,0,0,0,0-4.14Z" transform="translate(-285.661 -129.177)" fill="#526271"/><path d="M413.493,191.161H396.647a2.07,2.07,0,1,0,0,4.14h16.846a2.07,2.07,0,0,0,0-4.14Z" transform="translate(-285.661 -149.459)" fill="#526271"/><path d="M413.493,219.174H396.647a2.07,2.07,0,1,0,0,4.14h16.846a2.07,2.07,0,0,0,0-4.14Z" transform="translate(-285.661 -169.739)" fill="#526271"/><path d="M413.493,247.187H396.647a2.07,2.07,0,1,0,0,4.14h16.846a2.07,2.07,0,0,0,0-4.14Z" transform="translate(-285.661 -190.02)" fill="#526271"/><path d="M413.493,275.2H396.647a2.07,2.07,0,1,0,0,4.141h16.846a2.07,2.07,0,0,0,0-4.141Z" transform="translate(-285.661 -210.3)" fill="#526271"/></g></g></svg>