<svg xmlns="http://www.w3.org/2000/svg" width="139.292" height="123.497" viewBox="0 0 139.292 123.497"><g transform="translate(-621.5 -2582.535)"><rect width="20" height="13" transform="translate(679 2649)" fill="#2595d3"/><circle cx="3.5" cy="3.5" r="3.5" transform="translate(639 2619)" fill="#2595d3"/><circle cx="3.5" cy="3.5" r="3.5" transform="translate(640 2641)" fill="#2595d3"/><circle cx="3.5" cy="3.5" r="3.5" transform="translate(639 2662)" fill="#2595d3"/><g transform="translate(96 -1)"><circle cx="3.5" cy="3.5" r="3.5" transform="translate(639 2619)" fill="#2595d3"/><circle cx="3.5" cy="3.5" r="3.5" transform="translate(640 2641)" fill="#2595d3"/><circle cx="3.5" cy="3.5" r="3.5" transform="translate(639 2662)" fill="#2595d3"/></g><rect width="129" height="12" transform="translate(625 2589)" fill="#2595d3"/><g transform="translate(621.5 2553.506)"><path d="M32.828,58.689a2.04,2.04,0,0,0,2.04,2.04H52.449a2.04,2.04,0,1,0,0-4.081H34.868A2.04,2.04,0,0,0,32.828,58.689Z" transform="translate(-23.897 -20.106)" fill="#526271"/><path d="M134.279,29.029H29.689a2.04,2.04,0,0,0,0,4.081h104.59a.934.934,0,0,1,.933.933V44.057H4.081V34.042a.934.934,0,0,1,.933-.933H21.532a2.04,2.04,0,1,0,0-4.081H5.014A5.019,5.019,0,0,0,0,34.042v113.47a5.019,5.019,0,0,0,5.014,5.014H112.19a2.04,2.04,0,1,0,0-4.081H5.014a.934.934,0,0,1-.933-.933V48.138H135.212v99.374a.934.934,0,0,1-.933.933H120.348a2.04,2.04,0,1,0,0,4.081h13.931a5.019,5.019,0,0,0,5.013-5.014V34.042A5.019,5.019,0,0,0,134.279,29.029Z" transform="translate(0)" fill="#526271"/><path d="M219.887,200.037a8.026,8.026,0,0,0-8.017,8.017v5.6h-1.96a3.524,3.524,0,0,0-3.52,3.52v15.238a3.524,3.524,0,0,0,3.52,3.52h19.953a3.524,3.524,0,0,0,3.52-3.52V217.171a3.524,3.524,0,0,0-3.52-3.52H227.9v-5.6A8.026,8.026,0,0,0,219.887,200.037Zm-3.936,8.017a3.936,3.936,0,1,1,7.872,0v5.6h-7.872ZM229.3,231.848H210.472V217.731H229.3Z" transform="translate(-150.241 -124.484)" fill="#526271"/><path d="M159.356,207.74a5.724,5.724,0,1,0-1.6-11.215l-3.763-3.763a2.041,2.041,0,0,0-1.443-.6H140.755v-9.57h12a5.724,5.724,0,1,0,0-4.081h-12v-9.57H152.55a2.042,2.042,0,0,0,1.443-.6l3.763-3.763a5.748,5.748,0,1,0-3.271-2.5l-2.78,2.78h-10.95v-3.943a4.045,4.045,0,0,0-4.041-4.041H113.884a2.04,2.04,0,0,0,0,4.081h22.79v36.895l-25.852,18.783L84.969,197.855v-36.9h20.757a2.04,2.04,0,1,0,0-4.081h-20.8a4.046,4.046,0,0,0-4.041,4.041v3.943H69.939l-2.78-2.78a5.732,5.732,0,1,0-3.27,2.5l3.762,3.762a2.04,2.04,0,0,0,1.443.6H80.888v9.57h-12a5.724,5.724,0,1,0,0,4.081h12v9.57H69.093a2.041,2.041,0,0,0-1.443.6l-3.762,3.762a5.748,5.748,0,1,0,3.27,2.5l2.78-2.78h10.95v1.63a4.053,4.053,0,0,0,1.666,3.269l25.892,18.812a4.029,4.029,0,0,0,4.75,0l25.893-18.812a4.053,4.053,0,0,0,1.665-3.269v-1.63H151.7l2.78,2.78a5.712,5.712,0,0,0,4.871,8.715Zm-1.261-28.829a1.643,1.643,0,1,1-1.643,1.643A1.645,1.645,0,0,1,158.095,178.911Zm1.261-21.462a1.643,1.643,0,1,1-1.643,1.643A1.645,1.645,0,0,1,159.356,157.449Zm-98.711,1.643a1.643,1.643,0,1,1,1.643,1.643A1.645,1.645,0,0,1,60.645,159.092Zm2.9,23.1a1.643,1.643,0,1,1,1.643-1.643A1.645,1.645,0,0,1,63.549,182.2Zm-1.261,21.462a1.643,1.643,0,1,1,1.643-1.643A1.645,1.645,0,0,1,62.288,203.659ZM161,202.016a1.643,1.643,0,1,1-1.643-1.643A1.645,1.645,0,0,1,161,202.016Z" transform="translate(-41.175 -90.512)" fill="#526271"/></g></g></svg>