<svg xmlns="http://www.w3.org/2000/svg" width="154.97" height="121.024" viewBox="0 0 154.97 121.024"><g transform="translate(0 -56.076)"><g transform="translate(26.217 89.828)"><path d="M180.957,245.215H172.7a1.514,1.514,0,0,0-1.513,1.513v59.993H185.9V249.512a32.788,32.788,0,0,1-4.939-4.3Z" transform="translate(-149.589 -221.779)" fill="#2595d3"/><g transform="translate(51.192 44.285)"><path d="M270.461,354.616h-14.71v-39.2a1.514,1.514,0,0,1,1.513-1.513h11.684a1.514,1.514,0,0,1,1.513,1.513Z" transform="translate(-259.751 -313.96)" fill="#2595d3"/></g><g transform="translate(0 42.773)"><path d="M101.329,351.134H86.619V310.418a1.514,1.514,0,0,1,1.513-1.513H99.816a1.514,1.514,0,0,1,1.513,1.513Z" transform="translate(-90.619 -308.966)" fill="#2595d3"/></g><path d="M353.514,245.215h-7.088a32.8,32.8,0,0,1-6.109,5.088v56.418h14.71V246.728A1.514,1.514,0,0,0,353.514,245.215Z" transform="translate(-267.529 -221.779)" fill="#2595d3"/><g transform="translate(102.384 0)"><path d="M439.593,248.53h-14.71v-79.5a1.479,1.479,0,0,1,1.513-1.441H438.08a1.479,1.479,0,0,1,1.513,1.441Z" transform="translate(-428.884 -163.589)" fill="#2595d3"/></g></g><g transform="translate(0 56.076)"><path d="M152.7,172.56h-7.118V152.607a2.27,2.27,0,0,0-4.54,0V172.56h-10.17V92.1h10.17v49.915a2.27,2.27,0,0,0,4.54,0V91.342a3.788,3.788,0,0,0-3.783-3.783H130.115a3.788,3.788,0,0,0-3.783,3.783V172.56h-6.346V114.837a3.788,3.788,0,0,0-3.783-3.783h-2.33a34.892,34.892,0,1,0-62.7-27.144H40.428a5.3,5.3,0,0,0-4.753-2.974H9.909a9.909,9.909,0,0,0,0,19.818h8.857a2.27,2.27,0,1,0,0-4.54H9.909a5.369,5.369,0,0,1,0-10.737H35.675a.757.757,0,0,1,.757.757v9.224a.757.757,0,0,1-.757.757H29.36a2.27,2.27,0,1,0,0,4.54h6.315a5.3,5.3,0,0,0,4.753-2.975H51.122a34.724,34.724,0,0,0,5.7,13.275h-3.5a3.788,3.788,0,0,0-3.783,3.783V172.56H43.2V134.114a3.788,3.788,0,0,0-3.783-3.783H27.731a3.788,3.788,0,0,0-3.783,3.783V172.56H2.27a2.27,2.27,0,0,0,0,4.54H152.7a2.27,2.27,0,0,0,0-4.54ZM50.529,93.239H40.971V88.45h9.574q-.09,1.25-.092,2.522C50.453,91.734,50.481,92.489,50.529,93.239ZM38.658,172.56H28.488V134.871h10.17ZM54.994,90.972A30.356,30.356,0,1,1,85.35,121.328,30.391,30.391,0,0,1,54.994,90.972Zm9.26,81.588H54.083V115.594h6.561a35.2,35.2,0,0,0,3.609,3.157Zm25.6,0H79.68V136.383H89.85Zm10.885,0H94.39V135.626a3.788,3.788,0,0,0-3.783-3.783H78.923a3.788,3.788,0,0,0-3.783,3.783V172.56H68.794V121.685a34.845,34.845,0,0,0,31.941.6V172.56Zm14.711,0H105.276V119.6a35.163,35.163,0,0,0,4.779-4.01h5.391Z" transform="translate(0 -56.076)" fill="#526271"/><path d="M224.164,138.646a25.069,25.069,0,0,0,12.277-3.219,2.27,2.27,0,0,0-2.228-3.956,20.568,20.568,0,1,1,7.02-6.481A2.27,2.27,0,0,0,245,127.523a25.09,25.09,0,1,0-20.836,11.123Z" transform="translate(-138.814 -78.653)" fill="#526271"/><path d="M3.783,238.732H38.65a3.788,3.788,0,0,0,3.783-3.783V221.781A3.788,3.788,0,0,0,38.65,218H3.783A3.788,3.788,0,0,0,0,221.781v13.167A3.788,3.788,0,0,0,3.783,238.732Zm.757-16.194H37.893v11.654H4.54Z" transform="translate(0 -168.988)" fill="#526271"/><path d="M30.8,244.749H25.857a2.27,2.27,0,0,0,0,4.54H30.8a2.27,2.27,0,0,0,0-4.54Z" transform="translate(-16.448 -187.642)" fill="#526271"/><path d="M75.638,244.749H63.38a2.27,2.27,0,1,0,0,4.54H75.638a2.27,2.27,0,1,0,0-4.54Z" transform="translate(-42.613 -187.642)" fill="#526271"/><path d="M25.088,326.37H11.77a2.27,2.27,0,0,0,0,4.54H25.088a2.27,2.27,0,0,0,0-4.54Z" transform="translate(-6.625 -244.558)" fill="#526271"/><path d="M25.088,351.633H11.77a2.27,2.27,0,0,0,0,4.54H25.088a2.27,2.27,0,0,0,0-4.54Z" transform="translate(-6.625 -262.175)" fill="#526271"/><path d="M27.358,379.393a2.27,2.27,0,0,0-2.27-2.27H11.77a2.27,2.27,0,1,0,0,4.54H25.088A2.27,2.27,0,0,0,27.358,379.393Z" transform="translate(-6.625 -279.95)" fill="#526271"/><path d="M11.77,402.5a2.27,2.27,0,0,0,0,4.54h5.97a2.27,2.27,0,0,0,0-4.54Z" transform="translate(-6.625 -297.646)" fill="#526271"/></g></g></svg>