<svg xmlns="http://www.w3.org/2000/svg" width="170.091" height="144.306" viewBox="0 0 170.091 144.306"><g transform="translate(0 -38.809)"><g transform="translate(17.466 67.215)"><g transform="translate(9.6 26.716)"><g transform="translate(72.636 72.68)"><path d="M314.1,417.51h-6.876a1.086,1.086,0,0,1-1.086-1.086v-6.876a1.086,1.086,0,0,1,1.086-1.086H314.1a1.086,1.086,0,0,1,1.086,1.086v6.876A1.086,1.086,0,0,1,314.1,417.51Z" transform="translate(-304.14 -413.463)" fill="#2595d3"/></g><g transform="translate(0 0)"><path d="M144.751,215.892c0-14.376-12.923-26.205-28.628-26.205a30.849,30.849,0,0,0-5.723.533v11.548a1.1,1.1,0,0,1-1.142,1.045h-17.9a24.27,24.27,0,0,0-3.866,13.078c0,14.376,12.923,26.2,28.628,26.2a31.043,31.043,0,0,0,9.1-1.359l-9.1-24.846h28.628Z" transform="translate(-87.495 -189.687)" fill="#2595d3"/><g transform="translate(40.57 36.909)"><path d="M209.617,300.788l7.564,24.863c9.435-3.483,16.237-13.295,16.237-24.863Z" transform="translate(-206.79 -301.788)" fill="#2595d3"/></g></g><g transform="translate(64.625)"><g transform="translate(0 -2)"><path d="M340.519,196.483h-53.97c-2.5,0-4.523-1.521-4.523-3.4s2.025-3.4,4.523-3.4h53.97c2.5,0,4.523,1.521,4.523,3.4S343.017,196.483,340.519,196.483Z" transform="translate(-282.026 -189.687)" fill="#2595d3"/></g><path d="M286.549,189.686c-2.5,0-4.523,1.521-4.523,3.4s2.025,3.4,4.523,3.4h33.672v-6.8H286.549Z" transform="translate(-282.026 -191.687)" fill="#2595d3"/></g></g></g><g transform="translate(0 38.809)"><path d="M164.474,59.724H54.463V42.442a3.638,3.638,0,0,0-3.634-3.633H44.516a2.492,2.492,0,1,0,0,4.983H49.48v56.989H4.983V52.375l8.583-8.583H32.889a2.492,2.492,0,1,0,0-4.983H13.008a3.61,3.61,0,0,0-2.569,1.064L1.064,49.247A3.61,3.61,0,0,0,0,51.816v50.315a3.637,3.637,0,0,0,3.633,3.633H16.975v73.3a4.059,4.059,0,0,0,4.055,4.055H131.223a2.492,2.492,0,1,0,0-4.983H21.958V105.765h6.953a31.111,31.111,0,0,0,38.673,41.3,2.491,2.491,0,0,0,1.571-3.154l-8-23.861H66.11a2.492,2.492,0,1,0,0-4.983H57.695a2.492,2.492,0,0,0-2.362,3.284L63.6,143.021A26.232,26.232,0,0,1,31.559,117.56a25.768,25.768,0,0,1,2.844-11.8H50.83a3.638,3.638,0,0,0,3.634-3.633v-10.5a25.858,25.858,0,0,1,21.673,7.488,25.973,25.973,0,0,1,7.576,15.95H77.737a2.492,2.492,0,1,0,0,4.983h8.586a2.492,2.492,0,0,0,2.492-2.492A31.061,31.061,0,0,0,54.463,86.616V78.678H165.108v99.454H142.85a2.492,2.492,0,0,0,0,4.983h23.187a4.059,4.059,0,0,0,4.055-4.055V65.341a5.624,5.624,0,0,0-5.617-5.617Zm.634,13.97H54.463V64.707h110.01a.635.635,0,0,1,.634.634v8.353Z" transform="translate(0 -38.809)" fill="#526271"/><path d="M87.625,400.963a3.581,3.581,0,0,0-3.577,3.577v6.876a3.581,3.581,0,0,0,3.577,3.577H94.5a3.581,3.581,0,0,0,3.577-3.577V404.54a3.581,3.581,0,0,0-3.577-3.577Zm5.47,9.047H89.031v-4.064H93.1Z" transform="translate(-56.126 -280.652)" fill="#526271"/><path d="M136.648,414.58a2.492,2.492,0,0,0,0,4.983h38.359a2.492,2.492,0,0,0,0-4.983Z" transform="translate(-89.588 -289.745)" fill="#526271"/><path d="M302.217,414.993h6.876a3.581,3.581,0,0,0,3.577-3.577V404.54a3.581,3.581,0,0,0-3.577-3.577h-6.876a3.581,3.581,0,0,0-3.577,3.577v6.876A3.582,3.582,0,0,0,302.217,414.993Zm1.406-9.047h4.064v4.064h-4.064Z" transform="translate(-199.429 -280.652)" fill="#526271"/><path d="M351.241,419.563H389.6a2.492,2.492,0,0,0,0-4.983H351.241a2.492,2.492,0,1,0,0,4.983Z" transform="translate(-232.891 -289.745)" fill="#526271"/><path d="M235.728,295.781a2.492,2.492,0,0,0-2.492-2.492H204.609a2.492,2.492,0,0,0-2.362,3.284l9.1,27.143a2.489,2.489,0,0,0,3.154,1.571A31.086,31.086,0,0,0,235.728,295.781ZM215.24,319.658l-7.168-21.386h22.556A26.1,26.1,0,0,1,215.24,319.658Z" transform="translate(-134.972 -208.748)" fill="#526271"/><path d="M386.055,243.015H345.934a2.492,2.492,0,0,0,0,4.983h40.122a2.492,2.492,0,1,0,0-4.983Z" transform="translate(-229.347 -175.176)" fill="#526271"/><path d="M386.055,271.336H345.934a2.492,2.492,0,1,0,0,4.983h40.122a2.492,2.492,0,1,0,0-4.983Z" transform="translate(-229.347 -194.088)" fill="#526271"/><path d="M386.055,299.658H345.934a2.492,2.492,0,1,0,0,4.983h40.122a2.492,2.492,0,1,0,0-4.983Z" transform="translate(-229.347 -213.002)" fill="#526271"/><path d="M386.055,327.98H345.934a2.492,2.492,0,1,0,0,4.983h40.122a2.492,2.492,0,0,0,0-4.983Z" transform="translate(-229.347 -231.915)" fill="#526271"/><path d="M345.934,361.285h40.122a2.492,2.492,0,0,0,0-4.983H345.934a2.492,2.492,0,1,0,0,4.983Z" transform="translate(-229.347 -250.828)" fill="#526271"/><path d="M318.016,248h1.21a2.492,2.492,0,1,0,0-4.983h-1.21a2.492,2.492,0,1,0,0,4.983Z" transform="translate(-210.704 -175.176)" fill="#526271"/><path d="M318.016,276.319h1.21a2.492,2.492,0,1,0,0-4.983h-1.21a2.492,2.492,0,1,0,0,4.983Z" transform="translate(-210.704 -194.088)" fill="#526271"/><path d="M318.016,304.641h1.21a2.492,2.492,0,1,0,0-4.983h-1.21a2.492,2.492,0,1,0,0,4.983Z" transform="translate(-210.704 -213.002)" fill="#526271"/><path d="M318.016,332.963h1.21a2.492,2.492,0,0,0,0-4.983h-1.21a2.492,2.492,0,1,0,0,4.983Z" transform="translate(-210.704 -231.915)" fill="#526271"/><path d="M318.016,361.285h1.21a2.492,2.492,0,0,0,0-4.983h-1.21a2.492,2.492,0,1,0,0,4.983Z" transform="translate(-210.704 -250.828)" fill="#526271"/><path d="M342.525,189.2a7.023,7.023,0,0,0-7.015-7.015H281.541a7.015,7.015,0,0,0,0,14.03H335.51A7.023,7.023,0,0,0,342.525,189.2Zm-29.8,2.032h-31.18a2.032,2.032,0,1,1,0-4.064h31.18Zm4.983-4.064H335.51a2.032,2.032,0,0,1,0,4.064H317.7Z" transform="translate(-183.326 -134.555)" fill="#526271"/><path d="M54,73.129a2.492,2.492,0,0,0-4.983,0v8.952H46.765v-11.9a2.492,2.492,0,1,0-4.983,0v11.9H39.533v-6.01a2.492,2.492,0,1,0-4.983,0v6.01H33.426a2.492,2.492,0,1,0,0,4.983H62.352a2.492,2.492,0,1,0,0-4.983H61.228V68.225a2.492,2.492,0,0,0-4.983,0V82.081H54V73.129Z" transform="translate(-20.657 -56.789)" fill="#526271"/><path d="M35,143.642H33.427a2.492,2.492,0,1,0,0,4.983H35a2.492,2.492,0,1,0,0-4.983Z" transform="translate(-20.658 -108.816)" fill="#526271"/><path d="M35,168.274H33.427a2.492,2.492,0,0,0,0,4.983H35a2.492,2.492,0,0,0,0-4.983Z" transform="translate(-20.658 -125.265)" fill="#526271"/><path d="M35,192.907H33.427a2.492,2.492,0,0,0,0,4.983H35a2.492,2.492,0,1,0,0-4.983Z" transform="translate(-20.658 -141.714)" fill="#526271"/><path d="M79.418,168.274H58.981a2.492,2.492,0,0,0,0,4.983H79.418a2.492,2.492,0,0,0,0-4.983Z" transform="translate(-37.723 -125.265)" fill="#526271"/><path d="M79.418,143.642H58.981a2.492,2.492,0,1,0,0,4.983H79.418a2.492,2.492,0,1,0,0-4.983Z" transform="translate(-37.723 -108.816)" fill="#526271"/><path d="M79.418,192.907H58.981a2.492,2.492,0,0,0,0,4.983H79.418a2.492,2.492,0,1,0,0-4.983Z" transform="translate(-37.723 -141.714)" fill="#526271"/></g></g></svg>